<?xml version="1.0" encoding="iso-8859-1"?>
<!-- Generator: Adobe Illustrator 27.7.0, SVG Export Plug-In . SVG Version: 6.00 Build 0)  -->
<svg version="1.1" id="Layer_1" xmlns="http://www.w3.org/2000/svg" xmlns:xlink="http://www.w3.org/1999/xlink" x="0px" y="0px"
	 viewBox="0 0 128 128" style="enable-background:new 0 0 128 128;" xml:space="preserve">
<path d="M63.975,127.902C99.01,127.902,128,98.934,128,63.975C128,28.968,98.961,0,63.926,0C28.941,0,0,28.968,0,63.975
	C0,98.934,28.99,127.902,63.975,127.902z M63.976,119.901c-14.785,0-28.796-5.864-39.453-16.513C13.868,92.742,8,78.745,8,63.976
	c0-14.796,5.861-28.81,16.503-39.461C35.144,13.865,49.145,8,63.926,8c14.813,0,28.849,5.868,39.523,16.522
	C114.122,35.175,120,49.187,120,63.976c0,14.771-5.869,28.768-16.527,39.411C92.81,114.036,78.782,119.901,63.976,119.901z"/>
<path d="M61.912,38.15L34.985,60.735v27.642c0,4.37,2.604,6.923,7.076,6.923h43.879c4.422,0,7.026-2.553,7.026-6.923V60.784
	L65.99,38.15C64.663,37.02,63.238,37.07,61.912,38.15z M72.476,68.443v21.26H55.475v-21.26c0-1.473,0.983-2.406,2.408-2.406h12.186
	C71.542,66.038,72.476,66.97,72.476,68.443z"/>
<path d="M102.056,56.267l-9.09-7.627V35.645c0-1.276-0.835-2.16-2.113-2.16h-3.292c-1.277,0-2.162,0.884-2.162,2.16v6.645
	L68.643,28.232c-2.801-2.406-6.437-2.406-9.287,0L25.846,56.267c-0.688,0.589-1.032,1.375-1.032,2.16
	c0,1.326,1.081,2.602,2.801,2.602c0.835,0,1.523-0.491,2.113-1.031l32.43-27.151c1.277-1.08,2.408-0.982,3.636,0l32.332,27.151
	c0.737,0.54,1.376,1.031,2.211,1.031c1.474,0,2.702-1.031,2.702-2.504C103.039,57.544,102.744,56.856,102.056,56.267z"/>
<path style="opacity:0.6;fill:#FFFFFF;" d="M63.975,127.902C99.01,127.902,128,98.934,128,63.975C128,28.968,98.961,0,63.926,0
	C28.941,0,0,28.968,0,63.975C0,98.934,28.99,127.902,63.975,127.902z"/>
</svg>
