<?xml version="1.0" encoding="iso-8859-1"?>
<!-- Generator: Adobe Illustrator 27.7.0, SVG Export Plug-In . SVG Version: 6.00 Build 0)  -->
<svg version="1.1" id="Layer_1" xmlns="http://www.w3.org/2000/svg" xmlns:xlink="http://www.w3.org/1999/xlink" x="0px" y="0px"
	 viewBox="0 0 128 128" style="enable-background:new 0 0 128 128;" xml:space="preserve">
<path id="path36" style="fill-rule:evenodd;clip-rule:evenodd;fill:#FFDA39;" d="M127.997,44.667L61.683,64.701L0.177,44.667
	C-1.426,63.9,8.391,67.105,8.391,67.105l47.281,15.427c1.603,0.601,3.807,0.801,6.01,0.801c2.404,0,4.408-0.401,6.211-1.002
	l50.487-15.226C118.38,67.105,128.197,63.9,127.997,44.667"/>
<path id="path36_00000114762297960273187040000000244062322803210370_" style="opacity:0.6;fill-rule:evenodd;clip-rule:evenodd;fill:#FFFFFF;" d="
	M127.997,44.667L61.683,64.701L0.177,44.667C-1.426,63.9,8.391,67.105,8.391,67.105l47.281,15.427
	c1.603,0.601,3.807,0.801,6.01,0.801c2.404,0,4.408-0.401,6.211-1.002l50.487-15.226C118.38,67.105,128.197,63.9,127.997,44.667"/>
</svg>
