<?xml version="1.0" encoding="iso-8859-1"?>
<!-- Generator: Adobe Illustrator 27.8.0, SVG Export Plug-In . SVG Version: 6.00 Build 0)  -->
<svg version="1.1" id="Layer_1" xmlns="http://www.w3.org/2000/svg" xmlns:xlink="http://www.w3.org/1999/xlink" x="0px" y="0px"
	 viewBox="0 0 128 128" style="enable-background:new 0 0 128 128;" xml:space="preserve">
<g>
	<linearGradient id="SVGID_1_" gradientUnits="userSpaceOnUse" x1="132.7625" y1="35.0877" x2="-21.3513" y2="67.8456">
		<stop  offset="0" style="stop-color:#42B38E"/>
		<stop  offset="0.2411" style="stop-color:#42B38E"/>
		<stop  offset="0.4235" style="stop-color:#41B18D"/>
		<stop  offset="0.5312" style="stop-color:#3DA888"/>
		<stop  offset="0.6195" style="stop-color:#379A7F"/>
		<stop  offset="0.6973" style="stop-color:#2E8673"/>
		<stop  offset="0.7683" style="stop-color:#226C64"/>
		<stop  offset="0.8342" style="stop-color:#134C51"/>
		<stop  offset="0.8951" style="stop-color:#02263B"/>
		<stop  offset="0.9031" style="stop-color:#002138"/>
	</linearGradient>
	<path style="fill:url(#SVGID_1_);" d="M9.774,108.001c-7.582-49.864,23.263-78.429,93.538-72.169l22.139-33.522
		C114.592,0.756,104.309,0,94.671,0C22.332-0.003-13.934,42.539,9.774,108.001"/>
	
		<linearGradient id="SVGID_00000077285606532025386680000006165209133357523102_" gradientUnits="userSpaceOnUse" x1="98.9586" y1="71.5144" x2="3.6337" y2="91.7763">
		<stop  offset="0" style="stop-color:#42B38E"/>
		<stop  offset="0.2411" style="stop-color:#42B38E"/>
		<stop  offset="0.4502" style="stop-color:#41B18D"/>
		<stop  offset="0.5736" style="stop-color:#3DA888"/>
		<stop  offset="0.6749" style="stop-color:#379A7F"/>
		<stop  offset="0.7641" style="stop-color:#2E8673"/>
		<stop  offset="0.8455" style="stop-color:#226C64"/>
		<stop  offset="0.921" style="stop-color:#134C51"/>
		<stop  offset="0.9908" style="stop-color:#02263B"/>
		<stop  offset="1" style="stop-color:#002138"/>
	</linearGradient>
	<path style="fill:url(#SVGID_00000077285606532025386680000006165209133357523102_);" d="M16.467,118.132
		c3.045-39.849,26.465-51.619,65.153-49.458l12.545-18.992c-4.887-0.496-9.635-0.745-14.213-0.745
		C36.342,48.938,7.832,71.491,16.467,118.132"/>
	
		<linearGradient id="SVGID_00000026153214661080924460000016813901521949367168_" gradientUnits="userSpaceOnUse" x1="76.2531" y1="96.3752" x2="11.8405" y2="112.0093">
		<stop  offset="0" style="stop-color:#42B38E"/>
		<stop  offset="0.2411" style="stop-color:#42B38E"/>
		<stop  offset="0.4502" style="stop-color:#41B18D"/>
		<stop  offset="0.5736" style="stop-color:#3DA888"/>
		<stop  offset="0.6749" style="stop-color:#379A7F"/>
		<stop  offset="0.7641" style="stop-color:#2E8673"/>
		<stop  offset="0.8455" style="stop-color:#226C64"/>
		<stop  offset="0.921" style="stop-color:#134C51"/>
		<stop  offset="0.9908" style="stop-color:#02263B"/>
		<stop  offset="1" style="stop-color:#002138"/>
	</linearGradient>
	<path style="fill:url(#SVGID_00000026153214661080924460000016813901521949367168_);" d="M22.18,128
		c6.669-22.751,19.791-33.351,41.645-31.162l9.099-13.774c-3.058-0.377-6.027-0.563-8.885-0.563
		C39.037,82.5,22.142,96.894,22.18,128"/>
</g>
<g style="opacity:0.6;">
	<path style="fill:#FFFFFF;" d="M9.774,108.001c-7.582-49.864,23.263-78.429,93.538-72.169l22.139-33.522
		C114.592,0.756,104.309,0,94.671,0C22.332-0.003-13.934,42.539,9.774,108.001"/>
	<path style="fill:#FFFFFF;" d="M16.467,118.132c3.045-39.849,26.465-51.619,65.153-49.458l12.545-18.992
		c-4.887-0.496-9.635-0.745-14.213-0.745C36.342,48.938,7.832,71.491,16.467,118.132"/>
	<path style="fill:#FFFFFF;" d="M22.18,128c6.669-22.751,19.791-33.351,41.645-31.162l9.099-13.774
		c-3.058-0.377-6.027-0.563-8.885-0.563C39.037,82.5,22.142,96.894,22.18,128"/>
</g>
</svg>
