<?xml version="1.0" encoding="iso-8859-1"?>
<!-- Generator: Adobe Illustrator 27.8.0, SVG Export Plug-In . SVG Version: 6.00 Build 0)  -->
<svg version="1.1" id="Layer_1" xmlns="http://www.w3.org/2000/svg" xmlns:xlink="http://www.w3.org/1999/xlink" x="0px" y="0px"
	 viewBox="0 0 128 128" style="enable-background:new 0 0 128 128;" xml:space="preserve">
<g transform="translate(170.24 5.0558)">
	<g id="Layer_1_1_" transform="matrix(.52497 0 0 .52497 -170.24 -5.0558)">
		<g id="Nissan_Badge_1_">
			<path d="M142.085,130.063c-0.193,0.048-0.968,0.048-1.306,0.048h-24.963v5.805h25.398c0.194,0,1.693,0,1.983-0.048
				c5.176-0.484,7.547-4.789,7.547-8.563c0-3.87-2.467-8.031-7.16-8.466c-0.919-0.097-1.693-0.097-2.032-0.097H124.96
				c-0.726,0-1.548-0.048-1.838-0.145c-1.306-0.339-1.79-1.5-1.79-2.467c0-0.871,0.484-2.032,1.838-2.419
				c0.387-0.097,0.822-0.145,1.742-0.145h23.947v-5.709h-24.334c-1.016,0-1.79,0.048-2.419,0.145
				c-4.16,0.581-7.063,3.919-7.063,8.176c0,3.483,2.177,7.547,6.966,8.224c0.871,0.097,2.08,0.097,2.612,0.097h16.158
				c0.29,0,1.016,0,1.161,0.048c1.838,0.242,2.467,1.596,2.467,2.806C144.407,128.515,143.682,129.773,142.085,130.063z"/>
			<path d="M94.772,130.063c-0.194,0.048-0.968,0.048-1.258,0.048H68.503v5.805h25.398c0.194,0,1.693,0,1.983-0.048
				c5.176-0.484,7.547-4.789,7.547-8.563c0-3.87-2.467-8.031-7.16-8.466c-0.919-0.097-1.693-0.097-2.032-0.097H77.646
				c-0.726,0-1.548-0.048-1.838-0.145c-1.306-0.339-1.79-1.5-1.79-2.467c0-0.871,0.484-2.032,1.838-2.419
				c0.387-0.097,0.822-0.145,1.742-0.145h23.947v-5.709H77.211c-1.016,0-1.79,0.048-2.419,0.145
				c-4.16,0.581-7.063,3.919-7.063,8.176c0,3.483,2.177,7.547,6.966,8.224c0.871,0.097,2.08,0.097,2.612,0.097h16.158
				c0.29,0,1.016,0,1.161,0.048c1.838,0.242,2.467,1.596,2.467,2.806C97.094,128.515,96.417,129.773,94.772,130.063L94.772,130.063z
				"/>
			<rect x="49.2" y="107.665" width="6.289" height="28.398"/>
			<polygon points="35.316,136.062 35.316,107.665 29.027,107.665 29.027,128.854 8.079,107.665 0,107.665 0,136.062 6.289,136.062 
				6.289,114.776 27.382,136.062 			"/>
			<polygon points="237.583,107.665 237.583,128.854 216.635,107.665 208.556,107.665 208.556,136.062 214.845,136.062 
				214.845,114.776 235.89,136.062 243.823,136.062 243.823,107.665 			"/>
			<path d="M175.804,107.665l-17.706,28.398h7.644l3.145-5.08h20.657l3.145,5.08h7.595l-17.706-28.398H175.804z M186.302,125.613
				h-14.175l7.112-11.417L186.302,125.613z"/>
			<path d="M34.977,91.555C47.652,54.546,82.581,29.68,121.96,29.68s74.356,24.866,86.983,61.875l0.097,0.29h27.72v-3.338
				l-11.514-1.355c-7.112-0.822-8.611-3.967-10.546-7.934l-0.484-0.968c-16.642-35.412-52.877-58.343-92.256-58.343
				c-39.428,0-75.614,22.931-92.256,58.44l-0.484,0.968c-1.935,3.967-3.435,7.112-10.546,7.934L7.16,88.604v3.338h27.672
				L34.977,91.555z"/>
			<path d="M209.04,151.93l-0.097,0.29c-12.675,37.009-47.604,61.827-86.983,61.827s-74.356-24.866-86.983-61.875l-0.097-0.29H7.208
				v3.338l11.514,1.355c7.112,0.822,8.611,3.967,10.546,7.934l0.484,0.968c16.642,35.509,52.877,58.44,92.256,58.44
				s75.614-22.931,92.256-58.392l0.484-0.968c1.935-3.967,3.435-7.112,10.546-7.934l11.514-1.355v-3.338L209.04,151.93z"/>
		</g>
	</g>
</g>
<g transform="translate(170.24 5.0558)" style="opacity:0.6;">
	<g id="Layer_1_00000040561010175441607140000017312112380349900440_" transform="matrix(.52497 0 0 .52497 -170.24 -5.0558)">
		<g id="Nissan_Badge_00000027604284407588204540000011336326726824669875_">
			<path style="fill:#FFFFFF;" d="M142.085,130.063c-0.193,0.048-0.968,0.048-1.306,0.048h-24.963v5.805h25.398
				c0.194,0,1.693,0,1.983-0.048c5.176-0.484,7.547-4.789,7.547-8.563c0-3.87-2.467-8.031-7.16-8.466
				c-0.919-0.097-1.693-0.097-2.032-0.097H124.96c-0.726,0-1.548-0.048-1.838-0.145c-1.306-0.339-1.79-1.5-1.79-2.467
				c0-0.871,0.484-2.032,1.838-2.419c0.387-0.097,0.822-0.145,1.742-0.145h23.947v-5.709h-24.334c-1.016,0-1.79,0.048-2.419,0.145
				c-4.16,0.581-7.063,3.919-7.063,8.176c0,3.483,2.177,7.547,6.966,8.224c0.871,0.097,2.08,0.097,2.612,0.097h16.158
				c0.29,0,1.016,0,1.161,0.048c1.838,0.242,2.467,1.596,2.467,2.806C144.407,128.515,143.682,129.773,142.085,130.063z"/>
			<path style="fill:#FFFFFF;" d="M94.772,130.063c-0.194,0.048-0.968,0.048-1.258,0.048H68.503v5.805h25.398
				c0.194,0,1.693,0,1.983-0.048c5.176-0.484,7.547-4.789,7.547-8.563c0-3.87-2.467-8.031-7.16-8.466
				c-0.919-0.097-1.693-0.097-2.032-0.097H77.646c-0.726,0-1.548-0.048-1.838-0.145c-1.306-0.339-1.79-1.5-1.79-2.467
				c0-0.871,0.484-2.032,1.838-2.419c0.387-0.097,0.822-0.145,1.742-0.145h23.947v-5.709H77.211c-1.016,0-1.79,0.048-2.419,0.145
				c-4.16,0.581-7.063,3.919-7.063,8.176c0,3.483,2.177,7.547,6.966,8.224c0.871,0.097,2.08,0.097,2.612,0.097h16.158
				c0.29,0,1.016,0,1.161,0.048c1.838,0.242,2.467,1.596,2.467,2.806C97.094,128.515,96.417,129.773,94.772,130.063L94.772,130.063z
				"/>
			<rect x="49.2" y="107.665" style="fill:#FFFFFF;" width="6.289" height="28.398"/>
			<polygon style="fill:#FFFFFF;" points="35.316,136.062 35.316,107.665 29.027,107.665 29.027,128.854 8.079,107.665 0,107.665 
				0,136.062 6.289,136.062 6.289,114.776 27.382,136.062 			"/>
			<polygon style="fill:#FFFFFF;" points="237.583,107.665 237.583,128.854 216.635,107.665 208.556,107.665 208.556,136.062 
				214.845,136.062 214.845,114.776 235.89,136.062 243.823,136.062 243.823,107.665 			"/>
			<path style="fill:#FFFFFF;" d="M175.804,107.665l-17.706,28.398h7.644l3.145-5.08h20.657l3.145,5.08h7.595l-17.706-28.398
				H175.804z M186.302,125.613h-14.175l7.112-11.417L186.302,125.613z"/>
			<path style="fill:#FFFFFF;" d="M34.977,91.555C47.652,54.546,82.581,29.68,121.96,29.68s74.356,24.866,86.983,61.875l0.097,0.29
				h27.72v-3.338l-11.514-1.355c-7.112-0.822-8.611-3.967-10.546-7.934l-0.484-0.968c-16.642-35.412-52.877-58.343-92.256-58.343
				c-39.428,0-75.614,22.931-92.256,58.44l-0.484,0.968c-1.935,3.967-3.435,7.112-10.546,7.934L7.16,88.604v3.338h27.672
				L34.977,91.555z"/>
			<path style="fill:#FFFFFF;" d="M209.04,151.93l-0.097,0.29c-12.675,37.009-47.604,61.827-86.983,61.827
				s-74.356-24.866-86.983-61.875l-0.097-0.29H7.208v3.338l11.514,1.355c7.112,0.822,8.611,3.967,10.546,7.934l0.484,0.968
				c16.642,35.509,52.877,58.44,92.256,58.44s75.614-22.931,92.256-58.392l0.484-0.968c1.935-3.967,3.435-7.112,10.546-7.934
				l11.514-1.355v-3.338L209.04,151.93z"/>
		</g>
	</g>
</g>
</svg>
