<?xml version="1.0" encoding="iso-8859-1"?>
<!-- Generator: Adobe Illustrator 27.8.1, SVG Export Plug-In . SVG Version: 6.00 Build 0)  -->
<svg version="1.1" id="Layer_1" xmlns="http://www.w3.org/2000/svg" xmlns:xlink="http://www.w3.org/1999/xlink" x="0px" y="0px"
	 viewBox="0 0 512 512" style="enable-background:new 0 0 512 512;" xml:space="preserve">
<path d="M512.124,256.067c0,141.385-114.615,256-256,256s-256-114.615-256-256s114.615-256,256-256S512.124,114.683,512.124,256.067
	z M256.124,18C124.643,18,18.056,124.586,18.056,256.067s106.586,238.067,238.067,238.067s238.067-106.586,238.067-238.067
	S387.605,18,256.124,18z"/>
<path d="M128.816,190.894c-35.957,0-65.106,29.148-65.106,65.106c0,35.983,29.149,65.106,65.106,65.106
	c35.957,0,65.132-29.123,65.132-65.106C193.947,220.042,164.773,190.894,128.816,190.894z M128.816,284.695
	c-15.835,0-28.67-12.86-28.67-28.695c0-15.835,12.835-28.67,28.67-28.67c15.835,0,28.67,12.835,28.67,28.67
	C157.486,271.835,144.651,284.695,128.816,284.695z"/>
<path d="M383.159,190.894c-35.957,0-65.106,29.148-65.106,65.106c0,35.983,29.149,65.106,65.106,65.106
	c35.957,0,65.132-29.123,65.132-65.106C448.291,220.042,419.116,190.894,383.159,190.894z M383.159,284.695
	c-15.835,0-28.67-12.86-28.67-28.695c0-15.835,12.835-28.67,28.67-28.67c15.835,0,28.67,12.835,28.67,28.67
	C411.829,271.835,398.994,284.695,383.159,284.695z"/>
<g>
	<path d="M213.635,79.392C225.02,69.624,239.81,63.709,256,63.709c16.182,0,30.973,5.917,42.361,15.688L256,121.757L213.635,79.392z
		 M265,88.533c0-4.971-4.029-9-9-9c-4.971,0-9,4.029-9,9c0,4.971,4.029,9,9,9C260.971,97.533,265,93.504,265,88.533z"/>
	<path d="M298.355,178.254c-11.387,9.773-26.176,15.693-42.355,15.693c-16.188,0-30.975-5.918-42.359-15.688L256,135.899
		L298.355,178.254z M265,169.123c0-4.971-4.029-9-9-9c-4.971,0-9,4.029-9,9c0,4.971,4.029,9,9,9
		C260.971,178.123,265,174.094,265,169.123z"/>
	<path d="M263.071,128.828l42.36-42.36c9.763,11.386,15.675,26.172,15.675,42.347c0,16.179-5.914,30.973-15.682,42.365
		L263.071,128.828z M296.295,137.828c4.971,0,9-4.029,9-9s-4.029-9-9-9c-4.971,0-9,4.029-9,9S291.324,137.828,296.295,137.828z"/>
	<path d="M248.929,128.828l-42.357,42.357c-9.766-11.393-15.677-26.189-15.677-42.37c0-16.177,5.908-30.964,15.671-42.351
		L248.929,128.828z M215.705,137.828c4.971,0,9-4.029,9-9s-4.029-9-9-9c-4.971,0-9,4.029-9,9S210.734,137.828,215.705,137.828z"/>
</g>
<g>
	<path d="M213.635,333.729c11.385-9.768,26.175-15.683,42.365-15.683c16.182,0,30.973,5.917,42.361,15.688L256,376.094
		L213.635,333.729z M265,342.87c0-4.971-4.029-9-9-9c-4.971,0-9,4.029-9,9c0,4.971,4.029,9,9,9
		C260.971,351.87,265,347.841,265,342.87z"/>
	<path d="M298.355,432.591c-11.387,9.773-26.176,15.693-42.355,15.693c-16.188,0-30.975-5.918-42.359-15.688L256,390.236
		L298.355,432.591z M265,423.46c0-4.971-4.029-9-9-9c-4.971,0-9,4.029-9,9c0,4.971,4.029,9,9,9
		C260.971,432.46,265,428.431,265,423.46z"/>
	<path d="M263.071,383.165l42.36-42.36c9.763,11.386,15.675,26.172,15.675,42.347c0,16.179-5.914,30.973-15.682,42.365
		L263.071,383.165z M296.295,392.165c4.971,0,9-4.029,9-9c0-4.971-4.029-9-9-9c-4.971,0-9,4.029-9,9
		C287.295,388.136,291.324,392.165,296.295,392.165z"/>
	<path d="M248.929,383.165l-42.357,42.357c-9.766-11.393-15.677-26.189-15.677-42.37c0-16.177,5.908-30.964,15.671-42.351
		L248.929,383.165z M215.705,392.165c4.971,0,9-4.029,9-9c0-4.971-4.029-9-9-9c-4.971,0-9,4.029-9,9
		C206.705,388.136,210.734,392.165,215.705,392.165z"/>
</g>
</svg>
