<?xml version="1.0" encoding="iso-8859-1"?>
<!-- Generator: Adobe Illustrator 27.8.0, SVG Export Plug-In . SVG Version: 6.00 Build 0)  -->
<svg version="1.1" id="Layer_1" xmlns="http://www.w3.org/2000/svg" xmlns:xlink="http://www.w3.org/1999/xlink" x="0px" y="0px"
	 viewBox="0 0 128 128" style="enable-background:new 0 0 128 128;" xml:space="preserve">
<g>
	<rect style="fill:#191919;" width="128" height="128"/>
	<g>
		<path style="fill:#AAFE02;" d="M73.706,101.899l-3.191-4.472h-1.198v4.472h-1.672V91.711h1.672v4.16h1.186l2.899-4.16h2.059
			l-3.482,4.913l3.798,5.275h-2.076H73.706z"/>
		<path style="fill:#AAFE02;" d="M83.498,97.988c0,0.179-0.017,0.354-0.033,0.532h-6.377c0.204,1.273,1.119,2.055,2.404,2.055
			c0.94,0,1.697-0.433,2.113-1.152h1.701c-0.624,1.66-2.059,2.666-3.815,2.666c-2.296,0-4.039-1.772-4.039-4.122
			s1.735-4.122,4.039-4.122c2.404,0,4.006,1.851,4.006,4.139l0,0V97.988z M79.492,95.309c-1.215,0-2.101,0.732-2.367,1.897h4.751
			c-0.291-1.194-1.19-1.897-2.388-1.897l0,0H79.492z"/>
		<path style="fill:#AAFE02;" d="M89.102,93.995v1.527h-0.853c-1.335,0-2.001,0.761-2.001,2.184v4.189h-1.614v-7.854h1.094
			l0.275,1.073c0.562-0.745,1.331-1.115,2.404-1.115h0.699L89.102,93.995z"/>
		<path style="fill:#AAFE02;" d="M98.216,97.968c0,2.354-1.706,4.122-4.085,4.122c-1.102,0-2.067-0.404-2.775-1.082l-0.208,0.89
			h-1.223V91.224h1.614v3.54c0.686-0.578,1.581-0.911,2.587-0.911c2.379,0,4.085,1.755,4.085,4.122L98.216,97.968z M96.569,97.968
			c0-1.481-1.082-2.579-2.562-2.579c-1.481,0-2.575,1.107-2.575,2.579c0,1.456,1.094,2.575,2.575,2.575
			C95.487,100.543,96.569,99.444,96.569,97.968z"/>
	</g>
	<rect x="41.858" y="100.393" style="fill:#AAFE02;" width="23.391" height="1.506"/>
	<g>
		<path style="fill:#AAFE02;" d="M34.017,24.28c3.049,0,5.279,2.221,5.279,5.237c0,2.409-1.502,4.343-3.794,4.875v-1.693
			c1.356-0.487,2.18-1.676,2.18-3.182c0-2.038-1.535-3.536-3.661-3.536s-3.652,1.498-3.652,3.536c0,1.556,0.878,2.758,2.325,3.22
			v1.697c-2.396-0.528-3.939-2.463-3.939-4.917c0-3.016,2.23-5.237,5.271-5.237H34.017z"/>
		<path style="fill:#AAFE02;" d="M28.734,39.417c0-2.404,1.76-4.201,4.122-4.201c2.375,0,4.122,1.797,4.122,4.201
			c0,2.4-1.755,4.201-4.122,4.201C30.494,43.619,28.734,41.818,28.734,39.417L28.734,39.417z M32.857,41.976
			c1.506,0,2.579-1.069,2.579-2.558c0-1.489-1.073-2.558-2.579-2.558c-1.506,0-2.579,1.069-2.579,2.558
			C30.278,40.907,31.351,41.976,32.857,41.976z"/>
		<path style="fill:#AAFE02;" d="M36.963,48.919c0,1.839-1.369,2.987-3.307,2.987h-4.73v-1.614h4.405
			c1.427,0,2.184-0.62,2.184-1.801c0-1.235-0.994-2.109-2.379-2.109H28.93v-1.614h7.854v1.127l-1.098,0.312
			c0.79,0.595,1.277,1.564,1.277,2.721l0,0V48.919z"/>
		<path style="fill:#AAFE02;" d="M36.963,57.679c0,1.839-1.369,2.987-3.307,2.987h-4.73v-1.614h4.405
			c1.427,0,2.184-0.62,2.184-1.801c0-1.235-0.994-2.109-2.379-2.109H28.93v-1.614h7.854v1.127l-1.098,0.312
			c0.79,0.595,1.277,1.564,1.277,2.721l0,0V57.679z"/>
		<path style="fill:#AAFE02;" d="M32.836,69.926c-0.179,0-0.354-0.017-0.532-0.033v-6.377c-1.273,0.204-2.055,1.119-2.055,2.404
			c0,0.94,0.433,1.697,1.152,2.113v1.701c-1.66-0.624-2.666-2.059-2.666-3.815c0-2.296,1.772-4.039,4.122-4.039
			c2.35,0,4.122,1.735,4.122,4.039s-1.851,4.006-4.139,4.006l0,0H32.836z M35.515,65.92c0-1.215-0.732-2.101-1.897-2.367v4.751
			c1.194-0.291,1.897-1.19,1.897-2.388l0,0V65.92z"/>
		<path style="fill:#AAFE02;" d="M32.865,70.716c2.346,0,4.114,1.772,4.114,4.122c0,1.943-1.19,3.461-2.991,3.898v-1.602
			c0.903-0.412,1.452-1.277,1.452-2.3c0-1.414-1.119-2.475-2.575-2.475c-1.456,0-2.583,1.073-2.583,2.475
			c0,1.027,0.553,1.859,1.51,2.288v1.631c-1.835-0.433-3.053-1.98-3.053-3.919c0-2.342,1.78-4.118,4.131-4.118H32.865z"/>
		<path style="fill:#AAFE02;" d="M30.394,84.411h-1.468v-1.202c0-1.722,1.061-2.783,2.8-2.783h3.677v-1.406h0.312l2.904,2.733v0.275
			h-1.835v2.338h-1.385v-2.325H31.85c-0.936,0-1.46,0.52-1.46,1.473v0.894L30.394,84.411z"/>
		<path style="fill:#AAFE02;" d="M32.836,92.847c-0.179,0-0.354-0.017-0.532-0.033v-6.377c-1.273,0.204-2.055,1.119-2.055,2.404
			c0,0.94,0.433,1.697,1.152,2.113v1.701c-1.66-0.624-2.666-2.059-2.666-3.815c0-2.296,1.772-4.039,4.122-4.039
			c2.35,0,4.122,1.735,4.122,4.039c0,2.404-1.851,4.006-4.139,4.006l0,0H32.836z M35.515,88.841c0-1.215-0.732-2.101-1.897-2.367
			v4.751c1.194-0.291,1.897-1.19,1.897-2.388l0,0V88.841z"/>
		<path style="fill:#AAFE02;" d="M39.6,100.31v1.614H28.926v-1.223l0.89-0.208c-0.682-0.707-1.086-1.672-1.086-2.775
			c0-2.375,1.768-4.085,4.127-4.085c2.367,0,4.122,1.71,4.122,4.085c0,1.007-0.337,1.901-0.915,2.587H39.6V100.31z M30.278,97.847
			c0,1.481,1.119,2.575,2.579,2.575c1.46,0,2.579-1.094,2.579-2.575c0-1.481-1.098-2.562-2.579-2.562
			C31.376,95.285,30.278,96.366,30.278,97.847L30.278,97.847z"/>
	</g>
</g>
<g style="opacity:0.6;">
	<rect style="fill:#FFFFFF;" width="128" height="128"/>
</g>
</svg>
