<?xml version="1.0" encoding="iso-8859-1"?>
<!-- Generator: Adobe Illustrator 27.8.0, SVG Export Plug-In . SVG Version: 6.00 Build 0)  -->
<svg version="1.1" id="Layer_1" xmlns="http://www.w3.org/2000/svg" xmlns:xlink="http://www.w3.org/1999/xlink" x="0px" y="0px"
	 viewBox="0 0 128 128" style="enable-background:new 0 0 128 128;" xml:space="preserve">
<g>
	<path id="Path_00000101075976045402830590000008590628417068609720_" style="fill:#6CB33F;" d="M56.007,22.544h-1.169
		c-1.336,0-2.421,1.002-2.421,2.254v9.519h6.095v-9.519C58.428,23.546,57.343,22.544,56.007,22.544L56.007,22.544z"/>
	<path id="Path_00000078006223466540950080000014554020099558178433_" style="fill:#6CB33F;" d="M72.289,22.544H71.12
		c-1.336,0-2.421,1.002-2.421,2.254v9.519h6.095v-9.519C74.71,23.546,73.625,22.544,72.289,22.544L72.289,22.544z"/>
	<path style="fill:#6CB33F;" d="M97.338,14.194l-0.083-0.083C96.753,13.526,85.064,0,64.023,0C43.065,0,31.292,13.61,30.791,14.194
		c-17.868,21.709-8.016,41.999-7.515,42.917c11.356,20.707,37.824,69.052,37.907,69.302c0.584,1.002,1.67,1.586,2.839,1.586
		c0.501,0,1.002-0.083,1.503-0.334c0.751-0.417,1.336-1.002,1.586-1.837c0.251-0.835,0.167-1.586-0.25-2.338l-0.501-0.835
		c-3.59-6.596-27.136-49.68-37.406-68.3c-0.334-0.751-8.266-18.035,6.763-36.321c0.417-0.417,10.27-11.856,28.305-11.856
		c17.868,0,27.888,11.355,28.305,11.856c14.695,17.868,7.682,34.401,6.847,36.237L76.881,95.019
		c-1.503,2.254-3.59,3.173-5.845,2.588c-1.92-0.501-3.841-2.254-3.841-5.01V63.875h0.751c7.181-0.334,12.858-6.262,12.858-13.526
		V37.49H47.323v12.858c0,7.097,5.511,12.942,12.441,13.526h0.93l0.239,11.94v16.616c0,5.177,3.34,9.519,8.433,10.855
		c4.926,1.336,9.936-0.751,12.942-5.344l22.377-40.83l0.167-0.251C105.27,56.026,114.955,35.736,97.338,14.194z"/>
</g>
<g style="opacity:0.6;">
	<path id="Path_00000052068646082962567990000000386821017974768280_" style="fill:#FFFFFF;" d="M56.007,22.544h-1.169
		c-1.336,0-2.421,1.002-2.421,2.254v9.519h6.095v-9.519C58.428,23.546,57.343,22.544,56.007,22.544L56.007,22.544z"/>
	<path id="Path_00000052791424142235014890000015893291366351266490_" style="fill:#FFFFFF;" d="M72.289,22.544H71.12
		c-1.336,0-2.421,1.002-2.421,2.254v9.519h6.095v-9.519C74.71,23.546,73.625,22.544,72.289,22.544L72.289,22.544z"/>
	<path style="fill:#FFFFFF;" d="M97.338,14.194l-0.083-0.083C96.753,13.526,85.064,0,64.023,0C43.065,0,31.292,13.61,30.791,14.194
		c-17.868,21.709-8.016,41.999-7.515,42.917c11.356,20.707,37.824,69.052,37.907,69.302c0.584,1.002,1.67,1.586,2.839,1.586
		c0.501,0,1.002-0.083,1.503-0.334c0.751-0.417,1.336-1.002,1.586-1.837c0.251-0.835,0.167-1.586-0.25-2.338l-0.501-0.835
		c-3.59-6.596-27.136-49.68-37.406-68.3c-0.334-0.751-8.266-18.035,6.763-36.321c0.417-0.417,10.27-11.856,28.305-11.856
		c17.868,0,27.888,11.355,28.305,11.856c14.695,17.868,7.682,34.401,6.847,36.237L76.881,95.019
		c-1.503,2.254-3.59,3.173-5.845,2.588c-1.92-0.501-3.841-2.254-3.841-5.01V63.875h0.751c7.181-0.334,12.858-6.262,12.858-13.526
		V37.49H47.323v12.858c0,7.097,5.511,12.942,12.441,13.526h0.93l0.239,11.94v16.616c0,5.177,3.34,9.519,8.433,10.855
		c4.926,1.336,9.936-0.751,12.942-5.344l22.377-40.83l0.167-0.251C105.27,56.026,114.955,35.736,97.338,14.194z"/>
</g>
</svg>
