<?xml version="1.0" encoding="iso-8859-1"?>
<!-- Generator: Adobe Illustrator 27.8.0, SVG Export Plug-In . SVG Version: 6.00 Build 0)  -->
<svg version="1.1" id="Layer_1" xmlns="http://www.w3.org/2000/svg" xmlns:xlink="http://www.w3.org/1999/xlink" x="0px" y="0px"
	 viewBox="0 0 128 128" style="enable-background:new 0 0 128 128;" xml:space="preserve">
<path d="M11.65,82.56h0.64c5.544-0.071,10.377-1.279,15.565-2.488c0,0-7.179,2.132-10.946,2.772
	c-4.762,0.711-10.306,0.64-14.57-1.422c-0.284-0.213-0.64-0.426-0.995-0.498c1.564,1.35,3.412,2.203,5.473,2.63
	c7.036,1.137,14.073,0.284,20.825-0.924c2.203-0.355,4.407-0.924,6.539-1.208c-3.341,0.924-6.681,1.706-10.093,2.345
	c0,0-0.64,0.142-0.853,0.142c-5.544,0.853-12.794,1.35-18.408-0.498l0.071,0.071c6.184,2.843,14.215,1.777,21.18,1.137l9.027-1.422
	c1.137-0.213,2.345-0.426,3.554-0.426c-9.382,1.919-18.906,4.122-28.785,2.701c5.26,1.35,11.159,1.066,16.703,0.426l15.992-2.559
	c5.117-0.64,10.448-1.208,15.565-1.422c-3.269-0.853-6.397-2.061-9.453-3.625c-1.919-0.782-3.625-2.132-5.686-2.559
	c-0.782-0.071-1.493,0.711-1.777,1.279l-0.142-0.071c-0.569-0.853-1.137-2.061-0.711-3.198c0.569-1.279,0.071-1.493,0.711-2.772
	c0,0,0.853-1.422,1.706-1.564c-3.98,0-8.955-0.071-12.936,1.066c-5.757,1.35-10.306,5.686-15.921,7.392
	c-2.985,0.853-6.681,2.203-9.524,0.213c-1.208-0.782-1.848-2.132-1.706-3.554c-0.142,0.142-0.213,0.284-0.355,0.426
	c-0.569,1.35,0.142,2.914,1.137,3.909c2.417,2.061,6.326,1.422,9.24,1.208c3.909-0.498,7.818-1.35,11.585-2.559
	c-0.071,0.213-4.122,1.493-6.112,2.132c-4.478,1.279-10.164,2.417-14.784,0.569c-1.777-0.924-2.985-2.63-3.341-4.62
	c-0.284,1.493,0.426,2.772,1.066,3.909C3.831,82.56,8.025,82.276,11.65,82.56 M46.832,71.899c-0.142,0.213-0.355,0.284-0.569,0.213
	c0,0-0.071,0-0.071-0.071c-0.213-0.142-0.355-0.355-0.355-0.569c0.284,0.071,0,0.284,0.284,0.426
	c0.284,0.142,0.355-0.142,0.498-0.284c0.142-0.142-0.142-0.498,0-0.64C46.832,71.259,47.045,71.615,46.832,71.899L46.832,71.899z
	 M113.287,59.816l3.767-1.137c4.265-1.635,9.737-4.193,10.946-9.169c-1.919,3.625-5.97,5.899-9.311,7.108l-0.355,0.142
	c-2.914,1.137-5.828,1.99-8.884,2.559l-8.6,1.848c-3.909,0.995-7.747,2.203-11.443,3.696c-1.279,0.569-2.559,1.208-3.838,1.635
	c5.473-3.127,11.443-5.117,17.627-6.61c7.179-2.061,15.352-2.132,21.252-7.392c1.777-1.635,3.412-3.98,2.772-6.468
	c0,1.279-0.498,2.559-1.35,3.483c-3.341,3.838-7.96,5.473-12.651,6.61l-8.813,1.848l-10.946,2.701
	c-0.995,0.355-2.061,0.782-2.985,0.995c4.265-1.777,8.671-3.127,13.22-4.122l0.213-0.071c3.198-0.711,9.524-2.203,9.524-2.203
	c1.919-0.498,3.838-1.137,5.686-1.99c2.843-1.279,5.26-3.341,6.894-6.041c0.569-1.422,0.569-3.269-0.498-4.478
	c0.355,3.269-2.274,5.899-4.833,7.534c-5.117,2.843-10.946,4.051-16.774,5.117c3.838-0.995,7.747-1.919,11.443-3.412
	c3.696-1.493,8.671-3.909,9.027-8.458c0.071-1.99-1.066-3.838-2.914-4.691c0.142,0.142,0.213,0.284,0.355,0.426
	c1.066,1.706,1.066,3.838-0.142,5.473c-2.701,3.483-6.539,5.046-10.235,6.326c-0.924,0.355-1.919,0.64-2.914,0.853
	c2.132-0.711,4.265-1.564,6.255-2.701c2.274-1.35,5.188-3.483,5.899-6.184c0.64-2.488-1.635-4.265-3.412-5.544
	c0.284,0.426,0.569,0.924,0.853,1.422c0.924,1.777,0.142,3.909-1.066,5.402c-2.772,2.772-6.041,3.767-9.666,4.833
	c-8.387,2.559-18.124,1.564-25.8,5.899l-0.355,0.142c-2.132,1.066-4.549,2.914-6.823,4.336l-9.098,5.544
	c-2.274,1.208-4.336,2.772-6.965,2.985c-3.269-0.213-6.965-0.426-10.235,0.213c-2.061,0.426-4.122,0.853-5.828,2.061
	c-0.498,0.426-0.782,0.995-0.782,1.635c1.35-1.066,2.914-1.706,4.549-1.99c0.569-0.071,1.137-0.071,1.635,0l-1.35,0.284
	c-0.498,0.142-0.995,0.355-1.422,0.711l-0.498,0.284c0.711,0.355,1.279,1.35,2.203,1.137c0.64-0.355,0.995-0.995,0.924-1.706
	c2.63-0.498,5.331,0.355,7.534,1.777c-2.132-0.924-4.407-1.35-6.681-1.279c2.345,0.498,4.691,1.208,6.894,2.132
	c-2.203-0.569-4.407-0.995-6.681-1.279c2.274,0.711,4.549,1.493,6.752,2.488l0,0l0.355,0.142l-0.498-0.142l0,0
	c-2.132-0.711-4.336-1.208-6.61-1.422c1.422,0.426,2.772,0.924,4.193,1.422l0,0c0.64,0.213,1.279,0.498,1.848,0.782
	c0.213,0.142,0.426,0.284,0.64,0.426c-1.279-0.426-2.701-0.853-4.051-1.208l0,0c-0.995-0.213-1.99-0.426-2.985-0.498l1.422,0.569
	l0,0c1.422,0.569,2.843,1.066,4.265,1.564c-1.919-0.071-3.838-0.995-5.544-1.279c0.782,0.569,1.635,0.782,2.559,1.208
	c-2.061-0.071-4.051-0.569-5.899-1.422c0.355-0.142,0.853,0,1.279-0.071v-0.142c-1.137-0.355-2.274-0.498-3.483-0.355
	c0.426-0.355,0.924-0.569,1.422-0.569h0.142c0.355,0,0.64,0.213,0.995,0.071c-0.284-0.355-0.853-0.355-1.208-0.711
	c-0.142-0.355-0.355-0.711-0.569-1.066c-0.284-0.142-0.64-0.213-0.995-0.142c-0.995,0.284-1.706,1.066-1.99,2.061
	c-0.071,0.284-0.071,0.569-0.071,0.853l0,0c0,0.498,0.213,0.995,0.569,1.35c0.426-0.711,1.279-1.066,2.132-0.924
	c3.767,1.137,7.179,3.554,10.803,4.833c0,0,1.279,0.498,1.919,0.711c3.341,1.208,7.108,1.35,10.59,2.132l0,0
	c3.056,0.64,5.899,1.706,8.032,4.407c3.625,3.198,8.742,3.767,13.433,3.198c-1.279-0.355-2.559-0.569-3.909-0.853l0.213-0.071
	c2.488,0.426,5.046,0.426,7.605,0l-5.615-0.782l-0.711-0.213c3.554,0.569,7.179,0.426,10.661-0.426c-1.919,0.142-5.615,0-5.615,0
	c-0.355,0-0.64,0-0.995-0.142l-1.279-0.213c-0.498-0.071-0.995-0.213-1.493-0.355c0.071-0.071,0.142-0.071,0.142-0.071
	c3.483,0.569,7.036,0.498,10.519-0.284c-0.071,0,2.701-0.711,2.701-0.711c-3.625,0.569-8.174,0.853-11.941-0.284
	c5.615,1.137,11.23-0.355,16.276-1.919c-4.904,0.64-10.093,1.635-14.926,0.355c5.331,0.355,10.661-0.142,15.708-1.635h-1.35
	c-3.909,0.64-7.889,0.782-11.799,0.426c-0.213,0-0.498-0.071-0.711-0.142c2.274,0.071,4.62,0,6.894-0.284l0,0
	c3.412-0.355,6.752-1.066,10.093-1.99c-2.061,0.355-4.122,0.426-6.326,0.64c-7.179,0.284-14.926,0.284-21.038-2.701
	c-0.569-0.355-1.422-0.64-1.564-1.422c0.711-0.995,1.493-1.848,2.345-2.701l0,0c0.853-0.853,1.706-1.635,2.701-2.345
	c8.884-6.041,19.261-8.529,29.638-10.946c4.975-1.493,11.23-3.412,12.936-9.098c-2.63,4.336-7.534,6.397-12.012,7.676
	c-11.301,2.63-22.602,4.975-32.695,10.59H82.37c6.539-4.193,14.002-6.681,21.323-8.6L113.287,59.816z"/>
<path style="opacity:0.6;fill:#FFFFFF;" d="M11.65,82.56h0.64c5.544-0.071,10.377-1.279,15.565-2.488c0,0-7.179,2.132-10.946,2.772
	c-4.762,0.711-10.306,0.64-14.57-1.422c-0.284-0.213-0.64-0.426-0.995-0.498c1.564,1.35,3.412,2.203,5.473,2.63
	c7.036,1.137,14.073,0.284,20.825-0.924c2.203-0.355,4.407-0.924,6.539-1.208c-3.341,0.924-6.681,1.706-10.093,2.345
	c0,0-0.64,0.142-0.853,0.142c-5.544,0.853-12.794,1.35-18.408-0.498l0.071,0.071c6.184,2.843,14.215,1.777,21.18,1.137l9.027-1.422
	c1.137-0.213,2.345-0.426,3.554-0.426c-9.382,1.919-18.906,4.122-28.785,2.701c5.26,1.35,11.159,1.066,16.703,0.426l15.992-2.559
	c5.117-0.64,10.448-1.208,15.565-1.422c-3.269-0.853-6.397-2.061-9.453-3.625c-1.919-0.782-3.625-2.132-5.686-2.559
	c-0.782-0.071-1.493,0.711-1.777,1.279l-0.142-0.071c-0.569-0.853-1.137-2.061-0.711-3.198c0.569-1.279,0.071-1.493,0.711-2.772
	c0,0,0.853-1.422,1.706-1.564c-3.98,0-8.955-0.071-12.936,1.066c-5.757,1.35-10.306,5.686-15.921,7.392
	c-2.985,0.853-6.681,2.203-9.524,0.213c-1.208-0.782-1.848-2.132-1.706-3.554c-0.142,0.142-0.213,0.284-0.355,0.426
	c-0.569,1.35,0.142,2.914,1.137,3.909c2.417,2.061,6.326,1.422,9.24,1.208c3.909-0.498,7.818-1.35,11.585-2.559
	c-0.071,0.213-4.122,1.493-6.112,2.132c-4.478,1.279-10.164,2.417-14.784,0.569c-1.777-0.924-2.985-2.63-3.341-4.62
	c-0.284,1.493,0.426,2.772,1.066,3.909C3.831,82.56,8.025,82.276,11.65,82.56 M46.832,71.899c-0.142,0.213-0.355,0.284-0.569,0.213
	c0,0-0.071,0-0.071-0.071c-0.213-0.142-0.355-0.355-0.355-0.569c0.284,0.071,0,0.284,0.284,0.426
	c0.284,0.142,0.355-0.142,0.498-0.284c0.142-0.142-0.142-0.498,0-0.64C46.832,71.259,47.045,71.615,46.832,71.899L46.832,71.899z
	 M113.287,59.816l3.767-1.137c4.265-1.635,9.737-4.193,10.946-9.169c-1.919,3.625-5.97,5.899-9.311,7.108l-0.355,0.142
	c-2.914,1.137-5.828,1.99-8.884,2.559l-8.6,1.848c-3.909,0.995-7.747,2.203-11.443,3.696c-1.279,0.569-2.559,1.208-3.838,1.635
	c5.473-3.127,11.443-5.117,17.627-6.61c7.179-2.061,15.352-2.132,21.252-7.392c1.777-1.635,3.412-3.98,2.772-6.468
	c0,1.279-0.498,2.559-1.35,3.483c-3.341,3.838-7.96,5.473-12.651,6.61l-8.813,1.848l-10.946,2.701
	c-0.995,0.355-2.061,0.782-2.985,0.995c4.265-1.777,8.671-3.127,13.22-4.122l0.213-0.071c3.198-0.711,9.524-2.203,9.524-2.203
	c1.919-0.498,3.838-1.137,5.686-1.99c2.843-1.279,5.26-3.341,6.894-6.041c0.569-1.422,0.569-3.269-0.498-4.478
	c0.355,3.269-2.274,5.899-4.833,7.534c-5.117,2.843-10.946,4.051-16.774,5.117c3.838-0.995,7.747-1.919,11.443-3.412
	c3.696-1.493,8.671-3.909,9.027-8.458c0.071-1.99-1.066-3.838-2.914-4.691c0.142,0.142,0.213,0.284,0.355,0.426
	c1.066,1.706,1.066,3.838-0.142,5.473c-2.701,3.483-6.539,5.046-10.235,6.326c-0.924,0.355-1.919,0.64-2.914,0.853
	c2.132-0.711,4.265-1.564,6.255-2.701c2.274-1.35,5.188-3.483,5.899-6.184c0.64-2.488-1.635-4.265-3.412-5.544
	c0.284,0.426,0.569,0.924,0.853,1.422c0.924,1.777,0.142,3.909-1.066,5.402c-2.772,2.772-6.041,3.767-9.666,4.833
	c-8.387,2.559-18.124,1.564-25.8,5.899l-0.355,0.142c-2.132,1.066-4.549,2.914-6.823,4.336l-9.098,5.544
	c-2.274,1.208-4.336,2.772-6.965,2.985c-3.269-0.213-6.965-0.426-10.235,0.213c-2.061,0.426-4.122,0.853-5.828,2.061
	c-0.498,0.426-0.782,0.995-0.782,1.635c1.35-1.066,2.914-1.706,4.549-1.99c0.569-0.071,1.137-0.071,1.635,0l-1.35,0.284
	c-0.498,0.142-0.995,0.355-1.422,0.711l-0.498,0.284c0.711,0.355,1.279,1.35,2.203,1.137c0.64-0.355,0.995-0.995,0.924-1.706
	c2.63-0.498,5.331,0.355,7.534,1.777c-2.132-0.924-4.407-1.35-6.681-1.279c2.345,0.498,4.691,1.208,6.894,2.132
	c-2.203-0.569-4.407-0.995-6.681-1.279c2.274,0.711,4.549,1.493,6.752,2.488l0,0l0.355,0.142l-0.498-0.142l0,0
	c-2.132-0.711-4.336-1.208-6.61-1.422c1.422,0.426,2.772,0.924,4.193,1.422l0,0c0.64,0.213,1.279,0.498,1.848,0.782
	c0.213,0.142,0.426,0.284,0.64,0.426c-1.279-0.426-2.701-0.853-4.051-1.208l0,0c-0.995-0.213-1.99-0.426-2.985-0.498l1.422,0.569
	l0,0c1.422,0.569,2.843,1.066,4.265,1.564c-1.919-0.071-3.838-0.995-5.544-1.279c0.782,0.569,1.635,0.782,2.559,1.208
	c-2.061-0.071-4.051-0.569-5.899-1.422c0.355-0.142,0.853,0,1.279-0.071v-0.142c-1.137-0.355-2.274-0.498-3.483-0.355
	c0.426-0.355,0.924-0.569,1.422-0.569h0.142c0.355,0,0.64,0.213,0.995,0.071c-0.284-0.355-0.853-0.355-1.208-0.711
	c-0.142-0.355-0.355-0.711-0.569-1.066c-0.284-0.142-0.64-0.213-0.995-0.142c-0.995,0.284-1.706,1.066-1.99,2.061
	c-0.071,0.284-0.071,0.569-0.071,0.853l0,0c0,0.498,0.213,0.995,0.569,1.35c0.426-0.711,1.279-1.066,2.132-0.924
	c3.767,1.137,7.179,3.554,10.803,4.833c0,0,1.279,0.498,1.919,0.711c3.341,1.208,7.108,1.35,10.59,2.132l0,0
	c3.056,0.64,5.899,1.706,8.032,4.407c3.625,3.198,8.742,3.767,13.433,3.198c-1.279-0.355-2.559-0.569-3.909-0.853l0.213-0.071
	c2.488,0.426,5.046,0.426,7.605,0l-5.615-0.782l-0.711-0.213c3.554,0.569,7.179,0.426,10.661-0.426c-1.919,0.142-5.615,0-5.615,0
	c-0.355,0-0.64,0-0.995-0.142l-1.279-0.213c-0.498-0.071-0.995-0.213-1.493-0.355c0.071-0.071,0.142-0.071,0.142-0.071
	c3.483,0.569,7.036,0.498,10.519-0.284c-0.071,0,2.701-0.711,2.701-0.711c-3.625,0.569-8.174,0.853-11.941-0.284
	c5.615,1.137,11.23-0.355,16.276-1.919c-4.904,0.64-10.093,1.635-14.926,0.355c5.331,0.355,10.661-0.142,15.708-1.635h-1.35
	c-3.909,0.64-7.889,0.782-11.799,0.426c-0.213,0-0.498-0.071-0.711-0.142c2.274,0.071,4.62,0,6.894-0.284l0,0
	c3.412-0.355,6.752-1.066,10.093-1.99c-2.061,0.355-4.122,0.426-6.326,0.64c-7.179,0.284-14.926,0.284-21.038-2.701
	c-0.569-0.355-1.422-0.64-1.564-1.422c0.711-0.995,1.493-1.848,2.345-2.701l0,0c0.853-0.853,1.706-1.635,2.701-2.345
	c8.884-6.041,19.261-8.529,29.638-10.946c4.975-1.493,11.23-3.412,12.936-9.098c-2.63,4.336-7.534,6.397-12.012,7.676
	c-11.301,2.63-22.602,4.975-32.695,10.59H82.37c6.539-4.193,14.002-6.681,21.323-8.6L113.287,59.816z"/>
</svg>
