<?xml version="1.0" encoding="UTF-8"?>
<svg xmlns="http://www.w3.org/2000/svg" viewBox="0 0 128 128">
  <g id="Layer_1" data-name="Layer 1">
    <path d="m63.98,128c35.03,0,64.02-28.99,64.02-63.98S98.96,0,63.93,0,0,28.99,0,64.02s28.99,63.98,63.98,63.98Zm0-9.14c-30.37,0-54.79-24.47-54.79-54.84S33.56,9.19,63.93,9.19s54.89,24.42,54.89,54.84-24.42,54.84-54.84,54.84Z"/>
  </g>
  <g id="Capa_1" data-name="Capa 1">
    <path d="m105.34,60.21v33.53c0,1.12-.91,2.03-2.03,2.03H24.69c-1.12,0-2.03-.91-2.03-2.03v-23.72c0-.77.44-1.48,1.13-1.82l19.66-9.81c.63-.31,1.38-.28,1.98.09.6.37.96,1.02.96,1.73v6.52l12.04-6v-19.86c0-1.12.91-2.03,2.03-2.03h3.69c1.12,0,2.03.91,2.03,2.03v25.79l13.43-6.7.83-36.03c.03-1.1.93-1.99,2.03-1.99h8.86c1.1,0,2.01.88,2.03,1.99l.89,38.52,8.15-4.07c.63-.31,1.38-.28,1.98.09s.96,1.02.96,1.73Zm-68.42,19.11h-5.5v7.73h5.5v-7.73Zm14.89,0h-5.5v7.73h5.5v-7.73Zm14.89,0h-5.5v7.73h5.5v-7.73Zm14.89,0h-5.5v7.73h5.5v-7.73h0Z"/>
  </g>
</svg>