<?xml version="1.0" encoding="iso-8859-1"?>
<!-- Generator: Adobe Illustrator 27.7.0, SVG Export Plug-In . SVG Version: 6.00 Build 0)  -->
<svg version="1.1" id="Layer_1" xmlns="http://www.w3.org/2000/svg" xmlns:xlink="http://www.w3.org/1999/xlink" x="0px" y="0px"
	 viewBox="0 0 128 128" style="enable-background:new 0 0 128 128;" xml:space="preserve">
<g>
	<path id="Shape" style="fill:#76BC21;" d="M106.667,34.06h13.949C110.496,15.107,91.35,1.648,68.923,0v12.086
		C84.513,13.459,97.915,21.974,106.667,34.06z M127.727,57.957H92.171v4.395H74.393V34.06h-5.47v59.88h5.47V65.648h17.778v4.395
		h23.521c-2.735,24.172-22.427,43.674-46.769,45.871V128C102.017,125.528,128,97.785,128,64
		C128,62.077,127.727,60.155,127.727,57.957z"/>
	<path id="Path" style="fill:#53575A;" d="M0,64c0,33.785,25.983,61.528,59.077,64v-12.086
		c-25.983-2.472-46.222-23.897-47.043-50.266h36.103v11.811h10.94V50.815h-10.94v11.811H12.034
		c0.821-26.369,21.06-48.069,47.043-50.266V0C25.983,2.472,0,30.215,0,64z"/>
</g>
</svg>
