<?xml version="1.0" encoding="UTF-8"?>
<svg id="Layer_1" data-name="Layer 1" xmlns="http://www.w3.org/2000/svg" xmlns:xlink="http://www.w3.org/1999/xlink" viewBox="0 0 85.11 128">
  <defs>
    <style>
      .cls-1 {
        fill: url(#linear-gradient);
      }
    </style>
    <linearGradient id="linear-gradient" x1="70.02" y1="2.22" x2="7.22" y2="132.51" gradientUnits="userSpaceOnUse">
      <stop offset="0" stop-color="#dadd13"/>
      <stop offset="1" stop-color="#077730"/>
    </linearGradient>
  </defs>
  <path class="cls-1" d="m61.53,34.2l-2.57,2.82-4.07-2.06,2.55-2.83-9.36-4.74-28.32,32.53,12.55,6.35s-14.33,15.74-14.92,16.38C12.66,79.42.32,68.75.32,58.63c0-12.16,9.93-20.27,25.31-26.13C38.91,27.44,62.34,14.06,62.31,0c5.98,6.38,24.18,36.77,22.71,57.13-1.77,24.57-17.04,26.46-40.15,32.77-20.06,5.48-36.54,15.61-42.98,38.09-.55-.13-1.51-.39-1.89-.49,4.48-44.09,49.3-50.6,66.92-61.72l-14.3-7.24,20.56-18.46-11.65-5.89h0Zm-14.3,9.26l4.01,2.03,5.14-5.65-4.06-2.05-5.1,5.67Zm-15.32,16.99l3.91,1.98,10.28-11.29-3.98-2.01-10.21,11.33Z"/>
</svg>