<?xml version="1.0" encoding="iso-8859-1"?>
<!-- Generator: Adobe Illustrator 27.8.1, SVG Export Plug-In . SVG Version: 6.00 Build 0)  -->
<svg version="1.1" id="Layer_1" xmlns="http://www.w3.org/2000/svg" xmlns:xlink="http://www.w3.org/1999/xlink" x="0px" y="0px"
	 viewBox="0 0 128 128" style="enable-background:new 0 0 128 128;" xml:space="preserve">
<g>
	<g>
		<path style="fill:#004E7C;" d="M28.063,56.666l-8.688,7.293v8.925c0,1.411,0.84,2.235,2.283,2.235h14.157
			c1.427,0,2.267-0.824,2.267-2.235v-8.91l-8.704-7.308C28.95,56.301,28.491,56.317,28.063,56.666z M31.471,66.447v6.865h-5.485
			v-6.865c0-0.476,0.317-0.777,0.777-0.777h3.932C31.17,65.671,31.471,65.972,31.471,66.447z"/>
		<path style="fill:#004E7C;" d="M41.015,62.516l-2.933-2.463v-4.196c0-0.412-0.269-0.698-0.682-0.698h-1.062
			c-0.412,0-0.698,0.285-0.698,0.698v2.146l-5.406-4.54c-0.904-0.777-2.077-0.777-2.996,0l-10.812,9.052
			c-0.222,0.19-0.333,0.444-0.333,0.698c0,0.428,0.349,0.84,0.904,0.84c0.27,0,0.491-0.159,0.682-0.333l10.463-8.767
			c0.412-0.349,0.777-0.317,1.173,0l10.432,8.767c0.238,0.174,0.444,0.333,0.713,0.333c0.476,0,0.872-0.333,0.872-0.809
			C41.332,62.928,41.237,62.706,41.015,62.516z"/>
	</g>
	<g>
		<path style="fill:#004E7C;" d="M51.588,56.666L42.9,63.958v8.925c0,1.411,0.84,2.235,2.283,2.235H59.34
			c1.427,0,2.267-0.824,2.267-2.235v-8.91l-8.704-7.308C52.475,56.301,52.016,56.317,51.588,56.666z M54.996,66.447v6.865h-5.485
			v-6.865c0-0.476,0.317-0.777,0.777-0.777h3.932C54.695,65.671,54.996,65.972,54.996,66.447z"/>
		<path style="fill:#004E7C;" d="M64.54,62.516l-2.933-2.463v-4.196c0-0.412-0.269-0.698-0.682-0.698h-1.062
			c-0.412,0-0.698,0.285-0.698,0.698v2.146l-5.406-4.54c-0.904-0.777-2.077-0.777-2.996,0l-10.812,9.052
			c-0.222,0.19-0.333,0.444-0.333,0.698c0,0.428,0.349,0.84,0.904,0.84c0.27,0,0.491-0.159,0.682-0.333l10.463-8.767
			c0.412-0.349,0.777-0.317,1.173,0l10.432,8.767c0.238,0.174,0.444,0.333,0.713,0.333c0.476,0,0.872-0.333,0.872-0.809
			C64.857,62.928,64.762,62.706,64.54,62.516z"/>
	</g>
	<g>
		<path style="fill:#004E7C;" d="M75.112,56.666l-8.688,7.293v8.925c0,1.411,0.84,2.235,2.283,2.235h14.157
			c1.427,0,2.267-0.824,2.267-2.235v-8.91l-8.704-7.308C76,56.301,75.541,56.317,75.112,56.666z M78.521,66.447v6.865h-5.485v-6.865
			c0-0.476,0.317-0.777,0.777-0.777h3.932C78.22,65.671,78.521,65.972,78.521,66.447z"/>
		<path style="fill:#004E7C;" d="M88.065,62.516l-2.933-2.463v-4.196c0-0.412-0.269-0.698-0.682-0.698h-1.062
			c-0.412,0-0.698,0.285-0.698,0.698v2.146l-5.406-4.54c-0.904-0.777-2.077-0.777-2.996,0l-10.812,9.052
			c-0.222,0.19-0.333,0.444-0.333,0.698c0,0.428,0.349,0.84,0.904,0.84c0.27,0,0.491-0.159,0.682-0.333l10.463-8.767
			c0.412-0.349,0.777-0.317,1.173,0l10.432,8.767c0.238,0.174,0.444,0.333,0.713,0.333c0.476,0,0.872-0.333,0.872-0.809
			C88.382,62.928,88.287,62.706,88.065,62.516z"/>
	</g>
	<g>
		<path style="fill:#004E7C;" d="M98.637,56.666l-8.688,7.293v8.925c0,1.411,0.84,2.235,2.283,2.235h14.157
			c1.427,0,2.267-0.824,2.267-2.235v-8.91l-8.704-7.308C99.525,56.301,99.065,56.317,98.637,56.666z M102.046,66.447v6.865h-5.485
			v-6.865c0-0.476,0.317-0.777,0.777-0.777h3.932C101.745,65.671,102.046,65.972,102.046,66.447z"/>
		<path style="fill:#004E7C;" d="M111.59,62.516l-2.933-2.463v-4.196c0-0.412-0.269-0.698-0.682-0.698h-1.062
			c-0.412,0-0.698,0.285-0.698,0.698v2.146l-5.406-4.54c-0.904-0.777-2.077-0.777-2.996,0l-10.812,9.052
			c-0.222,0.19-0.333,0.444-0.333,0.698c0,0.428,0.349,0.84,0.904,0.84c0.27,0,0.491-0.159,0.682-0.333l10.463-8.767
			c0.412-0.349,0.777-0.317,1.173,0l10.432,8.767c0.238,0.174,0.444,0.333,0.713,0.333c0.476,0,0.872-0.333,0.872-0.809
			C111.907,62.928,111.812,62.706,111.59,62.516z"/>
	</g>
</g>
<g>
	<g>
		<path style="fill:#004E7C;" d="M39.825,26.867l-8.688,7.293v8.925c0,1.411,0.84,2.235,2.283,2.235h14.157
			c1.427,0,2.267-0.824,2.267-2.235v-8.91l-8.704-7.308C40.713,26.502,40.253,26.518,39.825,26.867z M43.234,36.648v6.865h-5.485
			v-6.865c0-0.476,0.317-0.777,0.777-0.777h3.932C42.932,35.871,43.234,36.173,43.234,36.648z"/>
		<path style="fill:#004E7C;" d="M52.777,32.717l-2.933-2.463v-4.196c0-0.412-0.269-0.698-0.682-0.698h-1.062
			c-0.412,0-0.698,0.285-0.698,0.698v2.146l-5.406-4.54c-0.904-0.777-2.077-0.777-2.996,0l-10.812,9.052
			c-0.222,0.19-0.333,0.444-0.333,0.698c0,0.428,0.349,0.84,0.904,0.84c0.27,0,0.491-0.159,0.682-0.333l10.463-8.767
			c0.412-0.349,0.777-0.317,1.173,0l10.432,8.767c0.238,0.174,0.444,0.333,0.713,0.333c0.476,0,0.872-0.333,0.872-0.809
			C53.094,33.129,52.999,32.907,52.777,32.717z"/>
	</g>
	<g>
		<path style="fill:#004E7C;" d="M63.35,26.867l-8.688,7.293v8.925c0,1.411,0.84,2.235,2.283,2.235h14.157
			c1.427,0,2.267-0.824,2.267-2.235v-8.91l-8.704-7.308C64.238,26.502,63.778,26.518,63.35,26.867z M66.759,36.648v6.865h-5.485
			v-6.865c0-0.476,0.317-0.777,0.777-0.777h3.932C66.457,35.871,66.759,36.173,66.759,36.648z"/>
		<path style="fill:#004E7C;" d="M76.302,32.717l-2.933-2.463v-4.196c0-0.412-0.269-0.698-0.682-0.698h-1.062
			c-0.412,0-0.698,0.285-0.698,0.698v2.146l-5.406-4.54c-0.904-0.777-2.077-0.777-2.996,0l-10.812,9.052
			c-0.222,0.19-0.333,0.444-0.333,0.698c0,0.428,0.349,0.84,0.904,0.84c0.27,0,0.491-0.159,0.682-0.333l10.463-8.767
			c0.412-0.349,0.777-0.317,1.173,0l10.432,8.767c0.238,0.174,0.444,0.333,0.713,0.333c0.476,0,0.872-0.333,0.872-0.809
			C76.619,33.129,76.524,32.907,76.302,32.717z"/>
	</g>
	<g>
		<path style="fill:#004E7C;" d="M86.875,26.867l-8.688,7.293v8.925c0,1.411,0.84,2.235,2.283,2.235h14.157
			c1.427,0,2.267-0.824,2.267-2.235v-8.91l-8.704-7.308C87.763,26.502,87.303,26.518,86.875,26.867z M90.283,36.648v6.865h-5.485
			v-6.865c0-0.476,0.317-0.777,0.777-0.777h3.932C89.982,35.871,90.283,36.173,90.283,36.648z"/>
		<path style="fill:#004E7C;" d="M99.827,32.717l-2.933-2.463v-4.196c0-0.412-0.269-0.698-0.682-0.698H95.15
			c-0.412,0-0.698,0.285-0.698,0.698v2.146l-5.406-4.54c-0.904-0.777-2.077-0.777-2.996,0l-10.812,9.052
			c-0.222,0.19-0.333,0.444-0.333,0.698c0,0.428,0.349,0.84,0.904,0.84c0.27,0,0.491-0.159,0.682-0.333l10.463-8.767
			c0.412-0.349,0.777-0.317,1.173,0l10.432,8.767c0.238,0.174,0.444,0.333,0.713,0.333c0.476,0,0.872-0.333,0.872-0.809
			C100.144,33.129,100.049,32.907,99.827,32.717z"/>
	</g>
</g>
<g>
	<g>
		<path style="fill:#004E7C;" d="M39.825,86.465l-8.688,7.293v8.925c0,1.411,0.84,2.235,2.283,2.235h14.157
			c1.427,0,2.267-0.824,2.267-2.235v-8.91l-8.704-7.308C40.713,86.1,40.253,86.116,39.825,86.465z M43.234,96.247v6.865h-5.485
			v-6.865c0-0.476,0.317-0.777,0.777-0.777h3.932C42.932,95.47,43.234,95.771,43.234,96.247z"/>
		<path style="fill:#004E7C;" d="M52.777,92.315l-2.933-2.463v-4.196c0-0.412-0.269-0.698-0.682-0.698h-1.062
			c-0.412,0-0.698,0.285-0.698,0.698v2.146l-5.406-4.539c-0.904-0.777-2.077-0.777-2.996,0l-10.812,9.052
			c-0.222,0.19-0.333,0.444-0.333,0.698c0,0.428,0.349,0.84,0.904,0.84c0.27,0,0.491-0.159,0.682-0.333l10.463-8.767
			c0.412-0.349,0.777-0.317,1.173,0l10.432,8.767c0.238,0.174,0.444,0.333,0.713,0.333c0.476,0,0.872-0.333,0.872-0.809
			C53.094,92.727,52.999,92.505,52.777,92.315z"/>
	</g>
	<g>
		<path style="fill:#004E7C;" d="M63.35,86.465l-8.688,7.293v8.925c0,1.411,0.84,2.235,2.283,2.235h14.157
			c1.427,0,2.267-0.824,2.267-2.235v-8.91l-8.704-7.308C64.238,86.1,63.778,86.116,63.35,86.465z M66.759,96.247v6.865h-5.485
			v-6.865c0-0.476,0.317-0.777,0.777-0.777h3.932C66.457,95.47,66.759,95.771,66.759,96.247z"/>
		<path style="fill:#004E7C;" d="M76.302,92.315l-2.933-2.463v-4.196c0-0.412-0.269-0.698-0.682-0.698h-1.062
			c-0.412,0-0.698,0.285-0.698,0.698v2.146l-5.406-4.539c-0.904-0.777-2.077-0.777-2.996,0l-10.812,9.052
			c-0.222,0.19-0.333,0.444-0.333,0.698c0,0.428,0.349,0.84,0.904,0.84c0.27,0,0.491-0.159,0.682-0.333l10.463-8.767
			c0.412-0.349,0.777-0.317,1.173,0l10.432,8.767c0.238,0.174,0.444,0.333,0.713,0.333c0.476,0,0.872-0.333,0.872-0.809
			C76.619,92.727,76.524,92.505,76.302,92.315z"/>
	</g>
	<g>
		<path style="fill:#004E7C;" d="M86.875,86.465l-8.688,7.293v8.925c0,1.411,0.84,2.235,2.283,2.235h14.157
			c1.427,0,2.267-0.824,2.267-2.235v-8.91l-8.704-7.308C87.763,86.1,87.303,86.116,86.875,86.465z M90.283,96.247v6.865h-5.485
			v-6.865c0-0.476,0.317-0.777,0.777-0.777h3.932C89.982,95.47,90.283,95.771,90.283,96.247z"/>
		<path style="fill:#004E7C;" d="M99.827,92.315l-2.933-2.463v-4.196c0-0.412-0.269-0.698-0.682-0.698H95.15
			c-0.412,0-0.698,0.285-0.698,0.698v2.146l-5.406-4.539c-0.904-0.777-2.077-0.777-2.996,0l-10.812,9.052
			c-0.222,0.19-0.333,0.444-0.333,0.698c0,0.428,0.349,0.84,0.904,0.84c0.27,0,0.491-0.159,0.682-0.333l10.463-8.767
			c0.412-0.349,0.777-0.317,1.173,0l10.432,8.767c0.238,0.174,0.444,0.333,0.713,0.333c0.476,0,0.872-0.333,0.872-0.809
			C100.144,92.727,100.049,92.505,99.827,92.315z"/>
	</g>
</g>
<path style="fill:#004E7C;" d="M63.975,128C99.01,128,128,99.01,128,64.025C128,28.99,98.961,0,63.926,0C28.941,0,0,28.99,0,64.025
	C0,99.01,28.99,128,63.975,128z M63.976,120c-14.784,0-28.794-5.869-39.451-16.525C13.869,92.818,8,78.808,8,64.024
	c0-14.81,5.862-28.837,16.505-39.498C35.146,13.869,49.146,8,63.926,8c14.812,0,28.847,5.872,39.521,16.534
	C114.121,35.197,120,49.222,120,64.024c0,14.785-5.87,28.795-16.529,39.449C92.808,114.131,78.781,120,63.976,120z"/>
</svg>
