<?xml version="1.0" encoding="iso-8859-1"?>
<!-- Generator: Adobe Illustrator 27.7.0, SVG Export Plug-In . SVG Version: 6.00 Build 0)  -->
<svg version="1.1" id="Layer_1" xmlns="http://www.w3.org/2000/svg" xmlns:xlink="http://www.w3.org/1999/xlink" x="0px" y="0px"
	 viewBox="0 0 128 128" style="enable-background:new 0 0 128 128;" xml:space="preserve">
<g>
	<path style="fill:#07818C;" d="M94.454,85.538c4.066-1.037,8.083-2.268,12.024-3.73c7.736-2.868,15.412-6.876,21.522-12.521v16.251
		H94.454z M78.951,85.538H0V42.462h127.987l0.006,11.34c-6.726,18.369-27.673,27.377-46.663,31.269
		C80.539,85.233,79.745,85.389,78.951,85.538"/>
	<g transform="matrix(1.74642288967 0 0 1.74642288967 58.93349013166 47.38207458834)">
		<path style="fill:#FFFFFE;" d="M-25.221,2.414c-0.04-0.04-0.114-0.095-0.22-0.164c-0.106-0.069-0.236-0.136-0.388-0.202
			c-0.152-0.066-0.317-0.122-0.496-0.168c-0.178-0.046-0.359-0.069-0.543-0.069c-0.327,0-0.572,0.06-0.733,0.181
			c-0.161,0.121-0.241,0.29-0.241,0.509c0,0.126,0.03,0.232,0.09,0.315c0.06,0.083,0.148,0.156,0.263,0.219
			c0.115,0.063,0.26,0.121,0.435,0.173c0.175,0.052,0.378,0.106,0.608,0.164c0.299,0.081,0.57,0.167,0.815,0.259
			s0.451,0.207,0.621,0.345c0.169,0.138,0.3,0.303,0.392,0.496c0.092,0.192,0.138,0.429,0.138,0.711c0,0.328-0.062,0.608-0.185,0.84
			c-0.123,0.233-0.29,0.421-0.5,0.564c-0.21,0.144-0.451,0.249-0.724,0.315C-26.162,6.967-26.448,7-26.747,7
			c-0.46,0-0.913-0.069-1.362-0.207c-0.448-0.138-0.851-0.333-1.207-0.586l0.526-1.026c0.052,0.052,0.145,0.119,0.28,0.202
			c0.135,0.084,0.295,0.167,0.478,0.25c0.184,0.084,0.388,0.154,0.612,0.211c0.224,0.057,0.454,0.086,0.69,0.086
			c0.655,0,0.983-0.21,0.983-0.629c0-0.132-0.037-0.244-0.112-0.336c-0.074-0.092-0.181-0.172-0.319-0.241
			c-0.138-0.069-0.305-0.132-0.5-0.19c-0.195-0.057-0.414-0.121-0.655-0.189c-0.293-0.081-0.547-0.168-0.763-0.263
			c-0.216-0.095-0.395-0.207-0.539-0.336c-0.144-0.129-0.251-0.279-0.323-0.448c-0.072-0.169-0.108-0.372-0.108-0.608
			c0-0.31,0.057-0.586,0.172-0.827c0.115-0.241,0.274-0.442,0.479-0.603c0.204-0.161,0.441-0.283,0.711-0.366
			c0.27-0.083,0.561-0.125,0.871-0.125c0.431,0,0.827,0.068,1.189,0.203c0.362,0.135,0.678,0.294,0.948,0.478L-25.221,2.414z"/>
		<path style="fill:#FFFFFE;" d="M-21.61,7.017c-0.368,0-0.698-0.063-0.991-0.19c-0.293-0.126-0.542-0.297-0.745-0.513
			c-0.204-0.216-0.361-0.464-0.47-0.746c-0.109-0.281-0.164-0.577-0.164-0.888c0-0.316,0.055-0.615,0.164-0.896
			c0.109-0.282,0.266-0.53,0.47-0.746c0.204-0.216,0.453-0.387,0.745-0.513c0.293-0.126,0.623-0.19,0.991-0.19
			c0.368,0,0.697,0.063,0.987,0.19c0.29,0.126,0.537,0.297,0.741,0.513c0.204,0.215,0.36,0.464,0.47,0.746
			c0.109,0.281,0.164,0.58,0.164,0.896c0,0.31-0.055,0.606-0.164,0.888c-0.11,0.282-0.265,0.53-0.465,0.746
			c-0.201,0.215-0.448,0.387-0.742,0.513C-20.912,6.954-21.242,7.017-21.61,7.017 M-22.791,4.681c0,0.201,0.03,0.384,0.09,0.547
			c0.06,0.164,0.144,0.306,0.25,0.427c0.106,0.121,0.231,0.214,0.375,0.28c0.143,0.066,0.299,0.099,0.465,0.099
			s0.322-0.033,0.465-0.099c0.144-0.066,0.269-0.159,0.375-0.28c0.106-0.121,0.189-0.264,0.25-0.431
			c0.06-0.167,0.09-0.35,0.09-0.551c0-0.195-0.03-0.376-0.09-0.543c-0.061-0.167-0.144-0.31-0.25-0.431
			c-0.106-0.121-0.232-0.214-0.375-0.28c-0.143-0.066-0.299-0.099-0.465-0.099s-0.322,0.034-0.465,0.104
			c-0.144,0.069-0.269,0.163-0.375,0.284c-0.106,0.121-0.19,0.265-0.25,0.431C-22.761,4.305-22.791,4.486-22.791,4.681"/>
		<path style="fill:#FFFFFE;" d="M-11.456,6.931h-1.155V4.397c0-0.362-0.062-0.626-0.185-0.793c-0.124-0.167-0.295-0.25-0.513-0.25
			c-0.23,0-0.446,0.088-0.647,0.263c-0.201,0.175-0.345,0.403-0.431,0.685v2.629h-1.155V4.397c0-0.362-0.062-0.626-0.185-0.793
			c-0.124-0.167-0.295-0.25-0.513-0.25c-0.224,0-0.438,0.086-0.642,0.259c-0.204,0.172-0.349,0.399-0.435,0.681v2.638h-1.155V2.414
			h1.043v0.836c0.167-0.293,0.395-0.519,0.685-0.677c0.29-0.158,0.622-0.237,0.996-0.237c0.379,0,0.672,0.092,0.879,0.276
			c0.207,0.184,0.339,0.411,0.397,0.681c0.184-0.31,0.417-0.547,0.698-0.711c0.281-0.164,0.603-0.246,0.965-0.246
			c0.276,0,0.503,0.052,0.681,0.155c0.178,0.104,0.316,0.239,0.414,0.405c0.098,0.167,0.165,0.357,0.202,0.569
			c0.037,0.213,0.056,0.428,0.056,0.646V6.931z"/>
		<path style="fill:#FFFFFE;" d="M-8.353,7.017c-0.362,0-0.69-0.062-0.983-0.185c-0.293-0.123-0.543-0.292-0.75-0.504
			c-0.207-0.212-0.366-0.46-0.478-0.741c-0.112-0.281-0.168-0.578-0.168-0.888c0-0.322,0.055-0.625,0.164-0.91
			c0.109-0.284,0.267-0.534,0.474-0.75c0.207-0.216,0.458-0.387,0.754-0.513c0.296-0.126,0.628-0.19,0.995-0.19
			c0.368,0,0.697,0.063,0.987,0.19c0.29,0.126,0.537,0.296,0.741,0.508c0.204,0.213,0.359,0.46,0.465,0.742
			c0.107,0.281,0.16,0.575,0.16,0.879c0,0.075-0.002,0.147-0.005,0.216c-0.003,0.069-0.01,0.126-0.021,0.173h-3.491
			c0.017,0.178,0.06,0.336,0.129,0.474c0.069,0.138,0.158,0.256,0.267,0.354c0.109,0.098,0.233,0.172,0.371,0.224
			C-8.603,6.147-8.46,6.173-8.31,6.173c0.23,0,0.447-0.056,0.651-0.168c0.204-0.112,0.343-0.26,0.418-0.444l0.991,0.276
			c-0.167,0.345-0.432,0.628-0.797,0.849C-7.413,6.907-7.848,7.017-8.353,7.017 M-7.181,4.293c-0.029-0.339-0.154-0.61-0.375-0.814
			c-0.221-0.204-0.49-0.306-0.806-0.306c-0.155,0-0.3,0.027-0.435,0.082c-0.135,0.055-0.254,0.131-0.358,0.228
			c-0.104,0.098-0.188,0.216-0.254,0.354c-0.066,0.138-0.105,0.29-0.116,0.457H-7.181z"/>
		<path style="fill:#FFFFFE;" d="M-2.595,3.414c-0.35,0.006-0.664,0.073-0.939,0.202C-3.811,3.746-4.009,3.94-4.13,4.199v2.732
			h-1.155V2.414h1.06V3.38c0.08-0.155,0.175-0.295,0.284-0.418c0.109-0.123,0.227-0.231,0.354-0.323
			c0.126-0.092,0.254-0.162,0.384-0.211c0.129-0.049,0.254-0.073,0.375-0.073h0.142c0.031,0,0.062,0.003,0.09,0.009L-2.595,3.414z"
			/>
		<path style="fill:#FFFFFE;" d="M-0.242,7.017c-0.379,0-0.75-0.06-1.112-0.181c-0.362-0.121-0.672-0.293-0.931-0.517l0.431-0.724
			C-1.578,5.79-1.31,5.938-1.048,6.039C-0.787,6.14-0.527,6.19-0.268,6.19c0.23,0,0.41-0.043,0.543-0.129
			c0.132-0.086,0.198-0.21,0.198-0.371c0-0.16-0.077-0.278-0.233-0.353C0.085,5.262-0.168,5.176-0.518,5.078
			c-0.293-0.081-0.543-0.158-0.75-0.233c-0.207-0.074-0.374-0.159-0.5-0.254c-0.126-0.095-0.218-0.204-0.276-0.328
			C-2.101,4.14-2.13,3.992-2.13,3.819c0-0.23,0.044-0.437,0.134-0.62c0.089-0.184,0.214-0.341,0.375-0.47
			C-1.461,2.6-1.272,2.501-1.057,2.431c0.216-0.069,0.45-0.103,0.703-0.103c0.339,0,0.656,0.049,0.953,0.147
			C0.894,2.572,1.165,2.73,1.412,2.949L0.947,3.647c-0.23-0.173-0.452-0.299-0.668-0.38C0.064,3.187-0.15,3.147-0.363,3.147
			c-0.195,0-0.359,0.04-0.491,0.121c-0.132,0.081-0.198,0.21-0.198,0.388c0,0.081,0.016,0.147,0.047,0.198
			c0.031,0.052,0.082,0.098,0.151,0.138c0.069,0.04,0.159,0.079,0.272,0.116c0.112,0.038,0.251,0.077,0.418,0.117
			c0.31,0.081,0.576,0.161,0.797,0.241c0.221,0.081,0.402,0.172,0.543,0.276C1.316,4.845,1.42,4.964,1.486,5.1
			c0.066,0.135,0.099,0.297,0.099,0.487c0,0.443-0.164,0.791-0.491,1.047C0.766,6.889,0.321,7.017-0.242,7.017"/>
		<path style="fill:#FFFFFE;" d="M4.429,7.017c-0.362,0-0.69-0.062-0.983-0.185C3.154,6.708,2.904,6.54,2.697,6.328
			C2.49,6.115,2.331,5.868,2.218,5.586C2.107,5.305,2.05,5.009,2.05,4.699c0-0.322,0.055-0.625,0.164-0.91
			c0.109-0.284,0.267-0.534,0.474-0.75c0.207-0.216,0.458-0.387,0.754-0.513C3.738,2.4,4.07,2.337,4.438,2.337
			c0.368,0,0.697,0.063,0.987,0.19c0.29,0.126,0.537,0.296,0.741,0.508c0.204,0.213,0.359,0.46,0.465,0.742
			c0.106,0.281,0.16,0.575,0.16,0.879c0,0.075-0.002,0.147-0.005,0.216C6.784,4.94,6.777,4.997,6.765,5.044H3.274
			c0.017,0.178,0.06,0.336,0.129,0.474c0.069,0.138,0.158,0.256,0.267,0.354C3.78,5.969,3.904,6.043,4.041,6.095
			c0.138,0.052,0.281,0.077,0.431,0.077c0.23,0,0.447-0.056,0.651-0.168c0.204-0.112,0.343-0.26,0.418-0.444l0.991,0.276
			C6.366,6.181,6.1,6.464,5.735,6.685C5.37,6.907,4.935,7.017,4.429,7.017 M5.602,4.293c-0.029-0.339-0.154-0.61-0.375-0.814
			c-0.221-0.204-0.49-0.306-0.806-0.306c-0.155,0-0.3,0.027-0.435,0.082C3.85,3.309,3.731,3.386,3.628,3.483
			C3.524,3.581,3.44,3.699,3.373,3.837c-0.066,0.138-0.105,0.29-0.116,0.457H5.602z"/>
		<path style="fill:#FFFFFE;" d="M10.17,6.698c-0.155,0.069-0.345,0.138-0.569,0.207c-0.224,0.069-0.46,0.103-0.707,0.103
			c-0.161,0-0.312-0.02-0.453-0.06c-0.141-0.04-0.264-0.104-0.37-0.194C7.965,6.665,7.88,6.55,7.817,6.409
			C7.754,6.269,7.722,6.098,7.722,5.897V3.302H7.127V2.414h0.595V0.949h1.155v1.465h0.948v0.888H8.877v2.207
			c0,0.161,0.041,0.274,0.125,0.34c0.083,0.066,0.185,0.099,0.306,0.099c0.121,0,0.239-0.02,0.354-0.06
			c0.115-0.04,0.207-0.075,0.276-0.103L10.17,6.698z"/>
		<path style="fill:#FFFFFE;" d="M14.773,0.828h1.095l0.69,2.025l0.69-2.025h1.103l-1.043,2.784l0.776,1.956l1.732-4.758h1.293
			l-2.491,6.12h-1l-1.06-2.568l-1.06,2.568h-1l-2.474-6.12h1.276l1.741,4.758l0.759-1.956L14.773,0.828z"/>
		<path style="fill:#FFFFFE;" d="M23.168,7.017c-0.362,0-0.69-0.062-0.983-0.185c-0.293-0.123-0.543-0.292-0.75-0.504
			c-0.207-0.212-0.366-0.46-0.478-0.741c-0.112-0.281-0.168-0.578-0.168-0.888c0-0.322,0.055-0.625,0.164-0.91
			c0.109-0.284,0.267-0.534,0.474-0.75c0.207-0.216,0.458-0.387,0.754-0.513c0.296-0.126,0.627-0.19,0.995-0.19
			c0.368,0,0.697,0.063,0.987,0.19c0.29,0.126,0.537,0.296,0.741,0.508c0.204,0.213,0.359,0.46,0.466,0.742
			c0.106,0.281,0.159,0.575,0.159,0.879c0,0.075-0.001,0.147-0.004,0.216c-0.003,0.069-0.01,0.126-0.021,0.173h-3.491
			c0.017,0.178,0.06,0.336,0.129,0.474c0.069,0.138,0.158,0.256,0.267,0.354c0.109,0.098,0.233,0.172,0.371,0.224
			c0.138,0.052,0.281,0.077,0.431,0.077c0.23,0,0.447-0.056,0.651-0.168c0.204-0.112,0.343-0.26,0.418-0.444l0.991,0.276
			c-0.167,0.345-0.432,0.628-0.797,0.849C24.109,6.907,23.674,7.017,23.168,7.017 M24.34,4.293c-0.029-0.339-0.154-0.61-0.375-0.814
			c-0.221-0.204-0.49-0.306-0.806-0.306c-0.155,0-0.3,0.027-0.435,0.082c-0.135,0.055-0.254,0.131-0.358,0.228
			c-0.104,0.098-0.188,0.216-0.254,0.354c-0.066,0.138-0.105,0.29-0.116,0.457H24.34z"/>
		<path style="fill:#FFFFFE;" d="M27.943,7.017c-0.379,0-0.75-0.06-1.112-0.181c-0.362-0.121-0.672-0.293-0.931-0.517l0.431-0.724
			c0.276,0.196,0.544,0.343,0.806,0.444c0.262,0.101,0.521,0.151,0.78,0.151c0.23,0,0.41-0.043,0.543-0.129
			c0.132-0.086,0.198-0.21,0.198-0.371c0-0.16-0.077-0.278-0.233-0.353c-0.155-0.075-0.408-0.161-0.758-0.259
			c-0.293-0.081-0.543-0.158-0.75-0.233c-0.207-0.074-0.374-0.159-0.5-0.254c-0.126-0.095-0.218-0.204-0.276-0.328
			c-0.057-0.124-0.086-0.272-0.086-0.444c0-0.23,0.045-0.437,0.134-0.62c0.089-0.184,0.214-0.341,0.375-0.47
			c0.161-0.129,0.349-0.228,0.564-0.298c0.216-0.069,0.45-0.103,0.703-0.103c0.339,0,0.656,0.049,0.953,0.147
			c0.295,0.098,0.567,0.256,0.814,0.474l-0.466,0.698c-0.23-0.173-0.452-0.299-0.668-0.38c-0.216-0.081-0.43-0.121-0.642-0.121
			c-0.195,0-0.359,0.04-0.491,0.121c-0.132,0.081-0.198,0.21-0.198,0.388c0,0.081,0.016,0.147,0.047,0.198
			c0.031,0.052,0.082,0.098,0.151,0.138c0.069,0.04,0.159,0.079,0.272,0.116c0.112,0.038,0.251,0.077,0.418,0.117
			c0.31,0.081,0.576,0.161,0.797,0.241c0.221,0.081,0.402,0.172,0.543,0.276c0.141,0.104,0.244,0.223,0.311,0.358
			c0.066,0.135,0.099,0.297,0.099,0.487c0,0.443-0.164,0.791-0.491,1.047C28.951,6.889,28.506,7.017,27.943,7.017"/>
		<path style="fill:#FFFFFE;" d="M-27.747,16.355c-0.218,0-0.422-0.036-0.612-0.108c-0.19-0.071-0.353-0.172-0.491-0.302
			c-0.138-0.129-0.245-0.28-0.323-0.452c-0.077-0.173-0.116-0.362-0.116-0.569c0-0.213,0.047-0.409,0.142-0.59
			c0.095-0.181,0.227-0.335,0.397-0.461c0.169-0.126,0.372-0.226,0.608-0.298c0.236-0.072,0.494-0.108,0.776-0.108
			c0.201,0,0.398,0.017,0.59,0.052c0.193,0.034,0.363,0.083,0.513,0.147v-0.259c0-0.299-0.085-0.528-0.254-0.69
			c-0.169-0.161-0.421-0.241-0.754-0.241c-0.241,0-0.477,0.043-0.707,0.129c-0.23,0.086-0.465,0.213-0.707,0.38l-0.353-0.733
			c0.58-0.385,1.207-0.577,1.879-0.577c0.649,0,1.154,0.159,1.513,0.479c0.359,0.319,0.539,0.78,0.539,1.383v1.405
			c0,0.121,0.022,0.207,0.064,0.259c0.043,0.052,0.114,0.081,0.211,0.086v0.982c-0.195,0.04-0.365,0.06-0.509,0.06
			c-0.218,0-0.387-0.049-0.504-0.146c-0.118-0.098-0.191-0.227-0.22-0.388l-0.026-0.25c-0.201,0.264-0.445,0.465-0.733,0.603
			C-27.112,16.286-27.419,16.355-27.747,16.355 M-27.419,15.51c0.195,0,0.381-0.035,0.556-0.103
			c0.175-0.069,0.312-0.161,0.409-0.276c0.126-0.097,0.19-0.207,0.19-0.327v-0.517c-0.138-0.052-0.287-0.093-0.448-0.125
			c-0.161-0.031-0.316-0.047-0.466-0.047c-0.299,0-0.543,0.067-0.733,0.203c-0.19,0.135-0.284,0.306-0.284,0.513
			c0,0.195,0.074,0.358,0.224,0.487C-27.822,15.446-27.638,15.51-27.419,15.51"/>
		<path style="fill:#FFFFFE;" d="M-19.834,16.269h-1.155v-2.534c0-0.362-0.063-0.626-0.19-0.793c-0.126-0.167-0.302-0.25-0.526-0.25
			c-0.115,0-0.233,0.023-0.353,0.069c-0.121,0.046-0.234,0.111-0.341,0.194c-0.106,0.083-0.202,0.182-0.289,0.297
			c-0.086,0.115-0.149,0.241-0.189,0.379v2.638h-1.155v-4.516h1.043v0.836c0.167-0.287,0.408-0.512,0.724-0.672
			c0.316-0.161,0.672-0.241,1.069-0.241c0.281,0,0.511,0.052,0.69,0.155c0.178,0.104,0.316,0.239,0.414,0.405
			c0.097,0.167,0.165,0.357,0.202,0.569c0.037,0.213,0.056,0.428,0.056,0.646V16.269z"/>
		<path style="fill:#FFFFFE;" d="M-16.955,16.355c-0.31,0-0.598-0.06-0.862-0.181c-0.264-0.121-0.491-0.287-0.681-0.5
			c-0.19-0.213-0.338-0.461-0.444-0.746c-0.106-0.284-0.159-0.59-0.159-0.918s0.05-0.632,0.151-0.914
			c0.1-0.281,0.24-0.529,0.418-0.742c0.178-0.212,0.391-0.379,0.638-0.5c0.247-0.121,0.517-0.181,0.81-0.181
			c0.333,0,0.634,0.081,0.901,0.241c0.267,0.161,0.475,0.371,0.625,0.629V9.977h1.155v4.965c0,0.121,0.02,0.207,0.06,0.259
			c0.04,0.052,0.109,0.081,0.207,0.086v0.982c-0.201,0.04-0.365,0.06-0.492,0.06c-0.207,0-0.376-0.052-0.509-0.155
			c-0.132-0.104-0.207-0.238-0.224-0.405l-0.026-0.285c-0.167,0.288-0.392,0.504-0.677,0.651
			C-16.348,16.282-16.645,16.355-16.955,16.355 M-16.654,15.372c0.109,0,0.221-0.019,0.336-0.056
			c0.115-0.037,0.221-0.09,0.319-0.159c0.098-0.069,0.185-0.149,0.263-0.241c0.078-0.092,0.136-0.193,0.177-0.302v-1.078
			c-0.046-0.126-0.111-0.243-0.194-0.349c-0.084-0.106-0.178-0.198-0.284-0.276c-0.106-0.077-0.219-0.139-0.336-0.185
			c-0.118-0.046-0.234-0.069-0.349-0.069c-0.172,0-0.332,0.038-0.478,0.112c-0.147,0.075-0.272,0.177-0.375,0.306
			c-0.103,0.129-0.184,0.277-0.242,0.444c-0.057,0.167-0.086,0.339-0.086,0.517c0,0.189,0.031,0.365,0.095,0.525
			c0.063,0.161,0.149,0.302,0.259,0.423c0.109,0.121,0.24,0.215,0.392,0.284C-17.006,15.338-16.838,15.372-16.654,15.372"/>
		<path style="fill:#FFFFFE;" d="M-6.75,11.192h-1.956v5.077h-1.181v-5.077h-1.957v-1.043h5.094V11.192z"/>
		<path style="fill:#FFFFFE;" d="M-5.819,16.355c-0.218,0-0.422-0.036-0.612-0.108c-0.19-0.071-0.353-0.172-0.491-0.302
			c-0.138-0.129-0.245-0.28-0.323-0.452c-0.078-0.173-0.116-0.362-0.116-0.569c0-0.213,0.047-0.409,0.142-0.59
			s0.227-0.335,0.397-0.461c0.169-0.126,0.372-0.226,0.608-0.298c0.236-0.072,0.494-0.108,0.776-0.108
			c0.201,0,0.398,0.017,0.59,0.052c0.193,0.034,0.363,0.083,0.513,0.147v-0.259c0-0.299-0.085-0.528-0.255-0.69
			c-0.169-0.161-0.421-0.241-0.754-0.241c-0.241,0-0.477,0.043-0.707,0.129c-0.23,0.086-0.465,0.213-0.707,0.38l-0.353-0.733
			c0.58-0.385,1.207-0.577,1.879-0.577c0.649,0,1.154,0.159,1.513,0.479c0.359,0.319,0.539,0.78,0.539,1.383v1.405
			c0,0.121,0.022,0.207,0.064,0.259c0.043,0.052,0.114,0.081,0.211,0.086v0.982c-0.195,0.04-0.365,0.06-0.509,0.06
			c-0.218,0-0.387-0.049-0.504-0.146c-0.118-0.098-0.191-0.227-0.22-0.388l-0.026-0.25c-0.201,0.264-0.445,0.465-0.733,0.603
			C-5.184,16.286-5.492,16.355-5.819,16.355 M-5.492,15.51c0.195,0,0.381-0.035,0.556-0.103c0.175-0.069,0.312-0.161,0.409-0.276
			c0.126-0.097,0.19-0.207,0.19-0.327v-0.517c-0.138-0.052-0.287-0.093-0.448-0.125c-0.161-0.031-0.316-0.047-0.465-0.047
			c-0.299,0-0.543,0.067-0.733,0.203c-0.19,0.135-0.284,0.306-0.284,0.513c0,0.195,0.074,0.358,0.224,0.487
			C-5.894,15.446-5.71,15.51-5.492,15.51"/>
		<path style="fill:#FFFFFE;" d="M-0.725,16.355c-0.465,0-0.819-0.149-1.06-0.448c-0.241-0.299-0.362-0.741-0.362-1.327v-2.827
			h1.155v2.577c0,0.695,0.25,1.043,0.75,1.043c0.224,0,0.441-0.068,0.651-0.203c0.21-0.135,0.38-0.34,0.513-0.616v-2.801h1.155
			v3.189c0,0.121,0.022,0.207,0.065,0.259c0.043,0.052,0.113,0.081,0.211,0.086v0.982c-0.115,0.023-0.211,0.038-0.289,0.043
			c-0.078,0.006-0.148,0.009-0.211,0.009c-0.207,0-0.375-0.047-0.504-0.142c-0.129-0.095-0.206-0.226-0.228-0.392l-0.026-0.362
			c-0.202,0.31-0.46,0.543-0.776,0.698C0.002,16.277-0.346,16.355-0.725,16.355"/>
		<path style="fill:#FFFFFE;" d="M7.42,16.269H6.265v-2.534c0-0.362-0.063-0.626-0.19-0.793c-0.126-0.167-0.302-0.25-0.526-0.25
			c-0.115,0-0.233,0.023-0.353,0.069c-0.121,0.046-0.234,0.111-0.341,0.194c-0.106,0.083-0.203,0.182-0.289,0.297
			c-0.086,0.115-0.149,0.241-0.189,0.379v2.638H3.222v-4.516h1.043v0.836c0.167-0.287,0.408-0.512,0.724-0.672
			c0.316-0.161,0.672-0.241,1.069-0.241c0.281,0,0.511,0.052,0.69,0.155c0.178,0.104,0.316,0.239,0.414,0.405
			c0.097,0.167,0.165,0.357,0.202,0.569c0.037,0.213,0.056,0.428,0.056,0.646L7.42,16.269z"/>
		<path style="fill:#FFFFFE;" d="M11.092,16.036c-0.155,0.069-0.345,0.138-0.569,0.207c-0.224,0.069-0.46,0.103-0.707,0.103
			c-0.161,0-0.312-0.02-0.453-0.06c-0.141-0.04-0.264-0.104-0.37-0.194c-0.106-0.089-0.191-0.204-0.254-0.345
			c-0.063-0.141-0.095-0.311-0.095-0.513V12.64H8.049v-0.888h0.595v-1.465h1.155v1.465h0.948v0.888H9.799v2.207
			c0,0.161,0.041,0.274,0.125,0.34c0.083,0.066,0.185,0.099,0.306,0.099c0.121,0,0.238-0.02,0.353-0.06
			c0.115-0.04,0.207-0.075,0.276-0.104L11.092,16.036z"/>
		<path style="fill:#FFFFFE;" d="M21.004,16.269h-1.155v-2.534c0-0.362-0.063-0.626-0.19-0.793c-0.126-0.167-0.302-0.25-0.526-0.25
			c-0.115,0-0.233,0.023-0.353,0.069c-0.121,0.046-0.234,0.111-0.341,0.194c-0.106,0.083-0.202,0.182-0.289,0.297
			c-0.086,0.115-0.149,0.241-0.189,0.379v2.638h-1.155v-4.516h1.043v0.836c0.167-0.287,0.408-0.512,0.724-0.672
			c0.316-0.161,0.672-0.241,1.069-0.241c0.281,0,0.511,0.052,0.69,0.155c0.178,0.104,0.316,0.239,0.414,0.405
			c0.098,0.167,0.165,0.357,0.202,0.569c0.037,0.213,0.056,0.428,0.056,0.646L21.004,16.269z"/>
		<path style="fill:#FFFFFE;" d="M33.227,6.698c-0.155,0.069-0.345,0.138-0.569,0.207c-0.224,0.069-0.46,0.103-0.707,0.103
			c-0.161,0-0.312-0.02-0.453-0.06c-0.141-0.04-0.264-0.104-0.371-0.194c-0.106-0.089-0.191-0.204-0.254-0.345
			c-0.063-0.141-0.095-0.312-0.095-0.513V3.302h-0.595V2.414h0.595V0.949h1.155v1.465h0.948v0.888h-0.948v2.207
			c0,0.161,0.041,0.274,0.125,0.34c0.083,0.066,0.185,0.099,0.306,0.099c0.121,0,0.239-0.02,0.354-0.06
			c0.115-0.04,0.207-0.075,0.276-0.103L33.227,6.698z"/>
		<path style="fill:#FFFFFE;" d="M13.669,16.355c-0.368,0-0.698-0.063-0.991-0.19c-0.293-0.126-0.542-0.297-0.745-0.513
			c-0.204-0.215-0.361-0.464-0.47-0.746c-0.109-0.281-0.164-0.577-0.164-0.888c0-0.316,0.055-0.615,0.164-0.896
			c0.109-0.282,0.266-0.53,0.47-0.745c0.204-0.216,0.453-0.387,0.745-0.513c0.293-0.126,0.623-0.19,0.991-0.19
			c0.368,0,0.697,0.063,0.987,0.19c0.29,0.126,0.537,0.297,0.741,0.513c0.204,0.215,0.36,0.464,0.47,0.745
			c0.109,0.281,0.163,0.58,0.163,0.896c0,0.31-0.055,0.606-0.163,0.888c-0.11,0.282-0.265,0.531-0.465,0.746
			c-0.201,0.215-0.448,0.387-0.742,0.513C14.368,16.292,14.037,16.355,13.669,16.355 M12.488,14.019c0,0.201,0.03,0.383,0.091,0.547
			c0.06,0.164,0.144,0.306,0.25,0.427c0.106,0.121,0.231,0.214,0.375,0.28c0.144,0.066,0.298,0.099,0.465,0.099
			c0.167,0,0.322-0.033,0.465-0.099c0.144-0.066,0.269-0.159,0.375-0.28c0.106-0.121,0.189-0.264,0.25-0.431
			c0.06-0.166,0.091-0.35,0.091-0.551c0-0.196-0.03-0.376-0.091-0.543c-0.06-0.167-0.144-0.31-0.25-0.431
			c-0.106-0.121-0.232-0.214-0.375-0.28c-0.144-0.066-0.299-0.099-0.465-0.099c-0.167,0-0.322,0.034-0.465,0.104
			c-0.144,0.069-0.269,0.163-0.375,0.284c-0.106,0.121-0.19,0.265-0.25,0.431C12.519,13.643,12.488,13.824,12.488,14.019"/>
	</g>
</g>
<g style="opacity:0.6;">
	<path style="fill:#FFFFFF;" d="M94.454,85.538c4.066-1.037,8.083-2.268,12.024-3.73c7.736-2.868,15.412-6.876,21.522-12.521v16.251
		H94.454z M78.951,85.538H0V42.462h127.987l0.006,11.34c-6.726,18.369-27.673,27.377-46.663,31.269
		C80.539,85.233,79.745,85.389,78.951,85.538"/>
	<g transform="matrix(1.74642288967 0 0 1.74642288967 58.93349013166 47.38207458834)">
		<path style="fill:#FFFFFF;" d="M-25.221,2.414c-0.04-0.04-0.114-0.095-0.22-0.164c-0.106-0.069-0.236-0.136-0.388-0.202
			c-0.152-0.066-0.317-0.122-0.496-0.168c-0.178-0.046-0.359-0.069-0.543-0.069c-0.327,0-0.572,0.06-0.733,0.181
			c-0.161,0.121-0.241,0.29-0.241,0.509c0,0.126,0.03,0.232,0.09,0.315c0.06,0.083,0.148,0.156,0.263,0.219
			c0.115,0.063,0.26,0.121,0.435,0.173c0.175,0.052,0.378,0.106,0.608,0.164c0.299,0.081,0.57,0.167,0.815,0.259
			s0.451,0.207,0.621,0.345c0.169,0.138,0.3,0.303,0.392,0.496c0.092,0.192,0.138,0.429,0.138,0.711c0,0.328-0.062,0.608-0.185,0.84
			c-0.123,0.233-0.29,0.421-0.5,0.564c-0.21,0.144-0.451,0.249-0.724,0.315C-26.162,6.967-26.448,7-26.747,7
			c-0.46,0-0.913-0.069-1.362-0.207c-0.448-0.138-0.851-0.333-1.207-0.586l0.526-1.026c0.052,0.052,0.145,0.119,0.28,0.202
			c0.135,0.084,0.295,0.167,0.478,0.25c0.184,0.084,0.388,0.154,0.612,0.211c0.224,0.057,0.454,0.086,0.69,0.086
			c0.655,0,0.983-0.21,0.983-0.629c0-0.132-0.037-0.244-0.112-0.336c-0.074-0.092-0.181-0.172-0.319-0.241
			c-0.138-0.069-0.305-0.132-0.5-0.19c-0.195-0.057-0.414-0.121-0.655-0.189c-0.293-0.081-0.547-0.168-0.763-0.263
			c-0.216-0.095-0.395-0.207-0.539-0.336c-0.144-0.129-0.251-0.279-0.323-0.448c-0.072-0.169-0.108-0.372-0.108-0.608
			c0-0.31,0.057-0.586,0.172-0.827c0.115-0.241,0.274-0.442,0.479-0.603c0.204-0.161,0.441-0.283,0.711-0.366
			c0.27-0.083,0.561-0.125,0.871-0.125c0.431,0,0.827,0.068,1.189,0.203c0.362,0.135,0.678,0.294,0.948,0.478L-25.221,2.414z"/>
		<path style="fill:#FFFFFF;" d="M-21.61,7.017c-0.368,0-0.698-0.063-0.991-0.19c-0.293-0.126-0.542-0.297-0.745-0.513
			c-0.204-0.216-0.361-0.464-0.47-0.746c-0.109-0.281-0.164-0.577-0.164-0.888c0-0.316,0.055-0.615,0.164-0.896
			c0.109-0.282,0.266-0.53,0.47-0.746c0.204-0.216,0.453-0.387,0.745-0.513c0.293-0.126,0.623-0.19,0.991-0.19
			c0.368,0,0.697,0.063,0.987,0.19c0.29,0.126,0.537,0.297,0.741,0.513c0.204,0.215,0.36,0.464,0.47,0.746
			c0.109,0.281,0.164,0.58,0.164,0.896c0,0.31-0.055,0.606-0.164,0.888c-0.11,0.282-0.265,0.53-0.465,0.746
			c-0.201,0.215-0.448,0.387-0.742,0.513C-20.912,6.954-21.242,7.017-21.61,7.017 M-22.791,4.681c0,0.201,0.03,0.384,0.09,0.547
			c0.06,0.164,0.144,0.306,0.25,0.427c0.106,0.121,0.231,0.214,0.375,0.28c0.143,0.066,0.299,0.099,0.465,0.099
			s0.322-0.033,0.465-0.099c0.144-0.066,0.269-0.159,0.375-0.28c0.106-0.121,0.189-0.264,0.25-0.431
			c0.06-0.167,0.09-0.35,0.09-0.551c0-0.195-0.03-0.376-0.09-0.543c-0.061-0.167-0.144-0.31-0.25-0.431
			c-0.106-0.121-0.232-0.214-0.375-0.28c-0.143-0.066-0.299-0.099-0.465-0.099s-0.322,0.034-0.465,0.104
			c-0.144,0.069-0.269,0.163-0.375,0.284c-0.106,0.121-0.19,0.265-0.25,0.431C-22.761,4.305-22.791,4.486-22.791,4.681"/>
		<path style="fill:#FFFFFF;" d="M-11.456,6.931h-1.155V4.397c0-0.362-0.062-0.626-0.185-0.793c-0.124-0.167-0.295-0.25-0.513-0.25
			c-0.23,0-0.446,0.088-0.647,0.263c-0.201,0.175-0.345,0.403-0.431,0.685v2.629h-1.155V4.397c0-0.362-0.062-0.626-0.185-0.793
			c-0.124-0.167-0.295-0.25-0.513-0.25c-0.224,0-0.438,0.086-0.642,0.259c-0.204,0.172-0.349,0.399-0.435,0.681v2.638h-1.155V2.414
			h1.043v0.836c0.167-0.293,0.395-0.519,0.685-0.677c0.29-0.158,0.622-0.237,0.996-0.237c0.379,0,0.672,0.092,0.879,0.276
			c0.207,0.184,0.339,0.411,0.397,0.681c0.184-0.31,0.417-0.547,0.698-0.711c0.281-0.164,0.603-0.246,0.965-0.246
			c0.276,0,0.503,0.052,0.681,0.155c0.178,0.104,0.316,0.239,0.414,0.405c0.098,0.167,0.165,0.357,0.202,0.569
			c0.037,0.213,0.056,0.428,0.056,0.646V6.931z"/>
		<path style="fill:#FFFFFF;" d="M-8.353,7.017c-0.362,0-0.69-0.062-0.983-0.185c-0.293-0.123-0.543-0.292-0.75-0.504
			c-0.207-0.212-0.366-0.46-0.478-0.741c-0.112-0.281-0.168-0.578-0.168-0.888c0-0.322,0.055-0.625,0.164-0.91
			c0.109-0.284,0.267-0.534,0.474-0.75c0.207-0.216,0.458-0.387,0.754-0.513c0.296-0.126,0.628-0.19,0.995-0.19
			c0.368,0,0.697,0.063,0.987,0.19c0.29,0.126,0.537,0.296,0.741,0.508c0.204,0.213,0.359,0.46,0.465,0.742
			c0.107,0.281,0.16,0.575,0.16,0.879c0,0.075-0.002,0.147-0.005,0.216c-0.003,0.069-0.01,0.126-0.021,0.173h-3.491
			c0.017,0.178,0.06,0.336,0.129,0.474c0.069,0.138,0.158,0.256,0.267,0.354c0.109,0.098,0.233,0.172,0.371,0.224
			C-8.603,6.147-8.46,6.173-8.31,6.173c0.23,0,0.447-0.056,0.651-0.168c0.204-0.112,0.343-0.26,0.418-0.444l0.991,0.276
			c-0.167,0.345-0.432,0.628-0.797,0.849C-7.413,6.907-7.848,7.017-8.353,7.017 M-7.181,4.293c-0.029-0.339-0.154-0.61-0.375-0.814
			c-0.221-0.204-0.49-0.306-0.806-0.306c-0.155,0-0.3,0.027-0.435,0.082c-0.135,0.055-0.254,0.131-0.358,0.228
			c-0.104,0.098-0.188,0.216-0.254,0.354c-0.066,0.138-0.105,0.29-0.116,0.457H-7.181z"/>
		<path style="fill:#FFFFFF;" d="M-2.595,3.414c-0.35,0.006-0.664,0.073-0.939,0.202C-3.811,3.746-4.009,3.94-4.13,4.199v2.732
			h-1.155V2.414h1.06V3.38c0.08-0.155,0.175-0.295,0.284-0.418c0.109-0.123,0.227-0.231,0.354-0.323
			c0.126-0.092,0.254-0.162,0.384-0.211c0.129-0.049,0.254-0.073,0.375-0.073h0.142c0.031,0,0.062,0.003,0.09,0.009L-2.595,3.414z"
			/>
		<path style="fill:#FFFFFF;" d="M-0.242,7.017c-0.379,0-0.75-0.06-1.112-0.181c-0.362-0.121-0.672-0.293-0.931-0.517l0.431-0.724
			C-1.578,5.79-1.31,5.938-1.048,6.039C-0.787,6.14-0.527,6.19-0.268,6.19c0.23,0,0.41-0.043,0.543-0.129
			c0.132-0.086,0.198-0.21,0.198-0.371c0-0.16-0.077-0.278-0.233-0.353C0.085,5.262-0.168,5.176-0.518,5.078
			c-0.293-0.081-0.543-0.158-0.75-0.233c-0.207-0.074-0.374-0.159-0.5-0.254c-0.126-0.095-0.218-0.204-0.276-0.328
			C-2.101,4.14-2.13,3.992-2.13,3.819c0-0.23,0.044-0.437,0.134-0.62c0.089-0.184,0.214-0.341,0.375-0.47
			C-1.461,2.6-1.272,2.501-1.057,2.431c0.216-0.069,0.45-0.103,0.703-0.103c0.339,0,0.656,0.049,0.953,0.147
			C0.894,2.572,1.165,2.73,1.412,2.949L0.947,3.647c-0.23-0.173-0.452-0.299-0.668-0.38C0.064,3.187-0.15,3.147-0.363,3.147
			c-0.195,0-0.359,0.04-0.491,0.121c-0.132,0.081-0.198,0.21-0.198,0.388c0,0.081,0.016,0.147,0.047,0.198
			c0.031,0.052,0.082,0.098,0.151,0.138c0.069,0.04,0.159,0.079,0.272,0.116c0.112,0.038,0.251,0.077,0.418,0.117
			c0.31,0.081,0.576,0.161,0.797,0.241c0.221,0.081,0.402,0.172,0.543,0.276C1.316,4.845,1.42,4.964,1.486,5.1
			c0.066,0.135,0.099,0.297,0.099,0.487c0,0.443-0.164,0.791-0.491,1.047C0.766,6.889,0.321,7.017-0.242,7.017"/>
		<path style="fill:#FFFFFF;" d="M4.429,7.017c-0.362,0-0.69-0.062-0.983-0.185C3.154,6.708,2.904,6.54,2.697,6.328
			C2.49,6.115,2.331,5.868,2.218,5.586C2.107,5.305,2.05,5.009,2.05,4.699c0-0.322,0.055-0.625,0.164-0.91
			c0.109-0.284,0.267-0.534,0.474-0.75c0.207-0.216,0.458-0.387,0.754-0.513C3.738,2.4,4.07,2.337,4.438,2.337
			c0.368,0,0.697,0.063,0.987,0.19c0.29,0.126,0.537,0.296,0.741,0.508c0.204,0.213,0.359,0.46,0.465,0.742
			c0.106,0.281,0.16,0.575,0.16,0.879c0,0.075-0.002,0.147-0.005,0.216C6.784,4.94,6.777,4.997,6.765,5.044H3.274
			c0.017,0.178,0.06,0.336,0.129,0.474c0.069,0.138,0.158,0.256,0.267,0.354C3.78,5.969,3.904,6.043,4.041,6.095
			c0.138,0.052,0.281,0.077,0.431,0.077c0.23,0,0.447-0.056,0.651-0.168c0.204-0.112,0.343-0.26,0.418-0.444l0.991,0.276
			C6.366,6.181,6.1,6.464,5.735,6.685C5.37,6.907,4.935,7.017,4.429,7.017 M5.602,4.293c-0.029-0.339-0.154-0.61-0.375-0.814
			c-0.221-0.204-0.49-0.306-0.806-0.306c-0.155,0-0.3,0.027-0.435,0.082C3.85,3.309,3.731,3.386,3.628,3.483
			C3.524,3.581,3.44,3.699,3.373,3.837c-0.066,0.138-0.105,0.29-0.116,0.457H5.602z"/>
		<path style="fill:#FFFFFF;" d="M10.17,6.698c-0.155,0.069-0.345,0.138-0.569,0.207c-0.224,0.069-0.46,0.103-0.707,0.103
			c-0.161,0-0.312-0.02-0.453-0.06c-0.141-0.04-0.264-0.104-0.37-0.194C7.965,6.665,7.88,6.55,7.817,6.409
			C7.754,6.269,7.722,6.098,7.722,5.897V3.302H7.127V2.414h0.595V0.949h1.155v1.465h0.948v0.888H8.877v2.207
			c0,0.161,0.041,0.274,0.125,0.34c0.083,0.066,0.185,0.099,0.306,0.099c0.121,0,0.239-0.02,0.354-0.06
			c0.115-0.04,0.207-0.075,0.276-0.103L10.17,6.698z"/>
		<path style="fill:#FFFFFF;" d="M14.773,0.828h1.095l0.69,2.025l0.69-2.025h1.103l-1.043,2.784l0.776,1.956l1.732-4.758h1.293
			l-2.491,6.12h-1l-1.06-2.568l-1.06,2.568h-1l-2.474-6.12h1.276l1.741,4.758l0.759-1.956L14.773,0.828z"/>
		<path style="fill:#FFFFFF;" d="M23.168,7.017c-0.362,0-0.69-0.062-0.983-0.185c-0.293-0.123-0.543-0.292-0.75-0.504
			c-0.207-0.212-0.366-0.46-0.478-0.741c-0.112-0.281-0.168-0.578-0.168-0.888c0-0.322,0.055-0.625,0.164-0.91
			c0.109-0.284,0.267-0.534,0.474-0.75c0.207-0.216,0.458-0.387,0.754-0.513c0.296-0.126,0.627-0.19,0.995-0.19
			c0.368,0,0.697,0.063,0.987,0.19c0.29,0.126,0.537,0.296,0.741,0.508c0.204,0.213,0.359,0.46,0.466,0.742
			c0.106,0.281,0.159,0.575,0.159,0.879c0,0.075-0.001,0.147-0.004,0.216c-0.003,0.069-0.01,0.126-0.021,0.173h-3.491
			c0.017,0.178,0.06,0.336,0.129,0.474c0.069,0.138,0.158,0.256,0.267,0.354c0.109,0.098,0.233,0.172,0.371,0.224
			c0.138,0.052,0.281,0.077,0.431,0.077c0.23,0,0.447-0.056,0.651-0.168c0.204-0.112,0.343-0.26,0.418-0.444l0.991,0.276
			c-0.167,0.345-0.432,0.628-0.797,0.849C24.109,6.907,23.674,7.017,23.168,7.017 M24.34,4.293c-0.029-0.339-0.154-0.61-0.375-0.814
			c-0.221-0.204-0.49-0.306-0.806-0.306c-0.155,0-0.3,0.027-0.435,0.082c-0.135,0.055-0.254,0.131-0.358,0.228
			c-0.104,0.098-0.188,0.216-0.254,0.354c-0.066,0.138-0.105,0.29-0.116,0.457H24.34z"/>
		<path style="fill:#FFFFFF;" d="M27.943,7.017c-0.379,0-0.75-0.06-1.112-0.181c-0.362-0.121-0.672-0.293-0.931-0.517l0.431-0.724
			c0.276,0.196,0.544,0.343,0.806,0.444c0.262,0.101,0.521,0.151,0.78,0.151c0.23,0,0.41-0.043,0.543-0.129
			c0.132-0.086,0.198-0.21,0.198-0.371c0-0.16-0.077-0.278-0.233-0.353c-0.155-0.075-0.408-0.161-0.758-0.259
			c-0.293-0.081-0.543-0.158-0.75-0.233c-0.207-0.074-0.374-0.159-0.5-0.254c-0.126-0.095-0.218-0.204-0.276-0.328
			c-0.057-0.124-0.086-0.272-0.086-0.444c0-0.23,0.045-0.437,0.134-0.62c0.089-0.184,0.214-0.341,0.375-0.47
			c0.161-0.129,0.349-0.228,0.564-0.298c0.216-0.069,0.45-0.103,0.703-0.103c0.339,0,0.656,0.049,0.953,0.147
			c0.295,0.098,0.567,0.256,0.814,0.474l-0.466,0.698c-0.23-0.173-0.452-0.299-0.668-0.38c-0.216-0.081-0.43-0.121-0.642-0.121
			c-0.195,0-0.359,0.04-0.491,0.121c-0.132,0.081-0.198,0.21-0.198,0.388c0,0.081,0.016,0.147,0.047,0.198
			c0.031,0.052,0.082,0.098,0.151,0.138c0.069,0.04,0.159,0.079,0.272,0.116c0.112,0.038,0.251,0.077,0.418,0.117
			c0.31,0.081,0.576,0.161,0.797,0.241c0.221,0.081,0.402,0.172,0.543,0.276c0.141,0.104,0.244,0.223,0.311,0.358
			c0.066,0.135,0.099,0.297,0.099,0.487c0,0.443-0.164,0.791-0.491,1.047C28.951,6.889,28.506,7.017,27.943,7.017"/>
		<path style="fill:#FFFFFF;" d="M-27.747,16.355c-0.218,0-0.422-0.036-0.612-0.108c-0.19-0.071-0.353-0.172-0.491-0.302
			c-0.138-0.129-0.245-0.28-0.323-0.452c-0.077-0.173-0.116-0.362-0.116-0.569c0-0.213,0.047-0.409,0.142-0.59
			c0.095-0.181,0.227-0.335,0.397-0.461c0.169-0.126,0.372-0.226,0.608-0.298c0.236-0.072,0.494-0.108,0.776-0.108
			c0.201,0,0.398,0.017,0.59,0.052c0.193,0.034,0.363,0.083,0.513,0.147v-0.259c0-0.299-0.085-0.528-0.254-0.69
			c-0.169-0.161-0.421-0.241-0.754-0.241c-0.241,0-0.477,0.043-0.707,0.129c-0.23,0.086-0.465,0.213-0.707,0.38l-0.353-0.733
			c0.58-0.385,1.207-0.577,1.879-0.577c0.649,0,1.154,0.159,1.513,0.479c0.359,0.319,0.539,0.78,0.539,1.383v1.405
			c0,0.121,0.022,0.207,0.064,0.259c0.043,0.052,0.114,0.081,0.211,0.086v0.982c-0.195,0.04-0.365,0.06-0.509,0.06
			c-0.218,0-0.387-0.049-0.504-0.146c-0.118-0.098-0.191-0.227-0.22-0.388l-0.026-0.25c-0.201,0.264-0.445,0.465-0.733,0.603
			C-27.112,16.286-27.419,16.355-27.747,16.355 M-27.419,15.51c0.195,0,0.381-0.035,0.556-0.103
			c0.175-0.069,0.312-0.161,0.409-0.276c0.126-0.097,0.19-0.207,0.19-0.327v-0.517c-0.138-0.052-0.287-0.093-0.448-0.125
			c-0.161-0.031-0.316-0.047-0.466-0.047c-0.299,0-0.543,0.067-0.733,0.203c-0.19,0.135-0.284,0.306-0.284,0.513
			c0,0.195,0.074,0.358,0.224,0.487C-27.822,15.446-27.638,15.51-27.419,15.51"/>
		<path style="fill:#FFFFFF;" d="M-19.834,16.269h-1.155v-2.534c0-0.362-0.063-0.626-0.19-0.793c-0.126-0.167-0.302-0.25-0.526-0.25
			c-0.115,0-0.233,0.023-0.353,0.069c-0.121,0.046-0.234,0.111-0.341,0.194c-0.106,0.083-0.202,0.182-0.289,0.297
			c-0.086,0.115-0.149,0.241-0.189,0.379v2.638h-1.155v-4.516h1.043v0.836c0.167-0.287,0.408-0.512,0.724-0.672
			c0.316-0.161,0.672-0.241,1.069-0.241c0.281,0,0.511,0.052,0.69,0.155c0.178,0.104,0.316,0.239,0.414,0.405
			c0.097,0.167,0.165,0.357,0.202,0.569c0.037,0.213,0.056,0.428,0.056,0.646V16.269z"/>
		<path style="fill:#FFFFFF;" d="M-16.955,16.355c-0.31,0-0.598-0.06-0.862-0.181c-0.264-0.121-0.491-0.287-0.681-0.5
			c-0.19-0.213-0.338-0.461-0.444-0.746c-0.106-0.284-0.159-0.59-0.159-0.918s0.05-0.632,0.151-0.914
			c0.1-0.281,0.24-0.529,0.418-0.742c0.178-0.212,0.391-0.379,0.638-0.5c0.247-0.121,0.517-0.181,0.81-0.181
			c0.333,0,0.634,0.081,0.901,0.241c0.267,0.161,0.475,0.371,0.625,0.629V9.977h1.155v4.965c0,0.121,0.02,0.207,0.06,0.259
			c0.04,0.052,0.109,0.081,0.207,0.086v0.982c-0.201,0.04-0.365,0.06-0.492,0.06c-0.207,0-0.376-0.052-0.509-0.155
			c-0.132-0.104-0.207-0.238-0.224-0.405l-0.026-0.285c-0.167,0.288-0.392,0.504-0.677,0.651
			C-16.348,16.282-16.645,16.355-16.955,16.355 M-16.654,15.372c0.109,0,0.221-0.019,0.336-0.056
			c0.115-0.037,0.221-0.09,0.319-0.159c0.098-0.069,0.185-0.149,0.263-0.241c0.078-0.092,0.136-0.193,0.177-0.302v-1.078
			c-0.046-0.126-0.111-0.243-0.194-0.349c-0.084-0.106-0.178-0.198-0.284-0.276c-0.106-0.077-0.219-0.139-0.336-0.185
			c-0.118-0.046-0.234-0.069-0.349-0.069c-0.172,0-0.332,0.038-0.478,0.112c-0.147,0.075-0.272,0.177-0.375,0.306
			c-0.103,0.129-0.184,0.277-0.242,0.444c-0.057,0.167-0.086,0.339-0.086,0.517c0,0.189,0.031,0.365,0.095,0.525
			c0.063,0.161,0.149,0.302,0.259,0.423c0.109,0.121,0.24,0.215,0.392,0.284C-17.006,15.338-16.838,15.372-16.654,15.372"/>
		<path style="fill:#FFFFFF;" d="M-6.75,11.192h-1.956v5.077h-1.181v-5.077h-1.957v-1.043h5.094V11.192z"/>
		<path style="fill:#FFFFFF;" d="M-5.819,16.355c-0.218,0-0.422-0.036-0.612-0.108c-0.19-0.071-0.353-0.172-0.491-0.302
			c-0.138-0.129-0.245-0.28-0.323-0.452c-0.078-0.173-0.116-0.362-0.116-0.569c0-0.213,0.047-0.409,0.142-0.59
			s0.227-0.335,0.397-0.461c0.169-0.126,0.372-0.226,0.608-0.298c0.236-0.072,0.494-0.108,0.776-0.108
			c0.201,0,0.398,0.017,0.59,0.052c0.193,0.034,0.363,0.083,0.513,0.147v-0.259c0-0.299-0.085-0.528-0.255-0.69
			c-0.169-0.161-0.421-0.241-0.754-0.241c-0.241,0-0.477,0.043-0.707,0.129c-0.23,0.086-0.465,0.213-0.707,0.38l-0.353-0.733
			c0.58-0.385,1.207-0.577,1.879-0.577c0.649,0,1.154,0.159,1.513,0.479c0.359,0.319,0.539,0.78,0.539,1.383v1.405
			c0,0.121,0.022,0.207,0.064,0.259c0.043,0.052,0.114,0.081,0.211,0.086v0.982c-0.195,0.04-0.365,0.06-0.509,0.06
			c-0.218,0-0.387-0.049-0.504-0.146c-0.118-0.098-0.191-0.227-0.22-0.388l-0.026-0.25c-0.201,0.264-0.445,0.465-0.733,0.603
			C-5.184,16.286-5.492,16.355-5.819,16.355 M-5.492,15.51c0.195,0,0.381-0.035,0.556-0.103c0.175-0.069,0.312-0.161,0.409-0.276
			c0.126-0.097,0.19-0.207,0.19-0.327v-0.517c-0.138-0.052-0.287-0.093-0.448-0.125c-0.161-0.031-0.316-0.047-0.465-0.047
			c-0.299,0-0.543,0.067-0.733,0.203c-0.19,0.135-0.284,0.306-0.284,0.513c0,0.195,0.074,0.358,0.224,0.487
			C-5.894,15.446-5.71,15.51-5.492,15.51"/>
		<path style="fill:#FFFFFF;" d="M-0.725,16.355c-0.465,0-0.819-0.149-1.06-0.448c-0.241-0.299-0.362-0.741-0.362-1.327v-2.827
			h1.155v2.577c0,0.695,0.25,1.043,0.75,1.043c0.224,0,0.441-0.068,0.651-0.203c0.21-0.135,0.38-0.34,0.513-0.616v-2.801h1.155
			v3.189c0,0.121,0.022,0.207,0.065,0.259c0.043,0.052,0.113,0.081,0.211,0.086v0.982c-0.115,0.023-0.211,0.038-0.289,0.043
			c-0.078,0.006-0.148,0.009-0.211,0.009c-0.207,0-0.375-0.047-0.504-0.142c-0.129-0.095-0.206-0.226-0.228-0.392l-0.026-0.362
			c-0.202,0.31-0.46,0.543-0.776,0.698C0.002,16.277-0.346,16.355-0.725,16.355"/>
		<path style="fill:#FFFFFF;" d="M7.42,16.269H6.265v-2.534c0-0.362-0.063-0.626-0.19-0.793c-0.126-0.167-0.302-0.25-0.526-0.25
			c-0.115,0-0.233,0.023-0.353,0.069c-0.121,0.046-0.234,0.111-0.341,0.194c-0.106,0.083-0.203,0.182-0.289,0.297
			c-0.086,0.115-0.149,0.241-0.189,0.379v2.638H3.222v-4.516h1.043v0.836c0.167-0.287,0.408-0.512,0.724-0.672
			c0.316-0.161,0.672-0.241,1.069-0.241c0.281,0,0.511,0.052,0.69,0.155c0.178,0.104,0.316,0.239,0.414,0.405
			c0.097,0.167,0.165,0.357,0.202,0.569c0.037,0.213,0.056,0.428,0.056,0.646L7.42,16.269z"/>
		<path style="fill:#FFFFFF;" d="M11.092,16.036c-0.155,0.069-0.345,0.138-0.569,0.207c-0.224,0.069-0.46,0.103-0.707,0.103
			c-0.161,0-0.312-0.02-0.453-0.06c-0.141-0.04-0.264-0.104-0.37-0.194c-0.106-0.089-0.191-0.204-0.254-0.345
			c-0.063-0.141-0.095-0.311-0.095-0.513V12.64H8.049v-0.888h0.595v-1.465h1.155v1.465h0.948v0.888H9.799v2.207
			c0,0.161,0.041,0.274,0.125,0.34c0.083,0.066,0.185,0.099,0.306,0.099c0.121,0,0.238-0.02,0.353-0.06
			c0.115-0.04,0.207-0.075,0.276-0.104L11.092,16.036z"/>
		<path style="fill:#FFFFFF;" d="M21.004,16.269h-1.155v-2.534c0-0.362-0.063-0.626-0.19-0.793c-0.126-0.167-0.302-0.25-0.526-0.25
			c-0.115,0-0.233,0.023-0.353,0.069c-0.121,0.046-0.234,0.111-0.341,0.194c-0.106,0.083-0.202,0.182-0.289,0.297
			c-0.086,0.115-0.149,0.241-0.189,0.379v2.638h-1.155v-4.516h1.043v0.836c0.167-0.287,0.408-0.512,0.724-0.672
			c0.316-0.161,0.672-0.241,1.069-0.241c0.281,0,0.511,0.052,0.69,0.155c0.178,0.104,0.316,0.239,0.414,0.405
			c0.098,0.167,0.165,0.357,0.202,0.569c0.037,0.213,0.056,0.428,0.056,0.646L21.004,16.269z"/>
		<path style="fill:#FFFFFF;" d="M33.227,6.698c-0.155,0.069-0.345,0.138-0.569,0.207c-0.224,0.069-0.46,0.103-0.707,0.103
			c-0.161,0-0.312-0.02-0.453-0.06c-0.141-0.04-0.264-0.104-0.371-0.194c-0.106-0.089-0.191-0.204-0.254-0.345
			c-0.063-0.141-0.095-0.312-0.095-0.513V3.302h-0.595V2.414h0.595V0.949h1.155v1.465h0.948v0.888h-0.948v2.207
			c0,0.161,0.041,0.274,0.125,0.34c0.083,0.066,0.185,0.099,0.306,0.099c0.121,0,0.239-0.02,0.354-0.06
			c0.115-0.04,0.207-0.075,0.276-0.103L33.227,6.698z"/>
		<path style="fill:#FFFFFF;" d="M13.669,16.355c-0.368,0-0.698-0.063-0.991-0.19c-0.293-0.126-0.542-0.297-0.745-0.513
			c-0.204-0.215-0.361-0.464-0.47-0.746c-0.109-0.281-0.164-0.577-0.164-0.888c0-0.316,0.055-0.615,0.164-0.896
			c0.109-0.282,0.266-0.53,0.47-0.745c0.204-0.216,0.453-0.387,0.745-0.513c0.293-0.126,0.623-0.19,0.991-0.19
			c0.368,0,0.697,0.063,0.987,0.19c0.29,0.126,0.537,0.297,0.741,0.513c0.204,0.215,0.36,0.464,0.47,0.745
			c0.109,0.281,0.163,0.58,0.163,0.896c0,0.31-0.055,0.606-0.163,0.888c-0.11,0.282-0.265,0.531-0.465,0.746
			c-0.201,0.215-0.448,0.387-0.742,0.513C14.368,16.292,14.037,16.355,13.669,16.355 M12.488,14.019c0,0.201,0.03,0.383,0.091,0.547
			c0.06,0.164,0.144,0.306,0.25,0.427c0.106,0.121,0.231,0.214,0.375,0.28c0.144,0.066,0.298,0.099,0.465,0.099
			c0.167,0,0.322-0.033,0.465-0.099c0.144-0.066,0.269-0.159,0.375-0.28c0.106-0.121,0.189-0.264,0.25-0.431
			c0.06-0.166,0.091-0.35,0.091-0.551c0-0.196-0.03-0.376-0.091-0.543c-0.06-0.167-0.144-0.31-0.25-0.431
			c-0.106-0.121-0.232-0.214-0.375-0.28c-0.144-0.066-0.299-0.099-0.465-0.099c-0.167,0-0.322,0.034-0.465,0.104
			c-0.144,0.069-0.269,0.163-0.375,0.284c-0.106,0.121-0.19,0.265-0.25,0.431C12.519,13.643,12.488,13.824,12.488,14.019"/>
	</g>
</g>
</svg>
