<?xml version="1.0" encoding="iso-8859-1"?>
<!-- Generator: Adobe Illustrator 27.8.1, SVG Export Plug-In . SVG Version: 6.00 Build 0)  -->
<svg version="1.1" id="Layer_1" xmlns="http://www.w3.org/2000/svg" xmlns:xlink="http://www.w3.org/1999/xlink" x="0px" y="0px"
	 viewBox="0 0 128 128" style="enable-background:new 0 0 128 128;" xml:space="preserve">
<g>
	<path d="M55.307,41.441c0-2.679,0.435-4.213,1.946-5.931l1.534-1.74l1.695-4.786c0.893-2.565,2.565-3.641,4.717-3.893
		c1.053-0.115,4.534-0.206,8.473-0.206c3.916,0,7.397,0.092,8.45,0.206c2.153,0.252,3.824,1.328,4.717,3.893l1.695,4.786l1.534,1.74
		c1.511,1.717,1.946,3.252,1.946,5.931v10.167c0,1.145-0.87,2.038-2.038,2.038h-1.809c-1.168,0-2.061-0.893-2.061-2.038v-2.153
		H61.216v2.153c0,1.145-0.893,2.038-2.038,2.038h-1.832c-1.145,0-2.038-0.893-2.038-2.038V41.441z M84.436,33.633
		c0.71,0,0.985-0.527,0.756-1.214l-0.985-2.885c-0.412-1.214-1.03-1.626-2.107-1.786c-1.122-0.137-3.985-0.252-8.427-0.252
		c-4.465,0-7.328,0.115-8.45,0.252c-1.076,0.16-1.718,0.572-2.13,1.786l-0.962,2.885c-0.229,0.687,0.023,1.214,0.733,1.214H84.436z
		 M62.36,41.899v-2.473c0-0.916-0.664-1.58-1.557-1.58c-0.939,0-1.603,0.664-1.603,1.58v2.473c0,0.916,0.664,1.58,1.603,1.58
		C61.696,43.479,62.36,42.815,62.36,41.899z M77.176,42.769c0.733,0,1.214-0.481,1.214-1.259v-1.717
		c0-0.756-0.481-1.214-1.214-1.214h-7.122c-0.733,0-1.191,0.458-1.191,1.214v1.717c0,0.779,0.458,1.259,1.191,1.259H77.176z
		 M88.237,41.899v-2.473c0-0.916-0.664-1.58-1.58-1.58c-0.893,0-1.58,0.664-1.58,1.58v2.473c0,0.893,0.687,1.58,1.58,1.58
		C87.573,43.479,88.237,42.815,88.237,41.899z"/>
	<path d="M20.852,99.458h5.343c2.251,0,3.394-1.305,4.032-3.343L54.15,24.529c0.504-1.508-0.101-2.731-1.344-2.731h-2.52
		c-1.277,0-2.083,0.693-2.621,2.038L18.265,94.402C17.257,96.767,17.996,99.458,20.852,99.458z"/>
	<path d="M42.626,81.548c0-3.931,0.638-6.182,2.856-8.703l2.251-2.554l2.486-7.023c1.31-3.763,3.763-5.342,6.922-5.712
		c1.546-0.168,6.653-0.302,12.432-0.302c5.746,0,10.853,0.134,12.399,0.302c3.158,0.37,5.611,1.949,6.922,5.712l2.486,7.023
		l2.251,2.554c2.218,2.52,2.856,4.771,2.856,8.703v14.919c0,1.68-1.277,2.99-2.99,2.99h-2.655c-1.714,0-3.024-1.31-3.024-2.99
		v-3.158H51.295v3.158c0,1.68-1.31,2.99-2.99,2.99h-2.688c-1.68,0-2.99-1.31-2.99-2.99V81.548z M85.366,70.091
		c1.042,0,1.445-0.773,1.109-1.781l-1.445-4.234c-0.605-1.781-1.512-2.386-3.091-2.621c-1.646-0.202-5.847-0.37-12.365-0.37
		c-6.552,0-10.752,0.168-12.399,0.37c-1.579,0.235-2.52,0.84-3.125,2.621l-1.411,4.234c-0.336,1.008,0.034,1.781,1.075,1.781H85.366
		z M52.975,82.22v-3.629c0-1.344-0.974-2.318-2.285-2.318c-1.378,0-2.352,0.974-2.352,2.318v3.629c0,1.344,0.974,2.318,2.352,2.318
		C52,84.539,52.975,83.564,52.975,82.22z M74.715,83.497c1.075,0,1.781-0.706,1.781-1.848v-2.52c0-1.109-0.706-1.781-1.781-1.781
		h-10.45c-1.075,0-1.747,0.672-1.747,1.781v2.52c0,1.142,0.672,1.848,1.747,1.848H74.715z M90.944,82.22v-3.629
		c0-1.344-0.974-2.318-2.318-2.318c-1.31,0-2.318,0.974-2.318,2.318v3.629c0,1.31,1.008,2.318,2.318,2.318
		C89.969,84.539,90.944,83.564,90.944,82.22z"/>
</g>
<path d="M63.975,128C99.01,128,128,99.01,128,64.025C128,28.99,98.961,0,63.926,0C28.941,0,0,28.99,0,64.025
	C0,99.01,28.99,128,63.975,128z M63.976,120c-14.784,0-28.794-5.869-39.451-16.525C13.869,92.818,8,78.808,8,64.024
	c0-14.81,5.862-28.837,16.505-39.498C35.146,13.869,49.146,8,63.926,8c14.812,0,28.847,5.872,39.521,16.534
	C114.121,35.197,120,49.222,120,64.024c0,14.785-5.87,28.795-16.529,39.449C92.808,114.131,78.781,120,63.976,120z"/>
</svg>
