<?xml version="1.0" encoding="iso-8859-1"?>
<!-- Generator: Adobe Illustrator 27.8.0, SVG Export Plug-In . SVG Version: 6.00 Build 0)  -->
<svg version="1.1" id="Layer_1" xmlns="http://www.w3.org/2000/svg" xmlns:xlink="http://www.w3.org/1999/xlink" x="0px" y="0px"
	 viewBox="0 0 128 128" style="enable-background:new 0 0 128 128;" xml:space="preserve">
<path style="fill:#006544;" d="M110.116,47.019c-1.505,3.113-4.717,4.678-7.176,3.518c-2.459-1.16-3.359-4.752-1.835-7.938
	c0.427-0.956,1.053-1.81,1.835-2.505v0.129c-1.487,3.205-0.642,6.759,1.835,7.938C106.624,48.873,108.717,48.425,110.116,47.019"/>
<path style="fill:#78BE20;" d="M127.882,48.861c-0.381,6.608-1.974,13.089-4.698,19.117c-9.543,20.425-32.613,30.831-40.963,33.998
	c7.103-7.772,14.682-25.784,20.757-34.459C108.722,59.193,119.751,51.918,127.882,48.861"/>
<path style="fill:#78BE20;" d="M121.679,11.548c-11.732,3.965-22.535,10.288-31.75,18.583c4.67,8.963,7.585,18.741,8.589,28.805
	c15.269-9.651,24.446-11.861,29.474-12.597C128.15,34.44,126.006,22.625,121.679,11.548 M111.952,44.515
	c-0.432,0.954-1.057,1.807-1.835,2.505c-1.413,1.437-3.545,1.886-5.414,1.142c-2.514-1.179-3.359-4.752-1.835-7.956
	c-0.01-0.036-0.01-0.074,0-0.111c1.523-3.131,4.717-4.715,7.213-3.555s3.359,4.752,1.835,7.975"/>
<path style="fill:#006544;" d="M110.116,47.019c-1.505,3.113-4.717,4.678-7.176,3.518c-2.459-1.16-3.359-4.752-1.835-7.956
	c0.433-0.948,1.058-1.795,1.835-2.486v0.129c-1.487,3.186-0.642,6.759,1.835,7.938C106.624,48.873,108.717,48.425,110.116,47.019"/>
<path style="fill:#009A44;" d="M47.02,0c-3.25,6.574-5.714,13.51-7.341,20.664c-1.124,5.11-1.775,10.314-1.945,15.544
	c17.729,6.17,26.538,13.647,26.538,13.647c3.854-17.699,8.718-25.784,11.764-29.928C67.739,11.464,57.885,4.697,47.02,0
	 M62.069,37.553c-0.266,0.17-0.549,0.312-0.844,0.424c-2.624,0.976-5.726-0.921-6.956-4.236c-0.612-1.587-0.657-3.337-0.128-4.954
	c0.421-1.286,1.389-2.318,2.643-2.818c2.606-0.976,5.726,0.921,6.937,4.254c1.179,2.547,0.501,5.572-1.652,7.367"/>
<path style="fill:#009A44;" d="M91.048,53.097c1.432,21.585-9.176,41.586-9.176,41.586s-1.34,2.615-1.321,2.247
	c0.877-9.645-0.171-19.369-3.083-28.602c-2.735-9.669-3.927-15.636-3.927-15.636c-1.835-9.945,0.734-22.929,4.295-30.886
	c2.481,2.768,4.688,5.772,6.589,8.969c0.624,1.05,1.211,2.1,1.744,3.205l0,0c0.727,1.529,1.37,3.097,1.927,4.696
	c1.052,2.893,1.838,5.877,2.349,8.914c-0.009,0.067-0.009,0.135,0,0.203c0.294,1.842,0.477,3.573,0.606,5.323l0,0"/>
<path style="fill:#006544;" d="M62.069,37.534c-0.411,1.286-1.374,2.32-2.624,2.818c-2.606,0.976-5.708-0.939-6.956-4.254
	c-1.162-2.553-0.478-5.57,1.67-7.367c-0.55,1.612-0.511,3.368,0.11,4.954c1.23,3.315,4.331,5.212,6.956,4.236
	c0.303-0.103,0.587-0.252,0.844-0.442"/>
<path style="fill:#006544;" d="M75.797,128c-1.358,0,0.202-2.321-3.12-9.098c-0.867-1.692-1.848-3.323-2.936-4.881l0,0
	c-1.009-0.166-2.111-0.35-3.322-0.608c-11.232-2.21-30.264-7.975-41.844-22.708c-2.89-3.711-5.249-7.808-7.011-12.174l0,0
	C9.727,77.058,4.258,77.334,1.67,76.892C0.312,76.671,0,76.358,0,76.063s1.376-0.7,1.835-0.755c1.725-0.166,3.469-0.332,5.231-0.424
	l0,0c3.163,0.114,6.317,0.391,9.452,0.829c7.772,1.18,15.328,3.501,22.427,6.888c5.112,2.47,9.902,5.563,14.26,9.209l0,0
	c6.603,5.46,12.486,11.742,17.508,18.694c1.009,1.4,1.835,2.763,2.606,3.997c0.44,0.737,0.808,1.418,1.12,2.063
	c0.868,1.683,1.533,3.464,1.982,5.304c0,0,0,0.129,0,0.184c0.752,4.162,0.404,5.93-0.661,5.949"/>
<path style="fill:#006544;" d="M76.145,94.149c0.22,2.91,0.294,5.654,0.275,8.122c0,1.363,0,2.634,0,3.812c0,0.111,0,0.203,0,0.295
	c0,2.118-0.257,3.923-0.404,5.286c-0.477-1.068-1.028-2.192-1.652-3.37c-5.139-9.614-14.682-22.101-19.252-30.131l-0.551-0.81
	c-0.294-0.528-0.569-1.08-0.826-1.658l0,0c-3.148-7.271-4.778-15.112-4.79-23.04c-0.037-1.974,0.042-3.948,0.239-5.912l0,0
	l0.587,0.424c1.578,0.958,3.12,1.989,4.625,3.113c3.62,2.664,6.873,5.797,9.672,9.319c0.808,1.013,1.56,2.081,2.257,3.131
	c0.697,1.05,1.12,1.842,1.633,2.652c0.514,0.81,1.193,2.136,1.725,3.241l0,0c1.333,2.791,2.455,5.678,3.359,8.638l0,0
	c1.442,4.804,2.408,9.739,2.881,14.734c0,0.774,0.147,1.547,0.202,2.302"/>
<path style="fill:#006544;" d="M46.047,44.92c-2.647-1.377-5.367-2.606-8.149-3.683c-2.294-0.884-4.533-1.639-6.699-2.265l0,0
	c-3.359-0.995-6.497-1.713-9.176-2.228c-2.933-0.6-5.899-1.024-8.883-1.271c-1.764,12.303-1.002,24.838,2.239,36.835
	c9.361-0.141,18.675,1.348,27.529,4.402c0.679,0.239,1.358,0.516,2.037,0.792c-0.367-3.812-0.587-7.238-0.642-10.314
	c0-1.363,0-2.634,0-3.868l0,0c0.022-4.273,0.446-8.534,1.266-12.726c0.294-1.418,0.624-2.652,0.936-3.683
	c0.147-0.54,0.294-1.019,0.44-1.437l-0.899-0.497 M38.908,68.917c-0.186,0.158-0.389,0.294-0.606,0.405l0,0
	c-2.678,1.071-5.737,0.12-7.341-2.284c-1.595-1.832-2.04-4.402-1.156-6.667c0.259-0.589,0.656-1.107,1.156-1.51
	c0.854-0.669,1.933-0.979,3.01-0.866c1.965,0.18,3.76,1.192,4.937,2.781c0.697,0.859,1.186,1.867,1.432,2.947l0,0
	c0.574,1.872,0.007,3.909-1.45,5.212"/>
<path style="opacity:0.6;fill:#FFFFFF;" d="M110.116,47.019c-1.505,3.113-4.717,4.678-7.176,3.518
	c-2.459-1.16-3.359-4.752-1.835-7.938c0.427-0.956,1.053-1.81,1.835-2.505v0.129c-1.487,3.205-0.642,6.759,1.835,7.938
	C106.624,48.873,108.717,48.425,110.116,47.019"/>
<path style="opacity:0.6;fill:#FFFFFF;" d="M127.882,48.861c-0.381,6.608-1.974,13.089-4.698,19.117
	c-9.543,20.425-32.613,30.831-40.963,33.998c7.103-7.772,14.682-25.784,20.757-34.459C108.722,59.193,119.751,51.918,127.882,48.861
	"/>
<path style="opacity:0.6;fill:#FFFFFF;" d="M121.679,11.548c-11.732,3.965-22.535,10.288-31.75,18.583
	c4.67,8.963,7.585,18.741,8.589,28.805c15.269-9.651,24.446-11.861,29.474-12.597C128.15,34.44,126.006,22.625,121.679,11.548
	 M111.952,44.515c-0.432,0.954-1.057,1.807-1.835,2.505c-1.413,1.437-3.545,1.886-5.414,1.142c-2.514-1.179-3.359-4.752-1.835-7.956
	c-0.01-0.036-0.01-0.074,0-0.111c1.523-3.131,4.717-4.715,7.213-3.555s3.359,4.752,1.835,7.975"/>
<path style="opacity:0.6;fill:#FFFFFF;" d="M110.116,47.019c-1.505,3.113-4.717,4.678-7.176,3.518
	c-2.459-1.16-3.359-4.752-1.835-7.956c0.433-0.948,1.058-1.795,1.835-2.486v0.129c-1.487,3.186-0.642,6.759,1.835,7.938
	C106.624,48.873,108.717,48.425,110.116,47.019"/>
<path style="opacity:0.6;fill:#FFFFFF;" d="M47.02,0c-3.25,6.574-5.714,13.51-7.341,20.664c-1.124,5.11-1.775,10.314-1.945,15.544
	c17.729,6.17,26.538,13.647,26.538,13.647c3.854-17.699,8.718-25.784,11.764-29.928C67.739,11.464,57.885,4.697,47.02,0
	 M62.069,37.553c-0.266,0.17-0.549,0.312-0.844,0.424c-2.624,0.976-5.726-0.921-6.956-4.236c-0.612-1.587-0.657-3.337-0.128-4.954
	c0.421-1.286,1.389-2.318,2.643-2.818c2.606-0.976,5.726,0.921,6.937,4.254c1.179,2.547,0.501,5.572-1.652,7.367"/>
<path style="opacity:0.6;fill:#FFFFFF;" d="M91.048,53.097c1.432,21.585-9.176,41.586-9.176,41.586s-1.34,2.615-1.321,2.247
	c0.877-9.645-0.171-19.369-3.083-28.602c-2.735-9.669-3.927-15.636-3.927-15.636c-1.835-9.945,0.734-22.929,4.295-30.886
	c2.481,2.768,4.688,5.772,6.589,8.969c0.624,1.05,1.211,2.1,1.744,3.205l0,0c0.727,1.529,1.37,3.097,1.927,4.696
	c1.052,2.893,1.838,5.877,2.349,8.914c-0.009,0.067-0.009,0.135,0,0.203c0.294,1.842,0.477,3.573,0.606,5.323l0,0"/>
<path style="opacity:0.6;fill:#FFFFFF;" d="M62.069,37.534c-0.411,1.286-1.374,2.32-2.624,2.818
	c-2.606,0.976-5.708-0.939-6.956-4.254c-1.162-2.553-0.478-5.57,1.67-7.367c-0.55,1.612-0.511,3.368,0.11,4.954
	c1.23,3.315,4.331,5.212,6.956,4.236c0.303-0.103,0.587-0.252,0.844-0.442"/>
<path style="opacity:0.6;fill:#FFFFFF;" d="M75.797,128c-1.358,0,0.202-2.321-3.12-9.098c-0.867-1.692-1.848-3.323-2.936-4.881l0,0
	c-1.009-0.166-2.111-0.35-3.322-0.608c-11.232-2.21-30.264-7.975-41.844-22.708c-2.89-3.711-5.249-7.808-7.011-12.174l0,0
	C9.727,77.058,4.258,77.334,1.67,76.892C0.312,76.671,0,76.358,0,76.063s1.376-0.7,1.835-0.755c1.725-0.166,3.469-0.332,5.231-0.424
	l0,0c3.163,0.114,6.317,0.391,9.452,0.829c7.772,1.18,15.328,3.501,22.427,6.888c5.112,2.47,9.902,5.563,14.26,9.209l0,0
	c6.603,5.46,12.486,11.742,17.508,18.694c1.009,1.4,1.835,2.763,2.606,3.997c0.44,0.737,0.808,1.418,1.12,2.063
	c0.868,1.683,1.533,3.464,1.982,5.304c0,0,0,0.129,0,0.184c0.752,4.162,0.404,5.93-0.661,5.949"/>
<path style="opacity:0.6;fill:#FFFFFF;" d="M76.145,94.149c0.22,2.91,0.294,5.654,0.275,8.122c0,1.363,0,2.634,0,3.812
	c0,0.111,0,0.203,0,0.295c0,2.118-0.257,3.923-0.404,5.286c-0.477-1.068-1.028-2.192-1.652-3.37
	c-5.139-9.614-14.682-22.101-19.252-30.131l-0.551-0.81c-0.294-0.528-0.569-1.08-0.826-1.658l0,0
	c-3.148-7.271-4.778-15.112-4.79-23.04c-0.037-1.974,0.042-3.948,0.239-5.912l0,0l0.587,0.424c1.578,0.958,3.12,1.989,4.625,3.113
	c3.62,2.664,6.873,5.797,9.672,9.319c0.808,1.013,1.56,2.081,2.257,3.131c0.697,1.05,1.12,1.842,1.633,2.652
	c0.514,0.81,1.193,2.136,1.725,3.241l0,0c1.333,2.791,2.455,5.678,3.359,8.638l0,0c1.442,4.804,2.408,9.739,2.881,14.734
	c0,0.774,0.147,1.547,0.202,2.302"/>
<path style="opacity:0.6;fill:#FFFFFF;" d="M46.047,44.92c-2.647-1.377-5.367-2.606-8.149-3.683
	c-2.294-0.884-4.533-1.639-6.699-2.265l0,0c-3.359-0.995-6.497-1.713-9.176-2.228c-2.933-0.6-5.899-1.024-8.883-1.271
	c-1.764,12.303-1.002,24.838,2.239,36.835c9.361-0.141,18.675,1.348,27.529,4.402c0.679,0.239,1.358,0.516,2.037,0.792
	c-0.367-3.812-0.587-7.238-0.642-10.314c0-1.363,0-2.634,0-3.868l0,0c0.022-4.273,0.446-8.534,1.266-12.726
	c0.294-1.418,0.624-2.652,0.936-3.683c0.147-0.54,0.294-1.019,0.44-1.437l-0.899-0.497 M38.908,68.917
	c-0.186,0.158-0.389,0.294-0.606,0.405l0,0c-2.678,1.071-5.737,0.12-7.341-2.284c-1.595-1.832-2.04-4.402-1.156-6.667
	c0.259-0.589,0.656-1.107,1.156-1.51c0.854-0.669,1.933-0.979,3.01-0.866c1.965,0.18,3.76,1.192,4.937,2.781
	c0.697,0.859,1.186,1.867,1.432,2.947l0,0c0.574,1.872,0.007,3.909-1.45,5.212"/>
</svg>
