<?xml version="1.0" encoding="iso-8859-1"?>
<!-- Generator: Adobe Illustrator 27.7.0, SVG Export Plug-In . SVG Version: 6.00 Build 0)  -->
<svg version="1.1" id="Layer_1" xmlns="http://www.w3.org/2000/svg" xmlns:xlink="http://www.w3.org/1999/xlink" x="0px" y="0px"
	 viewBox="0 0 128 128" style="enable-background:new 0 0 128 128;" xml:space="preserve">
<g>
	<path style="fill:none;stroke:#FFFFFE;stroke-width:0.245;" d="M21.713,64.001c0-4.714,3.813-8.535,8.52-8.535
		s8.521,3.822,8.521,8.535c0.002,1.66-0.481,3.284-1.39,4.673"/>
	<path style="fill-rule:evenodd;clip-rule:evenodd;fill:#007C4C;" d="M30.134,38.296v-2.648c-7.777,0.027-14.815,3.194-19.916,8.305
		c-5.1,5.11-8.263,12.159-8.292,19.949h2.644C4.625,49.782,16.039,38.349,30.134,38.296"/>
	<path style="fill-rule:evenodd;clip-rule:evenodd;fill:#9EC73D;" d="M4.767,64.003c0,12.226,8.586,22.443,20.049,24.93l0.473-2.608
		C15.06,84.061,7.41,74.928,7.41,64.003c-0.009-6.114,2.438-11.976,6.79-16.27l-1.87-1.873C7.66,50.486,4.767,56.905,4.767,64.003"
		/>
	<path style="fill-rule:evenodd;clip-rule:evenodd;fill:#00A4DB;" d="M47.175,64.001c-0.017-9.374-7.586-16.956-16.942-16.972
		c-9.359,0.016-16.926,7.598-16.944,16.972c0,1.612,0.225,3.169,0.643,4.645l2.56-0.668c-0.372-1.293-0.56-2.631-0.559-3.977
		c0-7.911,6.402-14.324,14.301-14.324c7.896,0,14.299,6.413,14.299,14.324c0,6.832-4.774,12.546-11.163,13.979l0.557,2.588
		C41.507,78.88,47.175,72.104,47.175,64.001"/>
	<path style="fill-rule:evenodd;clip-rule:evenodd;fill:#B0B1AF;" d="M24.065,54.323c1.841-1.179,3.981-1.804,6.167-1.801
		c2.27,0,4.386,0.661,6.166,1.801l1.506-2.178c-2.282-1.487-4.948-2.277-7.672-2.272c-2.723-0.004-5.389,0.786-7.671,2.272
		L24.065,54.323"/>
	<path style="fill-rule:evenodd;clip-rule:evenodd;fill:#B0B1AF;" d="M36.086,45.065c-1.864-0.576-3.803-0.873-5.755-0.881v2.648
		c9.388,0.054,16.988,7.666,17.04,17.071h2.644C49.973,55.041,44.124,47.556,36.086,45.065"/>
	<path style="fill-rule:evenodd;clip-rule:evenodd;fill:#00A4DB;" d="M30.134,80.972v-2.648c-3.072-0.015-6.056-1.027-8.504-2.882
		l-1.89,1.884C22.698,79.673,26.358,80.957,30.134,80.972"/>
	<path style="fill-rule:evenodd;clip-rule:evenodd;fill:#B0B1AF;" d="M30.233,75.284c3.959,0,7.439-2.045,9.449-5.14l-2.287-1.34
		c-1.547,2.309-4.179,3.832-7.162,3.832c-2.984,0-5.615-1.522-7.161-3.828l-2.252,1.39C22.833,73.26,26.297,75.284,30.233,75.284"/>
	<path style="fill-rule:evenodd;clip-rule:evenodd;fill:#CC679B;" d="M55.894,64.099C55.84,78.218,44.425,89.653,30.331,89.705
		v2.648c7.777-0.025,14.815-3.192,19.915-8.304c5.103-5.109,8.265-12.16,8.292-19.949H55.894"/>
	<path style="fill-rule:evenodd;clip-rule:evenodd;fill:#FFE511;" d="M35.488,83.316l0.802,2.527c1.076-0.3,2.128-0.679,3.147-1.135
		l-1.007-2.449C37.479,82.687,36.495,83.041,35.488,83.316 M40.618,81.102l1.304,2.305c1.364-0.826,2.637-1.794,3.797-2.888
		l-1.909-1.835C42.83,79.595,41.761,80.405,40.618,81.102"/>
	<path style="fill-rule:evenodd;clip-rule:evenodd;fill:#725A31;" d="M48.133,45.859l-1.875,1.867
		c4.356,4.294,6.805,10.159,6.796,16.276c0,0.803-0.042,1.594-0.122,2.376l2.625,0.319c0.092-0.886,0.14-1.786,0.14-2.696
		C55.696,56.903,52.804,50.483,48.133,45.859"/>
	<path style="fill-rule:evenodd;clip-rule:evenodd;fill:#1A1919;" d="M44.106,49.598l1.871-1.871
		c-2.519-2.45-5.574-4.278-8.924-5.34l-0.815,2.519C39.19,45.839,41.883,47.445,44.106,49.598"/>
	<path style="fill-rule:evenodd;clip-rule:evenodd;fill:#007C4C;" d="M112.52,72.596h-4.821l-1.565-4.059h-8.035l-1.438,4.059
		h-4.742l7.341-19.483h5.188L112.52,72.596z M101.918,57.709l-2.633,7.471h5.532L101.918,57.709L101.918,57.709z M30.345,72.411
		c-6.586,0-10.3-4.962-10.3-9.869c0-4.653,3.53-9.869,10.299-9.869c6.77,0,10.273,5.244,10.273,9.869
		C40.618,67.475,36.798,72.411,30.345,72.411 M30.345,56.678c-3.424,0-5.69,2.34-5.69,5.865c0,3.524,2.266,5.864,5.689,5.864
		c3.398,0,5.664-2.34,5.664-5.864C36.008,59.018,33.743,56.678,30.345,56.678 M17.516,70.493c-2.502,1.382-4.399,1.918-7.059,1.918
		C3.476,72.411,0,67.56,0,62.598c0-5.132,3.924-9.924,10.8-9.924c2.503,0,4.741,0.564,6.506,1.692v4.285
		c-1.976-1.184-3.977-1.974-6.19-1.974c-3.82,0-6.506,2.426-6.506,5.836c0,3.439,2.661,5.893,6.401,5.893
		c2.344,0,3.925-0.789,6.506-2.116L17.516,70.493 M61.797,72.411h-3.569L48.099,59.835v12.576h-4.479V52.926h4.11l9.588,11.758
		V52.926h4.478V72.411 M116.436,63.162l-7.086-10.235h5.426l3.899,6.035l3.926-6.035H128l-7.087,10.235v9.248h-4.477L116.436,63.162
		 M73.36,72.411h-1.923l-7.901-19.485h4.742l4.241,10.63l4.608-10.63h3.61l4.61,10.63l4.212-10.63h4.743l-7.876,19.485h-1.923
		l-5.585-12.547L73.36,72.411"/>
</g>
<g style="opacity:0.6;">
	<path style="fill:#FFFFFF;stroke:#FFFFFE;stroke-width:0.245;" d="M21.713,64.001c0-4.714,3.813-8.535,8.52-8.535
		s8.521,3.822,8.521,8.535c0.002,1.66-0.481,3.284-1.39,4.673"/>
	<path style="fill-rule:evenodd;clip-rule:evenodd;fill:#FFFFFF;" d="M30.134,38.296v-2.648c-7.777,0.027-14.815,3.194-19.916,8.305
		c-5.1,5.11-8.263,12.159-8.292,19.949h2.644C4.625,49.782,16.039,38.349,30.134,38.296"/>
	<path style="fill-rule:evenodd;clip-rule:evenodd;fill:#FFFFFF;" d="M4.767,64.003c0,12.226,8.586,22.443,20.049,24.93l0.473-2.608
		C15.06,84.061,7.41,74.928,7.41,64.003c-0.009-6.114,2.438-11.976,6.79-16.27l-1.87-1.873C7.66,50.486,4.767,56.905,4.767,64.003"
		/>
	<path style="fill-rule:evenodd;clip-rule:evenodd;fill:#FFFFFF;" d="M47.175,64.001c-0.017-9.374-7.586-16.956-16.942-16.972
		c-9.359,0.016-16.926,7.598-16.944,16.972c0,1.612,0.225,3.169,0.643,4.645l2.56-0.668c-0.372-1.293-0.56-2.631-0.559-3.977
		c0-7.911,6.402-14.324,14.301-14.324c7.896,0,14.299,6.413,14.299,14.324c0,6.832-4.774,12.546-11.163,13.979l0.557,2.588
		C41.507,78.88,47.175,72.104,47.175,64.001"/>
	<path style="fill-rule:evenodd;clip-rule:evenodd;fill:#FFFFFF;" d="M24.065,54.323c1.841-1.179,3.981-1.804,6.167-1.801
		c2.27,0,4.386,0.661,6.166,1.801l1.506-2.178c-2.282-1.487-4.948-2.277-7.672-2.272c-2.723-0.004-5.389,0.786-7.671,2.272
		L24.065,54.323"/>
	<path style="fill-rule:evenodd;clip-rule:evenodd;fill:#FFFFFF;" d="M36.086,45.065c-1.864-0.576-3.803-0.873-5.755-0.881v2.648
		c9.388,0.054,16.988,7.666,17.04,17.071h2.644C49.973,55.041,44.124,47.556,36.086,45.065"/>
	<path style="fill-rule:evenodd;clip-rule:evenodd;fill:#FFFFFF;" d="M30.134,80.972v-2.648c-3.072-0.015-6.056-1.027-8.504-2.882
		l-1.89,1.884C22.698,79.673,26.358,80.957,30.134,80.972"/>
	<path style="fill-rule:evenodd;clip-rule:evenodd;fill:#FFFFFF;" d="M30.233,75.284c3.959,0,7.439-2.045,9.449-5.14l-2.287-1.34
		c-1.547,2.309-4.179,3.832-7.162,3.832c-2.984,0-5.615-1.522-7.161-3.828l-2.252,1.39C22.833,73.26,26.297,75.284,30.233,75.284"/>
	<path style="fill-rule:evenodd;clip-rule:evenodd;fill:#FFFFFF;" d="M55.894,64.099C55.84,78.218,44.425,89.653,30.331,89.705
		v2.648c7.777-0.025,14.815-3.192,19.915-8.304c5.103-5.109,8.265-12.16,8.292-19.949H55.894"/>
	<path style="fill-rule:evenodd;clip-rule:evenodd;fill:#FFFFFF;" d="M35.488,83.316l0.802,2.527c1.076-0.3,2.128-0.679,3.147-1.135
		l-1.007-2.449C37.479,82.687,36.495,83.041,35.488,83.316 M40.618,81.102l1.304,2.305c1.364-0.826,2.637-1.794,3.797-2.888
		l-1.909-1.835C42.83,79.595,41.761,80.405,40.618,81.102"/>
	<path style="fill-rule:evenodd;clip-rule:evenodd;fill:#FFFFFF;" d="M48.133,45.859l-1.875,1.867
		c4.356,4.294,6.805,10.159,6.796,16.276c0,0.803-0.042,1.594-0.122,2.376l2.625,0.319c0.092-0.886,0.14-1.786,0.14-2.696
		C55.696,56.903,52.804,50.483,48.133,45.859"/>
	<path style="fill-rule:evenodd;clip-rule:evenodd;fill:#FFFFFF;" d="M44.106,49.598l1.871-1.871
		c-2.519-2.45-5.574-4.278-8.924-5.34l-0.815,2.519C39.19,45.839,41.883,47.445,44.106,49.598"/>
	<path style="fill-rule:evenodd;clip-rule:evenodd;fill:#FFFFFF;" d="M112.52,72.596h-4.821l-1.565-4.059h-8.035l-1.438,4.059
		h-4.742l7.341-19.483h5.188L112.52,72.596z M101.918,57.709l-2.633,7.471h5.532L101.918,57.709L101.918,57.709z M30.345,72.411
		c-6.586,0-10.3-4.962-10.3-9.869c0-4.653,3.53-9.869,10.299-9.869c6.77,0,10.273,5.244,10.273,9.869
		C40.618,67.475,36.798,72.411,30.345,72.411 M30.345,56.678c-3.424,0-5.69,2.34-5.69,5.865c0,3.524,2.266,5.864,5.689,5.864
		c3.398,0,5.664-2.34,5.664-5.864C36.008,59.018,33.743,56.678,30.345,56.678 M17.516,70.493c-2.502,1.382-4.399,1.918-7.059,1.918
		C3.476,72.411,0,67.56,0,62.598c0-5.132,3.924-9.924,10.8-9.924c2.503,0,4.741,0.564,6.506,1.692v4.285
		c-1.976-1.184-3.977-1.974-6.19-1.974c-3.82,0-6.506,2.426-6.506,5.836c0,3.439,2.661,5.893,6.401,5.893
		c2.344,0,3.925-0.789,6.506-2.116L17.516,70.493 M61.797,72.411h-3.569L48.099,59.835v12.576h-4.479V52.926h4.11l9.588,11.758
		V52.926h4.478V72.411 M116.436,63.162l-7.086-10.235h5.426l3.899,6.035l3.926-6.035H128l-7.087,10.235v9.248h-4.477L116.436,63.162
		 M73.36,72.411h-1.923l-7.901-19.485h4.742l4.241,10.63l4.608-10.63h3.61l4.61,10.63l4.212-10.63h4.743l-7.876,19.485h-1.923
		l-5.585-12.547L73.36,72.411"/>
</g>
</svg>
