<?xml version="1.0" encoding="iso-8859-1"?>
<!-- Generator: Adobe Illustrator 27.7.0, SVG Export Plug-In . SVG Version: 6.00 Build 0)  -->
<svg version="1.1" id="Layer_1" xmlns="http://www.w3.org/2000/svg" xmlns:xlink="http://www.w3.org/1999/xlink" x="0px" y="0px"
	 viewBox="0 0 128 128" style="enable-background:new 0 0 128 128;" xml:space="preserve">
<g>
	<g id="g64648" transform="matrix(12.705074,0,0,-12.705074,422.51771,364.13208)">
		<path id="path64650" style="fill:#007A45;" d="M-32.681,23.385c0-0.243,0.152-0.25,0.399-0.254
			c0.609-0.005,0.986,0.397,0.986,0.999c0,0.694-0.339,1.093-1.046,1.093c-0.238,0-0.339-0.028-0.339-0.237V23.385z M-33.235,25.271
			c0.33,0.004,0.659,0.019,0.992,0.019c0.989,0,1.303-0.525,1.303-1.128c0-0.729-0.466-1.097-1.369-1.097
			c-0.308,0-0.615,0.022-0.919,0.018v0.067c0.152,0,0.228,0.017,0.228,0.178v1.699c0,0.161-0.114,0.178-0.235,0.178V25.271"/>
	</g>
	<g id="g64652" transform="matrix(12.705074,0,0,-12.705074,713.84506,397.41938)">
		<path id="path64654" style="fill:#007A45;" d="M-52.673,25.669v0.222c-0.121-0.136-0.301-0.222-0.485-0.222
			c-0.333,0-0.406,0.161-0.406,0.393v0.869c0,0.063-0.038,0.079-0.187,0.082v0.06h0.437V25.98c0-0.163,0.14-0.204,0.285-0.204
			c0.238,0,0.355,0.168,0.358,0.391v0.764c0,0.063-0.038,0.079-0.184,0.082v0.06h0.434v-1.08c0-0.14,0.111-0.14,0.168-0.14v-0.041
			L-52.673,25.669"/>
	</g>
	<g id="g64656" transform="matrix(12.705074,0,0,-12.705074,766.93957,393.98901)">
		<path id="path64658" style="fill:#007A45;" d="M-56.316,25.434v0.06c0.143,0.01,0.184,0.01,0.184,0.174v0.787
			c0,0.12-0.044,0.168-0.155,0.2v0.035c0.143,0.041,0.269,0.099,0.406,0.149v-0.241c0.13,0.133,0.231,0.241,0.431,0.241
			c0.228,0,0.463-0.181,0.463-0.418v-0.752c0-0.164,0.086-0.164,0.193-0.174v-0.06h-0.628v0.06c0.143,0.01,0.184,0.01,0.184,0.174
			v0.698c0,0.2-0.111,0.333-0.317,0.333c-0.136,0-0.326-0.133-0.326-0.279v-0.752c0-0.164,0.041-0.164,0.177-0.174v-0.06H-56.316"/>
	</g>
	<g id="g64660" transform="matrix(12.705074,0,0,-12.705074,1033.149,305.56169)">
		<path id="path64662" style="fill:#007A45;" d="M-74.585,19.365c0,0.398-0.279,0.452-0.377,0.452c-0.33,0-0.422-0.345-0.422-0.611
			c0-0.539,0.323-0.637,0.46-0.637c0.133,0,0.25,0.069,0.339,0.164V19.365z M-74.585,20.281c0,0.073,0.003,0.145-0.079,0.183
			c-0.041,0.019-0.073,0.022-0.117,0.022v0.029c0.152,0.054,0.295,0.123,0.447,0.174v-2.058l0.165-0.05v-0.023l-0.415-0.12v0.219
			h-0.006c-0.108-0.142-0.254-0.219-0.437-0.219c-0.393,0-0.612,0.34-0.612,0.703c0,0.422,0.254,0.735,0.688,0.735
			c0.127,0,0.25-0.041,0.368-0.097V20.281"/>
	</g>
	<g id="g64664" transform="matrix(12.705074,0,0,-12.705074,1177.4151,294.63532)">
		<path id="path64666" style="fill:#007A45;" d="M-84.485,18.616c-0.013,0.181-0.083,0.336-0.289,0.336s-0.307-0.161-0.368-0.336
			H-84.485z M-85.163,18.543c-0.009-0.06-0.016-0.12-0.016-0.181c0-0.332,0.225-0.574,0.561-0.574c0.206,0,0.4,0.124,0.479,0.314
			l0.054-0.015c-0.101-0.299-0.32-0.507-0.647-0.507c-0.428,0-0.688,0.292-0.688,0.72c0,0.381,0.285,0.719,0.678,0.719
			c0.314,0,0.567-0.158,0.64-0.475H-85.163"/>
	</g>
	<g id="g64668" transform="matrix(12.705074,0,0,-12.705074,1318.8607,294.63532)">
		<path id="path64670" style="fill:#007A45;" d="M-94.191,18.616c-0.013,0.181-0.082,0.336-0.289,0.336
			c-0.206,0-0.307-0.161-0.368-0.336H-94.191z M-94.87,18.543c-0.009-0.06-0.016-0.12-0.016-0.181c0-0.332,0.225-0.574,0.561-0.574
			c0.206,0,0.4,0.124,0.479,0.314l0.054-0.015c-0.101-0.299-0.32-0.507-0.647-0.507c-0.428,0-0.688,0.292-0.688,0.72
			c0,0.381,0.285,0.719,0.678,0.719c0.314,0,0.567-0.158,0.64-0.475H-94.87"/>
	</g>
	<g id="g64672" transform="matrix(12.705074,0,0,-12.705074,803.89863,53.747113)">
		<path id="path64674" style="fill:#007A45;" d="M-58.853,2.085c-0.167-0.021-0.281-0.109-0.203-0.286
			c0.136-0.306-0.158-0.327-0.282-0.305c-0.124,0.023-0.204,0.127-0.553-0.05c-0.378-0.192-0.305-0.457-0.892-0.209
			c-0.587,0.249-1.837,0.04-1.837,0.04s1.145,0.272,1.798,0.101c0.544-0.142,0.559-0.178,0.726-0.001
			c0.177,0.187,0.152,0.226,0.485,0.249c0.333,0.022,0.418,0.226,0.429,0.282c0.01,0.051,0.091,0.185,0.337,0.223l0.041,0.008
			l0.058,0.01l0.001,0.024l0.018,0.012l0,0.053l0.023,0.014l0.016,0.136h0.021l0.013-0.136l0.021-0.013l-0.001-0.054l0.02-0.006
			V2.162l0.057-0.004c0.163,0.017,0.443,0.021,0.6-0.091c0.101-0.072,0.104-0.269,0.217-0.36c0.113-0.09,0.395,0.006,0.553-0.078
			c0.158-0.086,0.322-0.429,0.632-0.429c0.311,0,0.333,0.073,0.581-0.119s0.536-0.406,0.954-0.333
			c0.467,0.082,0.677-0.152,0.926-0.219c0.248-0.068,0.689-0.046,0.751,0.056c0,0-0.096-0.355-0.796-0.243
			c-0.706,0.113-0.284,0.464-0.988,0.322c-0.92-0.186-0.897,0.316-1.129,0.446c-0.232,0.131-0.206-0.068-0.531-0.017
			c-0.322,0.051-0.35,0.272-0.457,0.39c-0.231,0.255-0.342,0.059-0.581,0.124c-0.226,0.062,0.038,0.63-0.855,0.506L-58.853,2.085"/>
	</g>
	<g id="g64676" transform="matrix(12.705074,0,0,-12.705074,855.43041,49.046236)">
		<path id="path64678" style="fill:#007A45;" d="M-62.389,1.762l-0.006,0.587l-0.008-0.582"/>
	</g>
	<g id="g64680" transform="matrix(12.705074,0,0,-12.705074,846.00325,412.15726)">
		<path id="path64682" style="fill:#0060A9;" d="M-61.742,26.68h0.015v-0.222h-0.017c-0.016,0.124-0.098,0.231-0.231,0.231
			c-0.088,0-0.164-0.064-0.201-0.14c-0.027-0.055-0.035-0.129-0.035-0.19c0-0.083,0.016-0.138,0.06-0.209
			c0.033-0.056,0.096-0.1,0.17-0.1c0.133,0,0.216,0.097,0.239,0.217h0.018v-0.213h-0.02L-61.77,26.1
			c-0.064-0.042-0.135-0.069-0.213-0.069c-0.206,0-0.334,0.128-0.334,0.334c0,0.2,0.143,0.343,0.342,0.343
			c0.077,0,0.139-0.028,0.203-0.069L-61.742,26.68"/>
	</g>
	<g id="g64684" transform="matrix(12.705074,0,0,-12.705074,866.26784,414.06302)">
		<path id="path64686" style="fill:#0060A9;" d="M-63.133,26.811c0-0.026-0.019-0.05-0.046-0.05c-0.027,0-0.05,0.023-0.05,0.05
			c0,0.026,0.023,0.047,0.05,0.047C-63.153,26.859-63.133,26.834-63.133,26.811z M-63.267,26.194v0.019
			c0.043,0.003,0.055,0.003,0.055,0.051v0.229c0,0.019,0,0.046-0.017,0.058c-0.012,0.006-0.021,0.008-0.034,0.009v0.01
			c0.041,0.017,0.084,0.033,0.127,0.05v-0.356c0-0.049,0.012-0.049,0.052-0.051v-0.019H-63.267"/>
	</g>
	<g id="g64688" transform="matrix(12.705074,0,0,-12.705074,885.96071,439.21907)">
		<path id="path64690" style="fill:#0060A9;" d="M-64.484,28.537v-0.251c0-0.047,0.013-0.076,0.066-0.076
			c0.026,0,0.056,0.022,0.077,0.035c0.019-0.009-0.003-0.023-0.012-0.032c-0.026-0.031-0.068-0.05-0.107-0.05
			c-0.068,0-0.097,0.051-0.097,0.114v0.26h-0.05v0.009c0.04,0.038,0.084,0.074,0.121,0.115h0.002v-0.077h0.141l-0.023-0.047H-64.484
			"/>
	</g>
	<g id="g64692" transform="matrix(12.705074,0,0,-12.705074,897.81454,434.51819)">
		<path id="path64694" style="fill:#0060A9;" d="M-65.297,28.215h0.206v-0.018c-0.019,0-0.07,0-0.07-0.027
			c0-0.003,0.004-0.014,0.011-0.028l0.13-0.242l0.076,0.219c0.007,0.021,0.011,0.037,0.011,0.047c0,0.031-0.043,0.029-0.068,0.031
			v0.018h0.161v-0.018c-0.046,0-0.058-0.017-0.072-0.058l-0.153-0.439c-0.016-0.045-0.036-0.1-0.09-0.1
			c-0.021,0-0.036,0.018-0.036,0.038c0,0.022,0.013,0.037,0.036,0.038l0.03-0.006c0.027-0.003,0.038,0.027,0.045,0.046l0.029,0.095
			l-0.185,0.336c-0.024,0.041-0.017,0.042-0.062,0.05V28.215"/>
	</g>
	<g id="g64696" transform="matrix(12.705074,0,0,-12.705074,1023.544,412.15726)">
		<path id="path64698" style="fill:#0060A9;" d="M-73.925,26.68h0.015v-0.222h-0.017c-0.016,0.124-0.098,0.231-0.231,0.231
			c-0.087,0-0.163-0.064-0.201-0.14c-0.027-0.055-0.035-0.129-0.035-0.19c0-0.083,0.016-0.138,0.06-0.209
			c0.033-0.056,0.096-0.1,0.17-0.1c0.133,0,0.216,0.097,0.239,0.217h0.018v-0.213h-0.02l-0.027,0.045
			c-0.064-0.042-0.135-0.069-0.213-0.069c-0.207,0-0.334,0.128-0.334,0.334c0,0.2,0.143,0.343,0.342,0.343
			c0.077,0,0.139-0.028,0.203-0.069L-73.925,26.68"/>
	</g>
	<g id="g64700" transform="matrix(12.705074,0,0,-12.705074,1050.0213,435.2805)">
		<path id="path64702" style="fill:#0060A9;" d="M-75.742,28.267c-0.088,0-0.121-0.1-0.121-0.197c0-0.097,0.032-0.199,0.121-0.199
			c0.088,0,0.121,0.101,0.121,0.199C-75.622,28.167-75.654,28.267-75.742,28.267z M-75.742,27.853c-0.122,0-0.202,0.096-0.202,0.217
			c0,0.119,0.08,0.215,0.202,0.215c0.122,0,0.202-0.096,0.202-0.215C-75.541,27.949-75.621,27.853-75.742,27.853"/>
	</g>
	<g id="g64704" transform="matrix(12.705074,0,0,-12.705074,1104.5261,476.31789)">
		<path id="path64706" style="fill:#0060A9;" d="M-79.483,31.083v0.067c-0.036-0.041-0.09-0.067-0.146-0.067
			c-0.1,0-0.122,0.049-0.122,0.118v0.261c0,0.019-0.011,0.023-0.056,0.024v0.018h0.131v-0.328c0-0.049,0.042-0.062,0.086-0.062
			c0.071,0,0.106,0.051,0.107,0.118v0.229c0,0.019-0.012,0.023-0.055,0.024v0.018h0.13v-0.324c0-0.042,0.033-0.042,0.05-0.042
			v-0.012L-79.483,31.083"/>
	</g>
	<g id="g64708" transform="matrix(12.705074,0,0,-12.705074,1120.4456,475.30148)">
		<path id="path64710" style="fill:#0060A9;" d="M-80.575,31.014v0.019c0.043,0.003,0.055,0.003,0.055,0.051v0.237
			c0,0.036-0.013,0.05-0.047,0.059v0.01c0.043,0.013,0.081,0.029,0.122,0.045v-0.072c0.039,0.04,0.069,0.072,0.129,0.072
			c0.069,0,0.139-0.054,0.139-0.126v-0.226c0-0.049,0.026-0.049,0.058-0.051v-0.019h-0.188v0.019
			c0.043,0.003,0.055,0.003,0.055,0.051v0.21c0,0.059-0.033,0.1-0.095,0.1c-0.041,0-0.098-0.041-0.098-0.085v-0.226
			c0-0.049,0.012-0.049,0.053-0.051v-0.019H-80.575"/>
	</g>
	<g id="g64712" transform="matrix(12.705074,0,0,-12.705074,1203.4351,462.85051)">
		<path id="path64714" style="fill:#0060A9;" d="M-86.27,30.159c-0.034-0.081-0.083-0.136-0.176-0.136
			c-0.127,0-0.19,0.109-0.19,0.224c0,0.113,0.091,0.208,0.204,0.208c0.053,0,0.155-0.031,0.155-0.097c0-0.023-0.011-0.04-0.035-0.04
			c-0.066,0-0.013,0.119-0.119,0.119c-0.094,0-0.124-0.105-0.124-0.182c0-0.087,0.044-0.182,0.143-0.182
			c0.059,0,0.105,0.04,0.129,0.09L-86.27,30.159"/>
	</g>
	<g id="g64716" transform="matrix(12.705074,0,0,-12.705074,1218.7955,414.06302)">
		<path id="path64718" style="fill:#0060A9;" d="M-87.324,26.811c0-0.026-0.019-0.05-0.046-0.05c-0.027,0-0.049,0.023-0.049,0.05
			c0,0.026,0.023,0.047,0.049,0.047C-87.345,26.859-87.324,26.834-87.324,26.811z M-87.459,26.194v0.019
			c0.043,0.003,0.055,0.003,0.055,0.051v0.229c0,0.019,0,0.046-0.017,0.058c-0.013,0.006-0.021,0.008-0.034,0.009v0.01
			c0.041,0.017,0.084,0.033,0.127,0.05v-0.356c0-0.049,0.012-0.049,0.052-0.051v-0.019H-87.459"/>
	</g>
	<g id="g64720" transform="matrix(12.705074,0,0,-12.705074,1239.8987,468.31369)">
		<path id="path64722" style="fill:#0060A9;" d="M-88.773,30.534c0-0.049,0.012-0.049,0.052-0.051v-0.019h-0.183v0.019
			c0.043,0.003,0.055,0.003,0.055,0.051v0.465c0,0.024,0,0.047-0.013,0.06c-0.009,0.008-0.021,0.013-0.041,0.014v0.012
			c0.045,0.012,0.088,0.031,0.129,0.044V30.534"/>
	</g>
	<g id="g64816" transform="matrix(12.705074,0,0,-12.705074,855.95132,620.26638)">
		<path id="path64818" style="fill:#0060A9;" d="M-57.993,41.483c0,0-4.478-0.058-3.364,0.265c0.252,0.073,1.245,0.31,0.414,0.323
			c-1.177,0.017-4.901-0.05-5.141,0.085c-0.564,0.316,3.109,0.639-1.288,0.615l0.011-0.006l0.008-2.507h10.055v1.226H-57.993"/>
	</g>
</g>
</svg>
