<?xml version="1.0" encoding="iso-8859-1"?>
<!-- Generator: Adobe Illustrator 27.8.1, SVG Export Plug-In . SVG Version: 6.00 Build 0)  -->
<svg version="1.1" id="Layer_1" xmlns="http://www.w3.org/2000/svg" xmlns:xlink="http://www.w3.org/1999/xlink" x="0px" y="0px"
	 viewBox="0 0 128 128" style="enable-background:new 0 0 128 128;" xml:space="preserve">
<g>
	<g>
		<path style="fill:#FFFFFF;" d="M107.861,57.529l-7.332-18.33c-0.278-0.696-0.952-1.153-1.702-1.153H68.93l-3.097-4.264v-3.068
			h14.664c0.675-0.001,1.296-0.374,1.614-0.97c0.318-0.596,0.283-1.318-0.093-1.88l-2.988-4.482l2.992-4.481
			c0.375-0.563,0.41-1.286,0.091-1.882c-0.319-0.596-0.94-0.968-1.616-0.968H65.833v-1.833h-3.666v3.666v10.998v4.901l-3.097,4.264
			H29.173c-0.75-0.001-1.424,0.456-1.702,1.153l-7.332,18.33c-0.225,0.565-0.156,1.205,0.185,1.708
			c0.341,0.503,0.91,0.805,1.518,0.805h5.499v38.493c0,1.012,0.82,1.833,1.833,1.833h23.829h21.996h23.829
			c1.012,0,1.833-0.82,1.833-1.833V60.042h5.499c0.608,0,1.177-0.301,1.518-0.805C108.018,58.734,108.087,58.093,107.861,57.529z
			 M77.073,19.716l-1.767,2.649c-0.411,0.616-0.411,1.418,0,2.035l1.767,2.649h-11.24v-7.332H77.073z M30.414,41.712h25.994
			L45.76,56.376H24.549L30.414,41.712z M74.998,78.371H53.002v-3.666h21.996V78.371z M54.835,82.038h7.331v14.664h-7.331V82.038z
			 M65.833,96.701V82.038h7.331v14.664H65.833z M96.994,96.701H76.831V82.038c1.012,0,1.833-0.821,1.833-1.833v-7.332
			c0-1.012-0.82-1.833-1.833-1.833H51.169c-1.012,0-1.833,0.82-1.833,1.833v7.332c0,1.012,0.82,1.833,1.833,1.833v14.664H31.006
			V60.042h12.091l-1.879,2.588l2.967,2.156L64,37.496l19.815,27.29l2.967-2.156l-1.879-2.588h12.091V96.701z M82.33,56.376v0.124
			L71.592,41.712h25.994l5.865,14.664H82.33z"/>
		<path style="fill:#FFFFFF;" d="M64,49.044c-4.049,0-7.332,3.282-7.332,7.331c0,4.05,3.283,7.332,7.332,7.332
			s7.332-3.282,7.332-7.332C71.332,52.326,68.049,49.044,64,49.044z M64,60.042c-2.025,0-3.666-1.641-3.666-3.666
			c0-2.024,1.641-3.666,3.666-3.666c2.025,0,3.666,1.641,3.666,3.666C67.666,58.401,66.025,60.042,64,60.042z"/>
		<path style="fill:#FFFFFF;" d="M43.837,82.038h-7.332c-1.012,0-1.833,0.82-1.833,1.833v7.332c0,1.012,0.821,1.833,1.833,1.833
			h7.332c1.012,0,1.833-0.821,1.833-1.833V83.87C45.67,82.858,44.85,82.038,43.837,82.038z M42.004,89.369h-3.666v-3.666h3.666
			V89.369z"/>
		<path style="fill:#FFFFFF;" d="M43.837,67.373h-7.332c-1.012,0-1.833,0.821-1.833,1.833v7.332c0,1.012,0.821,1.832,1.833,1.832
			h7.332c1.012,0,1.833-0.82,1.833-1.832v-7.332C45.67,68.194,44.85,67.373,43.837,67.373z M42.004,74.706h-3.666V71.04h3.666
			V74.706z"/>
		<path style="fill:#FFFFFF;" d="M91.495,82.038h-7.332c-1.012,0-1.833,0.82-1.833,1.833v7.332c0,1.012,0.82,1.833,1.833,1.833
			h7.332c1.012,0,1.833-0.821,1.833-1.833V83.87C93.328,82.858,92.507,82.038,91.495,82.038z M89.661,89.369h-3.666v-3.666h3.666
			V89.369z"/>
		<path style="fill:#FFFFFF;" d="M82.33,69.207v7.332c0,1.012,0.82,1.832,1.833,1.832h7.332c1.012,0,1.833-0.82,1.833-1.832v-7.332
			c0-1.012-0.821-1.833-1.833-1.833h-7.332C83.15,67.373,82.33,68.194,82.33,69.207z M85.996,71.04h3.666v3.666h-3.666V71.04z"/>
	</g>
	<path style="fill:#FFFFFF;" d="M63.975,128C99.01,128,128,99.01,128,64.025C128,28.99,98.961,0,63.926,0C28.941,0,0,28.99,0,64.025
		C0,99.01,28.99,128,63.975,128z M63.976,120c-14.784,0-28.794-5.869-39.451-16.525C13.869,92.818,8,78.808,8,64.024
		c0-14.81,5.862-28.837,16.505-39.498C35.146,13.869,49.146,8,63.926,8c14.812,0,28.847,5.872,39.521,16.534
		C114.121,35.197,120,49.222,120,64.024c0,14.785-5.87,28.795-16.529,39.449C92.808,114.131,78.781,120,63.976,120z"/>
</g>
<g>
	<g>
		<path style="fill:#81CBEB;" d="M107.861,57.529l-7.332-18.33c-0.278-0.696-0.952-1.153-1.702-1.153H68.93l-3.097-4.264v-3.068
			h14.664c0.675-0.001,1.296-0.374,1.614-0.97c0.318-0.596,0.283-1.318-0.093-1.88l-2.988-4.482l2.992-4.481
			c0.375-0.563,0.41-1.286,0.091-1.882c-0.319-0.596-0.94-0.968-1.616-0.968H65.833v-1.833h-3.666v3.666v10.998v4.901l-3.097,4.264
			H29.173c-0.75-0.001-1.424,0.456-1.702,1.153l-7.332,18.33c-0.225,0.565-0.156,1.205,0.185,1.708
			c0.341,0.503,0.91,0.805,1.518,0.805h5.499v38.493c0,1.012,0.82,1.833,1.833,1.833h23.829h21.996h23.829
			c1.012,0,1.833-0.82,1.833-1.833V60.042h5.499c0.608,0,1.177-0.301,1.518-0.805C108.018,58.734,108.087,58.093,107.861,57.529z
			 M77.073,19.716l-1.767,2.649c-0.411,0.616-0.411,1.418,0,2.035l1.767,2.649h-11.24v-7.332H77.073z M30.414,41.712h25.994
			L45.76,56.376H24.549L30.414,41.712z M74.998,78.371H53.002v-3.666h21.996V78.371z M54.835,82.038h7.331v14.664h-7.331V82.038z
			 M65.833,96.701V82.038h7.331v14.664H65.833z M96.994,96.701H76.831V82.038c1.012,0,1.833-0.821,1.833-1.833v-7.332
			c0-1.012-0.82-1.833-1.833-1.833H51.169c-1.012,0-1.833,0.82-1.833,1.833v7.332c0,1.012,0.82,1.833,1.833,1.833v14.664H31.006
			V60.042h12.091l-1.879,2.588l2.967,2.156L64,37.496l19.815,27.29l2.967-2.156l-1.879-2.588h12.091V96.701z M82.33,56.376v0.124
			L71.592,41.712h25.994l5.865,14.664H82.33z"/>
		<path style="fill:#81CBEB;" d="M64,49.044c-4.049,0-7.332,3.282-7.332,7.331c0,4.05,3.283,7.332,7.332,7.332
			s7.332-3.282,7.332-7.332C71.332,52.326,68.049,49.044,64,49.044z M64,60.042c-2.025,0-3.666-1.641-3.666-3.666
			c0-2.024,1.641-3.666,3.666-3.666c2.025,0,3.666,1.641,3.666,3.666C67.666,58.401,66.025,60.042,64,60.042z"/>
		<path style="fill:#81CBEB;" d="M43.837,82.038h-7.332c-1.012,0-1.833,0.82-1.833,1.833v7.332c0,1.012,0.821,1.833,1.833,1.833
			h7.332c1.012,0,1.833-0.821,1.833-1.833V83.87C45.67,82.858,44.85,82.038,43.837,82.038z M42.004,89.369h-3.666v-3.666h3.666
			V89.369z"/>
		<path style="fill:#81CBEB;" d="M43.837,67.373h-7.332c-1.012,0-1.833,0.821-1.833,1.833v7.332c0,1.012,0.821,1.832,1.833,1.832
			h7.332c1.012,0,1.833-0.82,1.833-1.832v-7.332C45.67,68.194,44.85,67.373,43.837,67.373z M42.004,74.706h-3.666V71.04h3.666
			V74.706z"/>
		<path style="fill:#81CBEB;" d="M91.495,82.038h-7.332c-1.012,0-1.833,0.82-1.833,1.833v7.332c0,1.012,0.82,1.833,1.833,1.833
			h7.332c1.012,0,1.833-0.821,1.833-1.833V83.87C93.328,82.858,92.507,82.038,91.495,82.038z M89.661,89.369h-3.666v-3.666h3.666
			V89.369z"/>
		<path style="fill:#81CBEB;" d="M82.33,69.207v7.332c0,1.012,0.82,1.832,1.833,1.832h7.332c1.012,0,1.833-0.82,1.833-1.832v-7.332
			c0-1.012-0.821-1.833-1.833-1.833h-7.332C83.15,67.373,82.33,68.194,82.33,69.207z M85.996,71.04h3.666v3.666h-3.666V71.04z"/>
	</g>
	<path style="fill:#81CBEB;" d="M63.975,128C99.01,128,128,99.01,128,64.025C128,28.99,98.961,0,63.926,0C28.941,0,0,28.99,0,64.025
		C0,99.01,28.99,128,63.975,128z M63.976,120c-14.784,0-28.794-5.869-39.451-16.525C13.869,92.818,8,78.808,8,64.024
		c0-14.81,5.862-28.837,16.505-39.498C35.146,13.869,49.146,8,63.926,8c14.812,0,28.847,5.872,39.521,16.534
		C114.121,35.197,120,49.222,120,64.024c0,14.785-5.87,28.795-16.529,39.449C92.808,114.131,78.781,120,63.976,120z"/>
</g>
</svg>
