<?xml version="1.0" encoding="iso-8859-1"?>
<!-- Generator: Adobe Illustrator 27.7.0, SVG Export Plug-In . SVG Version: 6.00 Build 0)  -->
<svg version="1.1" id="Layer_1" xmlns="http://www.w3.org/2000/svg" xmlns:xlink="http://www.w3.org/1999/xlink" x="0px" y="0px"
	 viewBox="0 0 128 128" style="enable-background:new 0 0 128 128;" xml:space="preserve">
<g>
	<path style="fill:#7DAF54;" d="M52.88,40.234h-7.806v-9.617h-2.4v9.617H24.093v-9.617h-2.4v9.617h-7.212
		c-3.135,0-5.7,2.565-5.7,5.7v76.163c0,3.135,2.565,5.7,5.7,5.7H52.88c3.135,0,5.7-2.565,5.7-5.7V45.933
		C58.579,42.799,56.014,40.234,52.88,40.234L52.88,40.234z M56.179,122.096c0,1.821-1.479,3.3-3.3,3.3H14.482
		c-1.821,0-3.3-1.479-3.3-3.3V45.933c0-1.821,1.479-3.3,3.3-3.3H52.88c1.821,0,3.3,1.479,3.3,3.3V122.096z"/>
	<polygon style="fill:#7DAF54;" points="42.506,64.259 34.713,64.259 34.713,56.463 32.304,56.463 32.304,64.259 24.507,64.259 
		24.507,66.665 32.304,66.665 32.304,74.462 34.713,74.462 34.713,66.665 42.506,66.665 	"/>
	<rect x="24.507" y="108.051" style="fill:#7DAF54;" width="17.999" height="2.409"/>
	<path style="fill:#7DAF54;" d="M103.157,29.953c-1.467-0.414-1.476-3.78-1.479-5.217c0-0.174,0-0.336,0-0.48
		c-0.009-0.63,0-1.788,0.018-2.853h15.101c0.015,1.065,0.024,2.223,0.018,2.853c0,0.144,0,0.306,0,0.48
		c-0.003,1.437-0.012,4.806-1.479,5.217c-1.899,0.534-4.848,0.642-6.087,0.642c-1.239,0-4.188-0.108-6.087-0.642H103.157z
		 M119.155,19.001h-4.743v-7.05h-2.4v7.05h-5.769v-7.05h-2.4v7.05h-4.512c0,0-0.072,3.873-0.054,5.283
		c0.024,1.947-0.225,7.005,3.231,7.98c2.241,0.633,4.467,0.693,5.538,0.732l0,0v78.353c0,7.857-6.393,14.249-14.249,14.249
		s-14.249-6.393-14.249-14.249v-92.26C79.548,8.547,71.296,0,61.114,0S42.68,8.547,42.68,19.088v4.011h2.4v-4.095l0,0
		c0-9.17,7.179-16.601,16.034-16.601s16.034,7.434,16.034,16.601l0,0v92.347c0,9.194,7.455,16.649,16.649,16.649
		s16.649-7.455,16.649-16.649V32.995c1.071-0.039,3.294-0.102,5.538-0.732c3.456-0.972,3.204-6.033,3.231-7.98
		c0.018-1.41-0.054-5.283-0.054-5.283L119.155,19.001z"/>
</g>
<g style="opacity:0.6;">
	<path style="fill:#FFFFFF;" d="M52.88,40.234h-7.806v-9.617h-2.4v9.617H24.093v-9.617h-2.4v9.617h-7.212
		c-3.135,0-5.7,2.565-5.7,5.7v76.163c0,3.135,2.565,5.7,5.7,5.7H52.88c3.135,0,5.7-2.565,5.7-5.7V45.933
		C58.579,42.799,56.014,40.234,52.88,40.234L52.88,40.234z M56.179,122.096c0,1.821-1.479,3.3-3.3,3.3H14.482
		c-1.821,0-3.3-1.479-3.3-3.3V45.933c0-1.821,1.479-3.3,3.3-3.3H52.88c1.821,0,3.3,1.479,3.3,3.3V122.096z"/>
	<polygon style="fill:#FFFFFF;" points="42.506,64.259 34.713,64.259 34.713,56.463 32.304,56.463 32.304,64.259 24.507,64.259 
		24.507,66.665 32.304,66.665 32.304,74.462 34.713,74.462 34.713,66.665 42.506,66.665 	"/>
	<rect x="24.507" y="108.051" style="fill:#FFFFFF;" width="17.999" height="2.409"/>
	<path style="fill:#FFFFFF;" d="M103.157,29.953c-1.467-0.414-1.476-3.78-1.479-5.217c0-0.174,0-0.336,0-0.48
		c-0.009-0.63,0-1.788,0.018-2.853h15.101c0.015,1.065,0.024,2.223,0.018,2.853c0,0.144,0,0.306,0,0.48
		c-0.003,1.437-0.012,4.806-1.479,5.217c-1.899,0.534-4.848,0.642-6.087,0.642c-1.239,0-4.188-0.108-6.087-0.642H103.157z
		 M119.155,19.001h-4.743v-7.05h-2.4v7.05h-5.769v-7.05h-2.4v7.05h-4.512c0,0-0.072,3.873-0.054,5.283
		c0.024,1.947-0.225,7.005,3.231,7.98c2.241,0.633,4.467,0.693,5.538,0.732l0,0v78.353c0,7.857-6.393,14.249-14.249,14.249
		s-14.249-6.393-14.249-14.249v-92.26C79.548,8.547,71.296,0,61.114,0S42.68,8.547,42.68,19.088v4.011h2.4v-4.095l0,0
		c0-9.17,7.179-16.601,16.034-16.601s16.034,7.434,16.034,16.601l0,0v92.347c0,9.194,7.455,16.649,16.649,16.649
		s16.649-7.455,16.649-16.649V32.995c1.071-0.039,3.294-0.102,5.538-0.732c3.456-0.972,3.204-6.033,3.231-7.98
		c0.018-1.41-0.054-5.283-0.054-5.283L119.155,19.001z"/>
</g>
</svg>
