<?xml version="1.0" encoding="iso-8859-1"?>
<!-- Generator: Adobe Illustrator 27.7.0, SVG Export Plug-In . SVG Version: 6.00 Build 0)  -->
<svg version="1.1" id="Layer_1" xmlns="http://www.w3.org/2000/svg" xmlns:xlink="http://www.w3.org/1999/xlink" x="0px" y="0px"
	 viewBox="0 0 512 512" style="enable-background:new 0 0 512 512;" xml:space="preserve">
<path style="fill:#231F20;" d="M256,512L256,512c-100.1,0-182-81.9-182-182V182C74,81.9,155.9,0,256,0h0c100.1,0,182,81.9,182,182
	v148C438,430.1,356.1,512,256,512z"/>
<path style="fill:#787878;" d="M371.81,66.19C343.361,37.742,306.485,21.004,267,18.375V39h-22V18.375
	c-39.485,2.629-76.361,19.366-104.81,47.815C109.114,97.267,92,138.395,92,182v148c0,43.604,17.114,84.733,48.19,115.81
	c23.645,23.645,53.113,39.197,85.061,45.287c8.146-7.343,18.917-11.829,30.749-11.829c11.832,0,22.602,4.485,30.749,11.829
	c31.947-6.09,61.415-21.642,85.061-45.287C402.886,414.733,420,373.604,420,330V182C420,138.395,402.886,97.267,371.81,66.19z"/>
<circle style="fill:#E1E1E1;" cx="171" cy="199.67" r="25.2"/>
<circle style="fill:#E1E1E1;" cx="341" cy="199.67" r="25.2"/>
<circle style="fill:#E1E1E1;" cx="171" cy="322.33" r="25.2"/>
<circle style="fill:#E1E1E1;" cx="256" cy="406.683" r="25.2"/>
<circle style="fill:#E1E1E1;" cx="341" cy="322.33" r="25.2"/>
<circle style="fill:#E1E1E1;" cx="177.491" cy="113.652" r="13.2"/>
<circle style="fill:#E1E1E1;" cx="334.509" cy="113.652" r="13.2"/>
<path style="opacity:0.6;fill:#FFFFFF;" d="M256,512L256,512c-100.1,0-182-81.9-182-182V182C74,81.9,155.9,0,256,0h0
	c100.1,0,182,81.9,182,182v148C438,430.1,356.1,512,256,512z"/>
</svg>
