<?xml version="1.0" encoding="iso-8859-1"?>
<!-- Generator: Adobe Illustrator 27.8.1, SVG Export Plug-In . SVG Version: 6.00 Build 0)  -->
<svg version="1.1" id="Layer_1" xmlns="http://www.w3.org/2000/svg" xmlns:xlink="http://www.w3.org/1999/xlink" x="0px" y="0px"
	 viewBox="0 0 512 512" style="enable-background:new 0 0 512 512;" xml:space="preserve">
<path d="M490.292,277.708C490.292,407.104,385.396,512,256,512S21.708,407.104,21.708,277.708
	c0-118.876,88.538-217.063,203.266-232.244c-1.475-3.764-2.293-7.858-2.293-12.145C222.681,14.917,237.598,0,256,0
	s33.319,14.917,33.319,33.319c0,4.287-0.819,8.381-2.293,12.145C401.754,60.645,490.292,158.832,490.292,277.708z M256,61.648
	c-119.294,0-216,96.706-216,216s96.706,216,216,216s216-96.706,216-216S375.294,61.648,256,61.648z"/>
<circle cx="256" cy="189.372" r="50"/>
<circle cx="160" cy="339.44" r="35"/>
<circle cx="352" cy="339.44" r="35"/>
</svg>
