<?xml version="1.0" encoding="iso-8859-1"?>
<!-- Generator: Adobe Illustrator 27.7.0, SVG Export Plug-In . SVG Version: 6.00 Build 0)  -->
<svg version="1.1" id="Layer_1" xmlns="http://www.w3.org/2000/svg" xmlns:xlink="http://www.w3.org/1999/xlink" x="0px" y="0px"
	 viewBox="0 0 128 128" style="enable-background:new 0 0 128 128;" xml:space="preserve">
<path style="fill:#096F34;" d="M69.179,15.847c-16.984,0-34.545,5.004-48.179,13.728C7.85,37.989,0,48.786,0,58.457
	c0,12.009,13.97,16.696,27.479,21.228c7.223,2.423,14.692,4.929,19.69,8.42c3.093,2.162,6.207,4.661,9.504,7.307
	c10.255,8.231,20.86,16.742,32.873,16.742c16.173,0,38.454-29.764,38.454-51.367C128,33.487,104.911,15.847,69.179,15.847z
	 M122.722,60.786c0,1.972-0.212,4.007-0.594,6.071c-0.556-2.728-1.451-5.441-2.713-8.062c-2.228-4.627-6.786-11.412-15.714-16.971
	c-6.438-9.445-16.838-16.262-30.163-19.552c-1.816-0.448-3.617-0.81-5.408-1.128c0.349-0.004,0.7-0.019,1.049-0.019
	C102.205,21.125,122.722,36.323,122.722,60.786z M58.936,84.31c-1.664-3.232-3.471-6.724-6.523-9.968
	c3.604,0.865,6.88,1.717,9.124,2.665c3.553,1.502,6.814,5.105,10.267,8.92c3.8,4.2,7.915,8.726,13.283,11.667
	c-7.794,2.119-15.062-1.349-19.672-4.511C62.381,91.002,60.785,87.901,58.936,84.31z M18.612,46.788
	c0.275-4.407,3.806-9.61,9.214-13.58c7.183-5.272,16.686-7.986,27.318-7.986c5.465,0,11.231,0.718,17.129,2.174
	c7.268,1.794,13.546,4.733,18.65,8.618c-3.038-0.97-6.363-1.797-10.022-2.427c-31.727-5.463-55.988,6.46-58.757,21.022
	c-0.12,0.634-0.177,1.24-0.197,1.83C19.556,53.967,18.351,50.967,18.612,46.788z M75.718,82.385
	C71.862,78.124,68.22,74.1,63.59,72.144c-3.193-1.349-7.767-2.427-12.609-3.568c-11.138-2.625-25.001-5.891-23.653-12.981
	c1.056-5.552,6.959-10.887,15.79-14.268c10.326-3.954,23.427-4.856,36.886-2.538c8.446,1.455,14.959,3.994,19.977,6.952
	c1.307,2.05,2.403,4.232,3.274,6.535c4.215,11.151,2.679,24.507-3.914,34.026c-2.579,3.723-5.245,6.393-7.916,8.26
	C84.901,92.509,80.245,87.388,75.718,82.385z M103.678,89.309c7.169-10.35,9.145-24.048,5.382-36.346
	c2.747,2.959,4.501,5.84,5.599,8.122c3.795,7.881,3.819,16.659,0.067,23.48c-2.647,4.813-7.587,10.501-16.167,10.905
	C100.347,93.702,102.056,91.651,103.678,89.309z M29.158,74.68c-12.28-4.119-23.879-8.01-23.879-16.224
	c0-5.355,3.406-11.484,9.292-17.18c-0.694,1.738-1.12,3.481-1.226,5.182c-0.849,13.582,10.028,18.305,20.548,22.873
	c2.719,1.18,5.531,2.401,8.164,3.776c7.078,3.693,9.675,8.739,12.187,13.618c0.012,0.024,0.025,0.048,0.037,0.072
	c-1.369-1.051-2.737-2.076-4.088-3.02C44.571,79.85,36.735,77.221,29.158,74.68z M76.908,103.281
	c1.089,0.143,2.203,0.229,3.346,0.229c0.244,0,0.49-0.004,0.736-0.011c4.021-0.119,7.81-1.213,11.351-3.244
	c1.647,0.332,3.385,0.531,5.255,0.531c1.796,0,3.456-0.197,5.014-0.521c-4.593,4.08-9.241,6.61-13.064,6.61
	C85.281,106.875,81.068,105.468,76.908,103.281z"/>
</svg>
