<?xml version="1.0" encoding="iso-8859-1"?>
<!-- Generator: Adobe Illustrator 27.8.0, SVG Export Plug-In . SVG Version: 6.00 Build 0)  -->
<svg version="1.1" id="Layer_1" xmlns="http://www.w3.org/2000/svg" xmlns:xlink="http://www.w3.org/1999/xlink" x="0px" y="0px"
	 viewBox="0 0 128 128" style="enable-background:new 0 0 128 128;" xml:space="preserve">
<linearGradient id="SVGID_1_" gradientUnits="userSpaceOnUse" x1="30.8548" y1="223.5592" x2="114.3635" y2="140.0505" gradientTransform="matrix(1 0 0 1 -14.8076 -112)">
	<stop  offset="0" style="stop-color:#FFBA20"/>
	<stop  offset="0.4" style="stop-color:#FA585F"/>
	<stop  offset="1" style="stop-color:#FF38C6"/>
</linearGradient>
<path style="fill:url(#SVGID_1_);" d="M117.901,46.297c-6.429-6.471-14.694-11.094-23.878-12.018
	c-0.918-8.32-5.51-16.641-11.939-24.036C66.471-5.473,38.001-2.7,19.633,15.79C9.53,25.959,2.183,43.524,0.346,62.014
	c-1.837,20.339,3.674,37.904,15.613,49.922l0,0c11.939,12.018,29.389,17.565,49.593,15.716c18.368-1.849,34.899-8.32,45.92-19.414
	C130.759,90.672,133.514,62.014,117.901,46.297z M102.288,98.993c-15.613,15.716-56.022,23.112-75.309,2.773l0,0
	C6.775,82.352,14.122,41.675,29.735,25.959c12.858-12.943,32.144-15.716,42.246-5.547c3.674,3.698,6.429,9.245,7.347,13.867
	c-7.347,1.849-14.694,5.547-20.205,11.094c-9.184,9.245-11.021,21.263-4.592,27.734l0,0c6.429,6.471,18.368,4.622,27.552-4.622
	c5.51-5.547,9.184-12.943,11.021-20.339c5.51,0.924,10.102,3.698,13.776,7.396C117.901,66.636,115.146,86.05,102.288,98.993z
	 M78.41,49.995c-0.918,3.698-2.755,6.471-5.51,9.245s-5.51,3.698-7.347,3.698c0-1.849,0.918-4.622,3.674-7.396
	C72.9,52.769,75.655,50.92,78.41,49.995z"/>
<path style="opacity:0.6;fill:#FFFFFF;" d="M117.901,46.297c-6.429-6.471-14.694-11.094-23.878-12.018
	c-0.918-8.32-5.51-16.641-11.939-24.036C66.471-5.473,38.001-2.7,19.633,15.79C9.53,25.959,2.183,43.524,0.346,62.014
	c-1.837,20.339,3.674,37.904,15.613,49.922l0,0c11.939,12.018,29.389,17.565,49.593,15.716c18.368-1.849,34.899-8.32,45.92-19.414
	C130.759,90.672,133.514,62.014,117.901,46.297z M102.288,98.993c-15.613,15.716-56.022,23.112-75.309,2.773l0,0
	C6.775,82.352,14.122,41.675,29.735,25.959c12.858-12.943,32.144-15.716,42.246-5.547c3.674,3.698,6.429,9.245,7.347,13.867
	c-7.347,1.849-14.694,5.547-20.205,11.094c-9.184,9.245-11.021,21.263-4.592,27.734l0,0c6.429,6.471,18.368,4.622,27.552-4.622
	c5.51-5.547,9.184-12.943,11.021-20.339c5.51,0.924,10.102,3.698,13.776,7.396C117.901,66.636,115.146,86.05,102.288,98.993z
	 M78.41,49.995c-0.918,3.698-2.755,6.471-5.51,9.245s-5.51,3.698-7.347,3.698c0-1.849,0.918-4.622,3.674-7.396
	C72.9,52.769,75.655,50.92,78.41,49.995z"/>
</svg>
