<?xml version="1.0" encoding="iso-8859-1"?>
<!-- Generator: Adobe Illustrator 27.8.0, SVG Export Plug-In . SVG Version: 6.00 Build 0)  -->
<svg version="1.1" id="Layer_1" xmlns="http://www.w3.org/2000/svg" xmlns:xlink="http://www.w3.org/1999/xlink" x="0px" y="0px"
	 viewBox="0 0 128 128" style="enable-background:new 0 0 128 128;" xml:space="preserve">
<g>
	<path style="fill:#F58025;" d="M18.247,64.989c-0.98,0-1.483,0.478-1.558,2.212c-0.025,1.081-0.578,1.382-1.156,1.382
		c-0.98,0-1.307-0.955-1.307-3.217V62.35c0-1.81,0.075-3.192,1.307-3.192c0.653,0,1.156,0.452,1.156,1.307
		c0,1.257,0.528,1.734,1.558,1.734c0.854,0,1.508-0.528,1.508-1.734c0-1.232-0.729-3.72-4.248-3.72
		c-3.692,0-4.381,2.126-4.482,4.937H1.639C0.502,61.682,0,62.396,0,63.189c0,0.793,0.502,1.506,1.639,1.506h9.37v0.419
		c0,3.267,0.402,5.881,4.499,5.881c3.619,0,4.248-2.865,4.248-4.223C19.755,65.642,19.152,64.989,18.247,64.989z"/>
	<path style="fill:#F58025;" d="M22.018,54.82c0-1.257,0.603-1.835,1.533-1.835c0.93,0,1.533,0.578,1.533,1.835v3.684h0.051
		c0.502-1.181,1.684-1.759,2.865-1.759c1.709,0,2.941,1.056,2.941,3.368v9.048c0,1.257-0.603,1.835-1.533,1.835
		c-0.93,0-1.534-0.578-1.534-1.835v-8.319c0-1.005-0.528-1.432-1.181-1.432c-0.98,0-1.609,0.729-1.609,2.438v7.314
		c0,1.257-0.603,1.835-1.533,1.835c-0.93,0-1.533-0.578-1.533-1.835V54.82z"/>
	<path style="fill:#F58025;" d="M42.227,67.754c0,0.879,0.175,1.609,0.175,2.036c0,0.804-0.553,1.206-1.533,1.206
		c-0.83,0-1.609-0.402-1.609-1.734l-0.051,0.025c-0.553,1.232-1.684,1.709-2.79,1.709c-1.81,0-3.167-1.081-3.167-3.644
		c0-2.061,0.578-3.242,2.186-4.097l2.74-1.432c0.679-0.352,0.98-0.854,0.98-1.432c0-0.729-0.402-1.357-1.181-1.357
		c-1.056,0-1.382,0.528-1.508,1.609c-0.076,0.603-0.654,0.98-1.458,0.98c-0.679,0-1.609-0.327-1.609-1.257
		c0-2.363,1.91-3.619,4.273-3.619c4.097,0,4.549,1.81,4.549,4.021V67.754z M39.16,63.632l-1.08,0.754
		c-1.357,0.955-1.609,1.432-1.609,2.589c0,1.031,0.427,1.609,1.081,1.609c1.005,0,1.609-1.106,1.609-2.538V63.632z"/>
	<path style="fill:#F58025;" d="M44.816,58.404c0-1.005,0.427-1.659,1.433-1.659c1.005,0,1.432,0.653,1.432,1.659v1.282h0.051
		c0.452-1.709,1.231-2.941,2.287-2.941c0.829,0,1.508,0.603,1.508,1.985c0,0.93-0.477,1.835-1.91,1.835
		c-0.955,0-1.734,0.653-1.734,1.86v6.736c0,1.257-0.603,1.835-1.533,1.835c-0.93,0-1.533-0.578-1.533-1.835V58.404z"/>
	<path style="fill:#F58025;" d="M52.634,61.847c0-2.589,0.679-5.102,3.268-5.102c1.181,0,2.337,0.653,2.815,1.835h0.05
		c0-1.257,0.553-1.835,1.508-1.835c0.855,0,1.458,0.578,1.458,1.835v12.844c0,3.092-1.533,4.449-4.599,4.449
		c-2.287,0-4.021-0.755-4.021-2.539c0-0.854,0.654-1.357,1.533-1.357c0.704,0,1.156,0.427,1.357,0.905
		c0.251,0.603,0.679,0.83,1.056,0.83c1.332,0,1.609-0.855,1.609-2.689v-1.885h-0.05c-0.704,1.257-1.408,1.533-2.714,1.533
		c-2.765,0-3.268-2.513-3.268-5.303V61.847z M55.851,64.436c0,2.991,0.277,3.82,1.307,3.82c0.729,0,1.508-0.553,1.508-3.293v-2.388
		c0-2.74-0.879-3.293-1.458-3.293c-0.855,0-1.357,0.779-1.357,2.991V64.436z"/>
	<path style="fill:#F58025;" d="M64.171,62.45c0-3.468,0.503-5.705,4.675-5.705c3.192,0,4.273,1.784,4.273,5.354
		c0,1.232-0.152,2.187-1.71,2.187h-4.021v1.382c0,1.634,0.126,2.916,1.383,2.916c0.653,0,1.156-0.679,1.182-1.408
		c0.05-1.332,0.653-1.634,1.507-1.634c0.905,0,1.558,0.302,1.558,1.508c0,2.463-1.684,3.946-4.172,3.946
		c-4.172,0-4.675-2.237-4.675-5.705V62.45z M70.052,62.124v-1.131c0-1.03-0.326-1.835-1.332-1.835c-1.005,0-1.332,0.804-1.332,1.835
		v1.131H70.052z"/>
	<path style="fill:#80A1B6;" d="M75.408,58.58c0-1.257,0.602-1.835,1.532-1.835s1.533,0.578,1.533,1.835h0.051
		c0.527-1.181,1.659-1.835,2.715-1.835c2.765,0,3.268,2.513,3.268,5.303v3.645c0,2.79-0.503,5.303-3.268,5.303
		c-1.157,0-2.162-0.503-2.715-1.533h-0.051v3.835c0,1.256-0.604,1.835-1.533,1.835s-1.532-0.579-1.532-1.835V58.58z M78.474,65.265
		c0,1.936,0.326,3.318,1.534,3.318c1.131,0,1.282-1.307,1.282-3.569v-1.91c0-2.991-0.277-3.82-1.307-3.82
		c-0.729,0-1.509,0.553-1.509,3.293V65.265z"/>
	<path style="fill:#80A1B6;" d="M86.518,62.023c0-2.916,0.954-5.278,4.625-5.278c3.669,0,4.624,2.362,4.624,5.278v3.695
		c0,2.915-0.954,5.278-4.624,5.278c-3.671,0-4.625-2.363-4.625-5.278V62.023z M89.735,65.467c0,2.513,0.401,3.116,1.408,3.116
		c1.005,0,1.406-0.603,1.406-3.116v-3.242c0-2.463-0.503-3.066-1.406-3.066c-0.905,0-1.408,0.603-1.408,3.066V65.467z"/>
	<path style="fill:#80A1B6;" d="M98.205,58.58c0-1.257,0.604-1.835,1.533-1.835s1.533,0.578,1.533,1.835v10.581
		c0,1.257-0.604,1.835-1.533,1.835s-1.533-0.578-1.533-1.835V58.58z"/>
	<path style="fill:#80A1B6;" d="M126.242,61.678h-4.586v-3.476c0-1.03-0.578-1.759-1.507-1.759s-1.508,0.729-1.508,1.759v3.476
		h-5.605v-1.565c0-2.312-1.232-3.368-2.94-3.368c-1.181,0-2.362,0.578-2.866,1.759h-0.049c0-1.181-0.604-1.759-1.534-1.759
		c-0.93,0-1.533,0.578-1.533,1.835v10.581c0,1.257,0.604,1.835,1.533,1.835c0.93,0,1.534-0.578,1.534-1.835v-7.314
		c0-1.709,0.628-2.438,1.609-2.438c0.653,0,1.181,0.427,1.181,1.432v8.319c0,1.257,0.602,1.835,1.532,1.835
		c0.931,0,1.533-0.578,1.533-1.835v-4.466h5.605v4.585c0,1.031,0.578,1.759,1.508,1.759s1.507-0.729,1.507-1.759v-4.585h4.586
		c1.056,0,1.759-0.604,1.759-1.508C128,62.282,127.297,61.678,126.242,61.678z"/>
	<path style="fill:#80A1B6;" d="M99.739,52.127c0.98,0,1.759,0.779,1.759,1.759c0,0.98-0.779,1.759-1.759,1.759
		c-0.98,0-1.759-0.779-1.759-1.759C97.979,52.907,98.758,52.127,99.739,52.127z"/>
	<g>
		<path style="fill:#80A1B6;" d="M124.682,69.293v-0.062c0-0.994,0.714-1.802,1.657-1.802c0.942,0,1.657,0.797,1.657,1.791v0.062
			c0,0.994-0.725,1.802-1.657,1.802C125.396,71.085,124.682,70.287,124.682,69.293z M127.778,69.283v-0.062
			c0-0.88-0.601-1.595-1.439-1.595c-0.839,0-1.45,0.725-1.45,1.605v0.062c0,0.88,0.6,1.595,1.45,1.595
			C127.167,70.888,127.778,70.174,127.778,69.283z M125.707,68.278h0.704c0.393,0,0.673,0.217,0.673,0.601
			c0,0.3-0.165,0.476-0.393,0.559l0.456,0.725h-0.383l-0.404-0.663h-0.32v0.663h-0.331V68.278z M126.38,69.221
			c0.238,0,0.373-0.124,0.373-0.321c0-0.217-0.144-0.321-0.373-0.321h-0.341v0.642H126.38z"/>
	</g>
</g>
<g style="opacity:0.6;">
	<path style="fill:#FFFFFF;" d="M18.247,64.989c-0.98,0-1.483,0.478-1.558,2.212c-0.025,1.081-0.578,1.382-1.156,1.382
		c-0.98,0-1.307-0.955-1.307-3.217V62.35c0-1.81,0.075-3.192,1.307-3.192c0.653,0,1.156,0.452,1.156,1.307
		c0,1.257,0.528,1.734,1.558,1.734c0.854,0,1.508-0.528,1.508-1.734c0-1.232-0.729-3.72-4.248-3.72
		c-3.692,0-4.381,2.126-4.482,4.937H1.639C0.502,61.682,0,62.396,0,63.189c0,0.793,0.502,1.506,1.639,1.506h9.37v0.419
		c0,3.267,0.402,5.881,4.499,5.881c3.619,0,4.248-2.865,4.248-4.223C19.755,65.642,19.152,64.989,18.247,64.989z"/>
	<path style="fill:#FFFFFF;" d="M22.018,54.82c0-1.257,0.603-1.835,1.533-1.835c0.93,0,1.533,0.578,1.533,1.835v3.684h0.051
		c0.502-1.181,1.684-1.759,2.865-1.759c1.709,0,2.941,1.056,2.941,3.368v9.048c0,1.257-0.603,1.835-1.533,1.835
		c-0.93,0-1.534-0.578-1.534-1.835v-8.319c0-1.005-0.528-1.432-1.181-1.432c-0.98,0-1.609,0.729-1.609,2.438v7.314
		c0,1.257-0.603,1.835-1.533,1.835c-0.93,0-1.533-0.578-1.533-1.835V54.82z"/>
	<path style="fill:#FFFFFF;" d="M42.227,67.754c0,0.879,0.175,1.609,0.175,2.036c0,0.804-0.553,1.206-1.533,1.206
		c-0.83,0-1.609-0.402-1.609-1.734l-0.051,0.025c-0.553,1.232-1.684,1.709-2.79,1.709c-1.81,0-3.167-1.081-3.167-3.644
		c0-2.061,0.578-3.242,2.186-4.097l2.74-1.432c0.679-0.352,0.98-0.854,0.98-1.432c0-0.729-0.402-1.357-1.181-1.357
		c-1.056,0-1.382,0.528-1.508,1.609c-0.076,0.603-0.654,0.98-1.458,0.98c-0.679,0-1.609-0.327-1.609-1.257
		c0-2.363,1.91-3.619,4.273-3.619c4.097,0,4.549,1.81,4.549,4.021V67.754z M39.16,63.632l-1.08,0.754
		c-1.357,0.955-1.609,1.432-1.609,2.589c0,1.031,0.427,1.609,1.081,1.609c1.005,0,1.609-1.106,1.609-2.538V63.632z"/>
	<path style="fill:#FFFFFF;" d="M44.816,58.404c0-1.005,0.427-1.659,1.433-1.659c1.005,0,1.432,0.653,1.432,1.659v1.282h0.051
		c0.452-1.709,1.231-2.941,2.287-2.941c0.829,0,1.508,0.603,1.508,1.985c0,0.93-0.477,1.835-1.91,1.835
		c-0.955,0-1.734,0.653-1.734,1.86v6.736c0,1.257-0.603,1.835-1.533,1.835c-0.93,0-1.533-0.578-1.533-1.835V58.404z"/>
	<path style="fill:#FFFFFF;" d="M52.634,61.847c0-2.589,0.679-5.102,3.268-5.102c1.181,0,2.337,0.653,2.815,1.835h0.05
		c0-1.257,0.553-1.835,1.508-1.835c0.855,0,1.458,0.578,1.458,1.835v12.844c0,3.092-1.533,4.449-4.599,4.449
		c-2.287,0-4.021-0.755-4.021-2.539c0-0.854,0.654-1.357,1.533-1.357c0.704,0,1.156,0.427,1.357,0.905
		c0.251,0.603,0.679,0.83,1.056,0.83c1.332,0,1.609-0.855,1.609-2.689v-1.885h-0.05c-0.704,1.257-1.408,1.533-2.714,1.533
		c-2.765,0-3.268-2.513-3.268-5.303V61.847z M55.851,64.436c0,2.991,0.277,3.82,1.307,3.82c0.729,0,1.508-0.553,1.508-3.293v-2.388
		c0-2.74-0.879-3.293-1.458-3.293c-0.855,0-1.357,0.779-1.357,2.991V64.436z"/>
	<path style="fill:#FFFFFF;" d="M64.171,62.45c0-3.468,0.503-5.705,4.675-5.705c3.192,0,4.273,1.784,4.273,5.354
		c0,1.232-0.152,2.187-1.71,2.187h-4.021v1.382c0,1.634,0.126,2.916,1.383,2.916c0.653,0,1.156-0.679,1.182-1.408
		c0.05-1.332,0.653-1.634,1.507-1.634c0.905,0,1.558,0.302,1.558,1.508c0,2.463-1.684,3.946-4.172,3.946
		c-4.172,0-4.675-2.237-4.675-5.705V62.45z M70.052,62.124v-1.131c0-1.03-0.326-1.835-1.332-1.835c-1.005,0-1.332,0.804-1.332,1.835
		v1.131H70.052z"/>
	<path style="fill:#FFFFFF;" d="M75.408,58.58c0-1.257,0.602-1.835,1.532-1.835s1.533,0.578,1.533,1.835h0.051
		c0.527-1.181,1.659-1.835,2.715-1.835c2.765,0,3.268,2.513,3.268,5.303v3.645c0,2.79-0.503,5.303-3.268,5.303
		c-1.157,0-2.162-0.503-2.715-1.533h-0.051v3.835c0,1.256-0.604,1.835-1.533,1.835s-1.532-0.579-1.532-1.835V58.58z M78.474,65.265
		c0,1.936,0.326,3.318,1.534,3.318c1.131,0,1.282-1.307,1.282-3.569v-1.91c0-2.991-0.277-3.82-1.307-3.82
		c-0.729,0-1.509,0.553-1.509,3.293V65.265z"/>
	<path style="fill:#FFFFFF;" d="M86.518,62.023c0-2.916,0.954-5.278,4.625-5.278c3.669,0,4.624,2.362,4.624,5.278v3.695
		c0,2.915-0.954,5.278-4.624,5.278c-3.671,0-4.625-2.363-4.625-5.278V62.023z M89.735,65.467c0,2.513,0.401,3.116,1.408,3.116
		c1.005,0,1.406-0.603,1.406-3.116v-3.242c0-2.463-0.503-3.066-1.406-3.066c-0.905,0-1.408,0.603-1.408,3.066V65.467z"/>
	<path style="fill:#FFFFFF;" d="M98.205,58.58c0-1.257,0.604-1.835,1.533-1.835s1.533,0.578,1.533,1.835v10.581
		c0,1.257-0.604,1.835-1.533,1.835s-1.533-0.578-1.533-1.835V58.58z"/>
	<path style="fill:#FFFFFF;" d="M126.242,61.678h-4.586v-3.476c0-1.03-0.578-1.759-1.507-1.759s-1.508,0.729-1.508,1.759v3.476
		h-5.605v-1.565c0-2.312-1.232-3.368-2.94-3.368c-1.181,0-2.362,0.578-2.866,1.759h-0.049c0-1.181-0.604-1.759-1.534-1.759
		c-0.93,0-1.533,0.578-1.533,1.835v10.581c0,1.257,0.604,1.835,1.533,1.835c0.93,0,1.534-0.578,1.534-1.835v-7.314
		c0-1.709,0.628-2.438,1.609-2.438c0.653,0,1.181,0.427,1.181,1.432v8.319c0,1.257,0.602,1.835,1.532,1.835
		c0.931,0,1.533-0.578,1.533-1.835v-4.466h5.605v4.585c0,1.031,0.578,1.759,1.508,1.759s1.507-0.729,1.507-1.759v-4.585h4.586
		c1.056,0,1.759-0.604,1.759-1.508C128,62.282,127.297,61.678,126.242,61.678z"/>
	<path style="fill:#FFFFFF;" d="M99.739,52.127c0.98,0,1.759,0.779,1.759,1.759c0,0.98-0.779,1.759-1.759,1.759
		c-0.98,0-1.759-0.779-1.759-1.759C97.979,52.907,98.758,52.127,99.739,52.127z"/>
	<g>
		<path style="fill:#FFFFFF;" d="M124.682,69.293v-0.062c0-0.994,0.714-1.802,1.657-1.802c0.942,0,1.657,0.797,1.657,1.791v0.062
			c0,0.994-0.725,1.802-1.657,1.802C125.396,71.085,124.682,70.287,124.682,69.293z M127.778,69.283v-0.062
			c0-0.88-0.601-1.595-1.439-1.595c-0.839,0-1.45,0.725-1.45,1.605v0.062c0,0.88,0.6,1.595,1.45,1.595
			C127.167,70.888,127.778,70.174,127.778,69.283z M125.707,68.278h0.704c0.393,0,0.673,0.217,0.673,0.601
			c0,0.3-0.165,0.476-0.393,0.559l0.456,0.725h-0.383l-0.404-0.663h-0.32v0.663h-0.331V68.278z M126.38,69.221
			c0.238,0,0.373-0.124,0.373-0.321c0-0.217-0.144-0.321-0.373-0.321h-0.341v0.642H126.38z"/>
	</g>
</g>
</svg>
