<?xml version="1.0" encoding="iso-8859-1"?>
<!-- Generator: Adobe Illustrator 27.8.1, SVG Export Plug-In . SVG Version: 6.00 Build 0)  -->
<svg version="1.1" id="Layer_1" xmlns="http://www.w3.org/2000/svg" xmlns:xlink="http://www.w3.org/1999/xlink" x="0px" y="0px"
	 viewBox="0 0 128 128" style="enable-background:new 0 0 128 128;" xml:space="preserve">
<path style="fill:#004E7C;" d="M63.004,48.304c4.348,0,7.871-3.524,7.871-7.871s-3.524-7.871-7.871-7.871
	c-4.376,0-7.9,3.524-7.9,7.871S58.628,48.304,63.004,48.304z"/>
<path style="fill:#004E7C;" d="M97.019,81.779l-14.18-11.651l-2.785-15.203c-0.284-1.563-0.085-3.069,0.682-4.604l11.907-23.785
	c0.909-1.819,0.142-4.007-1.648-4.916c-1.79-0.881-4.007-0.171-4.888,1.591L74.399,46.684c-0.824,1.677-2.046,2.756-3.779,3.467
	l-20.659,8.61l-8.326-6.678c-0.739-0.597-1.677-0.739-2.33-0.597v-8.616c4.332-2.256,7.388-6.864,7.388-11.077
	c0-5.2-4.035-9.264-9.179-9.264c-5.172,0-9.207,4.064-9.207,9.264c0,4.205,3.066,8.803,7.388,11.064v11.925
	c0,1.222,0.369,2.273,1.307,3.041l10.173,8.042c1.25,0.995,2.586,0.909,4.177,0.256l11.31-4.717
	c1.563-0.654,2.359,0.227,2.558,1.307l5.57,30.804L55.303,99.71c-1.847,0.739-2.785,2.87-2.046,4.745
	c0.853,2.131,2.955,2.7,4.746,1.989l18.272-7.274c1.591-0.654,2.415-2.217,2.302-3.836l-1.023-14.208
	c-0.142-1.591,1.591-2.472,2.813-1.677l10.997,7.388v16.283c0,1.989,1.591,3.637,3.637,3.637c2.018,0,3.637-1.648,3.637-3.637
	V84.848C98.639,83.569,97.985,82.603,97.019,81.779z M31.916,31.879c0-3.24,2.444-5.769,5.598-5.769
	c3.126,0,5.598,2.529,5.598,5.769c0,3.211-2.273,6.706-5.598,7.872C34.189,38.585,31.916,35.09,31.916,31.879z"/>
<path style="fill:#004E7C;" d="M63.975,128C99.01,128,128,99.01,128,64.025C128,28.99,98.961,0,63.926,0C28.941,0,0,28.99,0,64.025
	C0,99.01,28.99,128,63.975,128z M63.976,120c-14.784,0-28.794-5.869-39.451-16.525C13.869,92.818,8,78.808,8,64.024
	c0-14.81,5.862-28.837,16.505-39.498C35.146,13.869,49.146,8,63.926,8c14.812,0,28.847,5.872,39.521,16.534
	C114.121,35.197,120,49.222,120,64.024c0,14.785-5.87,28.795-16.529,39.449C92.808,114.131,78.781,120,63.976,120z"/>
</svg>
