<?xml version="1.0" encoding="iso-8859-1"?>
<!-- Generator: Adobe Illustrator 27.8.1, SVG Export Plug-In . SVG Version: 6.00 Build 0)  -->
<svg version="1.1" id="Layer_1" xmlns="http://www.w3.org/2000/svg" xmlns:xlink="http://www.w3.org/1999/xlink" x="0px" y="0px"
	 viewBox="0 0 128 128" style="enable-background:new 0 0 128 128;" xml:space="preserve">
<g>
	<path style="fill:#FFFFFF;" d="M99.848,53.871l-15.591-7.794V26.862c0-4.652-3.788-8.44-8.44-8.44H52.183
		c-4.652,0-8.44,3.788-8.44,8.44v19.215l-15.591,7.794c-2.88,1.442-4.666,4.332-4.666,7.549v32.965c0,2.792,2.272,5.064,5.064,5.064
		h16.881h37.138H99.45c2.792,0,5.064-2.272,5.064-5.064V61.421C104.514,58.203,102.728,55.313,99.848,53.871z M26.862,94.386V61.421
		c0-1.928,1.074-3.667,2.795-4.531l14.085-7.041v46.225H28.55C27.618,96.074,26.862,95.317,26.862,94.386z M47.119,26.862
		c0-2.792,2.272-5.064,5.064-5.064h23.633c2.792,0,5.064,2.272,5.064,5.064v69.212h-6.752V85.945
		c0-5.584-4.544-10.129-10.129-10.129s-10.129,4.544-10.129,10.129v10.129h-6.752V26.862z M70.752,96.074H57.248V85.945
		c0-3.724,3.028-6.752,6.752-6.752s6.752,3.028,6.752,6.752V96.074z M101.138,94.386c0,0.932-0.756,1.688-1.688,1.688H84.257v-46.22
		l14.082,7.04c1.725,0.864,2.799,2.6,2.799,4.527V94.386z"/>
	<path style="fill:#FFFFFF;" d="M55.56,55.56H72.44c0.932,0,1.688-0.756,1.688-1.688c0-0.932-0.756-1.688-1.688-1.688H55.56
		c-0.932,0-1.688,0.756-1.688,1.688C53.871,54.803,54.628,55.56,55.56,55.56z"/>
	<path style="fill:#FFFFFF;" d="M55.56,65.688H72.44c0.932,0,1.688-0.756,1.688-1.688c0-0.932-0.756-1.688-1.688-1.688H55.56
		c-0.932,0-1.688,0.756-1.688,1.688C53.871,64.932,54.628,65.688,55.56,65.688z"/>
	<path style="fill:#FFFFFF;" d="M38.679,85.945h-6.752c-0.932,0-1.688,0.756-1.688,1.688s0.756,1.688,1.688,1.688h6.752
		c0.932,0,1.688-0.756,1.688-1.688S39.61,85.945,38.679,85.945z"/>
	<path style="fill:#FFFFFF;" d="M38.679,75.817h-6.752c-0.932,0-1.688,0.756-1.688,1.688c0,0.932,0.756,1.688,1.688,1.688h6.752
		c0.932,0,1.688-0.756,1.688-1.688C40.367,76.573,39.61,75.817,38.679,75.817z"/>
	<path style="fill:#FFFFFF;" d="M31.926,69.064h6.752c0.932,0,1.688-0.756,1.688-1.688s-0.756-1.688-1.688-1.688h-6.752
		c-0.932,0-1.688,0.756-1.688,1.688S30.994,69.064,31.926,69.064z"/>
	<path style="fill:#FFFFFF;" d="M96.074,85.945h-6.752c-0.932,0-1.688,0.756-1.688,1.688s0.756,1.688,1.688,1.688h6.752
		c0.932,0,1.688-0.756,1.688-1.688S97.006,85.945,96.074,85.945z"/>
	<path style="fill:#FFFFFF;" d="M96.074,75.817h-6.752c-0.932,0-1.688,0.756-1.688,1.688c0,0.932,0.756,1.688,1.688,1.688h6.752
		c0.932,0,1.688-0.756,1.688-1.688C97.762,76.573,97.006,75.817,96.074,75.817z"/>
	<path style="fill:#FFFFFF;" d="M96.074,65.688h-6.752c-0.932,0-1.688,0.756-1.688,1.688s0.756,1.688,1.688,1.688h6.752
		c0.932,0,1.688-0.756,1.688-1.688S97.006,65.688,96.074,65.688z"/>
	<path style="fill:#FFFFFF;" d="M77.927,41.015H50.073V29.799h27.854V41.015L77.927,41.015z M61.272,30.881h-2.288l-1.274,6.26
		h-0.026l-1.86-6.26h-3.028l-1.938,9.028h2.288l1.262-6.247h0.026l1.897,6.247h3.017L61.272,30.881L61.272,30.881z M69.902,30.881
		h-2.43l-0.715,3.454h-2.872l0.714-3.454h-2.43l-1.885,9.028h2.43l0.806-3.867h2.874l-0.806,3.867h2.43L69.902,30.881L69.902,30.881
		z M76.883,31.128c-0.611-0.284-1.663-0.401-2.782-0.401c-1.989,0-4.044,0.698-4.044,3.027c0,2.547,3.523,2.003,3.523,3.452
		c0,0.931-1.182,1.074-1.937,1.074c-0.792,0-1.755-0.207-2.235-0.518l-0.572,1.837c0.792,0.246,1.871,0.467,2.807,0.467
		c2.106,0,4.433-0.647,4.433-3.143c0-2.742-3.523-2.265-3.523-3.544c0-0.725,0.78-0.866,1.742-0.866
		c0.896,0,1.533,0.194,2.001,0.413L76.883,31.128L76.883,31.128z"/>
	<path style="fill:#FFFFFF;" d="M63.975,128C99.01,128,128,99.01,128,64.025C128,28.99,98.961,0,63.926,0C28.941,0,0,28.99,0,64.025
		C0,99.01,28.99,128,63.975,128z M63.976,120c-14.784,0-28.794-5.869-39.451-16.525C13.869,92.818,8,78.808,8,64.024
		c0-14.81,5.862-28.837,16.505-39.498C35.146,13.869,49.146,8,63.926,8c14.812,0,28.847,5.872,39.521,16.534
		C114.121,35.197,120,49.222,120,64.024c0,14.785-5.87,28.795-16.529,39.449C92.808,114.131,78.781,120,63.976,120z"/>
</g>
<g>
	<path style="fill:#81CBEB;" d="M99.848,53.871l-15.591-7.794V26.862c0-4.652-3.788-8.44-8.44-8.44H52.183
		c-4.652,0-8.44,3.788-8.44,8.44v19.215l-15.591,7.794c-2.88,1.442-4.666,4.332-4.666,7.549v32.965c0,2.792,2.272,5.064,5.064,5.064
		h16.881h37.138H99.45c2.792,0,5.064-2.272,5.064-5.064V61.421C104.514,58.203,102.728,55.313,99.848,53.871z M26.862,94.386V61.421
		c0-1.928,1.074-3.667,2.795-4.531l14.085-7.041v46.225H28.55C27.618,96.074,26.862,95.317,26.862,94.386z M47.119,26.862
		c0-2.792,2.272-5.064,5.064-5.064h23.633c2.792,0,5.064,2.272,5.064,5.064v69.212h-6.752V85.945
		c0-5.584-4.544-10.129-10.129-10.129s-10.129,4.544-10.129,10.129v10.129h-6.752V26.862z M70.752,96.074H57.248V85.945
		c0-3.724,3.028-6.752,6.752-6.752s6.752,3.028,6.752,6.752V96.074z M101.138,94.386c0,0.932-0.756,1.688-1.688,1.688H84.257v-46.22
		l14.082,7.04c1.725,0.864,2.799,2.6,2.799,4.527V94.386z"/>
	<path style="fill:#81CBEB;" d="M55.56,55.56H72.44c0.932,0,1.688-0.756,1.688-1.688c0-0.932-0.756-1.688-1.688-1.688H55.56
		c-0.932,0-1.688,0.756-1.688,1.688C53.871,54.803,54.628,55.56,55.56,55.56z"/>
	<path style="fill:#81CBEB;" d="M55.56,65.688H72.44c0.932,0,1.688-0.756,1.688-1.688c0-0.932-0.756-1.688-1.688-1.688H55.56
		c-0.932,0-1.688,0.756-1.688,1.688C53.871,64.932,54.628,65.688,55.56,65.688z"/>
	<path style="fill:#81CBEB;" d="M38.679,85.945h-6.752c-0.932,0-1.688,0.756-1.688,1.688s0.756,1.688,1.688,1.688h6.752
		c0.932,0,1.688-0.756,1.688-1.688S39.61,85.945,38.679,85.945z"/>
	<path style="fill:#81CBEB;" d="M38.679,75.817h-6.752c-0.932,0-1.688,0.756-1.688,1.688c0,0.932,0.756,1.688,1.688,1.688h6.752
		c0.932,0,1.688-0.756,1.688-1.688C40.367,76.573,39.61,75.817,38.679,75.817z"/>
	<path style="fill:#81CBEB;" d="M31.926,69.064h6.752c0.932,0,1.688-0.756,1.688-1.688s-0.756-1.688-1.688-1.688h-6.752
		c-0.932,0-1.688,0.756-1.688,1.688S30.994,69.064,31.926,69.064z"/>
	<path style="fill:#81CBEB;" d="M96.074,85.945h-6.752c-0.932,0-1.688,0.756-1.688,1.688s0.756,1.688,1.688,1.688h6.752
		c0.932,0,1.688-0.756,1.688-1.688S97.006,85.945,96.074,85.945z"/>
	<path style="fill:#81CBEB;" d="M96.074,75.817h-6.752c-0.932,0-1.688,0.756-1.688,1.688c0,0.932,0.756,1.688,1.688,1.688h6.752
		c0.932,0,1.688-0.756,1.688-1.688C97.762,76.573,97.006,75.817,96.074,75.817z"/>
	<path style="fill:#81CBEB;" d="M96.074,65.688h-6.752c-0.932,0-1.688,0.756-1.688,1.688s0.756,1.688,1.688,1.688h6.752
		c0.932,0,1.688-0.756,1.688-1.688S97.006,65.688,96.074,65.688z"/>
	<path style="fill:#81CBEB;" d="M77.927,41.015H50.073V29.799h27.854V41.015L77.927,41.015z M61.272,30.881h-2.288l-1.274,6.26
		h-0.026l-1.86-6.26h-3.028l-1.938,9.028h2.288l1.262-6.247h0.026l1.897,6.247h3.017L61.272,30.881L61.272,30.881z M69.902,30.881
		h-2.43l-0.715,3.454h-2.872l0.714-3.454h-2.43l-1.885,9.028h2.43l0.806-3.867h2.874l-0.806,3.867h2.43L69.902,30.881L69.902,30.881
		z M76.883,31.128c-0.611-0.284-1.663-0.401-2.782-0.401c-1.989,0-4.044,0.698-4.044,3.027c0,2.547,3.523,2.003,3.523,3.452
		c0,0.931-1.182,1.074-1.937,1.074c-0.792,0-1.755-0.207-2.235-0.518l-0.572,1.837c0.792,0.246,1.871,0.467,2.807,0.467
		c2.106,0,4.433-0.647,4.433-3.143c0-2.742-3.523-2.265-3.523-3.544c0-0.725,0.78-0.866,1.742-0.866
		c0.896,0,1.533,0.194,2.001,0.413L76.883,31.128L76.883,31.128z"/>
	<path style="fill:#81CBEB;" d="M63.975,128C99.01,128,128,99.01,128,64.025C128,28.99,98.961,0,63.926,0C28.941,0,0,28.99,0,64.025
		C0,99.01,28.99,128,63.975,128z M63.976,120c-14.784,0-28.794-5.869-39.451-16.525C13.869,92.818,8,78.808,8,64.024
		c0-14.81,5.862-28.837,16.505-39.498C35.146,13.869,49.146,8,63.926,8c14.812,0,28.847,5.872,39.521,16.534
		C114.121,35.197,120,49.222,120,64.024c0,14.785-5.87,28.795-16.529,39.449C92.808,114.131,78.781,120,63.976,120z"/>
</g>
</svg>
