<?xml version="1.0" encoding="iso-8859-1"?>
<!-- Generator: Adobe Illustrator 27.7.0, SVG Export Plug-In . SVG Version: 6.00 Build 0)  -->
<svg version="1.1" id="Layer_1" xmlns="http://www.w3.org/2000/svg" xmlns:xlink="http://www.w3.org/1999/xlink" x="0px" y="0px"
	 viewBox="0 0 128 128" style="enable-background:new 0 0 128 128;" xml:space="preserve">
<g>
	<path style="fill:#560486;stroke:#000000;stroke-width:0.1;stroke-miterlimit:10;" d="M18.395,77.637
		c-3.604,0-6.518-1.861-6.518-6.418l0-0.878l0,0v-5.256h8.189v-6.904h-8.189v-9.997h-7v9.997H0v6.904h4.877v4.971v0.285
		c0,0.217,0,0.595,0,1.289c0,8.326,7,12.952,13.352,12.952c1.506,0,1.793,0,1.836,0v-6.945
		C20.066,77.637,19.596,77.637,18.395,77.637z"/>
	<path style="fill:#560486;stroke:#000000;stroke-width:0.1;stroke-miterlimit:10;" d="M38.505,66.118
		c-3.967,0-7.182-3.216-7.182-7.182s3.216-7.182,7.182-7.182s7.182,3.216,7.182,7.182S42.471,66.118,38.505,66.118z M52.342,58.936
		c0-7.642-6.195-13.837-13.837-13.837s-13.837,6.195-13.837,13.837s6.195,13.837,13.837,13.837S52.342,66.578,52.342,58.936z"/>
	<path style="fill:#560486;stroke:#000000;stroke-width:0.1;stroke-miterlimit:10;" d="M71.044,57.65
		c-2.734,0-5.054,0.973-6.798,2.361v-1.83h-7v26.401h7V70.077c0-3.024,1.019-5.861,5.451-5.861c4.391,0,5.323,3.293,5.323,5.861
		v14.505h7c0,0,0-15.319,0-15.872C82.021,61.751,77.569,57.65,71.044,57.65z"/>
	
		<rect x="88.111" y="58.181" style="fill:#560486;stroke:#000000;stroke-width:0.1;stroke-miterlimit:10;" width="7" height="26.401"/>
	<circle style="fill:#560486;stroke:#000000;stroke-width:0.1;stroke-miterlimit:10;" cx="91.611" cy="49.474" r="4.338"/>
	<polygon style="fill:#560486;" points="128,84.582 115.285,70.222 126.862,58.181 118.039,58.181 108.648,68.302 108.648,43.418 
		101.648,43.418 101.648,84.582 108.648,84.582 108.648,72.876 119.013,84.582 	"/>
</g>
<g style="opacity:0.6;">
	<path style="fill:#FFFFFF;stroke:#000000;stroke-width:0.1;stroke-miterlimit:10;" d="M18.395,77.637
		c-3.604,0-6.518-1.861-6.518-6.418l0-0.878l0,0v-5.256h8.189v-6.904h-8.189v-9.997h-7v9.997H0v6.904h4.877v4.971v0.285
		c0,0.217,0,0.595,0,1.289c0,8.326,7,12.952,13.352,12.952c1.506,0,1.793,0,1.836,0v-6.945
		C20.066,77.637,19.596,77.637,18.395,77.637z"/>
	<path style="fill:#FFFFFF;stroke:#000000;stroke-width:0.1;stroke-miterlimit:10;" d="M38.505,66.118
		c-3.967,0-7.182-3.216-7.182-7.182s3.216-7.182,7.182-7.182s7.182,3.216,7.182,7.182S42.471,66.118,38.505,66.118z M52.342,58.936
		c0-7.642-6.195-13.837-13.837-13.837s-13.837,6.195-13.837,13.837s6.195,13.837,13.837,13.837S52.342,66.578,52.342,58.936z"/>
	<path style="fill:#FFFFFF;stroke:#000000;stroke-width:0.1;stroke-miterlimit:10;" d="M71.044,57.65
		c-2.734,0-5.054,0.973-6.798,2.361v-1.83h-7v26.401h7V70.077c0-3.024,1.019-5.861,5.451-5.861c4.391,0,5.323,3.293,5.323,5.861
		v14.505h7c0,0,0-15.319,0-15.872C82.021,61.751,77.569,57.65,71.044,57.65z"/>
	
		<rect x="88.111" y="58.181" style="fill:#FFFFFF;stroke:#000000;stroke-width:0.1;stroke-miterlimit:10;" width="7" height="26.401"/>
	<circle style="fill:#FFFFFF;stroke:#000000;stroke-width:0.1;stroke-miterlimit:10;" cx="91.611" cy="49.474" r="4.338"/>
	<polygon style="fill:#FFFFFF;" points="128,84.582 115.285,70.222 126.862,58.181 118.039,58.181 108.648,68.302 108.648,43.418 
		101.648,43.418 101.648,84.582 108.648,84.582 108.648,72.876 119.013,84.582 	"/>
</g>
</svg>
