<?xml version="1.0" encoding="UTF-8"?>
<svg id="Layer_1" data-name="Layer 1" xmlns="http://www.w3.org/2000/svg" viewBox="0 0 128 96.31">
  <defs>
    <style>
      .cls-1 {
        fill: #fff;
        stroke-width: 0px;
      }
    </style>
  </defs>
  <path class="cls-1" d="m69.18,0c-16.98,0-34.55,5-48.18,13.73C7.85,22.14,0,32.94,0,42.61c0,12.01,13.97,16.7,27.48,21.23,7.22,2.42,14.69,4.93,19.69,8.42,3.09,2.16,6.21,4.66,9.5,7.31,10.26,8.23,20.86,16.74,32.87,16.74,16.17,0,38.45-29.76,38.45-51.37C128,17.64,104.91,0,69.18,0Zm53.54,44.94c0,1.97-.21,4.01-.59,6.07-.56-2.73-1.45-5.44-2.71-8.06-2.23-4.63-6.79-11.41-15.71-16.97-6.44-9.45-16.84-16.26-30.16-19.55-1.82-.45-3.62-.81-5.41-1.13.35,0,.7-.02,1.05-.02,33.03,0,53.54,15.2,53.54,39.66Zm-63.79,23.52c-1.66-3.23-3.47-6.72-6.52-9.97,3.6.86,6.88,1.72,9.12,2.66,3.55,1.5,6.81,5.1,10.27,8.92,3.8,4.2,7.92,8.73,13.28,11.67-7.79,2.12-15.06-1.35-19.67-4.51-3.03-2.08-4.63-5.18-6.48-8.77ZM18.61,30.94c.28-4.41,3.81-9.61,9.21-13.58,7.18-5.27,16.69-7.99,27.32-7.99,5.47,0,11.23.72,17.13,2.17,7.27,1.79,13.55,4.73,18.65,8.62-3.04-.97-6.36-1.8-10.02-2.43-31.73-5.46-55.99,6.46-58.76,21.02-.12.63-.18,1.24-.2,1.83-2.39-2.47-3.6-5.47-3.33-9.65Zm57.11,35.6c-3.86-4.26-7.5-8.29-12.13-10.24-3.19-1.35-7.77-2.43-12.61-3.57-11.14-2.62-25-5.89-23.65-12.98,1.06-5.55,6.96-10.89,15.79-14.27,10.33-3.95,23.43-4.86,36.89-2.54,8.45,1.45,14.96,3.99,19.98,6.95,1.31,2.05,2.4,4.23,3.27,6.54,4.22,11.15,2.68,24.51-3.91,34.03-2.58,3.72-5.24,6.39-7.92,8.26-6.52-2.05-11.18-7.17-15.71-12.18Zm27.96,6.92c7.17-10.35,9.14-24.05,5.38-36.35,2.75,2.96,4.5,5.84,5.6,8.12,3.79,7.88,3.82,16.66.07,23.48-2.65,4.81-7.59,10.5-16.17,10.9,1.79-1.77,3.5-3.82,5.12-6.16Zm-74.52-14.63c-12.28-4.12-23.88-8.01-23.88-16.22,0-5.36,3.41-11.48,9.29-17.18-.69,1.74-1.12,3.48-1.23,5.18-.85,13.58,10.03,18.3,20.55,22.87,2.72,1.18,5.53,2.4,8.16,3.78,7.08,3.69,9.68,8.74,12.19,13.62.01.02.02.05.04.07-1.37-1.05-2.74-2.08-4.09-3.02-5.62-3.93-13.46-6.56-21.03-9.1Zm47.75,28.6c1.09.14,2.2.23,3.35.23.24,0,.49,0,.74-.01,4.02-.12,7.81-1.21,11.35-3.24,1.65.33,3.38.53,5.25.53s3.46-.2,5.01-.52c-4.59,4.08-9.24,6.61-13.06,6.61-4.26,0-8.48-1.41-12.64-3.59Z"/>
</svg>