<?xml version="1.0" encoding="iso-8859-1"?>
<!-- Generator: Adobe Illustrator 27.7.0, SVG Export Plug-In . SVG Version: 6.00 Build 0)  -->
<svg version="1.1" id="Layer_1" xmlns="http://www.w3.org/2000/svg" xmlns:xlink="http://www.w3.org/1999/xlink" x="0px" y="0px"
	 viewBox="0 0 128 128" style="enable-background:new 0 0 128 128;" xml:space="preserve">
<g>
	<rect y="22.103" style="fill:none;" width="128" height="83.574"/>
	<path style="fill:#0077C8;" d="M128,59.271c0-11.216-1.759-30.351-28.151-34.309c0,0-13.856-2.859-35.629-2.859h-0.44
		c-21.553,0-35.629,2.859-35.629,2.859C1.759,28.921,0,48.055,0,59.271c0,1.759,0,7.698,0,9.457
		c0,11.216,1.759,30.351,28.151,34.309c0,0,13.856,2.859,35.629,2.859h0.44c21.553,0,35.629-2.859,35.629-2.859
		C126.241,99.079,128,79.725,128,68.729C128,66.749,128,61.031,128,59.271z"/>
	<path style="fill:#FFFFFF;" d="M44.206,57.512c1.979,0,2.859-0.88,2.859-2.859c0-1.32-0.22-2.419-0.44-3.299v-0.22H34.309v-4.619
		h12.316c1.979,0,2.859-0.88,2.859-2.859c0-1.32-0.22-2.419-0.44-3.299v-0.22H30.351c-0.44,0-1.54,0-1.979,1.54
		c-0.22,0.44-0.22,0.88-0.22,0.88v0.22v10.997c0,0,0,5.058,0,8.357c0,0,0,1.54,0,2.639c0,0.44,0,0.88,0,0.88c0,0.22,0,0.22,0,0.22
		c0,0.22,0,0.66,0.22,0.88c0.44,1.54,1.54,1.54,1.979,1.54h16.495c1.979,0,2.859-0.88,2.859-2.859c0-1.32-0.22-2.419-0.44-3.299
		l-0.22-0.22H34.529v-4.619h9.677V57.512z"/>
	<path style="fill:#FFFFFF;" d="M70.818,55.093c-0.44-0.44-0.88-0.88-1.1-1.1c-0.66-0.44-1.1-0.88-1.759-1.1
		c-0.88-0.44-1.759-0.88-2.639-1.1c-0.44-0.22-2.639-0.66-3.299-0.88c-0.22,0-0.44-0.22-0.66-0.22l0,0
		c-0.88-0.44-3.519-1.979-3.299-4.838c0-1.54,0.88-3.299,2.639-4.179c0.22-0.22,0.44,0,0.22,0.22
		c-2.199,2.199-1.759,5.058-0.88,5.278h2.639h6.378h1.32c1.979,0,2.639-0.88,2.639-2.859c0-1.32-0.22-2.419-0.44-3.299v-0.22h-3.959
		H63.12H62.9c-5.938,0-9.897,3.299-9.897,7.918c0,1.979,0.88,3.959,2.199,5.498c0.44,0.44,0.88,0.88,1.32,1.1
		c0.66,0.44,1.1,0.88,1.759,1.1c0.88,0.44,1.759,0.88,2.639,1.1c0.44,0.22,2.639,0.66,3.299,0.88c0.22,0,0.44,0.22,0.66,0.22l0,0
		c0.88,0.44,3.739,1.979,3.519,4.838c0,1.54-0.88,3.299-2.639,4.179c-0.22,0.22-0.44,0-0.22-0.22
		c2.199-1.979,1.759-4.838,0.88-5.058H55.863c0,0-0.22,0-0.44,0c-1.759,0-2.639,0.88-2.639,2.859c0,1.32,0.22,2.419,0.44,3.299v0.22
		h4.619h5.278l0,0c5.718,0,9.677-3.299,9.677-7.918C73.017,58.392,72.357,56.632,70.818,55.093z"/>
	<path style="fill:#FFFFFF;" d="M97.21,53.773L97.21,53.773v-0.44c0.88-1.32,1.1-2.859,1.1-4.399c0-3.959-3.519-8.357-9.017-8.357
		h-6.818h-3.079h-1.1c-0.44,0-1.54,0-1.979,1.54c-0.22,0.44-0.22,0.88-0.22,0.88v0.22v10.777c0,0,0,5.058,0,8.357
		c0,0,0,1.54,0,2.639c0,0.44,0,0.66,0,0.66c0,0.22,0,0.22,0,0.22c0,0.22,0,0.66,0.22,0.88c0.44,1.54,1.54,1.54,1.979,1.54h0.44
		h3.739h8.357c5.498,0,9.017-4.399,9.017-8.357C100.069,57.732,98.969,55.313,97.21,53.773z M91.052,62.351h-8.357v-4.619v-6.158
		v-4.619h7.258c1.759,0.22,2.419,1.54,2.419,2.199c0,1.1-0.44,2.419-2.859,2.419h-2.419c-0.44,0-1.979,0-1.979,2.639
		c0,1.54,0.22,2.639,0.44,3.299v0.22h5.498c2.419,0.22,2.859,1.32,2.859,2.419C93.691,60.591,93.471,62.351,91.052,62.351z"/>
	<path style="fill:#FFFFFF;" d="M31.67,82.364c0.22,0.88,0.88,1.1,1.759,1.1c1.32,0,2.859-0.44,3.519-0.88
		c0.22,0.22,0.44,0.66,0.44,1.1c0,0.66-0.22,1.32-0.88,1.54c-0.88,0.66-1.979,1.1-3.959,1.1c-3.079,0-4.619-2.419-4.619-5.498
		c0-4.399,2.859-6.598,5.938-6.598c2.639,0,3.959,1.54,3.959,3.519C37.828,80.385,35.849,81.704,31.67,82.364z M31.45,80.385
		c2.859-0.66,3.519-1.32,3.519-1.979c0-0.44-0.22-0.88-1.1-0.88C32.99,77.306,31.67,78.405,31.45,80.385z"/>
	<path style="fill:#FFFFFF;" d="M44.646,77.086c1.1-1.759,2.419-2.859,3.959-2.859c1.32,0,2.419,0.88,2.419,2.639
		c0,0.22,0,0.66,0,0.88l-0.44,5.498c0,0.44,0.22,0.66,0.44,0.66h0.88c0,0.22,0,0.22,0,0.44c0,1.1-0.88,1.759-2.639,1.759
		c-1.54,0-2.199-0.88-1.979-2.419l0.44-5.058c0-0.22,0-0.22,0-0.44c0-0.44-0.44-0.88-0.88-0.88c-0.88,0-1.54,0.66-2.199,2.639
		l-0.88,5.938c-0.44,0.22-1.1,0.44-1.979,0.44c-0.88,0-1.54-0.44-1.54-1.759l0.66-6.378c0-0.44-0.22-0.66-0.66-0.66h-0.66
		c-0.22-0.44-0.22-0.66-0.22-1.1c0-1.1,1.1-1.979,2.859-1.979C43.546,74.667,44.646,75.546,44.646,77.086z"/>
	<path style="fill:#FFFFFF;" d="M56.742,82.364c0.22,0.88,0.88,1.1,1.759,1.1c1.32,0,2.859-0.44,3.519-0.88
		c0.22,0.22,0.44,0.66,0.44,1.1c0,0.66-0.22,1.32-0.88,1.54c-0.88,0.66-1.979,1.1-3.959,1.1c-3.079,0-4.619-2.419-4.619-5.498
		c0-4.399,2.859-6.598,5.938-6.598c2.639,0,3.959,1.54,3.959,3.519C63.12,80.385,60.921,81.704,56.742,82.364z M56.522,80.385
		c2.859-0.66,3.519-1.32,3.519-1.979c0-0.44-0.22-0.88-1.1-0.88C58.062,77.306,56.742,78.405,56.522,80.385z"/>
	<path style="fill:#FFFFFF;" d="M70.158,76.866c0.88-1.32,1.979-2.639,3.299-2.639c1.1,0,1.759,0.88,1.759,2.199
		c0,2.419-0.88,3.299-2.419,3.299c-0.44,0-0.88-0.22-1.1-0.44c0-0.66,0-1.1-0.44-1.1s-0.88,0.66-1.1,1.759l-0.66,5.938
		c-0.22,0.22-1.1,0.44-1.979,0.44s-1.54-0.22-1.32-1.54l0.66-6.598c0-0.66-0.22-0.66-0.44-0.66h-0.88c0-0.44-0.22-0.66-0.22-1.1
		c0-1.1,0.88-1.979,2.419-1.979C68.838,74.667,69.938,75.107,70.158,76.866z"/>
	<path style="fill:#FFFFFF;" d="M82.474,84.124c-0.66,1.54-1.759,2.419-3.299,2.419s-3.299-1.32-3.299-4.838
		c0-4.838,2.639-7.258,5.058-7.258c0.88,0,1.32,0.44,1.979,0.88c0.22-0.66,0.66-0.88,1.32-0.88c0.88,0,1.54,0.22,1.759,0.44v5.278
		c-0.22,1.54,0,3.299-0.22,5.058c-0.44,3.959-3.079,5.498-6.158,5.498c-2.859,0-4.179-0.88-4.179-2.419c0-0.88,0.22-1.32,0.66-1.54
		c0.88,0.44,1.979,1.1,3.299,1.1c1.979,0,3.079-0.88,3.299-2.419C82.474,85.003,82.474,84.564,82.474,84.124z M82.914,78.186
		c-0.44-0.66-0.88-0.88-1.54-0.88c-1.1,0-1.979,1.54-1.979,3.959c0,1.54,0.44,1.979,1.32,1.979c0.88,0,1.32-0.66,1.759-1.54v-0.22
		L82.914,78.186z"/>
	<path style="fill:#FFFFFF;" d="M93.911,82.144c0,0.44,0.44,0.88,0.66,0.88c1.1-2.199,1.54-3.959,1.54-5.058
		c0-0.44-0.22-0.66-0.44-0.66h-0.66c0-0.22-0.22-0.66-0.22-0.88c0-1.1,1.32-1.759,2.639-1.759c1.759,0,2.419,0.88,2.419,2.199
		c0,2.199-2.199,6.598-4.399,10.117c-1.759,2.859-3.739,3.959-5.938,3.959c-1.54,0-2.199-0.66-2.199-1.54c0-0.44,0-1.1,0.22-1.54
		h2.419c0.88,0,1.979-0.44,2.859-1.759c-0.88,0-1.54-0.66-1.759-1.759l-1.32-6.158c0-0.44-0.22-0.66-0.66-0.66h-0.88
		c0-0.22-0.22-0.66-0.22-0.88c0-1.1,1.1-1.759,2.859-1.759c1.32,0,1.979,0.66,2.199,1.979L93.911,82.144z"/>
</g>
</svg>
