<?xml version="1.0" encoding="iso-8859-1"?>
<!-- Generator: Adobe Illustrator 27.8.0, SVG Export Plug-In . SVG Version: 6.00 Build 0)  -->
<svg version="1.1" id="Layer_1" xmlns="http://www.w3.org/2000/svg" xmlns:xlink="http://www.w3.org/1999/xlink" x="0px" y="0px"
	 viewBox="0 0 128 128" style="enable-background:new 0 0 128 128;" xml:space="preserve">
<path style="fill:#8CC63F;" d="M63.948,128c-1.507,0-2.655-1.937-3.731-3.3S28.646,82.018,24.773,76.628s-9.184-13.274-9.184-30.206
	C15.589,22.601,36.934,0,63.948,0h0.105c27.013,0,48.359,22.601,48.359,46.422c0,16.933-5.311,24.816-9.184,30.206
	S68.859,123.336,67.783,124.7s-2.224,3.3-3.731,3.3H63.948z M41.993,60.879l16.574,0.108v24.969l26.26-41.435H68.36V19.229
	L41.993,60.879z"/>
<path style="opacity:0.6;fill:#FFFFFF;" d="M63.948,128c-1.507,0-2.655-1.937-3.731-3.3S28.646,82.018,24.773,76.628
	s-9.184-13.274-9.184-30.206C15.589,22.601,36.934,0,63.948,0h0.105c27.013,0,48.359,22.601,48.359,46.422
	c0,16.933-5.311,24.816-9.184,30.206S68.859,123.336,67.783,124.7s-2.224,3.3-3.731,3.3H63.948z M41.993,60.879l16.574,0.108v24.969
	l26.26-41.435H68.36V19.229L41.993,60.879z"/>
</svg>
