<?xml version="1.0" encoding="iso-8859-1"?>
<!-- Generator: Adobe Illustrator 27.7.0, SVG Export Plug-In . SVG Version: 6.00 Build 0)  -->
<svg version="1.1" id="Layer_1" xmlns="http://www.w3.org/2000/svg" xmlns:xlink="http://www.w3.org/1999/xlink" x="0px" y="0px"
	 viewBox="0 0 128 128" style="enable-background:new 0 0 128 128;" xml:space="preserve">
<g>
	<polygon style="fill:#00AB66;" points="19.68,79.266 19.917,82.783 20.471,85.549 20.708,87.485 18.732,90.647 29.52,90.647 
		27.781,86.577 28.572,83.138 31.18,78.791 29.362,76.974 26.517,80.333 26.161,76.499 25.055,75.986 24.343,76.499 23.434,75.986 
		22.17,76.776 21.458,78.278 	"/>
	<path style="fill-rule:evenodd;clip-rule:evenodd;" d="M48.094,90.647h-15.61c-0.751-0.553-2.292-2.174-2.845-4.11
		c-0.435-1.502,0.356-2.292,0.711-2.924c0.869-1.62,1.225-1.976,1.778-3.32l1.027-1.265c0.514,1.423,1.62,0.83,1.62,0.83
		c0.277,0,0.672,0.593,1.225,0.593c0.356,0,1.107-0.435,1.146-0.356c0.158,0.514,1.146,0.435,1.423,0.356
		c0.948-0.316,0.83-0.909,1.383-0.948c1.265-0.079,1.62-1.027,1.62-1.027c0.356-0.158,1.186,0.158,1.66-0.237
		c0.593-0.474,0.83-1.265,0.988-1.383c0.079-0.119,0.988-0.395,1.66-1.344c0.79-1.107,0.711-2.608,0.751-2.687
		c-0.04,0.04,0.553-0.435,0.435-1.304c0.198-0.632-0.198-1.778-0.198-1.778c0-0.237,1.699-1.027,1.186-3.636
		c-0.198-1.027-0.553-1.027-0.869-2.015c-0.198-0.514-1.423-1.383-1.423-1.423c0,0,0.316-0.632,0.435-1.146
		c0.119-0.435,0.435-0.474,0.356-1.541h3.082H128v30.666H48.094L48.094,90.647z"/>
	<polygon style="fill-rule:evenodd;clip-rule:evenodd;fill:#FFFFFF;" points="49.912,81.676 63.585,81.676 63.585,77.922 
		55.76,77.922 55.76,75.788 63.071,75.788 63.071,72.073 55.76,72.073 55.76,69.86 63.427,69.86 63.427,66.106 49.912,66.106 
		49.912,81.676 	"/>
	<path style="fill-rule:evenodd;clip-rule:evenodd;fill:#FFFFFF;" d="M65.719,73.733c1.107-0.553,2.529-0.988,3.873-0.988
		c1.423,0,2.964,0.198,2.964,1.66c-0.514-0.04-1.423-0.158-2.174-0.158c-2.806,0-6.007,0.711-6.007,4.268
		c0,2.45,2.094,3.399,4.268,3.399c1.581,0,3.003-0.632,3.794-1.936h0.04v1.66h5.216v-7.034c0-4.228-3.912-4.821-7.113-4.821
		c-2.174,0-3.201,0.198-4.861,0.672L65.719,73.733L65.719,73.733z M72.556,76.934c0,0.988-0.593,2.094-1.739,2.094
		c-0.869,0-1.304-0.316-1.304-1.107c0-1.186,1.344-1.304,2.49-1.304h0.553V76.934L72.556,76.934z"/>
	<polygon style="fill-rule:evenodd;clip-rule:evenodd;fill:#FFFFFF;" points="79.353,64.96 79.353,81.716 84.964,81.716 
		84.964,64.96 79.353,64.96 	"/>
	<path style="fill-rule:evenodd;clip-rule:evenodd;fill:#FFFFFF;" d="M86.98,81.676h5.612V70.058H86.98V81.676L86.98,81.676z
		 M92.592,64.96H86.98v3.873h5.612V64.96L92.592,64.96z"/>
	<path style="fill-rule:evenodd;clip-rule:evenodd;fill:#FFFFFF;" d="M94.488,81.676h5.612v-6.679c0-0.672,0-1.581,0.988-1.581
		s0.988,0.909,0.988,1.581v6.679h5.612v-8.062c0-2.253-1.107-3.833-4.07-3.833c-1.581,0-3.122,0.632-3.794,2.292h-0.04v-2.015
		h-5.295L94.488,81.676L94.488,81.676z"/>
	<path style="fill-rule:evenodd;clip-rule:evenodd;fill:#FFFFFF;" d="M123.139,70.058V80.53c0,1.028-0.158,2.055-0.593,2.964
		c-0.869,1.818-2.885,3.161-6.797,3.161c-2.49,0-4.505-0.277-6.087-0.711l0.001-3.754c1.067,0.632,2.727,1.107,4.387,1.107
		c2.411,0,3.675-1.067,3.675-3.557h-0.039c-0.869,1.225-2.253,1.936-3.833,1.936c-3.478,0-4.94-2.687-4.94-5.77
		c0-3.28,1.423-6.125,5.019-6.125c1.936,0,3.596,0.909,3.912,2.648h0.039v-2.371H123.139z M114.919,75.749
		c0,1.067,0.158,2.332,1.383,2.332c1.304,0,1.462-1.265,1.462-2.253c0-1.067-0.158-2.411-1.462-2.411
		C115.077,73.417,114.919,74.761,114.919,75.749L114.919,75.749z"/>
	<path d="M23.553,37.297c0.435,0,1.225,0.316,1.778,0.909c0.316-0.158,1.304-0.711,1.739-0.711l1.186,0.04
		c1.146,0.04,1.976,1.66,4.347,1.699c1.146,0.04,3.082,2.766,4.07,2.766c1.897,0.04,1.541,1.739,1.541,1.739
		s2.174,1.976,2.174,3.043c0,0.158,0,0.395,0,0.632c0,0-0.316,0.316,0,0.751c0.04,0.04,1.66,0.711,2.411,1.778
		c0.632,0.948,0.593,2.055,0.593,2.055c0.04,0.079,1.146,0.395,1.146,1.304l-0.04,1.383c0,0.514-0.435,0.632-0.435,0.948
		c0,0.514,1.186,0.316,1.107,3.122c0,0.474,0.514,0.711,0.514,1.304c0,0.711-0.672,0.514-0.672,0.83s0,0.514-0.04,0.869
		c-0.04,0.909-0.356,0.909-0.356,1.146c0,0.158,2.529,1.936,2.45,4.426c-0.04,1.66-1.186,1.936-1.541,2.213
		c0.356,0.395,0.514,0.948,0.514,1.186c0,0.316-0.04,0.83-0.04,1.186c0,0.198-0.079,0.395-0.553,0.83
		c0.395,0.632,0.316,0.435,0.316,0.869c0,0.198-1.186,2.411-2.411,2.411c-0.04,1.067-0.79,1.462-1.541,1.462
		c-0.237,0-0.395,0-0.632,0c-0.593,0,0.119,1.186-1.936,1.107c-0.277,0-0.237,0.948-1.107,0.948c-0.435,0-0.632-0.553-0.83-0.553
		c-0.119,0-0.158,0.435-1.067,0.395c-0.632,0-0.632-0.435-0.948-0.435c-0.158,0-0.079,0-0.632,0c-1.265-0.04-0.395-0.632-1.66-1.107
		c-1.186,2.174-0.909,0.632-1.423,1.66c-2.45,4.782-2.885,4.663-2.924,5.256c0,0.198,0,0.553-0.04,1.936
		c-0.04,1.186,2.332,3.833,2.569,3.991c0,0-1.541,0.04-2.608,0c-0.356-0.277-1.462-2.806-1.462-3.517
		c0-0.119,0.356-0.988,0.356-1.265c0,0,0-0.514,0.04-0.869c0.079-3.201,3.201-4.426,3.241-6.204c0-0.435-0.593-0.83-1.146-1.107
		l-3.32,4.308c0,0-0.356-2.924-0.316-4.189c0-0.435-0.079-0.83-0.514-1.304c-0.395,0.237-0.632,0.514-1.067,0.514
		c-0.474,0-0.79-0.435-0.948-0.435l-0.988,0.711c0,0.158,0,0.079,0,0.632c0,0.237-0.553,1.699-1.976,1.66
		c-0.04,1.344-0.04,1.225-0.079,2.332c0,0.277,0.316,0.474,0.277,1.699c0,0.198,0.751,3.201,0.751,3.754
		c-0.04,0.909-0.988,1.541-1.739,3.241h-1.66c0.514-0.909,2.094-2.45,2.134-4.031c0.04-0.83-0.474-1.62-0.474-2.055
		c-0.079-3.873,0.079-2.727,0.079-3.32c0.04-1.383-1.502-1.778-2.094-2.174c-0.751,0.988-0.395,1.146-1.423,1.146
		c-0.553,0-0.514,0-0.948-0.04c0,0-1.739,1.857-2.924,1.857c-0.277,0-0.474,0-0.751-0.04c-0.514,0-0.79,0.514-1.383,0.514
		c-1.146-0.04-1.462-1.146-1.778-1.225c-2.49-0.751-3.201-0.435-3.161-2.015c-1.067-0.04-1.067-0.356-1.027-1.304
		c-0.514,0-0.514,0-0.948-0.04c-0.632,0-0.751-0.04-0.711-0.672c-0.158-0.83,0.474-1.067,0.514-1.423
		c0-0.474-0.553-0.316-0.948-0.356c-0.514,0-0.751-0.356-0.711-2.055c0-0.474,0.158-0.395,0.237-0.948
		c-0.395-0.237-1.581-1.462-1.541-1.857c0-0.435,0.316-0.474,0.356-0.83c0-0.079-0.435-0.237-0.395-0.751
		c0-0.474,0.435-0.83,0.672-1.067c-0.277-0.435-0.316-0.395-0.316-0.751c0-0.711,1.304-0.751,1.66-1.976
		C2.015,65.158,1.699,65,1.699,65s-1.265-0.909-1.225-1.739c0-0.593,0.198-0.79,0.474-1.146c-0.751-0.79-0.751-0.316-0.711-1.186
		c0.04-1.107,0.869-2.015,1.027-2.411C0.948,58.4,0,58.36,0,57.531c0-0.751,0.751-1.186,1.344-1.897
		c-0.356-0.316-0.83-0.474-0.83-0.988c0.04-0.988,0.988-0.79,0.988-1.265c0-0.198,0-0.316,0-0.514
		c0.04-1.897,2.253-1.818,2.964-2.608c-0.277-0.277-0.435-0.316-0.395-0.632c0-0.514,0.435-0.632,0.435-0.83
		c0-0.277,0-0.474,0-0.751c0.04-2.134,1.383-1.818,1.541-2.094c0.079-0.119,0-0.909,0.04-1.067c0.593-1.778,3.596-2.332,3.794-2.766
		c1.067-2.094,1.502-1.067,2.727-1.62c0.395-0.198-0.04-1.541,1.344-1.897c1.027-0.277,1.146,0.158,1.581,0.04
		c0.079,0,0.672-0.514,1.304-0.514c0.158,0,0.632,0.04,1.265,0.553c0.672-0.632,1.423-0.909,2.174-0.909
		c0.711,0,1.225,0.474,1.502,0.474C21.775,38.206,22.446,37.258,23.553,37.297L23.553,37.297z"/>
	<path style="fill:#00AB66;" d="M23.751,38.048c0.988,0.04,1.225,0.79,1.699,0.79c0.198,0,0.632-0.632,2.055-0.593
		c1.699,0.04,1.067,0.79,2.648,0.83c1.027,0.04,1.383,0.79,1.383,0.79c0.277,0.119,2.134-0.751,2.332,1.344
		c1.304,0.04,1.62,0.632,1.66,1.423c0.79-0.119,1.067,0.04,1.067,0.04c1.265,0.04,1.383,0.672,1.344,1.739
		c1.146,0.119,1.146,0.751,1.146,1.541c0.553,0.158,0.632,0.395,0.632,0.672c0,0.356-0.316,0.237-0.356,0.632
		c0,0,0.316,0,0.277,1.304c3.003,0.277,2.885,3.715,2.885,3.715c0.158,0.277,0.869-0.198,0.83,1.304
		c0,0.277,0.435,0.158,0.395,0.632c0,0.632-0.356,0.395-0.869,1.027c0.632,0.316,1.66,1.739,1.62,2.608
		c0,0.672-0.079,2.49-0.079,3.517c0,0.514-0.316,1.027-0.988,1.265v0.316c1.383,0.553,2.687,2.648,2.687,3.794
		c-0.04,1.857-1.581,1.739-2.094,2.49c0.474,0.356,1.027,0.988,1.027,1.502c0,0.474-0.04,0.79-0.04,1.265
		c-0.04,0.79-0.553,0.277-0.553,0.83c0,0.198,0,0.356,0,0.632c0,0.474-0.948,2.094-1.976,2.094c-0.277,0.988-1.027,1.107-1.62,0.83
		h-0.435c-0.119,1.462-2.49,1.739-2.49,1.739c-0.198,0-0.435-0.435-0.751-0.435c-0.198,0-0.514,0.316-0.751,0.316
		c0,0,0.079-0.316-1.383-0.356c-0.553,0-0.79-0.514-0.83-0.988c-1.225,0.198-1.462-0.04-1.502-0.04
		c-0.198,0-0.277,0.435-0.632,0.395c-0.356,0-0.04-0.553-1.462-0.553c-0.672,0-0.83-0.711-1.146-1.304
		c-0.632,0.316-0.711,0.395-1.304,0.395c-0.83-0.04-0.672-0.356-0.948-0.356c-0.316,0-0.474,0.751-1.186,0.711
		c-0.079,0-0.672-0.553-0.83-0.553c-0.277,0-0.435,0.514-0.751,0.514c-0.079,0-0.632-0.395-0.83-0.869
		c-0.553,0.395,0.04,0.83-2.055,1.423c0.198,0.593,0.316,0.593,0.316,0.869c0,0.435-0.356,0.435-0.751,0.395
		c-0.04,0.395-0.079,0.632-0.435,0.632c-0.356,0-0.277,0-0.514,0c-0.711,0-0.593,0.395-1.304,0.395
		c-0.119,0-0.909-0.277-1.344-0.988c-0.514,0.395-1.027,1.462-1.976,1.462c0,0-0.514-0.158-0.83-0.435h-0.316
		c-0.04,1.225-0.514,1.936-1.541,1.66c-0.198,0.514-0.158,0.869-0.869,0.83c-0.83-0.04-1.186-0.04-1.818-0.04
		c-1.541-0.04-0.909-0.593-1.265-0.79c0,0-3.082-0.119-2.608-1.778c-0.237-0.079-0.514-0.119-0.869-0.119
		c-0.514,0-0.632-0.83-0.632-0.869c0-0.079,0.198-0.395,0-0.751c-0.277,0-0.395,0.316-0.751,0.316c-0.158,0-0.514-0.395-0.514-0.553
		c0-0.395,0.711-1.146,0.909-1.462c-0.672-0.237-0.751,0.079-0.83-0.553c-0.672,0.119-0.514,0.277-0.948-0.04v-0.316
		c0.04-0.237,0.079-0.277,0.277-0.395v-0.316c-0.474-0.079-0.632-0.079-0.632-0.632c0-0.079,0.277-0.79,0.79-1.383v-0.316
		c-0.474,0.119-0.83,0.316-1.186,0.277c-0.158,0-0.198,0-0.316,0c0.04-0.119,0.158-0.356,0-0.632c-0.158-0.198-0.751,0-0.711-0.751
		c0-0.237,0.277-0.672,0.553-0.83c-0.119-0.277-0.316-0.474-0.316-0.672c0-0.079,0.474-0.751,1.107-1.146
		c-0.356-0.277-0.514-0.277-1.067-0.237l0.356-0.514c1.502-0.948,0.83-1.067,1.304-2.015v-0.514
		c-0.711,0.079-0.751,0.237-1.186-0.119c0.079-0.119,0.158-0.158,0.316-0.316c-0.514-0.553-0.83-0.356-0.83-0.988
		c0-0.277,0.356-1.107,0.869-1.265c-0.395-0.553-1.067-0.593-1.027-1.304c0-0.632,0.711-1.818,1.344-2.213v-0.316
		c-0.751-0.04-1.581-0.079-1.581-0.79c0,0,0.198-0.79,1.423-1.344c-0.395-0.672-1.027-0.198-1.027-0.869
		c0-0.435,0.711-0.869,1.383-1.107c-0.158-0.474-0.316-0.395-0.316-1.107c0-0.079,0.237-1.423,3.359-2.134
		c-0.316-0.435-1.067-0.632-1.027-0.869c0-0.277,0.553-0.435,0.553-0.751c0-0.04,0.119-0.672,0.119-1.107
		c0-0.237,0.119-1.344,1.581-1.502C6.679,45.517,6.6,45.201,6.6,45.201c0.04-0.79,0.356-0.672,0.869-0.711
		c0.04-1.225,1.344-1.857,2.49-1.423c1.423-3.161,1.857-1.818,3.675-2.371c-0.277-1.186,0.079-1.62,1.146-1.62
		c0.435,0,0.553-0.277,0.909-0.277c0.553,0,0.395-0.316,1.383-0.277c0.593,0,1.107,0.316,1.344,0.751l0.119-0.079
		c0.158-0.593,0.751-0.948,1.62-0.909c0.198,0,1.265,0.198,1.699,0.593h0.316C22.486,38.285,23.197,38.048,23.751,38.048
		L23.751,38.048z"/>
	<path style="fill:#FFFFFF;" d="M26.793,76.776c0.356,0.198,0.435,0.079,1.107,0.079c0.237,0,0.474,0.158,0.632,0.158
		c-0.593,0.83-0.553,1.66-1.66,2.332C26.556,78.475,26.754,78.001,26.793,76.776L26.793,76.776z"/>
	<path d="M17.823,80.293c1.502,0.948,0.672,1.541,0.632,2.529c0,0,0.237,2.687,0.474,3.873c0.04,0.237-1.186,2.608-2.45,3.952H8.971
		v-7.588c0.869,0.356,0.83,0.395,1.146,0.395c0.909,0,1.304-0.593,1.462-0.593c0.751-0.079,0.869,0.119,1.344,0
		c1.936-0.553,2.253-1.462,2.569-1.62C16.242,80.846,16.163,81.874,17.823,80.293L17.823,80.293z"/>
</g>
</svg>
