<?xml version="1.0" encoding="iso-8859-1"?>
<!-- Generator: Adobe Illustrator 27.7.0, SVG Export Plug-In . SVG Version: 6.00 Build 0)  -->
<svg version="1.1" id="Layer_1" xmlns="http://www.w3.org/2000/svg" xmlns:xlink="http://www.w3.org/1999/xlink" x="0px" y="0px"
	 viewBox="0 0 128 128" style="enable-background:new 0 0 128 128;" xml:space="preserve">
<path id="Path_2" style="fill:#616160;" d="M22.051,85.146c-0.931,0.014-1.854-0.178-2.702-0.561
	c-0.808-0.373-1.535-0.901-2.14-1.555c-0.616-0.687-1.1-1.482-1.428-2.345c-0.352-0.919-0.526-1.897-0.51-2.881v-0.055
	c-0.003-0.983,0.17-1.958,0.51-2.88c0.318-0.868,0.803-1.664,1.428-2.345c0.614-0.668,1.35-1.213,2.167-1.606
	c0.873-0.394,1.821-0.594,2.779-0.586c0.556-0.006,1.112,0.045,1.657,0.153c0.477,0.09,0.94,0.244,1.377,0.456
	c0.409,0.192,0.794,0.432,1.147,0.714c0.358,0.276,0.698,0.574,1.02,0.892l-1.505,1.862c-0.499-0.508-1.065-0.945-1.682-1.3
	c-0.626-0.336-1.329-0.503-2.039-0.485c-0.611-0.01-1.215,0.13-1.759,0.408c-0.53,0.267-1.005,0.63-1.402,1.071
	c-0.392,0.48-0.701,1.023-0.913,1.606c-0.215,0.632-0.327,1.295-0.332,1.963v0.051c-0.008,0.669,0.104,1.334,0.332,1.963
	c0.191,0.6,0.501,1.155,0.913,1.631c0.39,0.454,0.867,0.827,1.402,1.096c0.548,0.267,1.149,0.406,1.759,0.408
	c0.73,0.016,1.451-0.16,2.091-0.51c0.631-0.377,1.214-0.831,1.734-1.352l1.505,1.631c-0.318,0.386-0.677,0.736-1.071,1.045
	c-0.373,0.301-0.774,0.566-1.198,0.79c-0.447,0.242-0.929,0.414-1.428,0.51C23.205,85.089,22.628,85.16,22.051,85.146z"/>
<path id="Path_3" style="fill:#616160;" d="M29.699,70.591h2.32v5.939h6.373v-5.939h2.32v14.301h-2.32v-6.045h-6.373v6.045h-2.32
	V70.591z"/>
<path id="Path_4" style="fill:#616160;" d="M48.665,70.488h2.167l5.863,14.403h-2.473l-1.352-3.468h-6.296l-1.377,3.468h-2.395
	L48.665,70.488z M52.004,79.232l-2.294-5.736l-2.269,5.736H52.004z"/>
<path id="Path_5" style="fill:#616160;" d="M58.76,70.591H64.7c0.757-0.015,1.509,0.115,2.217,0.382
	c0.601,0.235,1.147,0.591,1.606,1.045c0.363,0.398,0.641,0.867,0.816,1.377c0.188,0.551,0.283,1.129,0.281,1.711v0.051
	c0.009,0.536-0.068,1.069-0.228,1.581c-0.148,0.453-0.372,0.877-0.663,1.255c-0.281,0.355-0.617,0.663-0.995,0.912
	c-0.392,0.261-0.822,0.459-1.275,0.586l3.594,5.429h-2.754l-3.292-4.999h-2.931v4.997H58.76V70.591z M64.522,77.704
	c0.727,0.04,1.443-0.186,2.014-0.638c0.495-0.448,0.766-1.092,0.739-1.759v-0.051c0.051-0.673-0.213-1.332-0.714-1.784
	c-0.586-0.439-1.309-0.656-2.039-0.611h-3.416v4.818h3.416V77.704z"/>
<path id="Path_6" style="fill:#616160;" d="M78.619,85.146c-0.973,0.019-1.938-0.173-2.83-0.561
	c-0.824-0.359-1.563-0.889-2.167-1.555c-0.616-0.673-1.093-1.462-1.402-2.32c-0.334-0.932-0.498-1.916-0.485-2.906v-0.051
	c-0.001-0.966,0.172-1.925,0.51-2.83c0.324-0.872,0.808-1.676,1.428-2.37c0.623-0.668,1.367-1.213,2.192-1.606
	c0.861-0.404,1.803-0.604,2.754-0.586c0.53-0.001,1.058,0.042,1.581,0.128c0.456,0.07,0.902,0.198,1.325,0.382
	c0.408,0.153,0.793,0.358,1.148,0.611c0.371,0.241,0.721,0.514,1.045,0.816l-1.483,1.912c-0.252-0.226-0.516-0.439-0.79-0.638
	c-0.262-0.191-0.545-0.354-0.842-0.485c-0.311-0.136-0.636-0.238-0.968-0.306c-0.378-0.074-0.763-0.108-1.148-0.102
	c-0.595-0.008-1.183,0.133-1.711,0.408c-0.527,0.27-0.996,0.643-1.377,1.096c-0.823,0.997-1.267,2.252-1.255,3.544v0.051
	c-0.012,0.694,0.1,1.385,0.332,2.039c0.196,0.59,0.506,1.136,0.912,1.606c0.394,0.455,0.881,0.82,1.428,1.071
	c0.585,0.261,1.22,0.391,1.86,0.382c0.608,0.004,1.212-0.099,1.784-0.306c0.518-0.18,1.001-0.448,1.428-0.79v-2.702h-3.39v-2.192
	h5.66v6.02c-0.344,0.315-0.71,0.605-1.096,0.867c-0.41,0.278-0.846,0.517-1.3,0.714c-0.486,0.207-0.989,0.369-1.505,0.485
	C79.721,85.096,79.17,85.155,78.619,85.146z"/>
<path id="Path_7" style="fill:#616160;" d="M87.032,70.591h9.84v2.269h-7.52v3.671h6.68v2.273h-6.68v3.823h7.623v2.269h-9.943
	V70.591z"/>
<path id="Path_8" style="fill:#616160;" d="M99.575,70.591h4.971c0.977-0.012,1.946,0.17,2.852,0.535
	c0.841,0.347,1.604,0.858,2.244,1.505c0.64,0.645,1.136,1.418,1.454,2.269c0.34,0.895,0.513,1.846,0.51,2.804v0.051
	c0.003,0.966-0.17,1.925-0.51,2.83c-0.318,0.851-0.814,1.624-1.453,2.269c-0.64,0.646-1.403,1.158-2.244,1.505
	c-0.904,0.374-1.873,0.564-2.852,0.561h-4.972V70.591z M104.521,82.648c0.654,0.002,1.303-0.119,1.912-0.357
	c1.12-0.465,1.99-1.382,2.395-2.524c0.23-0.62,0.342-1.278,0.332-1.939v-0.051c0.008-0.669-0.104-1.334-0.332-1.963
	c-0.636-1.818-2.384-3.007-4.308-2.931h-2.623v9.764L104.521,82.648z"/>
<path id="Path_9" style="fill:none;stroke:#76B72A;stroke-width:24.745;stroke-linecap:round;stroke-miterlimit:10;" d="
	M79.18,58.226"/>
<path id="Path_10" style="fill:#76B72A;" d="M110.97,95.063H15.882c-0.986-0.211-1.613-1.181-1.402-2.167
	c0.151-0.703,0.7-1.252,1.402-1.402h95.089c0.879,0.113,1.51,0.903,1.428,1.785C112.49,94.164,111.854,94.958,110.97,95.063z"/>
<path id="Path_11" style="fill:#616160;" d="M19.935,110.027c-0.53,0.013-1.057-0.074-1.555-0.256
	c-0.454-0.169-0.864-0.439-1.198-0.79c-0.348-0.381-0.609-0.833-0.764-1.325c-0.183-0.586-0.268-1.197-0.254-1.81v-5.481h1.555
	v5.429c-0.043,0.727,0.164,1.447,0.586,2.039c0.904,0.907,2.37,0.919,3.288,0.025c0.441-0.564,0.651-1.275,0.586-1.988v-5.481h1.555
	v5.404c0.008,0.632-0.087,1.26-0.281,1.862c-0.156,0.499-0.416,0.96-0.764,1.351c-0.332,0.359-0.742,0.638-1.198,0.816
	C20.985,109.96,20.461,110.029,19.935,110.027z"/>
<path id="Path_12" style="fill:#616160;" d="M28.296,100.34h1.555v4.791l4.207-4.791h1.912l-3.697,4.106l3.85,5.429h-1.886
	l-3.034-4.289l-1.377,1.53v2.779h-1.555v-9.555H28.296z"/>
<path id="Path_13" style="fill:#616160;" d="M46.09,100.34h1.555v8.03h4.665v1.505h-6.22V100.34z"/>
<path id="Path_14" style="fill:#616160;" d="M56.415,100.34h1.555v9.535h-1.555V100.34z"/>
<path id="Path_15" style="fill:#616160;" d="M62.763,100.34h1.657l2.702,4.512l2.702-4.512h1.657v9.535h-1.558v-6.832l-2.804,4.486
	h-0.048l-2.779-4.461v6.806h-1.556v-9.534H62.763z"/>
<path id="Path_16" style="fill:#616160;" d="M76.249,100.34h1.555v9.535h-1.555V100.34z"/>
<path id="Path_17" style="fill:#616160;" d="M84.763,101.895h-2.804v-1.555h7.186v1.555h-2.804v7.985H84.76L84.763,101.895z"/>
<path id="Path_18" style="fill:#616160;" d="M93.201,100.34h6.552v1.505h-4.996v2.448h4.436v1.505h-4.436v2.549h5.074v1.505h-6.629
	V100.34z"/>
<path id="Path_19" style="fill:#616160;" d="M104.086,100.34h3.314c0.654-0.002,1.303,0.119,1.912,0.357
	c0.561,0.231,1.072,0.569,1.505,0.995c0.418,0.434,0.746,0.945,0.968,1.505c0.23,0.602,0.342,1.242,0.332,1.887v0.025
	c0.008,0.644-0.104,1.284-0.332,1.887c-0.216,0.563-0.545,1.075-0.968,1.505c-0.427,0.439-0.939,0.786-1.505,1.02
	c-0.606,0.25-1.257,0.372-1.912,0.357h-3.314V100.34z M107.4,108.37c0.435,0.005,0.868-0.072,1.274-0.228
	c0.369-0.145,0.7-0.372,0.968-0.663c0.271-0.295,0.479-0.642,0.611-1.02c0.156-0.416,0.234-0.856,0.228-1.3v-0.028
	c0.003-0.444-0.074-0.884-0.228-1.3c-0.142-0.381-0.349-0.734-0.611-1.045c-0.275-0.29-0.604-0.522-0.968-0.684
	c-0.404-0.167-0.837-0.254-1.274-0.254h-1.759v6.526h1.759V108.37z"/>
<path style="fill:#76B72A;" d="M76.35,34.233v-4.636c0.169-6.551-4.997-12.003-11.548-12.186h-2.601
	c-6.552,0.182-11.719,5.633-11.55,12.186v4.509c-0.31,0.072-0.612,0.175-0.89,0.336c-2.701,1.1-4.459,3.736-4.436,6.653
	c-0.067,3.832,2.974,6.999,6.806,7.087h2.295v10.197c0.003,1.66,1.348,3.005,3.008,3.008c1.66-0.003,3.005-1.348,3.008-3.008V48.181
	h6.042v10.197c0.003,1.66,1.348,3.005,3.008,3.008c1.66-0.003,3.006-1.348,3.009-3.008V48.181h2.268
	c3.69-0.155,6.646-3.111,6.801-6.801C81.713,38.006,79.475,35.088,76.35,34.233z M74.749,42.139H52.112
	c-0.5-0.101-0.842-0.564-0.79-1.071c-0.008-0.456,0.251-0.875,0.663-1.071c0.281,0,0.537-0.025,0.765-0.025
	c0.256,0,0.485-0.025,0.638-0.025c0.03,0,0.06,0,0.089-0.001c0.436-0.012,0.846-0.119,1.217-0.295
	c1.15-0.423,1.974-1.518,1.974-2.814v-7.24c-0.173-3.221,2.287-5.977,5.507-6.17h2.603c3.033,0,5.506,2.78,5.506,6.17v4.385h-7.138
	c-1.661,0-3.008,1.347-3.008,3.008c0,1.661,1.347,3.008,3.008,3.008h11.604c0.5,0.101,0.842,0.564,0.79,1.071
	C75.581,41.573,75.243,42.03,74.749,42.139z"/>
<path style="fill:#76B72A;" d="M47.879,51.231c-1.906-0.858-3.517-2.237-4.672-3.947c-0.318,0.058-0.626,0.181-0.871,0.428
	c-1.306,1.34-2.78,2.505-4.385,3.468c-1.513,0.802-3.208,1.197-4.92,1.147c-1.412,0.013-2.807-0.299-4.079-0.913
	c-1.265-0.618-2.385-1.495-3.288-2.574c-0.976-1.156-1.721-2.489-2.192-3.926c-0.537-1.567-0.804-3.213-0.79-4.869v-0.102
	c-0.018-1.648,0.25-3.286,0.79-4.843c0.478-1.42,1.222-2.737,2.192-3.878c0.92-1.073,2.047-1.948,3.314-2.574
	c1.27-0.619,2.667-0.931,4.079-0.913c1.661-0.032,3.302,0.363,4.767,1.147c1.559,0.891,2.991,1.989,4.257,3.263
	c0.33,0.332,0.787,0.509,1.255,0.485c0.466-0.033,0.898-0.254,1.198-0.611l2.046-2.541c0.014-1.99,0.384-3.889,1.029-5.648
	c-0.641-0.605-1.302-1.189-2.002-1.726c-1.074-0.832-2.237-1.542-3.468-2.116c-1.323-0.607-2.708-1.068-4.13-1.377
	c-1.617-0.339-3.267-0.502-4.92-0.485c-2.866-0.034-5.704,0.567-8.311,1.759c-2.454,1.142-4.656,2.763-6.475,4.767
	c-1.837,2.031-3.273,4.392-4.232,6.958c-1.01,2.707-1.52,5.575-1.505,8.464v0.102c-0.017,2.9,0.501,5.777,1.53,8.489
	c0.967,2.555,2.402,4.906,4.232,6.934c1.801,1.966,3.976,3.552,6.399,4.665c2.533,1.166,5.293,1.759,8.082,1.734
	c1.688,0.012,3.371-0.172,5.017-0.549c1.488-0.333,2.928-0.855,4.283-1.555c1.277-0.664,2.481-1.459,3.594-2.371
	c1.132-0.934,2.181-1.965,3.136-3.08c0.554-0.63,0.543-1.575-0.025-2.192L47.879,51.231z"/>
<path style="fill:#76B72A;" d="M125.909,122.417H2.091c-1.15-0.005-2.083-0.935-2.091-2.085V7.674
	c0.005-1.153,0.938-2.086,2.091-2.091h123.818c1.153,0.005,2.086,0.938,2.091,2.091v112.658c0.001,1.151-0.932,2.084-2.083,2.085
	C125.914,122.417,125.912,122.417,125.909,122.417z M4.18,118.235h119.638V9.76H4.18V118.235z"/>
<path style="fill:#76B72A;" d="M113.671,58.069l-8.693-13.104c0.653-0.302,1.284-0.652,1.887-1.045
	c1.197-0.791,2.257-1.772,3.136-2.906c0.911-1.169,1.609-2.489,2.065-3.9c0.507-1.573,0.756-3.217,0.739-4.869v-0.102
	c0.015-1.798-0.287-3.584-0.892-5.277c-0.576-1.574-1.44-3.027-2.549-4.283c0-0.026-0.025-0.026-0.025-0.051
	c-1.411-1.452-3.125-2.575-5.019-3.288c-2.144-0.796-4.418-1.185-6.705-1.147H81.35c-0.002,0-0.005,0-0.007,0
	c-0.913,0.002-1.652,0.744-1.651,1.657v5.296c0.406,1.445,0.634,2.968,0.634,4.548v2.072c3.223,2.015,5.337,5.621,5.237,9.697
	c-0.101,4.13-2.451,7.693-5.872,9.527v8.098c0,0.002,0,0.005,0,0.007c0.002,0.913,0.744,1.652,1.657,1.65h6.348
	c0.002,0,0.005,0,0.007,0c0.913-0.002,1.652-0.744,1.65-1.657V46.959h5.506l8.513,12.949c0.306,0.462,0.823,0.74,1.377,0.739h7.545
	c0.61,0.015,1.175-0.323,1.452-0.867C114.032,59.237,114.002,58.584,113.671,58.069z M102.995,32.605
	c0.074,1.353-0.472,2.667-1.483,3.569c-1.251,0.985-2.821,1.475-4.411,1.377h-7.75l0.005-9.916h7.699
	c1.614-0.114,3.219,0.336,4.538,1.274c0.998,0.917,1.515,2.244,1.402,3.594V32.605z"/>
<path style="opacity:0.6;fill:#FFFFFF;" d="M125.909,122.417H2.091c-1.15-0.005-2.083-0.935-2.091-2.085V7.674
	c0.005-1.153,0.938-2.086,2.091-2.091h123.818c1.153,0.005,2.086,0.938,2.091,2.091v112.658c0.001,1.151-0.932,2.084-2.083,2.085
	C125.914,122.417,125.912,122.417,125.909,122.417z"/>
</svg>
