<?xml version="1.0" encoding="UTF-8"?>
<svg id="Layer_1" data-name="Layer 1" xmlns="http://www.w3.org/2000/svg" viewBox="0 0 128 102.85">
  <defs>
    <style>
      .cls-1 {
        fill: #32a7de;
        stroke-width: 0px;
      }
    </style>
  </defs>
  <path class="cls-1" d="m30.42,91.74v2.82c0,4.62-4.68,8.29-7.76,8.29h-9.9c-4.6,0-8.46-3.55-8.46-8.29v-32.55c0-3.57.61-8.33,3.47-12.9C.41,47.11,0,42.36,0,37.68c0-8.15,4.36-10.99,10.06-10.99,3.97,0,6.35,1.2,7.38,1.95C26.02,4.77,31.68,0,64,0c32.32,0,37.98,4.77,46.56,28.63,1.03-.75,3.41-1.95,7.38-1.95,5.7,0,10.06,2.84,10.06,10.99,0,4.69-.41,9.43-7.77,11.44,2.86,4.56,3.47,9.33,3.47,12.9s0,28.57,0,32.55c0,4.75-3.86,8.29-8.46,8.29-6.98,0-6.81,0-9.9,0s-7.76-3.67-7.76-8.29v-2.82s-67.16,0-67.16,0Zm11.93-28.86v-4.28c0-.81-.44-1.47-1.25-1.47l-13.55-.81c-.81,0-1.47.66-1.47,1.47v4.94c0,.65.54,1.19,1.19,1.19h14.03c.58,0,1.04-.47,1.04-1.04Zm21.65-22.58c9.83,0,30.32.91,33.17.97s3.95-1.4,2.25-5.49c-1.97-4.75-4.18-10.24-7.12-15.8-3.41-6.45-12.84-6.45-28.31-6.45-15.47,0-24.9,0-28.31,6.45-2.94,5.56-5.15,11.05-7.12,15.8-1.7,4.09-.61,5.55,2.25,5.49s23.34-.97,33.17-.97Zm22.7,23.63h14.03c.65,0,1.19-.54,1.19-1.19v-4.94c0-.81-.66-1.47-1.47-1.47l-13.55.81c-.81,0-1.25.66-1.25,1.47v4.28c0,.58.47,1.04,1.04,1.04Z"/>
</svg>