<?xml version="1.0" encoding="iso-8859-1"?>
<!-- Generator: Adobe Illustrator 27.7.0, SVG Export Plug-In . SVG Version: 6.00 Build 0)  -->
<svg version="1.1" id="Layer_1" xmlns="http://www.w3.org/2000/svg" xmlns:xlink="http://www.w3.org/1999/xlink" x="0px" y="0px"
	 viewBox="0 0 128 128" style="enable-background:new 0 0 128 128;" xml:space="preserve">
<path style="fill:#0074BC;" d="M49.489,15.273c1.331,0.149,2.668,0.254,3.991,0.451c9.704,1.444,17.049,8.084,18.952,16.544
	c1.143,5.076,0.363,9.964-1.733,14.634c-1.058,2.359-2.403,4.589-3.687,7.007c0.805,0.493,1.73,1.06,2.656,1.624
	c0.508,0.31,1.017,0.615,1.527,0.921c2.779,1.668,3.773,3.848,3.196,7.035c-0.468,2.579-0.97,5.153-1.399,7.738
	c-0.051,0.45,0.052,0.903,0.293,1.286c1.169,1.805,1.295,3.617,0.188,5.474c-1.495,2.498-2.991,4.995-4.512,7.475
	c-1.583,2.574-4.258,3.213-6.888,1.692c-0.265-0.152-0.541-0.284-0.904-0.472c-1.017,1.679-2.091,3.26-2.968,4.942
	c-1.104,2.119-3.064,2.619-5.087,1.265c-1.214-0.812-2.444-1.542-2.222-3.243c0.1-0.611,0.316-1.197,0.637-1.726
	c1-1.73,2.057-3.423,3.134-5.202c-0.321-0.22-0.564-0.406-0.822-0.564c-3.991-2.412-7.997-4.8-11.966-7.249
	c-0.775-0.479-1.098-0.305-1.504,0.412c-0.874,1.555-1.812,3.074-2.749,4.593c-0.998,1.613-2.527,1.95-4.204,1.073
	c-3.258-1.701-3.572-3.331-1.66-6.112c0.94-1.363,1.72-2.82,2.632-4.343c-0.367-0.252-0.684-0.481-1.013-0.694
	c-2.337-1.504-3.027-4.236-1.615-6.64c1.521-2.592,3.061-5.174,4.664-7.708c1.117-1.771,2.767-2.521,4.888-2.245
	c0.422,0.028,0.84-0.094,1.181-0.346c2.222-1.681,4.403-3.418,6.614-5.114c2.211-1.696,4.649-1.82,7.009-0.425
	c1.316,0.78,2.632,1.577,3.939,2.38c0.397,0.244,0.696,0.318,1.021-0.145c2.35-3.346,4.183-6.931,4.617-11.047
	c0.667-6.304-2.467-11.692-8.353-14.261c-7.123-3.111-13.895-2.04-20.26,2.102c-5.452,3.549-8.999,8.699-11.549,14.585
	c-2.129,4.943-3.516,10.174-4.117,15.523c-0.538,4.655-0.891,9.33-1.327,13.994c-0.69,7.4-1.239,14.82-3.185,22.035
	c-0.985,3.653-2.382,7.119-4.796,10.097c-0.126,0.185-0.242,0.376-0.348,0.573c1.414,0.301,2.728,0.617,4.055,0.855
	c6.963,1.249,14.039,1.753,21.108,1.504c11.077-0.376,21.89-2.124,32.061-6.785c7.23-3.312,13.43-7.915,17.662-14.805
	c3.506-5.709,5.305-11.928,4.986-18.653c-0.22-4.779-2.207-8.868-5.311-12.455c-1.681-1.938-3.452-3.811-5.016-5.839
	c-2.068-2.677-3.517-5.679-4.155-9.041c-1.325-6.997,2.017-13.16,8.667-15.859c4.029-1.637,8.23-1.978,12.524-1.555
	c9.383,0.927,17.578,4.645,24.797,10.609c1.346,1.111,2.57,2.386,3.777,3.657c1.504,1.59,1.423,3.794-0.113,5.181
	c-1.536,1.387-3.64,1.226-5.11-0.376c-4.852-5.286-10.832-8.74-17.647-10.783c-4.324-1.297-8.738-1.856-13.226-0.854
	c-0.793,0.176-1.568,0.421-2.318,0.733c-3.792,1.587-5.285,4.7-4.183,8.678c0.84,3.038,2.577,5.55,4.7,7.813
	c2.312,2.48,4.559,5.003,6.24,7.969c2.796,4.929,3.922,10.216,3.463,15.873c-0.711,8.808-3.76,16.66-9.449,23.443
	c-4.512,5.373-10.124,9.298-16.405,12.306c-6.785,3.252-13.957,5.238-21.36,6.482c-5.68,0.925-11.423,1.401-17.177,1.425
	c-5.507,0.065-11.01-0.308-16.457-1.117c-5.288-0.799-10.517-1.88-15.502-3.901c-2.617-1.062-3.188-4.249-1.107-6.033
	c0.307-0.265,0.659-0.474,1.038-0.619c3.156-1.162,5.11-3.506,6.416-6.486c1.248-2.904,2.071-5.973,2.444-9.112
	c0.729-5.76,1.316-11.541,1.919-17.316c0.462-4.378,0.72-8.785,1.337-13.143c1.372-9.687,4.224-18.86,10.34-26.718
	C29.646,21.99,35.85,17.67,43.746,16.001c1.216-0.258,2.472-0.325,3.707-0.491c0.491-0.066,0.979-0.158,1.468-0.237H49.489z
	 M72.304,61.797c-0.053-1.48-0.613-2.53-1.784-3.237c-5.2-3.133-10.401-6.27-15.604-9.411c-1.446-0.87-2.85-0.771-4.183,0.273
	c-1.258,0.987-2.523,1.961-3.773,2.955c-1.692,1.344-1.577,2.833,0.288,3.961c5.09,3.078,10.181,6.152,15.275,9.221
	c1.85,1.115,3.685,2.256,5.557,3.331c1.299,0.752,2.739,0.233,3.064-1.151C71.622,65.737,71.941,63.699,72.304,61.797z
	 M41.749,66.48c1.804-0.005,3.266-1.463,3.277-3.267c-0.06-1.769-1.476-3.19-3.245-3.256c-1.793-0.011-3.256,1.433-3.267,3.226
	c0,0.014,0,0.029,0,0.043C38.5,65.092,39.882,66.484,41.749,66.48z M67.409,76.81c0.014-1.802-1.436-3.275-3.238-3.289
	s-3.275,1.436-3.289,3.238c-0.014,1.802,1.436,3.275,3.238,3.289S67.395,78.613,67.409,76.81z"/>
</svg>
