<?xml version="1.0" encoding="UTF-8"?>
<svg id="Layer_1" data-name="Layer 1" xmlns="http://www.w3.org/2000/svg" viewBox="0 0 128 128">
  <g>
    <g>
      <g>
        <path d="m28.06,56.67l-8.69,7.29v8.93c0,1.41.84,2.24,2.28,2.24h14.16c1.43,0,2.27-.82,2.27-2.24v-8.91l-8.7-7.31c-.43-.36-.89-.35-1.32,0Zm3.41,9.78v6.86h-5.49v-6.86c0-.48.32-.78.78-.78h3.93c.48,0,.78.3.78.78Z"/>
        <path d="m41.01,62.52l-2.93-2.46v-4.2c0-.41-.27-.7-.68-.7h-1.06c-.41,0-.7.29-.7.7v2.15l-5.41-4.54c-.9-.78-2.08-.78-3,0l-10.81,9.05c-.22.19-.33.44-.33.7,0,.43.35.84.9.84.27,0,.49-.16.68-.33l10.46-8.77c.41-.35.78-.32,1.17,0l10.43,8.77c.24.17.44.33.71.33.48,0,.87-.33.87-.81,0-.32-.1-.54-.32-.73Z"/>
      </g>
      <g>
        <path d="m51.59,56.67l-8.69,7.29v8.93c0,1.41.84,2.24,2.28,2.24h14.16c1.43,0,2.27-.82,2.27-2.24v-8.91l-8.7-7.31c-.43-.36-.89-.35-1.32,0Zm3.41,9.78v6.86h-5.49v-6.86c0-.48.32-.78.78-.78h3.93c.48,0,.78.3.78.78Z"/>
        <path d="m64.54,62.52l-2.93-2.46v-4.2c0-.41-.27-.7-.68-.7h-1.06c-.41,0-.7.29-.7.7v2.15l-5.41-4.54c-.9-.78-2.08-.78-3,0l-10.81,9.05c-.22.19-.33.44-.33.7,0,.43.35.84.9.84.27,0,.49-.16.68-.33l10.46-8.77c.41-.35.78-.32,1.17,0l10.43,8.77c.24.17.44.33.71.33.48,0,.87-.33.87-.81,0-.32-.1-.54-.32-.73Z"/>
      </g>
      <g>
        <path d="m75.11,56.67l-8.69,7.29v8.93c0,1.41.84,2.24,2.28,2.24h14.16c1.43,0,2.27-.82,2.27-2.24v-8.91l-8.7-7.31c-.43-.36-.89-.35-1.32,0Zm3.41,9.78v6.86h-5.49v-6.86c0-.48.32-.78.78-.78h3.93c.48,0,.78.3.78.78Z"/>
        <path d="m88.06,62.52l-2.93-2.46v-4.2c0-.41-.27-.7-.68-.7h-1.06c-.41,0-.7.29-.7.7v2.15l-5.41-4.54c-.9-.78-2.08-.78-3,0l-10.81,9.05c-.22.19-.33.44-.33.7,0,.43.35.84.9.84.27,0,.49-.16.68-.33l10.46-8.77c.41-.35.78-.32,1.17,0l10.43,8.77c.24.17.44.33.71.33.48,0,.87-.33.87-.81,0-.32-.1-.54-.32-.73Z"/>
      </g>
      <g>
        <path d="m98.64,56.67l-8.69,7.29v8.93c0,1.41.84,2.24,2.28,2.24h14.16c1.43,0,2.27-.82,2.27-2.24v-8.91l-8.7-7.31c-.43-.36-.89-.35-1.32,0Zm3.41,9.78v6.86h-5.49v-6.86c0-.48.32-.78.78-.78h3.93c.48,0,.78.3.78.78Z"/>
        <path d="m111.59,62.52l-2.93-2.46v-4.2c0-.41-.27-.7-.68-.7h-1.06c-.41,0-.7.29-.7.7v2.15l-5.41-4.54c-.9-.78-2.08-.78-3,0l-10.81,9.05c-.22.19-.33.44-.33.7,0,.43.35.84.9.84.27,0,.49-.16.68-.33l10.46-8.77c.41-.35.78-.32,1.17,0l10.43,8.77c.24.17.44.33.71.33.48,0,.87-.33.87-.81,0-.32-.1-.54-.32-.73Z"/>
      </g>
    </g>
    <g>
      <g>
        <path d="m39.83,26.87l-8.69,7.29v8.93c0,1.41.84,2.24,2.28,2.24h14.16c1.43,0,2.27-.82,2.27-2.24v-8.91l-8.7-7.31c-.43-.36-.89-.35-1.32,0Zm3.41,9.78v6.86h-5.49v-6.86c0-.48.32-.78.78-.78h3.93c.48,0,.78.3.78.78Z"/>
        <path d="m52.78,32.72l-2.93-2.46v-4.2c0-.41-.27-.7-.68-.7h-1.06c-.41,0-.7.29-.7.7v2.15l-5.41-4.54c-.9-.78-2.08-.78-3,0l-10.81,9.05c-.22.19-.33.44-.33.7,0,.43.35.84.9.84.27,0,.49-.16.68-.33l10.46-8.77c.41-.35.78-.32,1.17,0l10.43,8.77c.24.17.44.33.71.33.48,0,.87-.33.87-.81,0-.32-.1-.54-.32-.73Z"/>
      </g>
      <g>
        <path d="m63.35,26.87l-8.69,7.29v8.93c0,1.41.84,2.24,2.28,2.24h14.16c1.43,0,2.27-.82,2.27-2.24v-8.91l-8.7-7.31c-.43-.36-.89-.35-1.32,0Zm3.41,9.78v6.86h-5.49v-6.86c0-.48.32-.78.78-.78h3.93c.48,0,.78.3.78.78Z"/>
        <path d="m76.3,32.72l-2.93-2.46v-4.2c0-.41-.27-.7-.68-.7h-1.06c-.41,0-.7.29-.7.7v2.15l-5.41-4.54c-.9-.78-2.08-.78-3,0l-10.81,9.05c-.22.19-.33.44-.33.7,0,.43.35.84.9.84.27,0,.49-.16.68-.33l10.46-8.77c.41-.35.78-.32,1.17,0l10.43,8.77c.24.17.44.33.71.33.48,0,.87-.33.87-.81,0-.32-.1-.54-.32-.73Z"/>
      </g>
      <g>
        <path d="m86.87,26.87l-8.69,7.29v8.93c0,1.41.84,2.24,2.28,2.24h14.16c1.43,0,2.27-.82,2.27-2.24v-8.91l-8.7-7.31c-.43-.36-.89-.35-1.32,0Zm3.41,9.78v6.86h-5.49v-6.86c0-.48.32-.78.78-.78h3.93c.48,0,.78.3.78.78Z"/>
        <path d="m99.83,32.72l-2.93-2.46v-4.2c0-.41-.27-.7-.68-.7h-1.06c-.41,0-.7.29-.7.7v2.15l-5.41-4.54c-.9-.78-2.08-.78-3,0l-10.81,9.05c-.22.19-.33.44-.33.7,0,.43.35.84.9.84.27,0,.49-.16.68-.33l10.46-8.77c.41-.35.78-.32,1.17,0l10.43,8.77c.24.17.44.33.71.33.48,0,.87-.33.87-.81,0-.32-.1-.54-.32-.73Z"/>
      </g>
    </g>
    <g>
      <g>
        <path d="m39.83,86.46l-8.69,7.29v8.93c0,1.41.84,2.24,2.28,2.24h14.16c1.43,0,2.27-.82,2.27-2.24v-8.91l-8.7-7.31c-.43-.36-.89-.35-1.32,0Zm3.41,9.78v6.86h-5.49v-6.86c0-.48.32-.78.78-.78h3.93c.48,0,.78.3.78.78Z"/>
        <path d="m52.78,92.31l-2.93-2.46v-4.2c0-.41-.27-.7-.68-.7h-1.06c-.41,0-.7.29-.7.7v2.15l-5.41-4.54c-.9-.78-2.08-.78-3,0l-10.81,9.05c-.22.19-.33.44-.33.7,0,.43.35.84.9.84.27,0,.49-.16.68-.33l10.46-8.77c.41-.35.78-.32,1.17,0l10.43,8.77c.24.17.44.33.71.33.48,0,.87-.33.87-.81,0-.32-.1-.54-.32-.73Z"/>
      </g>
      <g>
        <path d="m63.35,86.46l-8.69,7.29v8.93c0,1.41.84,2.24,2.28,2.24h14.16c1.43,0,2.27-.82,2.27-2.24v-8.91l-8.7-7.31c-.43-.36-.89-.35-1.32,0Zm3.41,9.78v6.86h-5.49v-6.86c0-.48.32-.78.78-.78h3.93c.48,0,.78.3.78.78Z"/>
        <path d="m76.3,92.31l-2.93-2.46v-4.2c0-.41-.27-.7-.68-.7h-1.06c-.41,0-.7.29-.7.7v2.15l-5.41-4.54c-.9-.78-2.08-.78-3,0l-10.81,9.05c-.22.19-.33.44-.33.7,0,.43.35.84.9.84.27,0,.49-.16.68-.33l10.46-8.77c.41-.35.78-.32,1.17,0l10.43,8.77c.24.17.44.33.71.33.48,0,.87-.33.87-.81,0-.32-.1-.54-.32-.73Z"/>
      </g>
      <g>
        <path d="m86.87,86.46l-8.69,7.29v8.93c0,1.41.84,2.24,2.28,2.24h14.16c1.43,0,2.27-.82,2.27-2.24v-8.91l-8.7-7.31c-.43-.36-.89-.35-1.32,0Zm3.41,9.78v6.86h-5.49v-6.86c0-.48.32-.78.78-.78h3.93c.48,0,.78.3.78.78Z"/>
        <path d="m99.83,92.31l-2.93-2.46v-4.2c0-.41-.27-.7-.68-.7h-1.06c-.41,0-.7.29-.7.7v2.15l-5.41-4.54c-.9-.78-2.08-.78-3,0l-10.81,9.05c-.22.19-.33.44-.33.7,0,.43.35.84.9.84.27,0,.49-.16.68-.33l10.46-8.77c.41-.35.78-.32,1.17,0l10.43,8.77c.24.17.44.33.71.33.48,0,.87-.33.87-.81,0-.32-.1-.54-.32-.73Z"/>
      </g>
    </g>
  </g>
  <path d="m63.98,128c35.03,0,64.02-28.99,64.02-63.98S98.96,0,63.93,0,0,28.99,0,64.02s28.99,63.98,63.98,63.98Zm0-9.14c-30.37,0-54.79-24.47-54.79-54.84S33.56,9.19,63.93,9.19s54.89,24.42,54.89,54.84-24.42,54.84-54.84,54.84Z"/>
</svg>