<?xml version="1.0" encoding="UTF-8"?>
<svg id="Layer_1" data-name="Layer 1" xmlns="http://www.w3.org/2000/svg" viewBox="0 0 512 512">
  <defs>
    <style>
      .cls-1 {
        fill: #e1e1e1;
      }

      .cls-2 {
        fill: #231f20;
      }

      .cls-3 {
        fill: #787878;
      }
    </style>
  </defs>
  <circle class="cls-2" cx="256" cy="256" r="256"/>
  <circle class="cls-3" cx="256" cy="256" r="238.07"/>
  <path class="cls-1" d="m128.69,190.83c-35.96,0-65.11,29.15-65.11,65.11s29.15,65.11,65.11,65.11,65.13-29.12,65.13-65.11-29.17-65.11-65.13-65.11Zm0,93.8c-15.84,0-28.67-12.86-28.67-28.69s12.83-28.67,28.67-28.67,28.67,12.84,28.67,28.67-12.83,28.69-28.67,28.69Z"/>
  <path class="cls-1" d="m383.04,190.83c-35.96,0-65.11,29.15-65.11,65.11s29.15,65.11,65.11,65.11,65.13-29.12,65.13-65.11-29.17-65.11-65.13-65.11Zm0,93.8c-15.84,0-28.67-12.86-28.67-28.69s12.83-28.67,28.67-28.67,28.67,12.84,28.67,28.67-12.83,28.69-28.67,28.69Z"/>
  <g>
    <path class="cls-1" d="m305.3,171.11c9.77-11.39,15.68-26.19,15.68-42.37s-5.91-30.96-15.68-42.35l-42.36,42.36,42.35,42.35Z"/>
    <path class="cls-1" d="m255.88,121.69l42.36-42.36c-11.39-9.77-26.18-15.69-42.36-15.69s-30.98,5.91-42.37,15.68l42.37,42.37Z"/>
    <path class="cls-1" d="m206.44,86.4c-9.76,11.39-15.67,26.17-15.67,42.35s5.91,30.98,15.68,42.37l42.36-42.36-42.36-42.36Z"/>
    <path class="cls-1" d="m255.88,135.83l-42.36,42.36c11.38,9.77,26.17,15.69,42.36,15.69s30.97-5.92,42.35-15.69l-42.35-42.35Z"/>
  </g>
  <g>
    <circle class="cls-3" cx="255.88" cy="88.47" r="9"/>
    <circle class="cls-3" cx="255.88" cy="169.06" r="9"/>
  </g>
  <g>
    <circle class="cls-3" cx="296.17" cy="128.76" r="9"/>
    <circle class="cls-3" cx="215.58" cy="128.76" r="9"/>
  </g>
  <g>
    <path class="cls-1" d="m305.3,425.45c9.77-11.39,15.68-26.19,15.68-42.37s-5.91-30.96-15.68-42.35l-42.36,42.36,42.35,42.35Z"/>
    <path class="cls-1" d="m255.88,376.03l42.36-42.36c-11.39-9.77-26.18-15.69-42.36-15.69s-30.98,5.91-42.37,15.68l42.37,42.37Z"/>
    <path class="cls-1" d="m206.44,340.74c-9.76,11.39-15.67,26.17-15.67,42.35s5.91,30.98,15.68,42.37l42.36-42.36-42.36-42.36Z"/>
    <path class="cls-1" d="m255.88,390.17l-42.36,42.36c11.38,9.77,26.17,15.69,42.36,15.69s30.97-5.92,42.35-15.69l-42.35-42.35Z"/>
  </g>
  <g>
    <circle class="cls-3" cx="255.88" cy="342.81" r="9"/>
    <circle class="cls-3" cx="255.88" cy="423.4" r="9"/>
  </g>
  <g>
    <circle class="cls-3" cx="296.17" cy="383.1" r="9"/>
    <circle class="cls-3" cx="215.58" cy="383.1" r="9"/>
  </g>
</svg>