<?xml version="1.0" encoding="UTF-8"?>
<svg id="Layer_1" data-name="Layer 1" xmlns="http://www.w3.org/2000/svg" viewBox="0 0 364 512">
  <defs>
    <style>
      .cls-1 {
        fill: #e1e1e1;
      }

      .cls-2 {
        fill: #231f20;
      }

      .cls-3 {
        fill: #787878;
      }
    </style>
  </defs>
  <rect class="cls-2" x="0" y="0" width="364" height="512" rx="182" ry="182"/>
  <path class="cls-3" d="m297.81,66.19c-28.45-28.45-65.32-45.19-104.81-47.82v20.62h-22v-20.62c-39.49,2.63-76.36,19.37-104.81,47.82-31.08,31.08-48.19,72.2-48.19,115.81v148c0,43.6,17.11,84.73,48.19,115.81,23.65,23.65,53.11,39.2,85.06,45.29,8.15-7.34,18.92-11.83,30.75-11.83s22.6,4.49,30.75,11.83c31.95-6.09,61.42-21.64,85.06-45.29,31.08-31.08,48.19-72.21,48.19-115.81v-148c0-43.6-17.11-84.73-48.19-115.81Z"/>
  <circle class="cls-1" cx="97" cy="199.67" r="21"/>
  <circle class="cls-1" cx="267" cy="199.67" r="21"/>
  <circle class="cls-1" cx="97" cy="322.33" r="21"/>
  <circle class="cls-1" cx="182" cy="406.68" r="21"/>
  <circle class="cls-1" cx="267" cy="322.33" r="21"/>
  <circle class="cls-1" cx="103.49" cy="113.65" r="11"/>
  <circle class="cls-1" cx="260.51" cy="113.65" r="11"/>
</svg>