<?xml version="1.0" encoding="UTF-8"?>
<svg id="Layer_2" data-name="Layer 2" xmlns="http://www.w3.org/2000/svg" viewBox="0 0 128 42.02">
  <defs>
    <style>
      .cls-1 {
        fill: #fff;
        stroke-width: 0px;
      }
    </style>
  </defs>
  <g id="Layer_1-2" data-name="Layer 1">
    <g>
      <path class="cls-1" d="m45.22,42.02c-4.5,0-8.15-3.65-8.15-8.15s3.65-8.15,8.15-8.15,8.15,3.65,8.15,8.15-3.65,8.15-8.15,8.15Zm4.7-8.15c0-2.6-2.11-4.7-4.7-4.7s-4.7,2.11-4.7,4.7,2.11,4.7,4.7,4.7,4.7-2.11,4.7-4.7Z"/>
      <path class="cls-1" d="m108.25,42.02c-4.5,0-8.15-3.65-8.15-8.15s3.65-8.15,8.15-8.15,8.15,3.65,8.15,8.15-3.65,8.15-8.15,8.15Zm4.7-8.15c0-2.6-2.11-4.7-4.7-4.7s-4.7,2.11-4.7,4.7,2.11,4.7,4.7,4.7,4.7-2.11,4.7-4.7Z"/>
      <path class="cls-1" d="m1.56,40.76h8.93c.94,0,1.57-1.57.31-2.19-1.77-.89-1.72-1.51-1.72-3.37v-13.6c2.17,1.94,4.95,3.49,9.17,3.49h8.78v5.8c0,2.48,5.63,3.11,7.53,3.25,0-.09,0-.18,0-.28,0-5.89,4.77-10.66,10.66-10.66s10.66,4.77,10.66,10.66c0,.82-.09,1.61-.27,2.37h42.24c-.17-.77-.27-1.56-.27-2.37,0-5.89,4.77-10.66,10.66-10.66s10.66,4.77,10.66,10.66c0,.32-.02.63-.04.94h7.26c1.57,0,1.88-1.25,1.88-2.36v-8.62c0-2.19-1.57-6.27-5.64-7.84s-17.25-4.08-21.01-4.7-11.6-7.84-16.62-9.41-10.03-1.88-16.62-1.88h-8.67c-6.48,0-14.22,6.9-20.83,8-2.49.41-4.36.47-7.49.47-1.57,1.88-4.08,10.66-4.08,13.8h-8.78c-4.09,0-7.15-2.37-9.17-4.56v-6.33c0-1.85-1.49-3.35-3.33-3.37-1.84.02-3.33,1.52-3.33,3.37v23.83c0,1.86.05,2.48-1.72,3.37-1.25.63-.63,2.19.31,2.19h.55,0Zm35.51-21.95c-3.46,5.77-6.92,6.23-9.41,6.27v-2.81c4.01-.11,6.39-3.99,6.83-4.62-.54-.61-.87-1.41-.87-2.29,0-1.91,1.54-3.45,3.45-3.45s3.45,1.54,3.45,3.45-1.54,3.45-3.45,3.45h0Z"/>
    </g>
  </g>
</svg>