<?xml version="1.0" encoding="iso-8859-1"?>
<!-- Generator: Adobe Illustrator 27.8.1, SVG Export Plug-In . SVG Version: 6.00 Build 0)  -->
<svg version="1.1" id="Layer_1" xmlns="http://www.w3.org/2000/svg" xmlns:xlink="http://www.w3.org/1999/xlink" x="0px" y="0px"
	 viewBox="0 0 128 128" style="enable-background:new 0 0 128 128;" xml:space="preserve">
<g>
	<path style="fill:#FFFFFF;" d="M45.222,85.009c-4.503,0-8.153-3.65-8.153-8.153c0-4.503,3.65-8.153,8.153-8.153
		s8.153,3.65,8.153,8.153C53.375,81.359,49.725,85.009,45.222,85.009z M49.926,76.856c0-2.596-2.107-4.703-4.703-4.703
		c-2.596,0-4.703,2.107-4.703,4.703c0,2.596,2.107,4.703,4.703,4.703C47.819,81.56,49.926,79.452,49.926,76.856z"/>
	<path style="fill:#FFFFFF;" d="M108.249,85.009c-4.503,0-8.153-3.65-8.153-8.153c0-4.503,3.65-8.153,8.153-8.153
		c4.503,0,8.153,3.65,8.153,8.153C116.401,81.359,112.751,85.009,108.249,85.009z M112.952,76.856c0-2.596-2.107-4.703-4.703-4.703
		c-2.596,0-4.703,2.107-4.703,4.703c0,2.596,2.107,4.703,4.703,4.703C110.845,81.56,112.952,79.452,112.952,76.856z"/>
	<path style="fill:#FFFFFF;" d="M5.713,50.987c0,0,0.025,0,0.038,0s0.025,0,0.038,0H5.71H5.713z"/>
	<path style="fill:#FFFFFF;" d="M1.562,83.755c0,0,8.306,0,8.933,0c0.941,0,1.568-1.568,0.314-2.195
		c-1.775-0.887-1.725-1.508-1.725-3.371V64.59c2.173,1.944,4.948,3.487,9.172,3.487h8.78v5.804c0,2.48,5.632,3.111,7.532,3.252
		c0-0.091-0.006-0.182-0.006-0.276c0-5.889,4.772-10.661,10.661-10.661c5.889,0,10.661,4.772,10.661,10.661
		c0,0.815-0.094,1.612-0.27,2.374h42.24c-0.172-0.765-0.27-1.558-0.27-2.374c0-5.889,4.772-10.661,10.661-10.661
		s10.661,4.772,10.661,10.661c0,0.317-0.016,0.63-0.044,0.941h7.256c1.568,0,1.881-1.254,1.881-2.358v-8.617
		c0-2.195-1.568-6.271-5.644-7.839c-4.076-1.568-17.246-4.076-21.009-4.703c-3.763-0.627-11.602-7.839-16.619-9.407
		c-5.017-1.568-10.031-1.881-16.616-1.881h-8.67c-6.475,0-14.22,6.898-20.833,7.996c-2.487,0.414-4.359,0.47-7.494,0.47
		c-1.568,1.881-4.076,10.661-4.076,13.797h-8.78c-4.092,0-7.149-2.367-9.172-4.562v-6.334c0-1.847-1.489-3.349-3.33-3.368
		c-1.844,0.022-3.33,1.521-3.33,3.368v23.831c0,1.863,0.05,2.483-1.725,3.371c-1.254,0.627-0.627,2.195,0.314,2.195
		c0,0,0.188,0,0.552,0H1.562z M37.07,61.805c-3.462,5.77-6.92,6.231-9.407,6.268v-2.806c4.01-0.107,6.387-3.995,6.833-4.619
		c-0.542-0.608-0.875-1.411-0.875-2.289c0-1.906,1.543-3.449,3.449-3.449s3.449,1.543,3.449,3.449s-1.543,3.449-3.449,3.449V61.805z
		"/>
</g>
</svg>
