<?xml version="1.0" encoding="UTF-8"?>
<svg id="Layer_1" data-name="Layer 1" xmlns="http://www.w3.org/2000/svg" xmlns:xlink="http://www.w3.org/1999/xlink" viewBox="0 0 122.9 128">
  <defs>
    <style>
      .cls-1 {
        fill: none;
        opacity: .6;
      }

      .cls-2 {
        fill: url(#linear-gradient);
      }

      .cls-3 {
        fill: #fff;
      }

      .cls-4 {
        fill: url(#linear-gradient-3);
      }

      .cls-5 {
        fill: url(#linear-gradient-2);
      }
    </style>
    <linearGradient id="linear-gradient" x1="130.21" y1="35.09" x2="-23.9" y2="67.85" gradientUnits="userSpaceOnUse">
      <stop offset="0" stop-color="#42b38e"/>
      <stop offset=".24" stop-color="#42b38e"/>
      <stop offset=".42" stop-color="#40b08c"/>
      <stop offset=".53" stop-color="#3da887"/>
      <stop offset=".62" stop-color="#369a7f"/>
      <stop offset=".7" stop-color="#2d8573"/>
      <stop offset=".77" stop-color="#216b64"/>
      <stop offset=".83" stop-color="#134b51"/>
      <stop offset=".9" stop-color="#02263b"/>
      <stop offset=".9" stop-color="#002138"/>
    </linearGradient>
    <linearGradient id="linear-gradient-2" x1="96.41" y1="71.51" x2="1.09" y2="91.78" gradientUnits="userSpaceOnUse">
      <stop offset="0" stop-color="#42b38e"/>
      <stop offset=".24" stop-color="#42b38e"/>
      <stop offset=".45" stop-color="#40b08c"/>
      <stop offset=".57" stop-color="#3da887"/>
      <stop offset=".67" stop-color="#369a7f"/>
      <stop offset=".76" stop-color="#2d8573"/>
      <stop offset=".85" stop-color="#216b64"/>
      <stop offset=".92" stop-color="#134b51"/>
      <stop offset=".99" stop-color="#02263b"/>
      <stop offset="1" stop-color="#002138"/>
    </linearGradient>
    <linearGradient id="linear-gradient-3" x1="73.7" y1="96.38" x2="9.29" y2="112.01" gradientUnits="userSpaceOnUse">
      <stop offset="0" stop-color="#42b38e"/>
      <stop offset=".24" stop-color="#42b38e"/>
      <stop offset=".45" stop-color="#40b08c"/>
      <stop offset=".57" stop-color="#3da887"/>
      <stop offset=".67" stop-color="#369a7f"/>
      <stop offset=".76" stop-color="#2d8573"/>
      <stop offset=".85" stop-color="#216b64"/>
      <stop offset=".92" stop-color="#134b51"/>
      <stop offset=".99" stop-color="#02263b"/>
      <stop offset="1" stop-color="#002138"/>
    </linearGradient>
  </defs>
  <g>
    <path class="cls-2" d="m7.23,108C-.36,58.14,30.49,29.57,100.76,35.83L122.9,2.31C112.04.76,101.76,0,92.12,0,19.78,0-16.48,42.54,7.23,108"/>
    <path class="cls-5" d="m13.92,118.13c3.04-39.85,26.47-51.62,65.15-49.46l12.54-18.99c-4.89-.5-9.64-.74-14.21-.74-43.61,0-72.12,22.55-63.48,69.19"/>
    <path class="cls-4" d="m19.63,128c6.67-22.75,19.79-33.35,41.65-31.16l9.1-13.77c-3.06-.38-6.03-.56-8.88-.56-25,0-41.9,14.39-41.86,45.5"/>
  </g>
  <g class="cls-1">
    <path class="cls-3" d="m7.23,108C-.36,58.14,30.49,29.57,100.76,35.83L122.9,2.31C112.04.76,101.76,0,92.12,0,19.78,0-16.48,42.54,7.23,108"/>
    <path class="cls-3" d="m13.92,118.13c3.04-39.85,26.47-51.62,65.15-49.46l12.54-18.99c-4.89-.5-9.64-.74-14.21-.74-43.61,0-72.12,22.55-63.48,69.19"/>
    <path class="cls-3" d="m19.63,128c6.67-22.75,19.79-33.35,41.65-31.16l9.1-13.77c-3.06-.38-6.03-.56-8.88-.56-25,0-41.9,14.39-41.86,45.5"/>
  </g>
</svg>