<?xml version="1.0" encoding="iso-8859-1"?>
<!-- Generator: Adobe Illustrator 27.7.0, SVG Export Plug-In . SVG Version: 6.00 Build 0)  -->
<svg version="1.1" id="Layer_1" xmlns="http://www.w3.org/2000/svg" xmlns:xlink="http://www.w3.org/1999/xlink" x="0px" y="0px"
	 viewBox="0 0 128 128" style="enable-background:new 0 0 128 128;" xml:space="preserve">
<g>
	<path style="fill:#B7321F;" d="M64,113.409c10.437,0,14.484-7.135,17.358-10.968S128,34.714,128,34.714H85.724
		c0,0,3.088,9.903-2.874,12.672c0,6.39,0,7.988,0,9.798s0.745,18.956-18.848,18.956c-19.595,0-18.848-17.144-18.848-18.956v-9.798
		c-5.965-2.768-2.874-12.672-2.874-12.672H0c0,0,43.768,63.894,46.642,67.727S53.563,113.409,64,113.409z"/>
	<rect x="52.316" y="14.591" style="fill:#B7321F;" width="5.674" height="19.547"/>
	<rect x="70.01" y="14.591" style="fill:#B7321F;" width="5.674" height="19.547"/>
</g>
<g style="opacity:0.6;">
	<path style="fill:#FFFFFF;" d="M64,113.409c10.437,0,14.484-7.135,17.358-10.968S128,34.714,128,34.714H85.724
		c0,0,3.088,9.903-2.874,12.672c0,6.39,0,7.988,0,9.798s0.745,18.956-18.848,18.956c-19.595,0-18.848-17.144-18.848-18.956v-9.798
		c-5.965-2.768-2.874-12.672-2.874-12.672H0c0,0,43.768,63.894,46.642,67.727S53.563,113.409,64,113.409z"/>
	<rect x="52.316" y="14.591" style="fill:#FFFFFF;" width="5.674" height="19.547"/>
	<rect x="70.01" y="14.591" style="fill:#FFFFFF;" width="5.674" height="19.547"/>
</g>
</svg>
