<?xml version="1.0" encoding="iso-8859-1"?>
<!-- Generator: Adobe Illustrator 27.8.1, SVG Export Plug-In . SVG Version: 6.00 Build 0)  -->
<svg version="1.1" id="Layer_1" xmlns="http://www.w3.org/2000/svg" xmlns:xlink="http://www.w3.org/1999/xlink" x="0px" y="0px"
	 viewBox="0 0 128 128" style="enable-background:new 0 0 128 128;" xml:space="preserve">
<path id="Fill-1" style="fill-rule:evenodd;clip-rule:evenodd;fill:#18A9D5;" d="M111.711,77.892
	c-0.054-1.008-0.154-2.744-0.311-4.857c-0.158-2.113-0.375-4.601-0.689-7.113c-0.322-2.512-0.73-5.044-1.35-7.27
	c-0.155-0.557-0.327-1.095-0.521-1.611c-0.194-0.517-0.402-1.01-0.659-1.482c-0.257-0.47-0.551-0.919-0.928-1.326
	c-0.373-0.406-0.854-0.773-1.4-0.986l-0.404-0.158l-0.419,0.058c-0.419,0.059-0.826,0.188-1.184,0.37
	c-0.35,0.187-0.653,0.413-0.894,0.646c-0.124,0.116-0.228,0.234-0.331,0.351c-0.092,0.116-0.193,0.234-0.269,0.348
	c-0.163,0.23-0.299,0.454-0.413,0.67c-0.452,0.864-0.666,1.605-0.845,2.262c-0.338,1.311-0.461,2.294-0.565,3.044
	c-0.093,0.748-0.143,1.259-0.171,1.585c-0.028,0.325-0.042,0.465-0.042,0.465s-0.02,0.262-0.062,0.797
	c-0.04,0.532-0.092,1.335-0.145,2.405c-0.049,1.06-0.11,2.393-0.184,4.008c-0.026,0.527-0.057,1.087-0.099,1.664
	c-0.235-0.513-0.48-1.059-0.733-1.622c-0.556-1.23-1.145-2.544-1.836-3.829c-0.35-0.645-0.718-1.281-1.195-1.918
	c-0.242-0.318-0.508-0.639-0.892-0.969c-0.09-0.081-0.209-0.166-0.317-0.245c-0.128-0.083-0.248-0.162-0.408-0.239
	c-0.3-0.147-0.698-0.281-1.168-0.283l-0.422-0.001l-0.349,0.187c-0.098,0.052-0.193,0.114-0.285,0.183
	c-0.045,0.035-0.088,0.07-0.13,0.107l-0.063,0.057l-0.042,0.046c-0.054,0.06-0.105,0.122-0.154,0.187
	c-0.024,0.032-0.046,0.065-0.069,0.098s-0.046,0.07-0.055,0.089c-0.052,0.094-0.1,0.192-0.142,0.289
	c-0.011,0.027-0.017,0.046-0.023,0.062l-0.019,0.053l-0.034,0.107l-0.031,0.108l-0.018,0.082l-0.032,0.167
	c-0.018,0.101-0.026,0.183-0.036,0.275c-0.029,0.328-0.023,0.577-0.016,0.818c0.022,0.469,0.066,0.864,0.113,1.232
	c0.096,0.732,0.208,1.339,0.307,1.869c0.204,1.056,0.375,1.79,0.5,2.321c0.605,2.555,1.295,4.484,2.104,6.263
	c0.405,0.888,0.846,1.737,1.34,2.595c0.249,0.429,0.51,0.86,0.793,1.299c0.143,0.219,0.29,0.439,0.449,0.659
	c0.158,0.217,0.317,0.447,0.522,0.639c-0.089-0.259-0.121-0.527-0.161-0.785c-0.038-0.261-0.069-0.518-0.097-0.77
	c-0.053-0.507-0.104-0.998-0.156-1.482c-0.097-0.966-0.199-1.897-0.329-2.844c-0.238-1.769-0.588-3.598-1.087-5.836
	c0.121,0.267,0.241,0.533,0.361,0.797c0.55,1.222,1.068,2.397,1.608,3.435c0.135,0.261,0.275,0.513,0.422,0.761
	c0.147,0.249,0.302,0.49,0.497,0.744c0.052,0.068,0.102,0.129,0.159,0.196c0.03,0.035,0.061,0.068,0.09,0.101
	c0.03,0.033,0.06,0.067,0.101,0.104c0.038,0.037,0.075,0.072,0.112,0.108c0.036,0.033,0.092,0.079,0.138,0.115l0.073,0.057
	l0.037,0.028l0.049,0.033c0.064,0.043,0.129,0.083,0.196,0.121c0.027,0.017,0.082,0.043,0.124,0.062
	c0.045,0.021,0.091,0.04,0.136,0.059c0.049,0.018,0.086,0.034,0.144,0.051c0.06,0.018,0.12,0.033,0.182,0.046
	c0.221,0.054,0.544,0.061,0.815,0.003c0.139-0.031,0.276-0.075,0.402-0.13c0.112-0.05,0.212-0.109,0.309-0.174
	c0.046-0.031,0.102-0.069,0.133-0.096c0.033-0.028,0.066-0.057,0.097-0.086c0.064-0.059,0.125-0.12,0.18-0.182l0.065-0.071
	l0.053-0.082c0.167-0.252,0.281-0.486,0.355-0.678l0.06-0.147l0.047-0.137c0.032-0.091,0.06-0.18,0.082-0.262
	c0.095-0.338,0.159-0.642,0.209-0.931c0.103-0.578,0.16-1.1,0.209-1.6c0.094-0.997,0.141-1.889,0.181-2.707
	c0.072-1.615,0.133-2.948,0.179-4.009c0.051-1.05,0.101-1.819,0.136-2.329c0.039-0.508,0.06-0.757,0.06-0.757
	s0.011-0.131,0.038-0.437c0.028-0.306,0.074-0.784,0.161-1.466c0.092-0.677,0.212-1.576,0.483-2.617
	c0.136-0.512,0.316-1.075,0.562-1.533c0.047-0.088,0.097-0.172,0.146-0.247c0.056,0.086,0.113,0.183,0.17,0.289
	c0.158,0.29,0.315,0.657,0.467,1.06c0.152,0.405,0.295,0.858,0.429,1.343c0.541,1.942,0.939,4.364,1.247,6.784
	c0.302,2.425,0.518,4.865,0.676,6.944c0.158,2.08,0.264,3.801,0.327,4.799c0.163,2.56,0.411,4.567,0.795,6.465
	c0.191,0.949,0.416,1.872,0.683,2.821c0.272,0.947,0.568,1.934,0.982,2.967c0.118-1.099,0.296-2.091,0.434-3.058
	c0.144-0.966,0.266-1.899,0.356-2.86C111.795,82.502,111.848,80.476,111.711,77.892L111.711,77.892z"/>
<path id="Fill-2" style="fill-rule:evenodd;clip-rule:evenodd;fill:#3CAD59;" d="M127.984,55.291
	c-0.027-0.154-0.056-0.311-0.119-0.462c-0.063-0.151-0.134-0.304-0.246-0.446c-0.054-0.07-0.107-0.143-0.175-0.21
	c-0.069-0.066-0.141-0.131-0.218-0.195c-0.316-0.245-0.746-0.438-1.235-0.497c-0.26-0.031-0.656-0.046-1.093,0.025
	c-0.435,0.069-0.899,0.216-1.339,0.418c-0.885,0.404-1.682,1.006-2.362,1.607c-0.681,0.602-1.248,1.208-1.654,1.66
	c-0.404,0.454-0.649,0.752-0.649,0.752s-0.253,0.294-0.626,0.758c-0.373,0.465-0.866,1.099-1.354,1.776
	c-0.651,0.893-1.298,1.856-1.75,2.557c-0.382-2.579-0.824-5.201-1.011-6.124c-0.175-0.929-0.469-1.643-0.877-2.283
	c-0.204-0.322-0.444-0.618-0.714-0.919c-0.273-0.301-0.578-0.606-0.921-0.937c-0.181,0.44-0.34,0.841-0.47,1.226
	c-0.128,0.385-0.23,0.753-0.307,1.117c-0.148,0.732-0.157,1.463-0.009,2.385c0.173,0.992,0.674,3.985,1.077,6.739
	c0.105,0.689,0.199,1.362,0.285,1.985c0.087,0.624,0.171,1.194,0.231,1.681c0.126,0.972,0.209,1.6,0.209,1.6s0.307,2.512,0.58,5.275
	c0.064,0.691,0.129,1.398,0.192,2.084c0.054,0.686,0.108,1.352,0.156,1.964c0.077,1.219,0.147,2.22,0.165,2.716
	c0.025,0.458,0.084,0.868,0.171,1.246c0.08,0.375,0.191,0.722,0.336,1.062c0.072,0.17,0.154,0.337,0.242,0.507
	c0.089,0.17,0.174,0.337,0.274,0.511c0.196,0.347,0.423,0.711,0.681,1.116c0.278-0.379,0.524-0.737,0.739-1.09
	c0.105-0.177,0.209-0.353,0.294-0.528c0.084-0.176,0.162-0.351,0.229-0.53c0.138-0.358,0.242-0.727,0.311-1.128
	c0.061-0.401,0.084-0.829,0.073-1.308c-0.006-0.522-0.071-1.555-0.148-2.814c-0.049-0.626-0.103-1.31-0.159-2.012
	c-0.065-0.701-0.133-1.422-0.198-2.126c-0.111-1.096-0.229-2.151-0.329-3.031c0.035,0.063,0.07,0.126,0.106,0.189
	c0.455,0.824,0.918,1.601,1.271,2.17c0.354,0.568,0.595,0.931,0.595,0.93c0,0,0.233,0.367,0.62,0.925
	c0.386,0.559,0.931,1.309,1.584,2.069c0.652,0.761,1.419,1.533,2.26,2.119c0.419,0.293,0.86,0.536,1.281,0.704
	c0.205,0.086,0.419,0.146,0.6,0.198c0.194,0.041,0.355,0.079,0.497,0.093c0.13,0.013,0.254,0.026,0.381,0.025
	c0.129-0.004,0.253-0.013,0.374-0.026c0.247-0.039,0.476-0.099,0.684-0.194c0.417-0.183,0.737-0.458,0.941-0.765
	c0.417-0.617,0.45-1.312,0.294-2.031c-0.731,0.129-1.292,0.083-1.635-0.031c-0.174-0.05-0.286-0.128-0.362-0.185
	c-0.077-0.057-0.117-0.092-0.216-0.113c-0.023-0.001-0.065-0.019-0.11-0.025c-0.051-0.021-0.11-0.033-0.189-0.07
	c-0.152-0.064-0.363-0.176-0.609-0.349c-0.493-0.342-1.099-0.924-1.639-1.554c-0.543-0.627-1.032-1.29-1.383-1.79
	c-0.352-0.5-0.568-0.835-0.568-0.835s-0.218-0.333-0.543-0.862c-0.324-0.53-0.752-1.257-1.181-2.038
	c-0.862-1.556-1.706-3.315-1.985-3.896c-0.025-0.05-0.05-0.098-0.078-0.146c0.075-0.085,0.148-0.177,0.216-0.279
	c0.32-0.479,1.257-1.933,2.176-3.203c0.455-0.637,0.906-1.227,1.245-1.655c0.339-0.426,0.562-0.692,0.562-0.692
	s0.225-0.267,0.583-0.662c0.359-0.393,0.855-0.913,1.388-1.38c0.531-0.471,1.112-0.879,1.537-1.069
	c0.211-0.098,0.376-0.144,0.482-0.164c0.105-0.018,0.151-0.013,0.183-0.016c0.05,0.001,0.085-0.03,0.17-0.074
	c0.02-0.008,0.044-0.019,0.07-0.032c0.026-0.014,0.056-0.017,0.087-0.029c0.066-0.026,0.14-0.035,0.229-0.054
	c0.088-0.018,0.185-0.019,0.297-0.032c0.11-0.003,0.229-0.001,0.363,0.001c0.125,0.003,0.264,0.012,0.417,0.029
	c0.155,0.033,0.319,0.066,0.491,0.098c0.06-0.164,0.116-0.322,0.166-0.473c0.038-0.158,0.062-0.322,0.076-0.486
	C128.002,55.604,128.003,55.446,127.984,55.291"/>
<path id="Fill-3" style="fill-rule:evenodd;clip-rule:evenodd;fill:#FFFFFF;" d="M13.304,49.783h-1.636
	c-0.823,0-1.408-0.165-1.757-0.497c-0.348-0.331-0.523-0.827-0.523-1.489c0-0.482,0.071-0.916,0.214-1.3
	c0.143-0.385,0.259-0.648,0.349-0.791h5.096c1.77,0,2.656,0.849,2.656,2.548v4.659c0,2.13-1.649,3.897-3.775,4.043l-0.021,0.002
	c-0.67,0.044-1.372,0.067-2.106,0.067c-1.61,0-3.08-0.201-4.413-0.604c-1.333-0.402-2.476-1.006-3.434-1.811
	C3,53.806,2.257,52.801,1.73,51.593c-0.528-1.206-0.791-2.615-0.791-4.224c0-1.502,0.255-2.852,0.764-4.05
	c0.51-1.198,1.22-2.217,2.133-3.058c0.911-0.841,1.993-1.485,3.245-1.931c1.251-0.447,2.611-0.671,4.077-0.671
	c0.751,0,1.417,0.045,1.998,0.134c0.581,0.09,1.09,0.197,1.529,0.322c0.438,0.125,0.809,0.264,1.113,0.415
	c0.303,0.152,0.554,0.291,0.751,0.416c0.751,0.466,1.126,1.064,1.126,1.798c0,0.339-0.067,0.657-0.201,0.952
	c-0.134,0.295-0.291,0.554-0.47,0.778c-0.179,0.223-0.367,0.42-0.563,0.59c-0.197,0.17-0.358,0.3-0.483,0.389
	c-0.179-0.178-0.407-0.371-0.684-0.577c-0.278-0.205-0.608-0.398-0.993-0.577c-0.385-0.178-0.832-0.322-1.341-0.429
	c-0.51-0.107-1.077-0.161-1.703-0.161c-0.876,0-1.663,0.134-2.361,0.402c-0.697,0.269-1.287,0.648-1.77,1.14
	c-0.482,0.492-0.854,1.087-1.113,1.784c-0.259,0.698-0.389,1.475-0.389,2.334c0,1.914,0.54,3.317,1.623,4.211
	c1.082,0.894,2.562,1.341,4.439,1.341c0.151,0,0.507-0.014,0.848-0.03c0.441-0.021,0.788-0.385,0.788-0.827V49.783"/>
<path id="Fill-4" style="fill-rule:evenodd;clip-rule:evenodd;fill:#FFFFFF;" d="M23.017,48.711c1.198,0,2.128-0.045,2.79-0.134
	c0.662-0.089,1.153-0.205,1.475-0.349c0.322-0.143,0.518-0.304,0.59-0.483c0.071-0.179,0.107-0.358,0.107-0.537
	c0-0.375-0.17-0.701-0.51-0.979c-0.339-0.277-0.849-0.416-1.529-0.416c-0.482,0-0.902,0.085-1.261,0.255
	c-0.358,0.17-0.657,0.389-0.898,0.657c-0.241,0.269-0.425,0.577-0.55,0.925C23.106,47.999,23.035,48.352,23.017,48.711z
	 M23.232,51.5c0.036,0.215,0.13,0.425,0.281,0.63c0.152,0.206,0.367,0.399,0.644,0.577c0.277,0.179,0.63,0.322,1.06,0.429
	c0.429,0.107,0.947,0.161,1.555,0.161c0.465,0,0.903-0.04,1.315-0.121c0.123-0.024,0.363-0.094,0.64-0.181
	c0.895-0.281,1.863,0.132,2.282,0.971l0.752,1.504c-0.143,0.089-0.38,0.214-0.711,0.375c-0.331,0.161-0.747,0.322-1.248,0.483
	c-0.5,0.161-1.086,0.299-1.757,0.416c-0.671,0.115-1.408,0.174-2.213,0.174c-1.002,0-1.941-0.161-2.816-0.483
	c-0.877-0.321-1.641-0.791-2.294-1.408c-0.653-0.617-1.167-1.373-1.542-2.267c-0.375-0.894-0.563-1.913-0.563-3.058
	c0-1.073,0.188-2.056,0.563-2.95c0.376-0.894,0.894-1.654,1.556-2.28c0.661-0.626,1.439-1.113,2.334-1.462
	c0.894-0.349,1.86-0.523,2.897-0.523c0.966,0,1.833,0.13,2.602,0.389c0.769,0.259,1.417,0.613,1.945,1.06
	c0.527,0.447,0.929,0.957,1.207,1.529c0.277,0.572,0.416,1.163,0.416,1.77c0,0.662-0.116,1.257-0.349,1.784
	c-0.233,0.527-0.648,0.974-1.247,1.341c-0.599,0.367-1.413,0.649-2.441,0.845c-1.029,0.197-2.339,0.295-3.93,0.295H23.232
	L23.232,51.5z"/>
<path id="Fill-5" style="fill-rule:evenodd;clip-rule:evenodd;fill:#FFFFFF;" d="M33.012,40.744c0-0.697,0.205-1.189,0.617-1.476
	c0.411-0.286,0.956-0.429,1.636-0.429c0.482,0,0.921,0.058,1.314,0.174c0.393,0.117,0.644,0.193,0.751,0.228v3.621h3.085
	c0.805,0,1.377,0.161,1.716,0.483c0.339,0.322,0.51,0.805,0.51,1.449c0,0.465-0.071,0.899-0.214,1.301
	c-0.143,0.403-0.25,0.666-0.321,0.791H37.33v4.212c0,0.411,0.063,0.738,0.188,0.979c0.126,0.242,0.282,0.434,0.469,0.577
	c0.188,0.143,0.403,0.237,0.644,0.282c0.241,0.045,0.487,0.067,0.738,0.067c0.182,0,0.508-0.068,0.856-0.159
	c0.85-0.223,1.744,0.148,2.181,0.911l0.906,1.582c-0.161,0.143-1.368,0.831-1.797,0.993c-0.429,0.161-0.912,0.299-1.448,0.416
	c-0.537,0.115-1.1,0.174-1.689,0.174c-1.681,0-2.996-0.443-3.944-1.328c-0.949-0.885-1.422-2.07-1.422-3.555V40.744"/>
<path id="Fill-6" style="fill-rule:evenodd;clip-rule:evenodd;fill:#FFFFFF;" d="M12.392,69.608
	c-0.179-0.483-0.385-1.024-0.617-1.623c-0.233-0.599-0.456-1.18-0.67-1.744c-0.215-0.563-0.416-1.082-0.604-1.555
	c-0.188-0.474-0.335-0.827-0.443-1.06c-0.107,0.25-0.25,0.604-0.43,1.06c-0.179,0.456-0.375,0.965-0.59,1.529
	c-0.214,0.563-0.438,1.14-0.671,1.73c-0.233,0.591-0.447,1.145-0.644,1.663H12.392z M0,77.628c0.375-1.001,0.831-2.168,1.368-3.5
	c0.536-1.332,1.113-2.745,1.73-4.238s1.261-3.018,1.931-4.573c0.671-1.556,1.328-3.058,1.972-4.506
	c0.339-0.769,0.755-1.306,1.247-1.61c0.49-0.302,1.135-0.455,1.935-0.456c0.306-0.001,0.615,0.036,0.912,0.108
	c0.294,0.071,0.556,0.156,0.788,0.254c0.232,0.098,0.42,0.192,0.564,0.282c0.142,0.089,0.232,0.143,0.268,0.161
	c0.268,0.447,0.621,1.153,1.059,2.119c0.438,0.965,0.916,2.052,1.435,3.259c0.518,1.207,1.055,2.472,1.609,3.796
	c0.554,1.323,1.068,2.58,1.543,3.769c0.473,1.189,0.889,2.244,1.247,3.165c0.358,0.921,0.607,1.578,0.751,1.971h-3.126
	c-1.094,0-2.071-0.684-2.446-1.711l-0.007-0.019c-0.233-0.635-0.52-1.381-0.859-2.24H6.116c-0.286,0.751-0.541,1.439-0.765,2.065
	c-0.011,0.032-0.023,0.064-0.034,0.096c-0.39,1.087-1.425,1.808-2.58,1.808H0L0,77.628z"/>
<path id="Fill-7" style="fill-rule:evenodd;clip-rule:evenodd;fill:#FFFFFF;" d="M20.692,69.045c0-0.876,0.147-1.654,0.443-2.333
	c0.295-0.679,0.702-1.252,1.22-1.717c0.518-0.465,1.145-0.818,1.878-1.06c0.733-0.241,1.537-0.362,2.414-0.362
	c1.073,0,1.909,0.116,2.508,0.349s1.032,0.482,1.301,0.751c0.161,0.179,0.286,0.367,0.375,0.563c0.089,0.197,0.134,0.43,0.134,0.697
	c0,0.269-0.04,0.519-0.121,0.751c-0.08,0.233-0.179,0.439-0.295,0.617c-0.117,0.179-0.228,0.331-0.335,0.455
	c-0.107,0.126-0.188,0.215-0.241,0.269c-0.305-0.143-0.671-0.277-1.1-0.402c-0.429-0.125-0.903-0.188-1.422-0.188
	c-0.679,0-1.257,0.197-1.73,0.59c-0.474,0.394-0.711,1.046-0.711,1.958v7.645h-2.158c-1.193,0-2.16-0.967-2.16-2.16V69.045"/>
<path id="Fill-8" style="fill-rule:evenodd;clip-rule:evenodd;fill:#FFFFFF;" d="M37.947,74.141c0.446,0,0.862-0.085,1.248-0.255
	c0.384-0.17,0.719-0.403,1.005-0.698c0.286-0.295,0.505-0.648,0.657-1.06c0.152-0.411,0.228-0.858,0.228-1.341
	c0-0.483-0.076-0.93-0.228-1.341c-0.152-0.411-0.371-0.764-0.657-1.059c-0.286-0.295-0.621-0.528-1.005-0.697
	c-0.385-0.17-0.801-0.255-1.248-0.255c-0.466,0-0.885,0.085-1.261,0.255c-0.375,0.17-0.707,0.402-0.993,0.697
	c-0.286,0.295-0.506,0.648-0.657,1.059c-0.152,0.412-0.228,0.859-0.228,1.341c0,0.483,0.076,0.93,0.228,1.341
	c0.151,0.411,0.371,0.764,0.657,1.06c0.286,0.295,0.617,0.528,0.993,0.698C37.062,74.057,37.481,74.141,37.947,74.141z
	 M30.383,70.788c0-1.037,0.197-1.994,0.59-2.87c0.393-0.876,0.934-1.636,1.623-2.28c0.688-0.643,1.489-1.149,2.401-1.515
	c0.912-0.366,1.895-0.549,2.951-0.549c1.037,0,2.016,0.183,2.937,0.549c0.921,0.367,1.726,0.872,2.414,1.515
	c0.688,0.644,1.229,1.404,1.622,2.28c0.394,0.877,0.59,1.834,0.59,2.87c0,1.037-0.197,1.994-0.59,2.87
	c-0.393,0.876-0.935,1.636-1.622,2.28c-0.689,0.643-1.494,1.149-2.414,1.515c-0.921,0.366-1.9,0.549-2.937,0.549
	c-1.055,0-2.039-0.183-2.951-0.549c-0.912-0.366-1.712-0.872-2.401-1.515c-0.689-0.644-1.23-1.404-1.623-2.28
	C30.579,72.782,30.383,71.825,30.383,70.788L30.383,70.788z"/>
<path id="Fill-9" style="fill-rule:evenodd;clip-rule:evenodd;fill:#FFFFFF;" d="M50.584,71.244c0,1.861,0.841,2.79,2.521,2.79
	c1.681,0,2.521-0.929,2.521-2.79v-5.391c0-0.698,0.205-1.189,0.617-1.476c0.411-0.285,0.957-0.429,1.636-0.429
	c0.483,0,0.921,0.059,1.315,0.174c0.393,0.117,0.644,0.193,0.751,0.228v7.699c0,1.001-0.175,1.873-0.523,2.615
	c-0.349,0.742-0.827,1.359-1.435,1.851c-0.608,0.492-1.333,0.863-2.173,1.113c-0.84,0.25-1.743,0.375-2.709,0.375
	s-1.869-0.125-2.709-0.375c-0.841-0.25-1.565-0.621-2.173-1.113c-0.608-0.491-1.086-1.109-1.435-1.851
	c-0.349-0.742-0.523-1.614-0.523-2.615v-6.196c0-0.698,0.205-1.189,0.617-1.476c0.411-0.285,0.957-0.429,1.636-0.429
	c0.483,0,0.921,0.059,1.315,0.174c0.393,0.117,0.643,0.193,0.751,0.228V71.244"/>
<path id="Fill-10" style="fill-rule:evenodd;clip-rule:evenodd;fill:#FFFFFF;" d="M60.759,69.339c0-0.929,0.179-1.756,0.537-2.481
	c0.357-0.724,0.849-1.328,1.475-1.811c0.626-0.483,1.35-0.849,2.173-1.1c0.822-0.25,1.708-0.375,2.655-0.375
	c0.93,0,1.811,0.125,2.643,0.375c0.832,0.251,1.555,0.617,2.173,1.1c0.617,0.483,1.104,1.087,1.462,1.811
	c0.357,0.724,0.536,1.551,0.536,2.481v6.593c0,0.936-0.759,1.696-1.695,1.696h-2.623v-7.296c0-0.947-0.215-1.65-0.644-2.106
	c-0.429-0.456-1.046-0.684-1.851-0.684c-1.681,0-2.521,0.93-2.521,2.79v5.6c0,0.936-0.759,1.696-1.695,1.696h-2.624V69.339"/>
<path id="Fill-11" style="fill-rule:evenodd;clip-rule:evenodd;fill:#FFFFFF;" d="M82.773,74.034c0.894,0,1.632-0.286,2.213-0.858
	c0.581-0.572,0.872-1.359,0.872-2.36c0-0.465-0.076-0.899-0.228-1.301c-0.152-0.402-0.367-0.751-0.643-1.046
	c-0.278-0.295-0.603-0.527-0.979-0.697c-0.376-0.17-0.787-0.255-1.234-0.255c-0.895,0-1.632,0.308-2.213,0.925
	c-0.581,0.617-0.872,1.408-0.872,2.374c0,0.965,0.291,1.743,0.872,2.333C81.142,73.738,81.879,74.034,82.773,74.034z M90.123,70.171
	c0,1.145-0.117,2.137-0.349,2.977c-0.232,0.841-0.563,1.547-0.992,2.119c-0.68,0.894-1.547,1.574-2.602,2.039
	c-1.055,0.465-2.227,0.697-3.514,0.697c-1.055,0-2.034-0.174-2.938-0.523c-0.903-0.349-1.686-0.836-2.347-1.462
	c-0.661-0.625-1.18-1.386-1.555-2.28c-0.375-0.894-0.563-1.877-0.563-2.95c0-1.091,0.174-2.079,0.523-2.964
	c0.349-0.885,0.822-1.64,1.422-2.266c0.598-0.626,1.3-1.113,2.106-1.462c0.805-0.349,1.662-0.523,2.575-0.523
	c1.001,0,1.828,0.165,2.481,0.496c0.653,0.331,1.14,0.657,1.462,0.979v-5.284c0-0.698,0.206-1.189,0.617-1.475
	c0.411-0.286,0.956-0.43,1.636-0.43c0.482,0,0.916,0.059,1.301,0.175c0.384,0.116,0.63,0.192,0.738,0.228V70.171L90.123,70.171z"/>
</svg>
