<?xml version="1.0" encoding="UTF-8"?>
<svg id="Layer_1" data-name="Layer 1" xmlns="http://www.w3.org/2000/svg" xmlns:xlink="http://www.w3.org/1999/xlink" viewBox="0 0 128 124.78">
  <defs>
    <style>
      .cls-1 {
        fill: url(#linear-gradient);
      }

      .cls-1, .cls-2, .cls-3, .cls-4 {
        stroke-width: 0px;
      }

      .cls-2 {
        fill: #37a8b7;
      }

      .cls-3 {
        fill: #9bcb55;
      }

      .cls-4 {
        fill: #fff;
      }
    </style>
    <linearGradient id="linear-gradient" x1="127.28" y1="62.1" x2="1.69" y2="62.1" gradientUnits="userSpaceOnUse">
      <stop offset="0" stop-color="#9fcd53"/>
      <stop offset="1" stop-color="#83bc50"/>
    </linearGradient>
  </defs>
  <path class="cls-3" d="m25.49,63.26c3.55,14.02,9.51,30.35,16,39.17-16.03,4.17-32.15,3.4-39.67,1.64-.37-2.05-.66-3.01-1.09-6.64,4.25-10.46,15.04-25.92,24.77-34.18Z"/>
  <path class="cls-1" d="m127.28,0c-14.18,85.06-47.02,144.92-121.96,117.47l.02.07c-1.57-4.87-2.78-9.56-3.65-14.07,51.26,8.66,108.49-24.18,101.01-99.57,7.91-1.51,16.12-2.81,24.57-3.9Z"/>
  <path class="cls-2" d="m101.8,37.69c1.73-8.93,2.57-20.89,1.2-33.84C38.19,16.28-6.75,43.73.83,98.3c0,0,24.7-63.76,100.96-60.62Z"/>
  <path class="cls-4" d="m123.4,104l-7.36,11.28c-1.43,2.16-2.52,4.07-3.44,5.77h-.07c.04-1.79.04-3.45-.07-5.61l-.44-11.44h-21.01l-6.29,20.78h13.88l.93-3.05h-9.71l1.87-6.2h8.64l.93-3.02h-8.67l1.67-5.46h13.7l1.05,17.73h4.75l14.25-20.78h-4.6Z"/>
</svg>