<?xml version="1.0" encoding="iso-8859-1"?>
<!-- Generator: Adobe Illustrator 27.8.1, SVG Export Plug-In . SVG Version: 6.00 Build 0)  -->
<svg version="1.1" id="Layer_1" xmlns="http://www.w3.org/2000/svg" xmlns:xlink="http://www.w3.org/1999/xlink" x="0px" y="0px"
	 viewBox="0 0 128 128" style="enable-background:new 0 0 128 128;" xml:space="preserve">
<path style="fill:#9BCB55;" d="M25.488,64.873c3.553,14.021,9.514,30.348,15.997,39.169c-16.033,4.171-32.154,3.404-39.674,1.643
	c-0.373-2.048-0.662-3.009-1.093-6.636C4.964,88.589,15.758,73.125,25.488,64.873z"/>
<linearGradient id="SVGID_1_" gradientUnits="userSpaceOnUse" x1="127.2799" y1="63.7116" x2="1.6922" y2="63.7116">
	<stop  offset="0" style="stop-color:#9FCD53"/>
	<stop  offset="1" style="stop-color:#83BC50"/>
</linearGradient>
<path style="fill:url(#SVGID_1_);" d="M127.28,1.609C113.099,86.666,80.258,146.529,5.318,119.076l0.023,0.072
	c-1.569-4.872-2.78-9.561-3.65-14.072C52.951,113.74,110.18,80.901,102.706,5.508C110.615,3.993,118.825,2.701,127.28,1.609z"/>
<path style="fill:#37A8B7;" d="M101.795,39.294c1.728-8.93,2.573-20.889,1.202-33.842C38.187,17.886-6.748,45.342,0.833,99.91
	C0.833,99.91,25.533,36.145,101.795,39.294z"/>
<path style="fill:#FFFFFF;" d="M123.397,105.61l-7.361,11.284c-1.428,2.158-2.515,4.07-3.442,5.765h-0.07
	c0.041-1.788,0.036-3.453-0.07-5.611l-0.442-11.438h-2.571h-1.675H91.003l-6.294,20.781H98.59l0.931-3.052h-9.707l1.872-6.197h8.636
	l0.929-3.022H92.58l1.666-5.458h13.702l1.054,17.729h4.746L128,105.61H123.397z"/>
</svg>
