<?xml version="1.0" encoding="iso-8859-1"?>
<!-- Generator: Adobe Illustrator 27.8.1, SVG Export Plug-In . SVG Version: 6.00 Build 0)  -->
<svg version="1.1" id="Layer_1" xmlns="http://www.w3.org/2000/svg" xmlns:xlink="http://www.w3.org/1999/xlink" x="0px" y="0px"
	 viewBox="0 0 128 128" style="enable-background:new 0 0 128 128;" xml:space="preserve">
<path id="Path_1" style="fill-rule:evenodd;clip-rule:evenodd;fill:#FFFFFF;" d="M34.424,72.515c0,9.481-6.516,16.683-14.949,16.683
	c-1.577,0-3.147-0.281-4.592-0.909c-2.065-0.818-2.949-1.511-4.46-3.551v3.419H0V40.899h10.423v19.219
	c0.553-0.628,1.041-1.098,1.297-1.379c1.924-1.644,4.947-2.684,7.887-2.684C27.99,56.055,34.424,63.199,34.424,72.515L34.424,72.515
	z M23.596,72.623c0-3.923-3.023-7.095-6.756-7.095s-6.748,3.172-6.748,7.095s3.015,7.095,6.748,7.095S23.596,76.546,23.596,72.623z
	 M38.347,40.899H48.77v47.259H38.347L38.347,40.899z M59.598,51.537c-3.527,0-6.376-2.849-6.376-6.368
	c0-3.527,2.849-6.368,6.376-6.368c3.518,0,6.368,2.841,6.368,6.368C65.966,48.688,63.116,51.537,59.598,51.537z M82.781,59.755
	c2.139,2.337,2.75,4.32,2.75,8.656V88.15H75.109V72.449c0-3.428-0.083-3.626-0.686-4.939c-0.628-1.437-2.337-2.395-4.121-2.395
	c-3.494,0-5.501,2.337-5.501,6.376V88.15H54.386V57.087h10.415v3.907c0.496-0.611,0.966-1.098,1.379-1.569
	c1.924-2.007,4.666-3.105,8.102-3.105C77.834,56.319,80.716,57.5,82.781,59.755L82.781,59.755z M113.315,88.15l-11.769-14.619V88.15
	H91.123v-47.25h10.423v29.138l11.224-12.95h14.346l-13.834,14.321L128,88.15H113.315z"/>
</svg>
