<?xml version="1.0" encoding="iso-8859-1"?>
<!-- Generator: Adobe Illustrator 27.8.1, SVG Export Plug-In . SVG Version: 6.00 Build 0)  -->
<svg version="1.1" id="Layer_1" xmlns="http://www.w3.org/2000/svg" xmlns:xlink="http://www.w3.org/1999/xlink" x="0px" y="0px"
	 viewBox="0 0 512 512" style="enable-background:new 0 0 512 512;" xml:space="preserve">
<path style="fill:#004E7C;" d="M287.026,45.464c1.475-3.764,2.293-7.858,2.293-12.145C289.319,14.917,274.402,0,256,0
	s-33.319,14.917-33.319,33.319c0,4.287,0.819,8.381,2.293,12.145C110.246,60.645,21.708,158.832,21.708,277.708
	C21.708,407.104,126.604,512,256,512s234.292-104.896,234.292-234.292C490.292,158.832,401.754,60.645,287.026,45.464z"/>
<circle style="fill:#6695B0;" cx="256" cy="277.648" r="216"/>
<circle style="fill:#E5EDF2;" cx="256" cy="148.113" r="50"/>
<circle style="fill:#E5EDF2;" cx="122" cy="251.678" r="35"/>
<circle style="fill:#E5EDF2;" cx="171" cy="384.196" r="35"/>
<circle style="fill:#E5EDF2;" cx="390" cy="251.678" r="35"/>
<circle style="fill:#E5EDF2;" cx="341" cy="384.196" r="35"/>
<circle style="display:none;fill:none;stroke:#FFFFFF;stroke-miterlimit:10;" cx="256" cy="277.648" r="171.013"/>
</svg>
