<?xml version="1.0" encoding="iso-8859-1"?>
<!-- Generator: Adobe Illustrator 27.8.1, SVG Export Plug-In . SVG Version: 6.00 Build 0)  -->
<svg version="1.1" id="Layer_1" xmlns="http://www.w3.org/2000/svg" xmlns:xlink="http://www.w3.org/1999/xlink" x="0px" y="0px"
	 viewBox="0 0 128 128" style="enable-background:new 0 0 128 128;" xml:space="preserve">
<g id="g3047">
	<path id="path3055" style="fill:#FFFFFF;" d="M117.247,73.522h-0.001l0.669,2.204h4.496l0.027-0.079l0.331-0.941
		c-1.886-0.782-3.827-1.506-5.819-2.164l0,0L117.247,73.522z M117.246,73.522v-0.001C117.246,73.522,117.246,73.522,117.246,73.522"
		/>
</g>
<g id="g3067">
	<path id="path3075" style="fill:#FFFFFF;" d="M104.996,70.275c0.001,0,0.002,0.001,0.003,0.001l0,0l1.94,5.45h4.461l1.031-3.481
		l0.293-0.984c-2.61-0.723-5.292-1.339-8.034-1.847l0,0L104.996,70.275z"/>
</g>
<g id="g3087">
	<path id="path3095" style="fill:#FFFFFF;" d="M85.704,67.723c0,0.006,0,0.01,0,0.016l0,0c0,4.55,3.657,8.223,8.15,8.223l0,0
		c3.908,0,7.181-2.88,7.857-6.672l0,0c0.021-0.12,0.034-0.243,0.05-0.366l0,0v-0.007c-1.196-0.185-2.403-0.348-3.618-0.491l0,0
		c-0.001,0.009-0.001,0.019-0.002,0.029l0,0c-0.297,2.151-2.119,3.833-4.32,3.833l0,0c-2.446,0-4.414-2.007-4.455-4.506l0,0
		c-1.158-0.036-2.317-0.061-3.478-0.061l0,0C85.827,67.721,85.765,67.723,85.704,67.723"/>
</g>
<g id="g3107">
	<path id="path3115" style="fill:#FFFFFF;" d="M76.829,68.12v7.419h3.769v-7.677C79.339,67.93,78.081,68.012,76.829,68.12"/>
</g>
<g id="g3127">
	<path id="path3135" style="fill:#FFFFFF;" d="M60.769,70.729v4.81h3.769v-5.65C63.271,70.146,62.017,70.43,60.769,70.729"/>
</g>
<g id="g3147">
	<path id="path3155" style="fill:#FFFFFF;" d="M70.791,68.818v6.721h3.769V68.34C73.298,68.477,72.042,68.64,70.791,68.818"/>
</g>
<g id="g3167">
	<path id="path3175" style="fill:#FFFFFF;" d="M55.679,72.805c-0.513,0-0.893-0.118-1.134-0.379l0,0
		c-1.261,0.388-2.476,0.876-3.71,1.309l0,0c0.681,1.684,2.308,2.369,4.469,2.369l0,0c1.476,0,2.826-0.409,4.209-0.879l0,0
		l-1.038-3.048C57.564,72.491,56.653,72.805,55.679,72.805"/>
</g>
<g id="g3215">
	<path id="path3231" style="fill:#FFFFFF;" d="M18.993,67.716c0,4.869,3.205,8.169,8.043,8.169l0,0c1.854,0,3.708-0.44,5.405-1.164
		l0,0L31.247,71.8c-1.132,0.502-2.703,0.816-3.992,0.816l0,0c-2.323,0-3.958-1.131-4.209-3.549l0,0h10.147
		c0.096-0.692,0.222-1.383,0.222-2.075l0,0c0-4.367-2.608-7.508-7.132-7.508l0,0C21.474,59.484,18.993,63.16,18.993,67.716
		 M26.313,62.595c2.106,0,3.174,1.54,3.205,3.518l0,0h-6.473C23.14,64.227,24.303,62.595,26.313,62.595"/>
</g>
<g id="g3271">
	<path id="path3287" style="fill:#FFFFFF;" d="M101.307,59.872l2.612,7.366c1.519,0.218,3.023,0.469,4.509,0.754l0,0l-2.716-8.12
		H101.307L101.307,59.872z"/>
</g>
<g id="g3327">
	<path id="path3343" style="fill:#FFFFFF;" d="M123.902,59.872l-3.509,10.897l-3.94-10.897h-3.577l-3.034,8.401
		c1.19,0.245,2.366,0.514,3.531,0.804l0,0l1.25-4.221l1.497,4.944c2.567,0.72,5.071,1.546,7.506,2.476l0,0L128,59.872
		L123.902,59.872L123.902,59.872z"/>
</g>
<g id="g3383">
	<path id="path3399" style="fill:#FFFFFF;" d="M85.855,66.165c0.852-0.019,1.703-0.033,2.547-0.033l0,0
		c0.419,0,0.84,0.009,1.259,0.014l0,0c0.651-1.667,2.291-2.892,4.127-2.892l0,0c1.954,0,3.665,1.409,4.21,3.303l0,0
		c1.276,0.11,2.541,0.243,3.797,0.397l0,0c-0.424-4.192-3.839-7.407-8.04-7.407l0,0C89.826,59.547,86.573,62.378,85.855,66.165"/>
</g>
<g id="g3439">
	<path id="path3455" style="fill:#FFFFFF;" d="M76.545,61.212c0,0,0.284,1.571,0.284,2.357l0,0v3.133
		c1.252-0.123,2.509-0.231,3.769-0.312l0,0v-2.916c0-0.095-0.033-0.314-0.033-0.314l0,0c0.912-0.282,1.886-0.409,2.829-0.409l0,0
		c0.691,0,1.57,0.158,2.073,0.314l0,0l1.131-3.236c-0.849-0.221-1.917-0.346-2.89-0.346l0,0
		C81.226,59.484,78.807,60.27,76.545,61.212"/>
</g>
<g id="g3495">
	<path id="path3511" style="fill:#FFFFFF;" d="M60.769,53.369v16.135c1.247-0.316,2.502-0.619,3.769-0.891l0,0v-4.7
		c1.037-0.628,2.388-1.161,3.613-1.161l0,0c1.571,0,2.639,1.13,2.639,2.859l0,0v1.854c1.25-0.194,2.506-0.366,3.769-0.515l0,0
		v-1.903c0-3.488-1.853-5.561-5.371-5.561l0,0c-1.603,0-3.204,0.407-4.65,1.035l0,0v-8.623L60.769,53.369L60.769,53.369z"/>
</g>
<path id="path3567" style="fill:#FFFFFF;" d="M54.231,54.801l-3.767,1.473v3.617l-1.791,0.096v2.984l1.791,0.095v8.672
	c0,0.339,0.028,0.653,0.077,0.95l0,0c1.218-0.452,2.448-0.889,3.694-1.295l0,0v-8.295h4.398V59.83h-4.398v-5.029L54.231,54.801
	L54.231,54.801z"/>
<g id="g3607">
	<path id="path3623" style="fill:#FFFFFF;" d="M35.398,60.835l1.288,2.86c1.319-0.566,2.953-0.943,4.367-0.943l0,0
		c0.942,0,2.639,0.126,2.639,1.445l0,0c0,2.734-9.74,0.566-9.74,6.913l0,0c0,3.675,4.021,4.775,7.039,4.775l0,0
		c0.943,0,1.688-0.06,2.321-0.165l0,0c1.36-0.639,2.741-1.252,4.144-1.829l0,0c0.001-0.061,0.007-0.59,0.007-1.211l0,0v-8.074
		c0-3.644-2.513-5.121-5.875-5.121l0,0C39.544,59.484,37.251,59.987,35.398,60.835 M38.1,70.825c0-1.758,4.304-1.152,5.591-2.377
		l0,0v3.257c0,0.219,0.013,0.647,0.013,0.647l0,0c-0.881,0.282-1.773,0.389-2.683,0.389l0,0C39.67,72.742,38.1,72.46,38.1,70.825"/>
</g>
<g id="g3663">
	<path id="path3679" style="fill:#FFFFFF;" d="M0,54.906v20.633h3.927v-9.551h9.457v9.551h3.927V53.378l-3.927,1.535v7.806H3.927
		v-9.352L0,54.906L0,54.906z"/>
</g>
</svg>
