<?xml version="1.0" encoding="UTF-8"?>
<svg id="Layer_1" data-name="Layer 1" xmlns="http://www.w3.org/2000/svg" viewBox="0 0 128 54.25">
  <defs>
    <style>
      .cls-1 {
        fill: #0176be;
      }

      .cls-2 {
        fill: #fff;
      }
    </style>
  </defs>
  <rect class="cls-1" width="128" height="54.25"/>
  <path class="cls-2" d="m56,43.37c-.8-.05-1.23-.16-1.87-.48-1.45-.71-2.35-2.04-2.56-3.79-.12-1.06.05-2.12.49-3.03.73-1.49,2.07-2.45,3.74-2.66.75-.1,1.5-.04,2.49.22.48.12.91.2.98.18s.25-.12.36-.25.25-.21.31-.21c.12,0,.16.28.22,1.98.04,1.16.02,1.28-.06,1.32-.14.06-.25-.05-.34-.32-.43-1.22-1.21-1.99-2.24-2.28-.37-.1-1.18-.11-1.59-.01-.75.17-1.58.8-2.02,1.55-.55.92-.81,2.47-.63,3.75.32,2.24,1.99,3.63,4.05,3.37.9-.12,1.5-.38,2.26-.98.48-.38.62-.43.74-.23.06.09.01.15-.18.37-.82.85-1.96,1.42-3.03,1.53-.26-.01-.76-.01-1.12-.04h0Z"/>
  <path class="cls-2" d="m18.14,43.29c-1.56-.33-2.82-1.44-3.37-2.95-.26-.7-.33-1.3-.28-2.19.05-1.13.32-1.91.94-2.78.66-.92,1.58-1.54,2.77-1.85.69-.18,2.04-.15,2.81.06,1.03.3,1.13.31,1.34.18.11-.05.23-.17.3-.25.07-.1.15-.15.23-.14.12.01.14.06.21,1.59.05.86.06,1.6.05,1.65s-.1.07-.17.06c-.11-.01-.17-.11-.3-.43-.59-1.53-1.59-2.28-3.02-2.28-1.59,0-2.78,1.03-3.27,2.81-.18.68-.2,2.55-.02,3.18.26.94.87,1.82,1.59,2.28,1.39.89,3.34.64,4.76-.62l.36-.31.15.14.15.14-.14.15c-.59.69-1.61,1.33-2.5,1.55-.59.14-1.94.15-2.57.01h0Z"/>
  <path class="cls-2" d="m65.1,43.3c-1.69-.34-3.03-1.58-3.54-3.25-.41-1.32-.27-3.08.31-4.2.91-1.75,2.73-2.71,4.76-2.49,1.69.17,3.1,1.17,3.77,2.66.52,1.13.62,2.82.25,4.04-.53,1.74-1.97,2.99-3.75,3.27-.52.06-1.28.05-1.78-.04Zm2.13-.7c.9-.42,1.5-1.22,1.8-2.39.25-.94.23-2.77,0-3.77-.41-1.7-1.8-2.77-3.3-2.55-1.29.2-2.24,1.23-2.58,2.82-.18.87-.18,2.52,0,3.34.27,1.21.95,2.14,1.81,2.52.5.23.59.25,1.29.23.49-.01.63-.05.98-.21h0Z"/>
  <path class="cls-2" d="m75.84,43.35c-.06-.01-.31-.07-.55-.12-1.08-.25-1.82-.92-2.18-1.98l-.15-.47-.04-3.14c-.02-2.88-.04-3.15-.15-3.34-.12-.23-.39-.37-.85-.43-.16-.01-.31-.06-.33-.11-.07-.2.04-.22,2.09-.2,1.97.01,2.03.01,2.03.14,0,.11-.06.12-.37.17-.2.02-.46.1-.55.16-.38.22-.37.16-.37,3.62v3.14l.16.44c.36.97.96,1.4,2.09,1.48,1.01.06,1.81-.18,2.29-.73.62-.69.65-.94.65-4.32,0-1.49-.02-2.83-.06-2.95-.1-.47-.43-.73-1-.82-.21-.04-.27-.07-.28-.18l-.02-.14h1.7c1.7,0,1.9.02,1.7.21-.05.05-.25.11-.44.15-.42.1-.69.3-.79.62-.06.16-.1,1.13-.12,3.15-.04,2.76-.05,2.95-.17,3.42-.31,1.12-1.05,1.85-2.19,2.15-.36.07-1.83.15-2.09.09h0Z"/>
  <path class="cls-2" d="m90.52,43.27c-.06-.06-.59-.68-1.16-1.4-.57-.71-1.4-1.75-1.85-2.31-.46-.55-1.38-1.71-2.07-2.56-.68-.85-1.26-1.55-1.29-1.56-.1-.02-.02,6.38.06,6.67.12.38.42.63.8.68.41.05.57.15.46.3-.07.09-.28.1-1.74.1h-1.65v-.15c0-.12.05-.15.41-.25.71-.17.86-.33.95-1.1.04-.31.06-1.85.04-3.82l-.02-3.31-.27-.28c-.34-.36-.54-.47-.86-.47-.22,0-.25-.01-.25-.15v-.15h2.51l.33.42c.31.38,1.08,1.34,3.95,4.9.65.81,1.22,1.48,1.26,1.49.07.02.06-5.27-.01-5.6-.12-.55-.38-.8-.96-.87-.31-.05-.43-.12-.38-.25.02-.07.3-.09,1.74-.07,1.64.01,1.7.02,1.7.14,0,.1-.06.12-.34.18-.52.11-.74.25-.89.57-.14.3-.14.33-.15,4.58-.01,4.62,0,4.54-.31,4.28h0Z"/>
  <path class="cls-2" d="m96.39,43.26c-1.05-.3-1.66-.64-2.29-1.33-.68-.74-1.01-1.38-1.23-2.45-.12-.62-.1-1.85.06-2.46.32-1.22,1.17-2.4,2.15-2.95.95-.55,1.48-.69,2.68-.69.8,0,.96.01,1.54.17,1.07.3,1.08.3,1.32.2.12-.05.26-.16.32-.25.06-.11.15-.15.23-.14.12.01.12.06.16.69.02.37.05,1.11.06,1.62.02.95.02.96-.11.97-.1.01-.16-.02-.21-.15-.25-.6-.63-1.32-.84-1.55-.9-1.03-2.56-1.29-3.85-.62-.49.26-1.07.89-1.35,1.46-.39.79-.49,1.26-.52,2.4-.02.89-.02,1.08.1,1.58.25,1.05.8,1.9,1.61,2.42.55.37,1.06.5,1.85.5,1.08,0,1.86-.27,2.71-.97.64-.5.59-.49.74-.34l.12.12-.18.23c-.27.33-.98.87-1.43,1.11-.84.42-1.1.47-2.2.49-.84.02-1.07.01-1.44-.09h0Z"/>
  <path class="cls-2" d="m24.02,43.11c-.05-.15.01-.21.3-.25.84-.12,1-.25,1.1-.85.04-.25.05-1.75.05-3.94-.01-3.14-.02-3.56-.12-3.75-.12-.27-.32-.38-.87-.47-.47-.07-.5-.1-.44-.23.02-.07.28-.1,2.17-.07,2.09.01,2.14.01,2.14.14,0,.11-.05.12-.38.17-.47.05-.66.14-.85.37-.14.17-.14.23-.15,3.91-.01,2.06,0,3.85.01,4,.06.42.23.55.84.68.44.1.52.12.52.23,0,.12-.05.12-2.14.14-1.82.01-2.13,0-2.15-.07h0Z"/>
  <path class="cls-2" d="m30.97,43.11c-.11-.12.04-.21.47-.3.44-.07.66-.2.78-.38.06-.11.09-1.05.1-4.21v-4.07s-.66,0-.66,0c-1.65,0-2.08.3-2.38,1.67-.05.18-.26.3-.36.18-.05-.05-.05-.47-.01-1.27l.05-1.21h8.22l.04.69c.06,1.01.05,1.75-.01,1.8-.17.11-.3-.05-.43-.5-.33-1.13-.71-1.37-2.26-1.37h-.71v4.05c.02,4.39.02,4.3.38,4.48.1.05.37.12.6.16.39.06.43.09.43.22v.15h-2.09c-1.69-.01-2.09-.02-2.14-.1h0Z"/>
  <path class="cls-2" d="m40.68,43.14c-.16-.11-.02-.25.28-.28.55-.07.84-.18.97-.36.12-.17.12-.26.15-1.91v-1.74s-1.17-1.72-1.17-1.72c-1.96-2.86-2.17-3.13-2.76-3.26-.22-.06-.3-.11-.3-.18,0-.11.09-.12,2.04-.14,1.97-.01,2.04-.01,2.04.11s-.21.18-.55.18c-.1,0-.25.06-.34.14-.32.25-.25.43,1.13,2.45,1.11,1.6,1.06,1.55,1.13,1.46.15-.16,2.08-3.16,2.17-3.37.05-.12.07-.27.06-.36-.05-.18-.33-.33-.62-.33s-.41-.06-.41-.18c0-.11.07-.12,1.6-.12s1.6,0,1.6.12c0,.06-.04.14-.07.15-.05.01-.2.06-.36.1-.47.12-1.01.75-1.99,2.24-.47.71-1.03,1.59-1.27,1.94l-.43.64v1.71q0,2.24.97,2.4c.47.06.5.1.49.2-.01.12-.05.12-2.17.14-1.16.02-2.15.01-2.22-.02Z"/>
  <path class="cls-2" d="m102.38,43.13c-.06-.15.04-.21.53-.31.53-.11.62-.15.76-.43.1-.17.1-.55.1-4s0-3.83-.11-4.05c-.14-.27-.41-.42-.89-.47-.36-.04-.46-.1-.39-.25.02-.06.44-.07,2.19-.07h2.14l-.02.14c-.02.12-.06.14-.42.18-.47.06-.65.14-.82.37-.12.17-.12.23-.15,4-.01,2.54,0,3.9.04,4.05.1.32.25.43.84.54.47.1.53.12.52.23-.02.12-.06.12-2.15.14-1.74,0-2.13-.01-2.15-.07h0Z"/>
  <path class="cls-2" d="m107.16,43.1c-.06-.14.11-.25.47-.3.16-.01.37-.1.49-.15.33-.2.34-.36.31-4.47-.02-4.05-.01-3.94-.39-4.17-.1-.06-.34-.12-.52-.15-.27-.05-.33-.07-.33-.17,0-.12.05-.12,2.06-.14h2.04s0,.12,0,.12c0,.14-.02.15-.36.18-.46.04-.71.17-.86.43-.1.18-.11.49-.12,4.01-.01,2.73,0,3.86.06,3.98.04.1.15.2.25.23.41.14,2.83.05,3.46-.12.52-.15,1.1-.69,1.42-1.33.06-.12.16-.28.21-.34.1-.12.37-.15.37-.04s-.62,2.28-.69,2.4c-.05.1-.31.11-3.94.11-3.54,0-3.89,0-3.91-.1h0Z"/>
  <path class="cls-2" d="m14.99,29.42c-.04-.06-.02-.84.01-1,.02-.11,2.42-.11,49.34-.11h49.33l-.02.57-.02.57h-49.3c-31.42.04-49.32.01-49.33-.02h0Z"/>
  <path class="cls-2" d="m54.09,24.95c-1.3-.28-2.15-.75-3-1.65-1.28-1.37-1.75-3.18-1.42-5.37.32-2.12,1.93-3.95,4-4.54,1.22-.36,2.4-.34,3.84.04.39.1.87.21,1.05.22.32.02.33.02.6-.26.27-.28.39-.34.49-.21.09.1.23,3.74.15,3.8-.02.02-.12.05-.18.04-.11-.01-.18-.14-.36-.57-.3-.75-.62-1.24-1.11-1.69-.69-.64-1.43-.94-2.41-.94-.73,0-1.11.09-1.71.37-.59.28-1.03.66-1.42,1.21-.62.85-.91,1.77-1.01,3.14-.23,2.76.91,4.84,3.02,5.55.48.16,1.94.16,2.55-.01.76-.21,1.44-.59,2.15-1.19.2-.17.39-.32.43-.32.09,0,.27.2.27.3,0,.14-.79.85-1.3,1.21-.64.42-1.06.62-1.81.81-.5.14-.71.15-1.53.15-.52,0-1.06-.04-1.29-.09h0Z"/>
  <path class="cls-2" d="m77.19,24.96c-.23-.05-.74-.18-1.11-.31s-.74-.22-.81-.22c-.18,0-.37.18-.43.39-.02.14-.07.15-.25.15-.12,0-.21-.01-.21-.05,0-.02-.11-.84-.25-1.8s-.25-1.77-.25-1.8.09-.05.18-.05c.17,0,.21.04.47.59.78,1.67,1.86,2.49,3.3,2.49.62,0,1.05-.16,1.45-.53.43-.38.58-.79.55-1.5-.04-1.12-.3-1.37-3.47-3.36-1.27-.79-1.86-1.53-2.01-2.46-.15-.82.16-1.82.74-2.44.41-.44.71-.64,1.29-.84.44-.15.55-.16,1.19-.14.63.02.8.05,1.45.28,1,.34,1.18.33,1.4-.1.12-.22.28-.31.38-.2.06.06.31,2.12.42,3.54.01.07-.04.11-.15.14-.2.02-.26-.05-.39-.48-.27-.85-.75-1.54-1.37-1.94-.57-.38-1.07-.53-1.69-.53-.46-.01-.57.02-.84.16-.64.33-.9.74-.9,1.39,0,.48.15.85.49,1.23.31.34.65.6,1.78,1.29,2.56,1.59,3.21,2.23,3.42,3.35.09.46.04,1.19-.1,1.6-.33.94-1.26,1.75-2.34,2.03-.54.17-1.46.2-1.99.1h0Z"/>
  <path class="cls-2" d="m46.6,24.57c-.2-.23-.68-.81-1.07-1.3-.39-.48-1.62-2.01-2.73-3.37s-2.34-2.88-2.72-3.37c-.39-.48-.74-.89-.76-.89-.07,0-.06,6.87,0,7.41.04.23.12.57.21.74.17.36.37.48.98.6.34.07.38.1.38.23v.15h-4.06v-.15c0-.14.04-.16.41-.23.84-.15,1.11-.42,1.23-1.24.02-.23.06-2.14.06-4.46v-4.04l-.27-.33c-.34-.41-.64-.59-1.11-.64-.31-.04-.36-.05-.36-.18,0-.09.04-.15.07-.15s.7-.01,1.48-.01c1.33-.01,1.42-.01,1.53.1s2.14,2.61,5.14,6.34c.68.85,1.28,1.59,1.34,1.65.11.12.11-.02.1-3.25v-3.38s-.16-.37-.16-.37c-.14-.33-.18-.39-.48-.53-.17-.1-.48-.18-.66-.21-.31-.04-.34-.06-.34-.2,0-.1.04-.15.11-.15,2.58-.01,3.93.01,3.96.05.12.14-.02.23-.48.34-.37.09-.53.15-.7.31-.42.38-.39.14-.43,5.8v5.12h-.16c-.1.04-.25-.07-.5-.38h0Z"/>
  <path class="cls-2" d="m13.8,24.63c.02-.15.05-.17.48-.26.26-.05.54-.15.64-.21.36-.23.36-.12.34-5.1-.01-5.02,0-4.9-.39-5.14-.11-.07-.39-.16-.64-.2-.42-.07-.44-.09-.42-.23.01-.12.05-.16.16-.15.07,0,1.18.01,2.45.01h2.31s-.01.15-.01.15c-.01.11-.07.15-.47.21-.64.11-.87.23-1.03.58-.14.28-.14.33-.14,4.89v4.58l.14.14c.14.14.17.14,1.56.16,1.65.02,2.57-.07,3.1-.33.5-.23,1.1-.94,1.53-1.77.05-.07.14-.14.3-.14.12-.01.23,0,.23.01,0,.05-.57,2.1-.73,2.61l-.11.34h-4.66s-4.66.02-4.66.02l.02-.17h0Z"/>
  <path class="cls-2" d="m24.44,24.75s-.07-.07-.07-.14c0-.09.07-.14.26-.2.64-.18.87-.48,1.49-1.83.2-.42.37-.82.39-.89s.17-.42.32-.76c.15-.36.42-1,.6-1.42.17-.42.37-.87.43-1.01s.23-.52.37-.86.31-.73.37-.87c.07-.14.17-.39.25-.58s.18-.44.25-.59.17-.41.25-.59.17-.44.23-.58c.07-.15.2-.43.28-.65.28-.69.44-.82.66-.57.05.05.36.73.69,1.49s.86,1.96,1.16,2.65c.31.69.74,1.7.97,2.22,1.29,2.97,1.77,4,1.91,4.25.18.3.42.47.81.59.2.06.25.11.25.22v.15h-2.15c-1.24.02-2.18,0-2.22-.04s-.04-.11-.01-.17c.02-.1.14-.14.49-.18.25-.04.5-.1.55-.14.26-.22.16-.75-.44-2.18l-.42-1h-4.54l-.3.74c-.5,1.22-.68,1.8-.63,2.02.05.32.27.48.75.57.38.06.42.07.42.22v.15h-1.66c-.89.02-1.67.01-1.71-.01h0Zm7.37-4.48s-.11-.28-.25-.6c-.14-.32-.47-1.12-.75-1.8s-.59-1.42-.69-1.65c-.1-.22-.17-.44-.17-.48,0-.27-.23.22-1,2.03-.48,1.13-.9,2.14-.95,2.24s-.1.2-.1.23c0,.02.87.05,1.94.05s1.96,0,1.96-.02h0Z"/>
  <path class="cls-2" d="m60.95,24.71c-.06-.16.01-.25.31-.32.6-.16.91-.62,1.78-2.7.26-.6.5-1.18.55-1.29.04-.1.22-.53.39-.96.18-.42.37-.87.43-1.01s.25-.59.43-1.01.37-.87.43-1.01c.06-.14.39-.91.74-1.75.53-1.26.65-1.5.78-1.53.09-.02.18,0,.22.05s.32.64.62,1.32.92,2.12,1.39,3.2,1.05,2.4,1.28,2.93c.89,2.02,1.26,2.86,1.44,3.15.22.36.52.59.84.63.25.05.37.22.26.34-.02.02-.96.05-2.22.05h-2.15v-.2c0-.14.02-.15.44-.22.27-.05.49-.11.58-.18.26-.23.14-.81-.52-2.34l-.34-.8h-2.28s-2.28-.02-2.28-.02l-.34.87c-.69,1.75-.71,1.91-.39,2.23.15.15.27.22.52.25.43.05.46.07.46.25v.15h-1.7c-1.39.01-1.64,0-1.66-.07h0Zm7.34-4.64c-.06-.14-.27-.63-.47-1.12-.49-1.21-.79-1.88-.94-2.22-.06-.15-.18-.44-.26-.64-.09-.2-.16-.38-.21-.39-.02-.01-.1.1-.15.25s-.47,1.16-.92,2.26c-.47,1.1-.84,2.02-.84,2.04s.87.05,1.94.05h1.94l-.11-.23h0Z"/>
  <path class="cls-2" d="m85.54,24.7c-.12-.15.02-.23.55-.32.8-.14.96-.31,1.05-1.12.06-.64.06-9.06,0-9.16-.05-.07-.21-.09-.91-.05-1.87.09-2.3.36-2.65,1.75-.1.42-.21.53-.42.44-.12-.05-.12-.09-.1-.87.01-.46.04-1.1.06-1.43l.04-.6h4.89s4.87-.02,4.87-.02l.02.18c.01.1.04.76.06,1.46l.02,1.27h-.44l-.1-.42c-.22-.89-.57-1.39-1.11-1.59-.31-.1-2.18-.26-2.36-.2-.1.04-.1.34-.1,4.86.02,4.53.02,4.82.12,5.02.14.26.41.37,1.02.47.43.07.47.07.48.23l.02.17h-2.49c-2.15.01-2.49,0-2.55-.09h0Z"/>
  <path class="cls-2" d="m93.56,24.71c-.07-.17.02-.26.43-.32.53-.09.82-.23.96-.47.1-.17.1-.59.12-4.71.01-4.15,0-4.54-.1-4.82-.14-.39-.37-.55-.97-.65-.43-.07-.47-.1-.44-.22l.02-.15h9.16s.04.66.04.66c.02.37.04.92.05,1.24v.57h-.21c-.21,0-.21-.01-.34-.44-.26-.86-.52-1.14-1.17-1.28-.37-.09-3.66-.16-3.9-.1-.34.09-.34.05-.34,2.35v2.12l1.71-.02c1.01-.01,1.8-.06,1.93-.1.34-.11.64-.48.76-.97.14-.53.18-.63.33-.63.25,0,.25.1.25,2.1l-.02,1.93h-.2c-.18.02-.21.02-.27-.23-.12-.46-.14-.5-.28-.8-.1-.21-.22-.33-.41-.43-.25-.14-.33-.14-2.03-.16l-1.77-.02v4.57l.15.17.15.17h1.51c2.52.04,3.22-.16,3.96-1.17.12-.17.32-.47.42-.65.17-.32.21-.34.43-.36.27-.02.28-.14-.06,1.12-.12.48-.27,1.03-.33,1.26s-.12.44-.15.48c-.04.05-1.05.07-4.7.07-4.07-.01-4.64-.02-4.68-.1h0Z"/>
  <path class="cls-2" d="m104.15,24.71c-.06-.17.02-.26.36-.3.44-.05.8-.23.95-.48.12-.2.12-.34.15-4.58.01-2.4,0-4.52-.02-4.69-.07-.59-.41-.89-1.16-.97-.27-.04-.3-.05-.27-.2l.02-.16h2.86c1.58.02,3.03.05,3.22.09,1.45.22,2.35.78,2.81,1.7.18.36.21.47.22,1.06.06,1.3-.37,2.04-1.5,2.61-.37.17-1.08.42-1.29.42-.09,0-.16.02-.18.06s.27.47.68.94c.39.48,1.1,1.37,1.58,1.96,1.56,1.92,1.75,2.1,2.36,2.24.27.06.32.1.32.22v.15h-1.34c-.74.02-1.38,0-1.42-.01-.04-.02-.27-.28-.5-.57-.23-.3-1.21-1.48-2.14-2.63l-1.72-2.1-.27.04c-.15.01-.31.04-.36.04-.07,0-.09.34-.09,1.91,0,2.04.04,2.42.28,2.66.16.16.74.36,1.05.36.15,0,.21.04.23.14.02.09.01.15-.04.18-.05.02-1.13.05-2.41.05-2.02-.02-2.34-.04-2.36-.11h0Zm5.24-6.06c.65-.14.98-.3,1.38-.65.37-.34.55-.71.62-1.24.17-1.42-.44-2.34-1.76-2.65-.43-.1-1.66-.15-1.93-.07-.28.09-.31.21-.31,2.58v2.23l.73-.04c.39-.02.97-.1,1.28-.16h0Z"/>
  <path class="cls-2" d="m119.61,47.61H8.15V6.65h111.45v40.96h.01Zm-.49-.49V7.14H8.64v39.98h110.47Z"/>
</svg>