<?xml version="1.0" encoding="iso-8859-1"?>
<!-- Generator: Adobe Illustrator 27.7.0, SVG Export Plug-In . SVG Version: 6.00 Build 0)  -->
<svg version="1.1" id="Layer_1" xmlns="http://www.w3.org/2000/svg" xmlns:xlink="http://www.w3.org/1999/xlink" x="0px" y="0px"
	 viewBox="0 0 128 128" style="enable-background:new 0 0 128 128;" xml:space="preserve">
<path style="fill:#0068AC;" d="M66.447,0c-0.002,0.012-0.007,0.022-0.015,0.031c0.044,0.031,0.091,0.052,0.127,0.075
	c0.89,0.498,1.688,1.092,2.345,1.862c0.814,0.949,1.281,2.034,1.351,3.271c0.049,1.119-0.196,2.231-0.71,3.226
	c-0.023,0.044-0.031,0.12-0.008,0.166c1.605,2.985-1.997,5.307-3.076,5.781c-0.039,0.015-0.083,0.031-0.151,0.052l0.068-0.112
	c0.475-0.739,0.837-1.524,1.056-2.368c0.205-0.822,0.264-1.642,0.077-2.472c-0.213-0.904-0.71-1.715-1.418-2.316
	c-0.096-0.081-0.174-0.203-0.257-0.309c0.008-0.008,0.015-0.015,0.031-0.021c0.052,0.029,0.106,0.068,0.166,0.091
	c0.286,0.151,0.565,0.309,0.859,0.428c0.791,0.309,1.507,0.091,2.179-0.353C68.49,7.2,67.962,6.717,67.448,6.445
	c-0.127-0.075-0.257-0.143-0.386-0.218c-0.843-0.506-1.739-0.724-2.721-0.936c-0.625-0.135-1.22,0.046-1.814,0.257
	c-0.137,0.046-0.28,0.077-0.417,0.129c-0.33,0.12-0.656,0.127-0.971-0.069c-0.062-0.035-0.128-0.063-0.197-0.083
	c-0.338-0.142-0.708-0.191-1.071-0.143c-0.301,0.039-0.558,0.143-0.714,0.407c-0.197,0.316-0.205,0.664-0.145,1.042
	c0.135-0.378,0.361-0.5,0.747-0.394c0.143,0.039,0.286,0.096,0.399,0.181c0.249,0.174,0.498,0.353,0.724,0.565
	c0.428,0.399,0.926,0.67,1.486,0.874c0.322,0.112,0.639,0.257,0.942,0.415c0.496,0.262,0.836,0.67,0.934,1.221
	c0.075,0.392,0.106,0.791,0.158,1.183c0.015,0.112-0.023,0.181-0.122,0.249c-0.888,0.602-1.777,1.206-2.659,1.816
	c-0.394,0.27-0.77,0.573-1.154,0.859c-0.573-0.428-3.165-2.57-2.065-5.133c0.039-0.091,0.039-0.151,0-0.232
	c-0.526-1.015-0.764-2.155-0.687-3.296c0.077-1.123,0.482-2.125,1.191-3.006c0.679-0.845,1.53-1.486,2.48-2.02
	c0.046-0.031,0.091-0.054,0.135-0.083c-0.046-0.015-0.095-0.015-0.141,0c-0.544,0.166-1.086,0.316-1.613,0.511
	c-1.252,0.482-2.404,1.115-3.4,2.007c-0.084,0.066-0.142,0.159-0.166,0.262c-0.253,1.025-0.335,2.084-0.241,3.136
	c0.075,0.739,0.233,1.447,0.527,2.126c0.013,0.026,0.024,0.054,0.031,0.083c-0.015,0-0.023,0.008-0.039,0.008
	c-1.084-1.38-1.331-2.985-1.312-4.689c-0.052,0.06-0.073,0.091-0.104,0.127c-0.806,1.106-1.355,2.379-1.605,3.724
	c-0.039,0.189-0.083,0.415-0.031,0.589c0.49,1.665,1.409,3.074,2.798,4.183c0.052,0.044,0.104,0.091,0.158,0.127
	c0.052,0.047,0.107,0.09,0.166,0.129l-0.031,0.021c-1.605-0.656-2.721-1.808-3.46-3.361c-0.008,0.143-0.023,0.241-0.023,0.347
	c-0.034,0.742-0.011,1.485,0.068,2.223c0.077,0.61,0.189,1.214,0.43,1.787c0.226,0.542,0.513,1.048,1.1,1.312
	c0.122,0.052,0.235,0.112,0.355,0.164c1.108,0.477,2.277,0.785,3.454,1.063c0.104,0.023,0.203,0.054,0.309,0.077
	c-1.457-0.01-2.873-0.205-4.268-0.702c0.039,0.075,0.062,0.106,0.083,0.143c0.972,1.439,2.244,2.65,3.728,3.551v1.166h-4.745
	l1.858,1.864V22.1c-0.192,0.715-0.65,1.33-1.281,1.717c-0.606,0.392-1.357,0.612-2.092,0.726c-0.814,0.116-1.639,0.136-2.458,0.06
	c-0.776-0.942-1.054-2.045-0.625-3.018c0.448-1.015,1.737-2.038,4.492-2.491l0.664-0.11l-0.222-0.633c0,0-0.425-1.31-1.436-2.163
	c-0.507-0.426-1.223-0.743-2.036-0.608c-0.496,0.083-1.027,0.648-1.544,1.056v-4.728l-0.027-0.085c0,0-0.309-0.963-1.113-1.907
	c-1.036-1.229-2.569-1.929-4.176-1.907h-4.18c-0.052-0.06-0.069-0.075-0.147-0.17c-0.037-0.083-0.096-0.108-0.131-0.197
	c-0.106-0.139-0.201-0.286-0.284-0.44L37.745,7.57c0.006,0.017,0.019,0.017,0.023,0.033l-0.008,0.004
	c0.139,0.361,0.367,0.66,0.565,0.911c0.16,0.203,0.251,0.299,0.303,0.355c0.471,0.812,0.876,1.766,1.511,2.223
	c1.003,0.724,2.117,1.071,3.161,1.36v4.525c-1.067-0.951-2.238-1.401-3.242-1.111c-0.664,0.191-1.231,0.565-1.646,1.017
	c-0.415,0.453-0.699,0.992-0.689,1.58l0.008,0.666l0.658-0.123c1.401-0.264,2.636,0.467,3.57,1.337
	c0.909,0.847,1.422,1.717,1.451,1.768c-0.295,1.611,0.396,3.003,1.25,3.902c0.581,0.601,1.248,1.113,1.98,1.519l0.123,0.064h5.254
	l-1.376,2.128h-0.787l-0.166,0.166c-0.407,0.413-0.685,0.772-0.849,1.135c-0.162,0.367-0.193,0.797-0.01,1.139
	c0.183,0.342,0.498,0.521,0.81,0.637c0.311,0.116,0.652,0.174,1.017,0.208c0.729,0.069,1.553,0.039,2.279,0.008
	c0.727-0.031,1.397-0.05,1.588-0.023l0.004-0.023c0.012,0,0.131,0.027,0.131,0.027l0.289-0.031l1.92-3.398
	c0.174,2.14,1.385,3.994,3.149,5.121c-0.261,0.688-0.695,1.298-1.258,1.771c-1.042,0.868-2.823,1.548-6.136,0.459l-0.99-0.324
	l0.27,1.007c0,0,0.133,0.482,0.453,1.206c-1.015,0.039-1.737,0.212-3.072,0.494c-0.5,0.096-0.936,0.299-1.254,0.629l-0.216-0.054
	l-0.004,0.023c-1.849-0.34-3.477,0.05-3.975,0.154c-0.027-0.145-0.069-0.214-0.031-0.376c0.039-0.154,0.096-0.27,0.276-0.388
	c0.178-0.12,0.513-0.237,1.115-0.237c1.337,0,2.36,0.056,3.215-0.11s1.582-0.706,1.862-1.609c0.235-0.768,0.438-1.413,0.347-2.04
	c-0.048-0.313-0.27-0.704-0.643-0.832c-0.372-0.129-0.714-0.039-1.088,0.112h-0.004c-0.614,0.251-1.303,0.49-1.937,0.56
	c-0.635,0.068-1.179-0.017-1.644-0.37l-0.004-0.004c-0.903-0.683-1.158-2.792-5.509-3.207c-0.365-0.031-0.731-0.036-1.096-0.015
	c-1.331-0.527-3.238-1.372-3.909-2.111c0,0-1.1,2.539-3.882,2.412c0,0-0.843,2.985-2.306,3.784c-0.212,0,0.89,2.563-1.25,4.438
	c0,0,1.658,1.833,0.021,4.811c0,0,1.501,0.747,1.358,4.492c0,0,1.748,0.724,1.966,3.325c0,0,1.907,0.392,2.292,3.03
	c0,0,2.109,0.369,2.215,2.63c0,0,1.042,0.681,1.914,1.196c0.764,0.965,1.37,1.818,1.636,2.563l0.004,0.012
	c0.535,1.389,0.156,2.267-0.459,2.962c-0.617,0.695-1.563,1.127-1.928,1.229v0.002c-0.459,0.131-1.26,0.307-1.955,0.129
	s-1.343-0.617-1.692-2.103v-0.004c-0.347-1.497-0.002-2.346,0.388-2.871c0.208-0.298,0.488-0.539,0.814-0.699l-0.332-1.073
	l-0.095,0.041l-0.004-0.012l-0.033,0.031c-0.123,0.027-1.193,0.247-2.368,1.052c-1.241,0.849-2.509,2.373-2.431,4.718
	c0.075,2.221,0.59,3.425,1.191,4.085c0.176,0.193,0.34,0.249,0.509,0.351c-0.517,0.637-1.351,1.854-1.005,3.732
	c0.232,1.26,1.03,2.37,2.005,3.105c0.974,0.733,2.194,1.137,3.255,0.641l-0.077-1.052c0,0-0.355-0.108-0.702-0.367
	c-0.347-0.257-0.627-0.579-0.61-1.133v-0.004c0.019-0.479,0.316-1.497,0.849-2.242c0.536-0.747,1.202-1.223,2.134-1.067
	c0.735,0.131,2.252,0.322,3.962,0.012c1.714-0.313,3.634-1.152,5.009-3.064l0.029-0.048c1.295-2.254,1.982-4.51,1.671-7.223
	c0.579-0.096,1.092-0.251,1.551-0.444c0.43,1.577,1.003,3.107,1.731,4.587c2.806,5.756,7.174,9.903,12.724,12.738h0.004
	c0.67,0.342,1.436,0.351,2.113,0.008c3.443-1.733,6.493-4.043,9.015-7.036c2.624-3.099,4.45-6.543,5.465-10.301
	c0.467,0.199,0.994,0.355,1.582,0.452c-0.315,2.711,0.378,4.967,1.671,7.217l0.029,0.05c1.376,1.91,3.294,2.752,5.006,3.064
	c1.31,0.228,2.649,0.224,3.958-0.012c0.934-0.154,1.598,0.32,2.132,1.067c0.536,0.745,0.836,1.768,0.853,2.242
	c0.019,0.556-0.264,0.88-0.612,1.139c-0.345,0.257-0.695,0.367-0.695,0.367l-0.081,1.05c1.061,0.498,2.275,0.095,3.25-0.641
	c0.973-0.733,1.775-1.845,2.013-3.107c0.345-1.876-0.492-3.093-1.011-3.73c0.172-0.102,0.334-0.158,0.509-0.351
	c0.604-0.66,1.123-1.864,1.198-4.085c0.073-2.345-1.2-3.869-2.443-4.718c-1.175-0.805-2.244-1.025-2.366-1.052l-0.035-0.031
	l-0.004,0.012l-0.095-0.041l-0.332,1.073c0,0,0.432,0.174,0.822,0.699c0.392,0.527,0.737,1.37,0.386,2.871
	c-0.351,1.49-1,1.93-1.692,2.107c-0.695,0.178-1.495-0.002-1.961-0.131c-0.731-0.247-1.391-0.669-1.922-1.229
	c-0.617-0.695-0.996-1.575-0.459-2.962l0.004-0.012c0.266-0.743,0.868-1.596,1.631-2.561c0.874-0.513,1.922-1.196,1.922-1.196
	c0.106-2.263,2.209-2.632,2.209-2.632c0.386-2.638,2.291-3.03,2.291-3.03c0.228-2.601,1.968-3.325,1.968-3.325
	c-0.143-3.745,1.357-4.492,1.357-4.492c-1.636-2.977,0.031-4.809,0.031-4.809c-2.15-1.878-1.048-4.44-1.252-4.44
	c-1.47-0.799-2.314-3.782-2.314-3.782c-2.781,0.125-3.875-2.412-3.875-2.412c-0.675,0.737-2.586,1.582-3.917,2.109
	c-0.365-0.021-0.73-0.016-1.094,0.015c-4.351,0.415-4.608,2.524-5.511,3.207v0.004c-0.463,0.353-1.013,0.438-1.646,0.369
	c-0.637-0.068-1.326-0.305-1.937-0.558c-0.376-0.152-0.722-0.241-1.094-0.112c-0.372,0.129-0.592,0.523-0.637,0.836
	c-0.089,0.627,0.116,1.268,0.351,2.036c0.278,0.903,1.003,1.443,1.858,1.609c0.855,0.166,1.878,0.11,3.219,0.11
	c0.6,0,0.938,0.12,1.115,0.237c0.142,0.084,0.24,0.224,0.27,0.386c0.039,0.164-0.002,0.233-0.029,0.378
	c-0.498-0.104-2.132-0.494-3.981-0.154l-0.004-0.023l-0.452,0.114c-0.193-0.18-0.42-0.32-0.668-0.411
	c-0.187-0.068-0.455-0.135-0.832-0.233c-0.849-0.214-1.7-0.423-2.551-0.629c0.289-0.67,0.417-1.115,0.417-1.115l0.268-1.007
	l-0.988,0.324c-3.311,1.088-5.096,0.409-6.138-0.459c-0.564-0.473-0.998-1.083-1.26-1.771c1.768-1.127,2.983-2.987,3.155-5.129
	l1.914,3.406l0.289,0.031c0,0,0.12-0.029,0.133-0.027l0.004,0.023c0.191-0.027,0.859-0.008,1.586,0.023
	c0.727,0.029,1.555,0.062,2.285-0.008c0.365-0.037,0.704-0.093,1.017-0.208c0.313-0.116,0.627-0.299,0.81-0.641
	c0.183-0.342,0.152-0.77-0.012-1.135c-0.162-0.365-0.444-0.722-0.851-1.135l-0.162-0.166h-0.787l-1.372-2.128h5.256l0.125-0.064
	c0,0,1.046-0.542,1.974-1.519c0.855-0.899,1.54-2.291,1.245-3.902c0.029-0.05,0.54-0.92,1.451-1.768
	c0.936-0.868,2.175-1.602,3.58-1.337l0.66,0.123l0.008-0.672c0.006-0.587-0.284-1.123-0.699-1.575
	c-0.444-0.483-1.012-0.835-1.642-1.017c-1.003-0.289-2.177,0.16-3.246,1.111v-4.525c1.042-0.289,2.161-0.637,3.163-1.36
	c0.646-0.465,1.061-1.428,1.538-2.262c0.062-0.069,0.127-0.135,0.27-0.316c0.201-0.251,0.432-0.548,0.573-0.905l-0.012-0.004
	c0.006-0.017,0.021-0.019,0.027-0.039L89.14,7.196c-0.048,0.118-0.233,0.403-0.405,0.617c-0.089,0.112-0.11,0.129-0.17,0.195h-4.172
	c-2.011,0-3.377,0.965-4.183,1.908c-0.805,0.944-1.108,1.907-1.108,1.907l-0.027,0.083v4.733c-0.521-0.409-1.052-0.976-1.548-1.059
	c-0.814-0.135-1.526,0.179-2.032,0.608c-1.011,0.855-1.432,2.161-1.432,2.161l-0.222,0.635l0.662,0.11
	c2.752,0.452,4.056,1.484,4.519,2.524c0.463,1.042,0.158,2.235-0.677,3.226c-0.058,0.068-0.127,0.131-0.189,0.197
	c-0.808-0.007-1.612-0.108-2.397-0.299c-1.389-0.351-2.8-1.069-3.302-2.592l-0.008-0.027l-0.008-0.027l1.949-1.953h-4.733v-1.16
	c1.365-0.845,2.555-1.944,3.504-3.238c0.096-0.135,0.189-0.278,0.301-0.444c-1.409,0.496-2.84,0.685-4.295,0.693
	c0.039-0.015,0.068-0.023,0.096-0.031c0.415-0.104,0.837-0.195,1.245-0.309c0.935-0.233,1.848-0.548,2.729-0.942
	c0.423-0.197,0.731-0.49,0.949-0.888c0.233-0.417,0.386-0.853,0.49-1.306c0.212-0.919,0.257-1.852,0.233-2.788
	c0-0.218-0.014-0.43-0.023-0.648c-0.76,1.53-1.883,2.676-3.512,3.309c-0.008-0.015-0.008-0.023,0-0.031l0.046-0.029
	c1.476-1.079,2.451-2.495,3.03-4.176c0.081-0.195,0.107-0.409,0.075-0.617c-0.238-1.424-0.803-2.774-1.65-3.944l-0.083-0.083v0.151
	c0.006,0.573-0.031,1.146-0.129,1.712c-0.126,0.823-0.416,1.612-0.851,2.321c-0.122,0.181-0.257,0.347-0.378,0.521
	c-0.029-0.031-0.029-0.044-0.021-0.06c0.444-0.957,0.61-1.968,0.602-3.008c-0.015-0.58-0.068-1.159-0.158-1.733
	c-0.112-0.778-0.127-0.778-0.753-1.26c-1.185-0.905-2.518-1.523-3.944-1.968C66.927,0.116,66.686,0.062,66.445,0H66.447z
	 M83.515,12.774v7.4l1.042-1.654c1.042-1.66,2.123-1.825,3.018-1.569c0.448,0.129,0.851,0.394,1.127,0.695
	c0.123,0.135,0.116,0.23,0.179,0.357c-1.363,0.054-2.662,0.591-3.666,1.515c-1.071,0.996-1.698,2.074-1.698,2.074l-0.125,0.212
	l0.071,0.232c0.396,1.322-0.212,2.379-0.996,3.199c-0.743,0.782-1.515,1.189-1.598,1.233h-2.613
	c0.353-0.268,0.675-0.569,0.953-0.897c1.046-1.239,1.511-2.908,0.843-4.409c-0.596-1.341-2.19-2.358-4.608-2.925
	c0.162-0.357,0.301-0.787,0.78-1.191c0.336-0.284,0.672-0.428,1.119-0.353c0.448,0.075,1.079,0.417,1.866,1.349l0.994,1.177v-3.744
	c0.343-1.069,0.892-1.64,1.64-2.059c0.482-0.268,1.056-0.463,1.673-0.645L83.515,12.774z M44.429,12.774
	c0.617,0.181,1.191,0.374,1.671,0.641c0.749,0.419,1.299,0.99,1.642,2.063v3.738l0.992-1.177c0.787-0.93,1.42-1.274,1.87-1.347
	c0.448-0.077,0.785,0.069,1.123,0.353c0.479,0.405,0.616,0.834,0.78,1.191c-2.414,0.563-4.002,1.563-4.587,2.893
	c-0.475,1.079-0.343,2.242,0.174,3.261L47.98,24.37l0.226,0.228c0.176,0.309,0.386,0.604,0.627,0.874
	c0.328,0.372,0.712,0.708,1.14,0.996h-2.894c-0.081-0.044-0.857-0.452-1.602-1.233c-0.783-0.822-1.393-1.878-0.998-3.199
	l0.071-0.233l-0.125-0.212c0,0-0.625-1.073-1.694-2.069c-1.003-0.925-2.301-1.463-3.664-1.519c0.066-0.129,0.054-0.224,0.178-0.357
	c0.274-0.301,0.681-0.565,1.131-0.695c0.895-0.257,1.976-0.089,3.014,1.569l1.042,1.66L44.429,12.774z M63.977,17.444l1.824,2.794
	l2.732-1.268v2.3h3.145l-1.357,1.36l-1.451,1.455c-0.092-0.077-0.186-0.153-0.282-0.226c-1.154-0.937-2.566-1.498-4.048-1.607
	l-0.139-0.012c-0.132-0.008-0.264-0.013-0.396-0.015v-0.019c-0.012,0-0.019,0.008-0.031,0.008c-0.012,0-0.019-0.008-0.029-0.008
	v0.019c-0.077,0-0.151,0.004-0.228,0.008l-0.174,0.008l-0.139,0.012c-1.556,0.114-3.034,0.725-4.216,1.742l-0.11,0.087l-1.052-1.044
	l-0.405-0.407l-1.358-1.36h3.159v-2.296l2.721,1.264L63.977,17.444z M63.977,23.359c0.206,0,0.411,0.012,0.614,0.029
	c1.37,0.176,2.568,0.851,3.28,1.335c0.718,0.581,1.289,1.32,1.652,2.159c-1.349-0.648-2.797-1.067-4.284-1.241
	c-2.332-0.258-4.69,0.154-6.796,1.189c0.365-0.81,0.913-1.523,1.602-2.084c0.708-0.486,1.924-1.181,3.319-1.358
	c0.203-0.019,0.405-0.029,0.612-0.029L63.977,23.359z M57.775,25.674c-0.073,0.123-0.142,0.247-0.206,0.374l-0.008-0.004L54.3,31.83
	c-0.143-0.01-0.264,0-0.38-0.068c-0.096-0.056-0.127-0.077-0.151-0.226c-0.023-0.149,0.006-0.475,0.261-1.007l0.388-0.807h-2.431
	l1.438-2.223c0.273-0.004,0.546-0.026,0.816-0.068h0.096c0.672,0,1.281-0.289,1.775-0.604c0.604-0.308,1.163-0.695,1.663-1.152
	V25.674z M70.242,25.809c1.409,1.303,2.958,1.87,4.407,1.876l1.312,2.04h-2.426l0.386,0.807c0.251,0.531,0.284,0.857,0.259,1.005
	c-0.023,0.149-0.058,0.17-0.154,0.226c-0.116,0.068-0.235,0.058-0.38,0.068l-3.253-5.785l-0.014,0.012
	c-0.043-0.083-0.088-0.166-0.135-0.247L70.242,25.809z M64.021,26.652c1.712,0.039,3.711,0.486,5.901,1.698
	c0.029,0.224,0.05,0.453,0.05,0.683c0,0.289-0.029,0.575-0.071,0.853c-6.127,3.373-10.735,0.876-11.829,0.174
	c-0.107-0.563-0.125-1.139-0.052-1.708C58.63,27.928,60.822,26.581,64.021,26.652z M63.975,27.04
	c-0.309,0.002-0.559,0.253-0.56,0.562v2.879c-0.001,0.31,0.249,0.563,0.56,0.565c0.311,0.001,0.564-0.25,0.565-0.562
	c0-0.001,0-0.003,0-0.004v-2.879C64.539,27.291,64.286,27.039,63.975,27.04C63.975,27.04,63.975,27.04,63.975,27.04z M61.713,27.478
	c-0.308,0.002-0.557,0.251-0.56,0.56v1.999c-0.001,0.31,0.249,0.563,0.56,0.565c0.311,0.001,0.564-0.25,0.565-0.562
	c0-0.001,0-0.003,0-0.004V28.04C62.278,27.729,62.025,27.477,61.713,27.478L61.713,27.478z M66.229,27.478
	c-0.308,0.002-0.558,0.251-0.56,0.56v1.999c-0.001,0.31,0.249,0.563,0.56,0.565c0.311,0.001,0.564-0.25,0.565-0.562
	c0-0.001,0-0.003,0-0.004v-1.999C66.792,27.727,66.539,27.477,66.229,27.478z M59.454,27.982c-0.31,0.001-0.56,0.252-0.562,0.562
	v0.996c-0.001,0.31,0.249,0.563,0.56,0.565c0.311,0.001,0.564-0.25,0.565-0.562c0-0.001,0-0.003,0-0.004v-0.996
	c-0.002-0.31-0.254-0.56-0.563-0.56V27.982z M68.49,27.982c-0.309,0.002-0.559,0.253-0.56,0.562v0.996
	c-0.001,0.31,0.249,0.563,0.56,0.565c0.311,0.001,0.564-0.25,0.565-0.562c0-0.001,0-0.003,0-0.004v-0.996
	c-0.002-0.31-0.255-0.561-0.565-0.56V27.982z M50.367,30.851h2.47c-0.064,0.286-0.222,0.614-0.183,0.859
	c0.014,0.083,0.096,0.104,0.125,0.181c-0.687,0.027-1.428,0.048-2.009-0.008c-0.251-0.019-0.499-0.068-0.739-0.145
	c-0.168-0.06-0.21-0.122-0.205-0.112c0.006,0.01-0.027,0.019,0.046-0.143c0.058-0.131,0.264-0.378,0.494-0.635L50.367,30.851z
	 M75.109,30.851h2.472c0.23,0.257,0.436,0.502,0.494,0.633c0.073,0.164,0.039,0.154,0.044,0.143c0.006-0.01-0.035,0.052-0.203,0.114
	c-0.24,0.076-0.488,0.124-0.739,0.143c-0.579,0.056-1.32,0.035-2.005,0.008c0.025-0.077,0.108-0.096,0.122-0.178
	C75.333,31.467,75.173,31.137,75.109,30.851L75.109,30.851z M69.428,31.39c-0.942,1.953-3.02,3.317-5.453,3.317
	c-2.348,0-4.361-1.266-5.347-3.103C60.666,32.521,64.635,33.611,69.428,31.39z M38.953,32.64c0.247-0.004,0.494,0.008,0.735,0.031
	c4.029,0.384,3.433,1.845,4.938,2.985c0.743,0.565,1.629,0.683,2.447,0.594c0.816-0.087,1.592-0.365,2.246-0.633
	c0.141-0.058,0.118-0.046,0.166-0.052c0.004,0.212-0.079,0.756-0.288,1.436c-0.181,0.589-0.37,0.714-0.996,0.834
	c-0.623,0.12-1.64,0.091-3.003,0.091c-0.749,0-1.316,0.147-1.737,0.425c-0.376,0.248-0.645,0.629-0.753,1.067
	c-0.178,0.751,0.11,1.399,0.11,1.399l0.648,0.338c0,0,2.688-0.558,4.618-0.048l0.008,0.004c0.096,0.025,0.203,0.056,0.309,0.091
	c0.448,0.154,0.54,0.301,0.573,0.392c0.033,0.093,0.019,0.251-0.083,0.463c-0.166,0.355-0.442,0.616-0.562,0.735
	c-1.094-0.361-2.505-0.49-3.859-0.49c-1.524,0-2.823,0.102-2.823,0.102L41.4,42.485c-0.76,0.469-1.347,0.598-2.065,0.423
	l-0.015,0.021c-0.355-0.103-0.694-0.254-1.009-0.448v-0.004c-0.511-0.297-0.623-0.695-0.645-1.108
	c-0.023-0.413,0.085-0.751,0.085-0.751l-1.069-0.357c0,0-0.176,0.521-0.141,1.167c0.037,0.646,0.33,1.511,1.196,2.02
	c0.367,0.216,0.733,0.378,1.092,0.482c-0.778,2.676-0.318,4.577,0.708,6.15l-0.044,0.058l0.181,0.151
	c0.064,0.093,0.131,0.183,0.199,0.274c1.312,1.741,3.089,3.261,4.361,5.855v0.004c-0.023-0.048-0.023-0.035,0.019,0.044l0.12,0.154
	c0.93,0.87,2.219,1.246,3.471,1.011l0.008,0.029l0.54-0.158l0.54-0.162l-0.021-0.068c0.423-0.226,0.872-0.546,1.312-0.83
	c-0.008,0.442,0.077,0.662-0.174,1.339c-0.436,1.162-1.331,2.325-3.751,2.52l-0.509,0.652c0.428,2.651-0.239,4.649-1.536,6.916
	c-1.177,1.625-2.775,2.323-4.284,2.597c-1.18,0.201-2.386,0.197-3.564-0.012h-0.008c-1.418-0.237-2.549,0.569-3.232,1.522
	c-0.685,0.953-1.03,2.049-1.063,2.854v0.004c-0.019,0.583,0.361,0.849,0.629,1.227c-0.251-0.102-0.438,0.019-0.691-0.17
	c-0.764-0.577-1.409-1.505-1.575-2.416c-0.338-1.841,1.138-3.338,1.138-3.338l-0.407-0.965c0,0,0.01,0.008-0.087-0.027
	c-0.164-0.063-0.309-0.167-0.423-0.301c-0.353-0.388-0.828-1.306-0.897-3.365c-0.064-1.937,0.905-3.039,1.941-3.751
	c0.039-0.027,0.039-0.012,0.079-0.037c-0.295,0.747-0.473,1.652-0.183,2.894v0.004c0.419,1.781,1.463,2.673,2.509,2.939
	c1.046,0.268,2.032,0.002,2.537-0.139c0.951-0.285,1.805-0.826,2.47-1.563c0.818-0.922,1.331-2.373,0.666-4.11
	c-0.78-2.165-3.082-4.266-5.148-7.047c-2.065-2.779-3.911-6.144-3.89-10.602V44.06c0.116-4.427,1.413-7.36,3.126-9.139
	C35.397,33.362,37.226,32.667,38.953,32.64L38.953,32.64z M88.985,32.64c1.727,0.027,3.562,0.722,5.061,2.281
	c1.715,1.781,3.014,4.716,3.128,9.15c0.023,4.458-1.822,7.823-3.888,10.602c-2.065,2.779-4.367,4.876-5.148,7.041
	c-0.672,1.739-0.151,3.192,0.67,4.116c0.822,0.922,1.858,1.393,2.462,1.563c0.506,0.141,1.497,0.407,2.543,0.139
	c1.046-0.266,2.088-1.158,2.507-2.939c0.291-1.241,0.11-2.148-0.185-2.894c0.039,0.025,0.039,0.008,0.077,0.035
	c1.038,0.71,2.013,1.816,1.951,3.753c-0.069,2.055-0.546,2.972-0.901,3.358c-0.178,0.193-0.328,0.27-0.425,0.305
	c-0.096,0.035-0.087,0.027-0.087,0.027l-0.411,0.965c0,0,1.484,1.499,1.146,3.338c-0.172,0.911-0.818,1.839-1.582,2.416
	c-0.251,0.189-0.436,0.068-0.683,0.17c0.266-0.378,0.645-0.645,0.625-1.227c-0.029-0.809-0.378-1.905-1.061-2.856
	c-0.687-0.955-1.818-1.76-3.236-1.524H91.54c-1.177,0.208-2.382,0.212-3.56,0.012c-1.507-0.274-3.101-0.973-4.278-2.597
	c-1.299-2.267-1.972-4.263-1.538-6.912l-0.513-0.656c-2.422-0.195-3.319-1.357-3.753-2.52c-0.251-0.675-0.166-0.893-0.174-1.335
	c0.438,0.282,0.888,0.6,1.308,0.826l-0.019,0.068l0.54,0.162h0.004l0.029,0.008l0.509,0.151l0.008-0.029
	c1.252,0.233,2.54-0.142,3.471-1.011l0.123-0.17c-0.031,0.066-0.025,0.058,0.019-0.029l0.004-0.004
	c1.266-2.592,3.041-4.114,4.353-5.853l0.193-0.268l0.187-0.158l-0.046-0.058c1.029-1.573,1.492-3.477,0.71-6.154
	c0.359-0.104,0.727-0.259,1.096-0.475c0.868-0.507,1.164-1.376,1.198-2.024c0.021-0.394-0.028-0.79-0.143-1.167l-1.071,0.357
	c0,0,0.11,0.338,0.087,0.753c-0.023,0.411-0.131,0.809-0.641,1.106c-0.315,0.194-0.655,0.347-1.009,0.453l-0.015-0.023
	c-0.629,0.154-1.166,0.071-1.798-0.264h-0.004c-0.091-0.05-0.182-0.103-0.27-0.158l-0.253-0.083c0,0-1.299-0.1-2.823-0.1
	c-1.185,0-2.412,0.098-3.435,0.365c-0.001,0-0.001,0-0.002,0c-0.048-0.027-0.099-0.047-0.152-0.06
	c-0.117,0.011-0.228,0.058-0.316,0.135c-0.209-0.197-0.382-0.429-0.511-0.685c-0.1-0.216-0.116-0.372-0.083-0.463
	c0.033-0.093,0.125-0.241,0.573-0.394c0.104-0.035,0.208-0.066,0.305-0.091l0.008-0.004c1.93-0.509,4.62,0.05,4.62,0.05l0.645-0.34
	c0,0,0.289-0.648,0.114-1.399c-0.105-0.437-0.372-0.817-0.747-1.065c-0.421-0.28-0.988-0.426-1.737-0.426
	c-1.366,0-2.381,0.031-3.004-0.091c-0.623-0.122-0.812-0.243-0.996-0.834c-0.206-0.677-0.293-1.221-0.289-1.436
	c0.046,0.006,0.025,0,0.162,0.054c0.654,0.268,1.428,0.544,2.246,0.633c0.816,0.087,1.708-0.029,2.451-0.596
	c1.501-1.14,0.907-2.601,4.932-2.985c0.244-0.023,0.489-0.033,0.733-0.029L88.985,32.64z M61.021,35.218
	c1.881,0.819,4.018,0.819,5.899,0c0.212,0.513,0.67,1.378,1.54,2.103c0.058,0.048,0.12,0.091,0.181,0.135
	c-0.807,0.772-2.385,1.914-4.65,1.862l-0.012,0.562l-0.015-0.56c-2.263,0.05-3.846-1.092-4.654-1.864
	c0.06-0.042,0.122-0.089,0.178-0.135C60.357,36.596,60.808,35.731,61.021,35.218z M41.821,36.112l-0.548,0.34
	c0,0.039,0.008,0.068,0.008,0.106c-0.002,0.304-0.248,0.549-0.552,0.55c-0.303-0.002-0.548-0.247-0.55-0.55
	c0-0.062,0.015-0.122,0.031-0.174h-0.648c-0.097,0.645,0.347,1.246,0.992,1.343c0.058,0.009,0.117,0.013,0.175,0.013
	c0.654-0.002,1.183-0.535,1.18-1.189c-0.001-0.151-0.03-0.3-0.086-0.439H41.821z M86.122,36.112
	c-0.246,0.604,0.044,1.293,0.648,1.539s1.293-0.044,1.539-0.648c0.08-0.197,0.106-0.411,0.074-0.621h-0.648
	c0.1,0.285-0.05,0.596-0.334,0.696c-0.285,0.1-0.596-0.05-0.696-0.334c-0.021-0.06-0.032-0.124-0.031-0.188
	c-0.002-0.037-0.002-0.068,0.006-0.104L86.122,36.112z M75.117,39.753c0.926,0.221,1.85,0.448,2.773,0.681
	c0.185,0.048,0.355,0.096,0.486,0.133c-0.211,0.17-0.373,0.394-0.467,0.648c-0.172,0.482-0.048,0.951,0.123,1.318
	c0.343,0.733,0.951,1.252,0.951,1.252l0.347,0.052c0.01,1.31,0.019,2.622,0.025,3.931l-0.226,8.348
	c-0.621-0.309-1.202-0.692-1.731-1.14l-0.919,0.365c0,0-0.185,1.378,0.361,2.837c0.28,0.749,0.828,1.484,1.656,2.065
	c-0.009,0.011-0.018,0.022-0.027,0.033c-0.6,2.305-1.529,4.51-2.759,6.549c-0.859-0.643-1.37-0.43-2.373-1.428
	c-1.169-1.177-0.664-1.673-1.839-2.85c-1.169-1.167-1.673-0.662-2.842-1.839c-1.167-1.167-0.672-1.673-1.839-2.84
	c-1.177-1.169-1.673-0.672-2.842-1.841c-1.177,1.169-1.673,0.672-2.848,1.841c-1.169,1.167-0.664,1.673-1.839,2.84
	c-1.169,1.177-1.675,0.672-2.842,1.839c-1.169,1.177-0.672,1.675-1.839,2.85c-1.009,1.003-1.521,0.783-2.383,1.436
	c-0.373-0.632-0.721-1.278-1.042-1.937h-0.006c-0.732-1.489-1.311-3.049-1.729-4.654c0.83-0.579,1.38-1.314,1.66-2.061
	c0.544-1.461,0.361-2.839,0.361-2.839l-0.924-0.361c-0.65,0.54-1.233,0.907-1.76,1.158l-0.193-7.699v-4.596l0.37-0.058
	c0,0,0.61-0.517,0.953-1.25c0.174-0.367,0.297-0.834,0.125-1.318c-0.126-0.324-0.353-0.598-0.648-0.782l0.116-0.029h0.008
	c1.548-0.328,2.099-0.486,3.269-0.486c0.043,0,0.086-0.005,0.127-0.015c0.336,0.592,0.772,1.248,1.322,1.899
	c1.762,2.084,4.778,4.168,9.525,4.139h0.43c4.751,0.029,7.767-2.053,9.527-4.139C74.312,41.094,74.769,40.384,75.117,39.753
	L75.117,39.753z M44.468,43.429c1.023,0,2.161,0.073,2.991,0.218v4.807l0.201,8.068c-1.177,0.23-1.947-0.199-2.507-0.712
	c-0.389-0.765-0.838-1.499-1.341-2.194c1.878-1.059,2.663-3.354,1.669-5.351l-0.897-0.154c0,0-0.72,0.693-1.613,1.21
	c-0.444,0.259-0.93,0.467-1.341,0.531c-0.411,0.064-0.71,0.01-0.988-0.218l-0.143-0.116c-0.994-1.428-1.438-2.842-0.617-5.432
	c0.683,0,1.351-0.193,1.989-0.565C42.058,43.506,43.117,43.431,44.468,43.429z M83.466,43.429c1.357,0,2.422,0.077,2.601,0.091
	c0.641,0.372,1.303,0.569,1.988,0.569c0.82,2.588,0.38,4-0.616,5.428l-0.143,0.116c-0.276,0.23-0.579,0.284-0.992,0.218
	c-0.409-0.064-0.892-0.27-1.337-0.531c-0.892-0.517-1.617-1.21-1.617-1.21l-0.897,0.154c-0.984,1.997-0.206,4.297,1.675,5.357
	c-0.467,0.65-0.922,1.37-1.335,2.184c-0.565,0.521-1.347,0.955-2.551,0.71l0.237-8.741v-0.008c-0.008-1.368-0.014-2.744-0.027-4.116
	c0.998-0.155,2.006-0.23,3.016-0.222L83.466,43.429z M56.81,45.474c-0.967,0.002-1.749,0.787-1.747,1.753
	c0,0.276,0.066,0.548,0.192,0.794h-2.19c-0.899-0.01-1.671,0.64-1.814,1.528l-0.006,0.044v2.711l1.777,1.783l0.399-0.411
	l0.453,0.452v2.142h2.424V54.16l2.935-1.49l0.216,0.411l-1.588,3.188h2.669l1.872-3.576v-2.7L62.4,49.961
	c-0.197-1.565-1.827-1.93-1.827-1.93l-0.058-0.012h-2.148c0.438-0.862,0.095-1.915-0.767-2.353c-0.245-0.124-0.515-0.19-0.79-0.19
	L56.81,45.474z M71.103,45.474c-0.967,0.001-1.75,0.785-1.749,1.751c0,0.277,0.066,0.55,0.192,0.796h-2.19
	c-0.899-0.008-1.668,0.644-1.808,1.532l-0.004,0.042v2.709l1.768,1.779l0.411-0.407l0.452,0.452v2.142h2.416V54.16l2.935-1.49
	l0.216,0.411l-1.58,3.188h2.669l1.866-3.576v-2.696l-0.004-0.033c-0.187-1.569-1.827-1.934-1.827-1.934l-0.058-0.012H72.66
	c0.438-0.862,0.095-1.915-0.767-2.353c-0.245-0.124-0.515-0.19-0.79-0.19L71.103,45.474z M56.81,46.607
	c0.343-0.017,0.635,0.246,0.652,0.589c0.017,0.343-0.246,0.635-0.589,0.652c-0.023,0.001-0.046,0.001-0.069,0
	c-0.343-0.021-0.603-0.315-0.583-0.658C56.241,46.874,56.494,46.623,56.81,46.607z M71.103,46.607
	c0.344-0.021,0.639,0.241,0.66,0.585c0.021,0.344-0.241,0.639-0.585,0.66c-0.023,0.001-0.046,0.001-0.069,0
	c-0.344-0.017-0.608-0.31-0.591-0.654C70.534,46.88,70.786,46.626,71.103,46.607z M53.065,49.146h0.309l-0.324,0.455
	c0,0,0.193,0.17,0.237,0.289c0.021,0.062,0.029,0.083-0.012,0.149c-0.039,0.066-0.164,0.193-0.471,0.328l0.293,0.664
	c0.392-0.174,0.654-0.372,0.803-0.627c0.133-0.228,0.16-0.503,0.073-0.753c-0.071-0.192-0.186-0.365-0.336-0.506h2.619v3.769
	l-1.084,0.554v1.675h-0.17v-1.478l-1.586-1.586l-0.399,0.405l-0.645-0.643v-2.134c0.002-0.017,0.023-0.139,0.12-0.282
	C52.596,49.272,52.7,49.146,53.065,49.146z M57.383,49.146h2.977c0.019,0.004,0.809,0.135,0.917,0.949v2.321l-1.428,2.727h-0.166
	l1.032-2.074l-1.003-1.91l-2.329,1.183L57.383,49.146z M67.356,49.146h0.309l-0.324,0.455c0,0,0.199,0.174,0.241,0.295
	c0.023,0.06,0.029,0.073-0.012,0.139c-0.039,0.066-0.166,0.195-0.475,0.332l0.295,0.668c0.392-0.174,0.656-0.372,0.807-0.627
	c0.132-0.232,0.157-0.509,0.068-0.76c-0.071-0.19-0.184-0.362-0.332-0.502h2.624v3.765l-1.094,0.56v1.673h-0.16v-1.478l-1.582-1.582
	l-0.405,0.405l-0.643-0.646v-2.138c0.021-0.101,0.061-0.197,0.12-0.282c0.102-0.152,0.201-0.276,0.565-0.276L67.356,49.146z
	 M71.682,49.146h2.972c0.019,0.004,0.81,0.135,0.915,0.946v2.325l-1.42,2.725h-0.17l1.029-2.076l-1.003-1.907l-2.321,1.179V49.146z
	 M44.528,49.554c0.251,1.277-0.174,2.528-1.409,3.155c-0.504-0.629-1-1.198-1.455-1.731c0.046-0.006,0.093-0.008,0.139-0.015
	c0.625-0.096,1.216-0.365,1.733-0.666C44.099,49.968,44.196,49.83,44.528,49.554z M83.41,49.554
	c0.332,0.276,0.428,0.417,0.988,0.743c0.521,0.301,1.108,0.569,1.735,0.666l0.143,0.019c-0.457,0.533-0.953,1.1-1.455,1.727
	c-1.243-0.623-1.66-1.872-1.409-3.155H83.41z M64.056,63.476c1.167,1.177,1.665,0.672,2.84,1.839
	c1.167,1.177,0.664,1.673,1.839,2.85c1.167,1.167,1.673,0.67,2.842,1.839c0.484,0.484,0.683,0.859,0.832,1.21
	c-2.265,2.462-4.924,4.411-7.914,5.916c-0.425,0.214-0.668,0.212-1.098-0.008c-2.977-1.522-5.584-3.417-7.775-5.747
	c0.162-0.405,0.34-0.81,0.901-1.372c1.167-1.169,1.673-0.672,2.842-1.841c1.175-1.175,0.67-1.673,1.839-2.848
	c1.177-1.169,1.673-0.664,2.848-1.839H64.056z M41.846,73.09l-0.351,0.289c0,0-0.127,0.116-0.268,0.318
	c-0.206,0.309-0.379,0.639-0.515,0.984c-0.37,0.893-0.782,2.489-1.067,4.872c-0.068,0.039-0.343,0.218-1.274,0.425
	c-1.029,0.232-2.665,0.421-5.069,0.247l-1.343-0.098l1.067,0.818l4.5,3.452l6.264-5.538c0.216,0.046,3.637,0.756,6.547,1.038
	l3.045,0.293l-2.862-1.075c0,0-1.582-0.59-3.439-1.602c-1.854-1.011-3.965-2.455-4.99-4.041L41.846,73.09z M88.182,73.236
	l-0.245,0.378c-1.023,1.582-3.136,3.026-4.994,4.037c-1.856,1.009-3.441,1.602-3.441,1.602l-2.842,1.061l3.02-0.282
	c2.914-0.274,6.335-0.984,6.553-1.029l6.258,5.536l5.573-4.278l-1.341,0.096c-2.404,0.176-4.043-0.014-5.069-0.243
	c-0.93-0.208-1.208-0.386-1.274-0.425c-0.288-2.385-0.693-3.979-1.063-4.87c-0.137-0.344-0.31-0.673-0.517-0.98
	c-0.139-0.201-0.27-0.316-0.27-0.316L88.182,73.236z M41.807,74.311c1.221,1.609,3.134,2.952,4.884,3.909
	c0.502,0.27,0.49,0.222,0.926,0.432c-1.631-0.274-3.869-0.614-3.869-0.614l-0.197-0.042l-6.063,5.357l-3.107-2.383
	c1.692,0.027,3.292-0.014,4.164-0.206c1.111-0.249,1.652-0.573,1.652-0.573l0.17-0.102l0.019-0.195
	c0.28-2.555,0.714-4.056,1.065-4.903C41.597,74.643,41.709,74.467,41.807,74.311L41.807,74.311z M88.221,74.454
	c0.096,0.154,0.206,0.332,0.349,0.675c0.351,0.845,0.787,2.346,1.067,4.899l0.023,0.197l0.166,0.1c0,0,0.542,0.326,1.654,0.573
	c0.872,0.193,2.47,0.233,4.164,0.208l-3.116,2.389l-6.053-5.357l-0.195,0.042c0,0-2.246,0.338-3.882,0.61
	c0.44-0.21,0.428-0.16,0.932-0.432C85.081,77.406,86.998,76.061,88.221,74.454L88.221,74.454z M85.85,79.349l-0.257,0.152
	c-22.291,12.967-41.354,0.151-41.354,0.151l-0.264-0.178l-7.925,7.338v0.409l0.206,0.116c31.92,17.845,57.34-0.019,57.34-0.019
	l0.399-0.289L85.85,79.349z M84.572,79.591c0,0-6.31,1.409-8.17,1.011l1.274,2.163C77.675,82.765,82.062,81.017,84.572,79.591
	L84.572,79.591z M45.346,79.878c2.503,1.326,6.85,2.887,6.85,2.887l1.177-2.163C51.573,81.053,45.346,79.878,45.346,79.878z
	 M85.714,80.326l6.976,6.58c-1.202,0.826-25.001,16.672-55.516-0.039l6.906-6.395C44.881,80.997,63.655,92.961,85.714,80.326z
	 M43.796,83.22l-1.056,2.171c-0.573,1.146-0.179,1.87,0.573,2.233c0.814,0.392,1.66,0.241,2.2-0.907l1.057-2.169l-0.482-0.241
	l-1.086,2.2c-0.392,0.814-0.934,1.027-1.507,0.724c-0.482-0.21-0.664-0.753-0.27-1.598l1.084-2.2L43.796,83.22z M86.062,83.433
	l-2.02,0.934l1.748,3.74l2.08-0.965l-0.181-0.425l-1.627,0.754l-0.635-1.326l1.478-0.695l-0.181-0.421l-1.476,0.695l-0.573-1.208
	l1.567-0.724L86.062,83.433z M83.688,84.517l-0.544,0.212l0.091,2.171c0.029,0.571,0.091,1.115,0.151,1.598l-0.031,0.029
	c-0.27-0.421-0.602-0.814-0.994-1.297l-1.297-1.658l-0.544,0.212l2.775,3.346l0.513-0.212L83.688,84.517z M47.299,84.864
	l-1.478,3.859l0.452,0.151l0.635-1.66c0.241-0.662,0.421-1.115,0.571-1.567v-0.031c0.031,0.513,0.152,1.056,0.241,1.569l0.482,2.443
	l0.513,0.179l1.478-3.859l-0.482-0.179l-0.604,1.598c-0.227,0.54-0.418,1.095-0.573,1.66c-0.032-0.527-0.103-1.052-0.212-1.569
	l-0.482-2.412L47.299,84.864z M79.491,86.153c-0.199,0.004-0.425,0.048-0.697,0.139c-0.392,0.122-0.724,0.27-0.965,0.363
	l1.235,3.917l0.482-0.149l-0.54-1.717l0.511-0.152c0.452-0.12,0.724,0,1.025,0.513c0.241,0.482,0.453,0.783,0.573,0.874l0.513-0.181
	c-0.151-0.12-0.363-0.482-0.633-0.965c-0.241-0.423-0.513-0.633-0.845-0.602v-0.031c0.392-0.301,0.573-0.724,0.392-1.235
	c-0.063-0.286-0.251-0.53-0.511-0.664C79.862,86.186,79.677,86.148,79.491,86.153L79.491,86.153z M50.99,86.192l-1.266,3.948
	l0.482,0.151l1.268-3.95L50.99,86.192z M51.832,86.503l-0.091,0.425l1.237,0.33l-0.965,3.562l0.513,0.147l0.965-3.558l1.235,0.301
	l0.091-0.421L51.832,86.503z M79.412,86.599c0.311,0.002,0.544,0.164,0.648,0.538c0.151,0.452-0.091,0.843-0.633,1.023l-0.542,0.152
	l-0.453-1.416c0.156-0.104,0.33-0.176,0.513-0.212c0.15-0.055,0.308-0.084,0.467-0.087V86.599z M77.154,86.817l-2.142,0.54
	l0.998,4.012l2.231-0.542l-0.122-0.453l-1.748,0.423l-0.332-1.416l1.569-0.392l-0.122-0.453l-1.567,0.392l-0.332-1.266l1.66-0.423
	L77.154,86.817z M55.176,87.358L54.361,91.4l2.262,0.452l0.091-0.452l-1.779-0.332l0.301-1.447l1.598,0.301l0.091-0.423
	l-1.598-0.301l0.241-1.328l1.688,0.332l0.091-0.392L55.176,87.358z M73.594,87.578c-0.095,0.002-0.193,0.008-0.299,0.023
	c-0.783,0.151-1.235,0.724-1.115,1.385c0.091,0.544,0.573,0.845,1.297,0.936c0.573,0.12,0.845,0.301,0.934,0.695
	c0.062,0.39-0.21,0.722-0.753,0.812c-0.363,0.06-0.724,0-0.996-0.091l-0.029,0.453c0.333,0.141,0.702,0.172,1.054,0.089
	c0.965-0.179,1.358-0.783,1.237-1.416c-0.091-0.602-0.513-0.874-1.266-1.025c-0.604-0.122-0.874-0.27-0.965-0.604
	c-0.031-0.301,0.12-0.693,0.664-0.783c0.271-0.052,0.552-0.031,0.812,0.06l0.062-0.452C74.025,87.598,73.81,87.57,73.594,87.578
	L73.594,87.578z M58.016,87.944l-0.511,4.07c0.241,0.06,0.573,0.091,0.965,0.151c0.753,0.091,1.447-0.031,1.868-0.392
	c0.425-0.301,0.695-0.845,0.785-1.478c0.091-0.664-0.062-1.177-0.392-1.567c-0.332-0.392-0.845-0.633-1.6-0.724
	c-0.37-0.047-0.743-0.068-1.115-0.062L58.016,87.944z M70.217,88.187L67.985,88.4l0.363,4.101l2.321-0.212l-0.031-0.452
	l-1.808,0.151l-0.151-1.476l1.627-0.152l-0.029-0.452l-1.629,0.151l-0.12-1.326l1.717-0.151L70.217,88.187z M58.47,88.396
	c0.151,0,0.361,0.029,0.633,0.06c1.115,0.122,1.598,0.814,1.476,1.81c-0.151,1.084-0.843,1.627-1.959,1.476
	c-0.212-0.029-0.392-0.029-0.542-0.091L58.47,88.396z M62.541,88.448l1.054,4.129h0.573l0.573-2.169
	c0.151-0.513,0.241-0.936,0.332-1.328c0.058,0.392,0.151,0.814,0.27,1.328l0.513,2.171h0.573l1.177-4.129h-0.544l-0.542,2.078
	c-0.152,0.513-0.272,0.965-0.332,1.418h-0.031c-0.069-0.477-0.159-0.95-0.27-1.418l-0.513-2.08h-0.573l-0.542,2.08
	c-0.151,0.544-0.27,1.027-0.332,1.447h-0.031c-0.08-0.486-0.181-0.969-0.301-1.447l-0.482-2.08H62.541z M33.044,101.423
	c-1.937,0-3.543,0.617-4.809,1.847c-1.274,1.229-1.908,2.773-1.908,4.65c0,1.833,0.627,3.346,1.891,4.56
	c1.26,1.216,2.837,1.825,4.728,1.825c1.982,0,3.618-0.612,4.921-1.825c1.306-1.214,1.955-2.744,1.955-4.598
	c0-1.847-0.641-3.383-1.93-4.612S34.982,101.423,33.044,101.423z M84.979,101.423c-1.937,0-3.543,0.617-4.809,1.847
	c-1.266,1.229-1.906,2.773-1.906,4.65c0,1.833,0.633,3.346,1.891,4.56c1.258,1.216,2.835,1.825,4.728,1.825
	c1.982,0,3.624-0.612,4.928-1.825c1.304-1.214,1.953-2.744,1.953-4.598c0-1.847-0.648-3.383-1.937-4.612
	C88.538,102.04,86.924,101.423,84.979,101.423z M20.147,101.446c-1.914,0-3.52,0.617-4.824,1.868
	c-1.303,1.245-1.951,2.783-1.951,4.606c0,1.154,0.278,2.223,0.851,3.211c0.573,0.988,1.341,1.764,2.316,2.329
	c0.978,0.56,2.169,0.845,3.57,0.845c1.727,0,3.25-0.363,4.569-1.086v-1.974c-1.455,0.934-2.939,1.401-4.463,1.401
	c-1.453,0-2.651-0.444-3.587-1.326c-0.926-0.89-1.401-2.02-1.401-3.4c0-1.364,0.482-2.503,1.432-3.408
	c0.949-0.903,2.142-1.364,3.572-1.364c1.409,0,2.842,0.425,4.313,1.26v-1.93C22.929,101.784,21.466,101.446,20.147,101.446z
	 M55.031,101.446c-1.1,0-1.988,0.309-2.675,0.919c-0.687,0.617-1.032,1.424-1.032,2.412c0,0.656,0.179,1.245,0.55,1.748
	c0.353,0.506,0.965,1.019,1.824,1.546l1.364,0.83c1.1,0.685,1.66,1.409,1.66,2.171c0,0.475-0.189,0.866-0.567,1.177
	c-0.394,0.322-0.892,0.49-1.401,0.473c-1.281,0-2.404-0.617-3.369-1.847v2.285c1.009,0.76,2.142,1.146,3.385,1.146
	c1.077,0,1.951-0.316,2.63-0.951c0.672-0.625,1.009-1.44,1.009-2.451c0-1.416-0.768-2.576-2.296-3.489l-1.374-0.814
	c-0.617-0.361-1.061-0.708-1.341-1.032c-0.262-0.289-0.41-0.665-0.415-1.056c0-0.421,0.189-0.776,0.565-1.048
	c0.376-0.27,0.859-0.405,1.447-0.405c1.04,0,2.013,0.436,2.918,1.303v-2.034C57.064,101.747,56.059,101.44,55.031,101.446
	L55.031,101.446z M39.767,101.589v1.598h4.303v10.974h1.81v-10.974h4.373v-1.598H39.767z M58.996,101.604l5.065,12.61h0.386
	l4.145-10.214l4.108,10.214h0.392l5.073-12.61h-1.795l-3.421,8.653l-3.498-8.653h-1.692l-3.489,8.653l-3.454-8.653H58.996z
	 M93.971,101.604v12.558h7.454v-1.636h-5.654v-10.922H93.971z M103.018,101.604v12.535h3.964c1.115,0,1.872-0.031,2.269-0.091
	c0.447-0.08,0.884-0.206,1.304-0.376c0.797-0.296,1.521-0.759,2.125-1.358c1.202-1.161,1.877-2.762,1.87-4.432
	c0-1.167-0.293-2.252-0.882-3.248c-0.555-0.966-1.376-1.751-2.366-2.262c-0.996-0.511-2.354-0.768-4.056-0.768H103.018z
	 M33.112,103.134c1.364,0,2.518,0.452,3.454,1.357c0.94,0.911,1.409,2.026,1.409,3.361c0,1.364-0.469,2.503-1.409,3.421
	c-0.936,0.913-2.103,1.372-3.506,1.372c-1.395,0-2.555-0.444-3.483-1.349c-0.926-0.897-1.387-2.02-1.387-3.377
	c0-1.393,0.461-2.539,1.389-3.437c0.919-0.905,2.101-1.351,3.533-1.351L33.112,103.134z M85.054,103.134
	c1.364,0,2.518,0.452,3.454,1.357c0.934,0.911,1.401,2.026,1.401,3.361c0,1.364-0.467,2.503-1.403,3.421
	c-0.934,0.913-2.103,1.372-3.504,1.372c-1.395,0-2.555-0.444-3.483-1.349c-0.926-0.897-1.395-2.02-1.395-3.377
	c0-1.393,0.469-2.539,1.389-3.437c0.926-0.905,2.101-1.351,3.541-1.351L85.054,103.134z M104.81,103.202h2.246
	c0.861,0,1.494,0.039,1.878,0.096c0.392,0.069,0.799,0.205,1.235,0.409c0.438,0.203,0.822,0.467,1.154,0.783
	c0.913,0.851,1.364,1.953,1.364,3.294c0,1.37-0.436,2.509-1.326,3.408c-0.27,0.278-0.579,0.504-0.913,0.7
	c-0.392,0.209-0.81,0.366-1.243,0.467c-0.498,0.122-1.198,0.181-2.096,0.181h-2.3V103.202z M76.56,119.98
	c-1.206,0-2.209,0.386-3.001,1.146c-0.783,0.768-1.183,1.733-1.183,2.894c0,1.138,0.392,2.088,1.177,2.842
	c0.782,0.753,1.762,1.131,2.945,1.131c1.229,0,2.254-0.378,3.068-1.131c0.807-0.754,1.216-1.712,1.216-2.856
	c0-1.162-0.401-2.113-1.208-2.881C78.768,120.364,77.766,119.98,76.56,119.98L76.56,119.98z M26.638,119.986
	c-0.687,0-1.245,0.197-1.667,0.581c-0.427,0.379-0.662,0.929-0.641,1.499c0,0.407,0.114,0.77,0.34,1.086
	c0.226,0.316,0.604,0.633,1.139,0.965l0.851,0.511c0.687,0.43,1.027,0.884,1.027,1.358c0.005,0.284-0.124,0.554-0.347,0.729
	c-0.246,0.2-0.557,0.305-0.874,0.295c-0.799,0-1.501-0.386-2.103-1.154v1.424c0.633,0.477,1.341,0.718,2.111,0.718
	c0.67,0,1.214-0.205,1.634-0.589c0.425-0.392,0.627-0.905,0.627-1.53c0-0.882-0.477-1.605-1.426-2.171l-0.859-0.513
	c-0.308-0.169-0.588-0.385-0.83-0.641c-0.164-0.179-0.258-0.413-0.262-0.656c0-0.262,0.12-0.482,0.353-0.648
	c0.266-0.181,0.584-0.271,0.905-0.255c0.648,0,1.25,0.27,1.816,0.814v-1.274c-0.529-0.36-1.155-0.552-1.795-0.552L26.638,119.986z
	 M50.45,119.986c-1.193,0-2.186,0.392-3.001,1.169c-0.797,0.74-1.239,1.785-1.216,2.871c0,0.716,0.174,1.38,0.529,1.989
	c0.355,0.617,0.837,1.1,1.447,1.455c0.604,0.347,1.351,0.521,2.217,0.521c1.077,0,2.02-0.22,2.84-0.672v-1.229
	c-0.895,0.581-1.824,0.874-2.773,0.874c-0.905,0-1.652-0.278-2.231-0.83c-0.581-0.548-0.874-1.258-0.874-2.109
	s0.301-1.561,0.888-2.126c0.589-0.565,1.335-0.851,2.233-0.851c0.866,0,1.764,0.264,2.675,0.783v-1.196
	c-1.003-0.43-1.914-0.65-2.736-0.65L50.45,119.986z M68.562,119.986c-1.191,0-2.186,0.392-2.999,1.169
	c-0.797,0.74-1.239,1.785-1.216,2.871c0,0.716,0.174,1.38,0.529,1.989c0.355,0.617,0.837,1.1,1.44,1.455
	c0.612,0.347,1.351,0.521,2.223,0.521c1.081,0,2.02-0.22,2.842-0.672v-1.229c-0.905,0.581-1.824,0.874-2.773,0.874
	c-0.907,0-1.652-0.278-2.233-0.83c-0.579-0.548-0.874-1.258-0.874-2.109s0.295-1.561,0.89-2.126
	c0.589-0.565,1.335-0.851,2.225-0.851c0.874,0,1.769,0.264,2.682,0.783v-1.196C70.295,120.206,69.384,119.986,68.562,119.986
	L68.562,119.986z M103.025,119.986c-1.193,0-2.194,0.392-3.001,1.169c-0.796,0.74-1.238,1.785-1.214,2.871
	c0,0.716,0.174,1.38,0.527,1.989c0.355,0.617,0.837,1.1,1.447,1.455c0.604,0.347,1.351,0.521,2.217,0.521
	c1.077,0,2.02-0.22,2.84-0.672v-1.229c-0.895,0.581-1.824,0.874-2.773,0.874c-0.905,0-1.65-0.278-2.231-0.83
	c-0.581-0.548-0.874-1.258-0.874-2.109s0.293-1.561,0.888-2.126c0.589-0.565,1.335-0.851,2.225-0.851
	c0.874,0,1.771,0.264,2.682,0.783v-1.196C104.758,120.206,103.845,119.986,103.025,119.986L103.025,119.986z M29.268,120.077v0.996
	h2.682v6.837h1.125v-6.837h2.721v-0.996L29.268,120.077z M53.946,120.077v0.996h2.682v6.837h1.125v-6.837h2.721v-0.996
	L53.946,120.077z M13.343,120.092v7.802h2.472c0.695,0,1.169-0.023,1.409-0.06c0.251-0.039,0.521-0.114,0.816-0.226
	c0.497-0.188,0.949-0.479,1.326-0.853c0.37-0.353,0.664-0.776,0.859-1.258c0.205-0.475,0.303-0.973,0.303-1.494
	c0-0.729-0.181-1.409-0.544-2.026c-0.348-0.601-0.86-1.09-1.476-1.409c-0.617-0.318-1.463-0.477-2.526-0.477H13.343z
	 M21.906,120.092v7.809h1.115v-7.809L21.906,120.092z M36.854,120.092v7.809h1.123v-3.4h0.286c0.369,0,0.633,0.046,0.783,0.129
	c0.158,0.083,0.332,0.218,0.521,0.413c0.195,0.189,0.405,0.444,0.633,0.762l0.376,0.61l0.347,0.573l0.218,0.309
	c0.031,0.039,0.052,0.077,0.068,0.091l0.34,0.513h1.335l-0.415-0.56c-0.166-0.216-0.386-0.556-0.656-1.001
	c-0.43-0.7-0.77-1.196-1.011-1.476c-0.206-0.261-0.452-0.488-0.729-0.672c0.421-0.166,0.753-0.415,0.978-0.747
	c0.232-0.35,0.351-0.763,0.34-1.183c0-0.664-0.232-1.191-0.695-1.582c-0.465-0.392-1.092-0.589-1.883-0.589L36.854,120.092z
	 M43.719,120.092v7.809h1.115v-7.809L43.719,120.092z M81.959,120.092v4.425c0,0.625,0.044,1.092,0.127,1.387
	c0.13,0.501,0.405,0.952,0.791,1.297c0.617,0.527,1.432,0.791,2.451,0.791c1.003,0,1.808-0.264,2.428-0.799
	c0.187-0.158,0.347-0.34,0.475-0.542c0.141-0.239,0.25-0.495,0.324-0.762c0.089-0.309,0.135-0.762,0.135-1.364v-4.432h-1.131v4.432
	c0,0.617-0.044,1.056-0.143,1.304c-0.1,0.257-0.263,0.485-0.475,0.662c-0.415,0.347-0.957,0.521-1.621,0.521
	c-0.42,0.01-0.837-0.081-1.216-0.264c-0.318-0.147-0.586-0.385-0.768-0.685c-0.164-0.288-0.247-0.799-0.247-1.538v-4.432
	L81.959,120.092z M90.236,120.092v7.815h1.056v-6.021l5.224,6.021h0.957v-7.815h-1.063v6.069l-5.268-6.069L90.236,120.092z
	 M107.203,120.092v7.809h1.115v-7.809L107.203,120.092z M110.02,120.092v7.815h4.637v-1.015h-3.52v-6.8L110.02,120.092z
	 M37.977,121.042h0.33c0.552,0,0.944,0.046,1.177,0.122c0.227,0.076,0.423,0.224,0.558,0.423c0.127,0.2,0.193,0.433,0.189,0.67
	c0.006,0.236-0.054,0.468-0.174,0.672c-0.113,0.193-0.285,0.346-0.49,0.436c-0.212,0.098-0.604,0.145-1.169,0.145h-0.421V121.042z
	 M76.608,121.042c0.849,0,1.567,0.288,2.146,0.845c0.581,0.565,0.876,1.266,0.876,2.096c0,0.843-0.295,1.559-0.876,2.125
	c-0.579,0.573-1.312,0.861-2.184,0.861c-0.868,0-1.592-0.28-2.163-0.845c-0.581-0.558-0.868-1.258-0.868-2.103
	c0-0.866,0.288-1.582,0.861-2.142c0.579-0.556,1.312-0.836,2.208-0.836L76.608,121.042z M14.466,121.088h1.395
	c0.535,0,0.926,0.015,1.167,0.058c0.251,0.039,0.506,0.129,0.77,0.259c0.27,0.12,0.511,0.286,0.724,0.482
	c0.565,0.527,0.851,1.214,0.851,2.049c0,0.859-0.28,1.561-0.83,2.126c-0.174,0.174-0.361,0.316-0.565,0.428
	c-0.21,0.122-0.467,0.22-0.776,0.295c-0.309,0.075-0.747,0.112-1.304,0.112h-1.432L14.466,121.088z"/>
</svg>
