<?xml version="1.0" encoding="iso-8859-1"?>
<!-- Generator: Adobe Illustrator 27.8.1, SVG Export Plug-In . SVG Version: 6.00 Build 0)  -->
<svg version="1.1" id="Layer_1" xmlns="http://www.w3.org/2000/svg" xmlns:xlink="http://www.w3.org/1999/xlink" x="0px" y="0px"
	 viewBox="0 0 512 512" style="enable-background:new 0 0 512 512;" xml:space="preserve">
<path d="M498.043,242.044c0,58.172-20.954,114.403-58.954,158.328c-35.402,40.899-83.413,68.762-136.062,79.15v20.728
	c0,6.48-5.27,11.751-11.75,11.751h-72.923c-6.48,0-11.751-5.271-11.751-11.751v-21.231c-52.12-10.817-99.551-38.807-134.474-79.555
	c-37.521-43.798-58.172-99.701-58.172-157.419C13.957,108.578,122.535,0,256,0S498.043,108.578,498.043,242.044z M284.501,493.474
	v-23.836c0-3.36,2.416-6.171,5.745-6.682c107.901-16.587,189.271-111.559,189.271-220.913c0-123.261-100.27-223.542-223.517-223.542
	c-123.262,0-223.542,100.281-223.542,223.542c0,110.009,78.646,202.754,187,220.526c3.286,0.54,5.67,3.343,5.67,6.665v24.239
	H284.501z"/>
<path d="M153.096,94.307c-35.957,0-65.106,29.148-65.106,65.106c0,35.983,29.149,65.106,65.106,65.106
	c35.957,0,65.132-29.123,65.132-65.106C218.227,123.455,189.053,94.307,153.096,94.307z M153.096,188.107
	c-15.835,0-28.67-12.86-28.67-28.695c0-15.835,12.835-28.67,28.67-28.67c15.835,0,28.67,12.835,28.67,28.67
	C181.766,175.247,168.931,188.107,153.096,188.107z"/>
<path d="M358.879,94.307c-35.957,0-65.106,29.148-65.106,65.106c0,35.983,29.149,65.106,65.106,65.106s65.131-29.123,65.131-65.106
	C424.01,123.455,394.836,94.307,358.879,94.307z M358.879,188.107c-15.835,0-28.67-12.86-28.67-28.695
	c0-15.835,12.835-28.67,28.67-28.67c15.835,0,28.67,12.835,28.67,28.67C387.549,175.247,374.714,188.107,358.879,188.107z"/>
<path d="M256,313c-35.957,0-65.132,29.174-65.132,65.131c0,35.984,29.174,65.107,65.132,65.107
	c35.957,0,65.106-29.123,65.106-65.107C321.106,342.174,291.957,313,256,313z M256,406.827c-15.835,0-28.695-12.86-28.695-28.696
	c0-15.835,12.86-28.669,28.695-28.669c15.835,0,28.67,12.834,28.67,28.669C284.67,393.966,271.835,406.827,256,406.827z"/>
<path d="M116.836,268.318c-23.173,0-41.984,18.811-41.984,42.009c0,23.197,18.811,41.983,41.984,41.983
	c23.198,0,42.009-18.786,42.009-41.983C158.845,287.128,140.034,268.318,116.836,268.318z M116.836,328.835
	c-10.212,0-18.483-8.296-18.483-18.508c0-10.213,8.271-18.508,18.483-18.508s18.508,8.295,18.508,18.508
	C135.344,320.539,127.048,328.835,116.836,328.835z"/>
<path d="M395.139,268.318c-23.173,0-41.984,18.811-41.984,42.009c0,23.197,18.811,41.983,41.984,41.983
	c23.198,0,41.984-18.786,41.984-41.983C437.122,287.128,418.337,268.318,395.139,268.318z M395.139,328.835
	c-10.212,0-18.483-8.296-18.483-18.508c0-10.213,8.271-18.508,18.483-18.508c10.212,0,18.483,8.295,18.483,18.508
	C413.622,320.539,405.351,328.835,395.139,328.835z"/>
</svg>
