<?xml version="1.0" encoding="iso-8859-1"?>
<!-- Generator: Adobe Illustrator 27.8.0, SVG Export Plug-In . SVG Version: 6.00 Build 0)  -->
<svg version="1.1" id="Layer_1" xmlns="http://www.w3.org/2000/svg" xmlns:xlink="http://www.w3.org/1999/xlink" x="0px" y="0px"
	 viewBox="0 0 512 512" style="enable-background:new 0 0 512 512;" xml:space="preserve">
<path style="fill:#1E1E1E;" d="M256,0C122.535,0,13.957,108.578,13.957,242.044c0,57.718,20.651,113.621,58.172,157.419
	c34.923,40.748,82.353,68.738,134.474,79.555v21.231c0,6.48,5.27,11.751,11.751,11.751h72.923c6.48,0,11.75-5.271,11.75-11.751
	v-20.728c52.65-10.388,100.66-38.252,136.062-79.15c38-43.925,58.954-100.156,58.954-158.328C498.043,108.578,389.465,0,256,0z"/>
<path style="fill:#787878;" d="M225.129,493.474v-24.239c0-3.322-2.385-6.125-5.67-6.665c-108.354-17.771-187-110.517-187-220.526
	c0-123.261,100.28-223.542,223.542-223.542c123.247,0,223.517,100.281,223.517,223.542c0,109.354-81.369,204.326-189.271,220.913
	c-3.329,0.511-5.745,3.321-5.745,6.682v23.836H225.129z"/>
<path style="fill:#E1E1E1;" d="M153.096,94.307c-35.957,0-65.106,29.148-65.106,65.106c0,35.983,29.149,65.106,65.106,65.106
	c35.957,0,65.132-29.123,65.132-65.106C218.227,123.455,189.053,94.307,153.096,94.307z M153.096,188.107
	c-15.835,0-28.67-12.86-28.67-28.695c0-15.835,12.835-28.67,28.67-28.67c15.835,0,28.67,12.835,28.67,28.67
	C181.766,175.247,168.931,188.107,153.096,188.107z"/>
<path style="fill:#E1E1E1;" d="M358.879,94.307c-35.957,0-65.106,29.148-65.106,65.106c0,35.983,29.149,65.106,65.106,65.106
	s65.131-29.123,65.131-65.106C424.01,123.455,394.836,94.307,358.879,94.307z M358.879,188.107c-15.835,0-28.67-12.86-28.67-28.695
	c0-15.835,12.835-28.67,28.67-28.67c15.835,0,28.67,12.835,28.67,28.67C387.549,175.247,374.714,188.107,358.879,188.107z"/>
<path style="fill:#E1E1E1;" d="M256,313c-35.957,0-65.132,29.174-65.132,65.131c0,35.984,29.174,65.107,65.132,65.107
	c35.957,0,65.106-29.123,65.106-65.107C321.106,342.174,291.957,313,256,313z M256,406.827c-15.835,0-28.695-12.86-28.695-28.696
	c0-15.835,12.86-28.669,28.695-28.669c15.835,0,28.67,12.834,28.67,28.669C284.67,393.966,271.835,406.827,256,406.827z"/>
<path style="fill:#E1E1E1;" d="M116.836,268.318c-23.173,0-41.984,18.811-41.984,42.009c0,23.197,18.811,41.983,41.984,41.983
	c23.198,0,42.009-18.786,42.009-41.983C158.845,287.128,140.034,268.318,116.836,268.318z M116.836,328.835
	c-10.212,0-18.483-8.296-18.483-18.508c0-10.213,8.271-18.508,18.483-18.508s18.508,8.295,18.508,18.508
	C135.344,320.539,127.048,328.835,116.836,328.835z"/>
<path style="fill:#E1E1E1;" d="M395.139,268.318c-23.173,0-41.984,18.811-41.984,42.009c0,23.197,18.811,41.983,41.984,41.983
	c23.198,0,41.984-18.786,41.984-41.983C437.122,287.128,418.337,268.318,395.139,268.318z M395.139,328.835
	c-10.212,0-18.483-8.296-18.483-18.508c0-10.213,8.271-18.508,18.483-18.508c10.212,0,18.483,8.295,18.483,18.508
	C413.622,320.539,405.351,328.835,395.139,328.835z"/>
<rect x="247.064" style="fill:#1E1E1E;" width="18" height="18"/>
</svg>
