<?xml version="1.0" encoding="UTF-8"?>
<svg id="Layer_1" data-name="Layer 1" xmlns="http://www.w3.org/2000/svg" viewBox="0 0 128 102.85">
  <defs>
    <style>
      .cls-1 {
        fill: #fff;
      }

      .cls-2 {
        fill: #32a7de;
      }
    </style>
  </defs>
  <path class="cls-2" d="m97.58,91.74v2.82c0,4.62,4.68,8.29,7.76,8.29s2.92,0,9.9,0c4.6,0,8.46-3.55,8.46-8.29,0-3.97,0-28.98,0-32.55s-.61-8.33-3.47-12.9c7.36-2.01,7.77-6.75,7.77-11.44,0-8.15-4.36-10.99-10.06-10.99-3.97,0-6.35,1.2-7.38,1.95C101.98,4.77,96.32,0,64,0,31.68,0,26.02,4.77,17.44,28.63c-1.03-.75-3.41-1.95-7.38-1.95-5.7,0-10.06,2.84-10.06,10.99,0,4.69.41,9.43,7.77,11.44-2.86,4.56-3.47,9.33-3.47,12.9v32.55c0,4.75,3.86,8.29,8.46,8.29h9.9c3.08,0,7.76-3.67,7.76-8.29v-2.82h67.16Z"/>
  <path class="cls-1" d="m41.3,63.92h-14.03c-.65,0-1.19-.54-1.19-1.19v-4.94c0-.81.66-1.47,1.47-1.47l13.55.81c.81,0,1.25.66,1.25,1.47v4.28c0,.58-.47,1.04-1.04,1.04Z"/>
  <path class="cls-1" d="m64,40.29c9.83,0,30.32.91,33.17.97s3.95-1.4,2.25-5.49c-1.97-4.75-4.18-10.24-7.12-15.8-3.41-6.45-12.84-6.45-28.31-6.45-15.47,0-24.9,0-28.31,6.45-2.94,5.56-5.15,11.05-7.12,15.8-1.7,4.09-.61,5.55,2.25,5.49s23.34-.97,33.17-.97Z"/>
  <path class="cls-1" d="m86.7,63.92h14.03c.65,0,1.19-.54,1.19-1.19v-4.94c0-.81-.66-1.47-1.47-1.47l-13.55.81c-.81,0-1.25.66-1.25,1.47v4.28c0,.58.47,1.04,1.04,1.04Z"/>
</svg>