<?xml version="1.0" encoding="iso-8859-1"?>
<!-- Generator: Adobe Illustrator 27.8.0, SVG Export Plug-In . SVG Version: 6.00 Build 0)  -->
<svg version="1.1" id="Layer_1" xmlns="http://www.w3.org/2000/svg" xmlns:xlink="http://www.w3.org/1999/xlink" x="0px" y="0px"
	 viewBox="0 0 128 128" style="enable-background:new 0 0 128 128;" xml:space="preserve">
<g>
	<path id="shapePath1" style="fill:#A0BC83;" d="M6.996,70.879L3.759,58.017v13.936c0,0.771-0.172,1.35-0.516,1.735
		c-0.344,0.386-0.801,0.578-1.37,0.578c-0.551,0-1.001-0.191-1.35-0.572C0.174,73.314,0,72.733,0,71.953V55.978
		c0-0.881,0.23-1.476,0.689-1.783c0.459-0.308,1.079-0.461,1.859-0.461h1.267c0.762,0,1.315,0.069,1.659,0.207
		c0.344,0.138,0.599,0.386,0.764,0.744c0.165,0.358,0.353,0.941,0.565,1.749l2.933,11.058l2.933-11.058
		c0.211-0.808,0.399-1.391,0.565-1.749c0.165-0.358,0.42-0.606,0.764-0.744c0.344-0.138,0.897-0.207,1.659-0.207h1.267
		c0.78,0,1.4,0.154,1.859,0.461c0.459,0.308,0.689,0.902,0.689,1.783v15.974c0,0.771-0.172,1.35-0.516,1.735
		c-0.344,0.386-0.806,0.578-1.384,0.578c-0.542,0-0.987-0.193-1.336-0.578c-0.349-0.386-0.523-0.964-0.523-1.735V58.017
		l-3.236,12.862c-0.211,0.835-0.383,1.448-0.516,1.838c-0.133,0.39-0.379,0.746-0.737,1.067c-0.358,0.321-0.854,0.482-1.487,0.482
		c-0.477,0-0.881-0.103-1.212-0.31c-0.331-0.207-0.588-0.471-0.771-0.792c-0.184-0.321-0.328-0.677-0.434-1.067
		C7.214,71.707,7.106,71.301,6.996,70.879z"/>
	<path id="shapePath2" style="fill:#A0BC83;" d="M22.342,71.946V56.04c0-0.826,0.188-1.446,0.565-1.859
		c0.376-0.413,0.863-0.62,1.46-0.62c0.615,0,1.113,0.204,1.494,0.613c0.381,0.409,0.571,1.031,0.571,1.866v15.905
		c0,0.835-0.19,1.46-0.571,1.873c-0.381,0.413-0.879,0.62-1.494,0.62c-0.588,0-1.072-0.209-1.453-0.627
		C22.533,73.394,22.342,72.772,22.342,71.946z"/>
	<path id="shapePath3" d="M37.092,66.231h-3.746v5.715c0,0.817-0.193,1.437-0.578,1.859c-0.386,0.422-0.872,0.633-1.46,0.633
		c-0.615,0-1.111-0.209-1.487-0.627c-0.377-0.418-0.565-1.031-0.565-1.838V56.412c0-0.9,0.206-1.542,0.62-1.928
		c0.413-0.386,1.069-0.578,1.969-0.578h5.247c1.551,0,2.745,0.119,3.58,0.358c0.826,0.23,1.54,0.611,2.141,1.143
		s1.058,1.184,1.37,1.955c0.312,0.771,0.468,1.639,0.468,2.603c0,2.056-0.633,3.615-1.9,4.675
		C41.485,65.701,39.599,66.231,37.092,66.231 M36.101,56.977h-2.754v6.169h2.754c0.964,0,1.77-0.101,2.417-0.303
		c0.647-0.202,1.141-0.532,1.481-0.991c0.34-0.459,0.509-1.06,0.509-1.804c0-0.891-0.262-1.616-0.785-2.176
		C39.135,57.275,37.928,56.977,36.101,56.977z"/>
	<path id="shapePath4" d="M60.235,57.059h-9.213v4.958h8.483c0.624,0,1.09,0.14,1.398,0.42c0.307,0.28,0.461,0.65,0.461,1.109
		c0,0.459-0.151,0.833-0.454,1.122c-0.303,0.289-0.771,0.434-1.405,0.434h-8.483v5.742h9.529c0.643,0,1.127,0.149,1.453,0.448
		c0.326,0.298,0.489,0.695,0.489,1.191c0,0.477-0.163,0.865-0.489,1.164c-0.326,0.298-0.81,0.448-1.453,0.448H49.438
		c-0.89,0-1.531-0.197-1.921-0.592c-0.39-0.395-0.585-1.033-0.585-1.914V56.412c0-0.588,0.087-1.067,0.262-1.439
		c0.175-0.372,0.448-0.643,0.819-0.812c0.372-0.17,0.847-0.255,1.425-0.255h10.796c0.652,0,1.136,0.145,1.453,0.434
		s0.475,0.668,0.475,1.136c0,0.477-0.158,0.861-0.475,1.15S60.887,57.059,60.235,57.059z"/>
	<path id="shapePath5" d="M69.946,65.46h-1.432v6.486c0,0.854-0.188,1.483-0.565,1.887c-0.376,0.404-0.868,0.606-1.473,0.606
		c-0.652,0-1.157-0.211-1.515-0.633c-0.358-0.422-0.537-1.042-0.537-1.859V56.412c0-0.881,0.197-1.519,0.592-1.914
		c0.395-0.395,1.033-0.592,1.914-0.592h6.651c0.918,0,1.703,0.039,2.355,0.117c0.652,0.078,1.239,0.236,1.763,0.475
		c0.633,0.266,1.194,0.647,1.68,1.143c0.486,0.496,0.856,1.072,1.108,1.728c0.253,0.656,0.379,1.352,0.379,2.086
		c0,1.506-0.424,2.708-1.274,3.608c-0.849,0.9-2.137,1.538-3.863,1.914c0.725,0.386,1.419,0.955,2.079,1.708
		c0.661,0.753,1.251,1.554,1.77,2.403c0.519,0.849,0.923,1.616,1.212,2.3c0.289,0.684,0.434,1.154,0.434,1.412
		c0,0.266-0.085,0.53-0.255,0.792c-0.17,0.262-0.402,0.468-0.695,0.62c-0.294,0.151-0.633,0.227-1.019,0.227
		c-0.459,0-0.844-0.108-1.157-0.324s-0.581-0.489-0.806-0.819c-0.225-0.331-0.53-0.817-0.916-1.46l-1.639-2.727
		c-0.588-1.001-1.113-1.763-1.577-2.286c-0.464-0.523-0.934-0.881-1.412-1.074S70.671,65.46,69.946,65.46 M72.287,56.977h-3.773
		v5.55h3.663c0.982,0,1.808-0.085,2.479-0.255c0.67-0.17,1.182-0.459,1.535-0.868c0.353-0.409,0.53-0.971,0.53-1.687
		c0-0.56-0.142-1.053-0.427-1.48c-0.285-0.427-0.679-0.746-1.184-0.957C74.633,57.078,73.692,56.977,72.287,56.977z"/>
	<path id="shapePath6" d="M90.069,71.051l-3.236-12.862v13.936c0,0.771-0.172,1.35-0.516,1.735c-0.344,0.386-0.801,0.578-1.37,0.578
		c-0.551,0-1.001-0.191-1.349-0.571c-0.349-0.381-0.523-0.962-0.523-1.742V56.151c0-0.881,0.23-1.476,0.688-1.783
		c0.459-0.308,1.079-0.461,1.859-0.461h1.267c0.762,0,1.315,0.069,1.659,0.207c0.344,0.138,0.599,0.386,0.764,0.744
		c0.165,0.358,0.353,0.941,0.565,1.749l2.933,11.058l2.933-11.058c0.211-0.808,0.399-1.391,0.565-1.749
		c0.165-0.358,0.42-0.606,0.764-0.744c0.344-0.138,0.897-0.207,1.659-0.207h1.267c0.78,0,1.4,0.154,1.859,0.461
		c0.459,0.308,0.689,0.902,0.689,1.783v15.974c0,0.771-0.172,1.35-0.516,1.735c-0.344,0.386-0.806,0.578-1.384,0.578
		c-0.541,0-0.987-0.193-1.336-0.578c-0.349-0.386-0.523-0.964-0.523-1.735V58.189L95.55,71.051
		c-0.211,0.835-0.383,1.448-0.516,1.838c-0.133,0.39-0.379,0.746-0.737,1.067c-0.358,0.321-0.854,0.482-1.487,0.482
		c-0.477,0-0.881-0.103-1.212-0.31s-0.587-0.471-0.771-0.792c-0.184-0.321-0.328-0.677-0.434-1.067
		C90.287,71.879,90.179,71.473,90.069,71.051z"/>
	<path id="shapePath7" d="M105.352,71.946V56.04c0-0.826,0.188-1.446,0.565-1.859c0.376-0.413,0.863-0.62,1.46-0.62
		c0.615,0,1.113,0.204,1.494,0.613c0.381,0.409,0.572,1.031,0.572,1.866v15.905c0,0.835-0.191,1.46-0.572,1.873
		c-0.381,0.413-0.879,0.62-1.494,0.62c-0.588,0-1.072-0.209-1.453-0.627C105.542,73.394,105.352,72.772,105.352,71.946z"/>
	<path id="shapePath8" d="M125.907,57.28h-4.462v14.666c0,0.845-0.188,1.471-0.565,1.88c-0.377,0.409-0.863,0.613-1.46,0.613
		c-0.606,0-1.099-0.207-1.48-0.62c-0.381-0.413-0.571-1.037-0.571-1.873V57.28h-4.462c-0.698,0-1.216-0.154-1.556-0.461
		c-0.34-0.308-0.51-0.714-0.51-1.219c0-0.523,0.177-0.936,0.53-1.239c0.353-0.303,0.865-0.454,1.535-0.454h13
		c0.707,0,1.232,0.156,1.577,0.468C127.828,54.686,128,55.095,128,55.6c0,0.505-0.175,0.911-0.523,1.219
		C127.128,57.126,126.605,57.28,125.907,57.28z"/>
</g>
<g style="opacity:0.6;">
	<path id="shapePath1_00000148651865177476789190000011114583627024968100_" style="fill:#FFFFFF;" d="M6.996,70.879L3.759,58.017
		v13.936c0,0.771-0.172,1.35-0.516,1.735c-0.344,0.386-0.801,0.578-1.37,0.578c-0.551,0-1.001-0.191-1.35-0.572
		C0.174,73.314,0,72.733,0,71.953V55.978c0-0.881,0.23-1.476,0.689-1.783c0.459-0.308,1.079-0.461,1.859-0.461h1.267
		c0.762,0,1.315,0.069,1.659,0.207c0.344,0.138,0.599,0.386,0.764,0.744c0.165,0.358,0.353,0.941,0.565,1.749l2.933,11.058
		l2.933-11.058c0.211-0.808,0.399-1.391,0.565-1.749c0.165-0.358,0.42-0.606,0.764-0.744c0.344-0.138,0.897-0.207,1.659-0.207h1.267
		c0.78,0,1.4,0.154,1.859,0.461c0.459,0.308,0.689,0.902,0.689,1.783v15.974c0,0.771-0.172,1.35-0.516,1.735
		c-0.344,0.386-0.806,0.578-1.384,0.578c-0.542,0-0.987-0.193-1.336-0.578c-0.349-0.386-0.523-0.964-0.523-1.735V58.017
		l-3.236,12.862c-0.211,0.835-0.383,1.448-0.516,1.838c-0.133,0.39-0.379,0.746-0.737,1.067c-0.358,0.321-0.854,0.482-1.487,0.482
		c-0.477,0-0.881-0.103-1.212-0.31c-0.331-0.207-0.588-0.471-0.771-0.792c-0.184-0.321-0.328-0.677-0.434-1.067
		C7.214,71.707,7.106,71.301,6.996,70.879z"/>
	<path id="shapePath2_00000164502624772933561200000014684117078667284371_" style="fill:#FFFFFF;" d="M22.342,71.946V56.04
		c0-0.826,0.188-1.446,0.565-1.859c0.376-0.413,0.863-0.62,1.46-0.62c0.615,0,1.113,0.204,1.494,0.613
		c0.381,0.409,0.571,1.031,0.571,1.866v15.905c0,0.835-0.19,1.46-0.571,1.873c-0.381,0.413-0.879,0.62-1.494,0.62
		c-0.588,0-1.072-0.209-1.453-0.627C22.533,73.394,22.342,72.772,22.342,71.946z"/>
	<path id="shapePath3_00000012445266768297374500000014220714327612016306_" style="fill:#FFFFFF;" d="M37.092,66.231h-3.746v5.715
		c0,0.817-0.193,1.437-0.578,1.859c-0.386,0.422-0.872,0.633-1.46,0.633c-0.615,0-1.111-0.209-1.487-0.627
		c-0.377-0.418-0.565-1.031-0.565-1.838V56.412c0-0.9,0.206-1.542,0.62-1.928c0.413-0.386,1.069-0.578,1.969-0.578h5.247
		c1.551,0,2.745,0.119,3.58,0.358c0.826,0.23,1.54,0.611,2.141,1.143s1.058,1.184,1.37,1.955c0.312,0.771,0.468,1.639,0.468,2.603
		c0,2.056-0.633,3.615-1.9,4.675C41.485,65.701,39.599,66.231,37.092,66.231 M36.101,56.977h-2.754v6.169h2.754
		c0.964,0,1.77-0.101,2.417-0.303c0.647-0.202,1.141-0.532,1.481-0.991c0.34-0.459,0.509-1.06,0.509-1.804
		c0-0.891-0.262-1.616-0.785-2.176C39.135,57.275,37.928,56.977,36.101,56.977z"/>
	<path id="shapePath4_00000126284422585275483380000008572856708980553880_" style="fill:#FFFFFF;" d="M60.235,57.059h-9.213v4.958
		h8.483c0.624,0,1.09,0.14,1.398,0.42c0.307,0.28,0.461,0.65,0.461,1.109c0,0.459-0.151,0.833-0.454,1.122
		c-0.303,0.289-0.771,0.434-1.405,0.434h-8.483v5.742h9.529c0.643,0,1.127,0.149,1.453,0.448c0.326,0.298,0.489,0.695,0.489,1.191
		c0,0.477-0.163,0.865-0.489,1.164c-0.326,0.298-0.81,0.448-1.453,0.448H49.438c-0.89,0-1.531-0.197-1.921-0.592
		c-0.39-0.395-0.585-1.033-0.585-1.914V56.412c0-0.588,0.087-1.067,0.262-1.439c0.175-0.372,0.448-0.643,0.819-0.812
		c0.372-0.17,0.847-0.255,1.425-0.255h10.796c0.652,0,1.136,0.145,1.453,0.434s0.475,0.668,0.475,1.136
		c0,0.477-0.158,0.861-0.475,1.15S60.887,57.059,60.235,57.059z"/>
	<path id="shapePath5_00000132786844754077012350000012881527808438039428_" style="fill:#FFFFFF;" d="M69.946,65.46h-1.432v6.486
		c0,0.854-0.188,1.483-0.565,1.887c-0.376,0.404-0.868,0.606-1.473,0.606c-0.652,0-1.157-0.211-1.515-0.633
		c-0.358-0.422-0.537-1.042-0.537-1.859V56.412c0-0.881,0.197-1.519,0.592-1.914c0.395-0.395,1.033-0.592,1.914-0.592h6.651
		c0.918,0,1.703,0.039,2.355,0.117c0.652,0.078,1.239,0.236,1.763,0.475c0.633,0.266,1.194,0.647,1.68,1.143
		c0.486,0.496,0.856,1.072,1.108,1.728c0.253,0.656,0.379,1.352,0.379,2.086c0,1.506-0.424,2.708-1.274,3.608
		c-0.849,0.9-2.137,1.538-3.863,1.914c0.725,0.386,1.419,0.955,2.079,1.708c0.661,0.753,1.251,1.554,1.77,2.403
		c0.519,0.849,0.923,1.616,1.212,2.3c0.289,0.684,0.434,1.154,0.434,1.412c0,0.266-0.085,0.53-0.255,0.792
		c-0.17,0.262-0.402,0.468-0.695,0.62c-0.294,0.151-0.633,0.227-1.019,0.227c-0.459,0-0.844-0.108-1.157-0.324
		s-0.581-0.489-0.806-0.819c-0.225-0.331-0.53-0.817-0.916-1.46l-1.639-2.727c-0.588-1.001-1.113-1.763-1.577-2.286
		c-0.464-0.523-0.934-0.881-1.412-1.074S70.671,65.46,69.946,65.46 M72.287,56.977h-3.773v5.55h3.663
		c0.982,0,1.808-0.085,2.479-0.255c0.67-0.17,1.182-0.459,1.535-0.868c0.353-0.409,0.53-0.971,0.53-1.687
		c0-0.56-0.142-1.053-0.427-1.48c-0.285-0.427-0.679-0.746-1.184-0.957C74.633,57.078,73.692,56.977,72.287,56.977z"/>
	<path id="shapePath6_00000008867747609178755350000010629905594817303712_" style="fill:#FFFFFF;" d="M90.069,71.051l-3.236-12.862
		v13.936c0,0.771-0.172,1.35-0.516,1.735c-0.344,0.386-0.801,0.578-1.37,0.578c-0.551,0-1.001-0.191-1.349-0.571
		c-0.349-0.381-0.523-0.962-0.523-1.742V56.151c0-0.881,0.23-1.476,0.688-1.783c0.459-0.308,1.079-0.461,1.859-0.461h1.267
		c0.762,0,1.315,0.069,1.659,0.207c0.344,0.138,0.599,0.386,0.764,0.744c0.165,0.358,0.353,0.941,0.565,1.749l2.933,11.058
		l2.933-11.058c0.211-0.808,0.399-1.391,0.565-1.749c0.165-0.358,0.42-0.606,0.764-0.744c0.344-0.138,0.897-0.207,1.659-0.207h1.267
		c0.78,0,1.4,0.154,1.859,0.461c0.459,0.308,0.689,0.902,0.689,1.783v15.974c0,0.771-0.172,1.35-0.516,1.735
		c-0.344,0.386-0.806,0.578-1.384,0.578c-0.541,0-0.987-0.193-1.336-0.578c-0.349-0.386-0.523-0.964-0.523-1.735V58.189
		L95.55,71.051c-0.211,0.835-0.383,1.448-0.516,1.838c-0.133,0.39-0.379,0.746-0.737,1.067c-0.358,0.321-0.854,0.482-1.487,0.482
		c-0.477,0-0.881-0.103-1.212-0.31s-0.587-0.471-0.771-0.792c-0.184-0.321-0.328-0.677-0.434-1.067
		C90.287,71.879,90.179,71.473,90.069,71.051z"/>
	<path id="shapePath7_00000183935228567836781590000002884601036073114803_" style="fill:#FFFFFF;" d="M105.352,71.946V56.04
		c0-0.826,0.188-1.446,0.565-1.859c0.376-0.413,0.863-0.62,1.46-0.62c0.615,0,1.113,0.204,1.494,0.613
		c0.381,0.409,0.572,1.031,0.572,1.866v15.905c0,0.835-0.191,1.46-0.572,1.873c-0.381,0.413-0.879,0.62-1.494,0.62
		c-0.588,0-1.072-0.209-1.453-0.627C105.542,73.394,105.352,72.772,105.352,71.946z"/>
	<path id="shapePath8_00000010309951506094325470000009755466683148494518_" style="fill:#FFFFFF;" d="M125.907,57.28h-4.462v14.666
		c0,0.845-0.188,1.471-0.565,1.88c-0.377,0.409-0.863,0.613-1.46,0.613c-0.606,0-1.099-0.207-1.48-0.62
		c-0.381-0.413-0.571-1.037-0.571-1.873V57.28h-4.462c-0.698,0-1.216-0.154-1.556-0.461c-0.34-0.308-0.51-0.714-0.51-1.219
		c0-0.523,0.177-0.936,0.53-1.239c0.353-0.303,0.865-0.454,1.535-0.454h13c0.707,0,1.232,0.156,1.577,0.468
		C127.828,54.686,128,55.095,128,55.6c0,0.505-0.175,0.911-0.523,1.219C127.128,57.126,126.605,57.28,125.907,57.28z"/>
</g>
</svg>
