<?xml version="1.0" encoding="UTF-8"?>
<svg id="Layer_2" data-name="Layer 2" xmlns="http://www.w3.org/2000/svg" viewBox="0 0 128 128">
  <defs>
    <style>
      .cls-1 {
        stroke-width: 0px;
      }
    </style>
  </defs>
  <g id="Layer_1-2" data-name="Layer 1">
    <path class="cls-1" d="m99.85,53.87l-15.59-7.79v-19.22c0-4.65-3.79-8.44-8.44-8.44h-23.63c-4.65,0-8.44,3.79-8.44,8.44v19.22l-15.59,7.79c-2.88,1.44-4.67,4.33-4.67,7.55v32.97c0,2.79,2.27,5.06,5.06,5.06h70.9c2.79,0,5.06-2.27,5.06-5.06v-32.97c0-3.22-1.79-6.11-4.67-7.55ZM26.86,94.39v-32.97c0-1.93,1.07-3.67,2.8-4.53l14.09-7.04v46.23h-15.19c-.93,0-1.69-.76-1.69-1.69ZM47.12,26.86c0-2.79,2.27-5.06,5.06-5.06h23.63c2.79,0,5.06,2.27,5.06,5.06v69.21h-6.75v-10.13c0-5.58-4.54-10.13-10.13-10.13s-10.13,4.54-10.13,10.13v10.13h-6.75V26.86Zm23.63,69.21h-13.5v-10.13c0-3.72,3.03-6.75,6.75-6.75s6.75,3.03,6.75,6.75v10.13Zm30.39-1.69c0,.93-.76,1.69-1.69,1.69h-15.19v-46.22l14.08,7.04c1.73.86,2.8,2.6,2.8,4.53v32.97Z"/>
    <path class="cls-1" d="m55.56,55.56h16.88c.93,0,1.69-.76,1.69-1.69s-.76-1.69-1.69-1.69h-16.88c-.93,0-1.69.76-1.69,1.69s.76,1.69,1.69,1.69Z"/>
    <path class="cls-1" d="m55.56,65.69h16.88c.93,0,1.69-.76,1.69-1.69s-.76-1.69-1.69-1.69h-16.88c-.93,0-1.69.76-1.69,1.69s.76,1.69,1.69,1.69Z"/>
    <path class="cls-1" d="m38.68,85.95h-6.75c-.93,0-1.69.76-1.69,1.69s.76,1.69,1.69,1.69h6.75c.93,0,1.69-.76,1.69-1.69s-.76-1.69-1.69-1.69Z"/>
    <path class="cls-1" d="m38.68,75.82h-6.75c-.93,0-1.69.76-1.69,1.69s.76,1.69,1.69,1.69h6.75c.93,0,1.69-.76,1.69-1.69s-.76-1.69-1.69-1.69Z"/>
    <path class="cls-1" d="m31.93,69.06h6.75c.93,0,1.69-.76,1.69-1.69s-.76-1.69-1.69-1.69h-6.75c-.93,0-1.69.76-1.69,1.69s.76,1.69,1.69,1.69Z"/>
    <path class="cls-1" d="m96.07,85.95h-6.75c-.93,0-1.69.76-1.69,1.69s.76,1.69,1.69,1.69h6.75c.93,0,1.69-.76,1.69-1.69s-.76-1.69-1.69-1.69Z"/>
    <path class="cls-1" d="m96.07,75.82h-6.75c-.93,0-1.69.76-1.69,1.69s.76,1.69,1.69,1.69h6.75c.93,0,1.69-.76,1.69-1.69s-.76-1.69-1.69-1.69Z"/>
    <path class="cls-1" d="m96.07,65.69h-6.75c-.93,0-1.69.76-1.69,1.69s.76,1.69,1.69,1.69h6.75c.93,0,1.69-.76,1.69-1.69s-.76-1.69-1.69-1.69Z"/>
    <path class="cls-1" d="m77.93,41.02h-27.85v-11.22h27.85v11.22h0Zm-16.65-10.13h-2.29l-1.27,6.26h-.03l-1.86-6.26h-3.03l-1.94,9.03h2.29l1.26-6.25h.03l1.9,6.25h3.02l1.92-9.03h0Zm8.63,0h-2.43l-.72,3.45h-2.87l.71-3.45h-2.43l-1.89,9.03h2.43l.81-3.87h2.87l-.81,3.87h2.43l1.89-9.03h0Zm6.98.25c-.61-.28-1.66-.4-2.78-.4-1.99,0-4.04.7-4.04,3.03,0,2.55,3.52,2,3.52,3.45,0,.93-1.18,1.07-1.94,1.07-.79,0-1.76-.21-2.24-.52l-.57,1.84c.79.25,1.87.47,2.81.47,2.11,0,4.43-.65,4.43-3.14,0-2.74-3.52-2.26-3.52-3.54,0-.73.78-.87,1.74-.87.9,0,1.53.19,2,.41l.59-1.8h0Z"/>
    <path class="cls-1" d="m63.98,128c35.03,0,64.02-28.99,64.02-63.98S98.96,0,63.93,0,0,28.99,0,64.02s28.99,63.98,63.98,63.98Zm0-8c-14.78,0-28.79-5.87-39.45-16.53-10.66-10.66-16.52-24.67-16.52-39.45s5.86-28.84,16.51-39.5c10.64-10.66,24.64-16.53,39.42-16.53s28.85,5.87,39.52,16.53c10.67,10.66,16.55,24.69,16.55,39.49s-5.87,28.79-16.53,39.45c-10.66,10.66-24.69,16.53-39.5,16.53Z"/>
  </g>
</svg>