<?xml version="1.0" encoding="iso-8859-1"?>
<!-- Generator: Adobe Illustrator 27.7.0, SVG Export Plug-In . SVG Version: 6.00 Build 0)  -->
<svg version="1.1" id="Layer_1" xmlns="http://www.w3.org/2000/svg" xmlns:xlink="http://www.w3.org/1999/xlink" x="0px" y="0px"
	 viewBox="0 0 128 128" style="enable-background:new 0 0 128 128;" xml:space="preserve">
<g>
	<path style="fill:#2A6185;" d="M12.396,89.933V128h5.388c5.123,0,9.274-4.151,9.274-9.274v-14.242
		C21.095,100.841,16.061,95.873,12.396,89.933"/>
	<path style="fill:#2A6185;" d="M78.394,59.75H49.292c-4.549,0-8.126,4.151-7.176,8.876c0.684,3.422,3.886,5.807,7.375,5.807h28.903
		c20.314,0,36.874-16.339,37.205-36.587C115.953,17.024,98.222,0,77.422,0H12.396v44.139c3.665-5.94,8.7-10.93,14.683-14.529V14.683
		h51.337c13.138,0,22.434,11.305,22.434,23.162S90.141,59.75,78.416,59.75"/>
	<path style="fill:#2A6185;" d="M76.892,83.376H71.35v6.205H49.601c-12.431,0-22.544-10.113-22.544-22.544
		S37.17,44.492,49.601,44.492h29.102c4.063,0,7.331-3.29,7.331-7.331s-3.29-7.331-7.331-7.331H49.601
		c-20.513,0-37.205,16.693-37.205,37.205s16.693,37.205,37.205,37.205h36.433V92.495c0-5.056-4.085-9.141-9.141-9.141"/>
</g>
<g style="opacity:0.6;">
	<path style="fill:#FFFFFF;" d="M12.396,89.933V128h5.388c5.123,0,9.274-4.151,9.274-9.274v-14.242
		C21.095,100.841,16.061,95.873,12.396,89.933"/>
	<path style="fill:#FFFFFF;" d="M78.394,59.75H49.292c-4.549,0-8.126,4.151-7.176,8.876c0.684,3.422,3.886,5.807,7.375,5.807h28.903
		c20.314,0,36.874-16.339,37.205-36.587C115.953,17.024,98.222,0,77.422,0H12.396v44.139c3.665-5.94,8.7-10.93,14.683-14.529V14.683
		h51.337c13.138,0,22.434,11.305,22.434,23.162S90.141,59.75,78.416,59.75"/>
	<path style="fill:#FFFFFF;" d="M76.892,83.376H71.35v6.205H49.601c-12.431,0-22.544-10.113-22.544-22.544
		S37.17,44.492,49.601,44.492h29.102c4.063,0,7.331-3.29,7.331-7.331s-3.29-7.331-7.331-7.331H49.601
		c-20.513,0-37.205,16.693-37.205,37.205s16.693,37.205,37.205,37.205h36.433V92.495c0-5.056-4.085-9.141-9.141-9.141"/>
</g>
</svg>
