<?xml version="1.0" encoding="UTF-8"?>
<svg id="Layer_1" data-name="Layer 1" xmlns="http://www.w3.org/2000/svg" viewBox="0 0 128 87.87">
  <defs>
    <style>
      .cls-1, .cls-2, .cls-3 {
        stroke-width: 0px;
      }

      .cls-2 {
        fill: #c8102e;
      }

      .cls-3 {
        fill: #fff;
      }
    </style>
  </defs>
  <path class="cls-2" d="m33.14,16.11l-.28-.57c-4.83,1.43-15.21,2.5-21.23,2.11,1.05-.54,2.08-1.39,2.59-1.79-2.2.25-8.31-2.24-10.86-4.17.89,3.73,6.29,9.89,9.55,10.95h0c-.37-.82-.93-1.73-1.47-2.62,7.26-.25,13.83.27,23.42-1.53l-1.72-2.38Z"/>
  <path class="cls-2" d="m126.34,10.09c-2.61,3.73-10.56,11.94-14.36,15.92,2.02.25,5.47-.03,7.13-.4l-1.72,4.55c-2.27-1.53-5.15-2.04-7.55-2.04-3.44,0-7.71,2.49-7.71,6.84s3.56,5.97,7.36,5.97c1.89,0,3.74-.52,5.4-1.51.03-.19.05-.38.05-.57,0,.19-.02.38-.05.57-.67,4.01-7.76,5.54-12.05,4.24-4.51-1.37-11.87-2.34-15.66-1.97,2.11-3.55,7.16-6.1,10.8-4.75-5.34-5.6-.83-14.43,8.9-17.66-7.59-2.86-3.2-9.33,5.46-15.42-6.29,2.86-14.36,6.34-17.8,7.71-3.44,1.37-9.61,2.49-5.1-9.58-18.75,11.44-31.09,18.66-31.09,25.13s1.34,10.58-4.27,11.19c-2.54.27-5.04.84-7.47,1.7-1.13-2.67-.84-4.06-.3-4.31.53-.25,2.31-.44,3.44.12-.36-1.99-1.72-2.92-2.91-3.3s-1.33-.81-1.25-2.11c.09-1.31.21-1.68.89-1.55,1.24.23,3.26.75,4.27,1.68-.12-3.42-2.02-4.35-2.91-4.48-.89-.12-1.61-.25-1.22-2.3.24-1.24.5-1.43,1.45-1.43s2.43.56,3.5,1.24c-.06-2.24-1.31-3.92-2.61-4.23-1-.24-1.59-.2-1.42-1.62.18-1.49,2.25-.87,3.74-.44-1.25-2.24-3.2-2.99-4.09-3.36-.89-.37-.95-1.37-1.19-2.67-1.07-.62-.83-1.24-.42-1.55.42-.31,3.03-2.18,5.1-3.42-.7-.03-1.4.05-2.08.25.65-.87,1.13-3.73.83-4.79-.49,1.13-1.97,1.71-3.68,2.24.59-1.62.95-3.49.36-3.99-.65,2.61-7.24,2.95-8.37,6.25-1.8.1-3.61.09-5.16-.15-2.37-.37-4.81-.93-6.82,2.99-4.63-.37-10.92,1.24-13.59,4.91,3.62-.75,6.94-.87,9.73-.19-.18,1.15.65,2.76,1.99,2.75.16.48.53,1.12,1.1,1.35.02-.35-.26-1.03-.28-1.56.12-.06.24-.13.36-.21l.42.43.14-.85c.1-.09.21-.18.31-.27l.68.53.07-1.16c.08-.07.16-.13.25-.2l.72.52v-1.01c1.79-1.05,4-.94,6.7,5.02-1-.39-2.04-.39-3.08-.2l-.13-.3-.18.36c-.24.05-.49.11-.73.18l-.4-.48-.09.63c-.29.09-.58.19-.87.3l-.65-.52-.15.82c-.13.05-.25.09-.38.14l-.61-.81-.28,1.13c-.07.02-.14.05-.21.07l-1.14-.86-.45,1.24c-.05,0-.1,0-.15.01-.33-.47-.52-.94-.53-1.56-.45.19-.81.77-.93,1.26-.14-.08-.28-.18-.41-.3-.47,1.74,1.12,2.67,1.07,3.67-.06,1.24.3,3.05,1.31,4.17.06-2.67,1.42-3.36,1.42-5.29.42.75.59,1.74.71,2.49.96-1.81,2.14-3.74,5.16-4.43-.03.65.18,1.28.58,1.75-1.72.93-1.94,2.93-1.65,4.55-1.25.12-2.25,2.43-1.96,4.1-1.96,1.31-2.36,3.36-2.31,4.91-1.96,1.49-2.19,4.36-1.6,5.91-2.08,1.49-2.14,5.22-.12,7.59-.56.75-.87,1.69-.87,2.66-.62-.06-1.65.01-2.04.23-.51-1.15-2.28-1.4-3.47-1.28-.26-1.2-2.14-2.05-3.11-2.11,0-1.12-.95-2.49-2.43-3.67-.12-3.05-.77-5.41-1.84-7.4-.53-1.31,1.3-2.49,2.2-3.23.78-.66,1.08-1.93.8-2.96.99-1.3.64-3.46-1-4.29.53,1.12.41,2.14-.25,2.95-.86-.05-1.8,1.02-2.46,1.99.54-1.25,1.27-4.97-.5-5.62-.05-1.75-1.81-3.15-3.6-2.51,1.33.48,1.91,1.51,1.79,2.85-.6.51-.82,1.43-.36,2.48-.53.93-.77,2.36-.59,3.11-1.16-.41-1.19-3.74-2.97-3.77-.66-1.47-2.58-2.14-4.03-1.05,1.29.06,2.08.77,2.4,1.9-.59.83-.5,2.05.39,2.73-.47,1.18-.06,2.55,1.19,3.11,1.25.56,1.78,2.12,1.42,3.05-.36.93-.89,2.43-.53,3.67.36,1.24.21,2.24-.68,2.55-.89.31-.62,2.8-2.05,3.17-1.02.27-1.11,1.67-.57,2.68-.35,1.15-1.18,1.85-2.49,1.85,1.37,1.12,3.26.6,4.02-.76,1.04.12,1.63-.8,1.78-1.96.18-1.37,1.78-2.99,1.84-4.6,1.6,10.88,13.47,12.25,13.94,25.94,1.42-1.74,3.08-5.35,3.08-6.84,1.85-.03,3.68-.33,5.46-.88.51.21,1.04.33,1.58.38-.19.66-.14,1.37.14,1.99-.95.37-1.82,2.24-1.54,3.73-2.29.39-.21,3.34-3.78,7.03-4.12,4.2-8.85.53-10.19-.25-.62-.36-1.16-.34-1.61-.11-1.34-.93-3.39-.34-4,1.49h0c1.02-.69,2-.66,2.84-.05-.29.73-.38,1.55-.23,2.16-.13.15-.25.3-.35.45-1.58-.7-4.16.57-4.26,2.59.96-1.15,2.74-1.37,3.91-.66.03.02.05,0,.07.02.13.38.35.74.69,1.08-.1.18-.14.4-.13.62-1.36.44-2.29,2.09-1.73,3.72.42-1.38,1.39-2,2.63-1.92.34.32.76.6,1.25.75,1.6.5,4.3-.46,5.1-1.37,2.14-2.43,5.1,0,5.99-1.06s3.03-1.62,3.8,0c.77,1.62,2.37.44,3.14,1.31.77.87,2.61.37,3.26-.62.02-.04.03-.09.05-.13,1.07-.23,2.02.2,2.68,1.33.21-1.84-1.25-3.28-2.78-3.2-.37-.71-1.12-1.24-2.26-1-.89.19-2.31-.25-3.62-.87,1.42-7.09,10.38-12.44,10.62-15.67-.71,4.48,2.61,5.35,2.14,8.09,1.81-2.01,2.1-3.71,1.99-5.22,1.31-.38,2.45-1.27,3.19-2.51,2.69.85,5.58-.23,7.25-2.72,1.77.67,3.2.25,4.31-.68-.09.1-.18.2-.25.31-.93,1.36-.55,5.53,3.2,5.82.39,2.35,3.02,3.58,5.4,2.94.82.97,1.98,1.49,3.18,1.43-.15.02-.3.04-.44.07-1.72.31-2.08,1.43-2.02,2.67-1.07,0-2.46.81-2.46,1.74-.89-.31-2.89-.28-4.18.62-1.84.37-3.63.36-4.98-1.55-1.53-2.16-3.72-3.23-4.77-2.33-1.53-.37-3.39.85-3.48,2.72.82-.98,1.8-1.23,2.8-.85.03.84.45,1.58,1.36,1.7,2.77.36,4.11,1.94,4.75,2.8-2.8,1.22-6.24-2.9-8.1-1.25-1.68-.36-3.58,1.36-3.29,3.37h0c.59-1.09,1.46-1.55,2.46-1.43.17,1.23,1.59,2.12,2.52,1.87-.13.19-.2.38-.25.57-1.08.51-1.85,1.79-1.56,3.21.5-1.07,1.28-1.58,2.22-1.59.82.65,2.16.84,2.92.11,2.85-2.74,4.63-.42,5.4-1.43.47-.62,1.36-1.31,2.31-.31s1.66.75,2.2.31,1.83-1.51,3.8.37c1.36,1.31,3.68,2.61,4.81,1.06.04-.05.05-.1.08-.14,1.15-.4,2.21-.05,2.96,1.14.14-1.86-1.4-3.24-2.94-3.07-.37-.46-1.01-.72-1.71-.66-.71.06-2.55,0-3.56-.68,6.82-1.87,11.45-6.41,14.65-11.38.95,1.37,3.8.99,5.34,2.36-.12-6.84-6.76-4.6-9.97-7.34-3.2-2.74,0-6.34,2.38-8.21.8.5,1.69.8,2.6.87.59,1.55,3.48,2.99,5.04,2.55.83,1.43,3.97,1.62,5.75.87,1.31,1.49,4.27,1.37,5.4.68.91.93,2.26,1.08,3.32.37,0,1.62,1.19,2.55,1.96,2.55-.95.87-.42,3.36.47,3.92-.42,1-.77,2.49-.18,3.55-1.13.93-1.78,1.93-1.19,3.42-1.84,2.86-4.33,6.53-9.73-.06-1.4-1.71-2.66-1.74-3.39-1.03-1.52-.34-3.19.88-3.22,2.75.73-.95,1.64-1.26,2.58-1.01.15,1.28,1.93,1.67,2.2,2.39-1.95-.16-2.99.13-3.37.82-1.41.15-2.63,1.55-2.4,3.27h0c.6-1.1,1.48-1.55,2.49-1.42.9,1.65,3.94-.11,4.99,1.05-1.62.3-2.26.96-2.36,1.68-1.16.46-2,1.8-1.7,3.29.54-1.16,1.42-1.67,2.47-1.58.83.48,2.27.21,3.38-.89,1.36-1.37,4.63-1.74,5.52-.75.89.99,2.91.5,4.21-.5,1.48-1.13,4.33-.19,5.22.93.7.88,2.29,1.31,2.95.28,1.18-.21,2.17.28,2.76,1.56h0c.38-1.85-1-3.45-2.57-3.46-.66-1.7-3.97-.23-4.5-3.47-.55-3.37,4.63-13.43.36-18.91,1.54,1.74,4.86,3.48,6.88,3.48-1.66-4.11-6.33-6.78-11.63-8.96-1.51-.62-2.92-1.65-4.18-2.75,7.48,0,20.08-4.71,20.08-14.79,0-1.99-.41-3.6-1.11-4.91.53-1.3,1.46-4.37,2.22-7.2,1.3,1.99,3.64,3.79,5.65,4.66-1.9-3.98-2.61-15.42-1.66-20.52Zm-16.61,26.98c-1.9,0-2.85-.5-2.85-1.68s1.6-1.87,3.14-1.87c1.06,0,2.99.37,4.1,2.06-1.75,1.67-3.35,1.48-4.39,1.48Z"/>
  <polygon class="cls-2" points="46.01 11.26 46.01 11.26 46.01 11.26 46.01 11.26"/>
  <polygon class="cls-2" points="8.71 83.09 8.71 83.09 8.71 83.09 8.71 83.09"/>
  <path class="cls-3" d="m29.14,9.61c-.36.9.59,2.16,1.48,2.27,1.04.12,2.52-.59,2.19-1.74"/>
  <path class="cls-1" d="m29.84,9.82l2.33.45s-1.64,2.3-2.33-.45Z"/>
</svg>