<?xml version="1.0" encoding="iso-8859-1"?>
<!-- Generator: Adobe Illustrator 27.8.0, SVG Export Plug-In . SVG Version: 6.00 Build 0)  -->
<svg version="1.1" id="Layer_1" xmlns="http://www.w3.org/2000/svg" xmlns:xlink="http://www.w3.org/1999/xlink" x="0px" y="0px"
	 viewBox="0 0 128 128" style="enable-background:new 0 0 128 128;" xml:space="preserve">
<g>
	<linearGradient id="SVGID_1_" gradientUnits="userSpaceOnUse" x1="50.7955" y1="75.1376" x2="1.8803" y2="75.1376">
		<stop  offset="0.0415" style="stop-color:#0072A6"/>
		<stop  offset="0.5551" style="stop-color:#015C8C"/>
		<stop  offset="1" style="stop-color:#024C7A"/>
	</linearGradient>
	<path style="fill:url(#SVGID_1_);" d="M36.181,71.018c0,23.469,8.167,31.894,14.614,39.889c-6.705,4.556-21.75,6.276-28.465,0.008
		C9.169,98.629,1.88,83.114,1.88,64.052c0-4.356,0.433-9.024,1.29-13.136c3.954-8.941,22.351-20.231,44.617-13.684
		C44.262,43.336,36.181,54.34,36.181,71.018z"/>
	
		<linearGradient id="SVGID_00000135669473966819921320000005095294819957096835_" gradientUnits="userSpaceOnUse" x1="5.4222" y1="30.6848" x2="126.1197" y2="30.6848">
		<stop  offset="0" style="stop-color:#98C201"/>
		<stop  offset="1" style="stop-color:#678501"/>
	</linearGradient>
	<path style="fill:url(#SVGID_00000135669473966819921320000005095294819957096835_);" d="M100.744,61.37
		c-16.791,0-26.036-10.053-34.526-18.731c-7.248-7.409-19.716-11.98-29.62-11.98c-17.64,0-26.319,5.66-31.176,10.736
		C14.878,17.202,39.037,0,67.347,0c16.816,0,30.661,5.754,43.842,16.067c6.542,5.118,14.93,14.618,14.93,24.779
		C126.12,51.691,116.594,61.37,100.744,61.37z"/>
	
		<linearGradient id="SVGID_00000052822709893590590820000007382361843712845493_" gradientUnits="userSpaceOnUse" x1="35.3717" y1="104.7735" x2="120.6693" y2="104.7735">
		<stop  offset="0" style="stop-color:#009AB1"/>
		<stop  offset="1" style="stop-color:#075769"/>
	</linearGradient>
	<path style="fill:url(#SVGID_00000052822709893590590820000007382361843712845493_);" d="M103.407,81.556
		c-16.787-0.38-25.293,11.376-34.129,20.496c-7.212,7.443-18.397,17.795-33.907,17.468c7.69,4.134,18.246,8.481,32.391,8.481
		c16.816,0,28.358-4.649,42.35-14.343C126.12,102.567,123.953,82.021,103.407,81.556z"/>
</g>
<g style="opacity:0.6;">
	<path style="fill:#FFFFFF;" d="M36.181,71.018c0,23.469,8.167,31.894,14.614,39.889c-6.705,4.556-21.75,6.276-28.465,0.008
		C9.169,98.629,1.88,83.114,1.88,64.052c0-4.356,0.433-9.024,1.29-13.136c3.954-8.941,22.351-20.231,44.617-13.684
		C44.262,43.336,36.181,54.34,36.181,71.018z"/>
	<path style="fill:#FFFFFF;" d="M100.744,61.37c-16.791,0-26.036-10.053-34.526-18.731c-7.248-7.409-19.716-11.98-29.62-11.98
		c-17.64,0-26.319,5.66-31.176,10.736C14.878,17.202,39.037,0,67.347,0c16.816,0,30.661,5.754,43.842,16.067
		c6.542,5.118,14.93,14.618,14.93,24.779C126.12,51.691,116.594,61.37,100.744,61.37z"/>
	<path style="fill:#FFFFFF;" d="M103.407,81.556c-16.787-0.38-25.293,11.376-34.129,20.496
		c-7.212,7.443-18.397,17.795-33.907,17.468c7.69,4.134,18.246,8.481,32.391,8.481c16.816,0,28.358-4.649,42.35-14.343
		C126.12,102.567,123.953,82.021,103.407,81.556z"/>
</g>
</svg>
