<?xml version="1.0" encoding="UTF-8"?>
<svg id="Layer_1" data-name="Layer 1" xmlns="http://www.w3.org/2000/svg" viewBox="0 0 328.79 512">
  <defs>
    <style>
      .cls-1 {
        fill: #e1e1e1;
      }

      .cls-2 {
        fill: #231f20;
      }

      .cls-3 {
        fill: #787878;
      }
    </style>
  </defs>
  <rect class="cls-2" x="129.61" y="347.54" width="69.57" height="144.83" rx="4" ry="4"/>
  <rect class="cls-2" x="127.5" y="372.8" width="73.79" height="15.32" rx="2" ry="2"/>
  <rect class="cls-2" x="127.5" y="400.26" width="73.79" height="15.32" rx="2" ry="2"/>
  <rect class="cls-2" x="127.5" y="427.73" width="73.79" height="15.32" rx="2" ry="2"/>
  <rect class="cls-2" x="127.5" y="455.19" width="73.79" height="15.32" rx="2" ry="2"/>
  <rect class="cls-2" x="148.91" y="491.73" width="30.97" height="20.27"/>
  <path class="cls-2" d="m328.59,224.45c-2.87-38.96-11.07-117.36-22.86-154.62C284.78,3.6,198.94,0,164.42,0S47.55,3.8,25.98,69.83C13.82,107.08,3.47,185.41.24,224.45c-3.78,45.66,37.28,83.11,83.11,83.11h23.36v43.41c0,2.33,1.89,4.22,4.22,4.22h106.95c2.33,0,4.22-1.89,4.22-4.22v-43.41h23.4c45.82,0,86.47-37.4,83.11-83.11Z"/>
  <path class="cls-3" d="m125.68,336.2v-47.62h-42.33c-18.48,0-36.96-8.09-49.43-21.63-10.74-11.67-15.99-26.21-14.77-40.94,3.31-40.03,13.5-115.47,24.87-150.29,12.3-37.66,52.8-56.75,120.39-56.75,10.28,0,41.58,0,69.91,9.16,28.72,9.28,46.16,24.8,53.32,47.42,11.3,35.73,19.35,113.93,22.02,150.29,1.1,14.98-4.29,29.69-15.19,41.42-12.4,13.35-30.72,21.32-48.99,21.32h-42.38v47.62h-77.43Z"/>
  <rect class="cls-1" x="150.64" y="62.2" width="29.1" height="50.6" rx="4" ry="4"/>
  <rect class="cls-1" x="69.98" y="212.46" width="50.6" height="26.96" rx="4" ry="4"/>
  <rect class="cls-1" x="208.21" y="212.46" width="50.6" height="26.96" rx="4" ry="4"/>
</svg>