<?xml version="1.0" encoding="iso-8859-1"?>
<!-- Generator: Adobe Illustrator 27.8.0, SVG Export Plug-In . SVG Version: 6.00 Build 0)  -->
<svg version="1.1" id="Layer_1" xmlns="http://www.w3.org/2000/svg" xmlns:xlink="http://www.w3.org/1999/xlink" x="0px" y="0px"
	 viewBox="0 0 128 128" style="enable-background:new 0 0 128 128;" xml:space="preserve">
<rect style="fill-rule:evenodd;clip-rule:evenodd;fill:#00C65E;" width="128" height="128"/>
<path id="Fill-3" style="fill-rule:evenodd;clip-rule:evenodd;fill:#FFFFFF;" d="M66.452,27.045c4-5.202,10.209-8.223,16.771-8.164
	c7.275,0.046,13.023,3.062,16.455,8.164c2.285,3.399,3.549,7.72,3.549,12.724v3.16H70.096c0.429,6.885,5.577,12.516,13.221,12.516
	c6.349,0,10.386-3.562,11.588-7.044l7.224,2.077c-2.325,6.294-8.498,11.766-18.798,11.766c-12.643,0-21.381-9.368-21.381-21.631
	c-0.036-4.889,1.547-9.654,4.502-13.549V27.045z M89.391,27.063c-1.873-0.981-3.96-1.48-6.074-1.454
	c-2.204-0.032-4.382,0.467-6.354,1.454c-3.82,1.959-6.141,5.675-6.773,9.739h25.491C95.374,32.699,93.005,29.031,89.391,27.063
	L89.391,27.063z"/>
<polygon id="Fill-5" style="fill-rule:evenodd;clip-rule:evenodd;fill:#FFFFFF;" points="57.809,108.089 20.645,108.089 
	20.645,66.822 51.071,66.822 53.677,73.143 27.938,73.143 27.938,84.11 43.364,84.11 43.364,90.06 27.93,90.06 27.93,101.8 
	57.809,101.8 "/>
<path id="Fill-7" style="fill-rule:evenodd;clip-rule:evenodd;fill:#FFFFFF;" d="M44.082,61.219H20.646V19.934h22.948
	c6.846,0,10.869,2.89,12.26,7.278c0.376,1.215,0.563,2.481,0.556,3.752c0,4.48-2.322,7.134-5.243,8.664v0.105
	c2.98,0.939,6.737,3.657,6.737,9.554C57.903,56.501,52.418,61.219,44.082,61.219 M49.319,31.605c0-2.022-0.772-3.508-2.149-4.397
	c-1.152-0.682-2.477-1.017-3.816-0.966h-15.43v10.966h15.43C47.41,37.213,49.319,35.032,49.319,31.605 M43.77,43.168H27.925v11.739
	H44.01c4.587,0,6.615-2.592,6.615-5.839C50.625,45.823,48.656,43.168,43.77,43.168"/>
<polygon id="Fill-9" style="fill-rule:evenodd;clip-rule:evenodd;fill:#FFFFFF;" points="77.768,108.089 59.886,66.822 
	68.304,66.822 82.834,100.043 97.366,66.822 105.3,66.822 87.517,108.089 "/>
<polygon id="Fill-11" style="fill-rule:evenodd;clip-rule:evenodd;fill:#FFFFFF;" points="107.571,105.213 106.455,105.213 
	106.455,108.089 105.688,108.089 105.688,105.2 104.559,105.2 104.559,104.477 107.571,104.477 "/>
<polygon id="Fill-13" style="fill-rule:evenodd;clip-rule:evenodd;fill:#FFFFFF;" points="111.784,108.089 111.002,108.089 
	111.002,106.07 110.154,108.089 109.621,108.089 108.772,106.07 108.772,108.089 108.005,108.089 108.005,104.477 108.826,104.477 
	109.891,106.992 110.949,104.477 111.784,104.477 "/>
<path id="Fill-15" style="fill-rule:evenodd;clip-rule:evenodd;fill:#FFFFFF;" d="M108.171,61.219c-1.995,0-3.613-1.618-3.613-3.612
	s1.618-3.612,3.613-3.612s3.613,1.618,3.613,3.612S110.166,61.219,108.171,61.219"/>
<rect style="opacity:0.6;fill-rule:evenodd;clip-rule:evenodd;fill:#FFFFFF;" width="128" height="128"/>
</svg>
