<?xml version="1.0" encoding="iso-8859-1"?>
<!-- Generator: Adobe Illustrator 27.8.1, SVG Export Plug-In . SVG Version: 6.00 Build 0)  -->
<svg version="1.1" id="Layer_1" xmlns="http://www.w3.org/2000/svg" xmlns:xlink="http://www.w3.org/1999/xlink" x="0px" y="0px"
	 viewBox="0 0 128 128" style="enable-background:new 0 0 128 128;" xml:space="preserve">
<path style="fill:#81CBEB;" d="M63.975,128C99.01,128,128,99.01,128,64.025C128,28.99,98.961,0,63.926,0C28.941,0,0,28.99,0,64.025
	C0,99.01,28.99,128,63.975,128z M63.976,120c-14.784,0-28.794-5.869-39.451-16.525C13.869,92.818,8,78.808,8,64.024
	c0-14.81,5.862-28.837,16.505-39.498C35.146,13.869,49.146,8,63.926,8c14.812,0,28.847,5.872,39.521,16.534
	C114.121,35.197,120,49.222,120,64.024c0,14.785-5.87,28.795-16.529,39.449C92.808,114.131,78.781,120,63.976,120z"/>
<path style="fill:#81CBEB;" d="M105.344,60.206v33.53c0,1.123-0.911,2.033-2.033,2.033H24.689c-1.123,0-2.033-0.911-2.033-2.033
	V70.011c0-0.771,0.436-1.475,1.126-1.819l19.655-9.805c0.63-0.314,1.379-0.28,1.977,0.09c0.599,0.37,0.964,1.025,0.964,1.729v6.518
	l12.036-6.004V40.862c0-1.123,0.911-2.033,2.033-2.033h3.69c1.123,0,2.033,0.911,2.033,2.033v25.794l13.428-6.699l0.831-36.026
	c0.026-1.105,0.928-1.987,2.033-1.987h8.864c1.104,0,2.007,0.882,2.033,1.987l0.889,38.523l8.154-4.067
	c0.63-0.314,1.378-0.28,1.977,0.09S105.344,59.502,105.344,60.206z M36.921,79.314h-5.5v7.729h5.5V79.314z M51.815,79.314h-5.5
	v7.729h5.5V79.314z M66.709,79.314h-5.5v7.729h5.5V79.314z M81.604,79.314h-5.5v7.729h5.5L81.604,79.314L81.604,79.314z"/>
</svg>
