<?xml version="1.0" encoding="iso-8859-1"?>
<!-- Generator: Adobe Illustrator 27.7.0, SVG Export Plug-In . SVG Version: 6.00 Build 0)  -->
<svg version="1.1" id="Layer_1" xmlns="http://www.w3.org/2000/svg" xmlns:xlink="http://www.w3.org/1999/xlink" x="0px" y="0px"
	 viewBox="0 0 128 128" style="enable-background:new 0 0 128 128;" xml:space="preserve">
<g>
	<polygon style="fill:#013E7E;" points="31.405,10.354 62.429,63.943 31.405,117.532 0,63.943 	"/>
	<polygon style="fill:#00AEEF;" points="96.132,9.295 63.322,9.295 85.51,47.413 52.859,47.413 9.687,47.413 0,63.943 9.687,80.473 
		52.859,80.473 85.53,80.473 63.322,118.705 96.132,118.705 128,63.943 	"/>
</g>
<g style="opacity:0.6;">
	<polygon style="fill:#FFFFFF;" points="31.405,10.354 62.429,63.943 31.405,117.532 0,63.943 	"/>
	<polygon style="fill:#FFFFFF;" points="96.132,9.295 63.322,9.295 85.51,47.413 52.859,47.413 9.687,47.413 0,63.943 9.687,80.473 
		52.859,80.473 85.53,80.473 63.322,118.705 96.132,118.705 128,63.943 	"/>
</g>
</svg>
