<?xml version="1.0" encoding="iso-8859-1"?>
<!-- Generator: Adobe Illustrator 27.7.0, SVG Export Plug-In . SVG Version: 6.00 Build 0)  -->
<svg version="1.1" id="Layer_1" xmlns="http://www.w3.org/2000/svg" xmlns:xlink="http://www.w3.org/1999/xlink" x="0px" y="0px"
	 viewBox="0 0 128 128" style="enable-background:new 0 0 128 128;" xml:space="preserve">
<path style="fill:#85B113;" d="M68.472,64.714l-41.238,36.925c-6.177,5.639-6.627,15.242-0.988,21.407
	c5.639,6.215,15.242,6.627,21.407,0.988L100.97,76.13c3.076-2.863,4.902-6.877,4.939-11.079c0.038-4.201-1.701-8.24-4.727-11.166
	L47.653,4.157c-6.052-5.752-15.668-5.514-21.419,0.588c-5.752,6.052-5.477,15.668,0.588,21.419L68.472,64.714z"/>
<path style="opacity:0.6;fill:#FFFFFF;" d="M68.472,64.714l-41.238,36.925c-6.177,5.639-6.627,15.242-0.988,21.407
	c5.639,6.215,15.242,6.627,21.407,0.988L100.97,76.13c3.076-2.863,4.902-6.877,4.939-11.079c0.038-4.201-1.701-8.24-4.727-11.166
	L47.653,4.157c-6.052-5.752-15.668-5.514-21.419,0.588c-5.752,6.052-5.477,15.668,0.588,21.419L68.472,64.714z"/>
</svg>
