<?xml version="1.0" encoding="iso-8859-1"?>
<!-- Generator: Adobe Illustrator 27.7.0, SVG Export Plug-In . SVG Version: 6.00 Build 0)  -->
<svg version="1.1" id="Layer_1" xmlns="http://www.w3.org/2000/svg" xmlns:xlink="http://www.w3.org/1999/xlink" x="0px" y="0px"
	 viewBox="0 0 128 128" style="enable-background:new 0 0 128 128;" xml:space="preserve">
<path style="fill:#FF5A00;" d="M127.55,61.861H70.073c-1.048,0-2.053-0.419-2.794-1.165c-0.741-0.746-1.157-1.758-1.157-2.813V0
	h-4.237v42.4L53.69,0.832l-4.158,0.832l8.204,41.52L41.646,4.075l-3.914,1.632l16.091,39.115L30.46,9.621l-3.522,2.368l23.368,35.2
	L20.534,17.248l-2.998,3.013l29.729,29.931L12.309,26.677l-2.357,3.547l34.957,23.52L6.059,37.547l-1.626,3.941l38.85,16.197
	L2.055,49.429l-0.8,4.181l41.239,8.261H0.434v4.267h57.494c1.046,0.001,2.049,0.42,2.789,1.165c0.74,0.745,1.156,1.754,1.157,2.808
	V128h4.237V85.664l8.204,41.52l4.158-0.832l-8.204-41.52l16.091,39.109l3.914-1.632L74.183,83.2l23.363,35.2l3.522-2.368
	l-23.358-35.2l29.735,29.931l2.992-3.013L80.703,77.803l34.957,23.525l2.352-3.547l-34.957-23.52l38.845,16.197l1.626-3.941
	L84.68,70.336l41.239,8.256l0.826-4.181l-41.313-8.277h42.134L127.55,61.861z"/>
<path style="opacity:0.6;fill:#FFFFFF;" d="M127.55,61.861H70.073c-1.048,0-2.053-0.419-2.794-1.165
	c-0.741-0.746-1.157-1.758-1.157-2.813V0h-4.237v42.4L53.69,0.832l-4.158,0.832l8.204,41.52L41.646,4.075l-3.914,1.632
	l16.091,39.115L30.46,9.621l-3.522,2.368l23.368,35.2L20.534,17.248l-2.998,3.013l29.729,29.931L12.309,26.677l-2.357,3.547
	l34.957,23.52L6.059,37.547l-1.626,3.941l38.85,16.197L2.055,49.429l-0.8,4.181l41.239,8.261H0.434v4.267h57.494
	c1.046,0.001,2.049,0.42,2.789,1.165c0.74,0.745,1.156,1.754,1.157,2.808V128h4.237V85.664l8.204,41.52l4.158-0.832l-8.204-41.52
	l16.091,39.109l3.914-1.632L74.183,83.2l23.363,35.2l3.522-2.368l-23.358-35.2l29.735,29.931l2.992-3.013L80.703,77.803
	l34.957,23.525l2.352-3.547l-34.957-23.52l38.845,16.197l1.626-3.941L84.68,70.336l41.239,8.256l0.826-4.181l-41.313-8.277h42.134
	L127.55,61.861z"/>
</svg>
