<?xml version="1.0" encoding="UTF-8"?>
<svg id="Layer_1" data-name="Layer 1" xmlns="http://www.w3.org/2000/svg" viewBox="0 0 128 128">
  <g>
    <path d="m63,48.3c4.35,0,7.87-3.52,7.87-7.87s-3.52-7.87-7.87-7.87-7.9,3.52-7.9,7.87,3.52,7.87,7.9,7.87Z"/>
    <path d="m97.02,81.78l-14.18-11.65-2.78-15.2c-.28-1.56-.09-3.07.68-4.6l11.91-23.78c.91-1.82.14-4.01-1.65-4.92-1.79-.88-4.01-.17-4.89,1.59l-11.71,23.47c-.82,1.68-2.05,2.76-3.78,3.47l-20.66,8.61-8.33-6.68c-.74-.6-1.68-.74-2.33-.6v-8.62c4.33-2.26,7.39-6.86,7.39-11.08,0-5.2-4.04-9.26-9.18-9.26s-9.21,4.06-9.21,9.26c0,4.2,3.07,8.8,7.39,11.06v11.93c0,1.22.37,2.27,1.31,3.04l10.17,8.04c1.25.99,2.59.91,4.18.26l11.31-4.72c1.56-.65,2.36.23,2.56,1.31l5.57,30.8-15.49,6.19c-1.85.74-2.78,2.87-2.05,4.75.85,2.13,2.96,2.7,4.75,1.99l18.27-7.27c1.59-.65,2.42-2.22,2.3-3.84l-1.02-14.21c-.14-1.59,1.59-2.47,2.81-1.68l11,7.39v16.28c0,1.99,1.59,3.64,3.64,3.64s3.64-1.65,3.64-3.64v-18.27c0-1.28-.65-2.24-1.62-3.07ZM31.92,31.88c0-3.24,2.44-5.77,5.6-5.77s5.6,2.53,5.6,5.77-2.27,6.71-5.6,7.87c-3.32-1.17-5.6-4.66-5.6-7.87Z"/>
  </g>
  <path d="m63.98,128c35.03,0,64.02-28.99,64.02-63.98S98.96,0,63.93,0,0,28.99,0,64.02s28.99,63.98,63.98,63.98Zm0-9.14c-30.37,0-54.79-24.47-54.79-54.84S33.56,9.19,63.93,9.19s54.89,24.42,54.89,54.84-24.42,54.84-54.84,54.84Z"/>
</svg>