<?xml version="1.0" encoding="iso-8859-1"?>
<!-- Generator: Adobe Illustrator 27.8.1, SVG Export Plug-In . SVG Version: 6.00 Build 0)  -->
<svg version="1.1" id="Layer_1" xmlns="http://www.w3.org/2000/svg" xmlns:xlink="http://www.w3.org/1999/xlink" x="0px" y="0px"
	 viewBox="0 0 128 128" style="enable-background:new 0 0 128 128;" xml:space="preserve">
<path style="fill:#FFFFFF;" d="M63.928,0C28.942,0,0,28.99,0,64.025S28.99,128,63.975,128S128,99.01,128,64.025S98.96,0,63.928,0z
	 M120.533,64.025c0,5.675-0.87,11.168-2.47,16.36c-3.882,2.018-7.857,3.77-11.91,5.235c-6.45-5.695-11.77-12.507-15.692-20.125
	c1.73-1.418,2.933-3.463,3.28-5.792c8.762-2.375,17.055-6.123,24.59-11.118c1.423,4.92,2.202,10.095,2.202,15.438V64.025z
	 M114.228,89.71c-0.265,0.51-0.53,1.018-0.81,1.52c-0.36-0.24-0.705-0.5-1.058-0.747C112.985,90.23,113.607,89.975,114.228,89.71z
	 M75.06,91.482c-1.253-3.495-4.49-5.997-8.353-6.205c-1.662-7.247-2.533-14.728-2.533-22.333c0-0.182,0.01-0.365,0.01-0.55
	c2.485,0.197,4.985,0.315,7.507,0.303c1.595-0.007,3.18-0.077,4.76-0.173c1.44,2.792,4.265,4.755,7.56,5
	c3.78,7.577,8.802,14.478,14.86,20.415c-7.802,2.158-15.8,3.323-23.81,3.54L75.06,91.482z M35.627,84.56
	c-0.257-7.68,0.395-15.255,1.868-22.607c2.505-0.357,4.69-1.708,6.158-3.647c4.478,1.458,9.092,2.57,13.812,3.305
	c-0.005,0.445-0.025,0.888-0.025,1.333c0,8.318,0.967,16.483,2.818,24.377c-1.05,0.842-1.908,1.91-2.513,3.13
	c-7.535-1.107-14.96-3.077-22.12-5.893L35.627,84.56z M68.397,7.665c1.42,0.115,2.83,0.267,4.22,0.488
	c-8.46,14.127-13.605,30.053-14.865,46.713c-4.162-0.688-8.235-1.693-12.188-3c-0.18-2.555-1.393-4.845-3.228-6.445
	C47.93,31.103,56.823,18.155,68.397,7.665z M79.757,9.78c-2.665,8.03-3.918,16.525-3.745,25.255
	c0.115,5.728,0.872,11.333,2.205,16.737c-1.137,1.105-1.988,2.495-2.435,4.052c-1.36,0.077-2.723,0.132-4.095,0.143
	c-2.44,0.02-4.857-0.09-7.255-0.283c1.185-16.583,6.433-32.268,15.135-45.958c0.062,0.017,0.128,0.035,0.19,0.055L79.757,9.78z
	 M115.973,41.98c-7.213,5.03-15.235,8.79-23.747,11.14c-1.655-2.403-4.415-3.983-7.515-3.983c-0.067,0-0.132,0.007-0.2,0.01
	c-1.048-4.595-1.66-9.347-1.765-14.21c-0.21-7.853,0.927-15.59,3.308-22.882C99.415,17.825,110.21,28.62,115.973,41.98
	L115.973,41.98z M58.732,7.722C48.84,17.945,41.15,29.983,36.06,43.097c-2.123,0.022-4.075,0.745-5.65,1.938
	c-5.173-3.013-10-6.597-14.385-10.71C25.172,19.673,40.807,9.403,58.732,7.72V7.722z M12.648,40.585
	c4.365,3.882,9.113,7.298,14.155,10.217c-0.108,0.56-0.167,1.135-0.167,1.722c0,3.342,1.73,6.283,4.34,7.985
	c-1.382,6.885-2.09,13.953-2.07,21.118c-7.528-3.613-14.693-8.19-21.285-13.747c-0.088-1.277-0.15-2.56-0.15-3.857
	c0-8.335,1.867-16.275,5.178-23.44L12.648,40.585z M9.175,77.647c6.307,4.605,13.03,8.442,20.03,11.512
	c0.042,0.58,0.08,1.162,0.132,1.743c0.19,6.658,1.173,13.257,2.912,19.708c-11.257-7.74-19.647-19.425-23.073-32.963H9.175z
	 M40.882,115.49c-2.778-7.575-4.38-15.46-4.792-23.592c6.825,2.448,13.858,4.192,20.985,5.22c1.02,3.905,4.438,6.772,8.633,6.98
	c2.255,5.385,4.938,10.588,8.05,15.555c-3.183,0.567-6.448,0.882-9.78,0.882c-8.2,0-16.02-1.817-23.095-5.043L40.882,115.49z
	 M80.688,117.967c-3.325-5.062-6.183-10.4-8.542-15.952c1.235-1.003,2.202-2.312,2.802-3.817c10.085-0.232,20.15-1.893,29.875-4.99
	c1.61,1.28,3.277,2.5,4.997,3.652c-7.128,9.855-17.323,17.393-29.132,21.11V117.967z"/>
</svg>
