<?xml version="1.0" encoding="iso-8859-1"?>
<!-- Generator: Adobe Illustrator 27.8.0, SVG Export Plug-In . SVG Version: 6.00 Build 0)  -->
<svg version="1.1" id="Layer_1" xmlns="http://www.w3.org/2000/svg" xmlns:xlink="http://www.w3.org/1999/xlink" x="0px" y="0px"
	 viewBox="0 0 128 128" style="enable-background:new 0 0 128 128;" xml:space="preserve">
<path style="fill-rule:evenodd;clip-rule:evenodd;fill:#E20177;" d="M126.106,50.448c1.237,4.337,1.894,8.879,1.894,13.555
	c0,30.834-28.651,55.833-63.997,55.833c-5.44,0-10.712-0.593-15.754-1.706l30.635-67.682L126.106,50.448 M106.042,21.903
	c6.916,5.262,12.103,11.376,15.919,18.769H82.683c1.559-4.011,4.827-7.368,6.08-8.941C92.391,27.175,98.629,23.263,106.042,21.903z
	 M0,64.003c0-30.837,28.655-55.84,64.003-55.84c12.938,0,24.986,3.354,35.05,9.115c-8.561,0.983-14.576,3.158-22.831,7.992
	c-7.91,4.635-12.048,8.252-17.933,15.812H34.095l-8.358,9.362h25.363l-37.14,48.366C5.227,89.267,0,77.168,0,64.003z"/>
<path style="opacity:0.6;fill-rule:evenodd;clip-rule:evenodd;fill:#FFFFFF;" d="M126.106,50.448
	c1.237,4.337,1.894,8.879,1.894,13.555c0,30.834-28.651,55.833-63.997,55.833c-5.44,0-10.712-0.593-15.754-1.706l30.635-67.682
	L126.106,50.448 M106.042,21.903c6.916,5.262,12.103,11.376,15.919,18.769H82.683c1.559-4.011,4.827-7.368,6.08-8.941
	C92.391,27.175,98.629,23.263,106.042,21.903z M0,64.003c0-30.837,28.655-55.84,64.003-55.84c12.938,0,24.986,3.354,35.05,9.115
	c-8.561,0.983-14.576,3.158-22.831,7.992c-7.91,4.635-12.048,8.252-17.933,15.812H34.095l-8.358,9.362h25.363l-37.14,48.366
	C5.227,89.267,0,77.168,0,64.003z"/>
</svg>
