<?xml version="1.0" encoding="iso-8859-1"?>
<!-- Generator: Adobe Illustrator 27.8.1, SVG Export Plug-In . SVG Version: 6.00 Build 0)  -->
<svg version="1.1" id="Layer_1" xmlns="http://www.w3.org/2000/svg" xmlns:xlink="http://www.w3.org/1999/xlink" x="0px" y="0px"
	 viewBox="0 0 512 512" style="enable-background:new 0 0 512 512;" xml:space="preserve">
<path d="M452.372,403.203v1.913c0,58.943-47.94,106.883-106.883,106.883H166.511c-58.915,0-106.883-47.94-106.883-106.883v-1.913
	c0-58.762,47.682-106.626,106.392-106.888c-57.311-32.175-93.991-92.826-94.172-160.258c-0.105-32.747,8.489-64.946,24.85-93.084
	C112.101,16.462,140.883,0,171.87,0h169.09c30.934,0,59.716,16.438,75.095,42.892c16.304,28.009,24.903,60.031,24.903,92.621
	c0,67.795-36.527,128.627-93.814,160.831C405.31,297.222,452.372,344.828,452.372,403.203z M434.898,403.203
	c0-49.305-40.11-89.415-89.41-89.415h-36.216c-1.436,0-2.791-0.563-3.817-1.589c-0.993-0.993-1.565-2.386-1.565-3.817v-8.651
	c0-2.348,1.508-4.409,3.751-5.129c69.307-22.307,115.868-86.237,115.868-159.089c0-29.531-7.797-58.523-22.546-83.841
	c-12.268-21.095-35.262-34.203-60.003-34.203H171.87c-24.76,0-47.783,13.127-60.084,34.26
	c-14.806,25.538-22.574,54.673-22.469,84.276c0.191,72.347,46.776,136.047,115.926,158.512c2.252,0.735,3.76,2.806,3.746,5.153
	l-0.048,8.751c-0.024,2.954-2.453,5.368-5.411,5.368h-37.018c-49.3,0-89.41,40.11-89.41,89.415v1.913
	c0,49.305,40.11,89.415,89.41,89.415h178.977c49.3,0,89.41-40.11,89.41-89.415V403.203z"/>
<path d="M339.381,332.431c-38.65,0-69.999,31.345-69.999,69.994c0,38.674,31.349,70.023,69.999,70.023
	c38.645,0,69.994-31.349,69.994-70.023C409.375,363.776,378.026,332.431,339.381,332.431z M339.381,433.278
	c-17.035,0-30.834-13.823-30.834-30.853c0-17.011,13.799-30.829,30.834-30.829c17.03,0,30.829,13.818,30.829,30.829
	C370.21,419.455,356.411,433.278,339.381,433.278z"/>
<path d="M172.624,332.431c-38.65,0-69.999,31.345-69.999,69.994c0,38.674,31.349,70.023,69.999,70.023
	c38.645,0,69.994-31.349,69.994-70.023C242.618,363.776,211.269,332.431,172.624,332.431z M172.624,433.278
	c-17.035,0-30.834-13.823-30.834-30.853c0-17.011,13.799-30.829,30.834-30.829c17.03,0,30.829,13.818,30.829,30.829
	C203.453,419.455,189.654,433.278,172.624,433.278z"/>
<path d="M305.262,184.827c-22.831,0-41.366,18.535-41.366,41.366s18.535,41.341,41.366,41.341c22.832,0,41.34-18.51,41.34-41.341
	S328.093,184.827,305.262,184.827z M305.262,244.416c-10.069,0-18.224-8.18-18.224-18.224c0-10.07,8.154-18.224,18.224-18.224
	c10.044,0,18.198,8.154,18.198,18.224C323.46,236.236,315.305,244.416,305.262,244.416z"/>
<path d="M206.739,184.827c-22.831,0-41.34,18.535-41.34,41.366s18.509,41.341,41.34,41.341c22.831,0,41.366-18.51,41.366-41.341
	S229.571,184.827,206.739,184.827z M206.739,244.416c-10.044,0-18.198-8.18-18.198-18.224c0-10.07,8.154-18.224,18.198-18.224
	c10.07,0,18.224,8.154,18.224,18.224C224.963,236.236,216.809,244.416,206.739,244.416z"/>
<path d="M155.589,93.06c-24.152,0-43.722,19.57-43.722,43.695c0,24.152,19.57,43.697,43.722,43.697
	c24.126,0,43.695-19.545,43.695-43.697C199.284,112.63,179.714,93.06,155.589,93.06z M155.589,156.016
	c-10.639,0-19.259-8.62-19.259-19.26c0-10.639,8.62-19.259,19.259-19.259c10.613,0,19.233,8.62,19.233,19.259
	C174.822,147.396,166.202,156.016,155.589,156.016z"/>
<path d="M256.001,93.06c-24.126,0-43.696,19.57-43.696,43.695c0,24.152,19.57,43.697,43.696,43.697s43.696-19.545,43.696-43.697
	C299.696,112.63,280.126,93.06,256.001,93.06z M256.001,156.016c-10.639,0-19.233-8.62-19.233-19.26
	c0-10.639,8.594-19.259,19.233-19.259s19.259,8.62,19.259,19.259C275.26,147.396,266.64,156.016,256.001,156.016z"/>
<path d="M356.412,93.06c-24.126,0-43.696,19.57-43.696,43.695c0,24.152,19.57,43.697,43.696,43.697
	c24.152,0,43.721-19.545,43.721-43.697C400.134,112.63,380.564,93.06,356.412,93.06z M356.412,156.016
	c-10.613,0-19.233-8.62-19.233-19.26c0-10.639,8.62-19.259,19.233-19.259c10.639,0,19.259,8.62,19.259,19.259
	C375.672,147.396,367.052,156.016,356.412,156.016z"/>
<path d="M310.206,40.097c-14.004,0-25.368,11.338-25.368,25.342s11.364,25.342,25.368,25.342c13.978,0,25.342-11.338,25.342-25.342
	S324.184,40.097,310.206,40.097z M310.206,76.624c-6.161,0-11.157-5.023-11.157-11.184c0-6.161,4.996-11.157,11.157-11.157
	c6.161,0,11.157,4.996,11.157,11.157C321.363,71.601,316.367,76.624,310.206,76.624z"/>
<path d="M201.795,40.097c-13.978,0-25.342,11.338-25.342,25.342s11.364,25.342,25.342,25.342c14.004,0,25.368-11.338,25.368-25.342
	S215.799,40.097,201.795,40.097z M201.795,76.624c-6.161,0-11.157-5.023-11.157-11.184c0-6.161,4.996-11.157,11.157-11.157
	c6.161,0,11.183,4.996,11.183,11.157C212.978,71.601,207.956,76.624,201.795,76.624z"/>
<path d="M339.381,332.431c-38.65,0-69.999,31.345-69.999,69.994c0,38.674,31.349,70.023,69.999,70.023
	c38.645,0,69.994-31.349,69.994-70.023C409.375,363.776,378.026,332.431,339.381,332.431z M339.381,433.278
	c-17.035,0-30.834-13.823-30.834-30.853c0-17.011,13.799-30.829,30.834-30.829c17.03,0,30.829,13.818,30.829,30.829
	C370.21,419.455,356.411,433.278,339.381,433.278z"/>
<path d="M172.624,332.431c-38.65,0-69.999,31.345-69.999,69.994c0,38.674,31.349,70.023,69.999,70.023
	c38.645,0,69.994-31.349,69.994-70.023C242.618,363.776,211.269,332.431,172.624,332.431z M172.624,433.278
	c-17.035,0-30.834-13.823-30.834-30.853c0-17.011,13.799-30.829,30.834-30.829c17.03,0,30.829,13.818,30.829,30.829
	C203.453,419.455,189.654,433.278,172.624,433.278z"/>
</svg>
