<?xml version="1.0" encoding="iso-8859-1"?>
<!-- Generator: Adobe Illustrator 27.8.1, SVG Export Plug-In . SVG Version: 6.00 Build 0)  -->
<svg version="1.1" id="Layer_1" xmlns="http://www.w3.org/2000/svg" xmlns:xlink="http://www.w3.org/1999/xlink" x="0px" y="0px"
	 viewBox="0 0 128 128" style="enable-background:new 0 0 128 128;" xml:space="preserve">
<path style="fill-rule:evenodd;clip-rule:evenodd;" d="M39.648,90.991c-2.254-0.262-3.079-1.371-3.079-3.367v-3.77
	c0-3.609,0.584-5.322,2.636-8.003l2.616-3.447c0.745-3.951,2.435-9.173,3.502-11.43c0.886-1.875,2.576-3.044,5.031-3.347
	c1.65-0.181,6.964-0.423,13.645-0.423c6.682,0,12.075,0.242,13.605,0.423c2.516,0.323,4.186,1.492,5.072,3.347
	c1.087,2.258,2.758,7.479,3.502,11.43l2.616,3.447c2.053,2.681,2.636,4.395,2.636,8.003v3.77c0,1.996-0.825,3.105-3.079,3.367
	C84.046,91.515,72.695,91.939,64,91.939C55.326,91.939,43.955,91.536,39.648,90.991z M113.421,57.386v3.625
	c0,1.268-0.366,2.258-1.052,2.975v5.057c0,1.501-1.164,2.667-2.678,2.667h-2.392c-1.514,0-2.678-1.166-2.678-2.667v-3.342
	c-4.472,0.26-10.456,0.436-15.274,0.436c-0.545,0-1.108-0.003-1.679-0.007c0.471,1.606,0.919,3.331,1.268,5.023l2.214,2.883
	c2.294,2.984,3.24,5.362,3.24,9.818v4.576c0,1.601-0.462,2.85-1.328,3.756v6.384c0,1.895-1.469,3.367-3.381,3.367h-3.019
	c-1.911,0-3.381-1.472-3.381-3.367v-4.219c-5.645,0.329-13.199,0.55-19.281,0.55c-6.082,0-13.635-0.221-19.281-0.55v4.219
	c0,1.895-1.469,3.367-3.381,3.367h-3.019c-1.912,0-3.381-1.492-3.381-3.367v-6.384c-0.866-0.906-1.328-2.155-1.328-3.756v-4.576
	c0-4.455,0.946-6.834,3.24-9.818l2.214-2.883c0.35-1.693,0.797-3.418,1.268-5.023c-0.571,0.004-1.134,0.007-1.679,0.007
	c-4.818,0-10.802-0.175-15.274-0.436v3.342c0,1.501-1.164,2.667-2.679,2.667H18.31c-1.515,0-2.679-1.182-2.679-2.667v-5.058
	c-0.686-0.717-1.052-1.707-1.052-2.975v-3.625c0-3.529,0.749-5.414,2.567-7.777l1.754-2.284c0.765-3.705,2.12-7.618,2.838-9.135
	c1.084-2.316,3.205-3.641,5.819-3.961c1.387-0.176,5.947-0.303,11.097-0.303c5.15,0,9.71,0.112,11.096,0.303
	c2.615,0.351,4.735,1.645,5.819,3.961c0.717,1.517,2.073,5.43,2.838,9.135l1.754,2.284c1.191,1.549,1.916,2.9,2.279,4.635
	c0.515-0.002,1.034-0.004,1.56-0.004c0.526,0,1.045,0.001,1.56,0.003c0.363-1.735,1.088-3.086,2.279-4.634l1.754-2.284
	c0.765-3.705,2.12-7.618,2.838-9.135c1.084-2.316,3.205-3.641,5.819-3.961c1.387-0.176,5.947-0.303,11.097-0.303
	c5.15,0,9.71,0.112,11.096,0.303c2.615,0.351,4.735,1.645,5.819,3.961c0.717,1.517,2.073,5.43,2.838,9.135l1.754,2.284
	C112.672,51.973,113.421,53.857,113.421,57.386z M108.989,51.046l-2.072-2.731c-0.59-3.13-1.913-7.266-2.775-9.055
	c-0.701-1.469-2.024-2.396-4.018-2.651c-1.212-0.144-5.485-0.335-10.778-0.335c-5.293,0-9.502,0.192-10.81,0.335
	c-1.945,0.24-3.284,1.166-3.986,2.651c-0.845,1.789-2.184,5.925-2.774,9.055l-2.073,2.731c-0.9,1.176-1.435,2.122-1.741,3.213
	c4.775,0.045,8.661,0.173,10.044,0.364c1.589,0.214,3.027,0.71,4.251,1.486c0.396-0.487,1.001-0.783,1.747-0.783h10.682
	c1.339,0,2.264,0.926,2.264,2.268c0,1.326-0.925,2.252-2.264,2.252h-9.233c0.401,0.887,0.93,2.274,1.479,3.932
	c0.823,0.008,1.633,0.013,2.413,0.013c6.888,0,15.88-0.335,19.292-0.751c1.785-0.208,2.439-1.086,2.439-2.667v-2.986
	C111.077,54.528,110.615,53.17,108.989,51.046z M60.037,54.261c-0.306-1.091-0.841-2.038-1.741-3.215l-2.072-2.731
	c-0.59-3.13-1.913-7.266-2.775-9.055c-0.701-1.469-2.024-2.396-4.018-2.651c-1.212-0.144-5.485-0.335-10.778-0.335
	c-5.293,0-9.502,0.192-10.81,0.335c-1.945,0.24-3.284,1.166-3.986,2.651c-0.845,1.789-2.184,5.925-2.774,9.055l-2.073,2.731
	c-1.626,2.124-2.089,3.481-2.089,6.34v2.986c0,1.581,0.654,2.459,2.439,2.667c3.412,0.431,12.42,0.751,19.292,0.751
	c0.78,0,1.59-0.005,2.413-0.013c0.549-1.658,1.078-3.045,1.479-3.932h-9.233c-1.339,0-2.248-0.926-2.248-2.252
	c0-1.341,0.909-2.268,2.248-2.268h10.682c0.739,0,1.344,0.29,1.745,0.768c1.224-0.781,2.663-1.277,4.253-1.471
	C51.376,54.448,55.262,54.311,60.037,54.261z"/>
<path d="M23.731,46.607c0.526-2.38,1.467-5.142,2.104-6.276c0.558-0.974,1.244-1.453,2.455-1.629
	c1.531-0.208,4.974-0.335,10.363-0.335c5.389,0,8.833,0.128,10.363,0.335c1.212,0.176,1.897,0.655,2.455,1.629
	c0.654,1.134,1.579,3.897,2.121,6.276c0.143,0.671-0.127,0.99-0.893,0.942c-3.38-0.24-7.254-0.415-14.046-0.415
	c-6.792,0-10.666,0.176-14.046,0.415C23.842,47.597,23.571,47.277,23.731,46.607z"/>
<path d="M23.81,54.24c-1.786,0-3.141,1.357-3.141,3.146c0,1.805,1.355,3.146,3.141,3.146c1.802,0,3.157-1.341,3.157-3.146
	C26.967,55.598,25.612,54.24,23.81,54.24z"/>
<path d="M74.424,46.607c0.526-2.38,1.467-5.142,2.104-6.276c0.558-0.974,1.244-1.453,2.455-1.629
	c1.531-0.208,4.974-0.335,10.363-0.335c5.389,0,8.833,0.128,10.363,0.335c1.212,0.176,1.897,0.655,2.455,1.629
	c0.654,1.134,1.579,3.897,2.121,6.276c0.143,0.671-0.127,0.99-0.893,0.942c-3.38-0.24-7.254-0.415-14.046-0.415
	c-6.792,0-10.666,0.176-14.046,0.415C74.535,47.597,74.264,47.277,74.424,46.607z"/>
<path d="M107.331,57.386c0,1.805-1.355,3.146-3.141,3.146c-1.802,0-3.157-1.341-3.157-3.146c0-1.789,1.355-3.146,3.157-3.146
	C105.975,54.24,107.331,55.598,107.331,57.386z"/>
<path d="M70.742,81.254H57.258c-1.691,0-2.838,1.169-2.838,2.863c0,1.673,1.147,2.843,2.838,2.843h13.485
	c1.691,0,2.858-1.169,2.858-2.843C73.6,82.423,72.433,81.254,70.742,81.254z"/>
<path d="M45.263,79.883c-2.254,0-3.965,1.714-3.965,3.971c0,2.278,1.711,3.971,3.965,3.971c2.274,0,3.985-1.693,3.985-3.971
	C49.248,81.597,47.537,79.883,45.263,79.883z"/>
<path d="M82.737,79.883c-2.274,0-3.985,1.714-3.985,3.971c0,2.278,1.711,3.971,3.985,3.971c2.254,0,3.965-1.693,3.965-3.971
	C86.702,81.597,84.991,79.883,82.737,79.883z"/>
<path d="M46.269,71.437c4.267-0.302,9.157-0.524,17.731-0.524c8.574,0,13.464,0.222,17.731,0.524
	c0.966,0.06,1.308-0.343,1.127-1.189c-0.684-3.004-1.852-6.491-2.677-7.923c-0.704-1.23-1.57-1.835-3.099-2.056
	C75.15,60.006,70.803,59.845,64,59.845c-6.803,0-11.15,0.161-13.082,0.423c-1.53,0.222-2.395,0.827-3.099,2.056
	c-0.805,1.431-1.992,4.919-2.657,7.923C44.961,71.094,45.303,71.497,46.269,71.437z"/>
<path d="M63.975,128C99.01,128,128,99.01,128,64.025C128,28.99,98.961,0,63.926,0C28.941,0,0,28.99,0,64.025
	C0,99.01,28.99,128,63.975,128z M63.976,120c-14.784,0-28.794-5.869-39.451-16.525C13.869,92.818,8,78.808,8,64.024
	c0-14.81,5.862-28.837,16.505-39.498C35.146,13.869,49.146,8,63.926,8c14.812,0,28.847,5.872,39.521,16.534
	C114.121,35.197,120,49.222,120,64.024c0,14.785-5.87,28.795-16.529,39.449C92.808,114.131,78.781,120,63.976,120z"/>
</svg>
