<?xml version="1.0" encoding="iso-8859-1"?>
<!-- Generator: Adobe Illustrator 27.7.0, SVG Export Plug-In . SVG Version: 6.00 Build 0)  -->
<svg version="1.1" id="Layer_1" xmlns="http://www.w3.org/2000/svg" xmlns:xlink="http://www.w3.org/1999/xlink" x="0px" y="0px"
	 viewBox="0 0 128 128" style="enable-background:new 0 0 128 128;" xml:space="preserve">
<g>
	<path id="Path" style="fill:#EF7622;" d="M18.208,64.984c-0.948,0-1.489,0.475-1.557,2.238c0,1.085-0.609,1.357-1.151,1.357
		c-0.948,0-1.286-0.95-1.286-3.256V62.27c0-1.831,0.068-3.188,1.286-3.188c0.677,0,1.151,0.475,1.151,1.289
		c0,1.289,0.542,1.764,1.557,1.764c0.88,0,1.489-0.543,1.489-1.764s-0.745-3.731-4.264-3.731c-3.723,0-4.4,2.103-4.467,4.952H1.625
		C0.474,61.592,0,62.338,0,63.084c0,0.882,0.474,1.56,1.625,1.56h9.341v0.407c0,3.256,0.406,5.901,4.467,5.901
		c3.588,0,4.264-2.849,4.264-4.206C19.765,65.594,19.156,64.984,18.208,64.984z"/>
	<path id="Path_00000064339062183612940770000005242235393975436428_" style="fill:#EF7622;" d="M21.999,54.741
		c0-1.289,0.609-1.831,1.557-1.831c0.948,0,1.557,0.61,1.557,1.831v3.663h0.068c0.474-1.153,1.692-1.764,2.843-1.764
		c1.692,0,2.911,1.085,2.911,3.392v9.089c0,1.289-0.609,1.831-1.557,1.831s-1.557-0.61-1.557-1.831v-8.343
		c0-1.017-0.542-1.424-1.151-1.424c-0.948,0-1.625,0.746-1.625,2.442v7.326c0,1.289-0.609,1.831-1.557,1.831
		c-0.948,0-1.557-0.61-1.557-1.831v-14.38H21.999z"/>
	<path id="Shape" style="fill:#EF7622;" d="M42.238,67.697c0,0.882,0.203,1.628,0.203,2.035c0,0.814-0.542,1.221-1.557,1.221
		c-0.812,0-1.625-0.407-1.625-1.764h-0.068c-0.542,1.221-1.692,1.696-2.775,1.696c-1.828,0-3.181-1.085-3.181-3.663
		c0-2.035,0.609-3.256,2.166-4.07l2.708-1.424c0.677-0.339,0.948-0.882,0.948-1.424c0-0.746-0.406-1.357-1.151-1.357
		c-1.083,0-1.354,0.543-1.489,1.628c-0.068,0.61-0.677,0.95-1.489,0.95c-0.677,0-1.625-0.339-1.625-1.289
		c0-2.374,1.895-3.595,4.264-3.595c4.061,0,4.535,1.831,4.535,4.002v7.055H42.238z M39.124,63.627l-1.083,0.746
		c-1.354,0.95-1.625,1.424-1.625,2.578c0,1.017,0.406,1.628,1.083,1.628c1.015,0,1.625-1.085,1.625-2.51V63.627z"/>
	<path id="Path_00000182529179459036350760000002533401115700352424_" style="fill:#EF7622;" d="M44.81,58.336
		c0-1.017,0.406-1.628,1.421-1.628c1.015,0,1.421,0.678,1.421,1.628v1.289h0.068c0.474-1.696,1.218-2.917,2.301-2.917
		c0.812,0,1.489,0.61,1.489,1.967c0,0.95-0.474,1.831-1.895,1.831c-0.948,0-1.76,0.678-1.76,1.831v6.715
		c0,1.289-0.609,1.831-1.557,1.831s-1.557-0.61-1.557-1.831V58.336H44.81z"/>
	<path id="Shape_00000134219086090317091930000005857711454454609046_" style="fill:#EF7622;" d="M52.594,61.795
		c0-2.578,0.677-5.087,3.249-5.087c1.151,0,2.369,0.678,2.843,1.831h0.068c0-1.289,0.542-1.831,1.489-1.831
		c0.88,0,1.489,0.61,1.489,1.831v12.888c0,3.12-1.557,4.477-4.603,4.477c-2.301,0-3.994-0.746-3.994-2.51
		c0-0.882,0.677-1.357,1.557-1.357c0.677,0,1.151,0.407,1.354,0.882c0.271,0.61,0.677,0.814,1.083,0.814
		c1.354,0,1.625-0.882,1.625-2.713v-1.899h-0.068c-0.677,1.289-1.421,1.56-2.708,1.56c-2.775,0-3.249-2.51-3.249-5.291v-3.595
		H52.594z M55.843,64.373c0,2.985,0.271,3.799,1.286,3.799c0.745,0,1.489-0.543,1.489-3.324v-2.374c0-2.713-0.88-3.324-1.489-3.324
		c-0.88,0-1.354,0.814-1.354,2.985v2.238H55.843z"/>
	<path id="Shape_00000054949626240704385260000008463575271964794259_" style="fill:#EF7622;" d="M64.169,62.406
		c0-3.459,0.474-5.698,4.671-5.698c3.181,0,4.264,1.764,4.264,5.359c0,1.221-0.135,2.171-1.692,2.171h-3.994v1.357
		c0,1.628,0.135,2.917,1.354,2.917c0.677,0,1.151-0.678,1.151-1.424c0.068-1.357,0.677-1.628,1.489-1.628
		c0.88,0,1.557,0.271,1.557,1.492c0,2.442-1.692,3.934-4.197,3.934c-4.197,0-4.671-2.238-4.671-5.698v-2.781H64.169z M69.99,62.067
		v-1.153c0-1.017-0.338-1.831-1.354-1.831s-1.354,0.814-1.354,1.831v1.153H69.99z"/>
	<path id="Shape_00000143598088701313107130000012296898384181350295_" style="fill:#7C98AB;" d="M75.338,58.54
		c0-1.289,0.609-1.831,1.557-1.831c0.948,0,1.557,0.61,1.557,1.831h0.068c0.542-1.153,1.625-1.831,2.708-1.831
		c2.775,0,3.249,2.51,3.249,5.291v3.663c0,2.781-0.474,5.291-3.249,5.291c-1.151,0-2.166-0.475-2.708-1.56h-0.068v3.866
		c0,1.289-0.609,1.831-1.557,1.831c-0.948,0-1.557-0.61-1.557-1.831V58.54z M78.452,65.255c0,1.967,0.338,3.324,1.557,3.324
		c1.151,0,1.286-1.289,1.286-3.595v-1.899c0-2.985-0.271-3.799-1.286-3.799c-0.745,0-1.489,0.543-1.489,3.324v2.645H78.452z"/>
	<path id="Shape_00000147193428882071157010000007757842444525205121_" style="fill:#7C98AB;" d="M86.439,61.999
		c0-2.917,0.948-5.291,4.603-5.291c3.655,0,4.603,2.374,4.603,5.291v3.731c0,2.917-0.948,5.291-4.603,5.291
		c-3.655,0-4.603-2.374-4.603-5.291V61.999z M89.688,65.458c0,2.51,0.406,3.12,1.421,3.12c1.015,0,1.421-0.61,1.421-3.12v-3.256
		c0-2.442-0.474-3.052-1.421-3.052c-0.88,0-1.421,0.61-1.421,3.052V65.458z"/>
	<path id="Path_00000150104731376700111920000010445668619416707467_" style="fill:#7C98AB;" d="M98.149,58.54
		c0-1.289,0.609-1.831,1.557-1.831c0.948,0,1.557,0.61,1.557,1.831v10.582c0,1.289-0.609,1.831-1.557,1.831
		c-0.948,0-1.557-0.61-1.557-1.831V58.54z"/>
	<path id="Path_00000064313527972148372600000004122388592335281026_" style="fill:#7C98AB;" d="M126.172,61.66h-4.603v-3.527
		c0-1.017-0.609-1.764-1.489-1.764s-1.489,0.746-1.489,1.764v3.459h-5.618v-1.56c0-2.306-1.218-3.392-2.911-3.392
		c-1.151,0-2.369,0.61-2.843,1.764h-0.068c0-1.153-0.609-1.764-1.557-1.764c-0.948,0-1.557,0.61-1.557,1.831v10.582
		c0,1.289,0.609,1.831,1.557,1.831c0.948,0,1.557-0.61,1.557-1.831v-7.258c0-1.696,0.609-2.442,1.625-2.442
		c0.677,0,1.151,0.407,1.151,1.424v8.343c0,1.289,0.609,1.831,1.557,1.831c0.948,0,1.557-0.61,1.557-1.831v-4.477h5.618v4.613
		c0,1.017,0.609,1.764,1.489,1.764c0.88,0,1.489-0.746,1.489-1.764v-4.613h4.603c1.083,0,1.76-0.61,1.76-1.492
		C127.932,62.27,127.255,61.66,126.172,61.66z"/>
	<path id="Path_00000066504977910439328270000011696235372650152617_" style="fill:#7C98AB;" d="M99.706,52.096
		c0.948,0,1.76,0.814,1.76,1.764s-0.812,1.764-1.76,1.764c-0.948,0-1.76-0.814-1.76-1.764
		C97.946,52.842,98.691,52.096,99.706,52.096z"/>
	<g>
		<path style="fill:#7C98AB;" d="M128,69.201c0,0.273-0.05,0.522-0.15,0.746c-0.1,0.224-0.235,0.416-0.406,0.576
			c-0.171,0.159-0.369,0.283-0.594,0.37c-0.225,0.088-0.461,0.132-0.708,0.132c-0.274,0-0.525-0.046-0.754-0.139
			c-0.228-0.093-0.425-0.22-0.589-0.383c-0.164-0.162-0.293-0.355-0.385-0.578c-0.094-0.223-0.14-0.464-0.14-0.725
			c0-0.273,0.05-0.522,0.15-0.746c0.1-0.224,0.235-0.416,0.406-0.576c0.171-0.159,0.37-0.283,0.597-0.37
			c0.226-0.088,0.465-0.132,0.716-0.132c0.247,0,0.483,0.044,0.708,0.132c0.225,0.087,0.423,0.211,0.594,0.37
			c0.171,0.16,0.306,0.352,0.406,0.576C127.95,68.679,128,68.928,128,69.201z M127.594,69.201c0-0.221-0.037-0.425-0.112-0.609
			c-0.074-0.185-0.178-0.345-0.31-0.478c-0.132-0.133-0.286-0.236-0.462-0.31c-0.176-0.073-0.366-0.109-0.569-0.109
			c-0.207,0-0.398,0.036-0.576,0.109c-0.178,0.074-0.332,0.177-0.465,0.31c-0.132,0.133-0.235,0.293-0.31,0.478
			c-0.074,0.185-0.112,0.388-0.112,0.609c0,0.208,0.034,0.403,0.101,0.585c0.068,0.182,0.165,0.341,0.292,0.478
			c0.127,0.137,0.28,0.245,0.459,0.325s0.383,0.12,0.609,0.12c0.203,0,0.392-0.037,0.569-0.11c0.176-0.074,0.33-0.176,0.462-0.31
			c0.132-0.133,0.235-0.291,0.31-0.476C127.557,69.63,127.594,69.426,127.594,69.201z M125.767,70.245h-0.345v-2.019h0.797
			c0.254,0,0.445,0.046,0.574,0.136c0.128,0.091,0.192,0.239,0.192,0.444c0,0.182-0.052,0.315-0.157,0.399
			c-0.105,0.085-0.235,0.135-0.391,0.152l0.589,0.887h-0.391l-0.543-0.863h-0.325V70.245z M126.153,69.099
			c0.064,0,0.125-0.002,0.185-0.007c0.059-0.005,0.111-0.019,0.155-0.041c0.044-0.023,0.079-0.054,0.107-0.095
			c0.027-0.04,0.041-0.098,0.041-0.173c0-0.062-0.014-0.111-0.043-0.146c-0.029-0.036-0.065-0.064-0.109-0.083
			c-0.044-0.02-0.093-0.032-0.148-0.037c-0.054-0.005-0.107-0.007-0.157-0.007h-0.416v0.59H126.153z"/>
	</g>
</g>
</svg>
