<?xml version="1.0" encoding="UTF-8"?>
<svg id="Layer_4" data-name="Layer 4" xmlns="http://www.w3.org/2000/svg" viewBox="0 0 128 23.74">
  <defs>
    <style>
      .cls-1 {
        fill: #f58025;
      }

      .cls-2 {
        fill: #80a1b6;
      }
    </style>
  </defs>
  <path class="cls-1" d="m18.25,12.86c-.98,0-1.48.48-1.56,2.21-.02,1.08-.58,1.38-1.16,1.38-.98,0-1.31-.95-1.31-3.22v-3.02c0-1.81.08-3.19,1.31-3.19.65,0,1.16.45,1.16,1.31,0,1.26.53,1.73,1.56,1.73.85,0,1.51-.53,1.51-1.73s-.73-3.72-4.25-3.72c-3.69,0-4.38,2.13-4.48,4.94H1.64c-1.14,0-1.64.71-1.64,1.51s.5,1.51,1.64,1.51h9.37v.42c0,3.27.4,5.88,4.5,5.88,3.62,0,4.25-2.87,4.25-4.22,0-1.13-.6-1.78-1.51-1.78Z"/>
  <path class="cls-1" d="m22.02,2.69c0-1.26.6-1.83,1.53-1.83s1.53.58,1.53,1.83v3.68h.05c.5-1.18,1.68-1.76,2.86-1.76,1.71,0,2.94,1.06,2.94,3.37v9.05c0,1.26-.6,1.83-1.53,1.83s-1.53-.58-1.53-1.83v-8.32c0-1.01-.53-1.43-1.18-1.43-.98,0-1.61.73-1.61,2.44v7.31c0,1.26-.6,1.83-1.53,1.83s-1.53-.58-1.53-1.83V2.69Z"/>
  <path class="cls-1" d="m42.23,15.63c0,.88.18,1.61.18,2.04,0,.8-.55,1.21-1.53,1.21-.83,0-1.61-.4-1.61-1.73l-.05.02c-.55,1.23-1.68,1.71-2.79,1.71-1.81,0-3.17-1.08-3.17-3.64,0-2.06.58-3.24,2.19-4.1l2.74-1.43c.68-.35.98-.85.98-1.43,0-.73-.4-1.36-1.18-1.36-1.06,0-1.38.53-1.51,1.61-.08.6-.65.98-1.46.98-.68,0-1.61-.33-1.61-1.26,0-2.36,1.91-3.62,4.27-3.62,4.1,0,4.55,1.81,4.55,4.02v6.99Zm-3.07-4.12l-1.08.75c-1.36.96-1.61,1.43-1.61,2.59,0,1.03.43,1.61,1.08,1.61,1.01,0,1.61-1.11,1.61-2.54v-2.41Z"/>
  <path class="cls-1" d="m44.82,6.28c0-1.01.43-1.66,1.43-1.66s1.43.65,1.43,1.66v1.28h.05c.45-1.71,1.23-2.94,2.29-2.94.83,0,1.51.6,1.51,1.99,0,.93-.48,1.83-1.91,1.83-.95,0-1.73.65-1.73,1.86v6.74c0,1.26-.6,1.83-1.53,1.83s-1.53-.58-1.53-1.83V6.28Z"/>
  <path class="cls-1" d="m52.63,9.72c0-2.59.68-5.1,3.27-5.1,1.18,0,2.34.65,2.82,1.83h.05c0-1.26.55-1.83,1.51-1.83.85,0,1.46.58,1.46,1.83v12.84c0,3.09-1.53,4.45-4.6,4.45-2.29,0-4.02-.76-4.02-2.54,0-.85.65-1.36,1.53-1.36.7,0,1.16.43,1.36.9.25.6.68.83,1.06.83,1.33,0,1.61-.85,1.61-2.69v-1.89h-.05c-.7,1.26-1.41,1.53-2.71,1.53-2.77,0-3.27-2.51-3.27-5.3v-3.52Zm3.22,2.59c0,2.99.28,3.82,1.31,3.82.73,0,1.51-.55,1.51-3.29v-2.39c0-2.74-.88-3.29-1.46-3.29-.85,0-1.36.78-1.36,2.99v2.16Z"/>
  <path class="cls-1" d="m64.17,10.32c0-3.47.5-5.71,4.67-5.71,3.19,0,4.27,1.78,4.27,5.35,0,1.23-.15,2.19-1.71,2.19h-4.02v1.38c0,1.63.13,2.92,1.38,2.92.65,0,1.16-.68,1.18-1.41.05-1.33.65-1.63,1.51-1.63.91,0,1.56.3,1.56,1.51,0,2.46-1.68,3.95-4.17,3.95-4.17,0-4.67-2.24-4.67-5.71v-2.84Zm5.88-.33v-1.13c0-1.03-.33-1.83-1.33-1.83s-1.33.8-1.33,1.83v1.13h2.66Z"/>
  <path class="cls-2" d="m75.41,6.45c0-1.26.6-1.83,1.53-1.83s1.53.58,1.53,1.83h.05c.53-1.18,1.66-1.83,2.71-1.83,2.77,0,3.27,2.51,3.27,5.3v3.64c0,2.79-.5,5.3-3.27,5.3-1.16,0-2.16-.5-2.71-1.53h-.05v3.84c0,1.26-.6,1.84-1.53,1.84s-1.53-.58-1.53-1.84V6.45Zm3.07,6.69c0,1.94.33,3.32,1.53,3.32,1.13,0,1.28-1.31,1.28-3.57v-1.91c0-2.99-.28-3.82-1.31-3.82-.73,0-1.51.55-1.51,3.29v2.69Z"/>
  <path class="cls-2" d="m86.52,9.9c0-2.92.95-5.28,4.63-5.28s4.62,2.36,4.62,5.28v3.69c0,2.92-.95,5.28-4.62,5.28s-4.63-2.36-4.63-5.28v-3.69Zm3.22,3.44c0,2.51.4,3.12,1.41,3.12s1.41-.6,1.41-3.12v-3.24c0-2.46-.5-3.07-1.41-3.07s-1.41.6-1.41,3.07v3.24Z"/>
  <path class="cls-2" d="m98.21,6.45c0-1.26.6-1.83,1.53-1.83s1.53.58,1.53,1.83v10.58c0,1.26-.6,1.83-1.53,1.83s-1.53-.58-1.53-1.83V6.45Z"/>
  <path class="cls-2" d="m126.24,9.55h-4.59v-3.48c0-1.03-.58-1.76-1.51-1.76s-1.51.73-1.51,1.76v3.48h-5.61v-1.57c0-2.31-1.23-3.37-2.94-3.37-1.18,0-2.36.58-2.87,1.76h-.05c0-1.18-.6-1.76-1.53-1.76s-1.53.58-1.53,1.83v10.58c0,1.26.6,1.83,1.53,1.83s1.53-.58,1.53-1.83v-7.31c0-1.71.63-2.44,1.61-2.44.65,0,1.18.43,1.18,1.43v8.32c0,1.26.6,1.83,1.53,1.83s1.53-.58,1.53-1.83v-4.47h5.61v4.58c0,1.03.58,1.76,1.51,1.76s1.51-.73,1.51-1.76v-4.58h4.59c1.06,0,1.76-.6,1.76-1.51s-.7-1.51-1.76-1.51Z"/>
  <path class="cls-2" d="m99.74,0c.98,0,1.76.78,1.76,1.76s-.78,1.76-1.76,1.76-1.76-.78-1.76-1.76.78-1.76,1.76-1.76Z"/>
  <path class="cls-2" d="m124.68,17.17v-.06c0-.99.71-1.8,1.66-1.8s1.66.8,1.66,1.79v.06c0,.99-.72,1.8-1.66,1.8s-1.66-.8-1.66-1.79Zm3.1-.01v-.06c0-.88-.6-1.59-1.44-1.59s-1.45.72-1.45,1.6v.06c0,.88.6,1.59,1.45,1.59s1.44-.71,1.44-1.6Zm-2.07-1h.7c.39,0,.67.22.67.6,0,.3-.17.48-.39.56l.46.72h-.38l-.4-.66h-.32v.66h-.33v-1.88Zm.67.94c.24,0,.37-.12.37-.32,0-.22-.14-.32-.37-.32h-.34v.64h.34Z"/>
</svg>