<?xml version="1.0" encoding="iso-8859-1"?>
<!-- Generator: Adobe Illustrator 27.7.0, SVG Export Plug-In . SVG Version: 6.00 Build 0)  -->
<svg version="1.1" id="Layer_1" xmlns="http://www.w3.org/2000/svg" xmlns:xlink="http://www.w3.org/1999/xlink" x="0px" y="0px"
	 viewBox="0 0 128 128" style="enable-background:new 0 0 128 128;" xml:space="preserve">
<g>
	<path style="fill:#C0CC32;" d="M82.477,2.877C70.415-1.106,55.849-0.935,44.184,3.275c-18.777,6.771-33.4,23.841-37.155,43.243
		c-1.024,5.519-1.024,17.752,0.057,22.816c4.893,23.272,22.589,40.853,45.804,45.405c2.333,0.455,6.373,0.967,8.99,1.195
		l4.666,0.341v2.731c0,1.536,0.284,2.902,0.683,3.186c0.398,0.228,4.552,1.65,9.275,3.073c4.666,1.479,9.331,2.674,10.356,2.731
		c1.935,0.057,3.016-1.081,3.016-3.3c0-1.081,0.341-1.195,4.154-1.195c5.064,0,6.543-0.398,6.942-1.821
		c0.683-2.105-0.626-2.731-6.031-2.731h-5.064v-9.673h5.064c5.405,0,6.714-0.626,6.031-2.845c-0.341-1.024-0.797-1.138-5.747-1.138
		c-5.292,0-5.348,0-5.348-1.366c0-1.991-0.569-3.129-1.764-3.755c-0.74-0.455-3.414,0.171-10.583,2.333
		c-5.235,1.65-9.9,3.186-10.242,3.528c-0.455,0.284-0.74,1.764-0.74,3.414v2.845l-6.088-0.341
		c-20.597-1.024-39.374-14.68-46.999-33.969c-3.016-7.681-3.471-10.469-3.471-20.199c0-8.307,0.114-9.559,1.593-14.509
		c5.69-19.289,20.711-33.741,39.943-38.521c5.747-1.422,19.061-1.366,24.694,0.057c9.9,2.504,17.525,6.657,24.751,13.485
		c9.844,9.331,16.444,22.816,16.899,34.367l0.171,3.983l-7.511,0.171l-7.511,0.171l-1.479-2.845
		c-1.707-3.471-1.764-3.642-0.171-4.324c0.683-0.341,1.309-0.797,1.422-1.138c0.114-0.284-2.219-1.422-5.121-2.447
		c-2.845-1.081-6.942-2.504-8.99-3.3c-1.257-0.455-2.964-0.91-4.518-1.218c-11.846-2.686-17.428-0.313-22.458,0.899l-0.011,0.028
		c-3.05,0.859-9.132,3.807-13.235,6.492c-2.902,1.935-4.723,2.617-7.795,3.186c-2.162,0.341-5.235,0.967-6.828,1.366
		c-0.956,0.216-3.198,0.734-3.795,1.013c0,0,0,0-0.011,0c-1.4,0.427-4.615,3.664-5.36,5.468c-0.455,0.967-1.024,1.935-1.366,2.162
		c-0.74,0.455-0.74,5.804-0.057,6.259c0.284,0.171,1.707,0.512,3.129,0.797l2.617,0.455v-1.65c0.074-4.853,4.114-9.144,9.4-9.144
		c5.576,0,9.422,4.541,9.422,9.349l-0.04,1.383h37.331c-0.085-2.287,0.125-5.349,2.344-7.733c2.634-2.828,6.447-3.442,9.889-2.549
		c3.033,0.785,6.708,4.717,6.532,8.802c0.455-0.569,1.189-3.124,1.018-3.92c-0.171-0.797-0.398-2.048-0.569-2.731l-0.228-1.309
		h17.639v-4.097c0-23.499-16.444-45.747-39.26-53.371L82.477,2.877z M33.203,56.248c-1.65,2.39-8.193,5.747-8.193,4.211
		c0-0.91,2.475-3.459,4.211-4.723c0.905-0.66,2.441-1.218,2.794-1.218c0.353,0,0.711,0.119,0.933,0.205
		C33.874,55.088,34.113,54.997,33.203,56.248z M70.415,53.631c-1.479,0.512-5.576,0.512-5.576-0.057c0-0.74,1.479-1.195,4.04-1.195
		C70.984,52.379,71.894,53.119,70.415,53.631z M72.861,45.381c-0.341,2.333-0.74,4.495-0.91,4.723
		c-0.171,0.228-23.374,2.464-25.246,2.589c-0.569,0.04-1.121,0.057-1.212-0.057c-0.211-0.256,0.996-0.927,4.364-3.147
		c4.489-2.993,7.431-4.41,11.63-5.923c4.523-1.235,7.772-2.1,12.063-2.145c-0.182,0.552-0.256,1.092-0.683,3.96L72.861,45.381z
		 M92.662,51.469c-0.455,0.114-1.878,0.398-3.186,0.569c-1.878,0.284-2.447,0.171-2.447-0.455c0-0.91,5.121-1.707,5.917-0.91
		C93.288,51.014,93.174,51.298,92.662,51.469L92.662,51.469z M93.231,48.055c-0.171,0.171-15.932,1.844-18.595,1.815
		c0.057-0.734,0.222-2.839,0.33-3.863c0.233-2.219,0.461-3.431,0.728-4.586c2.327,0.085,4.967,0.523,7.778,1.138
		C88.162,44.066,94.159,47.127,93.231,48.055z"/>
	<path style="fill:#C0CC32;" d="M38.392,75.44c-4.091,0-7.414-3.317-7.414-7.414s3.317-7.414,7.414-7.414s7.414,3.317,7.414,7.414
		S42.489,75.44,38.392,75.44z M42.42,68.026c0-2.225-1.804-4.028-4.028-4.028c-2.225,0-4.028,1.804-4.028,4.028
		c0,2.225,1.804,4.028,4.028,4.028C40.617,72.055,42.42,70.251,42.42,68.026z"/>
	<path style="fill:#C0CC32;" d="M38.392,71.247c-1.775,0-3.215-1.44-3.215-3.215c0-1.775,1.44-3.215,3.215-3.215
		s3.215,1.44,3.215,3.215C41.607,69.807,40.167,71.247,38.392,71.247z M38.392,65.79c-0.296,0-0.535,0.239-0.535,0.535
		s0.239,0.535,0.535,0.535c0.296,0,0.535-0.239,0.535-0.535S38.688,65.79,38.392,65.79z M38.392,69.204
		c-0.296,0-0.535,0.239-0.535,0.535c0,0.296,0.239,0.535,0.535,0.535c0.296,0,0.535-0.239,0.535-0.535
		C38.927,69.443,38.688,69.204,38.392,69.204z M36.15,68.032c0,0.296,0.239,0.535,0.535,0.535s0.535-0.239,0.535-0.535
		s-0.239-0.535-0.535-0.535S36.15,67.736,36.15,68.032z M39.564,68.032c0,0.296,0.239,0.535,0.535,0.535s0.535-0.239,0.535-0.535
		s-0.239-0.535-0.535-0.535S39.564,67.736,39.564,68.032z"/>
	<path style="fill:#C0CC32;" d="M94.449,75.44c-4.091,0-7.414-3.317-7.414-7.414s3.317-7.414,7.414-7.414
		c4.097,0,7.414,3.317,7.414,7.414S98.546,75.44,94.449,75.44z M98.477,68.026c0-2.225-1.804-4.028-4.028-4.028
		c-2.225,0-4.028,1.804-4.028,4.028c0,2.225,1.804,4.028,4.028,4.028C96.674,72.055,98.477,70.251,98.477,68.026z"/>
	<path style="fill:#C0CC32;" d="M94.449,71.247c-1.775,0-3.215-1.44-3.215-3.215c0-1.775,1.44-3.215,3.215-3.215
		s3.215,1.44,3.215,3.215C97.664,69.807,96.224,71.247,94.449,71.247z M94.449,65.79c-0.296,0-0.535,0.239-0.535,0.535
		s0.239,0.535,0.535,0.535c0.296,0,0.535-0.239,0.535-0.535S94.745,65.79,94.449,65.79z M94.449,69.204
		c-0.296,0-0.535,0.239-0.535,0.535c0,0.296,0.239,0.535,0.535,0.535c0.296,0,0.535-0.239,0.535-0.535
		C94.984,69.443,94.745,69.204,94.449,69.204z M92.207,68.032c0,0.296,0.239,0.535,0.535,0.535c0.296,0,0.535-0.239,0.535-0.535
		s-0.239-0.535-0.535-0.535C92.446,67.497,92.207,67.736,92.207,68.032z M95.621,68.032c0,0.296,0.239,0.535,0.535,0.535
		c0.296,0,0.535-0.239,0.535-0.535s-0.239-0.535-0.535-0.535C95.86,67.497,95.621,67.736,95.621,68.032z"/>
	<g>
		<path style="stroke:#000000;stroke-width:0.75;stroke-miterlimit:10;" d="M62.779,40.982c-0.205-0.205,0.233-24.962,0.438-25.656
			c0.176-0.552,0.404-0.637,1.855-0.637c2.208,0,3.511,0.694,4.353,2.321c1.104,2.179,0.58,6.065-1.075,8.125
			c-0.495,0.609-0.899,1.218-0.899,1.309c0,0.114,0.319,0.58,0.666,1.018c0.899,1.047,1.309,3.312,1.422,7.835l0.085,3.63h-0.728
			c-0.486,0-0.785-1.18-0.899-3.539c-0.262-4.7-0.467-6.009-1.161-6.879c-0.637-0.814-2.208-1.047-2.441-0.376
			c-0.057,0.176-0.205,3.192-0.29,6.674c-0.205,5.69-0.262,6.299-0.694,6.299c-0.29,0-0.58-0.057-0.637-0.114l0,0L62.779,40.982z
			 M65.999,25.278c1.422-0.757,2.145-2.526,2.179-5.28c0-2.117-0.085-2.441-0.728-3.135c-0.523-0.552-0.927-0.728-1.599-0.666
			c-0.842,0.085-0.871,0.148-1.047,1.826c-0.262,2.378-0.29,7.255-0.057,7.488c0.262,0.262,0.29,0.262,1.246-0.233l0,0H65.999z"/>
		<path style="stroke:#000000;stroke-width:0.75;stroke-miterlimit:10;" d="M39.672,40.345c-0.29-0.785,0.114-25.69,0.438-26.009
			c0.205-0.205,0.467-0.176,0.842,0c0.495,0.29,0.523,0.814,0.523,7.516v7.198l2.265,0.085c1.218,0.057,2.265,0.057,2.293,0
			s0.114-3.425,0.205-7.488l0.176-7.403h1.451L47.78,26.729c-0.057,6.879-0.176,12.774-0.262,13.149
			c-0.085,0.347-0.319,0.637-0.523,0.637c-0.58,0-0.728-1.018-0.728-5.371c0-2.236-0.114-4.239-0.262-4.438
			c-0.148-0.262-0.871-0.347-2.526-0.29l-2.293,0.085l-0.148,5.081c-0.114,4.529-0.205,5.081-0.666,5.166
			c-0.262,0.057-0.58-0.114-0.694-0.404l0,0L39.672,40.345z"/>
		<path style="stroke:#000000;stroke-width:0.75;stroke-miterlimit:10;" d="M59.206,39.156c-0.085-0.609-0.233-1.826-0.319-2.697
			c-0.319-2.76-0.148-2.612-3.05-2.612c-2.902,0-2.731-0.176-3.078,3.164c-0.233,2.031-0.467,2.498-1.132,2.236
			c-0.404-0.148-0.467-0.404-0.347-1.275c0.085-0.58,0.899-6.151,1.798-12.364c0.899-6.213,1.741-11.522,1.917-11.841
			c0.376-0.694,1.018-0.666,1.536,0.148c1.161,1.798,4.586,24.614,3.892,25.889c-0.467,0.785-1.047,0.467-1.218-0.637l0,0
			L59.206,39.156z M58.159,31.463c0-0.376-0.148-1.451-0.29-2.407c-0.176-0.956-0.495-3.164-0.728-4.933
			c-0.728-5.195-1.047-7.112-1.275-7.112c-0.114,0-0.376,1.479-0.58,3.277c-0.205,1.77-0.552,4.558-0.757,6.151
			c-0.205,1.599-0.467,3.511-0.552,4.296L53.8,32.1h2.179C58.039,32.1,58.159,32.072,58.159,31.463z"/>
		<path style="stroke:#000000;stroke-width:0.75;stroke-miterlimit:10;" d="M86.375,39.736c-0.114-0.29-0.205-5.69-0.205-11.989
			V16.282h3.192c2.987,0,3.192,0.028,3.192,0.58c0,0.523-0.233,0.58-2.526,0.666l-2.555,0.085v11.061l2.321-0.205
			c2.031-0.176,2.321-0.148,2.321,0.262c0,0.58-0.785,0.899-2.788,1.189l-1.479,0.205l-0.205,1.479
			c-0.085,0.842-0.176,2.873-0.176,4.529v3.021l2.731-0.205c2.321-0.176,2.731-0.148,2.902,0.262
			c0.262,0.694-0.956,1.018-3.92,1.018c-2.208,0-2.64-0.085-2.816-0.495l0,0L86.375,39.736z"/>
		<path style="stroke:#000000;stroke-width:0.75;stroke-miterlimit:10;" d="M76.218,39.156c-2.236-1.104-3.312-4.762-3.312-11.26
			c0-8.097,1.684-12.017,5.343-12.512c1.855-0.262,4.006,0.694,4.006,1.741c0,0.956-0.523,0.956-1.917,0.028
			c-1.599-1.075-2.873-0.871-4.119,0.728c-1.218,1.565-1.599,3.397-1.741,8.415c-0.205,8.302,0.956,11.898,3.92,11.898
			c1.713,0,2.555-2.06,2.873-7.198c0.205-2.788,0.176-2.902-0.467-3.249c-0.347-0.176-1.047-0.262-1.565-0.176
			c-1.075,0.205-1.77-0.176-1.536-0.814c0.148-0.347,0.609-0.467,2.088-0.467c2.109,0,3.086,1.441,2.93,4.324
			c-0.29,5.57-1.075,7.835-2.987,8.62c-1.218,0.523-2.321,0.495-3.511-0.085l0,0L76.218,39.156z"/>
		<path style="stroke:#000000;stroke-width:0.75;stroke-miterlimit:10;" d="M33.925,38.718c-3.482-1.218-5.195-4.848-5.166-10.97
			c0.028-3.078,0.148-3.977,0.785-5.952c1.246-3.92,2.816-5.832,5.343-6.532c1.075-0.262,1.394-0.262,1.974,0.148
			c0.376,0.233,0.694,0.58,0.694,0.728c0,0.467-1.075,0.871-2.265,0.871c-1.479,0-2.441,0.785-3.34,2.697
			c-1.189,2.498-1.508,4.41-1.479,8.478c0,4.472,0.552,6.299,2.441,8.125c1.018,1.018,1.337,1.132,2.902,1.246
			c1.855,0.148,2.293,0.404,1.741,1.075C37.152,39.127,35.234,39.184,33.925,38.718L33.925,38.718z"/>
	</g>
	<g>
		<g>
			<path style="stroke:#000000;stroke-width:0.75;stroke-miterlimit:10;" d="M47.16,94.308l0.205-6.617l-2.06-5.485
				c-1.132-3.05-2.003-5.605-1.917-5.747c0.233-0.347,1.161-0.29,1.508,0.148c0.148,0.176,0.757,1.855,1.337,3.687
				c1.565,5.138,1.713,5.514,1.974,5.514c0.29,0,1.656-2.76,2.816-5.804c0.552-1.366,1.075-2.669,1.189-2.902
				c0.262-0.552,1.741-0.757,1.741-0.233c0,0.205-0.814,2.003-1.77,4.006c-2.845,5.804-3.05,6.56-3.277,11.027
				c-0.085,2.145-0.262,5.053-0.347,6.475c-0.176,2.407-0.233,2.526-0.899,2.526h-0.694l0.205-6.589l0,0L47.16,94.308z"/>
			<path style="stroke:#000000;stroke-width:0.75;stroke-miterlimit:10;" d="M40.11,99.822c-0.29-0.114-0.376-1.394-0.376-5.11
				c0-6.413-0.319-15.004-0.58-15.004c-0.085,0-0.609,1.075-1.132,2.407c-2.697,6.703-2.669,6.589-3.368,6.589
				c-0.376,0-0.757-0.114-0.871-0.262c-0.085-0.148-0.609-1.826-1.189-3.716c-0.58-1.889-1.189-3.687-1.366-4.006
				c-0.29-0.523-0.347-0.438-0.523,0.728c-0.114,0.728-0.233,3.858-0.233,6.964c-0.028,3.107-0.114,6.731-0.233,8.068
				c-0.176,2.236-0.205,2.378-0.842,2.378h-0.637l0.148-11.67c0.114-9.377,0.233-11.784,0.552-12.131
				c0.666-0.666,0.984-0.085,3.05,5.57c1.047,2.902,2.06,5.343,2.208,5.371c0.262,0.085,1.451-2.731,3.135-7.459
				c1.275-3.659,1.508-4.063,2.265-4.063h0.694l0.176,7.198c0.114,3.949,0.205,9.61,0.205,12.569c0,5.514-0.085,5.923-1.075,5.57
				L40.11,99.822z"/>
		</g>
		<g>
			<path style="stroke:#000000;stroke-width:0.75;stroke-miterlimit:10;" d="M79.9,100.169c-0.233-0.552,0.148-20.29,0.438-23.653
				l0.176-2.179l1.599-0.085c1.946-0.085,3.34,0.552,4.296,1.974c0.637,0.927,0.666,1.246,0.58,3.482
				c-0.148,2.669-0.637,4.091-1.889,5.371c-0.694,0.666-0.728,0.785-0.319,1.246c1.161,1.309,1.479,2.498,1.713,6.589
				c0.347,6.037,0.376,5.661-0.467,5.661c-0.552,0-0.728-0.148-0.728-0.637c-0.028-0.376-0.148-2.441-0.262-4.615
				c-0.319-5.053-0.785-6.065-2.816-6.065c-0.467,0-0.694,0.176-0.728,0.523c-0.028,0.262-0.148,3.22-0.233,6.589
				c-0.148,5.485-0.233,6.094-0.694,6.185c-0.262,0.057-0.58-0.114-0.666-0.376l0,0L79.9,100.169z M83.701,84.265
				c0.984-0.984,1.479-2.293,1.798-4.586c0.29-2.378-1.189-4.324-3.021-3.977c-0.467,0.085-0.552,0.552-0.757,4.41
				c-0.148,2.378-0.176,4.501-0.085,4.7c0.262,0.666,1.047,0.467,2.06-0.552L83.701,84.265z"/>
			<path style="stroke:#000000;stroke-width:0.75;stroke-miterlimit:10;" d="M63.416,99.418c-0.495-0.438-0.927-1.275-1.189-2.293
				c-0.495-1.889-0.347-2.669,0.523-2.555c0.467,0.057,0.666,0.404,0.927,1.684c0.376,1.974,0.58,2.321,1.422,2.321
				c1.684,0,2.64-2.612,2.236-6.122c-0.29-2.583-0.694-3.568-2.669-6.646c-1.974-3.078-2.873-5.28-2.873-7.112
				c0-1.832,0.842-3.687,1.855-4.353c1.366-0.899,3.892-0.057,4.728,1.599c0.694,1.394-0.637,2.088-1.394,0.694
				c-0.871-1.627-2.583-1.451-3.34,0.319c-0.927,2.236-0.376,4.148,2.293,8.068c2.145,3.164,2.788,4.762,3.021,7.664
				c0.205,2.669-0.262,4.381-1.627,5.923c-1.366,1.508-2.76,1.798-3.92,0.814l0,0L63.416,99.418z"/>
			<path style="stroke:#000000;stroke-width:0.75;stroke-miterlimit:10;" d="M90.961,99.418c-0.319-0.467-0.637-22.697-0.347-23.277
				c0.205-0.467,0.609-0.495,3.34-0.438c2.873,0.085,3.107,0.114,3.107,0.666c0,0.523-0.233,0.58-2.526,0.666l-2.555,0.085v11.09
				l2.321-0.205c2.003-0.176,2.321-0.148,2.321,0.262c0,0.552-0.785,0.871-2.788,1.132l-1.479,0.205l-0.205,4.239
				c-0.085,2.293-0.085,4.324,0,4.501c0.114,0.205,1.075,0.233,2.731,0.114c2.179-0.176,2.555-0.148,2.697,0.262
				c0.148,0.319-0.028,0.552-0.552,0.728C96.008,99.85,91.194,99.822,90.961,99.418z"/>
			<path style="stroke:#000000;stroke-width:0.75;stroke-miterlimit:10;" d="M101.669,99.503
				c-0.467-0.319-0.814-23.044-0.347-23.511c0.376-0.376,5.314-0.495,6.151-0.176c0.609,0.233,0.609,0.871,0,1.104
				c-0.262,0.085-1.479,0.176-2.76,0.176h-2.321l0.176,5.314c0.114,2.902,0.233,5.428,0.29,5.605
				c0.057,0.233,0.495,0.262,1.366,0.085c2.031-0.376,3.135-0.319,3.135,0.176c0,0.552-0.871,0.899-2.987,1.161l-1.656,0.205v8.996
				l2.669-0.114c2.293-0.085,2.697-0.028,2.788,0.376c0.057,0.29-0.176,0.552-0.58,0.666c-0.927,0.233-5.542,0.205-5.923-0.057l0,0
				L101.669,99.503z"/>
			<path style="stroke:#000000;stroke-width:0.75;stroke-miterlimit:10;" d="M73.601,94.046c-0.114-1.713-0.205-4.615-0.205-6.475
				c0-1.861-0.085-5.223-0.205-7.488l-0.176-4.148h-1.366c-1.565,0-1.826-0.176-1.422-0.899c0.233-0.495,0.637-0.552,3.249-0.552
				c3.511,0,4.267,0.176,4.267,0.899c0,0.467-0.233,0.552-1.627,0.552H74.46l0.262,8.939c0.347,12.945,0.376,12.074-0.347,12.193
				c-0.58,0.085-0.609-0.085-0.785-3.021L73.601,94.046z"/>
			<path style="stroke:#000000;stroke-width:0.75;stroke-miterlimit:10;" d="M114.21,94.45c-0.085-1.479-0.233-5.428-0.319-8.797
				c-0.085-3.34-0.233-6.908-0.319-7.898l-0.176-1.826h-1.422c-1.189,0-1.422-0.085-1.422-0.552c0-0.785,0.523-0.899,3.892-0.899
				c2.031,0,3.135,0.114,3.511,0.376c0.842,0.637,0.233,1.075-1.508,1.075h-1.627l0.176,2.117c0.114,1.132,0.29,5.923,0.376,10.595
				c0.205,8.415,0.205,8.478-0.404,8.478C114.443,97.119,114.358,96.886,114.21,94.45L114.21,94.45z"/>
		</g>
	</g>
</g>
<path style="opacity:0.6;fill:#FFFFFF;" d="M82.477,2.877C70.415-1.106,55.849-0.935,44.184,3.275
	c-18.777,6.771-33.4,23.841-37.155,43.243c-1.024,5.519-1.024,17.752,0.057,22.816c4.893,23.272,22.589,40.853,45.804,45.405
	c2.333,0.455,6.373,0.967,8.99,1.195l4.666,0.341v2.731c0,1.536,0.284,2.902,0.683,3.186c0.398,0.228,4.552,1.65,9.275,3.073
	c4.666,1.479,9.331,2.674,10.356,2.731c1.935,0.057,3.016-1.081,3.016-3.3c0-1.081,0.341-1.195,4.154-1.195
	c5.064,0,6.543-0.398,6.942-1.821c0.683-2.105-0.626-2.731-6.031-2.731h-5.064v-9.673h5.064c5.405,0,6.714-0.626,6.031-2.845
	c-0.341-1.024-0.797-1.138-5.747-1.138c-5.292,0-5.348,0-5.348-1.366c0-1.991-0.569-3.129-1.764-3.755
	c-0.74-0.455-3.414,0.171-10.583,2.333c-5.235,1.65-9.9,3.186-10.242,3.528c-0.455,0.284-0.74,1.764-0.74,3.414v2.845l-6.088-0.341
	c-20.597-1.024-39.374-14.68-46.999-33.969c-3.016-7.681-3.471-10.469-3.471-20.199c0-8.307,0.114-9.559,1.593-14.509
	c5.69-19.289,20.711-33.741,39.943-38.521c5.747-1.422,19.061-1.366,24.694,0.057c9.9,2.504,17.525,6.657,24.751,13.485
	c9.844,9.331,16.444,22.816,16.899,34.367l0.171,3.983l-7.511,0.171l-7.511,0.171l-1.479-2.845
	c-1.707-3.471-1.764-3.642-0.171-4.324c0.683-0.341,1.309-0.797,1.422-1.138c0.114-0.284-2.219-1.422-5.121-2.447
	c-2.845-1.081-6.942-2.504-8.99-3.3c-1.257-0.455-2.964-0.91-4.518-1.218c-11.846-2.686-17.428-0.313-22.458,0.899l-0.011,0.028
	c-3.05,0.859-9.132,3.807-13.235,6.492c-2.902,1.935-4.723,2.617-7.795,3.186c-2.162,0.341-5.235,0.967-6.828,1.366
	c-0.956,0.216-3.198,0.734-3.795,1.013c0,0,0,0-0.011,0c-1.4,0.427-4.615,3.664-5.36,5.468c-0.455,0.967-1.024,1.935-1.366,2.162
	c-0.74,0.455-0.74,5.804-0.057,6.259c0.284,0.171,1.707,0.512,3.129,0.797l2.617,0.455v-1.65c0.074-4.853,4.114-9.144,9.4-9.144
	c5.576,0,9.422,4.541,9.422,9.349l-0.04,1.383h37.331c-0.085-2.287,0.125-5.349,2.344-7.733c2.634-2.828,6.447-3.442,9.889-2.549
	c3.033,0.785,6.708,4.717,6.532,8.802c0.455-0.569,1.189-3.124,1.018-3.92c-0.171-0.797-0.398-2.048-0.569-2.731l-0.228-1.309
	h17.639v-4.097c0-23.499-16.444-45.747-39.26-53.371L82.477,2.877z M33.203,56.248c-1.65,2.39-8.193,5.747-8.193,4.211
	c0-0.91,2.475-3.459,4.211-4.723c0.905-0.66,2.441-1.218,2.794-1.218c0.353,0,0.711,0.119,0.933,0.205
	C33.874,55.088,34.113,54.997,33.203,56.248z M70.415,53.631c-1.479,0.512-5.576,0.512-5.576-0.057c0-0.74,1.479-1.195,4.04-1.195
	C70.984,52.379,71.894,53.119,70.415,53.631z M72.861,45.381c-0.341,2.333-0.74,4.495-0.91,4.723
	c-0.171,0.228-23.374,2.464-25.246,2.589c-0.569,0.04-1.121,0.057-1.212-0.057c-0.211-0.256,0.996-0.927,4.364-3.147
	c4.489-2.993,7.431-4.41,11.63-5.923c4.523-1.235,7.772-2.1,12.063-2.145c-0.182,0.552-0.256,1.092-0.683,3.96L72.861,45.381z
	 M92.662,51.469c-0.455,0.114-1.878,0.398-3.186,0.569c-1.878,0.284-2.447,0.171-2.447-0.455c0-0.91,5.121-1.707,5.917-0.91
	C93.288,51.014,93.174,51.298,92.662,51.469L92.662,51.469z M93.231,48.055c-0.171,0.171-15.932,1.844-18.595,1.815
	c0.057-0.734,0.222-2.839,0.33-3.863c0.233-2.219,0.461-3.431,0.728-4.586c2.327,0.085,4.967,0.523,7.778,1.138
	C88.162,44.066,94.159,47.127,93.231,48.055z"/>
<path style="opacity:0.6;fill:#FFFFFF;" d="M38.392,75.44c-4.091,0-7.414-3.317-7.414-7.414s3.317-7.414,7.414-7.414
	s7.414,3.317,7.414,7.414S42.489,75.44,38.392,75.44z M42.42,68.026c0-2.225-1.804-4.028-4.028-4.028
	c-2.225,0-4.028,1.804-4.028,4.028c0,2.225,1.804,4.028,4.028,4.028C40.617,72.055,42.42,70.251,42.42,68.026z"/>
<path style="opacity:0.6;fill:#FFFFFF;" d="M38.392,71.247c-1.775,0-3.215-1.44-3.215-3.215c0-1.775,1.44-3.215,3.215-3.215
	s3.215,1.44,3.215,3.215C41.607,69.807,40.167,71.247,38.392,71.247z M38.392,65.79c-0.296,0-0.535,0.239-0.535,0.535
	s0.239,0.535,0.535,0.535c0.296,0,0.535-0.239,0.535-0.535S38.688,65.79,38.392,65.79z M38.392,69.204
	c-0.296,0-0.535,0.239-0.535,0.535c0,0.296,0.239,0.535,0.535,0.535c0.296,0,0.535-0.239,0.535-0.535
	C38.927,69.443,38.688,69.204,38.392,69.204z M36.15,68.032c0,0.296,0.239,0.535,0.535,0.535s0.535-0.239,0.535-0.535
	s-0.239-0.535-0.535-0.535S36.15,67.736,36.15,68.032z M39.564,68.032c0,0.296,0.239,0.535,0.535,0.535s0.535-0.239,0.535-0.535
	s-0.239-0.535-0.535-0.535S39.564,67.736,39.564,68.032z"/>
<path style="opacity:0.6;fill:#FFFFFF;" d="M94.449,75.44c-4.091,0-7.414-3.317-7.414-7.414s3.317-7.414,7.414-7.414
	c4.097,0,7.414,3.317,7.414,7.414S98.546,75.44,94.449,75.44z M98.477,68.026c0-2.225-1.804-4.028-4.028-4.028
	c-2.225,0-4.028,1.804-4.028,4.028c0,2.225,1.804,4.028,4.028,4.028C96.674,72.055,98.477,70.251,98.477,68.026z"/>
<path style="opacity:0.6;fill:#FFFFFF;" d="M94.449,71.247c-1.775,0-3.215-1.44-3.215-3.215c0-1.775,1.44-3.215,3.215-3.215
	s3.215,1.44,3.215,3.215C97.664,69.807,96.224,71.247,94.449,71.247z M94.449,65.79c-0.296,0-0.535,0.239-0.535,0.535
	s0.239,0.535,0.535,0.535c0.296,0,0.535-0.239,0.535-0.535S94.745,65.79,94.449,65.79z M94.449,69.204
	c-0.296,0-0.535,0.239-0.535,0.535c0,0.296,0.239,0.535,0.535,0.535c0.296,0,0.535-0.239,0.535-0.535
	C94.984,69.443,94.745,69.204,94.449,69.204z M92.207,68.032c0,0.296,0.239,0.535,0.535,0.535c0.296,0,0.535-0.239,0.535-0.535
	s-0.239-0.535-0.535-0.535C92.446,67.497,92.207,67.736,92.207,68.032z M95.621,68.032c0,0.296,0.239,0.535,0.535,0.535
	c0.296,0,0.535-0.239,0.535-0.535s-0.239-0.535-0.535-0.535C95.86,67.497,95.621,67.736,95.621,68.032z"/>
<g style="opacity:0.6;">
	<path style="fill:#FFFFFF;stroke:#FFFFFF;stroke-width:0.75;stroke-miterlimit:10;" d="M62.779,40.982
		c-0.205-0.205,0.233-24.962,0.438-25.656c0.176-0.552,0.404-0.637,1.855-0.637c2.208,0,3.511,0.694,4.353,2.321
		c1.104,2.179,0.58,6.065-1.075,8.125c-0.495,0.609-0.899,1.218-0.899,1.309c0,0.114,0.319,0.58,0.666,1.018
		c0.899,1.047,1.309,3.312,1.422,7.835l0.085,3.63h-0.728c-0.486,0-0.785-1.18-0.899-3.539c-0.262-4.7-0.467-6.009-1.161-6.879
		c-0.637-0.814-2.208-1.047-2.441-0.376c-0.057,0.176-0.205,3.192-0.29,6.674c-0.205,5.69-0.262,6.299-0.694,6.299
		c-0.29,0-0.58-0.057-0.637-0.114l0,0L62.779,40.982z M65.999,25.278c1.422-0.757,2.145-2.526,2.179-5.28
		c0-2.117-0.085-2.441-0.728-3.135c-0.523-0.552-0.927-0.728-1.599-0.666c-0.842,0.085-0.871,0.148-1.047,1.826
		c-0.262,2.378-0.29,7.255-0.057,7.488c0.262,0.262,0.29,0.262,1.246-0.233l0,0H65.999z"/>
	<path style="fill:#FFFFFF;stroke:#FFFFFF;stroke-width:0.75;stroke-miterlimit:10;" d="M39.672,40.345
		c-0.29-0.785,0.114-25.69,0.438-26.009c0.205-0.205,0.467-0.176,0.842,0c0.495,0.29,0.523,0.814,0.523,7.516v7.198l2.265,0.085
		c1.218,0.057,2.265,0.057,2.293,0s0.114-3.425,0.205-7.488l0.176-7.403h1.451L47.78,26.729c-0.057,6.879-0.176,12.774-0.262,13.149
		c-0.085,0.347-0.319,0.637-0.523,0.637c-0.58,0-0.728-1.018-0.728-5.371c0-2.236-0.114-4.239-0.262-4.438
		c-0.148-0.262-0.871-0.347-2.526-0.29l-2.293,0.085l-0.148,5.081c-0.114,4.529-0.205,5.081-0.666,5.166
		c-0.262,0.057-0.58-0.114-0.694-0.404l0,0L39.672,40.345z"/>
	<path style="fill:#FFFFFF;stroke:#FFFFFF;stroke-width:0.75;stroke-miterlimit:10;" d="M59.206,39.156
		c-0.085-0.609-0.233-1.826-0.319-2.697c-0.319-2.76-0.148-2.612-3.05-2.612c-2.902,0-2.731-0.176-3.078,3.164
		c-0.233,2.031-0.467,2.498-1.132,2.236c-0.404-0.148-0.467-0.404-0.347-1.275c0.085-0.58,0.899-6.151,1.798-12.364
		c0.899-6.213,1.741-11.522,1.917-11.841c0.376-0.694,1.018-0.666,1.536,0.148c1.161,1.798,4.586,24.614,3.892,25.889
		c-0.467,0.785-1.047,0.467-1.218-0.637l0,0L59.206,39.156z M58.159,31.463c0-0.376-0.148-1.451-0.29-2.407
		c-0.176-0.956-0.495-3.164-0.728-4.933c-0.728-5.195-1.047-7.112-1.275-7.112c-0.114,0-0.376,1.479-0.58,3.277
		c-0.205,1.77-0.552,4.558-0.757,6.151c-0.205,1.599-0.467,3.511-0.552,4.296L53.8,32.1h2.179
		C58.039,32.1,58.159,32.072,58.159,31.463z"/>
	<path style="fill:#FFFFFF;stroke:#FFFFFF;stroke-width:0.75;stroke-miterlimit:10;" d="M86.375,39.736
		c-0.114-0.29-0.205-5.69-0.205-11.989V16.282h3.192c2.987,0,3.192,0.028,3.192,0.58c0,0.523-0.233,0.58-2.526,0.666l-2.555,0.085
		v11.061l2.321-0.205c2.031-0.176,2.321-0.148,2.321,0.262c0,0.58-0.785,0.899-2.788,1.189l-1.479,0.205l-0.205,1.479
		c-0.085,0.842-0.176,2.873-0.176,4.529v3.021l2.731-0.205c2.321-0.176,2.731-0.148,2.902,0.262c0.262,0.694-0.956,1.018-3.92,1.018
		c-2.208,0-2.64-0.085-2.816-0.495l0,0L86.375,39.736z"/>
	<path style="fill:#FFFFFF;stroke:#FFFFFF;stroke-width:0.75;stroke-miterlimit:10;" d="M76.218,39.156
		c-2.236-1.104-3.312-4.762-3.312-11.26c0-8.097,1.684-12.017,5.343-12.512c1.855-0.262,4.006,0.694,4.006,1.741
		c0,0.956-0.523,0.956-1.917,0.028c-1.599-1.075-2.873-0.871-4.119,0.728c-1.218,1.565-1.599,3.397-1.741,8.415
		c-0.205,8.302,0.956,11.898,3.92,11.898c1.713,0,2.555-2.06,2.873-7.198c0.205-2.788,0.176-2.902-0.467-3.249
		c-0.347-0.176-1.047-0.262-1.565-0.176c-1.075,0.205-1.77-0.176-1.536-0.814c0.148-0.347,0.609-0.467,2.088-0.467
		c2.109,0,3.086,1.441,2.93,4.324c-0.29,5.57-1.075,7.835-2.987,8.62c-1.218,0.523-2.321,0.495-3.511-0.085l0,0L76.218,39.156z"/>
	<path style="fill:#FFFFFF;stroke:#FFFFFF;stroke-width:0.75;stroke-miterlimit:10;" d="M33.925,38.718
		c-3.482-1.218-5.195-4.848-5.166-10.97c0.028-3.078,0.148-3.977,0.785-5.952c1.246-3.92,2.816-5.832,5.343-6.532
		c1.075-0.262,1.394-0.262,1.974,0.148c0.376,0.233,0.694,0.58,0.694,0.728c0,0.467-1.075,0.871-2.265,0.871
		c-1.479,0-2.441,0.785-3.34,2.697c-1.189,2.498-1.508,4.41-1.479,8.478c0,4.472,0.552,6.299,2.441,8.125
		c1.018,1.018,1.337,1.132,2.902,1.246c1.855,0.148,2.293,0.404,1.741,1.075C37.152,39.127,35.234,39.184,33.925,38.718
		L33.925,38.718z"/>
</g>
<g style="opacity:0.6;">
	<g>
		<path style="fill:#FFFFFF;stroke:#FFFFFF;stroke-width:0.75;stroke-miterlimit:10;" d="M47.16,94.308l0.205-6.617l-2.06-5.485
			c-1.132-3.05-2.003-5.605-1.917-5.747c0.233-0.347,1.161-0.29,1.508,0.148c0.148,0.176,0.757,1.855,1.337,3.687
			c1.565,5.138,1.713,5.514,1.974,5.514c0.29,0,1.656-2.76,2.816-5.804c0.552-1.366,1.075-2.669,1.189-2.902
			c0.262-0.552,1.741-0.757,1.741-0.233c0,0.205-0.814,2.003-1.77,4.006c-2.845,5.804-3.05,6.56-3.277,11.027
			c-0.085,2.145-0.262,5.053-0.347,6.475c-0.176,2.407-0.233,2.526-0.899,2.526h-0.694l0.205-6.589l0,0L47.16,94.308z"/>
		<path style="fill:#FFFFFF;stroke:#FFFFFF;stroke-width:0.75;stroke-miterlimit:10;" d="M40.11,99.822
			c-0.29-0.114-0.376-1.394-0.376-5.11c0-6.413-0.319-15.004-0.58-15.004c-0.085,0-0.609,1.075-1.132,2.407
			c-2.697,6.703-2.669,6.589-3.368,6.589c-0.376,0-0.757-0.114-0.871-0.262c-0.085-0.148-0.609-1.826-1.189-3.716
			c-0.58-1.889-1.189-3.687-1.366-4.006c-0.29-0.523-0.347-0.438-0.523,0.728c-0.114,0.728-0.233,3.858-0.233,6.964
			c-0.028,3.107-0.114,6.731-0.233,8.068c-0.176,2.236-0.205,2.378-0.842,2.378h-0.637l0.148-11.67
			c0.114-9.377,0.233-11.784,0.552-12.131c0.666-0.666,0.984-0.085,3.05,5.57c1.047,2.902,2.06,5.343,2.208,5.371
			c0.262,0.085,1.451-2.731,3.135-7.459c1.275-3.659,1.508-4.063,2.265-4.063h0.694l0.176,7.198
			c0.114,3.949,0.205,9.61,0.205,12.569c0,5.514-0.085,5.923-1.075,5.57L40.11,99.822z"/>
	</g>
	<g>
		<path style="fill:#FFFFFF;stroke:#FFFFFF;stroke-width:0.75;stroke-miterlimit:10;" d="M79.9,100.169
			c-0.233-0.552,0.148-20.29,0.438-23.653l0.176-2.179l1.599-0.085c1.946-0.085,3.34,0.552,4.296,1.974
			c0.637,0.927,0.666,1.246,0.58,3.482c-0.148,2.669-0.637,4.091-1.889,5.371c-0.694,0.666-0.728,0.785-0.319,1.246
			c1.161,1.309,1.479,2.498,1.713,6.589c0.347,6.037,0.376,5.661-0.467,5.661c-0.552,0-0.728-0.148-0.728-0.637
			c-0.028-0.376-0.148-2.441-0.262-4.615c-0.319-5.053-0.785-6.065-2.816-6.065c-0.467,0-0.694,0.176-0.728,0.523
			c-0.028,0.262-0.148,3.22-0.233,6.589c-0.148,5.485-0.233,6.094-0.694,6.185c-0.262,0.057-0.58-0.114-0.666-0.376l0,0
			L79.9,100.169z M83.701,84.265c0.984-0.984,1.479-2.293,1.798-4.586c0.29-2.378-1.189-4.324-3.021-3.977
			c-0.467,0.085-0.552,0.552-0.757,4.41c-0.148,2.378-0.176,4.501-0.085,4.7c0.262,0.666,1.047,0.467,2.06-0.552L83.701,84.265z"/>
		<path style="fill:#FFFFFF;stroke:#FFFFFF;stroke-width:0.75;stroke-miterlimit:10;" d="M63.416,99.418
			c-0.495-0.438-0.927-1.275-1.189-2.293c-0.495-1.889-0.347-2.669,0.523-2.555c0.467,0.057,0.666,0.404,0.927,1.684
			c0.376,1.974,0.58,2.321,1.422,2.321c1.684,0,2.64-2.612,2.236-6.122c-0.29-2.583-0.694-3.568-2.669-6.646
			c-1.974-3.078-2.873-5.28-2.873-7.112c0-1.832,0.842-3.687,1.855-4.353c1.366-0.899,3.892-0.057,4.728,1.599
			c0.694,1.394-0.637,2.088-1.394,0.694c-0.871-1.627-2.583-1.451-3.34,0.319c-0.927,2.236-0.376,4.148,2.293,8.068
			c2.145,3.164,2.788,4.762,3.021,7.664c0.205,2.669-0.262,4.381-1.627,5.923c-1.366,1.508-2.76,1.798-3.92,0.814l0,0L63.416,99.418
			z"/>
		<path style="fill:#FFFFFF;stroke:#FFFFFF;stroke-width:0.75;stroke-miterlimit:10;" d="M90.961,99.418
			c-0.319-0.467-0.637-22.697-0.347-23.277c0.205-0.467,0.609-0.495,3.34-0.438c2.873,0.085,3.107,0.114,3.107,0.666
			c0,0.523-0.233,0.58-2.526,0.666l-2.555,0.085v11.09l2.321-0.205c2.003-0.176,2.321-0.148,2.321,0.262
			c0,0.552-0.785,0.871-2.788,1.132l-1.479,0.205l-0.205,4.239c-0.085,2.293-0.085,4.324,0,4.501
			c0.114,0.205,1.075,0.233,2.731,0.114c2.179-0.176,2.555-0.148,2.697,0.262c0.148,0.319-0.028,0.552-0.552,0.728
			C96.008,99.85,91.194,99.822,90.961,99.418z"/>
		<path style="fill:#FFFFFF;stroke:#FFFFFF;stroke-width:0.75;stroke-miterlimit:10;" d="M101.669,99.503
			c-0.467-0.319-0.814-23.044-0.347-23.511c0.376-0.376,5.314-0.495,6.151-0.176c0.609,0.233,0.609,0.871,0,1.104
			c-0.262,0.085-1.479,0.176-2.76,0.176h-2.321l0.176,5.314c0.114,2.902,0.233,5.428,0.29,5.605
			c0.057,0.233,0.495,0.262,1.366,0.085c2.031-0.376,3.135-0.319,3.135,0.176c0,0.552-0.871,0.899-2.987,1.161l-1.656,0.205v8.996
			l2.669-0.114c2.293-0.085,2.697-0.028,2.788,0.376c0.057,0.29-0.176,0.552-0.58,0.666c-0.927,0.233-5.542,0.205-5.923-0.057l0,0
			L101.669,99.503z"/>
		<path style="fill:#FFFFFF;stroke:#FFFFFF;stroke-width:0.75;stroke-miterlimit:10;" d="M73.601,94.046
			c-0.114-1.713-0.205-4.615-0.205-6.475c0-1.861-0.085-5.223-0.205-7.488l-0.176-4.148h-1.366c-1.565,0-1.826-0.176-1.422-0.899
			c0.233-0.495,0.637-0.552,3.249-0.552c3.511,0,4.267,0.176,4.267,0.899c0,0.467-0.233,0.552-1.627,0.552H74.46l0.262,8.939
			c0.347,12.945,0.376,12.074-0.347,12.193c-0.58,0.085-0.609-0.085-0.785-3.021L73.601,94.046z"/>
		<path style="fill:#FFFFFF;stroke:#FFFFFF;stroke-width:0.75;stroke-miterlimit:10;" d="M114.21,94.45
			c-0.085-1.479-0.233-5.428-0.319-8.797c-0.085-3.34-0.233-6.908-0.319-7.898l-0.176-1.826h-1.422
			c-1.189,0-1.422-0.085-1.422-0.552c0-0.785,0.523-0.899,3.892-0.899c2.031,0,3.135,0.114,3.511,0.376
			c0.842,0.637,0.233,1.075-1.508,1.075h-1.627l0.176,2.117c0.114,1.132,0.29,5.923,0.376,10.595
			c0.205,8.415,0.205,8.478-0.404,8.478C114.443,97.119,114.358,96.886,114.21,94.45L114.21,94.45z"/>
	</g>
</g>
</svg>
