<?xml version="1.0" encoding="iso-8859-1"?>
<!-- Generator: Adobe Illustrator 27.8.0, SVG Export Plug-In . SVG Version: 6.00 Build 0)  -->
<svg version="1.1" id="Layer_1" xmlns="http://www.w3.org/2000/svg" xmlns:xlink="http://www.w3.org/1999/xlink" x="0px" y="0px"
	 viewBox="0 0 128 128" style="enable-background:new 0 0 128 128;" xml:space="preserve">
<path d="M62.668,64.93c0.736-1.022,0.736-2.4,0-3.422l0.867-0.929l-1.44-0.294l-0.279-1.455L60.051,60.3l-1.812-1.548l-0.279,1.455
	l-1.44,0.294l0.836,0.96c-0.363,0.539-0.547,1.178-0.526,1.827c-0.047,0.787,0.208,1.562,0.712,2.168c0,0-1.161,0.372-2.988-1.393
	c-0.933-0.944-1.693-2.044-2.245-3.251v3.251c0.481,1.09,1.152,2.086,1.982,2.942c0.896,0.753,1.957,1.284,3.097,1.548
	c-0.224,1.117-0.761,2.148-1.548,2.973c-0.677,1.006-1.552,1.865-2.57,2.524h3.097l3.933-4.088h4.645l2.756,1.301
	c-0.347,0.488-0.724,0.954-1.13,1.393c-0.516,0.494-1.059,0.959-1.626,1.393h2.802l3.313-3.747c0.815,0.153,1.529,0.642,1.966,1.347
	c0.294,0.635-1.455,2.369-1.393,2.369h3.282v-4.165l-3.747-2.028v-2.864c0.023-0.704-0.19-1.396-0.604-1.966
	c-0.883-1.177-3.251-0.495-3.747-0.913c-0.495-0.418-0.31-1.688-0.31-1.688c-0.769,0.162-1.295,0.874-1.223,1.657
	c0.047,0.602,0.44,1.122,1.006,1.332c0.573,0.31,1.873,0,2.477,0.619c0.274,0.224,0.395,0.585,0.31,0.929H62.668z M62.807,44.151
	c0.621-0.871,0.621-2.04,0-2.911l0.743-0.79l-1.363-0.248l-0.232-1.239l-1.548,1.254l-1.548-1.27l-0.232,1.239l-1.223,0.263
	l0.712,0.821c-0.308,0.456-0.465,0.998-0.449,1.548c0.003,0.664,0.251,1.304,0.697,1.796c0,0-0.991,0.325-2.539-1.192
	c-0.763-0.801-1.382-1.728-1.827-2.741v2.71c0.411,0.937,0.988,1.792,1.703,2.524c0.747,0.616,1.627,1.051,2.57,1.27
	c-0.184,0.945-0.63,1.819-1.285,2.524c-0.581,0.857-1.329,1.589-2.199,2.152h2.617l3.36-3.437h4.01l2.338,1.099
	c-0.296,0.416-0.616,0.815-0.96,1.192c-0.439,0.421-0.899,0.819-1.378,1.192h2.384l2.771-3.19c0.701,0.131,1.315,0.553,1.688,1.161
	c0.248,0.542-1.239,2.013-1.192,2.013h2.802v-3.468l-3.143-1.796v-2.446c0.019-0.599-0.161-1.187-0.511-1.672
	c-0.759-1.006-2.756-0.418-3.19-0.774c-0.434-0.356-0.248-1.44-0.248-1.44c-0.658,0.145-1.107,0.753-1.053,1.424
	c0.032,0.513,0.367,0.958,0.852,1.13c0.48,0.263,1.548,0,2.106,0.526c0.237,0.187,0.341,0.497,0.263,0.79L62.807,44.151z
	 M62.281,86.838c0.621-0.871,0.621-2.04,0-2.911l0.743-0.79l-1.223-0.263l-0.232-1.239L60.02,82.89l-1.548-1.27l-0.232,1.239
	l-1.223,0.263l0.712,0.821c-0.308,0.456-0.465,0.998-0.449,1.548c0.003,0.664,0.251,1.304,0.697,1.796c0,0-0.991,0.325-2.539-1.192
	c-0.793-0.784-1.443-1.701-1.92-2.71v2.71c0.39,0.955,0.952,1.832,1.657,2.586c0.747,0.616,1.627,1.051,2.57,1.27
	c-0.184,0.945-0.63,1.819-1.285,2.524c-0.581,0.857-1.329,1.589-2.199,2.152h2.617l3.36-3.484h4.01l2.338,1.099
	c-0.296,0.416-0.616,0.815-0.96,1.192c-0.439,0.421-0.899,0.819-1.378,1.192h2.384l2.818-3.19c0.701,0.131,1.315,0.553,1.688,1.161
	c0.248,0.542-1.239,2.013-1.192,2.013h2.802v-3.577L69.542,89.3v-2.431c0.019-0.599-0.161-1.187-0.511-1.672
	c-0.759-1.006-2.756-0.418-3.174-0.774s-0.248-1.44-0.248-1.44c-0.658,0.145-1.107,0.753-1.053,1.424
	c0.032,0.513,0.367,0.958,0.852,1.13c0.48,0.263,1.548,0,2.106,0.526c0.237,0.187,0.341,0.497,0.263,0.79h-5.496V86.838z
	 M39.598,64.326c0.668-0.838,0.73-2.007,0.155-2.911l0.79-0.728l-1.208-0.341l-0.155-1.254l-1.548,1.146l-1.44-1.378l-0.325,1.223
	l-1.239,0.17l0.65,0.867c-0.346,0.444-0.541,0.986-0.557,1.548c-0.045,0.664,0.16,1.321,0.573,1.842c0,0-1.006,0.248-2.446-1.363
	c-0.74-0.835-1.327-1.794-1.734-2.833l-0.186,2.694c0.35,0.965,0.875,1.857,1.548,2.632c0.7,0.673,1.549,1.171,2.477,1.455
	c-0.254,0.931-0.764,1.773-1.471,2.431c-0.636,0.813-1.431,1.488-2.338,1.982l2.601,0.201l3.592-3.236l3.995,0.279l2.261,1.254
	c-0.324,0.391-0.67,0.764-1.037,1.115c-0.466,0.387-0.952,0.748-1.455,1.084l2.369,0.17l3.097-2.988
	c0.668,0.193,1.228,0.652,1.548,1.27c0.217,0.557-1.378,1.92-1.316,1.92l2.787,0.201l0.248-3.515l-3.097-1.951l0.17-2.431
	c0.063-0.595-0.074-1.194-0.387-1.703c-0.681-1.053-2.725-0.619-3.097-0.991c-0.372-0.372-0.155-1.455-0.155-1.455
	c-0.664,0.1-1.153,0.675-1.146,1.347c-0.005,0.517,0.3,0.987,0.774,1.192c0.464,0.294,1.548,0.108,2.059,0.666
	c0.226,0.201,0.312,0.518,0.217,0.805L39.598,64.326z M86.218,64.961c0.542-0.922,0.437-2.087-0.263-2.895l0.681-0.836l-1.239-0.17
	l-0.325-1.223l-1.409,1.347l-1.626-1.161l-0.155,1.254l-1.208,0.341l0.759,0.774c-0.609,1.091-0.412,2.454,0.48,3.329
	c0,0-0.975,0.387-2.617-1.006c-0.85-0.728-1.568-1.597-2.121-2.57l0.186,2.694c0.471,0.9,1.1,1.708,1.858,2.384
	c0.787,0.564,1.693,0.94,2.648,1.099c-0.114,0.953-0.495,1.855-1.099,2.601c-0.519,0.886-1.208,1.659-2.028,2.276l2.601-0.155
	l3.097-3.7l4.072-0.263l2.415,0.929c-0.267,0.433-0.556,0.852-0.867,1.254c-0.412,0.445-0.846,0.869-1.301,1.27l2.369-0.155
	l2.586-3.375c0.707,0.085,1.347,0.461,1.765,1.037c0.294,0.526-1.099,2.09-1.037,2.09l2.787-0.201l-0.248-3.515l-3.298-1.548
	l-0.17-2.431c-0.02-0.6-0.238-1.177-0.619-1.641c-0.821-0.944-2.787-0.232-3.236-0.557s-0.356-1.409-0.356-1.409
	c-0.672,0.189-1.084,0.864-0.944,1.548c0.068,0.51,0.433,0.93,0.929,1.068c0.495,0.232,1.548-0.108,2.137,0.372
	c0.251,0.172,0.378,0.475,0.325,0.774L86.218,64.961z M50.607,102.801v-25.33c-11.752-0.635-21.258-1.904-22.93-2.137
	c1.548,12.557,13.207,21.816,22.93,27.451V102.801z M98.604,75.489c-1.254,0.155-11.055,1.393-23.225,2.013v25.439
	c9.863-5.605,21.692-14.864,23.302-27.451H98.604z M75.38,31.672v24.308c5.815-0.342,11.605-1.019,17.341-2.028
	c-0.991-1.796-1.935-3.484-2.694-5.125c-1.175-2.307-1.831-4.844-1.92-7.432c0.148-3.878,1.266-7.658,3.251-10.993
	c-3.669,0.449-9.042,0.991-15.855,1.27H75.38z M34.783,30.403c1.985,3.335,3.103,7.115,3.251,10.993
	c-0.089,2.588-0.744,5.125-1.92,7.432c-0.774,1.672-1.734,3.406-2.756,5.249c5.671,0.977,11.394,1.624,17.14,1.935V31.657
	c-6.534-0.263-11.845-0.805-15.591-1.254H34.783z M100.307,31.13c-1.294,1.11-2.94,1.724-4.645,1.734
	c-0.784-0.001-1.562-0.127-2.307-0.372c-1.48,2.697-2.307,5.704-2.415,8.779c0,8.237,10.637,16.335,10.637,31.167
	c0,11.225-7.246,20.128-15.483,26.553l3.097,3.964l0.077-4.815l3.886,4.955c2.121-0.975,3.406-1.301,4.738-1.92
	c1.827-0.836,1.904-1.347,1.904-1.424c-1.699-0.043-3.047-1.447-3.019-3.147c0.028-1.7,1.421-3.059,3.121-3.045
	c1.7,0.014,3.071,1.396,3.071,3.096c-0.033,1.863-0.699,3.66-1.889,5.094c-2.256,3.047-5.165,5.549-8.516,7.323l5.264,0.093
	c1.042,1.124,2.004,2.319,2.88,3.577c1.497,2.122,2.608,4.491,3.282,6.998c0.268-0.025,0.537-0.025,0.805,0
	c0.934-0.003,1.841,0.314,2.57,0.898c-0.175-0.021-0.352-0.021-0.526,0c-1.074,0.005-1.966,0.829-2.057,1.899
	c-0.091,1.07,0.649,2.033,1.707,2.219c1.057,0.186,2.083-0.465,2.363-1.501c0.018,0.211,0.018,0.424,0,0.635
	c0,2.27-1.84,4.111-4.111,4.111c-2.27,0-4.111-1.84-4.111-4.111c0.001-0.464,0.079-0.925,0.232-1.363
	c-2.215-1.26-4.174-2.925-5.775-4.908c-1.848-2.238-3.408-4.698-4.645-7.323c-2.23,1.053-3.53,1.409-4.908,2.044
	c-2.028,0.929-1.889,1.332-1.889,1.332c1.106,0.019,2.118,0.627,2.655,1.595c0.536,0.968,0.516,2.148-0.054,3.097
	c-0.57,0.948-1.603,1.521-2.709,1.501c-1.71,0-3.097-1.386-3.097-3.097c0.006-1.894,0.668-3.726,1.873-5.187
	c1.511-2.013,3.305-3.796,5.326-5.295l-3.995-5.404c-6.351,4.469-13.244,8.111-20.515,10.838
	c-8.334-3.113-16.16-7.443-23.225-12.851l-6.193,7.742c0.6,0.091,1.021,0.639,0.954,1.241c-0.067,0.603-0.597,1.046-1.202,1.004
	l-0.542-0.155c-0.93-0.476-1.811-1.042-2.632-1.688c-0.838-0.657-1.606-1.399-2.291-2.214l-0.217-0.635
	c0-0.3,0.119-0.587,0.331-0.799c0.212-0.212,0.499-0.331,0.799-0.331c0.43-0.002,0.824,0.238,1.022,0.619l6.364-7.958
	C29.797,89.61,24.657,81.837,24.657,72.47c0-14.833,10.637-22.93,10.637-31.167c-0.214-3.942-1.493-7.751-3.7-11.024L22.52,17.985
	L14.345,3.369l11.643,12.046l9.29,12.092c9.251,1.072,18.557,1.589,27.87,1.548c8.584,0.038,17.164-0.386,25.702-1.27
	c-0.215-0.66-0.33-1.349-0.341-2.044c-0.017-1.349,0.348-2.675,1.053-3.824c0.725-1.43,1.636-2.758,2.71-3.948
	c2.178,1.223,4.25,2.627,6.193,4.196l1.378,1.115c-0.631,0.925-1.314,1.814-2.044,2.663c-0.646,0.866-1.389,1.656-2.214,2.353
	c-0.17,0.209-0.25,0.477-0.22,0.745c0.029,0.268,0.164,0.513,0.375,0.68c0.464,0.356,0.759,0.186,1.208,0
	c0.966-0.389,1.841-0.974,2.57-1.719c0.951-0.848,1.817-1.786,2.586-2.802c0.898,0.852,1.548,1.641,1.982,2.106
	c-1.01,1.459-2.243,2.749-3.654,3.824H100.307z M104.906,14.362c1.829-1.524,4.475-1.563,6.348-0.093
	c1.504,1.198,2.182,3.155,1.741,5.026c-0.44,1.871-1.92,3.32-3.8,3.722l-0.356-0.279c-0.139-0.17-0.619-0.743-1.44-1.548
	c0.263-1.13,0.944-3.933,0.929-3.979c-0.015-0.046-2.307,0.96-3.561,1.548c-0.619-0.542-1.316-1.115-2.075-1.734
	c-0.759-0.619-1.548-1.146-2.168-1.548c0.31-1.27,0.852-3.577,0.836-3.623c-0.015-0.046-2.771,1.161-3.871,1.641
	c-1.022-0.604-1.672-0.913-1.812-0.975l-0.294-0.232c-0.103-1.962,0.959-3.801,2.71-4.691c1.751-0.891,3.863-0.666,5.388,0.573
	C105.354,9.641,105.947,12.22,104.906,14.362z M113.901,11.389l-4.242,0.464c-0.855,0.188-1.749,0.02-2.477-0.464
	c-0.629-0.596-0.987-1.424-0.991-2.291l-0.48-4.18l2.353,1.858l3.979-1.455l-0.511,4.196L113.901,11.389z M105.541,25.881
	c-1.746-1.944-3.663-3.726-5.729-5.326c-2.071-1.67-4.301-3.132-6.658-4.366c-0.562-0.439-0.684-1.24-0.279-1.827
	c0.392-0.493,1.07-0.653,1.641-0.387c2.483,1.251,4.819,2.772,6.967,4.537c2.267,1.707,4.344,3.653,6.193,5.806
	c0.336,0.462,0.336,1.087,0,1.548c-0.205,0.274-0.514,0.452-0.854,0.49s-0.681-0.066-0.942-0.288L105.541,25.881z M20.616,110.171
	c0,0,1.161-0.434,3.546-1.548c1.063-0.467,2.075-1.043,3.019-1.719c0,0,0.186,0.232,0.449,0.511c0.451,0.474,0.932,0.919,1.44,1.332
	c0.493,0.417,1.01,0.805,1.548,1.161l0.573,0.325c-0.429,0.997-0.756,2.034-0.975,3.097c-0.573,2.539-0.728,3.778-0.728,3.778
	c-1.635-0.86-3.19-1.865-4.645-3.004C23.306,112.938,21.89,111.62,20.616,110.171L20.616,110.171z M18.371,119.802
	c-1.74-2.201-1.74-5.309,0-7.509c0.205-0.257,0.433-0.496,0.681-0.712c1.304,1.57,2.79,2.978,4.428,4.196
	c1.61,1.255,3.343,2.344,5.171,3.251c-0.153,0.294-0.34,0.57-0.557,0.821c-1.629,2.006-4.332,2.79-6.782,1.966
	c-0.17-0.011-0.341-0.011-0.511,0c-0.502-0.034-0.996,0.139-1.367,0.478c-0.371,0.339-0.588,0.815-0.599,1.318
	c0,1,0.811,1.812,1.812,1.812h0.31c-0.912,1.544-2.803,2.207-4.48,1.571c-1.677-0.636-2.652-2.387-2.31-4.147
	c0.342-1.76,1.901-3.019,3.694-2.982h0.542L18.371,119.802z M57.729,2.44c6.101-3.254,13.423-3.254,19.524,0H57.729z M42.246,20.819
	c0,0,3.097-0.495,8.16-1.548l1.92-4.521c0,0-2.09,0.201-7.587,2.942c-2.436,1.081-4.747,2.425-6.89,4.01
	c7.678,1.279,15.441,1.983,23.225,2.106c7.811-0.08,15.609-0.649,23.348-1.703c0.262-2.105,0.355-4.228,0.279-6.348
	c-0.117-2.241-0.449-4.465-0.991-6.642c0.071,1.883-0.069,3.768-0.418,5.62c-0.325,1.606-0.845,3.165-1.548,4.645
	c-6.751,1.714-13.689,2.577-20.654,2.57c-6.309,0.248-12.626-0.136-18.858-1.146L42.246,20.819z M53.997,18.512
	c3.174-0.712,6.813-1.548,10.838-2.756c12.804-3.654,18.301-8.64,18.301-8.64h-4.97V3.679c-3.429,1.196-7.036,1.798-10.668,1.781
	c-3.585-0.019-7.15-0.54-10.59-1.548l-1.657,3.824c0.818,0.562,1.748,0.942,2.725,1.115c1.073,0.307,2.172,0.514,3.282,0.619
	c-0.545,1.595-1.397,3.068-2.508,4.335c-1.501,1.646-3.088,3.212-4.753,4.691V18.512z M58.642,19.688c0,0,1.997,0.186,2.957,0.232
	c0.766,0.02,1.533-0.026,2.291-0.139c0.232-0.271,0.425-0.574,0.573-0.898c0.186-0.434,0.403-1.099,0.403-1.099
	s-1.75,0.635-2.864,0.975c-1.115,0.341-3.406,0.914-3.406,0.914L58.642,19.688z M66.74,18.279c0,0,2.044,0.201,3.019,0.201
	c0.783-0.018,1.565-0.091,2.338-0.217c0.223-0.352,0.41-0.725,0.557-1.115c0.159-0.415,0.274-0.846,0.341-1.285
	c0,0-1.75,0.836-2.895,1.223c-1.146,0.387-3.406,1.177-3.406,1.177L66.74,18.279z M74.574,16.344c0,0,2.261,0.17,3.251,0.093
	c0.777-0.035,1.544-0.186,2.276-0.449c0.206-0.393,0.367-0.809,0.48-1.239c0.144-0.506,0.237-1.024,0.279-1.548
	c0,0-1.858,1.161-3.097,1.75C76.525,15.539,74.574,16.344,74.574,16.344z"/>
<path style="opacity:0.6;fill:#FFFFFF;" d="M62.668,64.93c0.736-1.022,0.736-2.4,0-3.422l0.867-0.929l-1.44-0.294l-0.279-1.455
	L60.051,60.3l-1.812-1.548l-0.279,1.455l-1.44,0.294l0.836,0.96c-0.363,0.539-0.547,1.178-0.526,1.827
	c-0.047,0.787,0.208,1.562,0.712,2.168c0,0-1.161,0.372-2.988-1.393c-0.933-0.944-1.693-2.044-2.245-3.251v3.251
	c0.481,1.09,1.152,2.086,1.982,2.942c0.896,0.753,1.957,1.284,3.097,1.548c-0.224,1.117-0.761,2.148-1.548,2.973
	c-0.677,1.006-1.552,1.865-2.57,2.524h3.097l3.933-4.088h4.645l2.756,1.301c-0.347,0.488-0.724,0.954-1.13,1.393
	c-0.516,0.494-1.059,0.959-1.626,1.393h2.802l3.313-3.747c0.815,0.153,1.529,0.642,1.966,1.347c0.294,0.635-1.455,2.369-1.393,2.369
	h3.282v-4.165l-3.747-2.028v-2.864c0.023-0.704-0.19-1.396-0.604-1.966c-0.883-1.177-3.251-0.495-3.747-0.913
	c-0.495-0.418-0.31-1.688-0.31-1.688c-0.769,0.162-1.295,0.874-1.223,1.657c0.047,0.602,0.44,1.122,1.006,1.332
	c0.573,0.31,1.873,0,2.477,0.619c0.274,0.224,0.395,0.585,0.31,0.929H62.668z M62.807,44.151c0.621-0.871,0.621-2.04,0-2.911
	l0.743-0.79l-1.363-0.248l-0.232-1.239l-1.548,1.254l-1.548-1.27l-0.232,1.239l-1.223,0.263l0.712,0.821
	c-0.308,0.456-0.465,0.998-0.449,1.548c0.003,0.664,0.251,1.304,0.697,1.796c0,0-0.991,0.325-2.539-1.192
	c-0.763-0.801-1.382-1.728-1.827-2.741v2.71c0.411,0.937,0.988,1.792,1.703,2.524c0.747,0.616,1.627,1.051,2.57,1.27
	c-0.184,0.945-0.63,1.819-1.285,2.524c-0.581,0.857-1.329,1.589-2.199,2.152h2.617l3.36-3.437h4.01l2.338,1.099
	c-0.296,0.416-0.616,0.815-0.96,1.192c-0.439,0.421-0.899,0.819-1.378,1.192h2.384l2.771-3.19c0.701,0.131,1.315,0.553,1.688,1.161
	c0.248,0.542-1.239,2.013-1.192,2.013h2.802v-3.468l-3.143-1.796v-2.446c0.019-0.599-0.161-1.187-0.511-1.672
	c-0.759-1.006-2.756-0.418-3.19-0.774c-0.434-0.356-0.248-1.44-0.248-1.44c-0.658,0.145-1.107,0.753-1.053,1.424
	c0.032,0.513,0.367,0.958,0.852,1.13c0.48,0.263,1.548,0,2.106,0.526c0.237,0.187,0.341,0.497,0.263,0.79L62.807,44.151z
	 M62.281,86.838c0.621-0.871,0.621-2.04,0-2.911l0.743-0.79l-1.223-0.263l-0.232-1.239L60.02,82.89l-1.548-1.27l-0.232,1.239
	l-1.223,0.263l0.712,0.821c-0.308,0.456-0.465,0.998-0.449,1.548c0.003,0.664,0.251,1.304,0.697,1.796c0,0-0.991,0.325-2.539-1.192
	c-0.793-0.784-1.443-1.701-1.92-2.71v2.71c0.39,0.955,0.952,1.832,1.657,2.586c0.747,0.616,1.627,1.051,2.57,1.27
	c-0.184,0.945-0.63,1.819-1.285,2.524c-0.581,0.857-1.329,1.589-2.199,2.152h2.617l3.36-3.484h4.01l2.338,1.099
	c-0.296,0.416-0.616,0.815-0.96,1.192c-0.439,0.421-0.899,0.819-1.378,1.192h2.384l2.818-3.19c0.701,0.131,1.315,0.553,1.688,1.161
	c0.248,0.542-1.239,2.013-1.192,2.013h2.802v-3.577L69.542,89.3v-2.431c0.019-0.599-0.161-1.187-0.511-1.672
	c-0.759-1.006-2.756-0.418-3.174-0.774s-0.248-1.44-0.248-1.44c-0.658,0.145-1.107,0.753-1.053,1.424
	c0.032,0.513,0.367,0.958,0.852,1.13c0.48,0.263,1.548,0,2.106,0.526c0.237,0.187,0.341,0.497,0.263,0.79h-5.496V86.838z
	 M39.598,64.326c0.668-0.838,0.73-2.007,0.155-2.911l0.79-0.728l-1.208-0.341l-0.155-1.254l-1.548,1.146l-1.44-1.378l-0.325,1.223
	l-1.239,0.17l0.65,0.867c-0.346,0.444-0.541,0.986-0.557,1.548c-0.045,0.664,0.16,1.321,0.573,1.842c0,0-1.006,0.248-2.446-1.363
	c-0.74-0.835-1.327-1.794-1.734-2.833l-0.186,2.694c0.35,0.965,0.875,1.857,1.548,2.632c0.7,0.673,1.549,1.171,2.477,1.455
	c-0.254,0.931-0.764,1.773-1.471,2.431c-0.636,0.813-1.431,1.488-2.338,1.982l2.601,0.201l3.592-3.236l3.995,0.279l2.261,1.254
	c-0.324,0.391-0.67,0.764-1.037,1.115c-0.466,0.387-0.952,0.748-1.455,1.084l2.369,0.17l3.097-2.988
	c0.668,0.193,1.228,0.652,1.548,1.27c0.217,0.557-1.378,1.92-1.316,1.92l2.787,0.201l0.248-3.515l-3.097-1.951l0.17-2.431
	c0.063-0.595-0.074-1.194-0.387-1.703c-0.681-1.053-2.725-0.619-3.097-0.991c-0.372-0.372-0.155-1.455-0.155-1.455
	c-0.664,0.1-1.153,0.675-1.146,1.347c-0.005,0.517,0.3,0.987,0.774,1.192c0.464,0.294,1.548,0.108,2.059,0.666
	c0.226,0.201,0.312,0.518,0.217,0.805L39.598,64.326z M86.218,64.961c0.542-0.922,0.437-2.087-0.263-2.895l0.681-0.836l-1.239-0.17
	l-0.325-1.223l-1.409,1.347l-1.626-1.161l-0.155,1.254l-1.208,0.341l0.759,0.774c-0.609,1.091-0.412,2.454,0.48,3.329
	c0,0-0.975,0.387-2.617-1.006c-0.85-0.728-1.568-1.597-2.121-2.57l0.186,2.694c0.471,0.9,1.1,1.708,1.858,2.384
	c0.787,0.564,1.693,0.94,2.648,1.099c-0.114,0.953-0.495,1.855-1.099,2.601c-0.519,0.886-1.208,1.659-2.028,2.276l2.601-0.155
	l3.097-3.7l4.072-0.263l2.415,0.929c-0.267,0.433-0.556,0.852-0.867,1.254c-0.412,0.445-0.846,0.869-1.301,1.27l2.369-0.155
	l2.586-3.375c0.707,0.085,1.347,0.461,1.765,1.037c0.294,0.526-1.099,2.09-1.037,2.09l2.787-0.201l-0.248-3.515l-3.298-1.548
	l-0.17-2.431c-0.02-0.6-0.238-1.177-0.619-1.641c-0.821-0.944-2.787-0.232-3.236-0.557s-0.356-1.409-0.356-1.409
	c-0.672,0.189-1.084,0.864-0.944,1.548c0.068,0.51,0.433,0.93,0.929,1.068c0.495,0.232,1.548-0.108,2.137,0.372
	c0.251,0.172,0.378,0.475,0.325,0.774L86.218,64.961z M50.607,102.801v-25.33c-11.752-0.635-21.258-1.904-22.93-2.137
	c1.548,12.557,13.207,21.816,22.93,27.451V102.801z M98.604,75.489c-1.254,0.155-11.055,1.393-23.225,2.013v25.439
	c9.863-5.605,21.692-14.864,23.302-27.451H98.604z M75.38,31.672v24.308c5.815-0.342,11.605-1.019,17.341-2.028
	c-0.991-1.796-1.935-3.484-2.694-5.125c-1.175-2.307-1.831-4.844-1.92-7.432c0.148-3.878,1.266-7.658,3.251-10.993
	c-3.669,0.449-9.042,0.991-15.855,1.27H75.38z M34.783,30.403c1.985,3.335,3.103,7.115,3.251,10.993
	c-0.089,2.588-0.744,5.125-1.92,7.432c-0.774,1.672-1.734,3.406-2.756,5.249c5.671,0.977,11.394,1.624,17.14,1.935V31.657
	c-6.534-0.263-11.845-0.805-15.591-1.254H34.783z M100.307,31.13c-1.294,1.11-2.94,1.724-4.645,1.734
	c-0.784-0.001-1.562-0.127-2.307-0.372c-1.48,2.697-2.307,5.704-2.415,8.779c0,8.237,10.637,16.335,10.637,31.167
	c0,11.225-7.246,20.128-15.483,26.553l3.097,3.964l0.077-4.815l3.886,4.955c2.121-0.975,3.406-1.301,4.738-1.92
	c1.827-0.836,1.904-1.347,1.904-1.424c-1.699-0.043-3.047-1.447-3.019-3.147c0.028-1.7,1.421-3.059,3.121-3.045
	c1.7,0.014,3.071,1.396,3.071,3.096c-0.033,1.863-0.699,3.66-1.889,5.094c-2.256,3.047-5.165,5.549-8.516,7.323l5.264,0.093
	c1.042,1.124,2.004,2.319,2.88,3.577c1.497,2.122,2.608,4.491,3.282,6.998c0.268-0.025,0.537-0.025,0.805,0
	c0.934-0.003,1.841,0.314,2.57,0.898c-0.175-0.021-0.352-0.021-0.526,0c-1.074,0.005-1.966,0.829-2.057,1.899
	c-0.091,1.07,0.649,2.033,1.707,2.219c1.057,0.186,2.083-0.465,2.363-1.501c0.018,0.211,0.018,0.424,0,0.635
	c0,2.27-1.84,4.111-4.111,4.111c-2.27,0-4.111-1.84-4.111-4.111c0.001-0.464,0.079-0.925,0.232-1.363
	c-2.215-1.26-4.174-2.925-5.775-4.908c-1.848-2.238-3.408-4.698-4.645-7.323c-2.23,1.053-3.53,1.409-4.908,2.044
	c-2.028,0.929-1.889,1.332-1.889,1.332c1.106,0.019,2.118,0.627,2.655,1.595c0.536,0.968,0.516,2.148-0.054,3.097
	c-0.57,0.948-1.603,1.521-2.709,1.501c-1.71,0-3.097-1.386-3.097-3.097c0.006-1.894,0.668-3.726,1.873-5.187
	c1.511-2.013,3.305-3.796,5.326-5.295l-3.995-5.404c-6.351,4.469-13.244,8.111-20.515,10.838
	c-8.334-3.113-16.16-7.443-23.225-12.851l-6.193,7.742c0.6,0.091,1.021,0.639,0.954,1.241c-0.067,0.603-0.597,1.046-1.202,1.004
	l-0.542-0.155c-0.93-0.476-1.811-1.042-2.632-1.688c-0.838-0.657-1.606-1.399-2.291-2.214l-0.217-0.635
	c0-0.3,0.119-0.587,0.331-0.799c0.212-0.212,0.499-0.331,0.799-0.331c0.43-0.002,0.824,0.238,1.022,0.619l6.364-7.958
	C29.797,89.61,24.657,81.837,24.657,72.47c0-14.833,10.637-22.93,10.637-31.167c-0.214-3.942-1.493-7.751-3.7-11.024L22.52,17.985
	L14.345,3.369l11.643,12.046l9.29,12.092c9.251,1.072,18.557,1.589,27.87,1.548c8.584,0.038,17.164-0.386,25.702-1.27
	c-0.215-0.66-0.33-1.349-0.341-2.044c-0.017-1.349,0.348-2.675,1.053-3.824c0.725-1.43,1.636-2.758,2.71-3.948
	c2.178,1.223,4.25,2.627,6.193,4.196l1.378,1.115c-0.631,0.925-1.314,1.814-2.044,2.663c-0.646,0.866-1.389,1.656-2.214,2.353
	c-0.17,0.209-0.25,0.477-0.22,0.745c0.029,0.268,0.164,0.513,0.375,0.68c0.464,0.356,0.759,0.186,1.208,0
	c0.966-0.389,1.841-0.974,2.57-1.719c0.951-0.848,1.817-1.786,2.586-2.802c0.898,0.852,1.548,1.641,1.982,2.106
	c-1.01,1.459-2.243,2.749-3.654,3.824H100.307z M104.906,14.362c1.829-1.524,4.475-1.563,6.348-0.093
	c1.504,1.198,2.182,3.155,1.741,5.026c-0.44,1.871-1.92,3.32-3.8,3.722l-0.356-0.279c-0.139-0.17-0.619-0.743-1.44-1.548
	c0.263-1.13,0.944-3.933,0.929-3.979c-0.015-0.046-2.307,0.96-3.561,1.548c-0.619-0.542-1.316-1.115-2.075-1.734
	c-0.759-0.619-1.548-1.146-2.168-1.548c0.31-1.27,0.852-3.577,0.836-3.623c-0.015-0.046-2.771,1.161-3.871,1.641
	c-1.022-0.604-1.672-0.913-1.812-0.975l-0.294-0.232c-0.103-1.962,0.959-3.801,2.71-4.691c1.751-0.891,3.863-0.666,5.388,0.573
	C105.354,9.641,105.947,12.22,104.906,14.362z M113.901,11.389l-4.242,0.464c-0.855,0.188-1.749,0.02-2.477-0.464
	c-0.629-0.596-0.987-1.424-0.991-2.291l-0.48-4.18l2.353,1.858l3.979-1.455l-0.511,4.196L113.901,11.389z M105.541,25.881
	c-1.746-1.944-3.663-3.726-5.729-5.326c-2.071-1.67-4.301-3.132-6.658-4.366c-0.562-0.439-0.684-1.24-0.279-1.827
	c0.392-0.493,1.07-0.653,1.641-0.387c2.483,1.251,4.819,2.772,6.967,4.537c2.267,1.707,4.344,3.653,6.193,5.806
	c0.336,0.462,0.336,1.087,0,1.548c-0.205,0.274-0.514,0.452-0.854,0.49s-0.681-0.066-0.942-0.288L105.541,25.881z M20.616,110.171
	c0,0,1.161-0.434,3.546-1.548c1.063-0.467,2.075-1.043,3.019-1.719c0,0,0.186,0.232,0.449,0.511c0.451,0.474,0.932,0.919,1.44,1.332
	c0.493,0.417,1.01,0.805,1.548,1.161l0.573,0.325c-0.429,0.997-0.756,2.034-0.975,3.097c-0.573,2.539-0.728,3.778-0.728,3.778
	c-1.635-0.86-3.19-1.865-4.645-3.004C23.306,112.938,21.89,111.62,20.616,110.171L20.616,110.171z M18.371,119.802
	c-1.74-2.201-1.74-5.309,0-7.509c0.205-0.257,0.433-0.496,0.681-0.712c1.304,1.57,2.79,2.978,4.428,4.196
	c1.61,1.255,3.343,2.344,5.171,3.251c-0.153,0.294-0.34,0.57-0.557,0.821c-1.629,2.006-4.332,2.79-6.782,1.966
	c-0.17-0.011-0.341-0.011-0.511,0c-0.502-0.034-0.996,0.139-1.367,0.478c-0.371,0.339-0.588,0.815-0.599,1.318
	c0,1,0.811,1.812,1.812,1.812h0.31c-0.912,1.544-2.803,2.207-4.48,1.571c-1.677-0.636-2.652-2.387-2.31-4.147
	c0.342-1.76,1.901-3.019,3.694-2.982h0.542L18.371,119.802z M57.729,2.44c6.101-3.254,13.423-3.254,19.524,0H57.729z M42.246,20.819
	c0,0,3.097-0.495,8.16-1.548l1.92-4.521c0,0-2.09,0.201-7.587,2.942c-2.436,1.081-4.747,2.425-6.89,4.01
	c7.678,1.279,15.441,1.983,23.225,2.106c7.811-0.08,15.609-0.649,23.348-1.703c0.262-2.105,0.355-4.228,0.279-6.348
	c-0.117-2.241-0.449-4.465-0.991-6.642c0.071,1.883-0.069,3.768-0.418,5.62c-0.325,1.606-0.845,3.165-1.548,4.645
	c-6.751,1.714-13.689,2.577-20.654,2.57c-6.309,0.248-12.626-0.136-18.858-1.146L42.246,20.819z M53.997,18.512
	c3.174-0.712,6.813-1.548,10.838-2.756c12.804-3.654,18.301-8.64,18.301-8.64h-4.97V3.679c-3.429,1.196-7.036,1.798-10.668,1.781
	c-3.585-0.019-7.15-0.54-10.59-1.548l-1.657,3.824c0.818,0.562,1.748,0.942,2.725,1.115c1.073,0.307,2.172,0.514,3.282,0.619
	c-0.545,1.595-1.397,3.068-2.508,4.335c-1.501,1.646-3.088,3.212-4.753,4.691V18.512z M58.642,19.688c0,0,1.997,0.186,2.957,0.232
	c0.766,0.02,1.533-0.026,2.291-0.139c0.232-0.271,0.425-0.574,0.573-0.898c0.186-0.434,0.403-1.099,0.403-1.099
	s-1.75,0.635-2.864,0.975c-1.115,0.341-3.406,0.914-3.406,0.914L58.642,19.688z M66.74,18.279c0,0,2.044,0.201,3.019,0.201
	c0.783-0.018,1.565-0.091,2.338-0.217c0.223-0.352,0.41-0.725,0.557-1.115c0.159-0.415,0.274-0.846,0.341-1.285
	c0,0-1.75,0.836-2.895,1.223c-1.146,0.387-3.406,1.177-3.406,1.177L66.74,18.279z M74.574,16.344c0,0,2.261,0.17,3.251,0.093
	c0.777-0.035,1.544-0.186,2.276-0.449c0.206-0.393,0.367-0.809,0.48-1.239c0.144-0.506,0.237-1.024,0.279-1.548
	c0,0-1.858,1.161-3.097,1.75C76.525,15.539,74.574,16.344,74.574,16.344z"/>
</svg>
