<?xml version="1.0" encoding="iso-8859-1"?>
<!-- Generator: Adobe Illustrator 27.7.0, SVG Export Plug-In . SVG Version: 6.00 Build 0)  -->
<svg version="1.1" id="Layer_1" xmlns="http://www.w3.org/2000/svg" xmlns:xlink="http://www.w3.org/1999/xlink" x="0px" y="0px"
	 viewBox="0 0 128 128" style="enable-background:new 0 0 128 128;" xml:space="preserve">
<g>
	<g>
		<path d="M55.307,51.609c0,1.145,0.893,2.038,2.038,2.038h1.832c1.145,0,2.038-0.893,2.038-2.038v-2.153h24.892v2.153
			c0,1.145,0.893,2.038,2.061,2.038h1.809c1.168,0,2.038-0.893,2.038-2.038V41.441c0-2.679-0.435-4.213-1.946-5.931l-1.534-1.74
			l-1.695-4.786c-0.893-2.565-2.565-3.641-4.717-3.893c-1.053-0.115-4.534-0.206-8.45-0.206c-3.939,0-7.419,0.092-8.473,0.206
			c-2.153,0.252-3.824,1.328-4.717,3.893l-1.695,4.786l-1.534,1.74c-1.511,1.717-1.946,3.252-1.946,5.931V51.609z"/>
		<path style="fill:#FFFFFF;" d="M62.864,33.633c-0.71,0-0.962-0.527-0.733-1.214l0.962-2.885c0.412-1.214,1.053-1.626,2.13-1.786
			c1.122-0.137,3.984-0.252,8.45-0.252c4.442,0,7.305,0.115,8.427,0.252c1.076,0.16,1.695,0.572,2.107,1.786l0.985,2.885
			c0.229,0.687-0.046,1.214-0.756,1.214H62.864z"/>
		<path style="fill:#FFFFFF;" d="M60.803,43.479c-0.939,0-1.603-0.664-1.603-1.58v-2.473c0-0.916,0.664-1.58,1.603-1.58
			c0.893,0,1.557,0.664,1.557,1.58v2.473C62.36,42.815,61.696,43.479,60.803,43.479z"/>
		<path style="fill:#FFFFFF;" d="M70.055,42.769c-0.733,0-1.191-0.481-1.191-1.259v-1.717c0-0.756,0.458-1.214,1.191-1.214h7.122
			c0.733,0,1.214,0.458,1.214,1.214v1.717c0,0.779-0.481,1.259-1.214,1.259H70.055z"/>
		<path style="fill:#FFFFFF;" d="M86.657,43.479c-0.893,0-1.58-0.687-1.58-1.58v-2.473c0-0.916,0.687-1.58,1.58-1.58
			c0.916,0,1.58,0.664,1.58,1.58v2.473C88.237,42.815,87.573,43.479,86.657,43.479z"/>
	</g>
	<path d="M20.852,99.458h5.343c2.251,0,3.394-1.305,4.032-3.343L54.15,24.529c0.504-1.508-0.101-2.731-1.344-2.731h-2.52
		c-1.277,0-2.083,0.693-2.621,2.038L18.265,94.402C17.257,96.767,17.996,99.458,20.852,99.458z"/>
	<g>
		<path d="M42.626,96.467c0,1.68,1.31,2.99,2.99,2.99h2.688c1.68,0,2.99-1.31,2.99-2.99v-3.158h36.524v3.158
			c0,1.68,1.31,2.99,3.024,2.99h2.655c1.714,0,2.99-1.31,2.99-2.99V81.548c0-3.931-0.638-6.182-2.856-8.703l-2.251-2.554
			l-2.486-7.023c-1.31-3.763-3.763-5.342-6.922-5.712c-1.546-0.168-6.653-0.302-12.399-0.302c-5.779,0-10.887,0.134-12.432,0.302
			c-3.158,0.37-5.611,1.949-6.922,5.712l-2.486,7.023l-2.251,2.554c-2.218,2.52-2.856,4.771-2.856,8.703V96.467z"/>
		<path style="fill:#FFFFFF;" d="M53.714,70.091c-1.042,0-1.411-0.773-1.075-1.781l1.411-4.234c0.605-1.781,1.546-2.386,3.125-2.621
			c1.646-0.202,5.846-0.37,12.399-0.37c6.519,0,10.719,0.168,12.365,0.37c1.579,0.235,2.486,0.84,3.091,2.621l1.445,4.234
			c0.336,1.008-0.067,1.781-1.109,1.781H53.714z"/>
		<path style="fill:#FFFFFF;" d="M50.69,84.539c-1.378,0-2.352-0.974-2.352-2.318v-3.629c0-1.344,0.974-2.318,2.352-2.318
			c1.31,0,2.285,0.974,2.285,2.318v3.629C52.975,83.564,52,84.539,50.69,84.539z"/>
		<path style="fill:#FFFFFF;" d="M64.265,83.497c-1.075,0-1.747-0.706-1.747-1.848v-2.52c0-1.109,0.672-1.781,1.747-1.781h10.45
			c1.075,0,1.781,0.672,1.781,1.781v2.52c0,1.142-0.706,1.848-1.781,1.848H64.265z"/>
		<path style="fill:#FFFFFF;" d="M88.625,84.539c-1.31,0-2.318-1.008-2.318-2.318v-3.629c0-1.344,1.008-2.318,2.318-2.318
			c1.344,0,2.318,0.974,2.318,2.318v3.629C90.944,83.564,89.969,84.539,88.625,84.539z"/>
	</g>
</g>
<path d="M63.975,128C99.01,128,128,99.01,128,64.025C128,28.99,98.961,0,63.926,0C28.941,0,0,28.99,0,64.025
	C0,99.01,28.99,128,63.975,128z M63.976,120c-14.784,0-28.794-5.869-39.451-16.525C13.869,92.818,8,78.808,8,64.024
	c0-14.81,5.862-28.837,16.505-39.498C35.146,13.869,49.146,8,63.926,8c14.812,0,28.847,5.872,39.521,16.534
	C114.121,35.197,120,49.222,120,64.024c0,14.785-5.87,28.795-16.529,39.449C92.808,114.131,78.781,120,63.976,120z"/>
<path style="opacity:0.6;fill:#FFFFFF;" d="M63.975,128C99.01,128,128,99.01,128,64.025C128,28.99,98.961,0,63.926,0
	C28.941,0,0,28.99,0,64.025C0,99.01,28.99,128,63.975,128z"/>
</svg>
