<?xml version="1.0" encoding="iso-8859-1"?>
<!-- Generator: Adobe Illustrator 27.7.0, SVG Export Plug-In . SVG Version: 6.00 Build 0)  -->
<svg version="1.1" id="Layer_1" xmlns="http://www.w3.org/2000/svg" xmlns:xlink="http://www.w3.org/1999/xlink" x="0px" y="0px"
	 viewBox="0 0 128 128" style="enable-background:new 0 0 128 128;" xml:space="preserve">
<g>
	<g>
		<linearGradient id="SVGID_1_" gradientUnits="userSpaceOnUse" x1="22.351" y1="-12.6671" x2="67.447" y2="70.3452">
			<stop  offset="0" style="stop-color:#F26649"/>
			<stop  offset="1" style="stop-color:#ED1C24"/>
		</linearGradient>
		<rect x="14.688" style="fill:url(#SVGID_1_);" width="98.625" height="128"/>
		
			<linearGradient id="SVGID_00000062165947172125566090000005001151995733101700_" gradientUnits="userSpaceOnUse" x1="22.351" y1="-12.6671" x2="67.447" y2="70.3452">
			<stop  offset="0" style="stop-color:#F26649"/>
			<stop  offset="1" style="stop-color:#ED1C24"/>
		</linearGradient>
		<path style="fill:url(#SVGID_00000062165947172125566090000005001151995733101700_);" d="M14.688,4.664V128c0,0,96.395,0,98.052,0
			C105.663,72.391,68.133,25.342,14.688,4.665V4.664z"/>
		
			<linearGradient id="SVGID_00000091698114153510065960000011268018330857503906_" gradientUnits="userSpaceOnUse" x1="22.351" y1="-12.6671" x2="67.447" y2="70.3452">
			<stop  offset="0" style="stop-color:#F26649"/>
			<stop  offset="1" style="stop-color:#ED1C24"/>
		</linearGradient>
		<path style="fill:url(#SVGID_00000091698114153510065960000011268018330857503906_);" d="M54.193,31.479
			c-0.268-0.374-0.198-0.271,0.167-0.744c0.356-0.482,0.167-0.258,0.73-0.13c0.566,0.117,0.61,0.355,0.409,0.673
			c-0.185,0.332-0.717,0.361-1.296,0.202h-0.011V31.479z M79.508,19.594c0,0,3.399,3.556,3.014,10.569
			c-0.385,7.01-4.039,12.546-4.039,12.546s5.133-4.838,4.873-12.923c-0.258-8.09-3.846-10.191-3.846-10.191h-0.002L79.508,19.594z
			 M101.196,71.437c0,0,0.39-3.533-1.694-4.219c-2.09-0.691-3.729-0.943-4.429,0.804c-0.688,1.759-1.283,4.934-2,6.314
			c-0.717,1.382-2.123,2.538-3.049,2.538c-0.92,0-2.911-0.134-2.911-0.134l-0.524-1.234c0,0,2.279,0.903,3.434,0.326
			c1.159-0.575,2.16-1.113,2.743-3.53c0.577-2.412,0.113-6.371,1.042-8.676c0.918-2.294,3.007-4.743,5.465-4.512
			c2.447,0.234,3.628,0.374,4.871,2.686c1.078,2.002,1.742,4.985-0.39,10.03c-1.382,3.258-2.577,4.448-3.599,8.061
			c-1.1,3.923,1.804,4.392,3.072,7.5c1.277,3.105,0.239,2.974,0,5.164c-0.231,2.18,0.526,5.19,0.526,5.19l-1.571-1.48
			c0,0,0.742-4.07,0.388-5.685c-0.35-1.604-3.309-4.4-3.309-4.4s2.231,3.229,2.13,5.867c-0.128,3.452-1.542,6.538-1.542,6.538
			s1.382-3.676-0.061-6.6c-0.92-1.857-1.248-1.015-2.292-3.75c-0.75-1.965-0.66-4.244-0.66-4.244s-0.957,2.188-0.486,4.742
			c0.462,2.554,0.83,2.299,0.369,3.935c-0.506,1.796-1.996,3.593-1.996,3.593s1.265-1.997,0.51-4.47
			c-0.809-2.653-1.311-2.055-1.248-4.63c0.086-3.426,2.617-5.258,2.617-5.258s-1.975-0.04-3.144,2.722
			c-1.155,2.761-0.814,3.997-0.814,3.997s-1.39-2.642,0.35-5.315c1.73-2.667,2.099-1.657,4.414-4.77
			c2.317-3.104,4.309-4.363,4.657-7.847c0.348-3.473-0.071-6.468-1.642-6.831c-3.468-0.811-5.005,2.322-5.005,2.322
			s2.636-1.774,4.632-0.507c1.996,1.273,1.149,5.774,1.149,5.774L101.196,71.437L101.196,71.437z M104.987,70.596
			c0,0-0.522,2.01-1.96,5.306c-0.973,2.22-2.198,4.718-0.986,7.291c0.677,1.436,1.452,1.7,2.495,4.202
			c1.049,2.511-0.2,4.232-0.2,4.232s1.839-1.856,1.344-3.906c-0.493-2.051-2.332-4.225-2.783-5.408
			c-0.724-1.892,0.315-4.774,0.915-6.345c1.17-3.105,1.17-5.373,1.17-5.373h0.004V70.596z M63.211,9.996
			c0,0,0.866-0.632,2.009-0.632c1.144,0,2.627,0.736,2.627,0.736s0.105,1.056-0.107,1.581c-0.209,0.521-0.209,0.92-0.209,0.92
			l-1.273,0.209c0,0,0.021-0.815-0.933-1.657c-0.948-0.841-2.107-1.158-2.107-1.158L63.211,9.996L63.211,9.996z M60.276,11.046
			c0,0,1.241-0.524,2.933,0.207c1.696,0.745,1.478,2.295,1.478,2.295s-0.209,0.313-0.957,0.844c-0.74,0.522-0.843,0.522-0.843,0.522
			s-0.466-0.482-1.237-0.638c-0.757-0.155-2.218-0.107-0.849-0.421c0.858-0.192,2.407,0.377,2.409-0.093
			c0-0.539-0.371-1.405-1.005-1.818c-0.646-0.427-1.944-0.9-1.944-0.9h0.014L60.276,11.046z M72.266,13.024
			c0,0,0.724-0.688,1.591-1.137c0.858-0.436,2.833-0.633,2.833-0.633s-1.275,0.533-2.114,1.769
			c-0.807,1.185-1.038,1.892-1.038,1.892l-0.53-0.315l-0.736-1.577h-0.005V13.024z M75.212,15.653c0,0,2.554-1.26,3.705-1.467
			c1.139-0.215,1.353-0.324,2.301,0c0.957,0.311,1.036,0-0.627,0.626c-1.674,0.631-2.737,2.391-2.737,2.391s-0.633-0.601-1.162-1.02
			c-0.543-0.421-1.491-0.529-1.491-0.529h0.011V15.653z M79.003,18.262c0,0,0.526,0.526,2.216,0.421
			c1.698-0.11,1.885-0.736,3.582-0.21c1.69,0.523,2.428,1.794,2.428,1.794l-1.795,0.101c0,0-0.971-0.631-1.692-0.732
			c-0.719-0.106-1.885,0.101-1.885,0.101s1.142,0.128,2.208,0.944c1.052,0.821,0.841,1.244,2.002,2.088
			c1.162,0.838,2.099,0.652,2.732,1.892c0.636,1.239,1.692,3.34,1.692,3.34s-1.289-0.734-2.438-0.631
			c-1.14,0.11-1.562,0.631-2.196,0.317c-0.636-0.317-1.48-0.95-1.48-0.95l-0.348-2.18c0,0,1.042,0.808,1.824,0.841
			c0.332,0.015,0.854-0.11,0.854-0.11s-1.677-0.47-1.916-1.352c-0.203-0.754-1.872-1.588-1.872-1.588s-1.38-2.294-1.91-2.711
			c-0.499-0.427-1.98-1.372-1.98-1.372h-0.026V18.262z M90.374,32.819c0,0-1.395-1.769-2.214-2.714
			c-0.827-0.949-0.935-1.057-0.935-1.057s-0.526,0.319-1.059,0.111c-0.524-0.209-1.908-0.943-1.908-0.943s0.325,1.071,0.325,1.683
			c0,0.602-0.105,1.132-0.105,1.132s0.95-0.421,1.688,0c0.742,0.425,0.827-0.316,1.676,0c0.847,0.313,2.53,1.79,2.53,1.79h0.001
			L90.374,32.819z M84.478,32.398c0,0,0.526-0.422,0.95-0.21l0.845,0.523c0,0-0.508,1.346,0.528,2.505
			c1.04,1.156,2.942,2.63,3.154,4.922c0.209,2.286-0.432,3.869-0.432,3.869s0.673-2.013-1.579-4.598
			c-1.361-1.561-0.724-0.726-2.625-1.144c-1.613-0.358-1.692-1.793-1.692-1.793s0.172-0.427,0.323-0.935
			c0.107-0.396,2.636,2.835,0.205-1.144c-0.113-0.183,0.035-0.472,0.067-0.738c0.11-0.628,0.266-1.255,0.266-1.255h-0.011V32.398z
			 M80.153,43.398c0,0,3.324-2.376,5.014-0.398c1.69,1.976,0.363,2.583,0.18,5.164c-0.176,2.522,2.598,3.711,2.598,3.711
			s-1.172-0.875,0.18-4.111c0.684-1.627,0.552-7.123-3.443-7.419c-0.908-0.063-1.562-1.452-1.562-1.452s-0.64,1.558-1.271,2.396
			c-0.636,0.844-1.705,2.107-1.705,2.107L80.153,43.398L80.153,43.398z M63.312,44.738c0,0,2.118-0.522,2.413-1.047
			c0.295-0.526,0.212-1.241,1.373-0.927s1.036,2.081,2.942,2.503c1.906,0.423,5.374-0.316,5.374-0.316s-3.682,2.209-5.559,1.992
			c-1.883-0.205-1.586-1.47-2.86-2.112c-1.26-0.627-3.682-0.094-3.682-0.094h-0.001L63.312,44.738z M78.855,44.352
			c0,0-1.544,0.701-2.338,1.76c-1.529,2.019-0.367,0.696-1.722,2.462c-1.124,1.468-1.784,1.99-4.536,2.517
			c-0.959,0.185-4.718-0.527-4.718-0.527s1.776,1.665,5.659,1.374c3.611-0.276,5.064-1.477,5.064-1.477s-1.221,3.327-7.893,2.815
			c-1.738-0.129-3.183,0.755-3.183,0.755s0,1.312-1.128,2.695c-1.144,1.413-2.328,1.586-2.328,1.586s1.465,0.638,4.081-2.043
			c1.032-1.066,0.293-1.255,1.283-1.582c0.66-0.218,4.297,0.019,7.788-1.051c2.561-0.797,3.705-4.074,3.919-5.391
			c0.053-0.319-4.147,2.222-1.23-1.956c0.415-0.702,1.298-1.934,1.298-1.934h-0.014L78.855,44.352z M80.943,44.528
			c0.834-0.48,1.544-0.989,2.479-0.26c1.342,1.054-0.212,2.033,0.105,4.029c0.317,1.995,1.086,2.996,1.086,2.996
			s-1.672,1.085-2.484,1.893c-0.968,0.971-0.968,2.202-0.968,2.202s-0.797-1.407,0.801-3.12c0.864-0.91,1.447-2.519,0.784-4.173
			c-1.142-2.911-2.35-2.139-3.932-1.109c-1.279,0.845,0.315-1.403,2.134-2.457h-0.005L80.943,44.528z M50.475,41.183
			c0,0-2.202-1.745-3.579-2.275c-1.373-0.52-2.688-2.103-3.296-3.047c-0.625-0.95-1.465-2.495-3.152-3.626
			c-1.566-1.054-1.677-0.625-5.89,0.116c-4.206,0.731-4.532,0.866-6.345,0.866c-2.913,0-4.12,1.458-2.797,1.678
			c2.519,0.42,2.95,2.248,3.615,1.503c1.449-1.613,3.155-1.797,5.357-1.901c2.2-0.108,3.368-0.545,4.085,0.079
			c0.717,0.637,0.086,0.74,1.142,1.689c1.056,0.94,0.636,0.127,1.269,1.58c0.638,1.445,1.054,4.895,4.317,6.681
			c3.261,1.795,2.94,1.436,2.94,1.436s0.107-1.723,0.847-2.776c0.482-0.679,0.979-1.347,1.491-2.004L50.475,41.183z M25.934,36.288
			c0,0-1.38-0.864-3.053,0.395c-1.672,1.268-2.558,3.373-2.139,3.526c0.682,0.244,3.338-0.155,3.518-0.671
			c0.447-1.333,0.504-2.072,0.929-2.498c0.424-0.417,0.746-0.752,0.746-0.752H25.934z M20.652,40.437
			c-0.222-0.093-0.273-0.313-0.271-0.461c0.027-0.759,0.893-2.364,2.338-3.486c0.746-0.566,1.457-0.736,2.024-0.736
			c0.783,0,1.287,0.312,1.309,0.324l-0.128,0.208l0.128-0.208l0.253,0.161l-0.207,0.215l-0.748,0.753
			c-0.335,0.316-0.427,1.051-0.876,2.405c-0.378,0.696-1.988,0.855-3.097,0.91c-0.286-0.006-0.524-0.019-0.728-0.086h0.003V40.437z
			 M21.387,40.037c0.493,0,1.162-0.083,1.709-0.211c0.554-0.104,0.937-0.334,0.929-0.365c0.449-1.312,0.476-2.048,0.99-2.591
			l0.499-0.5c-0.245-0.086-0.502-0.128-0.761-0.126c-0.468,0-1.065,0.134-1.722,0.633c-1.342,0.99-2.172,2.659-2.147,3.103v0.023
			c0.092,0.019,0.286,0.035,0.497,0.035h0.006L21.387,40.037z M36.756,72.01c0.803,0.898,1.155,1.161,2.086,1.665
			c0.931,0.512,1.397,0.365,1.397,0.365s0.105-1.069,0.065-1.72c-0.059-1.03-0.596-1.731-0.596-1.731s-1.115-0.219-1.738-0.524
			c-0.484-0.238-0.594-1.138-0.594-1.138s-1.986,1.558-0.625,3.082L36.756,72.01z M38.725,73.886
			c-0.939-0.51-1.346-0.814-2.151-1.718l0.183-0.159l0.185-0.159c0.797,0.887,1.096,1.1,2.022,1.615
			c0.52,0.279,0.871,0.342,1.052,0.35c0.021-0.267,0.061-0.748,0.061-1.169l-0.011-0.31c-0.041-0.543-0.214-1.068-0.504-1.53
			c-0.288-0.057-1.139-0.249-1.692-0.527c-0.367-0.204-0.55-0.575-0.636-0.875c-0.3,0.321-0.724,0.872-0.717,1.455
			c0.004,0.308,0.112,0.632,0.424,0.992l-0.185,0.159l-0.183,0.159c-0.385-0.426-0.543-0.887-0.539-1.311
			c0.017-1.237,1.183-2.101,1.183-2.124l0.341-0.266l0.059,0.426c0.002,0,0.157,0.844,0.457,0.947
			c0.574,0.285,1.672,0.505,1.676,0.505l0.09,0.02l0.059,0.071c0.011,0.02,0.577,0.758,0.65,1.867l0.004,0.337
			c0,0.648-0.077,1.413-0.077,1.417l-0.015,0.165l-0.161,0.043l-0.249,0.026c-0.249,0.001-0.7-0.063-1.315-0.409h-0.012V73.886z
			 M57.11,70.286c0,0,0.094,2.382,1.363,3.967c1.269,1.578,3.152,2.543,3.999,3.577c0.843,1.026,1.48,2.713,1.48,2.713
			s-1.289-0.331-1.718,1.438c-0.422,1.767,0.631,3.057,0.121,3.371c-0.499,0.315-2.301,0.631-4.603,2.078
			c-2.308,1.445-7.92,4.79-8.849,5.738c-0.933,0.946-1.818,1.963-1.818,1.963s-0.57-0.654-1.63-0.235
			c-1.054,0.425-1.155,0.99-1.155,0.99l-2.396-0.288c0,0,1.139-1.265,1.465-2.206c0.312-0.952,1.566-0.348,2.948-1.092
			c1.371-0.729,3.023-1.966,5.441-3.945c2.411-1.981,4.72-3.444,4.299-4.677c-0.425-1.243-3.183-2.174-4.536-5.522
			c-1.355-3.346-0.508-6.478,0.52-7.007c1.03-0.513,5.062-0.852,5.062-0.852L57.11,70.286L57.11,70.286z M40.712,97.047
			c-0.418,0.53-0.52,1.336-0.748,2.344c-0.218,1.008-0.145,2.132-0.145,2.132s1.654-0.267,2.688-1.425
			c1.038-1.157,1.015-2.099,0.935-2.52c-0.079-0.425-0.506-0.739-0.506-0.739s-1.804-0.322-2.227,0.202
			C40.71,97.042,40.712,97.047,40.712,97.047z M39.58,101.538l-0.015-0.499c0-0.437,0.025-1.079,0.165-1.708
			c0.224-0.996,0.31-1.819,0.794-2.44c0.317-0.367,0.83-0.38,1.313-0.392c0.587,0,1.137,0.096,1.243,0.143
			c0.011,0.015,0.48,0.333,0.603,0.889c0.021,0.107,0.042,0.248,0.035,0.422c0.009,0.548-0.195,1.376-1.03,2.302
			c-1.103,1.241-2.81,1.494-2.827,1.502l-0.264,0.038l-0.019-0.267L39.58,101.538L39.58,101.538z M40.206,99.44
			c-0.108,0.526-0.16,1.061-0.156,1.598l0.004,0.178c0.493-0.132,1.564-0.481,2.275-1.286c0.753-0.846,0.902-1.538,0.904-1.979
			l-0.027-0.332c-0.046-0.266-0.332-0.522-0.332-0.55c-0.092-0.014-0.559-0.093-1.036-0.093c-0.44-0.01-0.869,0.1-0.935,0.215
			c-0.348,0.451-0.46,1.232-0.69,2.255C40.214,99.445,40.206,99.44,40.206,99.44z M77.961,120.734c0,0,1.885-0.523,2.728-1.472
			c0.849-0.944,1.166-1.243,1.166-1.762c0-0.528-0.101-2.422-0.101-2.422s-0.325,0.421-1.271,0.631
			c-0.954,0.209-1.038,0.42-1.566,1.265c-0.533,0.836-0.957,3.753-0.957,3.753v0.006H77.961z M77.722,120.697
			c0.004-0.017,0.398-2.897,0.979-3.862c0.495-0.815,0.732-1.168,1.722-1.366c0.898-0.196,1.124-0.543,1.124-0.543l0.4-0.538
			l0.04,0.67c0,0,0.11,1.891,0.11,2.439c-0.015,0.654-0.403,0.99-1.227,1.921c-0.937,1.033-2.829,1.535-2.843,1.543l-0.067-0.231
			l0.067,0.231l-0.363,0.098l0.057-0.367L77.722,120.697L77.722,120.697z M80.529,115.939c-0.918,0.223-0.838,0.286-1.409,1.148
			c-0.371,0.572-0.724,2.46-0.862,3.282c0.581-0.202,1.703-0.65,2.248-1.277c0.864-0.963,1.111-1.22,1.103-1.6
			c0-0.352-0.046-1.34-0.084-1.939c-0.305,0.189-0.642,0.32-0.994,0.386L80.529,115.939z M85.342,82.733
			c1.417-4.913,0.677-4.173-0.849-7.409c-1.527-3.247-1.722-4.181-3.749-6.114c0,0-0.574-1.17-4.053-4.026
			c-2.18-1.779-3.273-3.286-4.301-5.649c-0.744-1.723-0.636-3.631-0.636-3.631s-3.522,0.209-4.164,0.702
			c-0.977,0.746-3.452,3.588-6.224,3.439c-4.743-0.253-5.261-2.673-5.261-2.673s6.167,1.531,7.444-2.486
			c0.33-1.045-1.411-0.633-3.527,0.638c-0.862,0.517,0.128-2.422,3.393-2.55c4.426-0.172,2.374-0.828,0.262-1.333
			c-2.213-0.539-4.941,0.577-4.941,0.577s0.825-1.151,3.146-2.485c3.355-1.932,6.001,0.23,7.37,0.127
			c3.399-0.257,4.804-2.749,4.804-2.749s-2.114,1.428-4.29,1.473c-3.529,0.068-2.623-2.406-5.32-2.742
			c-2.053-0.256-3.525,1.979-3.525,1.979s-0.77-3.379,2.369-4.271c2.191-0.624,1.109-2.486,3.148-2.486
			c4.167,0,2.571,2.474,4.985,2.844c2.401,0.364,3.894-0.634,5.374-1.981c1.903-1.994,5.903-11.749,3.124-17.95
			c-1.232-3.353-2.546-5.22-3.793-6.302v-0.011c-1.267-1.093-2.475-1.375-3.46-1.569c-0.646-0.133-1.155-1.659-1.155-1.659
			s-0.258-1.789-0.872-3.206c-0.832-1.926-1.667-1.48-1.667-1.48s-0.117,0.505,0.035,1.686c0.149,1.183-0.035,2.191-0.035,2.191
			s-0.726,1.449-1.248,0.935c-0.524-0.519-0.514-1.147-0.514-1.147s-0.73,0.169-2.671,1.95c-1.95,1.776-2.653,1.97-3.254,4.015
			c-0.992,1.775-2.134,3.424-4.321,5.158c-2.185,1.722-3.812,2.235-4.365,2.759c-0.915,0.575-0.242,0.761,0,1.323
			c0.237,0.559,0.143,1.329,1.892,0.886c1.25,0.038,1.447,0.479,1.856,0.752c1.445,0.957-0.805,2.627,0,2.756
			c1.846,0.325,1.445-2.209,2.09-2.756c0.636-0.558,1.01-0.603,2.057-0.88c1.038-0.285,1.564-0.399,2.169-0.121
			c0.6,0.288,3.388,1.549,5.443,0.602c4.898-0.917,6.41-7.692,6.41-7.692l-0.033,0.154l0.033,0.083
			c0.061,1.172-0.042,6.419-6.224,9.911c-1.936,1.443-2.46,1.857-3.384,2.127c-0.929,0.278-2.048-0.282-4.101,0.791
			c-2.051,1.086-2.336,1.761-3.378,2.451c-1.042,0.676-2.53,0.587-3.135,1.351c-0.603,0.761-1.566,1.763-2.369,3.359
			c-0.807,1.598-2.059,2.713-2.176,3.997c-0.119,1.283-0.119,2.753-0.119,2.753s1.047-0.043,2.011,0
			c0.971,0.042,2.208,0.082,2.208,0.082s0.17-0.621,1.654-2.194c1.126-1.201,2.313-2.09,2.569-1.72
			c0.283,0.399-0.642,0.439-1.602,1.72c-1.333,1.767-1.21,3.593-1.21,3.593s-3.824-0.198-6.635-0.075
			c-2.812,0.117-2.411-0.193-3.449,0.042c-1.052,0.244-5.716,1.357-6.683,1.432c-0.961,0.085-2.29-0.304-3.286,0.611
			c-1.003,0.923-0.568,2.799-0.61,3.426c-0.04,0.634,0.279,6.667,0.042,7.314c-0.244,0.638-0.728,1.912-0.447,2.673
			c0.281,0.758,0.642,0.876,1.045,2.043c0.405,1.158,2.204-0.718,2.851-1.684c0.222-0.32,0.726-0.802,0-1.241
			c-0.048-0.142-0.079,0.073-0.554-1.219c-0.734-1.955-0.7-1.602-0.499-3.566c0.203-1.955-0.101-2.873,0.185-3.24
			c0.268-0.361-0.013-0.4,0.434-0.724c0.44-0.311,1.212-1.201,1.854-1.279c0.64-0.079,3.37,0.447,5.665,0.317
			c2.292-0.112,5.364-0.06,7.867-0.312c4.429-0.438,5.093-1.759,5.58-1.401c0.266,0.198,0.862,1.833-1.992,2.55
			c-2.796,0.7-4.499,0.246-4.499,0.246s1.848,3.072,3.21,5.595c1.373,2.513,1.806,5.077,3.336,7.116
			c0.746,1.87-0.13,4.016,4.118,6.585c1.535,0.924,2.805,4.541,2.805,4.541c0.432,0.298,0.055,0.834,1.204,0.606
			c1.157-0.229,1.856,0.229,1.856,0.229s-0.235-0.598,0.466-3.238c0.69-2.646,2.596-6.01,2.596-6.01s-1.419,3.703-1.307,8.329
			c0.117,4.627,0.466,6.371,1.857,9.142c1.392,2.761,1.556,2.359,4.71,5.251c3.15,2.906,3.611,3.372,3.848,6.012
			c0.231,2.646,0.344,2.799,0,5.727c-0.337,2.787-0.069,3.994-1.147,6.295c-0.337,0.727-0.933,1.59-0.126,1.824
			c0.818,0.231,0.871-0.491,1.797-1.292c0.92-0.805,2.139-0.233,2.139-2.667c0-2.438-0.711-1.687-0.246-5.617
			c0.468-3.936,1.833-5.438,1.489-6.701c-0.352-1.268-1.604-0.975-2.07-3.078c-0.468-2.09-0.589-5.792-1.632-6.944
			c-1.04-1.149,2.438,0.987,4.316-5.502L85.342,82.733L85.342,82.733z M56.844,28.417c-0.304,0.364-1.321,0.603-1.321,0.603
			c-0.006-0.256,0.084-0.859,0.084-0.859l-0.53,0.064h-0.818c-0.134-1.107,1.175-1.544,2.139-1.253
			c0.964,0.286,0.755,1.08,0.451,1.444H56.844L56.844,28.417z M68.63,20.422c-0.759,0.778-3.036,0.943-3.5,0.943
			c-0.468,0-0.849-0.265-1.25-0.479c-0.398-0.214,0.019-0.521,0.115-0.554c0.101-0.035,0.425-0.337,0.473-0.374
			c0.053-0.031,0.239-0.352,0.482-0.449c0.251-0.088,0.52,0.013,0.746,0.145c0.218,0.13,0.499,0.189,0.499,0.189h0.038l0.092,0.208
			c-0.033,0.041-0.101,0.024-0.293,0.015c-0.187-0.008-0.405-0.23-0.587-0.166c-0.185,0.069-0.099,0.39-0.099,0.383
			c0.256,0.396,0.658,0.371,0.648,0.363c1.23-0.486,1.74-1.29,1.74-1.29c-0.009-0.073-2.139-0.239-2.528-0.289
			c-0.392-0.048-0.26-0.386-0.042-0.386c0.214,0,2.967-0.201,2.967-0.201s0.286,0.059,0.566,0.413
			c0.295,0.354,0.7,0.752-0.055,1.529L68.63,20.422L68.63,20.422z"/>
	</g>
	<g>
		
			<linearGradient id="SVGID_00000143574815524069865560000013598577334179406474_" gradientUnits="userSpaceOnUse" x1="22.351" y1="-12.6671" x2="67.447" y2="70.3452">
			<stop  offset="0" style="stop-color:#F26649"/>
			<stop  offset="1" style="stop-color:#ED1C24"/>
		</linearGradient>
		<rect x="14.688" style="fill:url(#SVGID_00000143574815524069865560000013598577334179406474_);" width="98.625" height="128"/>
		<path style="fill:#ED1C24;" d="M14.688,4.664V128c0,0,96.395,0,98.052,0C105.663,72.391,68.133,25.342,14.688,4.665V4.664z"/>
		<path style="fill:#FFFFFF;" d="M54.193,31.479c-0.268-0.374-0.198-0.271,0.167-0.744c0.356-0.482,0.167-0.258,0.73-0.13
			c0.566,0.117,0.61,0.355,0.409,0.673c-0.185,0.332-0.717,0.361-1.296,0.202h-0.011V31.479z M79.508,19.594
			c0,0,3.399,3.556,3.014,10.569c-0.385,7.01-4.039,12.546-4.039,12.546s5.133-4.838,4.873-12.923
			c-0.258-8.09-3.846-10.191-3.846-10.191h-0.002L79.508,19.594z M101.196,71.437c0,0,0.39-3.533-1.694-4.219
			c-2.09-0.691-3.729-0.943-4.429,0.804c-0.688,1.759-1.283,4.934-2,6.314c-0.717,1.382-2.123,2.538-3.049,2.538
			c-0.92,0-2.911-0.134-2.911-0.134l-0.524-1.234c0,0,2.279,0.903,3.434,0.326c1.159-0.575,2.16-1.113,2.743-3.53
			c0.577-2.412,0.113-6.371,1.042-8.676c0.918-2.294,3.007-4.743,5.465-4.512c2.447,0.234,3.628,0.374,4.871,2.686
			c1.078,2.002,1.742,4.985-0.39,10.03c-1.382,3.258-2.577,4.448-3.599,8.061c-1.1,3.923,1.804,4.392,3.072,7.5
			c1.277,3.105,0.239,2.974,0,5.164c-0.231,2.18,0.526,5.19,0.526,5.19l-1.571-1.48c0,0,0.742-4.07,0.388-5.685
			c-0.35-1.604-3.309-4.4-3.309-4.4s2.231,3.229,2.13,5.867c-0.128,3.452-1.542,6.538-1.542,6.538s1.382-3.676-0.061-6.6
			c-0.92-1.857-1.248-1.015-2.292-3.75c-0.75-1.965-0.66-4.244-0.66-4.244s-0.957,2.188-0.486,4.742
			c0.462,2.554,0.83,2.299,0.369,3.935c-0.506,1.796-1.996,3.593-1.996,3.593s1.265-1.997,0.51-4.47
			c-0.809-2.653-1.311-2.055-1.248-4.63c0.086-3.426,2.617-5.258,2.617-5.258s-1.975-0.04-3.144,2.722
			c-1.155,2.761-0.814,3.997-0.814,3.997s-1.39-2.642,0.35-5.315c1.73-2.667,2.099-1.657,4.414-4.77
			c2.317-3.104,4.309-4.363,4.657-7.847c0.348-3.473-0.071-6.468-1.642-6.831c-3.468-0.811-5.005,2.322-5.005,2.322
			s2.636-1.774,4.632-0.507c1.996,1.273,1.149,5.774,1.149,5.774L101.196,71.437L101.196,71.437z M104.987,70.596
			c0,0-0.522,2.01-1.96,5.306c-0.973,2.22-2.198,4.718-0.986,7.291c0.677,1.436,1.452,1.7,2.495,4.202
			c1.049,2.511-0.2,4.232-0.2,4.232s1.839-1.856,1.344-3.906c-0.493-2.051-2.332-4.225-2.783-5.408
			c-0.724-1.892,0.315-4.774,0.915-6.345c1.17-3.105,1.17-5.373,1.17-5.373h0.004V70.596z M63.211,9.996
			c0,0,0.866-0.632,2.009-0.632c1.144,0,2.627,0.736,2.627,0.736s0.105,1.056-0.107,1.581c-0.209,0.521-0.209,0.92-0.209,0.92
			l-1.273,0.209c0,0,0.021-0.815-0.933-1.657c-0.948-0.841-2.107-1.158-2.107-1.158L63.211,9.996L63.211,9.996z M60.276,11.046
			c0,0,1.241-0.524,2.933,0.207c1.696,0.745,1.478,2.295,1.478,2.295s-0.209,0.313-0.957,0.844c-0.74,0.522-0.843,0.522-0.843,0.522
			s-0.466-0.482-1.237-0.638c-0.757-0.155-2.218-0.107-0.849-0.421c0.858-0.192,2.407,0.377,2.409-0.093
			c0-0.539-0.371-1.405-1.005-1.818c-0.646-0.427-1.944-0.9-1.944-0.9h0.014L60.276,11.046z M72.266,13.024
			c0,0,0.724-0.688,1.591-1.137c0.858-0.436,2.833-0.633,2.833-0.633s-1.275,0.533-2.114,1.769
			c-0.807,1.185-1.038,1.892-1.038,1.892l-0.53-0.315l-0.736-1.577h-0.005V13.024z M75.212,15.653c0,0,2.554-1.26,3.705-1.467
			c1.139-0.215,1.353-0.324,2.301,0c0.957,0.311,1.036,0-0.627,0.626c-1.674,0.631-2.737,2.391-2.737,2.391s-0.633-0.601-1.162-1.02
			c-0.543-0.421-1.491-0.529-1.491-0.529h0.011V15.653z M79.003,18.262c0,0,0.526,0.526,2.216,0.421
			c1.698-0.11,1.885-0.736,3.582-0.21c1.69,0.523,2.428,1.794,2.428,1.794l-1.795,0.101c0,0-0.971-0.631-1.692-0.732
			c-0.719-0.106-1.885,0.101-1.885,0.101s1.142,0.128,2.208,0.944c1.052,0.821,0.841,1.244,2.002,2.088
			c1.162,0.838,2.099,0.652,2.732,1.892c0.636,1.239,1.692,3.34,1.692,3.34s-1.289-0.734-2.438-0.631
			c-1.14,0.11-1.562,0.631-2.196,0.317c-0.636-0.317-1.48-0.95-1.48-0.95l-0.348-2.18c0,0,1.042,0.808,1.824,0.841
			c0.332,0.015,0.854-0.11,0.854-0.11s-1.677-0.47-1.916-1.352c-0.203-0.754-1.872-1.588-1.872-1.588s-1.38-2.294-1.91-2.711
			c-0.499-0.427-1.98-1.372-1.98-1.372h-0.026V18.262z M90.374,32.819c0,0-1.395-1.769-2.214-2.714
			c-0.827-0.949-0.935-1.057-0.935-1.057s-0.526,0.319-1.059,0.111c-0.524-0.209-1.908-0.943-1.908-0.943s0.325,1.071,0.325,1.683
			c0,0.602-0.105,1.132-0.105,1.132s0.95-0.421,1.688,0c0.742,0.425,0.827-0.316,1.676,0c0.847,0.313,2.53,1.79,2.53,1.79h0.001
			L90.374,32.819z M84.478,32.398c0,0,0.526-0.422,0.95-0.21l0.845,0.523c0,0-0.508,1.346,0.528,2.505
			c1.04,1.156,2.942,2.63,3.154,4.922c0.209,2.286-0.432,3.869-0.432,3.869s0.673-2.013-1.579-4.598
			c-1.361-1.561-0.724-0.726-2.625-1.144c-1.613-0.358-1.692-1.793-1.692-1.793s0.172-0.427,0.323-0.935
			c0.107-0.396,2.636,2.835,0.205-1.144c-0.113-0.183,0.035-0.472,0.067-0.738c0.11-0.628,0.266-1.255,0.266-1.255h-0.011V32.398z
			 M80.153,43.398c0,0,3.324-2.376,5.014-0.398c1.69,1.976,0.363,2.583,0.18,5.164c-0.176,2.522,2.598,3.711,2.598,3.711
			s-1.172-0.875,0.18-4.111c0.684-1.627,0.552-7.123-3.443-7.419c-0.908-0.063-1.562-1.452-1.562-1.452s-0.64,1.558-1.271,2.396
			c-0.636,0.844-1.705,2.107-1.705,2.107L80.153,43.398L80.153,43.398z M63.312,44.738c0,0,2.118-0.522,2.413-1.047
			c0.295-0.526,0.212-1.241,1.373-0.927s1.036,2.081,2.942,2.503c1.906,0.423,5.374-0.316,5.374-0.316s-3.682,2.209-5.559,1.992
			c-1.883-0.205-1.586-1.47-2.86-2.112c-1.26-0.627-3.682-0.094-3.682-0.094h-0.001L63.312,44.738z M78.855,44.352
			c0,0-1.544,0.701-2.338,1.76c-1.529,2.019-0.367,0.696-1.722,2.462c-1.124,1.468-1.784,1.99-4.536,2.517
			c-0.959,0.185-4.718-0.527-4.718-0.527s1.776,1.665,5.659,1.374c3.611-0.276,5.064-1.477,5.064-1.477s-1.221,3.327-7.893,2.815
			c-1.738-0.129-3.183,0.755-3.183,0.755s0,1.312-1.128,2.695c-1.144,1.413-2.328,1.586-2.328,1.586s1.465,0.638,4.081-2.043
			c1.032-1.066,0.293-1.255,1.283-1.582c0.66-0.218,4.297,0.019,7.788-1.051c2.561-0.797,3.705-4.074,3.919-5.391
			c0.053-0.319-4.147,2.222-1.23-1.956c0.415-0.702,1.298-1.934,1.298-1.934h-0.014L78.855,44.352z M80.943,44.528
			c0.834-0.48,1.544-0.989,2.479-0.26c1.342,1.054-0.212,2.033,0.105,4.029c0.317,1.995,1.086,2.996,1.086,2.996
			s-1.672,1.085-2.484,1.893c-0.968,0.971-0.968,2.202-0.968,2.202s-0.797-1.407,0.801-3.12c0.864-0.91,1.447-2.519,0.784-4.173
			c-1.142-2.911-2.35-2.139-3.932-1.109c-1.279,0.845,0.315-1.403,2.134-2.457h-0.005L80.943,44.528z M50.475,41.183
			c0,0-2.202-1.745-3.579-2.275c-1.373-0.52-2.688-2.103-3.296-3.047c-0.625-0.95-1.465-2.495-3.152-3.626
			c-1.566-1.054-1.677-0.625-5.89,0.116c-4.206,0.731-4.532,0.866-6.345,0.866c-2.913,0-4.12,1.458-2.797,1.678
			c2.519,0.42,2.95,2.248,3.615,1.503c1.449-1.613,3.155-1.797,5.357-1.901c2.2-0.108,3.368-0.545,4.085,0.079
			c0.717,0.637,0.086,0.74,1.142,1.689c1.056,0.94,0.636,0.127,1.269,1.58c0.638,1.445,1.054,4.895,4.317,6.681
			c3.261,1.795,2.94,1.436,2.94,1.436s0.107-1.723,0.847-2.776c0.482-0.679,0.979-1.347,1.491-2.004L50.475,41.183z M25.934,36.288
			c0,0-1.38-0.864-3.053,0.395c-1.672,1.268-2.558,3.373-2.139,3.526c0.682,0.244,3.338-0.155,3.518-0.671
			c0.447-1.333,0.504-2.072,0.929-2.498c0.424-0.417,0.746-0.752,0.746-0.752H25.934z M20.652,40.437
			c-0.222-0.093-0.273-0.313-0.271-0.461c0.027-0.759,0.893-2.364,2.338-3.486c0.746-0.566,1.457-0.736,2.024-0.736
			c0.783,0,1.287,0.312,1.309,0.324l-0.128,0.208l0.128-0.208l0.253,0.161l-0.207,0.215l-0.748,0.753
			c-0.335,0.316-0.427,1.051-0.876,2.405c-0.378,0.696-1.988,0.855-3.097,0.91c-0.286-0.006-0.524-0.019-0.728-0.086h0.003V40.437z
			 M21.387,40.037c0.493,0,1.162-0.083,1.709-0.211c0.554-0.104,0.937-0.334,0.929-0.365c0.449-1.312,0.476-2.048,0.99-2.591
			l0.499-0.5c-0.245-0.086-0.502-0.128-0.761-0.126c-0.468,0-1.065,0.134-1.722,0.633c-1.342,0.99-2.172,2.659-2.147,3.103v0.023
			c0.092,0.019,0.286,0.035,0.497,0.035h0.006L21.387,40.037z M36.756,72.01c0.803,0.898,1.155,1.161,2.086,1.665
			c0.931,0.512,1.397,0.365,1.397,0.365s0.105-1.069,0.065-1.72c-0.059-1.03-0.596-1.731-0.596-1.731s-1.115-0.219-1.738-0.524
			c-0.484-0.238-0.594-1.138-0.594-1.138s-1.986,1.558-0.625,3.082L36.756,72.01z M38.725,73.886
			c-0.939-0.51-1.346-0.814-2.151-1.718l0.183-0.159l0.185-0.159c0.797,0.887,1.096,1.1,2.022,1.615
			c0.52,0.279,0.871,0.342,1.052,0.35c0.021-0.267,0.061-0.748,0.061-1.169l-0.011-0.31c-0.041-0.543-0.214-1.068-0.504-1.53
			c-0.288-0.057-1.139-0.249-1.692-0.527c-0.367-0.204-0.55-0.575-0.636-0.875c-0.3,0.321-0.724,0.872-0.717,1.455
			c0.004,0.308,0.112,0.632,0.424,0.992l-0.185,0.159l-0.183,0.159c-0.385-0.426-0.543-0.887-0.539-1.311
			c0.017-1.237,1.183-2.101,1.183-2.124l0.341-0.266l0.059,0.426c0.002,0,0.157,0.844,0.457,0.947
			c0.574,0.285,1.672,0.505,1.676,0.505l0.09,0.02l0.059,0.071c0.011,0.02,0.577,0.758,0.65,1.867l0.004,0.337
			c0,0.648-0.077,1.413-0.077,1.417l-0.015,0.165l-0.161,0.043l-0.249,0.026c-0.249,0.001-0.7-0.063-1.315-0.409h-0.012V73.886z
			 M57.11,70.286c0,0,0.094,2.382,1.363,3.967c1.269,1.578,3.152,2.543,3.999,3.577c0.843,1.026,1.48,2.713,1.48,2.713
			s-1.289-0.331-1.718,1.438c-0.422,1.767,0.631,3.057,0.121,3.371c-0.499,0.315-2.301,0.631-4.603,2.078
			c-2.308,1.445-7.92,4.79-8.849,5.738c-0.933,0.946-1.818,1.963-1.818,1.963s-0.57-0.654-1.63-0.235
			c-1.054,0.425-1.155,0.99-1.155,0.99l-2.396-0.288c0,0,1.139-1.265,1.465-2.206c0.312-0.952,1.566-0.348,2.948-1.092
			c1.371-0.729,3.023-1.966,5.441-3.945c2.411-1.981,4.72-3.444,4.299-4.677c-0.425-1.243-3.183-2.174-4.536-5.522
			c-1.355-3.346-0.508-6.478,0.52-7.007c1.03-0.513,5.062-0.852,5.062-0.852L57.11,70.286L57.11,70.286z M40.712,97.047
			c-0.418,0.53-0.52,1.336-0.748,2.344c-0.218,1.008-0.145,2.132-0.145,2.132s1.654-0.267,2.688-1.425
			c1.038-1.157,1.015-2.099,0.935-2.52c-0.079-0.425-0.506-0.739-0.506-0.739s-1.804-0.322-2.227,0.202
			C40.71,97.042,40.712,97.047,40.712,97.047z M39.58,101.538l-0.015-0.499c0-0.437,0.025-1.079,0.165-1.708
			c0.224-0.996,0.31-1.819,0.794-2.44c0.317-0.367,0.83-0.38,1.313-0.392c0.587,0,1.137,0.096,1.243,0.143
			c0.011,0.015,0.48,0.333,0.603,0.889c0.021,0.107,0.042,0.248,0.035,0.422c0.009,0.548-0.195,1.376-1.03,2.302
			c-1.103,1.241-2.81,1.494-2.827,1.502l-0.264,0.038l-0.019-0.267L39.58,101.538L39.58,101.538z M40.206,99.44
			c-0.108,0.526-0.16,1.061-0.156,1.598l0.004,0.178c0.493-0.132,1.564-0.481,2.275-1.286c0.753-0.846,0.902-1.538,0.904-1.979
			l-0.027-0.332c-0.046-0.266-0.332-0.522-0.332-0.55c-0.092-0.014-0.559-0.093-1.036-0.093c-0.44-0.01-0.869,0.1-0.935,0.215
			c-0.348,0.451-0.46,1.232-0.69,2.255C40.214,99.445,40.206,99.44,40.206,99.44z M77.961,120.734c0,0,1.885-0.523,2.728-1.472
			c0.849-0.944,1.166-1.243,1.166-1.762c0-0.528-0.101-2.422-0.101-2.422s-0.325,0.421-1.271,0.631
			c-0.954,0.209-1.038,0.42-1.566,1.265c-0.533,0.836-0.957,3.753-0.957,3.753v0.006H77.961z M77.722,120.697
			c0.004-0.017,0.398-2.897,0.979-3.862c0.495-0.815,0.732-1.168,1.722-1.366c0.898-0.196,1.124-0.543,1.124-0.543l0.4-0.538
			l0.04,0.67c0,0,0.11,1.891,0.11,2.439c-0.015,0.654-0.403,0.99-1.227,1.921c-0.937,1.033-2.829,1.535-2.843,1.543l-0.067-0.231
			l0.067,0.231l-0.363,0.098l0.057-0.367L77.722,120.697L77.722,120.697z M80.529,115.939c-0.918,0.223-0.838,0.286-1.409,1.148
			c-0.371,0.572-0.724,2.46-0.862,3.282c0.581-0.202,1.703-0.65,2.248-1.277c0.864-0.963,1.111-1.22,1.103-1.6
			c0-0.352-0.046-1.34-0.084-1.939c-0.305,0.189-0.642,0.32-0.994,0.386L80.529,115.939z M85.342,82.733
			c1.417-4.913,0.677-4.173-0.849-7.409c-1.527-3.247-1.722-4.181-3.749-6.114c0,0-0.574-1.17-4.053-4.026
			c-2.18-1.779-3.273-3.286-4.301-5.649c-0.744-1.723-0.636-3.631-0.636-3.631s-3.522,0.209-4.164,0.702
			c-0.977,0.746-3.452,3.588-6.224,3.439c-4.743-0.253-5.261-2.673-5.261-2.673s6.167,1.531,7.444-2.486
			c0.33-1.045-1.411-0.633-3.527,0.638c-0.862,0.517,0.128-2.422,3.393-2.55c4.426-0.172,2.374-0.828,0.262-1.333
			c-2.213-0.539-4.941,0.577-4.941,0.577s0.825-1.151,3.146-2.485c3.355-1.932,6.001,0.23,7.37,0.127
			c3.399-0.257,4.804-2.749,4.804-2.749s-2.114,1.428-4.29,1.473c-3.529,0.068-2.623-2.406-5.32-2.742
			c-2.053-0.256-3.525,1.979-3.525,1.979s-0.77-3.379,2.369-4.271c2.191-0.624,1.109-2.486,3.148-2.486
			c4.167,0,2.571,2.474,4.985,2.844c2.401,0.364,3.894-0.634,5.374-1.981c1.903-1.994,5.903-11.749,3.124-17.95
			c-1.232-3.353-2.546-5.22-3.793-6.302v-0.011c-1.267-1.093-2.475-1.375-3.46-1.569c-0.646-0.133-1.155-1.659-1.155-1.659
			s-0.258-1.789-0.872-3.206c-0.832-1.926-1.667-1.48-1.667-1.48s-0.117,0.505,0.035,1.686c0.149,1.183-0.035,2.191-0.035,2.191
			s-0.726,1.449-1.248,0.935c-0.524-0.519-0.514-1.147-0.514-1.147s-0.73,0.169-2.671,1.95c-1.95,1.776-2.653,1.97-3.254,4.015
			c-0.992,1.775-2.134,3.424-4.321,5.158c-2.185,1.722-3.812,2.235-4.365,2.759c-0.915,0.575-0.242,0.761,0,1.323
			c0.237,0.559,0.143,1.329,1.892,0.886c1.25,0.038,1.447,0.479,1.856,0.752c1.445,0.957-0.805,2.627,0,2.756
			c1.846,0.325,1.445-2.209,2.09-2.756c0.636-0.558,1.01-0.603,2.057-0.88c1.038-0.285,1.564-0.399,2.169-0.121
			c0.6,0.288,3.388,1.549,5.443,0.602c4.898-0.917,6.41-7.692,6.41-7.692l-0.033,0.154l0.033,0.083
			c0.061,1.172-0.042,6.419-6.224,9.911c-1.936,1.443-2.46,1.857-3.384,2.127c-0.929,0.278-2.048-0.282-4.101,0.791
			c-2.051,1.086-2.336,1.761-3.378,2.451c-1.042,0.676-2.53,0.587-3.135,1.351c-0.603,0.761-1.566,1.763-2.369,3.359
			c-0.807,1.598-2.059,2.713-2.176,3.997c-0.119,1.283-0.119,2.753-0.119,2.753s1.047-0.043,2.011,0
			c0.971,0.042,2.208,0.082,2.208,0.082s0.17-0.621,1.654-2.194c1.126-1.201,2.313-2.09,2.569-1.72
			c0.283,0.399-0.642,0.439-1.602,1.72c-1.333,1.767-1.21,3.593-1.21,3.593s-3.824-0.198-6.635-0.075
			c-2.812,0.117-2.411-0.193-3.449,0.042c-1.052,0.244-5.716,1.357-6.683,1.432c-0.961,0.085-2.29-0.304-3.286,0.611
			c-1.003,0.923-0.568,2.799-0.61,3.426c-0.04,0.634,0.279,6.667,0.042,7.314c-0.244,0.638-0.728,1.912-0.447,2.673
			c0.281,0.758,0.642,0.876,1.045,2.043c0.405,1.158,2.204-0.718,2.851-1.684c0.222-0.32,0.726-0.802,0-1.241
			c-0.048-0.142-0.079,0.073-0.554-1.219c-0.734-1.955-0.7-1.602-0.499-3.566c0.203-1.955-0.101-2.873,0.185-3.24
			c0.268-0.361-0.013-0.4,0.434-0.724c0.44-0.311,1.212-1.201,1.854-1.279c0.64-0.079,3.37,0.447,5.665,0.317
			c2.292-0.112,5.364-0.06,7.867-0.312c4.429-0.438,5.093-1.759,5.58-1.401c0.266,0.198,0.862,1.833-1.992,2.55
			c-2.796,0.7-4.499,0.246-4.499,0.246s1.848,3.072,3.21,5.595c1.373,2.513,1.806,5.077,3.336,7.116
			c0.746,1.87-0.13,4.016,4.118,6.585c1.535,0.924,2.805,4.541,2.805,4.541c0.432,0.298,0.055,0.834,1.204,0.606
			c1.157-0.229,1.856,0.229,1.856,0.229s-0.235-0.598,0.466-3.238c0.69-2.646,2.596-6.01,2.596-6.01s-1.419,3.703-1.307,8.329
			c0.117,4.627,0.466,6.371,1.857,9.142c1.392,2.761,1.556,2.359,4.71,5.251c3.15,2.906,3.611,3.372,3.848,6.012
			c0.231,2.646,0.344,2.799,0,5.727c-0.337,2.787-0.069,3.994-1.147,6.295c-0.337,0.727-0.933,1.59-0.126,1.824
			c0.818,0.231,0.871-0.491,1.797-1.292c0.92-0.805,2.139-0.233,2.139-2.667c0-2.438-0.711-1.687-0.246-5.617
			c0.468-3.936,1.833-5.438,1.489-6.701c-0.352-1.268-1.604-0.975-2.07-3.078c-0.468-2.09-0.589-5.792-1.632-6.944
			c-1.04-1.149,2.438,0.987,4.316-5.502L85.342,82.733L85.342,82.733z M56.844,28.417c-0.304,0.364-1.321,0.603-1.321,0.603
			c-0.006-0.256,0.084-0.859,0.084-0.859l-0.53,0.064h-0.818c-0.134-1.107,1.175-1.544,2.139-1.253
			c0.964,0.286,0.755,1.08,0.451,1.444H56.844L56.844,28.417z M68.63,20.422c-0.759,0.778-3.036,0.943-3.5,0.943
			c-0.468,0-0.849-0.265-1.25-0.479c-0.398-0.214,0.019-0.521,0.115-0.554c0.101-0.035,0.425-0.337,0.473-0.374
			c0.053-0.031,0.239-0.352,0.482-0.449c0.251-0.088,0.52,0.013,0.746,0.145c0.218,0.13,0.499,0.189,0.499,0.189h0.038l0.092,0.208
			c-0.033,0.041-0.101,0.024-0.293,0.015c-0.187-0.008-0.405-0.23-0.587-0.166c-0.185,0.069-0.099,0.39-0.099,0.383
			c0.256,0.396,0.658,0.371,0.648,0.363c1.23-0.486,1.74-1.29,1.74-1.29c-0.009-0.073-2.139-0.239-2.528-0.289
			c-0.392-0.048-0.26-0.386-0.042-0.386c0.214,0,2.967-0.201,2.967-0.201s0.286,0.059,0.566,0.413
			c0.295,0.354,0.7,0.752-0.055,1.529L68.63,20.422L68.63,20.422z"/>
	</g>
</g>
<rect x="14.688" style="opacity:0.6;fill:#FFFFFF;" width="98.625" height="128"/>
</svg>
