<?xml version="1.0" encoding="iso-8859-1"?>
<!-- Generator: Adobe Illustrator 27.8.1, SVG Export Plug-In . SVG Version: 6.00 Build 0)  -->
<svg version="1.1" id="Layer_1" xmlns="http://www.w3.org/2000/svg" xmlns:xlink="http://www.w3.org/1999/xlink" x="0px" y="0px"
	 viewBox="0 0 128 128" style="enable-background:new 0 0 128 128;" xml:space="preserve">
<g>
	<path style="fill:#FFFFFF;" d="M63.975,128C99.01,128,128,99.01,128,64.025C128,28.99,98.961,0,63.926,0C28.941,0,0,28.99,0,64.025
		C0,99.01,28.99,128,63.975,128z M63.976,120c-14.784,0-28.794-5.869-39.451-16.525C13.869,92.818,8,78.808,8,64.024
		c0-14.81,5.862-28.837,16.505-39.498C35.146,13.869,49.146,8,63.926,8c14.812,0,28.847,5.872,39.521,16.534
		C114.121,35.197,120,49.222,120,64.024c0,14.785-5.87,28.795-16.529,39.449C92.808,114.131,78.781,120,63.976,120z"/>
	<path style="fill:#FFFFFF;" d="M62.698,76.997c2.752,0,4.373-1.72,4.373-3.931c0-0.344,0-0.737,0-1.081
		c0-3.685,2.015-5.945,6.584-9.041c6.289-4.177,10.22-7.862,10.22-15.036c0-9.876-8.844-15.527-19.36-15.527
		c-10.614,0-17.542,5.307-19.065,11.301c-0.295,0.983-0.442,1.916-0.442,2.948c0,2.457,1.867,3.833,3.734,3.833
		c1.916,0,3.145-0.934,4.078-2.359l0.884-1.327c1.72-4.078,5.503-6.977,10.466-6.977c6.289,0,10.269,3.489,10.269,8.55
		c0,4.324-2.506,6.584-8.255,10.564c-4.717,3.292-7.813,6.633-7.813,12.579c0,0.393,0,0.786,0,1.179
		C58.374,75.523,59.946,76.997,62.698,76.997z"/>
	<path style="fill:#FFFFFF;" d="M62.6,95.423c3.341,0,6.24-2.703,6.24-6.044c0-3.39-2.85-6.044-6.24-6.044
		c-3.44,0-6.24,2.703-6.24,6.044C56.359,92.671,59.209,95.423,62.6,95.423z"/>
</g>
<g>
	<path style="fill:#81CBEB;" d="M63.975,128C99.01,128,128,99.01,128,64.025C128,28.99,98.961,0,63.926,0C28.941,0,0,28.99,0,64.025
		C0,99.01,28.99,128,63.975,128z M63.976,120c-14.784,0-28.794-5.869-39.451-16.525C13.869,92.818,8,78.808,8,64.024
		c0-14.81,5.862-28.837,16.505-39.498C35.146,13.869,49.146,8,63.926,8c14.812,0,28.847,5.872,39.521,16.534
		C114.121,35.197,120,49.222,120,64.024c0,14.785-5.87,28.795-16.529,39.449C92.808,114.131,78.781,120,63.976,120z"/>
	<path style="fill:#81CBEB;" d="M62.698,76.997c2.752,0,4.373-1.72,4.373-3.931c0-0.344,0-0.737,0-1.081
		c0-3.685,2.015-5.945,6.584-9.041c6.289-4.177,10.22-7.862,10.22-15.036c0-9.876-8.844-15.527-19.36-15.527
		c-10.614,0-17.542,5.307-19.065,11.301c-0.295,0.983-0.442,1.916-0.442,2.948c0,2.457,1.867,3.833,3.734,3.833
		c1.916,0,3.145-0.934,4.078-2.359l0.884-1.327c1.72-4.078,5.503-6.977,10.466-6.977c6.289,0,10.269,3.489,10.269,8.55
		c0,4.324-2.506,6.584-8.255,10.564c-4.717,3.292-7.813,6.633-7.813,12.579c0,0.393,0,0.786,0,1.179
		C58.374,75.523,59.946,76.997,62.698,76.997z"/>
	<path style="fill:#81CBEB;" d="M62.6,95.423c3.341,0,6.24-2.703,6.24-6.044c0-3.39-2.85-6.044-6.24-6.044
		c-3.44,0-6.24,2.703-6.24,6.044C56.359,92.671,59.209,95.423,62.6,95.423z"/>
</g>
</svg>
