<?xml version="1.0" encoding="iso-8859-1"?>
<!-- Generator: Adobe Illustrator 27.7.0, SVG Export Plug-In . SVG Version: 6.00 Build 0)  -->
<svg version="1.1" id="Layer_1" xmlns="http://www.w3.org/2000/svg" xmlns:xlink="http://www.w3.org/1999/xlink" x="0px" y="0px"
	 viewBox="0 0 128 128" style="enable-background:new 0 0 128 128;" xml:space="preserve">
<g>
	<path style="fill:#FFFFFF;" d="M0,0h128v128H0V0z"/>
	
		<linearGradient id="SVGID_1_" gradientUnits="userSpaceOnUse" x1="52.7121" y1="-71.1456" x2="7.1597" y2="-76.347" gradientTransform="matrix(0 -1 -1 0 -10 142)">
		<stop  offset="0" style="stop-color:#1E2EED"/>
		<stop  offset="1" style="stop-color:#C21B1B"/>
	</linearGradient>
	<path style="opacity:0.3;fill:url(#SVGID_1_);enable-background:new    ;" d="M0,128v-27.429h128V128H0z"/>
	
		<linearGradient id="SVGID_00000154403121705617021500000011694690497913063308_" gradientUnits="userSpaceOnUse" x1="110.1558" y1="56.4622" x2="57.9423" y2="44.4846" gradientTransform="matrix(1 0 0 -1 0 130)">
		<stop  offset="0" style="stop-color:#1E2EED"/>
		<stop  offset="1" style="stop-color:#C21B1B"/>
	</linearGradient>
	<path style="opacity:0.3;fill:url(#SVGID_00000154403121705617021500000011694690497913063308_);enable-background:new    ;" d="
		M67.584,34.474c0.097-2.501,2.153-4.479,4.656-4.48h20.482c2.504,0,4.561,1.978,4.657,4.48L101.006,128H63.957L67.584,34.474z"/>
	
		<linearGradient id="SVGID_00000092441997969631754900000010514494128161690539_" gradientUnits="userSpaceOnUse" x1="60.631" y1="45.7424" x2="21.9165" y2="37.8237" gradientTransform="matrix(1 0 0 -1 0 130)">
		<stop  offset="0" style="stop-color:#1E2EED"/>
		<stop  offset="1" style="stop-color:#C21B1B"/>
	</linearGradient>
	<path style="opacity:0.3;fill:url(#SVGID_00000092441997969631754900000010514494128161690539_);enable-background:new    ;" d="
		M30.31,51.712c0.124-2.481,2.171-4.429,4.656-4.429h11.011c2.502,0,4.557,1.975,4.657,4.475L53.683,128H26.514L30.31,51.712z"/>
	
		<linearGradient id="SVGID_00000059311579973664539680000011894375413318851749_" gradientUnits="userSpaceOnUse" x1="88.7681" y1="61.3836" x2="32.9317" y2="48.8085" gradientTransform="matrix(1 0 0 -1 0 130)">
		<stop  offset="0" style="stop-color:#1E2EED"/>
		<stop  offset="1" style="stop-color:#C21B1B"/>
	</linearGradient>
	<path style="opacity:0.3;fill:url(#SVGID_00000059311579973664539680000011894375413318851749_);enable-background:new    ;" d="
		M46.315,24.458c0.167-2.445,2.199-4.344,4.65-4.344h23.152c2.574,0.001,4.66,2.087,4.66,4.661V128H39.259L46.315,24.458
		L46.315,24.458z"/>
</g>
</svg>
