<?xml version="1.0" encoding="UTF-8"?>
<svg id="Layer_1" data-name="Layer 1" xmlns="http://www.w3.org/2000/svg" viewBox="0 0 128 128">
  <defs>
    <style>
      .cls-1 {
        fill: #fff;
        stroke-width: 0px;
      }
    </style>
  </defs>
  <path class="cls-1" d="m63.93,0C28.94,0,0,28.99,0,64.03s28.99,63.97,63.97,63.97,64.03-28.99,64.03-63.97S98.96,0,63.93,0Zm56.6,64.03c0,5.68-.87,11.17-2.47,16.36-3.88,2.02-7.86,3.77-11.91,5.24-6.45-5.69-11.77-12.51-15.69-20.12,1.73-1.42,2.93-3.46,3.28-5.79,8.76-2.38,17.06-6.12,24.59-11.12,1.42,4.92,2.2,10.1,2.2,15.44h0Zm-6.31,25.68c-.26.51-.53,1.02-.81,1.52-.36-.24-.71-.5-1.06-.75.62-.25,1.25-.51,1.87-.77Zm-39.17,1.77c-1.25-3.5-4.49-6-8.35-6.21-1.66-7.25-2.53-14.73-2.53-22.33,0-.18.01-.37.01-.55,2.49.2,4.99.31,7.51.3,1.6,0,3.18-.08,4.76-.17,1.44,2.79,4.26,4.76,7.56,5,3.78,7.58,8.8,14.48,14.86,20.42-7.8,2.16-15.8,3.32-23.81,3.54h0Zm-39.43-6.92c-.26-7.68.4-15.25,1.87-22.61,2.51-.36,4.69-1.71,6.16-3.65,4.48,1.46,9.09,2.57,13.81,3.31,0,.44-.03.89-.03,1.33,0,8.32.97,16.48,2.82,24.38-1.05.84-1.91,1.91-2.51,3.13-7.53-1.11-14.96-3.08-22.12-5.89h0ZM68.4,7.66c1.42.11,2.83.27,4.22.49-8.46,14.13-13.6,30.05-14.86,46.71-4.16-.69-8.24-1.69-12.19-3-.18-2.56-1.39-4.85-3.23-6.44,5.59-14.32,14.49-27.26,26.06-37.76Zm11.36,2.11c-2.67,8.03-3.92,16.53-3.75,25.26.11,5.73.87,11.33,2.21,16.74-1.14,1.1-1.99,2.49-2.43,4.05-1.36.08-2.72.13-4.1.14-2.44.02-4.86-.09-7.25-.28,1.18-16.58,6.43-32.27,15.14-45.96.06.02.13.03.19.06h0Zm36.22,32.2c-7.21,5.03-15.24,8.79-23.75,11.14-1.65-2.4-4.42-3.98-7.51-3.98-.07,0-.13,0-.2,0-1.05-4.6-1.66-9.35-1.76-14.21-.21-7.85.93-15.59,3.31-22.88,13.36,5.77,24.16,16.57,29.92,29.92h0ZM58.73,7.72c-9.89,10.22-17.58,22.26-22.67,35.38-2.12.02-4.08.74-5.65,1.94-5.17-3.01-10-6.6-14.39-10.71,9.15-14.65,24.78-24.92,42.71-26.6h0ZM12.65,40.58c4.37,3.88,9.11,7.3,14.15,10.22-.11.56-.17,1.13-.17,1.72,0,3.34,1.73,6.28,4.34,7.99-1.38,6.88-2.09,13.95-2.07,21.12-7.53-3.61-14.69-8.19-21.28-13.75-.09-1.28-.15-2.56-.15-3.86,0-8.33,1.87-16.28,5.18-23.44h0Zm-3.47,37.06c6.31,4.61,13.03,8.44,20.03,11.51.04.58.08,1.16.13,1.74.19,6.66,1.17,13.26,2.91,19.71-11.26-7.74-19.65-19.43-23.07-32.96h0Zm31.71,37.84c-2.78-7.57-4.38-15.46-4.79-23.59,6.83,2.45,13.86,4.19,20.99,5.22,1.02,3.9,4.44,6.77,8.63,6.98,2.25,5.39,4.94,10.59,8.05,15.56-3.18.57-6.45.88-9.78.88-8.2,0-16.02-1.82-23.1-5.04h0Zm39.81,2.48c-3.32-5.06-6.18-10.4-8.54-15.95,1.24-1,2.2-2.31,2.8-3.82,10.08-.23,20.15-1.89,29.88-4.99,1.61,1.28,3.28,2.5,5,3.65-7.13,9.85-17.32,17.39-29.13,21.11h0Z"/>
</svg>