<?xml version="1.0" encoding="UTF-8"?>
<svg id="Layer_1" data-name="Layer 1" xmlns="http://www.w3.org/2000/svg" viewBox="0 0 128 128">
  <path d="m63.98,128c35.03,0,64.02-28.99,64.02-63.98S98.96,0,63.93,0,0,28.99,0,64.02s28.99,63.98,63.98,63.98Zm0-9.14c-30.37,0-54.79-24.47-54.79-54.84S33.56,9.19,63.93,9.19s54.89,24.42,54.89,54.84-24.42,54.84-54.84,54.84Z"/>
  <g>
    <path d="m107.86,57.53l-7.33-18.33c-.28-.7-.95-1.15-1.7-1.15h-29.9l-3.1-4.26v-3.07h14.66c.68,0,1.3-.37,1.61-.97.32-.6.28-1.32-.09-1.88l-2.99-4.48,2.99-4.48c.38-.56.41-1.29.09-1.88-.32-.6-.94-.97-1.62-.97h-14.66v-1.83h-3.67v19.56l-3.1,4.26h-29.9c-.75,0-1.42.46-1.7,1.15l-7.33,18.33c-.23.56-.16,1.2.18,1.71s.91.8,1.52.8h5.5v38.49c0,1.01.82,1.83,1.83,1.83h69.65c1.01,0,1.83-.82,1.83-1.83v-38.49h5.5c.61,0,1.18-.3,1.52-.8s.41-1.14.18-1.71Zm-30.79-37.81l-1.77,2.65c-.41.62-.41,1.42,0,2.03l1.77,2.65h-11.24v-7.33h11.24Zm-46.66,22h25.99l-10.65,14.66h-21.21l5.87-14.66Zm44.58,36.66h-22v-3.67h22v3.67Zm-20.16,3.67h7.33v14.66h-7.33v-14.66Zm11,14.66v-14.66h7.33v14.66h-7.33Zm31.16,0h-20.16v-14.66c1.01,0,1.83-.82,1.83-1.83v-7.33c0-1.01-.82-1.83-1.83-1.83h-25.66c-1.01,0-1.83.82-1.83,1.83v7.33c0,1.01.82,1.83,1.83,1.83v14.66h-20.16v-36.66h12.09l-1.88,2.59,2.97,2.16,19.81-27.29,19.81,27.29,2.97-2.16-1.88-2.59h12.09v36.66Zm-14.66-40.33v.12l-10.74-14.79h25.99l5.87,14.66h-21.12Z"/>
    <path d="m64,49.04c-4.05,0-7.33,3.28-7.33,7.33s3.28,7.33,7.33,7.33,7.33-3.28,7.33-7.33-3.28-7.33-7.33-7.33Zm0,11c-2.02,0-3.67-1.64-3.67-3.67s1.64-3.67,3.67-3.67,3.67,1.64,3.67,3.67-1.64,3.67-3.67,3.67Z"/>
    <path d="m43.84,82.04h-7.33c-1.01,0-1.83.82-1.83,1.83v7.33c0,1.01.82,1.83,1.83,1.83h7.33c1.01,0,1.83-.82,1.83-1.83v-7.33c0-1.01-.82-1.83-1.83-1.83Zm-1.83,7.33h-3.67v-3.67h3.67v3.67Z"/>
    <path d="m43.84,67.37h-7.33c-1.01,0-1.83.82-1.83,1.83v7.33c0,1.01.82,1.83,1.83,1.83h7.33c1.01,0,1.83-.82,1.83-1.83v-7.33c0-1.01-.82-1.83-1.83-1.83Zm-1.83,7.33h-3.67v-3.67h3.67v3.67Z"/>
    <path d="m91.49,82.04h-7.33c-1.01,0-1.83.82-1.83,1.83v7.33c0,1.01.82,1.83,1.83,1.83h7.33c1.01,0,1.83-.82,1.83-1.83v-7.33c0-1.01-.82-1.83-1.83-1.83Zm-1.83,7.33h-3.67v-3.67h3.67v3.67Z"/>
    <path d="m82.33,69.21v7.33c0,1.01.82,1.83,1.83,1.83h7.33c1.01,0,1.83-.82,1.83-1.83v-7.33c0-1.01-.82-1.83-1.83-1.83h-7.33c-1.01,0-1.83.82-1.83,1.83Zm3.67,1.83h3.67v3.67h-3.67v-3.67Z"/>
  </g>
</svg>