<?xml version="1.0" encoding="iso-8859-1"?>
<!-- Generator: Adobe Illustrator 27.8.0, SVG Export Plug-In . SVG Version: 6.00 Build 0)  -->
<svg version="1.1" id="Layer_1" xmlns="http://www.w3.org/2000/svg" xmlns:xlink="http://www.w3.org/1999/xlink" x="0px" y="0px"
	 viewBox="0 0 128 128" style="enable-background:new 0 0 128 128;" xml:space="preserve">
<g>
	<path style="fill:#E30137;" d="M38.626,54.684c-2.968,0.891-5.019,1.808-7.502,2.402c-1.079,0.243-2.483-0.864-2.887-1.97
		c-0.756-2.24-0.918-4.857-1.808-6.881c-1.376-1.349-6.207,0.324-6.234,2.186c0.621,2.159,2.186,4.749,3.076,7.313
		c0.243,0.756,0.216,1.511,0.054,2.267c-0.351,1.565-1.295,2.86-2.726,3.562c-2.672,1.322-5.37,2.159-8.285,2.914
		c-3.913,1.025-7.61,2.051-11.415,3.265c-0.27,0.081-0.486,0.324-0.54,0.594c-0.567,1.997-0.27,3.589,0.702,5.397
		c0.675,1.214,1.835,3.103,3.076,2.672c4.722-2.078,9.067-4.399,13.817-6.477c2.321-0.971,4.588-2.375,7.259-1.97
		c1.43,0.216,2.887,0.998,3.427,2.402c0.944,2.402,1.997,7.178,2.024,7.259c0.837,1.808,6.584-0.243,6.369-1.835
		c0-0.054-2.294-4.776-2.887-6.342c-0.54-1.349,0.675-3.13,1.997-3.535c9.877-2.86,19.996-3.319,30.17-2.51
		c2.024,0.162,3.967,0.27,6.018,0.648c2.132,0.405,4.075,0.783,6.207,1.187c2.807,0.513,4.722,1.403,7.556,2.024
		c0.648,0.189,0.783-0.405,0.837-0.675l0.108-0.324c1.619-10.875,20.725-3.67,14.653,5.937c0,0-0.108,0.243-0.135,0.324
		c-0.162,0.324,0.054,0.513,0.054,0.513c1.889,1.322,3.778,2.429,5.991,3.805c0.162,0.081,0.405,0.297,0.621,0.135
		c0.971-0.675,1.322-1.754,2.132-2.51c0.891-0.864,1.862-1.538,2.941-2.132c4.722-2.483,9.445-4.318,14.329-6.261
		c0.054,0,0.081-0.297,0-0.378C89.225,42.217,53.9,50.259,38.842,54.603l-0.27,0.108L38.626,54.684z"/>
	<path style="fill:#E30137;" d="M38.923,18.577c-2.968,0.891-5.019,1.808-7.502,2.402c-1.079,0.27-2.483-0.891-2.86-1.943
		c-0.756-2.24-0.944-4.857-1.808-6.854c-1.376-1.376-6.207,0.324-6.234,2.186c0.621,2.159,2.213,4.749,3.103,7.286
		c0.243,0.756,0.216,1.484,0.054,2.267c-0.351,1.592-1.295,2.86-2.726,3.562c-2.672,1.322-5.397,2.159-8.285,2.914
		C8.78,31.45,5.083,32.448,1.278,33.662c-0.27,0.108-0.486,0.351-0.567,0.621c-0.567,2.024-0.243,3.589,0.702,5.397
		c0.648,1.241,1.808,3.103,3.049,2.672c4.722-2.078,9.067-4.399,13.844-6.45c2.294-1.025,4.588-2.375,7.232-1.997
		c1.43,0.216,2.914,0.998,3.454,2.402c0.918,2.402,1.97,7.178,2.024,7.232c0.837,1.808,6.584-0.243,6.369-1.835
		c0-0.054-2.294-4.749-2.914-6.342c-0.513-1.349,0.702-3.157,2.024-3.535c9.877-2.86,19.996-3.292,30.17-2.483
		c1.997,0.162,3.967,0.27,5.991,0.648c2.159,0.378,4.075,0.756,6.207,1.16c2.807,0.513,4.722,1.403,7.583,2.024
		c0.621,0.189,0.756-0.405,0.81-0.648l0.108-0.324c1.619-10.875,20.725-3.67,14.653,5.91c0,0-0.108,0.27-0.135,0.324
		c-0.162,0.324,0.081,0.54,0.081,0.54c1.889,1.322,3.778,2.402,5.964,3.805c0.162,0.108,0.405,0.297,0.621,0.135
		c0.971-0.648,1.322-1.727,2.132-2.483c0.891-0.864,1.862-1.565,2.941-2.132c4.722-2.483,9.445-4.318,14.329-6.234
		c0.054-0.027,0.081-0.351,0-0.405C89.548,6.11,54.224,14.152,39.193,18.469l-0.27,0.081V18.577z"/>
	<path style="fill:#E30137;" d="M38.492,90.71c-2.995,0.891-5.019,1.808-7.502,2.402c-1.079,0.243-2.51-0.864-2.86-1.97
		c-0.783-2.267-0.944-4.884-1.808-6.881c-1.376-1.349-6.234,0.324-6.234,2.213c0.621,2.159,2.213,4.722,3.103,7.313
		c0.27,0.729,0.216,1.484,0.054,2.24c-0.351,1.619-1.295,2.887-2.726,3.589c-2.672,1.295-5.37,2.159-8.285,2.914
		c-3.913,1.025-7.583,2.051-11.388,3.265c-0.27,0.081-0.486,0.324-0.567,0.594c-0.567,1.997-0.243,3.562,0.702,5.37
		c0.675,1.241,1.808,3.103,3.076,2.672c4.696-2.078,9.067-4.399,13.817-6.477c2.294-0.998,4.588-2.375,7.259-1.997
		c1.403,0.216,2.887,0.998,3.427,2.429c0.918,2.375,1.997,7.151,2.024,7.232c0.81,1.808,6.584-0.27,6.369-1.835
		c0-0.054-2.294-4.749-2.914-6.342c-0.54-1.349,0.675-3.157,2.024-3.535c9.877-2.86,19.996-3.319,30.17-2.51
		c2.024,0.162,3.967,0.27,6.018,0.648c2.132,0.405,4.075,0.783,6.207,1.187c2.807,0.513,4.749,1.403,7.583,1.997
		c0.621,0.189,0.756-0.378,0.81-0.648l0.108-0.324c1.619-10.848,20.698-3.67,14.653,5.937c0,0-0.108,0.27-0.135,0.324
		c-0.162,0.324,0.054,0.513,0.054,0.513c1.889,1.349,3.778,2.429,5.991,3.832c0.162,0.081,0.405,0.27,0.621,0.135
		c0.998-0.675,1.322-1.754,2.132-2.51c0.891-0.864,1.862-1.565,2.968-2.132c4.696-2.483,9.445-4.318,14.329-6.261
		c0.054,0,0.081-0.324,0-0.378C89.171,78.243,53.846,86.311,38.788,90.629l-0.243,0.081H38.492z"/>
</g>
<g style="opacity:0.6;">
	<path style="fill:#FFFFFF;" d="M38.626,54.684c-2.968,0.891-5.019,1.808-7.502,2.402c-1.079,0.243-2.483-0.864-2.887-1.97
		c-0.756-2.24-0.918-4.857-1.808-6.881c-1.376-1.349-6.207,0.324-6.234,2.186c0.621,2.159,2.186,4.749,3.076,7.313
		c0.243,0.756,0.216,1.511,0.054,2.267c-0.351,1.565-1.295,2.86-2.726,3.562c-2.672,1.322-5.37,2.159-8.285,2.914
		c-3.913,1.025-7.61,2.051-11.415,3.265c-0.27,0.081-0.486,0.324-0.54,0.594c-0.567,1.997-0.27,3.589,0.702,5.397
		c0.675,1.214,1.835,3.103,3.076,2.672c4.722-2.078,9.067-4.399,13.817-6.477c2.321-0.971,4.588-2.375,7.259-1.97
		c1.43,0.216,2.887,0.998,3.427,2.402c0.944,2.402,1.997,7.178,2.024,7.259c0.837,1.808,6.584-0.243,6.369-1.835
		c0-0.054-2.294-4.776-2.887-6.342c-0.54-1.349,0.675-3.13,1.997-3.535c9.877-2.86,19.996-3.319,30.17-2.51
		c2.024,0.162,3.967,0.27,6.018,0.648c2.132,0.405,4.075,0.783,6.207,1.187c2.807,0.513,4.722,1.403,7.556,2.024
		c0.648,0.189,0.783-0.405,0.837-0.675l0.108-0.324c1.619-10.875,20.725-3.67,14.653,5.937c0,0-0.108,0.243-0.135,0.324
		c-0.162,0.324,0.054,0.513,0.054,0.513c1.889,1.322,3.778,2.429,5.991,3.805c0.162,0.081,0.405,0.297,0.621,0.135
		c0.971-0.675,1.322-1.754,2.132-2.51c0.891-0.864,1.862-1.538,2.941-2.132c4.722-2.483,9.445-4.318,14.329-6.261
		c0.054,0,0.081-0.297,0-0.378C89.225,42.217,53.9,50.259,38.842,54.603l-0.27,0.108L38.626,54.684z"/>
	<path style="fill:#FFFFFF;" d="M38.923,18.577c-2.968,0.891-5.019,1.808-7.502,2.402c-1.079,0.27-2.483-0.891-2.86-1.943
		c-0.756-2.24-0.944-4.857-1.808-6.854c-1.376-1.376-6.207,0.324-6.234,2.186c0.621,2.159,2.213,4.749,3.103,7.286
		c0.243,0.756,0.216,1.484,0.054,2.267c-0.351,1.592-1.295,2.86-2.726,3.562c-2.672,1.322-5.397,2.159-8.285,2.914
		C8.78,31.45,5.083,32.448,1.278,33.662c-0.27,0.108-0.486,0.351-0.567,0.621c-0.567,2.024-0.243,3.589,0.702,5.397
		c0.648,1.241,1.808,3.103,3.049,2.672c4.722-2.078,9.067-4.399,13.844-6.45c2.294-1.025,4.588-2.375,7.232-1.997
		c1.43,0.216,2.914,0.998,3.454,2.402c0.918,2.402,1.97,7.178,2.024,7.232c0.837,1.808,6.584-0.243,6.369-1.835
		c0-0.054-2.294-4.749-2.914-6.342c-0.513-1.349,0.702-3.157,2.024-3.535c9.877-2.86,19.996-3.292,30.17-2.483
		c1.997,0.162,3.967,0.27,5.991,0.648c2.159,0.378,4.075,0.756,6.207,1.16c2.807,0.513,4.722,1.403,7.583,2.024
		c0.621,0.189,0.756-0.405,0.81-0.648l0.108-0.324c1.619-10.875,20.725-3.67,14.653,5.91c0,0-0.108,0.27-0.135,0.324
		c-0.162,0.324,0.081,0.54,0.081,0.54c1.889,1.322,3.778,2.402,5.964,3.805c0.162,0.108,0.405,0.297,0.621,0.135
		c0.971-0.648,1.322-1.727,2.132-2.483c0.891-0.864,1.862-1.565,2.941-2.132c4.722-2.483,9.445-4.318,14.329-6.234
		c0.054-0.027,0.081-0.351,0-0.405C89.548,6.11,54.224,14.152,39.193,18.469l-0.27,0.081V18.577z"/>
	<path style="fill:#FFFFFF;" d="M38.492,90.71c-2.995,0.891-5.019,1.808-7.502,2.402c-1.079,0.243-2.51-0.864-2.86-1.97
		c-0.783-2.267-0.944-4.884-1.808-6.881c-1.376-1.349-6.234,0.324-6.234,2.213c0.621,2.159,2.213,4.722,3.103,7.313
		c0.27,0.729,0.216,1.484,0.054,2.24c-0.351,1.619-1.295,2.887-2.726,3.589c-2.672,1.295-5.37,2.159-8.285,2.914
		c-3.913,1.025-7.583,2.051-11.388,3.265c-0.27,0.081-0.486,0.324-0.567,0.594c-0.567,1.997-0.243,3.562,0.702,5.37
		c0.675,1.241,1.808,3.103,3.076,2.672c4.696-2.078,9.067-4.399,13.817-6.477c2.294-0.998,4.588-2.375,7.259-1.997
		c1.403,0.216,2.887,0.998,3.427,2.429c0.918,2.375,1.997,7.151,2.024,7.232c0.81,1.808,6.584-0.27,6.369-1.835
		c0-0.054-2.294-4.749-2.914-6.342c-0.54-1.349,0.675-3.157,2.024-3.535c9.877-2.86,19.996-3.319,30.17-2.51
		c2.024,0.162,3.967,0.27,6.018,0.648c2.132,0.405,4.075,0.783,6.207,1.187c2.807,0.513,4.749,1.403,7.583,1.997
		c0.621,0.189,0.756-0.378,0.81-0.648l0.108-0.324c1.619-10.848,20.698-3.67,14.653,5.937c0,0-0.108,0.27-0.135,0.324
		c-0.162,0.324,0.054,0.513,0.054,0.513c1.889,1.349,3.778,2.429,5.991,3.832c0.162,0.081,0.405,0.27,0.621,0.135
		c0.998-0.675,1.322-1.754,2.132-2.51c0.891-0.864,1.862-1.565,2.968-2.132c4.696-2.483,9.445-4.318,14.329-6.261
		c0.054,0,0.081-0.324,0-0.378C89.171,78.243,53.846,86.311,38.788,90.629l-0.243,0.081H38.492z"/>
</g>
</svg>
