<?xml version="1.0" encoding="iso-8859-1"?>
<!-- Generator: Adobe Illustrator 27.7.0, SVG Export Plug-In . SVG Version: 6.00 Build 0)  -->
<svg version="1.1" id="Layer_1" xmlns="http://www.w3.org/2000/svg" xmlns:xlink="http://www.w3.org/1999/xlink" x="0px" y="0px"
	 viewBox="0 0 128 128" style="enable-background:new 0 0 128 128;" xml:space="preserve">
<g>
	<path style="fill:#F39600;" d="M103.344,103.973c-2.407,3.776-5.24,7.411-8.497,10.763c-3.776,3.871-8.025,7.269-12.604,10.055
		l1.983,3.21c4.815-2.974,9.299-6.561,13.312-10.621c4.107-4.201,7.6-8.827,10.432-13.689L103.344,103.973z"/>
	<path style="fill:#F39600;" d="M111.51,97.27c-4.768,1.511-14.256,3.068-24.31-3.729c-0.661-0.425-1.511-0.236-1.935,0.378
		c-0.425,0.614-0.236,1.511,0.378,1.983c11.518,7.694,22.564,5.429,26.765,4.06c0.755-0.236,1.133-1.039,0.897-1.794
		C113.068,97.459,112.265,97.034,111.51,97.27"/>
	<path style="fill:#005234;" d="M113.776,93.73c-6.137,2.36-15.766,3.824-26.671-2.879c-0.33-0.189-0.755-0.094-0.991,0.236
		c-0.189,0.33-0.094,0.755,0.236,0.991c11.423,6.986,21.478,5.476,27.945,2.974c0.378-0.142,0.519-0.566,0.378-0.897
		C114.531,93.73,114.106,93.588,113.776,93.73"/>
	<path style="fill:#809D88;" d="M114.72,89.151c-4.437,2.927-15.625,5.051-26.812-1.794c-0.566-0.33-1.275-0.189-1.605,0.378
		c-0.33,0.566-0.142,1.275,0.378,1.605c12.084,7.411,24.405,5.004,29.361,1.747c0.519-0.378,0.708-1.086,0.33-1.652
		C115.994,88.915,115.286,88.773,114.72,89.151"/>
	<path style="fill:#809D88;" d="M107.167,89.056c4.532-15.105,2.738-31.674-5.381-45.552c-8.45-14.445-17.513-17.371-17.749-16.899
		c-0.283,0.519,8.214,6.278,15.483,19.259c7.506,13.312,8.922,29.125,4.296,43.428L107.167,89.056z"/>
	<path style="fill:#809D88;" d="M96.829,103.359c-1.699,2.407-3.588,4.72-5.759,6.939c-3.588,3.682-7.647,6.797-12.037,9.299
		l1.558,2.691c4.673-2.643,8.969-5.948,12.745-9.819c2.643-2.691,4.956-5.57,6.939-8.638L96.829,103.359z"/>
	<path style="fill:#809D88;" d="M73.935,18.91c-2.643-3.021-2.502-7.458-2.502-7.458s4.437,0.425,7.081,3.446
		c2.643,3.021,2.502,7.458,2.502,7.458S76.579,21.932,73.935,18.91"/>
	<path style="fill:#809D88;" d="M77.995,30.192c-3.493,1.935-7.836,0.85-7.836,0.85s1.369-4.248,4.862-6.184
		c3.493-1.935,7.836-0.85,7.836-0.85S81.488,28.21,77.995,30.192"/>
	<path style="fill:#809D88;" d="M64.164,16.031c-2.927-2.738-3.21-7.175-3.21-7.175s4.437,0,7.364,2.785
		c2.927,2.738,3.21,7.175,3.21,7.175S67.091,18.816,64.164,16.031"/>
	<path style="fill:#809D88;" d="M68.743,27.738c-3.493,1.935-7.836,0.85-7.836,0.85s1.369-4.248,4.909-6.184
		c3.493-1.935,7.836-0.85,7.836-0.85S72.236,25.802,68.743,27.738"/>
	<path style="fill:#809D88;" d="M60.152,25.661c-3.068,2.596-7.506,2.36-7.506,2.36s0.519-4.437,3.588-6.986
		c3.068-2.596,7.506-2.36,7.506-2.36S63.22,23.064,60.152,25.661"/>
	<path style="fill:#809D88;" d="M51.041,24.905c-2.974,2.691-7.411,2.691-7.411,2.691s0.33-4.437,3.304-7.175
		c2.974-2.691,7.411-2.691,7.411-2.691S54.015,22.215,51.041,24.905"/>
	<path style="fill:#809D88;" d="M41.553,25.33c-2.974,2.691-7.411,2.643-7.411,2.643s0.33-4.437,3.304-7.175
		c2.974-2.691,7.411-2.643,7.411-2.643S44.527,22.64,41.553,25.33"/>
	<path style="fill:#809D88;" d="M31.498,28.068c-2.832,2.879-7.269,3.021-7.269,3.021s0.094-4.437,2.927-7.317
		s7.269-3.068,7.269-3.068S34.331,25.189,31.498,28.068"/>
	<path style="fill:#809D88;" d="M21.538,27.879c-3.54,1.935-7.836,0.802-7.836,0.802s1.416-4.248,4.909-6.137
		c3.54-1.935,7.836-0.802,7.836-0.802S25.079,25.991,21.538,27.879"/>
	<path style="fill:#809D88;" d="M25.787,20.043c-3.918-0.802-6.514-4.437-6.514-4.437s3.776-2.36,7.742-1.558
		c3.918,0.802,6.514,4.437,6.514,4.437S29.705,20.846,25.787,20.043"/>
	<path style="fill:#809D88;" d="M54.109,14.945c-3.352-2.219-4.343-6.561-4.343-6.561s4.39-0.708,7.742,1.511
		s4.343,6.561,4.343,6.561S57.461,17.164,54.109,14.945"/>
	<path style="fill:#809D88;" d="M43.583,14.615c-3.352-2.266-4.343-6.561-4.343-6.561s4.39-0.708,7.742,1.511
		s4.343,6.561,4.343,6.561S46.934,16.833,43.583,14.615"/>
	<path style="fill:#809D88;" d="M34.661,16.503c-3.682-1.605-5.429-5.712-5.429-5.712s4.201-1.511,7.883,0.094
		c3.682,1.605,5.429,5.712,5.429,5.712S38.343,18.108,34.661,16.503"/>
	<path style="fill:#F39600;" d="M94.894,87.782c1.322-6.325,0.944-12.934-1.086-19.165c-1.699-5.617-6.561-11.093-6.939-10.857
		c-0.283,0.236,2.455,3.446,5.098,11.848c1.794,5.617,2.124,11.612,0.991,17.371L94.894,87.782z"/>
	<path style="fill:#F39600;" d="M87.53,100.102c-1.133,1.699-2.455,3.304-3.918,4.815c-2.738,2.785-5.901,5.098-9.346,6.845
		l0.897,1.794c3.682-1.841,6.986-4.296,9.866-7.222c1.605-1.652,3.068-3.446,4.296-5.287L87.53,100.102z"/>
	<path style="fill:#F39600;" d="M79.647,49.782c-1.841-2.974-1.086-6.75-1.086-6.75s3.729,1.039,5.57,4.012
		c1.841,2.974,1.086,6.75,1.086,6.75S81.488,52.756,79.647,49.782"/>
	<path style="fill:#F39600;" d="M82.054,60.073c-3.21,1.322-6.845-0.047-6.845-0.047s1.605-3.54,4.815-4.862
		c3.21-1.322,6.845,0.047,6.845,0.047S85.312,58.751,82.054,60.073"/>
	<path style="fill:#F39600;" d="M75.115,56.627c-3.304,1.133-6.845-0.472-6.845-0.472s1.841-3.399,5.098-4.532
		c3.304-1.133,6.845,0.472,6.845,0.472S78.42,55.494,75.115,56.627"/>
	<path style="fill:#F39600;" d="M68.318,53.464c-3.116,1.558-6.845,0.425-6.845,0.425s1.369-3.635,4.484-5.192
		c3.115-1.558,6.845-0.425,6.845-0.425S71.433,51.906,68.318,53.464"/>
	<path style="fill:#F39600;" d="M60.529,51.812c-2.832,2.077-6.656,1.605-6.656,1.605s0.755-3.824,3.54-5.853
		c2.832-2.077,6.656-1.558,6.656-1.558S63.361,49.735,60.529,51.812"/>
	<path style="fill:#F39600;" d="M52.457,51.67c-2.691,2.219-6.561,1.935-6.561,1.935s0.519-3.824,3.257-6.042
		c2.738-2.219,6.561-1.935,6.561-1.935S55.195,49.452,52.457,51.67"/>
	<path style="fill:#F39600;" d="M42.119,51.151c-3.21,1.322-6.845-0.047-6.845-0.047s1.605-3.493,4.862-4.815
		c3.257-1.322,6.845,0.047,6.845,0.047S45.377,49.877,42.119,51.151"/>
	<path style="fill:#F39600;" d="M46.273,44.731c-3.304-1.086-5.192-4.437-5.192-4.437s3.493-1.652,6.845-0.566
		c3.304,1.086,5.192,4.437,5.192,4.437S49.578,45.77,46.273,44.731"/>
	<path style="fill:#F39600;" d="M71.669,45.911c-1.935-2.879-1.322-6.703-1.322-6.703s3.776,0.897,5.712,3.776
		c1.935,2.879,1.322,6.703,1.322,6.703S73.605,48.838,71.669,45.911"/>
	<path style="fill:#F39600;" d="M63.031,42.796c-2.502-2.455-2.691-6.325-2.691-6.325s3.871,0.094,6.373,2.502
		c2.502,2.455,2.691,6.325,2.691,6.325S65.533,45.203,63.031,42.796"/>
	<path style="fill:#F39600;" d="M54.487,42.89c-3.021-1.747-4.154-5.429-4.154-5.429s3.776-0.897,6.797,0.85
		c3.021,1.747,4.154,5.429,4.154,5.429S57.508,44.637,54.487,42.89"/>
	<g>
		<path style="fill:#005234;" d="M89.938,85.469c-0.047-6.373-2.549-12.745-7.458-17.513c-8.969-8.78-23.461-9.535-32.382-1.558
			c-0.802,0.708-2.313,2.313-2.266,2.407c0.047,0.047,1.558-1.275,2.407-1.888c9.724-6.75,22.753-6.373,31.297,1.983
			c4.437,4.343,6.797,10.055,7.033,15.861L89.938,85.469z"/>
		<path style="fill:#005234;" d="M84.792,98.497c-0.85,1.275-1.794,2.502-2.879,3.635c-2.738,2.785-6.089,4.862-9.771,5.995
			l0.378,1.275c3.918-1.227,7.458-3.399,10.338-6.325c1.18-1.227,2.219-2.502,3.115-3.871L84.792,98.497z"/>
		<path style="fill:#005234;" d="M100.323,89.151c4.343-15.625,0.283-33.138-12.132-45.269C72.189,28.21,46.604,26.51,30.082,39.539
			c-2.171,1.699-6.089,5.853-5.995,5.948c0.094,0.094,4.06-3.257,6.184-4.579c17.843-11.282,40.832-10.243,56.173,4.768
			c11.754,11.518,15.625,28.134,11.423,42.956L100.323,89.151z"/>
	</g>
	<g>
		<path style="fill:#005234;" d="M91.495,101.896c-1.322,1.841-2.785,3.588-4.39,5.24c-3.163,3.257-6.845,5.995-10.81,8.072
			l1.18,2.219c4.201-2.219,8.072-5.098,11.423-8.544c1.935-1.983,3.635-4.06,5.098-6.231L91.495,101.896z"/>
		<path style="fill:#F39600;" d="M114.956,86.602c6.089-23.272-0.142-49.093-18.504-67.078C70.82-5.541,28.194-6.627,4.309,17.164
			c-1.511,1.511-4.532,4.626-4.296,4.815c0.236,0.236,3.21-2.927,4.909-4.248C30.177-1.954,69.687-1.435,93.856,22.215
			c18.079,17.702,23.697,43.381,16.758,66.039L114.956,86.602z"/>
	</g>
</g>
<g style="opacity:0.6;">
	<path style="fill:#FFFFFF;" d="M103.344,103.973c-2.407,3.776-5.24,7.411-8.497,10.763c-3.776,3.871-8.025,7.269-12.604,10.055
		l1.983,3.21c4.815-2.974,9.299-6.561,13.312-10.621c4.107-4.201,7.6-8.827,10.432-13.689L103.344,103.973z"/>
	<path style="fill:#FFFFFF;" d="M111.51,97.27c-4.768,1.511-14.256,3.068-24.31-3.729c-0.661-0.425-1.511-0.236-1.935,0.378
		c-0.425,0.614-0.236,1.511,0.378,1.983c11.518,7.694,22.564,5.429,26.765,4.06c0.755-0.236,1.133-1.039,0.897-1.794
		C113.068,97.459,112.265,97.034,111.51,97.27"/>
	<path style="fill:#FFFFFF;" d="M113.776,93.73c-6.137,2.36-15.766,3.824-26.671-2.879c-0.33-0.189-0.755-0.094-0.991,0.236
		c-0.189,0.33-0.094,0.755,0.236,0.991c11.423,6.986,21.478,5.476,27.945,2.974c0.378-0.142,0.519-0.566,0.378-0.897
		C114.531,93.73,114.106,93.588,113.776,93.73"/>
	<path style="fill:#FFFFFF;" d="M114.72,89.151c-4.437,2.927-15.625,5.051-26.812-1.794c-0.566-0.33-1.275-0.189-1.605,0.378
		c-0.33,0.566-0.142,1.275,0.378,1.605c12.084,7.411,24.405,5.004,29.361,1.747c0.519-0.378,0.708-1.086,0.33-1.652
		C115.994,88.915,115.286,88.773,114.72,89.151"/>
	<path style="fill:#FFFFFF;" d="M107.167,89.056c4.532-15.105,2.738-31.674-5.381-45.552c-8.45-14.445-17.513-17.371-17.749-16.899
		c-0.283,0.519,8.214,6.278,15.483,19.259c7.506,13.312,8.922,29.125,4.296,43.428L107.167,89.056z"/>
	<path style="fill:#FFFFFF;" d="M96.829,103.359c-1.699,2.407-3.588,4.72-5.759,6.939c-3.588,3.682-7.647,6.797-12.037,9.299
		l1.558,2.691c4.673-2.643,8.969-5.948,12.745-9.819c2.643-2.691,4.956-5.57,6.939-8.638L96.829,103.359z"/>
	<path style="fill:#FFFFFF;" d="M73.935,18.91c-2.643-3.021-2.502-7.458-2.502-7.458s4.437,0.425,7.081,3.446
		c2.643,3.021,2.502,7.458,2.502,7.458S76.579,21.932,73.935,18.91"/>
	<path style="fill:#FFFFFF;" d="M77.995,30.192c-3.493,1.935-7.836,0.85-7.836,0.85s1.369-4.248,4.862-6.184
		c3.493-1.935,7.836-0.85,7.836-0.85S81.488,28.21,77.995,30.192"/>
	<path style="fill:#FFFFFF;" d="M64.164,16.031c-2.927-2.738-3.21-7.175-3.21-7.175s4.437,0,7.364,2.785
		c2.927,2.738,3.21,7.175,3.21,7.175S67.091,18.816,64.164,16.031"/>
	<path style="fill:#FFFFFF;" d="M68.743,27.738c-3.493,1.935-7.836,0.85-7.836,0.85s1.369-4.248,4.909-6.184
		c3.493-1.935,7.836-0.85,7.836-0.85S72.236,25.802,68.743,27.738"/>
	<path style="fill:#FFFFFF;" d="M60.152,25.661c-3.068,2.596-7.506,2.36-7.506,2.36s0.519-4.437,3.588-6.986
		c3.068-2.596,7.506-2.36,7.506-2.36S63.22,23.064,60.152,25.661"/>
	<path style="fill:#FFFFFF;" d="M51.041,24.905c-2.974,2.691-7.411,2.691-7.411,2.691s0.33-4.437,3.304-7.175
		c2.974-2.691,7.411-2.691,7.411-2.691S54.015,22.215,51.041,24.905"/>
	<path style="fill:#FFFFFF;" d="M41.553,25.33c-2.974,2.691-7.411,2.643-7.411,2.643s0.33-4.437,3.304-7.175
		c2.974-2.691,7.411-2.643,7.411-2.643S44.527,22.64,41.553,25.33"/>
	<path style="fill:#FFFFFF;" d="M31.498,28.068c-2.832,2.879-7.269,3.021-7.269,3.021s0.094-4.437,2.927-7.317
		s7.269-3.068,7.269-3.068S34.331,25.189,31.498,28.068"/>
	<path style="fill:#FFFFFF;" d="M21.538,27.879c-3.54,1.935-7.836,0.802-7.836,0.802s1.416-4.248,4.909-6.137
		c3.54-1.935,7.836-0.802,7.836-0.802S25.079,25.991,21.538,27.879"/>
	<path style="fill:#FFFFFF;" d="M25.787,20.043c-3.918-0.802-6.514-4.437-6.514-4.437s3.776-2.36,7.742-1.558
		c3.918,0.802,6.514,4.437,6.514,4.437S29.705,20.846,25.787,20.043"/>
	<path style="fill:#FFFFFF;" d="M54.109,14.945c-3.352-2.219-4.343-6.561-4.343-6.561s4.39-0.708,7.742,1.511
		s4.343,6.561,4.343,6.561S57.461,17.164,54.109,14.945"/>
	<path style="fill:#FFFFFF;" d="M43.583,14.615c-3.352-2.266-4.343-6.561-4.343-6.561s4.39-0.708,7.742,1.511
		s4.343,6.561,4.343,6.561S46.934,16.833,43.583,14.615"/>
	<path style="fill:#FFFFFF;" d="M34.661,16.503c-3.682-1.605-5.429-5.712-5.429-5.712s4.201-1.511,7.883,0.094
		c3.682,1.605,5.429,5.712,5.429,5.712S38.343,18.108,34.661,16.503"/>
	<path style="fill:#FFFFFF;" d="M94.894,87.782c1.322-6.325,0.944-12.934-1.086-19.165c-1.699-5.617-6.561-11.093-6.939-10.857
		c-0.283,0.236,2.455,3.446,5.098,11.848c1.794,5.617,2.124,11.612,0.991,17.371L94.894,87.782z"/>
	<path style="fill:#FFFFFF;" d="M87.53,100.102c-1.133,1.699-2.455,3.304-3.918,4.815c-2.738,2.785-5.901,5.098-9.346,6.845
		l0.897,1.794c3.682-1.841,6.986-4.296,9.866-7.222c1.605-1.652,3.068-3.446,4.296-5.287L87.53,100.102z"/>
	<path style="fill:#FFFFFF;" d="M79.647,49.782c-1.841-2.974-1.086-6.75-1.086-6.75s3.729,1.039,5.57,4.012
		c1.841,2.974,1.086,6.75,1.086,6.75S81.488,52.756,79.647,49.782"/>
	<path style="fill:#FFFFFF;" d="M82.054,60.073c-3.21,1.322-6.845-0.047-6.845-0.047s1.605-3.54,4.815-4.862
		c3.21-1.322,6.845,0.047,6.845,0.047S85.312,58.751,82.054,60.073"/>
	<path style="fill:#FFFFFF;" d="M75.115,56.627c-3.304,1.133-6.845-0.472-6.845-0.472s1.841-3.399,5.098-4.532
		c3.304-1.133,6.845,0.472,6.845,0.472S78.42,55.494,75.115,56.627"/>
	<path style="fill:#FFFFFF;" d="M68.318,53.464c-3.116,1.558-6.845,0.425-6.845,0.425s1.369-3.635,4.484-5.192
		c3.115-1.558,6.845-0.425,6.845-0.425S71.433,51.906,68.318,53.464"/>
	<path style="fill:#FFFFFF;" d="M60.529,51.812c-2.832,2.077-6.656,1.605-6.656,1.605s0.755-3.824,3.54-5.853
		c2.832-2.077,6.656-1.558,6.656-1.558S63.361,49.735,60.529,51.812"/>
	<path style="fill:#FFFFFF;" d="M52.457,51.67c-2.691,2.219-6.561,1.935-6.561,1.935s0.519-3.824,3.257-6.042
		c2.738-2.219,6.561-1.935,6.561-1.935S55.195,49.452,52.457,51.67"/>
	<path style="fill:#FFFFFF;" d="M42.119,51.151c-3.21,1.322-6.845-0.047-6.845-0.047s1.605-3.493,4.862-4.815
		c3.257-1.322,6.845,0.047,6.845,0.047S45.377,49.877,42.119,51.151"/>
	<path style="fill:#FFFFFF;" d="M46.273,44.731c-3.304-1.086-5.192-4.437-5.192-4.437s3.493-1.652,6.845-0.566
		c3.304,1.086,5.192,4.437,5.192,4.437S49.578,45.77,46.273,44.731"/>
	<path style="fill:#FFFFFF;" d="M71.669,45.911c-1.935-2.879-1.322-6.703-1.322-6.703s3.776,0.897,5.712,3.776
		c1.935,2.879,1.322,6.703,1.322,6.703S73.605,48.838,71.669,45.911"/>
	<path style="fill:#FFFFFF;" d="M63.031,42.796c-2.502-2.455-2.691-6.325-2.691-6.325s3.871,0.094,6.373,2.502
		c2.502,2.455,2.691,6.325,2.691,6.325S65.533,45.203,63.031,42.796"/>
	<path style="fill:#FFFFFF;" d="M54.487,42.89c-3.021-1.747-4.154-5.429-4.154-5.429s3.776-0.897,6.797,0.85
		c3.021,1.747,4.154,5.429,4.154,5.429S57.508,44.637,54.487,42.89"/>
	<g>
		<path style="fill:#FFFFFF;" d="M89.938,85.469c-0.047-6.373-2.549-12.745-7.458-17.513c-8.969-8.78-23.461-9.535-32.382-1.558
			c-0.802,0.708-2.313,2.313-2.266,2.407c0.047,0.047,1.558-1.275,2.407-1.888c9.724-6.75,22.753-6.373,31.297,1.983
			c4.437,4.343,6.797,10.055,7.033,15.861L89.938,85.469z"/>
		<path style="fill:#FFFFFF;" d="M84.792,98.497c-0.85,1.275-1.794,2.502-2.879,3.635c-2.738,2.785-6.089,4.862-9.771,5.995
			l0.378,1.275c3.918-1.227,7.458-3.399,10.338-6.325c1.18-1.227,2.219-2.502,3.115-3.871L84.792,98.497z"/>
		<path style="fill:#FFFFFF;" d="M100.323,89.151c4.343-15.625,0.283-33.138-12.132-45.269C72.189,28.21,46.604,26.51,30.082,39.539
			c-2.171,1.699-6.089,5.853-5.995,5.948c0.094,0.094,4.06-3.257,6.184-4.579c17.843-11.282,40.832-10.243,56.173,4.768
			c11.754,11.518,15.625,28.134,11.423,42.956L100.323,89.151z"/>
	</g>
	<g>
		<path style="fill:#FFFFFF;" d="M91.495,101.896c-1.322,1.841-2.785,3.588-4.39,5.24c-3.163,3.257-6.845,5.995-10.81,8.072
			l1.18,2.219c4.201-2.219,8.072-5.098,11.423-8.544c1.935-1.983,3.635-4.06,5.098-6.231L91.495,101.896z"/>
		<path style="fill:#FFFFFF;" d="M114.956,86.602c6.089-23.272-0.142-49.093-18.504-67.078C70.82-5.541,28.194-6.627,4.309,17.164
			c-1.511,1.511-4.532,4.626-4.296,4.815c0.236,0.236,3.21-2.927,4.909-4.248C30.177-1.954,69.687-1.435,93.856,22.215
			c18.079,17.702,23.697,43.381,16.758,66.039L114.956,86.602z"/>
	</g>
</g>
</svg>
