<?xml version="1.0" encoding="UTF-8"?>
<svg id="Layer_1" data-name="Layer 1" xmlns="http://www.w3.org/2000/svg" viewBox="0 0 512 440.66">
  <defs>
    <style>
      .cls-1 {
        fill: none;
      }

      .cls-2 {
        fill: #e1e1e1;
      }

      .cls-3 {
        fill: #231f20;
      }

      .cls-4 {
        fill: #787878;
      }
    </style>
  </defs>
  <path class="cls-3" d="m508.2,143.57c.95-5.87,1.44-11.86,1.44-17.93,0-29.38-11.41-56.96-32.12-77.68-20.71-20.72-48.3-32.12-77.68-32.12-1.4,0-2.79.03-4.18.09C359.14,4.96,313.07,0,256.09,0s-103.06,4.96-139.6,15.93c-1.38-.05-2.76-.08-4.15-.08-29.45,0-57.08,11.4-77.82,32.11C13.78,68.67,2.36,96.26,2.36,125.65c0,6.08.49,12.08,1.45,17.95-2.56,15.86-3.81,33.2-3.81,52.15,0,144.99,106.66,244.91,256.09,244.91s255.91-99.92,255.91-244.91c0-18.95-1.24-36.31-3.8-52.17Zm-80.41,216.14c-21.1,20.07-46.33,35.69-74.98,46.45-29.6,11.11-62.14,16.75-96.72,16.75s-67.2-5.63-96.82-16.75c-28.68-10.76-53.92-26.39-75.03-46.45-21.11-20.07-37.54-44.06-48.84-71.32-11.71-28.25-17.65-59.42-17.65-92.64,0-4.59.08-9.05.23-13.4,4.57,7.61,10.11,14.7,16.53,21.13,20.73,20.73,48.37,32.15,77.83,32.15s56.98-11.42,77.69-32.15c20.71-20.74,32.11-48.37,32.11-77.82s-11.41-56.96-32.12-77.68c-9.88-9.88-21.33-17.64-33.79-23.06,27.98-4.82,61.04-7.17,99.87-7.17s71.83,2.34,99.79,7.16c-12.49,5.42-23.96,13.18-33.86,23.06-20.74,20.71-32.16,48.3-32.16,77.69s11.42,57.1,32.15,77.83c20.73,20.73,48.37,32.15,77.83,32.15s56.98-11.42,77.69-32.15c6.42-6.42,11.94-13.51,16.5-21.11.15,4.35.23,8.81.23,13.39,0,33.22-5.94,64.39-17.65,92.64-11.3,27.26-27.72,51.26-48.82,71.33Z"/>
  <path class="cls-4" d="m256.09,422.91c-34.62,0-67.2-5.63-96.82-16.75-28.68-10.76-53.92-26.39-75.03-46.45-21.11-20.07-37.54-44.06-48.84-71.32-11.71-28.25-17.65-59.42-17.65-92.64s4.16-62.04,12.71-84.65c8.35-22.07,20.97-39.32,38.6-52.75,36.37-27.7,95.8-40.61,187.04-40.61s150.62,12.9,186.94,40.6c17.6,13.42,30.2,30.67,38.54,52.74,8.54,22.61,12.69,50.3,12.69,84.66s-5.94,64.39-17.65,92.64c-11.3,27.26-27.72,51.26-48.82,71.33-21.1,20.07-46.33,35.69-74.98,46.45-29.6,11.11-62.14,16.75-96.72,16.75Z"/>
  <rect class="cls-1" x="247.4" y="0" width="17.74" height="17.74"/>
  <path class="cls-3" d="m256.09,435.15c94.24,0,165.93-39.04,209.59-100.09-55.73-50.76-127.6-79.51-209.59-79.51s-154.22,28.75-209.77,79.33c43.66,61.23,115.35,100.27,209.77,100.27Z"/>
  <path class="cls-2" d="m153.33,365.94c-11.36,0-20.41-9.05-20.41-20.59s9.05-20.41,20.41-20.41,20.59,9.05,20.59,20.41-9.05,20.59-20.59,20.59Z"/>
  <path class="cls-2" d="m256.09,380.49c-19.34,0-35.14-15.79-35.14-35.14s15.79-34.96,35.14-34.96,34.96,15.79,34.96,34.96-15.79,35.14-34.96,35.14Z"/>
  <path class="cls-2" d="m358.67,365.94c-11.54,0-20.59-9.05-20.59-20.59s9.05-20.41,20.59-20.41,20.41,9.05,20.41,20.41-9.05,20.59-20.41,20.59Z"/>
  <path class="cls-2" d="m112.34,215.62c49.69,0,89.8-40.11,89.8-89.98s-40.11-89.8-89.8-89.8S22.36,75.96,22.36,125.65s40.11,89.98,89.98,89.98Zm0-27.86c-34.61,0-62.11-27.51-62.11-62.11s27.51-61.94,62.11-61.94,61.94,27.51,61.94,61.94-27.51,62.11-61.94,62.11Z"/>
  <path class="cls-2" d="m399.84,215.62c49.69,0,89.8-40.11,89.8-89.98s-40.11-89.8-89.8-89.8-89.98,40.11-89.98,89.8,40.11,89.98,89.98,89.98Zm0-27.86c-34.61,0-62.11-27.51-62.11-62.11s27.51-61.94,62.11-61.94,61.94,27.51,61.94,61.94-27.51,62.11-61.94,62.11Z"/>
  <path class="cls-2" d="m112.34,160.61c19.17,0,34.78-15.62,34.78-34.96s-15.62-34.78-34.78-34.78-34.96,15.62-34.96,34.78,15.62,34.96,34.96,34.96Zm287.5,0c19.17,0,34.78-15.62,34.78-34.96s-15.62-34.78-34.78-34.78-34.96,15.62-34.96,34.78,15.62,34.96,34.96,34.96Z"/>
</svg>