<?xml version="1.0" encoding="iso-8859-1"?>
<!-- Generator: Adobe Illustrator 27.8.1, SVG Export Plug-In . SVG Version: 6.00 Build 0)  -->
<svg version="1.1" id="Layer_1" xmlns="http://www.w3.org/2000/svg" xmlns:xlink="http://www.w3.org/1999/xlink" x="0px" y="0px"
	 viewBox="0 0 128 128" style="enable-background:new 0 0 128 128;" xml:space="preserve">
<g>
	<path style="fill:#FFFFFF;" d="M97.577,94.423c-16.802,0-30.423-13.62-30.423-30.423s13.62-30.423,30.423-30.423S128,47.198,128,64
		S114.379,94.423,97.577,94.423z M120.499,64c0-12.66-10.263-22.921-22.921-22.921S74.656,51.341,74.656,64
		s10.263,22.921,22.921,22.921S120.499,76.659,120.499,64L120.499,64z"/>
	<path style="fill:#FFFFFF;" d="M51.469,73.09c-3.519,8.137-11.617,13.831-21.046,13.831c-11.374,0-20.812-8.286-22.611-19.15
		h52.802c0.153-1.236,0.232-2.495,0.232-3.772c0-16.802-13.62-30.423-30.423-30.423S0,47.198,0,64s13.62,30.423,30.423,30.423
		c12.428,0,23.115-7.453,27.837-18.133L51.469,73.09L51.469,73.09z M30.423,41.079c11.368,0,20.802,8.276,22.608,19.132H7.815
		C9.621,49.355,19.055,41.079,30.423,41.079z"/>
</g>
</svg>
