<?xml version="1.0" encoding="iso-8859-1"?>
<!-- Generator: Adobe Illustrator 27.8.0, SVG Export Plug-In . SVG Version: 6.00 Build 0)  -->
<svg version="1.1" id="Layer_1" xmlns="http://www.w3.org/2000/svg" xmlns:xlink="http://www.w3.org/1999/xlink" x="0px" y="0px"
	 viewBox="0 0 128 128" style="enable-background:new 0 0 128 128;" xml:space="preserve">
<g>
	<g>
		<defs>
			<path id="SVGID_1_" d="M104.124,34.971c-0.391,0-0.783,0.391-0.783,0.783V54.15c0,3.262-2.74,6.002-6.002,6.002
				c-3.131,0-5.61-2.609-6.002-5.61c0-0.13,0-18.657,0-18.657l0,0c0-0.391-0.261-0.652-0.652-0.783h-0.13h-3.392l0,0h-0.13
				c-0.391,0.13-0.652,0.391-0.652,0.783l0,0c0,0,0,18.918,0,19.048c-0.391,3.001-2.87,5.219-6.002,5.219
				c-3.262,0-6.002-3.131-6.002-6.393V35.884c0-0.391-0.391-0.783-0.783-0.783h-3.392c-0.391,0-0.783,0.391-0.783,0.783
				c0,0,0,17.744,0,18.527c0,5.349,3.784,9.785,8.872,10.829c0.391,0.13,2.348,0.261,4.175,0c2.479-0.522,4.697-1.827,6.393-3.784
				c1.566,1.957,3.784,3.262,6.393,3.784c0.391,0.13,2.348,0.261,4.175,0c5.088-1.044,8.872-5.48,8.872-10.829V35.753
				c0-0.391-0.391-0.783-0.783-0.783H104.124z M33.541,33.796c-6.915,1.566-11.873,7.698-11.873,14.873v14.743
				c0,0.391,0.391,0.783,0.783,0.783h3.262c0.391,0,0.783-0.391,0.783-0.783V49.061l0,0V48.67c0-4.566,3.131-8.741,7.437-10.046
				c0.391-0.13,0.522-0.391,0.522-0.783v-3.392c0-0.391-0.391-0.783-0.783-0.783C33.541,33.796,33.541,33.796,33.541,33.796
				 M42.412,56.889c-2.088-2.218-3.131-5.088-2.87-8.089c0.391-5.349,4.697-9.785,10.046-10.046c0.261,0,0.522,0,0.652,0
				c5.871,0,10.698,4.827,10.698,10.829c0,0.652,0,1.305-0.13,1.957c-0.913,5.088-5.349,8.872-10.568,8.872
				C47.37,60.282,44.5,58.977,42.412,56.889 M49.719,33.796C41.63,34.057,34.976,40.711,34.715,48.8
				c-0.13,4.305,1.435,8.35,4.305,11.481c3.001,3.131,7.045,4.827,11.351,4.827c3.653,0,7.176-1.305,9.916-3.523l0.652-0.522v2.479
				c0,0.391,0.261,0.652,0.652,0.652h3.653c0.391,0,0.783-0.391,0.783-0.783v-13.96c0-8.611-7.045-15.656-15.656-15.656
				C50.11,33.796,49.849,33.796,49.719,33.796"/>
		</defs>
		<clipPath id="SVGID_00000145776797176037780600000004481559985949235371_">
			<use xlink:href="#SVGID_1_"  style="overflow:visible;"/>
		</clipPath>
		
			<linearGradient id="SVGID_00000127738445747445929320000004213227149244600767_" gradientUnits="userSpaceOnUse" x1="-459.3313" y1="-37.7429" x2="-458.0266" y2="-37.7429" gradientTransform="matrix(0 -24.0159 -24.0159 0 -841.447 -10966.0908)">
			<stop  offset="0" style="stop-color:#59F5F5"/>
			<stop  offset="1" style="stop-color:#03D1F5"/>
		</linearGradient>
		
			<rect x="21.668" y="33.796" style="clip-path:url(#SVGID_00000145776797176037780600000004481559985949235371_);fill:url(#SVGID_00000127738445747445929320000004213227149244600767_);" width="86.631" height="31.443"/>
	</g>
	<g>
		<defs>
			<path id="SVGID_00000090285565724574062490000017008347183550308539_" d="M46.326,87.289c0-2.479,2.087-4.566,4.566-4.566
				c2.479,0,4.566,2.088,4.566,4.566s-2.088,4.566-4.566,4.566C48.414,91.725,46.326,89.768,46.326,87.289 M42.543,87.289
				c0,4.566,3.784,8.35,8.35,8.35s8.35-3.784,8.35-8.35c0-4.566-3.784-8.35-8.35-8.35C46.196,78.939,42.543,82.592,42.543,87.289
				 M73.073,87.289c0-2.479,2.088-4.566,4.566-4.566c2.479,0,4.566,2.088,4.566,4.566s-2.088,4.566-4.566,4.566
				C75.16,91.725,73.073,89.768,73.073,87.289 M69.289,87.289c0,4.566,3.784,8.35,8.35,8.35s8.35-3.784,8.35-8.35
				c0-4.566-3.784-8.35-8.35-8.35S69.289,82.592,69.289,87.289 M63.157,112.73c-15.265-0.261-29.747-6.263-40.706-17.222
				C11.491,84.679,5.359,70.328,4.968,55.063C4.707,41.364,9.143,28.056,17.493,17.357c0.913-1.305,2.479-1.957,4.045-1.957h85.196
				c1.435,0,2.74,0.652,3.653,1.827c8.35,10.438,12.655,23.093,12.655,36.531c0,15.917-6.263,30.791-17.613,42.011
				c-11.09,10.959-25.833,16.961-41.489,16.961C63.679,112.73,63.418,112.73,63.157,112.73 M21.537,10.443
				c-3.131,0-6.002,1.435-7.959,3.914C4.576,25.968-0.251,40.45,0.01,55.193c0.391,16.439,7.176,32.095,19.048,43.838
				s27.529,18.396,44.098,18.527c0.261,0,0.652,0,0.913,0c16.961,0,32.878-6.523,44.881-18.396C121.216,87.028,128,70.85,128,53.628
				c0-14.482-4.697-28.181-13.699-39.532c-1.827-2.348-4.566-3.653-7.437-3.653L21.537,10.443z"/>
		</defs>
		<clipPath id="SVGID_00000134233986211358045050000018267928133296606592_">
			<use xlink:href="#SVGID_00000090285565724574062490000017008347183550308539_"  style="overflow:visible;"/>
		</clipPath>
		
			<linearGradient id="SVGID_00000120529118114029451270000016914459686295061171_" gradientUnits="userSpaceOnUse" x1="-453.2144" y1="-31.7144" x2="-451.9105" y2="-31.7144" gradientTransform="matrix(0 -82.1491 -82.1491 0 -2541.4373 -37113.6016)">
			<stop  offset="0" style="stop-color:#59F5F5"/>
			<stop  offset="1" style="stop-color:#03D1F5"/>
		</linearGradient>
		
			<rect x="-0.251" y="10.443" style="clip-path:url(#SVGID_00000134233986211358045050000018267928133296606592_);fill:url(#SVGID_00000120529118114029451270000016914459686295061171_);" width="128.251" height="107.115"/>
	</g>
</g>
<g style="opacity:0.6;">
	<g>
		<defs>
			<path id="SVGID_00000039118428790153050650000000141026917943592067_" d="M104.124,34.971c-0.391,0-0.783,0.391-0.783,0.783
				V54.15c0,3.262-2.74,6.002-6.002,6.002c-3.131,0-5.61-2.609-6.002-5.61c0-0.13,0-18.657,0-18.657l0,0
				c0-0.391-0.261-0.652-0.652-0.783h-0.13h-3.392l0,0h-0.13c-0.391,0.13-0.652,0.391-0.652,0.783l0,0c0,0,0,18.918,0,19.048
				c-0.391,3.001-2.87,5.219-6.002,5.219c-3.262,0-6.002-3.131-6.002-6.393V35.884c0-0.391-0.391-0.783-0.783-0.783h-3.392
				c-0.391,0-0.783,0.391-0.783,0.783c0,0,0,17.744,0,18.527c0,5.349,3.784,9.785,8.872,10.829c0.391,0.13,2.348,0.261,4.175,0
				c2.479-0.522,4.697-1.827,6.393-3.784c1.566,1.957,3.784,3.262,6.393,3.784c0.391,0.13,2.348,0.261,4.175,0
				c5.088-1.044,8.872-5.48,8.872-10.829V35.753c0-0.391-0.391-0.783-0.783-0.783H104.124z M33.541,33.796
				c-6.915,1.566-11.873,7.698-11.873,14.873v14.743c0,0.391,0.391,0.783,0.783,0.783h3.262c0.391,0,0.783-0.391,0.783-0.783V49.061
				l0,0V48.67c0-4.566,3.131-8.741,7.437-10.046c0.391-0.13,0.522-0.391,0.522-0.783v-3.392c0-0.391-0.391-0.783-0.783-0.783
				C33.541,33.796,33.541,33.796,33.541,33.796 M42.412,56.889c-2.088-2.218-3.131-5.088-2.87-8.089
				c0.391-5.349,4.697-9.785,10.046-10.046c0.261,0,0.522,0,0.652,0c5.871,0,10.698,4.827,10.698,10.829c0,0.652,0,1.305-0.13,1.957
				c-0.913,5.088-5.349,8.872-10.568,8.872C47.37,60.282,44.5,58.977,42.412,56.889 M49.719,33.796
				C41.63,34.057,34.976,40.711,34.715,48.8c-0.13,4.305,1.435,8.35,4.305,11.481c3.001,3.131,7.045,4.827,11.351,4.827
				c3.653,0,7.176-1.305,9.916-3.523l0.652-0.522v2.479c0,0.391,0.261,0.652,0.652,0.652h3.653c0.391,0,0.783-0.391,0.783-0.783
				v-13.96c0-8.611-7.045-15.656-15.656-15.656C50.11,33.796,49.849,33.796,49.719,33.796"/>
		</defs>
		<use xlink:href="#SVGID_00000039118428790153050650000000141026917943592067_"  style="overflow:visible;fill:#FFFFFF;"/>
		<clipPath id="SVGID_00000145775112171299230620000006734786512637106075_">
			<use xlink:href="#SVGID_00000039118428790153050650000000141026917943592067_"  style="overflow:visible;"/>
		</clipPath>
		
			<rect x="21.668" y="33.796" style="clip-path:url(#SVGID_00000145775112171299230620000006734786512637106075_);fill:#FFFFFF;" width="86.631" height="31.443"/>
	</g>
	<g>
		<defs>
			<path id="SVGID_00000070808210876223388030000011412750703614472612_" d="M46.326,87.289c0-2.479,2.087-4.566,4.566-4.566
				c2.479,0,4.566,2.088,4.566,4.566s-2.088,4.566-4.566,4.566C48.414,91.725,46.326,89.768,46.326,87.289 M42.543,87.289
				c0,4.566,3.784,8.35,8.35,8.35s8.35-3.784,8.35-8.35c0-4.566-3.784-8.35-8.35-8.35C46.196,78.939,42.543,82.592,42.543,87.289
				 M73.073,87.289c0-2.479,2.088-4.566,4.566-4.566c2.479,0,4.566,2.088,4.566,4.566s-2.088,4.566-4.566,4.566
				C75.16,91.725,73.073,89.768,73.073,87.289 M69.289,87.289c0,4.566,3.784,8.35,8.35,8.35s8.35-3.784,8.35-8.35
				c0-4.566-3.784-8.35-8.35-8.35S69.289,82.592,69.289,87.289 M63.157,112.73c-15.265-0.261-29.747-6.263-40.706-17.222
				C11.491,84.679,5.359,70.328,4.968,55.063C4.707,41.364,9.143,28.056,17.493,17.357c0.913-1.305,2.479-1.957,4.045-1.957h85.196
				c1.435,0,2.74,0.652,3.653,1.827c8.35,10.438,12.655,23.093,12.655,36.531c0,15.917-6.263,30.791-17.613,42.011
				c-11.09,10.959-25.833,16.961-41.489,16.961C63.679,112.73,63.418,112.73,63.157,112.73 M21.537,10.443
				c-3.131,0-6.002,1.435-7.959,3.914C4.576,25.968-0.251,40.45,0.01,55.193c0.391,16.439,7.176,32.095,19.048,43.838
				s27.529,18.396,44.098,18.527c0.261,0,0.652,0,0.913,0c16.961,0,32.878-6.523,44.881-18.396C121.216,87.028,128,70.85,128,53.628
				c0-14.482-4.697-28.181-13.699-39.532c-1.827-2.348-4.566-3.653-7.437-3.653L21.537,10.443z"/>
		</defs>
		<use xlink:href="#SVGID_00000070808210876223388030000011412750703614472612_"  style="overflow:visible;fill:#FFFFFF;"/>
		<clipPath id="SVGID_00000047759540175365953570000015975818439303756718_">
			<use xlink:href="#SVGID_00000070808210876223388030000011412750703614472612_"  style="overflow:visible;"/>
		</clipPath>
		
			<rect x="-0.251" y="10.443" style="clip-path:url(#SVGID_00000047759540175365953570000015975818439303756718_);fill:#FFFFFF;" width="128.251" height="107.115"/>
	</g>
</g>
</svg>
