<?xml version="1.0" encoding="iso-8859-1"?>
<!-- Generator: Adobe Illustrator 27.7.0, SVG Export Plug-In . SVG Version: 6.00 Build 0)  -->
<svg version="1.1" id="Layer_1" xmlns="http://www.w3.org/2000/svg" xmlns:xlink="http://www.w3.org/1999/xlink" x="0px" y="0px"
	 viewBox="0 0 128 128" style="enable-background:new 0 0 128 128;" xml:space="preserve">
<g>
	<path d="M0,41.685c8.479,12.517,23.94,8.669,35.402,11.662C21.96,44.84,7.973,45.81,0,41.685z"/>
	<path d="M5.216,42.624c7.73,1.322,16.867,1.804,26.381,1.312c13.284-0.689,14.891,1.403,30.264,8.325
		c2.641-4.92,5.965-8.159,9.774-8.159c0,0,3.2-0.077,4.991,1.632c1.98-0.271,3.457,1.864,3.651,2.293
		c-2.912-0.506-5.712,0.816-7.614,4.702c6.605-0.503,11.427-0.939,16.164-0.355c8.599,1.059,18.334,8.437,35.62,11.856
		c-11.965-1.09-21.411-4.326-31.195-3.612c-13.364,0.971-23.543,6.605-27.661,5.807c-1.361,3.535-3.612,10.354-4.35,19.892
		c-3.886-7.206-11.462-12.918-19.892-13.653c5.712-1.125,10.839-5.075,13.79-8.395c-4.973-2.676-10.678-11.353-23.226-15.471
		c-11.733-3.851-21.686-4.22-26.697-6.165L5.216,42.624z"/>
	<path d="M88.821,63.996c13.403,0.693,27.622,10.794,39.179,0.925C115.627,66.205,108.411,60.571,88.821,63.996z"/>
</g>
<g style="opacity:0.6;">
	<path style="fill:#FFFFFF;" d="M0,41.685c8.479,12.517,23.94,8.669,35.402,11.662C21.96,44.84,7.973,45.81,0,41.685z"/>
	<path style="fill:#FFFFFF;" d="M5.216,42.624c7.73,1.322,16.867,1.804,26.381,1.312c13.284-0.689,14.891,1.403,30.264,8.325
		c2.641-4.92,5.965-8.159,9.774-8.159c0,0,3.2-0.077,4.991,1.632c1.98-0.271,3.457,1.864,3.651,2.293
		c-2.912-0.506-5.712,0.816-7.614,4.702c6.605-0.503,11.427-0.939,16.164-0.355c8.599,1.059,18.334,8.437,35.62,11.856
		c-11.965-1.09-21.411-4.326-31.195-3.612c-13.364,0.971-23.543,6.605-27.661,5.807c-1.361,3.535-3.612,10.354-4.35,19.892
		c-3.886-7.206-11.462-12.918-19.892-13.653c5.712-1.125,10.839-5.075,13.79-8.395c-4.973-2.676-10.678-11.353-23.226-15.471
		c-11.733-3.851-21.686-4.22-26.697-6.165L5.216,42.624z"/>
	<path style="fill:#FFFFFF;" d="M88.821,63.996c13.403,0.693,27.622,10.794,39.179,0.925
		C115.627,66.205,108.411,60.571,88.821,63.996z"/>
</g>
</svg>
