<?xml version="1.0" encoding="iso-8859-1"?>
<!-- Generator: Adobe Illustrator 27.8.1, SVG Export Plug-In . SVG Version: 6.00 Build 0)  -->
<svg version="1.1" id="Layer_1" xmlns="http://www.w3.org/2000/svg" xmlns:xlink="http://www.w3.org/1999/xlink" x="0px" y="0px"
	 viewBox="0 0 128 128" style="enable-background:new 0 0 128 128;" xml:space="preserve">
<g>
	<path style="fill:#FFFFFF;" d="M108.223,53.288c-1.059,0-1.962-0.314-2.668-0.981c-0.667-0.667-1.02-1.53-1.02-2.511
		c0-0.981,0.353-1.844,1.02-2.472c0.706-0.667,1.609-1.02,2.668-1.02s1.923,0.353,2.629,1.02c0.706,0.667,1.059,1.491,1.059,2.472
		c0,0.981-0.353,1.844-1.059,2.511C110.146,52.974,109.283,53.288,108.223,53.288z M111.166,79.853h-6.004v-23.74h6.004V79.853z
		 M78.95,61.057v11.497c0,0.785,0.196,1.373,0.549,1.766c0.392,0.353,1.059,0.51,1.962,0.51h2.786v5.062h-3.767
		c-5.062,0-7.573-2.472-7.573-7.377V61.057h-2.825v-4.944h2.825v-5.886h6.043v5.886h5.297v4.944H78.95L78.95,61.057z"/>
	<path style="fill:#FFFFFF;" d="M41.359,67.924c0-2.394,0.471-4.513,1.413-6.396c0.981-1.844,2.276-3.296,3.885-4.277
		c1.648-0.981,3.492-1.491,5.533-1.491c1.766,0,3.296,0.353,4.63,1.059c1.334,0.706,2.433,1.609,3.218,2.708v-3.375h6.043v23.74
		h-6.043v-3.453c-0.785,1.099-1.844,2.04-3.218,2.786c-1.334,0.706-2.904,1.059-4.67,1.059c-2.001,0-3.845-0.51-5.494-1.53
		s-2.943-2.472-3.885-4.316C41.83,72.476,41.359,70.318,41.359,67.924z M60.037,68.002c0-1.452-0.275-2.708-0.863-3.728
		c-0.589-1.059-1.334-1.844-2.315-2.394c-0.981-0.589-2.001-0.863-3.139-0.863c-1.099,0-2.158,0.275-3.1,0.824
		c-0.942,0.549-1.727,1.334-2.315,2.394c-0.589,1.02-0.863,2.276-0.863,3.689s0.275,2.668,0.863,3.767
		c0.589,1.059,1.373,1.884,2.315,2.433c0.981,0.589,2.001,0.863,3.1,0.863c1.099,0,2.158-0.275,3.139-0.824
		c0.981-0.589,1.727-1.373,2.315-2.394C59.762,70.71,60.037,69.454,60.037,68.002z"/>
	<path style="fill:#FFFFFF;" d="M95.549,72.554V61.057h5.297v-4.944h-5.297v-5.886h-6.043v5.886h-2.825v4.944h2.825v11.458
		c0,4.905,2.511,7.377,7.573,7.377h3.767v-5.101h-2.747c-0.903,0-1.57-0.157-1.962-0.51S95.549,73.339,95.549,72.554z
		 M123.841,61.057H128v-4.944h-4.159v-0.981c0-1.334,0.275-2.276,0.863-2.786s1.57-0.746,3.061-0.746v-5.023
		c-3.335-0.078-5.847,0.549-7.495,1.923c-1.648,1.373-2.472,3.532-2.472,6.435v1.216h-2.708v4.944h2.708v18.835h6.082V61.057
		H123.841z M10.948,67.532c0-6.043-4.905-10.948-10.948-10.948v5.494c3.021,0,5.494,2.472,5.494,5.494v6.945
		c0,3.963,3.218,7.181,7.181,7.181s7.181-3.218,7.181-7.181V63.843c0-0.981,0.785-1.805,1.805-1.805
		c0.981,0,1.805,0.785,1.805,1.805v10.752c0,3.885,3.139,7.063,7.063,7.063c3.885,0,7.063-3.139,7.063-7.063v-18.05h-5.494v18.05
		c0,0.863-0.706,1.57-1.57,1.57s-1.57-0.706-1.57-1.57V63.843c0-4.002-3.257-7.259-7.259-7.259s-7.259,3.257-7.259,7.259v10.673
		c0,0.942-0.746,1.687-1.687,1.687s-1.687-0.746-1.687-1.687v-6.985H10.948z"/>
</g>
</svg>
