<?xml version="1.0" encoding="UTF-8"?>
<svg id="Layer_1" data-name="Layer 1" xmlns="http://www.w3.org/2000/svg" xmlns:xlink="http://www.w3.org/1999/xlink" viewBox="0 0 124.24 128">
  <defs>
    <style>
      .cls-1 {
        fill: url(#linear-gradient);
      }

      .cls-1, .cls-2, .cls-3 {
        stroke-width: 0px;
      }

      .cls-2 {
        fill: url(#linear-gradient-2);
      }

      .cls-3 {
        fill: url(#linear-gradient-3);
      }
    </style>
    <linearGradient id="linear-gradient" x1="48.92" y1="75.14" x2="0" y2="75.14" gradientUnits="userSpaceOnUse">
      <stop offset=".04" stop-color="#0072a6"/>
      <stop offset=".56" stop-color="#015b8c"/>
      <stop offset="1" stop-color="#024c7a"/>
    </linearGradient>
    <linearGradient id="linear-gradient-2" x1="3.54" y1="30.68" x2="124.24" y2="30.68" gradientUnits="userSpaceOnUse">
      <stop offset="0" stop-color="#98c201"/>
      <stop offset="1" stop-color="#678501"/>
    </linearGradient>
    <linearGradient id="linear-gradient-3" x1="33.49" y1="104.77" x2="118.79" y2="104.77" gradientUnits="userSpaceOnUse">
      <stop offset="0" stop-color="#009ab1"/>
      <stop offset="1" stop-color="#075769"/>
    </linearGradient>
  </defs>
  <path class="cls-1" d="m34.3,71.02c0,23.47,8.17,31.89,14.61,39.89-6.71,4.56-21.75,6.28-28.46,0C7.29,98.63,0,83.11,0,64.05c0-4.36.43-9.02,1.29-13.14,3.95-8.94,22.35-20.23,44.62-13.68-3.52,6.1-11.61,17.11-11.61,33.79Z"/>
  <path class="cls-2" d="m98.86,61.37c-16.79,0-26.04-10.05-34.53-18.73-7.25-7.41-19.72-11.98-29.62-11.98-17.64,0-26.32,5.66-31.18,10.74C13,17.2,37.16,0,65.47,0c16.82,0,30.66,5.75,43.84,16.07,6.54,5.12,14.93,14.62,14.93,24.78,0,10.84-9.53,20.52-25.38,20.52Z"/>
  <path class="cls-3" d="m101.53,81.56c-16.79-.38-25.29,11.38-34.13,20.5-7.21,7.44-18.4,17.8-33.91,17.47,7.69,4.13,18.25,8.48,32.39,8.48,16.82,0,28.36-4.65,42.35-14.34,16.01-11.09,13.84-31.64-6.71-32.1Z"/>
</svg>