<?xml version="1.0" encoding="iso-8859-1"?>
<!-- Generator: Adobe Illustrator 27.8.1, SVG Export Plug-In . SVG Version: 6.00 Build 0)  -->
<svg version="1.1" id="Layer_1" xmlns="http://www.w3.org/2000/svg" xmlns:xlink="http://www.w3.org/1999/xlink" x="0px" y="0px"
	 viewBox="0 0 512 512" style="enable-background:new 0 0 512 512;" xml:space="preserve">
<path style="fill:#004E7C;" d="M420.198,224.449c-2.866-38.96-11.069-117.365-22.856-154.616C376.386,3.599,290.546,0,256.024,0
	c-34.527,0-116.87,3.801-138.432,69.833c-12.166,37.252-22.518,115.576-25.743,154.616c-3.78,45.662,37.282,83.105,83.106,83.105
	h23.356v43.407c0,2.329,1.888,4.216,4.216,4.216h18.687V372.8h-0.108c-1.105,0-2,0.895-2,2v11.319c0,1.105,0.895,2,2,2h0.108v12.144
	h-0.108c-1.105,0-2,0.895-2,2v11.319c0,1.105,0.895,2,2,2h0.108v12.144h-0.108c-1.105,0-2,0.895-2,2v11.319c0,1.105,0.895,2,2,2
	h0.108v12.144h-0.108c-1.105,0-2,0.895-2,2v11.319c0,1.105,0.895,2,2,2h0.108v17.866c0,2.209,1.791,4,4,4h15.299V512h30.973v-19.626
	h15.299c2.209,0,4-1.791,4-4v-17.866h0.108c1.105,0,2-0.895,2-2v-11.319c0-1.105-0.895-2-2-2h-0.108v-12.144h0.108
	c1.105,0,2-0.895,2-2v-11.319c0-1.105-0.895-2-2-2h-0.108v-12.144h0.108c1.105,0,2-0.895,2-2v-11.319c0-1.105-0.895-2-2-2h-0.108
	v-12.144h0.108c1.105,0,2-0.895,2-2V374.8c0-1.105-0.895-2-2-2h-0.108v-17.623h18.687c2.329,0,4.216-1.888,4.216-4.216v-43.407
	h23.404C382.911,307.554,423.559,270.151,420.198,224.449z"/>
<path style="fill:#337196;" d="M217.285,336.204v-47.623h-42.329c-18.484,0-36.963-8.086-49.431-21.629
	c-10.741-11.667-15.985-26.205-14.766-40.937c3.306-40.026,13.497-115.468,24.87-150.292
	c12.296-37.656,52.803-56.749,120.395-56.749c10.284,0,41.577,0,69.911,9.159c28.718,9.284,46.158,24.796,53.318,47.423
	c11.304,35.726,19.349,113.927,22.023,150.285c1.101,14.981-4.294,29.691-15.193,41.421c-12.403,13.349-30.716,21.318-48.989,21.318
	h-42.377v47.623H217.285z"/>
<g>
	<path style="fill:#E5EDF2;" d="M242.248,108.801c0,2.209,1.791,4,4,4h21.104c2.209,0,4-1.791,4-4V66.204c0-2.209-1.791-4-4-4
		h-21.104c-2.209,0-4,1.791-4,4V108.801z"/>
</g>
<g>
	<path style="fill:#E5EDF2;" d="M161.587,235.42c0,2.209,1.791,4,4,4h42.597c2.209,0,4-1.791,4-4v-18.96c0-2.209-1.791-4-4-4
		h-42.597c-2.209,0-4,1.791-4,4V235.42z"/>
</g>
<g>
	<path style="fill:#E5EDF2;" d="M299.816,235.42c0,2.209,1.791,4,4,4h42.597c2.209,0,4-1.791,4-4v-18.96c0-2.209-1.791-4-4-4
		h-42.597c-2.209,0-4,1.791-4,4V235.42z"/>
</g>
</svg>
