<?xml version="1.0" encoding="iso-8859-1"?>
<!-- Generator: Adobe Illustrator 27.8.1, SVG Export Plug-In . SVG Version: 6.00 Build 0)  -->
<svg version="1.1" id="Layer_1" xmlns="http://www.w3.org/2000/svg" xmlns:xlink="http://www.w3.org/1999/xlink" x="0px" y="0px"
	 viewBox="0 0 512 512" style="enable-background:new 0 0 512 512;" xml:space="preserve">
<path style="fill:#FFFFFF;" d="M460.883,67.767c-15.503-20.647-40.075-32.982-65.767-32.982H116.837
	c-25.498,0-49.776,11.944-64.963,31.933C17.771,111.693-0.169,165.37,0.001,221.971c0.39,140.749,115.251,255.244,256.024,255.244
	h2.559c67.839-0.682,131.486-27.617,179.263-75.834C485.649,353.14,512,289.152,512,221.215
	C512,165.37,494.327,112.303,460.883,67.767z"/>
<path style="fill:#004E7C;" d="M460.883,67.767c-15.503-20.647-40.075-32.982-65.767-32.982H116.837
	c-25.498,0-49.776,11.944-64.963,31.933C17.771,111.693-0.169,165.37,0.001,221.971c0.39,140.749,115.251,255.244,256.024,255.244
	h2.559c67.839-0.682,131.486-27.617,179.263-75.834C485.649,353.14,512,289.152,512,221.215
	C512,165.37,494.327,112.303,460.883,67.767z"/>
<path style="fill:#6695B0;" d="M258.365,454.472c-0.78,0.024-1.56,0.024-2.34,0.024c-128.268,0-232.939-104.33-233.305-232.574
	c-0.146-51.579,16.21-100.503,47.266-141.455c10.896-14.358,28.423-22.938,46.851-22.938h278.279
	c18.575,0,36.369,8.946,47.583,23.889c30.47,40.561,46.559,88.925,46.559,139.797C489.257,348.581,385.682,453.204,258.365,454.472z
	"/>
<path style="fill:#E5EDF2;" d="M329.422,286.642c-34.029,0-61.647,27.617-61.647,61.672c0,34.054,27.618,61.648,61.647,61.648
	c34.054,0,61.672-27.594,61.672-61.648C391.094,314.259,363.475,286.642,329.422,286.642z M329.422,375.469
	c-14.991,0-27.155-12.164-27.155-27.155c0-15.015,12.164-27.155,27.155-27.155c14.991,0,27.155,12.14,27.155,27.155
	C356.577,363.304,344.413,375.469,329.422,375.469z"/>
<path style="fill:#E5EDF2;" d="M182.555,286.642c-34.054,0-61.672,27.617-61.672,61.672c0,34.054,27.618,61.648,61.672,61.648
	c34.029,0,61.648-27.594,61.648-61.648C244.202,314.259,216.584,286.642,182.555,286.642z M182.555,375.469
	c-14.991,0-27.155-12.164-27.155-27.155c0-15.015,12.164-27.155,27.155-27.155c14.991,0,27.155,12.14,27.155,27.155
	C209.71,363.304,197.546,375.469,182.555,375.469z"/>
<path style="fill:#E5EDF2;" d="M104.185,152.499c-36.491,0-66.084,29.593-66.084,66.06c0,36.516,29.593,66.084,66.084,66.084
	c36.467,0,66.06-29.568,66.06-66.084C170.245,182.092,140.652,152.499,104.185,152.499z M104.185,247.688
	c-16.064,0-29.105-13.042-29.105-29.13c0-16.064,13.041-29.08,29.105-29.08c16.064,0,29.105,13.017,29.105,29.08
	C133.291,234.647,120.249,247.688,104.185,247.688z"/>
<path style="fill:#E5EDF2;" d="M256.001,152.499c-36.491,0-66.084,29.593-66.084,66.06c0,36.516,29.593,66.084,66.084,66.084
	c36.467,0,66.06-29.568,66.06-66.084C322.06,182.092,292.467,152.499,256.001,152.499z M256.001,247.688
	c-16.088,0-29.105-13.042-29.105-29.13c0-16.064,13.017-29.08,29.105-29.08c16.064,0,29.081,13.017,29.081,29.08
	C285.081,234.647,272.065,247.688,256.001,247.688z"/>
<path style="fill:#E5EDF2;" d="M407.791,152.499c-36.467,0-66.06,29.593-66.06,66.06c0,36.516,29.593,66.084,66.06,66.084
	c36.491,0,66.084-29.568,66.084-66.084C473.875,182.092,444.283,152.499,407.791,152.499z M407.791,247.688
	c-16.064,0-29.081-13.042-29.081-29.13c0-16.064,13.017-29.08,29.081-29.08c16.064,0,29.105,13.017,29.105,29.08
	C436.897,234.647,423.855,247.688,407.791,247.688z"/>
<path style="fill:#E5EDF2;" d="M336.808,74.446c-20.89,0-37.808,16.918-37.808,37.783c0,20.891,16.917,37.808,37.808,37.808
	c20.866,0,37.783-16.917,37.783-37.808C374.591,91.364,357.674,74.446,336.808,74.446z M336.808,128.903
	c-9.214,0-16.649-7.484-16.649-16.674c0-9.19,7.435-16.624,16.649-16.624c9.19,0,16.625,7.434,16.625,16.624
	C353.432,121.419,345.998,128.903,336.808,128.903z"/>
<path style="fill:#E5EDF2;" d="M175.193,74.446c-20.866,0-37.808,16.918-37.808,37.783c0,20.891,16.941,37.808,37.808,37.808
	s37.783-16.917,37.783-37.808C212.977,91.364,196.059,74.446,175.193,74.446z M175.193,128.903c-9.19,0-16.649-7.484-16.649-16.674
	c0-9.19,7.459-16.624,16.649-16.624c9.19,0,16.625,7.434,16.625,16.624C191.818,121.419,184.383,128.903,175.193,128.903z"/>
<path style="opacity:0.6;fill:#FFFFFF;" d="M460.883,67.767c-15.503-20.647-40.075-32.982-65.767-32.982H116.837
	c-25.498,0-49.776,11.944-64.963,31.933C17.771,111.693-0.169,165.37,0.001,221.971c0.39,140.749,115.251,255.244,256.024,255.244
	h2.559c67.839-0.682,131.486-27.617,179.263-75.834C485.649,353.14,512,289.152,512,221.215
	C512,165.37,494.327,112.303,460.883,67.767z"/>
</svg>
