<?xml version="1.0" encoding="UTF-8"?>
<svg id="Layer_1" data-name="Layer 1" xmlns="http://www.w3.org/2000/svg" viewBox="0 0 468.58 512">
  <defs>
    <style>
      .cls-1 {
        fill: #e1e1e1;
      }

      .cls-2 {
        fill: #231f20;
      }

      .cls-3 {
        fill: #787878;
      }
    </style>
  </defs>
  <path class="cls-2" d="m265.32,45.46c1.47-3.76,2.29-7.86,2.29-12.15,0-18.4-14.92-33.32-33.32-33.32s-33.32,14.92-33.32,33.32c0,4.29.82,8.38,2.29,12.15C88.54,60.65,0,158.83,0,277.71c0,129.4,104.9,234.29,234.29,234.29s234.29-104.9,234.29-234.29c0-118.88-88.54-217.06-203.27-232.24Z"/>
  <circle class="cls-3" cx="234.29" cy="277.65" r="216"/>
  <circle class="cls-1" cx="234.29" cy="148.11" r="50"/>
  <circle class="cls-1" cx="100.29" cy="251.68" r="35"/>
  <circle class="cls-1" cx="149.29" cy="384.2" r="35"/>
  <circle class="cls-1" cx="368.29" cy="251.68" r="35"/>
  <circle class="cls-1" cx="319.29" cy="384.2" r="35"/>
</svg>