<?xml version="1.0" encoding="iso-8859-1"?>
<!-- Generator: Adobe Illustrator 27.8.1, SVG Export Plug-In . SVG Version: 6.00 Build 0)  -->
<svg version="1.1" id="Layer_1" xmlns="http://www.w3.org/2000/svg" xmlns:xlink="http://www.w3.org/1999/xlink" x="0px" y="0px"
	 viewBox="0 0 512 512" style="enable-background:new 0 0 512 512;" xml:space="preserve">
<circle style="fill:#81CBEB;" cx="256.124" cy="256.067" r="256"/>
<circle style="fill:#B3E0F3;" cx="256.124" cy="256.067" r="238.067"/>
<path style="fill:#F2FAFD;" d="M128.816,190.894c-35.957,0-65.106,29.148-65.106,65.106c0,35.983,29.149,65.106,65.106,65.106
	c35.957,0,65.132-29.123,65.132-65.106C193.947,220.042,164.773,190.894,128.816,190.894z M128.816,284.695
	c-15.835,0-28.67-12.86-28.67-28.695c0-15.835,12.835-28.67,28.67-28.67c15.835,0,28.67,12.835,28.67,28.67
	C157.486,271.835,144.651,284.695,128.816,284.695z"/>
<path style="fill:#F2FAFD;" d="M383.159,190.894c-35.957,0-65.106,29.148-65.106,65.106c0,35.983,29.149,65.106,65.106,65.106
	c35.957,0,65.132-29.123,65.132-65.106C448.291,220.042,419.116,190.894,383.159,190.894z M383.159,284.695
	c-15.835,0-28.67-12.86-28.67-28.695c0-15.835,12.835-28.67,28.67-28.67c15.835,0,28.67,12.835,28.67,28.67
	C411.829,271.835,398.994,284.695,383.159,284.695z"/>
<g>
	<path style="fill:#F2FAFD;" d="M305.424,171.181c9.767-11.393,15.682-26.187,15.682-42.365c0-16.175-5.912-30.961-15.675-42.347
		l-42.36,42.36L305.424,171.181z"/>
	<path style="fill:#F2FAFD;" d="M256,121.757l42.361-42.36C286.973,69.626,272.182,63.709,256,63.709
		c-16.191,0-30.98,5.915-42.365,15.683L256,121.757z"/>
	<path style="fill:#F2FAFD;" d="M206.565,86.465c-9.762,11.387-15.671,26.174-15.671,42.351c0,16.181,5.911,30.976,15.677,42.37
		l42.357-42.357L206.565,86.465z"/>
	<path style="fill:#F2FAFD;" d="M256,135.899l-42.359,42.359c11.384,9.77,26.172,15.688,42.359,15.688
		c16.179,0,30.968-5.92,42.355-15.693L256,135.899z"/>
</g>
<g>
	<circle style="fill:#B3E0F3;" cx="256" cy="88.533" r="9"/>
	<circle style="fill:#B3E0F3;" cx="256" cy="169.123" r="9"/>
</g>
<g>
	<circle style="fill:#B3E0F3;" cx="296.295" cy="128.828" r="9"/>
	<circle style="fill:#B3E0F3;" cx="215.705" cy="128.828" r="9"/>
</g>
<g>
	<path style="fill:#F2FAFD;" d="M305.424,425.521c9.767-11.393,15.682-26.187,15.682-42.365c0-16.175-5.912-30.961-15.675-42.347
		l-42.36,42.36L305.424,425.521z"/>
	<path style="fill:#F2FAFD;" d="M256,376.098l42.361-42.36c-11.388-9.771-26.179-15.688-42.361-15.688
		c-16.191,0-30.98,5.915-42.365,15.683L256,376.098z"/>
	<path style="fill:#F2FAFD;" d="M206.565,340.805c-9.762,11.387-15.671,26.174-15.671,42.351c0,16.181,5.911,30.976,15.677,42.37
		l42.357-42.357L206.565,340.805z"/>
	<path style="fill:#F2FAFD;" d="M256,390.24l-42.359,42.359c11.384,9.77,26.172,15.688,42.359,15.688
		c16.179,0,30.968-5.92,42.355-15.693L256,390.24z"/>
</g>
<g>
	<circle style="fill:#B3E0F3;" cx="256" cy="342.873" r="9"/>
	<circle style="fill:#B3E0F3;" cx="256" cy="423.463" r="9"/>
</g>
<g>
	<circle style="fill:#B3E0F3;" cx="296.295" cy="383.168" r="9"/>
	<circle style="fill:#B3E0F3;" cx="215.705" cy="383.168" r="9"/>
</g>
</svg>
