<?xml version="1.0" encoding="UTF-8"?>
<svg id="Layer_1" data-name="Layer 1" xmlns="http://www.w3.org/2000/svg" viewBox="0 0 484.09 512">
  <defs>
    <style>
      .cls-1 {
        fill: #e1e1e1;
      }

      .cls-2 {
        fill: #1e1e1e;
      }

      .cls-3 {
        fill: #787878;
      }
    </style>
  </defs>
  <path class="cls-2" d="m242.04,0C108.58,0,0,108.58,0,242.04c0,57.72,20.65,113.62,58.17,157.42,34.92,40.75,82.35,68.74,134.47,79.56v21.23c0,6.48,5.27,11.75,11.75,11.75h72.92c6.48,0,11.75-5.27,11.75-11.75v-20.73c52.65-10.39,100.66-38.25,136.06-79.15,38-43.93,58.95-100.16,58.95-158.33C484.09,108.58,375.51,0,242.04,0Z"/>
  <path class="cls-3" d="m211.17,493.47v-24.24c0-3.32-2.38-6.12-5.67-6.67-108.35-17.77-187-110.52-187-220.53C18.5,118.78,118.78,18.5,242.04,18.5s223.52,100.28,223.52,223.54c0,109.35-81.37,204.33-189.27,220.91-3.33.51-5.75,3.32-5.75,6.68v23.84h-59.37Z"/>
  <path class="cls-1" d="m139.14,94.31c-35.96,0-65.11,29.15-65.11,65.11s29.15,65.11,65.11,65.11,65.13-29.12,65.13-65.11-29.17-65.11-65.13-65.11Zm0,93.8c-15.84,0-28.67-12.86-28.67-28.69s12.83-28.67,28.67-28.67,28.67,12.84,28.67,28.67-12.83,28.69-28.67,28.69Z"/>
  <path class="cls-1" d="m344.92,94.31c-35.96,0-65.11,29.15-65.11,65.11s29.15,65.11,65.11,65.11,65.13-29.12,65.13-65.11-29.17-65.11-65.13-65.11Zm0,93.8c-15.84,0-28.67-12.86-28.67-28.69s12.83-28.67,28.67-28.67,28.67,12.84,28.67,28.67-12.83,28.69-28.67,28.69Z"/>
  <path class="cls-1" d="m242.04,313c-35.96,0-65.13,29.17-65.13,65.13s29.17,65.11,65.13,65.11,65.11-29.12,65.11-65.11-29.15-65.13-65.11-65.13Zm0,93.83c-15.84,0-28.7-12.86-28.7-28.7s12.86-28.67,28.7-28.67,28.67,12.83,28.67,28.67-12.83,28.7-28.67,28.7Z"/>
  <path class="cls-1" d="m102.88,268.32c-23.17,0-41.98,18.81-41.98,42.01s18.81,41.98,41.98,41.98,42.01-18.79,42.01-41.98-18.81-42.01-42.01-42.01Zm0,60.52c-10.21,0-18.48-8.3-18.48-18.51s8.27-18.51,18.48-18.51,18.51,8.29,18.51,18.51-8.3,18.51-18.51,18.51Z"/>
  <path class="cls-1" d="m381.18,268.32c-23.17,0-41.98,18.81-41.98,42.01s18.81,41.98,41.98,41.98,41.98-18.79,41.98-41.98-18.79-42.01-41.98-42.01Zm0,60.52c-10.21,0-18.48-8.3-18.48-18.51s8.27-18.51,18.48-18.51,18.48,8.29,18.48,18.51-8.27,18.51-18.48,18.51Z"/>
  <rect class="cls-2" x="233.11" width="18" height="18"/>
</svg>