<?xml version="1.0" encoding="iso-8859-1"?>
<!-- Generator: Adobe Illustrator 27.7.0, SVG Export Plug-In . SVG Version: 6.00 Build 0)  -->
<svg version="1.1" id="Layer_1" xmlns="http://www.w3.org/2000/svg" xmlns:xlink="http://www.w3.org/1999/xlink" x="0px" y="0px"
	 viewBox="0 0 128 128" style="enable-background:new 0 0 128 128;" xml:space="preserve">
<g>
	
		<linearGradient id="Path_00000045578930963577727090000014276273800684195485_" gradientUnits="userSpaceOnUse" x1="1.1745" y1="127.5612" x2="1.9834" y2="128.304" gradientTransform="matrix(94.1113 0 0 -64 -93.1113 8256.999)">
		<stop  offset="0" style="stop-color:#110252"/>
		<stop  offset="0.0676" style="stop-color:#0A1F66"/>
		<stop  offset="0.1522" style="stop-color:#033D7B"/>
		<stop  offset="0.2" style="stop-color:#004883"/>
		<stop  offset="0.6" style="stop-color:#0067A6"/>
		<stop  offset="1" style="stop-color:#00B3F0"/>
	</linearGradient>
	
		<path id="Path_00000176739327710900956440000000717579844913438902_" style="fill:url(#Path_00000045578930963577727090000014276273800684195485_);" d="
		M127.992,59.103c0.016-11.566-1.73-31.541-28.153-35.742c0,0-13.962-2.976-35.627-2.882h-0.444
		c-21.671-0.092-35.625,2.882-35.625,2.882C1.728,27.571-0.017,47.546,0,59.102v9.795c-0.017,11.566,1.728,31.541,28.152,35.742
		c0,0,13.954,2.975,35.627,2.882h0.444c21.663,0.093,35.627-2.882,35.627-2.882c26.423-4.209,28.161-24.185,28.152-35.74
		C127.992,67.023,127.992,60.977,127.992,59.103z"/>
	<path id="Shape_00000031908719625237639100000017207072087663541675_" style="fill:#FFFFFF;" d="M27.046,67.484l-0.08-0.273
		c-0.191-0.622-0.424-1.76-0.424-3.626c0-3.051,1.627-3.051,2.162-3.051h20.141l0.099,0.233c0.372,0.943,0.553,2.092,0.553,3.599
		c0,2.204-0.878,3.099-3.032,3.099H27.048v0.017L27.046,67.484z M27.046,55.277l-0.08-0.272c-0.191-0.63-0.424-1.76-0.424-3.626
		c0-3.051,1.627-3.051,2.162-3.051h20.141l0.099,0.233c0.372,0.943,0.553,2.092,0.553,3.599c0,2.204-0.878,3.099-3.032,3.099H27.048
		v0.017H27.046z"/>
	<path id="Path_00000145033739216160367000000008170406555949895822_" style="fill:#FFFFFF;" d="M98.572,63.208l-0.243-0.245
		l0.171-0.31c0.817-1.489,1.245-3.175,1.24-4.889c0-4.539-3.692-9.435-9.665-9.435l-2.009,0.017H63.153c0,0-0.226,0-0.288,0.01
		c-5.928,0.17-10.036,3.777-10.046,8.918c0,2.309,0.796,4.456,2.362,6.094c0.943,0.991,2.03,1.821,3.221,2.459
		c0.897,0.48,1.847,0.875,2.806,1.195c0.442,0.15,2.805,0.8,3.519,1.055c0.245,0.083,0.481,0.17,0.716,0.283
		c0.841,0.395,1.448,1.157,1.466,2.145c0.01,0.302-0.055,0.895-0.533,1.404c-0.444,0.472-1.105,0.725-1.983,0.783H28.704
		c-0.535,0-2.162,0-2.162,3.041c0,1.865,0.224,2.996,0.424,3.626l0.08,0.273l36.95,0.01h0.099c6.08-0.057,10.324-3.701,10.334-8.928
		c0-2.289-0.796-4.417-2.326-6.066c-0.402-0.435-0.838-0.835-1.304-1.195c-0.617-0.487-1.271-0.921-1.954-1.3
		c-0.902-0.478-1.84-0.878-2.805-1.195c-0.453-0.15-2.806-0.8-3.521-1.055c-0.245-0.083-0.48-0.17-0.705-0.283
		c-0.843-0.395-1.45-1.157-1.467-2.147c-0.01-0.3,0.054-0.893,0.533-1.404c0.444-0.47,1.105-0.725,1.981-0.78h27.738
		c1.9,0.217,2.47,1.855,2.47,2.467c0,1.177-0.533,2.609-3.094,2.767H79.516c-0.533,0-2.162,0-2.162,3.052
		c0,1.865,0.235,2.996,0.424,3.626l0.082,0.273l13.835-0.018c2.553,0.15,3.096,1.592,3.096,2.769c0,0.527-0.508,2.505-3.014,2.505
		l-12.261-0.01c-0.533,0-2.162,0-2.162,3.051c0,1.857,0.235,2.996,0.424,3.627l0.082,0.273h13.909c5.971,0,9.674-4.898,9.674-9.437
		c0-2.694-1.041-5.256-2.87-7.026H98.572z"/>
	
		<linearGradient id="Path_00000049925360084423709490000011921006567727289488_" gradientUnits="userSpaceOnUse" x1="2.4881" y1="124.7821" x2="2.5824" y2="125.1002" gradientTransform="matrix(15.4963 0 0 -8.2816 28.1766 1089.8312)">
		<stop  offset="0" style="stop-color:#0067A6"/>
		<stop  offset="0.92" style="stop-color:#0067A6;stop-opacity:0"/>
	</linearGradient>
	
		<path id="Path_00000015350548377895496620000000068680947899787682_" style="fill:url(#Path_00000049925360084423709490000011921006567727289488_);" d="
		M58.05,54.082c-0.208,3.362,2.67,5.049,3.71,5.548c-0.3-0.143-0.57-0.344-0.796-0.593c0,0-0.01-0.01-0.01-0.018
		c-0.083-0.085-0.155-0.18-0.216-0.283c-0.045-0.075-0.099-0.15-0.136-0.233c-0.018-0.03-0.027-0.067-0.045-0.105
		c-0.027-0.067-0.064-0.133-0.082-0.207c-0.018-0.057-0.027-0.113-0.045-0.17c-0.01-0.057-0.027-0.103-0.037-0.16
		c-0.021-0.118-0.033-0.238-0.035-0.358c-0.01-0.3,0.053-0.894,0.533-1.404c0.064-0.067,0.126-0.122,0.189-0.178
		c0.019-0.019,0.041-0.034,0.064-0.047c0.048-0.04,0.099-0.074,0.154-0.103c0.027-0.02,0.054-0.028,0.072-0.048
		c0.054-0.037,0.118-0.067,0.181-0.093l0.054-0.028c0.352-0.16,0.769-0.255,1.257-0.283h14.616c1.131-0.357,1.637-2.015,1.637-3.567
		c0-1.405-0.442-3.137-1.682-3.372l-0.037-0.01H63.705c-3.748,0.49-5.502,3.267-5.656,5.718V54.082z"/>
	
		<linearGradient id="Path_00000150075220011326645940000004652316300567105471_" gradientUnits="userSpaceOnUse" x1="2.5569" y1="124.7336" x2="2.4625" y2="124.4154" gradientTransform="matrix(15.4974 0 0 -8.2878 20.8845 1105.3669)">
		<stop  offset="0" style="stop-color:#0067A6"/>
		<stop  offset="0.92" style="stop-color:#0067A6;stop-opacity:0"/>
	</linearGradient>
	
		<path id="Path_00000120530297556964140900000008628533792893617810_" style="fill:url(#Path_00000150075220011326645940000004652316300567105471_);" d="
		M69.19,73.954c0.208-3.362-2.67-5.048-3.711-5.546c0.308,0.15,0.58,0.348,0.806,0.593c0,0.008,0.01,0.008,0.01,0.017
		c0.071,0.076,0.134,0.158,0.189,0.247c0.01,0.018,0.019,0.028,0.027,0.047c0.047,0.075,0.099,0.15,0.136,0.235
		c0.018,0.028,0.027,0.067,0.045,0.095c0.027,0.067,0.064,0.14,0.082,0.207c0.018,0.057,0.027,0.113,0.045,0.178
		c0.01,0.048,0.027,0.105,0.037,0.16c0.018,0.113,0.037,0.237,0.037,0.358c0.008,0.305-0.053,0.607-0.179,0.883
		c-0.126,0.275-0.313,0.516-0.545,0.701c-0.019,0.017-0.046,0.027-0.074,0.045c-0.048,0.04-0.099,0.076-0.154,0.105
		c-0.027,0.017-0.055,0.028-0.072,0.047c-0.058,0.037-0.118,0.068-0.181,0.093l-0.054,0.028c-0.4,0.172-0.825,0.268-1.257,0.283
		H49.761c-1.132,0.358-1.639,2.015-1.639,3.569c0,1.404,0.444,3.136,1.682,3.372l0.038,0.008h13.699
		C67.281,79.171,69.044,76.394,69.19,73.954z"/>
	<path id="Path_00000105414821534672926800000012821770328712040362_" style="opacity:0.6;fill:#FFFFFF;" d="M127.992,59.103
		c0.016-11.566-1.73-31.541-28.153-35.742c0,0-13.962-2.976-35.627-2.882h-0.444c-21.671-0.092-35.625,2.882-35.625,2.882
		C1.728,27.571-0.017,47.546,0,59.102v9.795c-0.017,11.566,1.728,31.541,28.152,35.742c0,0,13.954,2.975,35.627,2.882h0.444
		c21.663,0.093,35.627-2.882,35.627-2.882c26.423-4.209,28.161-24.185,28.152-35.74C127.992,67.023,127.992,60.977,127.992,59.103z"
		/>
</g>
</svg>
