<?xml version="1.0" encoding="iso-8859-1"?>
<!-- Generator: Adobe Illustrator 27.8.1, SVG Export Plug-In . SVG Version: 6.00 Build 0)  -->
<svg version="1.1" id="Layer_1" xmlns="http://www.w3.org/2000/svg" xmlns:xlink="http://www.w3.org/1999/xlink" x="0px" y="0px"
	 viewBox="0 0 512 512" style="enable-background:new 0 0 512 512;" xml:space="preserve">
<path style="fill:#FFFFFF;" d="M354.056,286.789h-15.891c44.939-28.067,72.981-77.597,72.981-131.643
	C411.145,69.601,341.544,0,256,0c-85.544,0-155.145,69.601-155.145,155.145c0,54.046,28.042,103.576,72.98,131.643h-15.891
	c-61.527,0-111.599,50.073-111.599,111.6v2.012c0,61.527,50.073,111.6,111.599,111.6h196.111c61.527,0,111.599-50.073,111.599-111.6
	v-2.012C465.655,336.862,415.582,286.789,354.056,286.789z"/>
<path style="fill:#004E7C;" d="M354.056,286.789h-15.891c44.939-28.067,72.981-77.597,72.981-131.643
	C411.145,69.601,341.544,0,256,0c-85.544,0-155.145,69.601-155.145,155.145c0,54.046,28.042,103.576,72.98,131.643h-15.891
	c-61.527,0-111.599,50.073-111.599,111.6v2.012c0,61.527,50.073,111.6,111.599,111.6h196.111c61.527,0,111.599-50.073,111.599-111.6
	v-2.012C465.655,336.862,415.582,286.789,354.056,286.789z"/>
<path style="fill:#6695B0;" d="M448.481,398.391v2.011c0,52.065-42.36,94.425-94.425,94.425h-196.11
	c-52.065,0-94.424-42.36-94.424-94.425v-2.011c0-52.07,42.36-94.429,94.424-94.429h40.914c2.825,0,5.126-2.302,5.126-5.126
	l0.024-12.421c0.014-2.054-1.189-3.89-3.062-4.698c-50.377-21.974-82.917-71.652-82.917-126.57
	c0-76.079,61.894-137.973,137.968-137.973c76.079,0,137.973,61.894,137.973,137.973c0,54.894-32.516,104.563-82.846,126.537
	c-1.902,0.827-3.11,2.691-3.086,4.746l0.128,12.44c0.024,2.815,2.321,5.093,5.126,5.093h40.762
	C406.121,303.961,448.481,346.321,448.481,398.391z"/>
<path style="fill:#E5EDF2;" d="M351.735,326.13c-40.144,0-72.726,32.583-72.726,72.75s32.583,72.722,72.726,72.722
	c40.163,0,72.745-32.554,72.745-72.722S391.898,326.13,351.735,326.13z M351.735,430.916c-17.67,0-32.017-14.366-32.017-32.036
	c0-17.699,14.347-32.041,32.017-32.041c17.694,0,32.041,14.342,32.041,32.041C383.776,416.551,369.43,430.916,351.735,430.916z"/>
<path style="fill:#E5EDF2;" d="M160.266,326.13c-40.167,0-72.75,32.583-72.75,72.75s32.583,72.722,72.75,72.722
	c40.167,0,72.75-32.554,72.75-72.722S200.434,326.13,160.266,326.13z M160.266,430.916c-17.699,0-32.041-14.366-32.041-32.036
	c0-17.699,14.342-32.041,32.041-32.041c17.699,0,32.041,14.342,32.041,32.041C192.307,416.551,177.965,430.916,160.266,430.916z"/>
<path style="fill:#E5EDF2;" d="M337.855,165.464c-13.466,0-24.379,10.912-24.379,24.379c0,13.465,10.912,24.378,24.379,24.378
	c13.466,0,24.378-10.912,24.378-24.378C362.233,176.377,351.321,165.464,337.855,165.464z M337.855,200.601
	c-5.933,0-10.732-4.824-10.732-10.757c0-5.934,4.798-10.732,10.732-10.732c5.933,0,10.757,4.798,10.757,10.732
	C348.612,195.776,343.788,200.601,337.855,200.601z"/>
<path style="fill:#E5EDF2;" d="M174.145,165.464c-13.466,0-24.378,10.912-24.378,24.379c0,13.465,10.912,24.378,24.378,24.378
	c13.466,0,24.379-10.912,24.379-24.378C198.524,176.377,187.611,165.464,174.145,165.464z M174.145,200.601
	c-5.933,0-10.732-4.824-10.732-10.757c0-5.934,4.798-10.732,10.732-10.732c5.934,0,10.732,4.798,10.732,10.732
	C184.877,195.776,180.079,200.601,174.145,200.601z"/>
<path style="fill:#E5EDF2;" d="M256,195.776c-22.341,0-40.476,18.135-40.476,40.502c0,22.366,18.135,40.476,40.476,40.476
	c22.366,0,40.502-18.11,40.502-40.476C296.502,213.911,278.366,195.776,256,195.776z M256,254.104
	c-9.855,0-17.826-7.996-17.826-17.825c0-9.855,7.971-17.853,17.826-17.853c9.855,0,17.826,7.997,17.826,17.853
	C273.826,246.107,265.855,254.104,256,254.104z"/>
<path style="fill:#E5EDF2;" d="M315.102,64.416c-22.366,0-40.502,18.135-40.502,40.501c0,22.367,18.136,40.502,40.502,40.502
	c22.341,0,40.476-18.135,40.476-40.502C355.578,82.551,337.442,64.416,315.102,64.416z M315.102,122.77
	c-9.855,0-17.826-7.997-17.826-17.853c0-9.854,7.971-17.825,17.826-17.825s17.826,7.971,17.826,17.825
	C332.928,114.773,324.956,122.77,315.102,122.77z"/>
<path style="fill:#E5EDF2;" d="M196.898,64.416c-22.34,0-40.476,18.135-40.476,40.501c0,22.367,18.136,40.502,40.476,40.502
	c22.366,0,40.502-18.135,40.502-40.502C237.4,82.551,219.265,64.416,196.898,64.416z M196.898,122.77
	c-9.829,0-17.826-7.997-17.826-17.853c0-9.854,7.997-17.825,17.826-17.825c9.855,0,17.852,7.971,17.852,17.825
	C214.75,114.773,206.753,122.77,196.898,122.77z"/>
<path style="opacity:0.6;fill:#FFFFFF;" d="M354.056,286.789h-15.891c44.939-28.067,72.981-77.597,72.981-131.643
	C411.145,69.601,341.544,0,256,0c-85.544,0-155.145,69.601-155.145,155.145c0,54.046,28.042,103.576,72.98,131.643h-15.891
	c-61.527,0-111.599,50.073-111.599,111.6v2.012c0,61.527,50.073,111.6,111.599,111.6h196.111c61.527,0,111.599-50.073,111.599-111.6
	v-2.012C465.655,336.862,415.582,286.789,354.056,286.789z"/>
</svg>
