<?xml version="1.0" encoding="iso-8859-1"?>
<!-- Generator: Adobe Illustrator 27.7.0, SVG Export Plug-In . SVG Version: 6.00 Build 0)  -->
<svg version="1.1" id="Layer_1" xmlns="http://www.w3.org/2000/svg" xmlns:xlink="http://www.w3.org/1999/xlink" x="0px" y="0px"
	 viewBox="0 0 128 128" style="enable-background:new 0 0 128 128;" xml:space="preserve">
<g>
	<path style="fill:#8AC94D;" d="M30.233,84.629h-9.89c-1.217,0-2.202-0.987-2.202-2.203c0-1.217,0.986-2.202,2.202-2.202h9.89
		c1.217,0,2.202,0.986,2.202,2.202C32.435,83.642,31.449,84.629,30.233,84.629z"/>
	<path style="fill:#8A8A80;" d="M124.729,63.51c-0.988-1.953-1.767-3.494-1.767-5.17c0-7.997-2.091-13.957-6.568-18.686
		c0.056-0.315,0.155-0.736,0.23-1.049c0.37-1.572,0.754-3.197-0.108-4.546c-0.428-0.671-1.103-1.132-1.904-1.295
		c-0.75-0.153-18.579-3.751-38.935-3.127C51.457,30.376,15.372,50.75,11.338,53.07c-3.414,1.964-4.249,5.001-4.921,7.441
		c-0.411,1.497-0.767,2.79-1.606,3.772C1.708,67.917,0,72.538,0,77.296c0,3.183,0.707,7.792,1.315,9.632l0.499,1.513h8.647
		c2.384,5.854,8.127,9.995,14.827,9.995c8.828,0,16.009-7.182,16.009-16.009s-7.182-16.009-16.009-16.009S9.278,73.598,9.278,82.426
		c0,0.543,0.028,1.079,0.081,1.608H5.128c-0.365-1.836-0.724-4.613-0.724-6.739c0-3.711,1.334-7.316,3.756-10.152
		c1.477-1.729,2.022-3.713,2.503-5.465c0.656-2.383,1.112-3.779,2.869-4.79c3.937-2.265,39.131-22.143,62.277-22.85
		c17.081-0.509,32.335,2.001,36.695,2.804c-0.054,0.266-0.12,0.538-0.17,0.75c-0.376,1.6-0.804,3.413,0.466,4.683
		c2.471,2.471,5.755,6.824,5.755,16.063c0,2.728,1.09,4.88,2.244,7.159c1.853,3.662,3.939,7.784,2.074,16.105
		c-0.829,0.002-1.604,0.005-2.285,0.008c-0.428-8.449-7.415-15.196-15.968-15.196c-8.828,0-16.009,7.182-16.009,16.009
		s7.182,16.009,16.009,16.009c7.59,0,13.95-5.315,15.588-12.416c1.189-0.006,2.785-0.012,4.39-0.012h1.689l0.438-1.633
		C129.695,73.322,126.824,67.651,124.729,63.51z M25.288,70.821c6.399,0,11.605,5.206,11.605,11.605
		c0,6.398-5.206,11.603-11.605,11.603s-11.605-5.205-11.605-11.603C13.683,76.027,18.889,70.821,25.288,70.821z M104.62,94.029
		c-6.399,0-11.605-5.205-11.605-11.603c0-6.399,5.206-11.605,11.605-11.605c6.399,0,11.605,5.206,11.605,11.605
		C116.225,88.824,111.019,94.029,104.62,94.029z"/>
	<path style="fill:#8AC94D;" d="M109.565,80.224h-2.742v-2.742c0-1.217-0.986-2.202-2.202-2.202c-1.216,0-2.203,0.986-2.203,2.202
		v2.742h-2.742c-1.217,0-2.202,0.986-2.202,2.202c0,1.216,0.986,2.203,2.202,2.203h2.742v2.742c0,1.217,0.987,2.202,2.203,2.202
		c1.217,0,2.202-0.986,2.202-2.202v-2.742h2.742c1.217,0,2.202-0.987,2.202-2.203C111.768,81.21,110.782,80.224,109.565,80.224z"/>
	<path style="fill:#8AC94D;" d="M62.363,43.183h16.184l-5.289,14.809h6.531c0.742,0,1.174,0.839,0.743,1.443l-22.516,31.54
		c-0.638,0.893-2.039,0.239-1.763-0.824l6.794-26.13h-4.871c-1.423,0-2.424-1.398-1.966-2.745L62.363,43.183z"/>
</g>
<g style="opacity:0.6;">
	<path style="fill:#FFFFFF;" d="M30.233,84.629h-9.89c-1.217,0-2.202-0.987-2.202-2.203c0-1.217,0.986-2.202,2.202-2.202h9.89
		c1.217,0,2.202,0.986,2.202,2.202C32.435,83.642,31.449,84.629,30.233,84.629z"/>
	<path style="fill:#FFFFFF;" d="M124.729,63.51c-0.988-1.953-1.767-3.494-1.767-5.17c0-7.997-2.091-13.957-6.568-18.686
		c0.056-0.315,0.155-0.736,0.23-1.049c0.37-1.572,0.754-3.197-0.108-4.546c-0.428-0.671-1.103-1.132-1.904-1.295
		c-0.75-0.153-18.579-3.751-38.935-3.127C51.457,30.376,15.372,50.75,11.338,53.07c-3.414,1.964-4.249,5.001-4.921,7.441
		c-0.411,1.497-0.767,2.79-1.606,3.772C1.708,67.917,0,72.538,0,77.296c0,3.183,0.707,7.792,1.315,9.632l0.499,1.513h8.647
		c2.384,5.854,8.127,9.995,14.827,9.995c8.828,0,16.009-7.182,16.009-16.009s-7.182-16.009-16.009-16.009S9.278,73.598,9.278,82.426
		c0,0.543,0.028,1.079,0.081,1.608H5.128c-0.365-1.836-0.724-4.613-0.724-6.739c0-3.711,1.334-7.316,3.756-10.152
		c1.477-1.729,2.022-3.713,2.503-5.465c0.656-2.383,1.112-3.779,2.869-4.79c3.937-2.265,39.131-22.143,62.277-22.85
		c17.081-0.509,32.335,2.001,36.695,2.804c-0.054,0.266-0.12,0.538-0.17,0.75c-0.376,1.6-0.804,3.413,0.466,4.683
		c2.471,2.471,5.755,6.824,5.755,16.063c0,2.728,1.09,4.88,2.244,7.159c1.853,3.662,3.939,7.784,2.074,16.105
		c-0.829,0.002-1.604,0.005-2.285,0.008c-0.428-8.449-7.415-15.196-15.968-15.196c-8.828,0-16.009,7.182-16.009,16.009
		s7.182,16.009,16.009,16.009c7.59,0,13.95-5.315,15.588-12.416c1.189-0.006,2.785-0.012,4.39-0.012h1.689l0.438-1.633
		C129.695,73.322,126.824,67.651,124.729,63.51z M25.288,70.821c6.399,0,11.605,5.206,11.605,11.605
		c0,6.398-5.206,11.603-11.605,11.603s-11.605-5.205-11.605-11.603C13.683,76.027,18.889,70.821,25.288,70.821z M104.62,94.029
		c-6.399,0-11.605-5.205-11.605-11.603c0-6.399,5.206-11.605,11.605-11.605c6.399,0,11.605,5.206,11.605,11.605
		C116.225,88.824,111.019,94.029,104.62,94.029z"/>
	<path style="fill:#FFFFFF;" d="M109.565,80.224h-2.742v-2.742c0-1.217-0.986-2.202-2.202-2.202c-1.216,0-2.203,0.986-2.203,2.202
		v2.742h-2.742c-1.217,0-2.202,0.986-2.202,2.202c0,1.216,0.986,2.203,2.202,2.203h2.742v2.742c0,1.217,0.987,2.202,2.203,2.202
		c1.217,0,2.202-0.986,2.202-2.202v-2.742h2.742c1.217,0,2.202-0.987,2.202-2.203C111.768,81.21,110.782,80.224,109.565,80.224z"/>
	<path style="fill:#FFFFFF;" d="M62.363,43.183h16.184l-5.289,14.809h6.531c0.742,0,1.174,0.839,0.743,1.443l-22.516,31.54
		c-0.638,0.893-2.039,0.239-1.763-0.824l6.794-26.13h-4.871c-1.423,0-2.424-1.398-1.966-2.745L62.363,43.183z"/>
</g>
</svg>
