<?xml version="1.0" encoding="iso-8859-1"?>
<!-- Generator: Adobe Illustrator 27.8.0, SVG Export Plug-In . SVG Version: 6.00 Build 0)  -->
<svg version="1.1" id="Layer_1" xmlns="http://www.w3.org/2000/svg" xmlns:xlink="http://www.w3.org/1999/xlink" x="0px" y="0px"
	 viewBox="0 0 128 128" style="enable-background:new 0 0 128 128;" xml:space="preserve">
<path style="fill:#CED929;" d="M92.014,72.837H67.873c0,0-0.148,5.781-6.266,5.781c-6.119,0-6.119,0-6.119,0v1.616h-3.317v-3.851
	h-7.298v-2.194h7.298v-2.664V68.86h-7.298v-2.194h7.298v-3.851h3.317v1.616c0,0,0,0,6.119,0c6.119,0,6.266,5.781,6.266,5.781h25.993
	l6.517-9.24H72.468L83.379,0L27.617,85.25h36.398L53.104,128L92.014,72.837z"/>
<path style="opacity:0.6;fill:#FFFFFF;" d="M92.014,72.837H67.873c0,0-0.148,5.781-6.266,5.781c-6.119,0-6.119,0-6.119,0v1.616
	h-3.317v-3.851h-7.298v-2.194h7.298v-2.664V68.86h-7.298v-2.194h7.298v-3.851h3.317v1.616c0,0,0,0,6.119,0
	c6.119,0,6.266,5.781,6.266,5.781h25.993l6.517-9.24H72.468L83.379,0L27.617,85.25h36.398L53.104,128L92.014,72.837z"/>
</svg>
