<?xml version="1.0" encoding="UTF-8"?>
<svg id="Layer_1" data-name="Layer 1" xmlns="http://www.w3.org/2000/svg" viewBox="0 0 127.13 128">
  <defs>
    <style>
      .cls-1 {
        fill: #ff5a00;
      }
    </style>
  </defs>
  <path class="cls-1" d="m127.12,61.86h-57.48c-1.05,0-2.05-.42-2.79-1.17-.74-.75-1.16-1.76-1.16-2.81V0h-4.24v42.4L53.26.83l-4.16.83,8.2,41.52L41.21,4.07l-3.91,1.63,16.09,39.11L30.03,9.62l-3.52,2.37,23.37,35.2-29.77-29.94-3,3.01,29.73,29.93L11.87,26.68l-2.36,3.55,34.96,23.52L5.62,37.55l-1.63,3.94,38.85,16.2L1.62,49.43l-.8,4.18,41.24,8.26H0v4.27h57.49c1.05,0,2.05.42,2.79,1.17.74.74,1.16,1.75,1.16,2.81v57.89h4.24v-42.34l8.2,41.52,4.16-.83-8.2-41.52,16.09,39.11,3.91-1.63-16.09-39.11,23.36,35.2,3.52-2.37-23.36-35.2,29.73,29.93,2.99-3.01-29.73-29.95,34.96,23.53,2.35-3.55-34.96-23.52,38.84,16.2,1.63-3.94-38.84-16.18,41.24,8.26.83-4.18-41.31-8.28h42.13l-.02-4.27Z"/>
</svg>