<?xml version="1.0" encoding="iso-8859-1"?>
<!-- Generator: Adobe Illustrator 27.7.0, SVG Export Plug-In . SVG Version: 6.00 Build 0)  -->
<svg version="1.1" id="Layer_1" xmlns="http://www.w3.org/2000/svg" xmlns:xlink="http://www.w3.org/1999/xlink" x="0px" y="0px"
	 viewBox="0 0 128 128" style="enable-background:new 0 0 128 128;" xml:space="preserve">
<g>
	<path style="fill:#EA1C0A;" d="M87.513,76.208c-0.282,0.975-0.503,1.782-0.631,2.34l-0.447,1.933
		c-0.153,0.679-0.141,1.005,0.397,1.297c0.166,0.09,1.976,1.041,3.655,1.041c1.372,0,2.539-0.196,3.336-1.141
		c0.744-0.877,2.458-2.966,4.701-5.462h0.008c5.143-5.726,13.018-13.554,17.98-13.554c1.179,0,1.526,0.935,1.526,2.189
		c0,1.576-1.679,7.119-3.026,11.357l0,0c-0.603,1.885-1.144,3.509-1.425,4.414c-0.151,0.498,0.078,0.84,0.256,1
		c0.912,0.767,2.785,1.395,5.246,1.395c1.372,0,2.423-0.216,2.976-1.75c0.256-0.704,0.897-2.612,1.667-5.057l0,0
		c1.782-5.658,4.271-14.2,4.271-17.372c0-2.707-1.204-6.206-6.566-6.206c-6.093,0-12.978,6.9-16.786,6.9
		c-2.245,0-2.32-2.531-2.32-3.278c0-1.722-0.015-1.707-0.015-1.707c-0.96-0.55-2.898-0.626-3.899-0.626
		c-1.357,0-2.335,0.241-2.629,0.289c-0.641,0.103-0.757,0.354-0.885,0.654c-2.473,5.955-5.884,16.153-7.385,21.343H87.513z
		 M98.527,76.21L98.527,76.21L98.527,76.21L98.527,76.21z"/>
	<path style="fill:#EA1C0A;" d="M33.804,73.835c-2.705,0-6.938,0.513-6.938,0.513c-0.269,0.309-1.073,1.146-2.328,1.86l-0.008,0.005
		c-1.091,0.623-2.514,1.144-4.23,1.144c-1.501,0-2.835-0.445-3.951-1.144v-0.005h-0.008c-2.368-1.483-3.778-4.102-3.778-6.05
		c0-0.397,0.488-0.261,1.129-0.249c0,0,8.016,0.249,12.003,0.249h3.977c5.681,0,10.786-1.822,10.786-10.625
		c0-4.12-0.91-15.394-7.591-15.394C25.443,44.138,0,54.656,0,68.619c0,2.752,1.179,5.344,3.195,7.591H3.2
		c4.08,4.552,11.59,7.652,19.642,7.652s16.799-4.555,17.452-7.657c0.013-0.111,0.025-0.226,0.025-0.337
		c0-1.591-3.874-2.036-6.515-2.036L33.804,73.835z M16.042,62.015c0.757-0.804,8.335-7.797,12.659-7.797
		c1.32,0,1.398,2.574,1.398,4.369l0,0c0,3.358-0.309,3.974-3.743,3.974h-9.708c-0.757,0-1.169,0.048-0.603-0.548L16.042,62.015z"/>
	<path style="fill:#EA1C0A;" d="M75.394,51.687c-13.041,0-16.864,7.767-17.774,10.077c-2.104,5.44-4.68,11.173-4.68,14.3v0.143l0,0
		l0,0c0.103,6.85,7.888,6.809,11.389,6.809c6.425,0,12.209,0.053,16.774-6.809h0.003c0.563-0.847,1.104-1.802,1.629-2.876
		c1.154-2.33,4.718-10.726,4.718-14.549c0-6.206-6.671-7.099-12.055-7.099L75.394,51.687z M69.482,60.276
		c0.616-0.892,1.961-1.041,2.861-1.041l0,0c2.295,0,2.385,0.445,2.385,1.734c0,1.81-1.732,11.839-3.745,14.056
		c-0.731,0.814-2.041,0.792-2.861,0.792c-1.385,0-2.438,0.101-2.438-1.491c0-2.325,1.513-10.703,3.796-14.051H69.482z"/>
	<path style="fill:#EA1C0A;" d="M48.81,62.063c-2.051,0-4.13,0.309-5.296,3.127c-0.128,0.304-1.078,2.378-1.078,3.574
		c0,1.551,0.885,2.531,3.464,2.531c1.732,0,4.168-0.395,5.103-2.828c0.153-0.385,1.179-2.979,1.179-3.921l0,0
		c0-1.714-1.629-2.483-3.373-2.483L48.81,62.063z"/>
</g>
<g style="opacity:0.6;">
	<path style="fill:#FFFFFF;" d="M87.513,76.208c-0.282,0.975-0.503,1.782-0.631,2.34l-0.447,1.933
		c-0.153,0.679-0.141,1.005,0.397,1.297c0.166,0.09,1.976,1.041,3.655,1.041c1.372,0,2.539-0.196,3.336-1.141
		c0.744-0.877,2.458-2.966,4.701-5.462h0.008c5.143-5.726,13.018-13.554,17.98-13.554c1.179,0,1.526,0.935,1.526,2.189
		c0,1.576-1.679,7.119-3.026,11.357l0,0c-0.603,1.885-1.144,3.509-1.425,4.414c-0.151,0.498,0.078,0.84,0.256,1
		c0.912,0.767,2.785,1.395,5.246,1.395c1.372,0,2.423-0.216,2.976-1.75c0.256-0.704,0.897-2.612,1.667-5.057l0,0
		c1.782-5.658,4.271-14.2,4.271-17.372c0-2.707-1.204-6.206-6.566-6.206c-6.093,0-12.978,6.9-16.786,6.9
		c-2.245,0-2.32-2.531-2.32-3.278c0-1.722-0.015-1.707-0.015-1.707c-0.96-0.55-2.898-0.626-3.899-0.626
		c-1.357,0-2.335,0.241-2.629,0.289c-0.641,0.103-0.757,0.354-0.885,0.654c-2.473,5.955-5.884,16.153-7.385,21.343H87.513z
		 M98.527,76.21L98.527,76.21L98.527,76.21L98.527,76.21z"/>
	<path style="fill:#FFFFFF;" d="M33.804,73.835c-2.705,0-6.938,0.513-6.938,0.513c-0.269,0.309-1.073,1.146-2.328,1.86l-0.008,0.005
		c-1.091,0.623-2.514,1.144-4.23,1.144c-1.501,0-2.835-0.445-3.951-1.144v-0.005h-0.008c-2.368-1.483-3.778-4.102-3.778-6.05
		c0-0.397,0.488-0.261,1.129-0.249c0,0,8.016,0.249,12.003,0.249h3.977c5.681,0,10.786-1.822,10.786-10.625
		c0-4.12-0.91-15.394-7.591-15.394C25.443,44.138,0,54.656,0,68.619c0,2.752,1.179,5.344,3.195,7.591H3.2
		c4.08,4.552,11.59,7.652,19.642,7.652s16.799-4.555,17.452-7.657c0.013-0.111,0.025-0.226,0.025-0.337
		c0-1.591-3.874-2.036-6.515-2.036L33.804,73.835z M16.042,62.015c0.757-0.804,8.335-7.797,12.659-7.797
		c1.32,0,1.398,2.574,1.398,4.369l0,0c0,3.358-0.309,3.974-3.743,3.974h-9.708c-0.757,0-1.169,0.048-0.603-0.548L16.042,62.015z"/>
	<path style="fill:#FFFFFF;" d="M75.394,51.687c-13.041,0-16.864,7.767-17.774,10.077c-2.104,5.44-4.68,11.173-4.68,14.3v0.143l0,0
		l0,0c0.103,6.85,7.888,6.809,11.389,6.809c6.425,0,12.209,0.053,16.774-6.809h0.003c0.563-0.847,1.104-1.802,1.629-2.876
		c1.154-2.33,4.718-10.726,4.718-14.549c0-6.206-6.671-7.099-12.055-7.099L75.394,51.687z M69.482,60.276
		c0.616-0.892,1.961-1.041,2.861-1.041l0,0c2.295,0,2.385,0.445,2.385,1.734c0,1.81-1.732,11.839-3.745,14.056
		c-0.731,0.814-2.041,0.792-2.861,0.792c-1.385,0-2.438,0.101-2.438-1.491c0-2.325,1.513-10.703,3.796-14.051H69.482z"/>
	<path style="fill:#FFFFFF;" d="M48.81,62.063c-2.051,0-4.13,0.309-5.296,3.127c-0.128,0.304-1.078,2.378-1.078,3.574
		c0,1.551,0.885,2.531,3.464,2.531c1.732,0,4.168-0.395,5.103-2.828c0.153-0.385,1.179-2.979,1.179-3.921l0,0
		c0-1.714-1.629-2.483-3.373-2.483L48.81,62.063z"/>
</g>
</svg>
