<?xml version="1.0" encoding="iso-8859-1"?>
<!-- Generator: Adobe Illustrator 27.8.1, SVG Export Plug-In . SVG Version: 6.00 Build 0)  -->
<svg version="1.1" id="Layer_1" xmlns="http://www.w3.org/2000/svg" xmlns:xlink="http://www.w3.org/1999/xlink" x="0px" y="0px"
	 viewBox="0 0 512 512" style="enable-background:new 0 0 512 512;" xml:space="preserve">
<path d="M507.922,182.12c0.95-5.869,1.442-11.858,1.442-17.926c0-29.375-11.408-56.961-32.123-77.676
	c-20.715-20.715-48.301-32.124-77.677-32.124c-1.399,0-2.793,0.034-4.183,0.085c-36.519-10.976-82.587-15.934-139.566-15.934
	c-56.978,0-103.061,4.958-139.603,15.933c-1.379-0.051-2.76-0.084-4.148-0.084c-29.447,0-57.084,11.405-77.822,32.114
	c-20.735,20.708-32.155,48.296-32.155,77.686c0,6.078,0.494,12.076,1.447,17.955c-2.565,15.861-3.808,33.204-3.808,52.146
	c0,144.993,106.659,244.908,256.088,244.908c149.252,0,255.912-99.915,255.912-244.908
	C511.727,215.341,510.485,197.989,507.922,182.12z M461.502,164.194c0,34.607-27.508,62.114-61.937,62.114
	c-34.606,0-62.114-27.508-62.114-62.114c0-34.429,27.508-61.937,62.114-61.937C433.994,102.258,461.502,129.765,461.502,164.194z
	 M112.065,102.258c34.429,0,61.937,27.508,61.937,61.937c0,34.607-27.508,62.114-61.937,62.114
	c-34.607,0-62.114-27.508-62.114-62.114C49.95,129.765,77.458,102.258,112.065,102.258z M153.06,404.488
	c-11.358,0-20.409-9.051-20.409-20.586c0-11.358,9.051-20.409,20.409-20.409c11.536,0,20.586,9.051,20.586,20.409
	C173.646,395.437,164.596,404.488,153.06,404.488z M255.815,419.04c-19.345,0-35.139-15.795-35.139-35.139
	c0-19.167,15.795-34.962,35.139-34.962c19.166,0,34.961,15.795,34.961,34.962C290.776,403.246,274.981,419.04,255.815,419.04z
	 M358.392,404.488c-11.536,0-20.586-9.051-20.586-20.586c0-11.358,9.051-20.409,20.586-20.409c11.358,0,20.409,9.051,20.409,20.409
	C378.801,395.437,369.75,404.488,358.392,404.488z M476.337,326.938c-5.624,13.573-12.522,26.335-20.634,38.207
	c-54.265-45.471-122.576-71.043-199.888-71.043c-77.499,0-145.992,25.585-200.133,70.928c-8.081-11.84-14.956-24.563-20.565-38.093
	c-11.71-28.252-17.648-59.421-17.648-92.642c0-22.26,1.758-41.709,5.315-58.806c5.519,44.493,43.238,78.682,89.28,78.682
	c49.692,0,89.8-40.108,89.8-89.977c0-49.64-40.026-89.715-89.647-89.797C147.47,62.14,194.436,56.29,255.815,56.29
	c61.37,0,108.32,5.85,143.549,18.108c-49.775,0.108-89.776,40.172-89.776,89.797c0,49.869,40.108,89.977,89.977,89.977
	c45.892,0,83.607-34.21,89.107-78.723c3.555,17.105,5.311,36.567,5.311,58.847C493.983,267.514,488.046,298.683,476.337,326.938z"/>
<path d="M112.065,199.156c19.167,0,34.784-15.617,34.784-34.962c0-19.166-15.617-34.784-34.784-34.784
	c-19.344,0-34.962,15.618-34.962,34.784C77.103,183.539,92.721,199.156,112.065,199.156z M399.565,199.156
	c19.167,0,34.784-15.617,34.784-34.962c0-19.166-15.618-34.784-34.784-34.784c-19.344,0-34.962,15.618-34.962,34.784
	C364.603,183.539,380.221,199.156,399.565,199.156z"/>
</svg>
