<?xml version="1.0" encoding="iso-8859-1"?>
<!-- Generator: Adobe Illustrator 27.7.0, SVG Export Plug-In . SVG Version: 6.00 Build 0)  -->
<svg version="1.1" id="Layer_1" xmlns="http://www.w3.org/2000/svg" xmlns:xlink="http://www.w3.org/1999/xlink" x="0px" y="0px"
	 viewBox="0 0 128 128" style="enable-background:new 0 0 128 128;" xml:space="preserve">
<g>
	<path style="fill-rule:evenodd;clip-rule:evenodd;fill:#00AAFF;" d="M128,59.633c-17.151-11.451-39.523-18.378-63.998-18.378
		S17.151,48.182,0,59.633c17.058-5.671,37.001-9.189,64.002-9.189S110.946,53.962,128,59.633z"/>
	<path style="fill:#00AAFF;" d="M54.187,65.585c-1.259,0-1.905,1.019-2.07,2.266c-0.185,1.38-0.91,6.157-1.071,7.368
		c-0.096,0.73-0.148,1.488-0.854,1.801s-1.564-0.168-2.294-0.802l-11.567-9.835c-0.596-0.519-1.36-0.804-2.15-0.802
		c-1.636,0-3.209,1.015-3.209,3.498v15.382c-0.062,1.022,0.716,1.9,1.737,1.962c0.04,0.002,0.08,0.004,0.12,0.003
		c1.05,0.028,1.935-0.777,2.005-1.825c0,0,1.203-7.328,1.336-8.146c0.168-0.951,0.317-1.697,1.235-1.981
		c0.83-0.257,1.604,0.225,2.784,1.247s10.91,9.819,10.91,9.819c0.626,0.61,1.478,0.931,2.35,0.886c0.959,0,2.699-0.401,2.699-3.321
		V67.783C56.153,66.363,55.258,65.585,54.187,65.585z"/>
	<path style="fill:#00AAFF;" d="M123.981,81.978c-8.499,1.829-18.23-0.124-18.23-6.141c0-4.544,4.215-6.393,7.536-6.662
		c3.485-0.277,6.209,0.453,7.621,1.909c0.874,0.91,0.63,2.15-1.091,2.25c-1.58,0.096-4.552,0.189-7.023,0.281
		c-1.404,0.052-2.154,0.802-2.154,1.817c0,0.802,0.602,1.717,2.218,1.725c2.314,0,8.19,0.048,11.106,0.056
		c1.929,0,2.876-1.075,2.876-3.293c0-3.51-3.181-8.824-12.49-8.824c-8.423,0-14.536,4.203-14.536,11.07
		c0,9.738,14.331,12.711,24.832,9.093c0.995-0.341,1.897-1.059,1.604-2.17C125.995,82.09,125.188,81.717,123.981,81.978z"/>
	<path style="fill:#00AAFF;" d="M25.349,81.978c-8.503,1.829-18.23-0.124-18.23-6.141c0-4.544,4.211-6.393,7.536-6.662
		c3.481-0.277,6.205,0.453,7.621,1.909c0.874,0.91,0.63,2.15-1.087,2.25c-1.584,0.096-4.556,0.189-7.027,0.281
		c-1.404,0.052-2.154,0.802-2.154,1.817c0,0.802,0.602,1.717,2.218,1.725c2.314,0,8.194,0.048,11.11,0.056
		c1.925,0,2.876-1.075,2.876-3.293c0-3.51-3.185-8.824-12.494-8.824c-8.423,0-14.536,4.203-14.536,11.07
		c0,9.738,14.331,12.711,24.836,9.093c0.995-0.341,1.897-1.059,1.604-2.17C27.362,82.09,26.556,81.717,25.349,81.978z"/>
	<path style="fill:#00AAFF;" d="M91.196,72.612c0.189,5.31,0.69,9.714,0.83,11.259c0.18,2.005,1.203,2.559,2.242,2.559
		c1.039,0,2.046-0.517,2.226-2.543c0.168-1.701,0.658-6.935,0.902-12.149c0.031-0.168-0.08-0.329-0.248-0.36
		c-0.051-0.009-0.104-0.006-0.153,0.011l-5.535,0.894C91.305,72.316,91.194,72.454,91.196,72.612z"/>
	<path style="fill:#00AAFF;" d="M94.284,65.084c-1.687-0.106-3.14,1.175-3.247,2.862c-0.007,0.115-0.008,0.231-0.002,0.347
		c0,0.229,0.028,0.854,0.064,1.636c0.01,0.188,0.171,0.332,0.359,0.322c0.014-0.001,0.028-0.002,0.042-0.005l5.776-0.939
		c0.157-0.025,0.275-0.158,0.281-0.317c0-0.273,0-0.549,0.024-0.682c0.07-1.713-1.262-3.158-2.975-3.228
		C94.499,65.076,94.391,65.077,94.284,65.084z"/>
	<path style="fill:#00AAFF;" d="M85.797,73.551c-1.925,0-7.869,0.048-11.672,0.056c-1.845,0-2.306,0.995-2.306,1.817
		c0,0.714,0.497,1.636,2.218,1.725c2.619,0.136,5.956,0.293,7.496,0.373c2.074,0.104,2.102,1.171,1.4,2.086
		c-1.408,1.829-4.833,3.028-8.383,3.028c-4.645,0-9.755-2.639-9.755-6.819c0-3.931,4.376-8.258,17.367-6.417
		c1.143,0.16,2.266-0.044,2.547-1.103c0.301-1.123-0.433-1.845-1.909-2.234c-2.678-0.686-5.434-1.015-8.198-0.979
		c-8.748,0-15.759,4.175-15.759,10.922c0,7.22,6.987,10.725,15.699,10.725c9.726,0,14.463-5.294,14.463-9.923
		C89.014,74.453,87.815,73.551,85.797,73.551z"/>
</g>
</svg>
