<?xml version="1.0" encoding="iso-8859-1"?>
<!-- Generator: Adobe Illustrator 27.7.0, SVG Export Plug-In . SVG Version: 6.00 Build 0)  -->
<svg version="1.1" id="Layer_1" xmlns="http://www.w3.org/2000/svg" xmlns:xlink="http://www.w3.org/1999/xlink" x="0px" y="0px"
	 viewBox="0 0 128 128" style="enable-background:new 0 0 128 128;" xml:space="preserve">
<g>
	<path style="fill:#FFEE00;" d="M128,0H0v128h128V0z"/>
	<path style="fill:#BCBDC0;" d="M111.786,63.89c0,26.39-21.395,47.783-47.785,47.783c-26.39,0-47.785-21.393-47.785-47.783
		c0-26.39,21.395-47.789,47.785-47.789C90.391,16.101,111.786,37.5,111.786,63.89z"/>
	<path style="fill:#FFEE00;" d="M82.822,35.85H70.747l-6.863,17.103v-0.037L57.054,35.85H44.979L26.154,89.979l18.045-0.031
		l6.861-16.965l5.872,16.727h13.936l5.872-16.727L83.6,89.948l18.047,0.031L82.822,35.85z"/>
</g>
</svg>
