<?xml version="1.0" encoding="iso-8859-1"?>
<!-- Generator: Adobe Illustrator 27.7.0, SVG Export Plug-In . SVG Version: 6.00 Build 0)  -->
<svg version="1.1" id="Layer_1" xmlns="http://www.w3.org/2000/svg" xmlns:xlink="http://www.w3.org/1999/xlink" x="0px" y="0px"
	 viewBox="0 0 128 128" style="enable-background:new 0 0 128 128;" xml:space="preserve">
<path style="fill:#9BCB55;" d="M31.111,66.412c3.066,12.097,8.209,26.184,13.802,33.795c-13.833,3.598-27.742,2.937-34.23,1.417
	c-0.322-1.767-0.571-2.596-0.943-5.725C13.403,86.874,22.717,73.531,31.111,66.412z"/>
<linearGradient id="SVGID_1_" gradientUnits="userSpaceOnUse" x1="118.9365" y1="65.4095" x2="10.5803" y2="65.4095">
	<stop  offset="0" style="stop-color:#9FCD53"/>
	<stop  offset="1" style="stop-color:#83BC50"/>
</linearGradient>
<path style="fill:url(#SVGID_1_);" d="M118.936,11.828c-12.235,73.387-40.57,125.036-105.227,101.35l0.02,0.062
	c-1.353-4.204-2.398-8.249-3.149-12.141c44.226,7.475,93.603-20.859,87.154-85.907C104.558,13.885,111.642,12.77,118.936,11.828z"/>
<path style="fill:#37A8B7;" d="M96.949,44.342c1.491-7.705,2.22-18.023,1.037-29.199C42.068,25.872,3.298,49.56,9.839,96.641
	C9.839,96.641,31.15,41.625,96.949,44.342z"/>
<path d="M115.587,101.559l-6.351,9.736c-1.232,1.862-2.17,3.512-2.97,4.974h-0.06c0.035-1.543,0.031-2.979-0.06-4.841l-0.381-9.869
	h-2.218h-1.445H87.637l-5.43,17.929h11.976l0.804-2.634h-8.375l1.615-5.347h7.451l0.801-2.608h-7.481l1.438-4.709h11.822
	l0.909,15.297h4.094l12.296-17.929H115.587z"/>
</svg>
