<?xml version="1.0" encoding="iso-8859-1"?>
<!-- Generator: Adobe Illustrator 27.7.0, SVG Export Plug-In . SVG Version: 6.00 Build 0)  -->
<svg version="1.1" id="Layer_1" xmlns="http://www.w3.org/2000/svg" xmlns:xlink="http://www.w3.org/1999/xlink" x="0px" y="0px"
	 viewBox="0 0 128 128" style="enable-background:new 0 0 128 128;" xml:space="preserve">
<g>
	<path id="Path" style="fill:#FF9C1A;" d="M68.872,73.014c-0.01,7.159,2.811,14.031,7.849,19.118
		c9.717,9.717,22.91,9.7,31.318,5.131c10.297-5.585,33.456-22.339,9.41-91.835C117.449,38.231,68.872,41.567,68.872,73.014z"/>
	<path id="Path_00000036243146944892807410000005208029059414178207_" style="fill:#0DA9FF;" d="M90.992,34.146
		c-1.596-8.595-4.153-17.399-7.975-28.718c0,32.803-48.583,36.139-48.583,67.586c-0.011,7.157,2.807,14.029,7.84,19.118
		c9.717,9.717,23.013,9.691,31.321,5.131C54.282,76.669,61.082,52.827,90.992,34.146z"/>
	<path id="Path_00000107575527685172372620000013611409435799019948_" style="fill:#00A443;" d="M56.554,34.146
		c-1.593-8.595-4.156-17.399-7.969-28.718C48.583,38.231,0,41.567,0,73.014c0,16.131,13.067,23.233,13.067,23.233
		c-2.031,8.624-2.456,17.548-1.253,26.325l6.235-1.037c-3.049-10.602-1.177-22.14-0.987-23.274
		c7.975,3.192,16.195,2.246,22.096-0.99C19.815,76.669,26.644,52.833,56.554,34.146L56.554,34.146z"/>
</g>
<g style="opacity:0.6;">
	<path id="Path_00000104701286807687553850000009355591426788508827_" style="fill:#FFFFFF;" d="M68.872,73.014
		c-0.01,7.159,2.811,14.031,7.849,19.118c9.717,9.717,22.91,9.7,31.318,5.131c10.297-5.585,33.456-22.339,9.41-91.835
		C117.449,38.231,68.872,41.567,68.872,73.014z"/>
	<path id="Path_00000127739374648981778130000012631868232603179413_" style="fill:#FFFFFF;" d="M90.992,34.146
		c-1.596-8.595-4.153-17.399-7.975-28.718c0,32.803-48.583,36.139-48.583,67.586c-0.011,7.157,2.807,14.029,7.84,19.118
		c9.717,9.717,23.013,9.691,31.321,5.131C54.282,76.669,61.082,52.827,90.992,34.146z"/>
	<path id="Path_00000009551628039536538290000000754015424109981845_" style="fill:#FFFFFF;" d="M56.554,34.146
		c-1.593-8.595-4.156-17.399-7.969-28.718C48.583,38.231,0,41.567,0,73.014c0,16.131,13.067,23.233,13.067,23.233
		c-2.031,8.624-2.456,17.548-1.253,26.325l6.235-1.037c-3.049-10.602-1.177-22.14-0.987-23.274
		c7.975,3.192,16.195,2.246,22.096-0.99C19.815,76.669,26.644,52.833,56.554,34.146L56.554,34.146z"/>
</g>
</svg>
