<?xml version="1.0" encoding="UTF-8"?>
<svg id="Layer_1" data-name="Layer 1" xmlns="http://www.w3.org/2000/svg" viewBox="0 0 128 128">
  <defs>
    <style>
      .cls-1 {
        fill: #fff;
      }
    </style>
  </defs>
  <g>
    <path d="m63.23,57.39c0-3.53-.75-5.41-2.57-7.78l-1.75-2.28c-.77-3.71-2.12-7.62-2.84-9.13-1.08-2.32-3.2-3.61-5.82-3.96-1.39-.19-5.95-.3-11.1-.3s-9.71.13-11.1.3c-2.61.32-4.74,1.64-5.82,3.96-.72,1.52-2.07,5.43-2.84,9.13l-1.75,2.28c-1.82,2.36-2.57,4.25-2.57,7.78v3.63c0,1.27.37,2.26,1.05,2.98v5.06c0,1.49,1.16,2.67,2.68,2.67h2.39c1.51,0,2.68-1.17,2.68-2.67v-3.34c4.47.26,10.46.44,15.27.44s10.8-.18,15.27-.44v3.34c0,1.5,1.16,2.67,2.68,2.67h2.39c1.51,0,2.68-1.17,2.68-2.67v-5.06c.69-.72,1.05-1.71,1.05-2.98v-3.63Z"/>
    <path class="cls-1" d="m19.86,63.04c-1.79-.21-2.44-1.09-2.44-2.67v-2.99c0-2.86.46-4.22,2.09-6.34l2.07-2.73c.59-3.13,1.93-7.27,2.77-9.06.7-1.49,2.04-2.41,3.99-2.65,1.31-.14,5.52-.34,10.81-.34s9.57.19,10.78.34c1.99.26,3.32,1.18,4.02,2.65.86,1.79,2.18,5.92,2.77,9.06l2.07,2.73c1.63,2.12,2.09,3.48,2.09,6.34v2.99c0,1.58-.65,2.46-2.44,2.67-3.41.42-12.4.75-19.29.75s-15.88-.32-19.29-.75Z"/>
    <path d="m25.11,47.55c3.38-.24,7.25-.42,14.05-.42s10.67.18,14.05.42c.77.05,1.04-.27.89-.94-.54-2.38-1.47-5.14-2.12-6.28-.56-.97-1.24-1.45-2.46-1.63-1.53-.21-4.97-.34-10.36-.34s-8.83.13-10.36.34c-1.21.18-1.9.65-2.46,1.63-.64,1.13-1.58,3.9-2.1,6.28-.16.67.11.99.88.94Z"/>
    <path d="m44.49,55.33h-10.68c-1.34,0-2.25.93-2.25,2.27s.91,2.25,2.25,2.25h10.68c1.34,0,2.26-.93,2.26-2.25s-.92-2.27-2.26-2.27Z"/>
    <path d="m24.31,54.24c-1.79,0-3.14,1.36-3.14,3.15s1.36,3.15,3.14,3.15,3.16-1.34,3.16-3.15-1.36-3.15-3.16-3.15Z"/>
    <path d="m112.92,57.39c0-3.53-.75-5.41-2.57-7.78l-1.75-2.28c-.77-3.71-2.12-7.62-2.84-9.13-1.08-2.32-3.2-3.61-5.82-3.96-1.39-.19-5.95-.3-11.1-.3s-9.71.13-11.1.3c-2.61.32-4.74,1.64-5.82,3.96-.72,1.52-2.07,5.43-2.84,9.13l-1.75,2.28c-1.82,2.36-2.57,4.25-2.57,7.78v3.63c0,1.27.37,2.26,1.05,2.98v5.06c0,1.49,1.16,2.67,2.68,2.67h2.39c1.51,0,2.68-1.17,2.68-2.67v-3.34c4.47.26,10.46.44,15.27.44s10.8-.18,15.27-.44v3.34c0,1.5,1.16,2.67,2.68,2.67h2.39c1.51,0,2.68-1.17,2.68-2.67v-5.06c.69-.72,1.05-1.71,1.05-2.98v-3.63Z"/>
    <path class="cls-1" d="m69.56,63.04c-1.79-.21-2.44-1.09-2.44-2.67v-2.99c0-2.86.46-4.22,2.09-6.34l2.07-2.73c.59-3.13,1.93-7.27,2.77-9.06.7-1.49,2.04-2.41,3.99-2.65,1.31-.14,5.52-.34,10.81-.34s9.57.19,10.78.34c1.99.26,3.32,1.18,4.02,2.65.86,1.79,2.18,5.92,2.77,9.06l2.07,2.73c1.63,2.12,2.09,3.48,2.09,6.34v2.99c0,1.58-.65,2.46-2.44,2.67-3.41.42-12.4.75-19.29.75s-15.88-.32-19.29-.75Z"/>
    <path d="m74.8,47.55c3.38-.24,7.25-.42,14.05-.42s10.67.18,14.05.42c.77.05,1.04-.27.89-.94-.54-2.38-1.47-5.14-2.12-6.28-.56-.97-1.24-1.45-2.46-1.63-1.53-.21-4.97-.34-10.36-.34s-8.83.13-10.36.34c-1.21.18-1.9.65-2.46,1.63-.64,1.13-1.58,3.9-2.1,6.28-.16.67.11.99.88.94Z"/>
    <path d="m94.19,55.33h-10.68c-1.34,0-2.25.93-2.25,2.27s.91,2.25,2.25,2.25h10.68c1.34,0,2.26-.93,2.26-2.25s-.92-2.27-2.26-2.27Z"/>
    <path d="m103.69,54.24c-1.8,0-3.16,1.36-3.16,3.15s1.36,3.15,3.16,3.15,3.14-1.34,3.14-3.15-1.36-3.15-3.14-3.15Z"/>
    <g>
      <path d="m95.54,79.65c0-4.46-.95-6.83-3.24-9.82l-2.21-2.88c-.97-4.68-2.68-9.62-3.58-11.53-1.37-2.92-4.05-4.56-7.35-5-1.75-.24-7.51-.38-14.01-.38s-12.26.16-14.01.38c-3.3.4-5.98,2.08-7.35,5-.91,1.92-2.62,6.85-3.58,11.53l-2.21,2.88c-2.29,2.98-3.24,5.36-3.24,9.82v4.58c0,1.6.46,2.85,1.33,3.76v6.38c0,1.87,1.47,3.37,3.38,3.37h3.02c1.91,0,3.38-1.47,3.38-3.37v-4.22c5.65.33,13.2.55,19.28.55s13.64-.22,19.28-.55v4.22c0,1.89,1.47,3.37,3.38,3.37h3.02c1.91,0,3.38-1.47,3.38-3.37v-6.38c.87-.91,1.33-2.16,1.33-3.76v-4.58Z"/>
      <path class="cls-1" d="m40.8,86.78c-2.25-.26-3.08-1.37-3.08-3.37v-3.77c0-3.61.58-5.32,2.64-8l2.62-3.45c.74-3.95,2.44-9.17,3.5-11.43.89-1.87,2.58-3.04,5.03-3.35,1.65-.18,6.96-.42,13.65-.42s12.08.24,13.61.42c2.52.32,4.19,1.49,5.07,3.35,1.09,2.26,2.76,7.48,3.5,11.43l2.62,3.45c2.05,2.68,2.64,4.39,2.64,8v3.77c0,2-.82,3.1-3.08,3.37-4.31.52-15.66.95-24.35.95s-20.05-.4-24.35-.95Z"/>
      <path d="m47.42,67.23c4.27-.3,9.16-.52,17.73-.52s13.46.22,17.73.52c.97.06,1.31-.34,1.13-1.19-.68-3-1.85-6.49-2.68-7.92-.7-1.23-1.57-1.83-3.1-2.06-1.93-.26-6.28-.42-13.08-.42s-11.15.16-13.08.42c-1.53.22-2.39.83-3.1,2.06-.81,1.43-1.99,4.92-2.66,7.92-.2.85.14,1.25,1.11,1.19Z"/>
      <path d="m71.9,77.05h-13.48c-1.69,0-2.84,1.17-2.84,2.86s1.15,2.84,2.84,2.84h13.48c1.69,0,2.86-1.17,2.86-2.84s-1.17-2.86-2.86-2.86Z"/>
      <path d="m46.42,75.68c-2.25,0-3.96,1.71-3.96,3.97s1.71,3.97,3.96,3.97,3.98-1.69,3.98-3.97-1.71-3.97-3.98-3.97Z"/>
      <path d="m83.89,75.68c-2.27,0-3.98,1.71-3.98,3.97s1.71,3.97,3.98,3.97,3.96-1.69,3.96-3.97-1.71-3.97-3.96-3.97Z"/>
    </g>
  </g>
  <path d="m63.98,128c35.03,0,64.02-28.99,64.02-63.98S98.96,0,63.93,0,0,28.99,0,64.02s28.99,63.98,63.98,63.98Zm0-9.14c-30.37,0-54.79-24.47-54.79-54.84S33.56,9.19,63.93,9.19s54.89,24.42,54.89,54.84-24.42,54.84-54.84,54.84Z"/>
</svg>