<?xml version="1.0" encoding="iso-8859-1"?>
<!-- Generator: Adobe Illustrator 27.8.0, SVG Export Plug-In . SVG Version: 6.00 Build 0)  -->
<svg version="1.1" id="Layer_1" xmlns="http://www.w3.org/2000/svg" xmlns:xlink="http://www.w3.org/1999/xlink" x="0px" y="0px"
	 viewBox="0 0 128 128" style="enable-background:new 0 0 128 128;" xml:space="preserve">
<g>
	
		<linearGradient id="SVGID_1_" gradientUnits="userSpaceOnUse" x1="18.7453" y1="111.2549" x2="109.2547" y2="20.7452" gradientTransform="matrix(1 0 0 -1 0 130)">
		<stop  offset="0" style="stop-color:#FDFDFD"/>
		<stop  offset="1" style="stop-color:#C5C5C5"/>
	</linearGradient>
	<path style="fill:url(#SVGID_1_);" d="M64,128c35.346,0,64-28.654,64-64S99.346,0,64,0C28.654,0,0,28.654,0,64S28.654,128,64,128z"
		/>
</g>
<linearGradient id="SVGID_00000067941154535166843410000005256326726963326126_" gradientUnits="userSpaceOnUse" x1="18.7451" y1="111.2548" x2="109.2549" y2="20.7451" gradientTransform="matrix(1 0 0 -1 0 130)">
	<stop  offset="0" style="stop-color:#FDFDFD"/>
	<stop  offset="0.2253" style="stop-color:#F2F2F2"/>
	<stop  offset="0.6194" style="stop-color:#D5D5D5"/>
	<stop  offset="0.999" style="stop-color:#B3B3B3"/>
</linearGradient>
<path style="fill:url(#SVGID_00000067941154535166843410000005256326726963326126_);" d="M64,3.253
	c12.015,0,23.759,3.563,33.749,10.238c9.99,6.675,17.776,16.162,22.374,27.263c4.598,11.1,5.801,23.314,3.457,35.098
	c-2.344,11.784-8.129,22.608-16.625,31.104c-5.638,5.656-12.335,10.145-19.709,13.21c-7.374,3.065-15.28,4.646-23.266,4.653
	c-7.986,0.007-15.895-1.562-23.274-4.615c-7.379-3.053-14.084-7.531-19.731-13.178c-5.647-5.647-10.125-12.352-13.178-19.731
	c-3.053-7.379-4.621-15.288-4.615-23.274c0.006-7.986,1.587-15.892,4.652-23.266c3.065-7.374,7.554-14.072,13.21-19.709
	C26.673,15.387,33.367,10.9,40.74,7.846C48.114,4.792,56.019,3.231,64,3.253z M64,0C49.193,0,34.845,5.134,23.399,14.527
	C11.953,23.921,4.119,36.992,1.23,51.514c-2.889,14.522-0.653,29.597,6.327,42.655c6.98,13.058,18.272,23.293,31.951,28.959
	c13.68,5.666,28.901,6.414,43.07,2.116c14.169-4.298,26.41-13.376,34.636-25.688c8.226-12.311,11.929-27.094,10.478-41.83
	s-7.967-28.512-18.437-38.982c-5.936-5.952-12.99-10.672-20.757-13.889C80.732,1.64,72.406-0.011,64,0z"/>
<linearGradient id="SVGID_00000071539790108198819670000016708886152140799145_" gradientUnits="userSpaceOnUse" x1="98.9622" y1="31.0375" x2="31.7059" y2="98.294" gradientTransform="matrix(1 0 0 -1 0 130)">
	<stop  offset="0" style="stop-color:#212282"/>
	<stop  offset="0.6748" style="stop-color:#009FEE"/>
	<stop  offset="1" style="stop-color:#63C6F5"/>
</linearGradient>
<path style="fill:url(#SVGID_00000071539790108198819670000016708886152140799145_);" d="M95.42,28.078L69.384,54.115
	c-1.652-0.9-3.503-1.371-5.384-1.371c-1.881,0-3.732,0.471-5.383,1.371L32.58,28.078C41.279,20.469,52.443,16.276,64,16.276
	C75.557,16.276,86.721,20.469,95.42,28.078z M73.885,69.384l26.037,26.037c7.609-8.699,11.802-19.863,11.802-31.421
	s-4.194-22.722-11.802-31.421L73.885,58.616c0.9,1.652,1.371,3.503,1.371,5.384C75.257,65.881,74.785,67.732,73.885,69.384z
	 M54.115,58.616L28.078,32.58C20.469,41.279,16.276,52.443,16.276,64c0,11.557,4.194,22.721,11.802,31.42l26.037-26.037
	c-0.9-1.652-1.371-3.503-1.371-5.384C52.744,62.119,53.215,60.268,54.115,58.616L54.115,58.616z M58.616,73.885L32.579,99.922
	c8.699,7.609,19.863,11.802,31.421,11.802s22.722-4.194,31.421-11.802L69.383,73.885c-1.652,0.9-3.503,1.371-5.383,1.371
	C62.119,75.257,60.268,74.785,58.616,73.885L58.616,73.885z"/>
<radialGradient id="SVGID_00000055696436812969746400000013872411251990812082_" cx="4.315" cy="129" r="2.1683" gradientTransform="matrix(9.4976 9.4976 9.4976 -9.4976 -1202.1687 1248.2057)" gradientUnits="userSpaceOnUse">
	<stop  offset="0.3147" style="stop-color:#FDFDFD"/>
	<stop  offset="0.9" style="stop-color:#FFFFFF;stop-opacity:0"/>
</radialGradient>
<path style="fill:url(#SVGID_00000055696436812969746400000013872411251990812082_);" d="M64,93.124
	c16.085,0,29.124-13.039,29.124-29.124S80.085,34.876,64,34.876c-16.085,0-29.124,13.039-29.124,29.124S47.915,93.124,64,93.124z"/>
<path style="fill:#FFFFFF;" d="M64,75.307c6.245,0,11.307-5.063,11.307-11.307c0-6.245-5.062-11.307-11.307-11.307
	S52.693,57.755,52.693,64C52.693,70.245,57.755,75.307,64,75.307z"/>
<circle style="opacity:0.6;fill:#FFFFFF;" cx="64" cy="64" r="64"/>
</svg>
