<?xml version="1.0" encoding="iso-8859-1"?>
<!-- Generator: Adobe Illustrator 27.7.0, SVG Export Plug-In . SVG Version: 6.00 Build 0)  -->
<svg version="1.1" id="Layer_1" xmlns="http://www.w3.org/2000/svg" xmlns:xlink="http://www.w3.org/1999/xlink" x="0px" y="0px"
	 viewBox="0 0 128 128" style="enable-background:new 0 0 128 128;" xml:space="preserve">
<path style="fill:#075E92;" d="M64,128C28.653,128,0,99.347,0,64S28.653,0,64,0s64,28.653,64,64S99.347,128,64,128z M11.06,78.223
	c5.743-11.267,20.913-21.467,38.81-28.647c17.567-7.047,34.853-11.753,59.863-16.07c-9.857-14.753-26.657-24.47-45.73-24.47
	C33.647,9.037,9.037,33.647,9.037,64c0,4.997,0.67,9.837,1.92,14.437C10.99,78.367,11.023,78.293,11.06,78.223z M109.747,33.53
	c-38.07,7.3-52.973,19.997-56.433,32.12c-4.003,14.03,4.49,28.79,8.34,37.427c2.5,5.61,4.527,13.887,4.983,15.82
	C95.767,117.52,118.963,93.47,118.963,64C118.963,52.727,115.567,42.25,109.747,33.53L109.747,33.53z"/>
<path style="opacity:0.6;fill:#FFFFFF;" d="M64,128C28.653,128,0,99.347,0,64S28.653,0,64,0s64,28.653,64,64S99.347,128,64,128z
	 M11.06,78.223c5.743-11.267,20.913-21.467,38.81-28.647c17.567-7.047,34.853-11.753,59.863-16.07
	c-9.857-14.753-26.657-24.47-45.73-24.47C33.647,9.037,9.037,33.647,9.037,64c0,4.997,0.67,9.837,1.92,14.437
	C10.99,78.367,11.023,78.293,11.06,78.223z M109.747,33.53c-38.07,7.3-52.973,19.997-56.433,32.12
	c-4.003,14.03,4.49,28.79,8.34,37.427c2.5,5.61,4.527,13.887,4.983,15.82C95.767,117.52,118.963,93.47,118.963,64
	C118.963,52.727,115.567,42.25,109.747,33.53L109.747,33.53z"/>
</svg>
