<?xml version="1.0" encoding="iso-8859-1"?>
<!-- Generator: Adobe Illustrator 27.7.0, SVG Export Plug-In . SVG Version: 6.00 Build 0)  -->
<svg version="1.1" id="Layer_1" xmlns="http://www.w3.org/2000/svg" xmlns:xlink="http://www.w3.org/1999/xlink" x="0px" y="0px"
	 viewBox="0 0 128 128" style="enable-background:new 0 0 128 128;" xml:space="preserve">
<g>
	<path style="fill:none;" d="M60.185,3.877L31.788,71.569c-1.184,2.823,0.889,5.941,3.951,5.941h23.185l-16.555,47.596
		c-0.829,2.384,2.397,4.02,3.83,1.941l49.413-71.674c1.585-2.3-0.061-5.434-2.854-5.434H74.029L95.864,5.255
		C97.049,2.829,95.283,0,92.582,0H66.016C63.469,0,61.17,1.528,60.185,3.877z"/>
	<path style="fill:#81C750;" d="M60.185,3.877L31.788,71.569c-1.184,2.823,0.889,5.941,3.951,5.941h23.185l-16.555,47.596
		c-0.829,2.384,2.397,4.02,3.83,1.941l49.413-71.674c1.585-2.3-0.061-5.434-2.854-5.434H74.029L95.864,5.255
		C97.049,2.829,95.283,0,92.582,0H66.016C63.469,0,61.17,1.528,60.185,3.877z"/>
	<path style="fill:#81C750;" d="M42.298,111.841c0.112-0.322-0.038-0.672-0.347-0.817c-17.616-8.289-29.817-26.185-29.817-46.943
		c0-24.121,16.467-44.392,38.772-50.195c0.199-0.052,0.363-0.192,0.442-0.381l2.891-6.892c0.205-0.49-0.217-1.024-0.74-0.931
		C25.742,10.64,4.669,34.897,4.669,64.081c0,23.972,14.224,44.61,34.687,53.969c0.361,0.165,0.789-0.021,0.92-0.396L42.298,111.841z
		"/>
	<path d="M96.005,15.045l-2.71,5.547c-0.144,0.295-0.05,0.648,0.22,0.835c13.506,9.363,22.351,24.975,22.351,42.653
		c0,28.645-23.221,51.866-51.866,51.866c-1.429,0-2.842-0.068-4.241-0.184c-0.238-0.02-0.466,0.088-0.602,0.284l-3.944,5.72
		c-0.283,0.411-0.038,0.986,0.456,1.055c2.722,0.384,5.503,0.588,8.331,0.588c32.768,0,59.331-26.563,59.331-59.331
		c0-20.556-10.462-38.657-26.343-49.304C96.649,14.55,96.184,14.679,96.005,15.045z"/>
	<path d="M63.844,0.401c-1.62,0.595-2.967,1.825-3.659,3.476L31.788,71.569c-1.184,2.823,0.889,5.941,3.951,5.941h23.185
		l-16.555,47.596c-0.829,2.384,2.397,4.02,3.83,1.941l17.646-25.595V0.401z"/>
</g>
<g style="opacity:0.6;">
	<path style="fill:#FFFFFF;" d="M60.185,3.877L31.788,71.569c-1.184,2.823,0.889,5.941,3.951,5.941h23.185l-16.555,47.596
		c-0.829,2.384,2.397,4.02,3.83,1.941l49.413-71.674c1.585-2.3-0.061-5.434-2.854-5.434H74.029L95.864,5.255
		C97.049,2.829,95.283,0,92.582,0H66.016C63.469,0,61.17,1.528,60.185,3.877z"/>
	<path style="fill:#FFFFFF;" d="M60.185,3.877L31.788,71.569c-1.184,2.823,0.889,5.941,3.951,5.941h23.185l-16.555,47.596
		c-0.829,2.384,2.397,4.02,3.83,1.941l49.413-71.674c1.585-2.3-0.061-5.434-2.854-5.434H74.029L95.864,5.255
		C97.049,2.829,95.283,0,92.582,0H66.016C63.469,0,61.17,1.528,60.185,3.877z"/>
	<path style="fill:#FFFFFF;" d="M42.298,111.841c0.112-0.322-0.038-0.672-0.347-0.817c-17.616-8.289-29.817-26.185-29.817-46.943
		c0-24.121,16.467-44.392,38.772-50.195c0.199-0.052,0.363-0.192,0.442-0.381l2.891-6.892c0.205-0.49-0.217-1.024-0.74-0.931
		C25.742,10.64,4.669,34.897,4.669,64.081c0,23.972,14.224,44.61,34.687,53.969c0.361,0.165,0.789-0.021,0.92-0.396L42.298,111.841z
		"/>
	<path style="fill:#FFFFFF;" d="M96.005,15.045l-2.71,5.547c-0.144,0.295-0.05,0.648,0.22,0.835
		c13.506,9.363,22.351,24.975,22.351,42.653c0,28.645-23.221,51.866-51.866,51.866c-1.429,0-2.842-0.068-4.241-0.184
		c-0.238-0.02-0.466,0.088-0.602,0.284l-3.944,5.72c-0.283,0.411-0.038,0.986,0.456,1.055c2.722,0.384,5.503,0.588,8.331,0.588
		c32.768,0,59.331-26.563,59.331-59.331c0-20.556-10.462-38.657-26.343-49.304C96.649,14.55,96.184,14.679,96.005,15.045z"/>
	<path style="fill:#FFFFFF;" d="M63.844,0.401c-1.62,0.595-2.967,1.825-3.659,3.476L31.788,71.569
		c-1.184,2.823,0.889,5.941,3.951,5.941h23.185l-16.555,47.596c-0.829,2.384,2.397,4.02,3.83,1.941l17.646-25.595V0.401z"/>
</g>
</svg>
