<?xml version="1.0" encoding="iso-8859-1"?>
<!-- Generator: Adobe Illustrator 27.8.0, SVG Export Plug-In . SVG Version: 6.00 Build 0)  -->
<svg version="1.1" id="Layer_1" xmlns="http://www.w3.org/2000/svg" xmlns:xlink="http://www.w3.org/1999/xlink" x="0px" y="0px"
	 viewBox="0 0 128 128" style="enable-background:new 0 0 128 128;" xml:space="preserve">
<g>
	<path d="M63.975,128C99.01,128,128,99.01,128,64.025C128,28.99,98.961,0,63.926,0C28.941,0,0,28.99,0,64.025
		C0,99.01,28.99,128,63.975,128z M63.976,120c-14.784,0-28.794-5.869-39.451-16.525C13.869,92.818,8,78.808,8,64.024
		c0-14.81,5.862-28.837,16.505-39.498C35.146,13.869,49.146,8,63.926,8c14.812,0,28.847,5.872,39.521,16.534
		C114.121,35.197,120,49.222,120,64.024c0,14.785-5.87,28.795-16.529,39.449C92.808,114.131,78.781,120,63.976,120z"/>
	<g>
		<path d="M45.16,70.056h2.691v4.037h2.691V63.327h-2.691v4.037H45.16v-4.037h-2.691v10.766h2.691V70.056z"/>
		<path d="M55.926,74.093c2.23,0,4.037-1.808,4.037-4.037v-2.691c0-2.23-1.808-4.037-4.037-4.037s-4.037,1.808-4.037,4.037v2.691
			C51.888,72.286,53.696,74.093,55.926,74.093z M54.58,67.364c0-0.743,0.603-1.346,1.346-1.346c0.743,0,1.346,0.603,1.346,1.346
			v2.691c0,0.743-0.603,1.346-1.346,1.346c-0.743,0-1.346-0.603-1.346-1.346V67.364z"/>
		<path d="M64,74.093h2.691v-8.074h2.691v-2.691h-8.074v2.691H64V74.093z"/>
		<path d="M72.074,74.093h5.383v-2.691H73.42v-1.346h4.037v-2.691H73.42v-1.346h4.037v-2.691h-5.383
			c-0.743,0-1.346,0.603-1.346,1.346v8.074C70.729,73.491,71.331,74.093,72.074,74.093z"/>
		<path d="M80.149,74.093h5.383v-2.691h-4.037v-8.074h-2.691v9.42C78.803,73.491,79.406,74.093,80.149,74.093z"/>
		<path d="M85.532,78.13c2.23,0,4.037-1.808,4.037-4.037V63.327c0-2.23-1.808-4.037-4.037-4.037H42.468
			c-2.23,0-4.037,1.808-4.037,4.037v10.766c0,2.23,1.808,4.037,4.037,4.037H85.532z M41.122,74.093V63.327
			c0-0.743,0.603-1.346,1.346-1.346h43.064c0.743,0,1.346,0.603,1.346,1.346v10.766c0,0.743-0.603,1.346-1.346,1.346H42.468
			C41.725,75.439,41.122,74.836,41.122,74.093z"/>
		<path d="M30.356,95.625c-2.23,0-4.037,1.808-4.037,4.037l0,0v1.346c0,0.743,0.603,1.346,1.346,1.346h72.67
			c0.743,0,1.346-0.603,1.346-1.346v-1.346c0-2.23-1.808-4.037-4.037-4.037l0,0h-2.691V31.029h0.673
			c1.858,0,3.364-1.506,3.364-3.364s-1.506-3.364-3.364-3.364H77.457v-4.037c0-0.743-0.603-1.346-1.346-1.346H50.543
			c-0.743,0-1.346,0.603-1.346,1.346v4.037H32.375c-1.858,0-3.364,1.506-3.364,3.364s1.506,3.364,3.364,3.364h0.673v64.596H30.356z
			 M98.989,99.662H29.011c0-0.743,0.603-1.346,1.346-1.346h67.287C98.387,98.316,98.989,98.919,98.989,99.662z M78.803,95.625H73.42
			V82.168h5.383V95.625z M70.729,95.625h-5.383V82.168h5.383V95.625z M62.654,95.625h-5.383V82.168h5.383V95.625z M54.58,95.625
			h-5.383V82.168h5.383V95.625z M51.888,21.609h22.878v2.691H51.888V21.609z M31.702,27.665c0-0.372,0.301-0.673,0.673-0.673h63.25
			c0.372,0,0.673,0.301,0.673,0.673s-0.301,0.673-0.673,0.673h-63.25C32.003,28.338,31.702,28.037,31.702,27.665z M35.739,31.029
			h56.521v64.596H81.495V80.822c0-0.743-0.603-1.346-1.346-1.346H47.851c-0.743,0-1.346,0.603-1.346,1.346v14.803H35.739V31.029z"/>
		<path d="M39.777,43.141h8.074c0.743,0,1.346-0.603,1.346-1.346v-8.074c0-0.743-0.603-1.346-1.346-1.346h-8.074
			c-0.743,0-1.346,0.603-1.346,1.346v8.074C38.431,42.539,39.033,43.141,39.777,43.141z M41.122,35.067h5.383v5.383h-5.383V35.067z"
			/>
		<path d="M39.777,56.598h8.074c0.743,0,1.346-0.603,1.346-1.346v-8.074c0-0.743-0.603-1.346-1.346-1.346h-8.074
			c-0.743,0-1.346,0.603-1.346,1.346v8.074C38.431,55.996,39.033,56.598,39.777,56.598z M41.122,48.524h5.383v5.383h-5.383V48.524z"
			/>
		<path d="M53.234,56.598h8.074c0.743,0,1.346-0.603,1.346-1.346v-8.074c0-0.743-0.603-1.346-1.346-1.346h-8.074
			c-0.743,0-1.346,0.603-1.346,1.346v8.074C51.888,55.996,52.491,56.598,53.234,56.598z M54.58,48.524h5.383v5.383H54.58V48.524z"/>
		<path d="M53.234,43.141h8.074c0.743,0,1.346-0.603,1.346-1.346v-8.074c0-0.743-0.603-1.346-1.346-1.346h-8.074
			c-0.743,0-1.346,0.603-1.346,1.346v8.074C51.888,42.539,52.491,43.141,53.234,43.141z M54.58,35.067h5.383v5.383H54.58V35.067z"/>
		<path d="M66.691,43.141h8.074c0.743,0,1.346-0.603,1.346-1.346v-8.074c0-0.743-0.603-1.346-1.346-1.346h-8.074
			c-0.743,0-1.346,0.603-1.346,1.346v8.074C65.346,42.539,65.948,43.141,66.691,43.141z M68.037,35.067h5.383v5.383h-5.383V35.067z"
			/>
		<path d="M66.691,56.598h8.074c0.743,0,1.346-0.603,1.346-1.346v-8.074c0-0.743-0.603-1.346-1.346-1.346h-8.074
			c-0.743,0-1.346,0.603-1.346,1.346v8.074C65.346,55.996,65.948,56.598,66.691,56.598z M68.037,48.524h5.383v5.383h-5.383V48.524z"
			/>
		<path d="M80.149,56.598h8.074c0.743,0,1.346-0.603,1.346-1.346v-8.074c0-0.743-0.603-1.346-1.346-1.346h-8.074
			c-0.743,0-1.346,0.603-1.346,1.346v8.074C78.803,55.996,79.406,56.598,80.149,56.598z M81.495,48.524h5.383v5.383h-5.383V48.524z"
			/>
		<path d="M80.149,43.141h8.074c0.743,0,1.346-0.603,1.346-1.346v-8.074c0-0.743-0.603-1.346-1.346-1.346h-8.074
			c-0.743,0-1.346,0.603-1.346,1.346v8.074C78.803,42.539,79.406,43.141,80.149,43.141z M81.495,35.067h5.383v5.383h-5.383V35.067z"
			/>
	</g>
</g>
<g>
	<path style="fill:#666666;" d="M63.975,128C99.01,128,128,99.01,128,64.025C128,28.99,98.961,0,63.926,0C28.941,0,0,28.99,0,64.025
		C0,99.01,28.99,128,63.975,128z M63.976,120c-14.784,0-28.794-5.869-39.451-16.525C13.869,92.818,8,78.808,8,64.024
		c0-14.81,5.862-28.837,16.505-39.498C35.146,13.869,49.146,8,63.926,8c14.812,0,28.847,5.872,39.521,16.534
		C114.121,35.197,120,49.222,120,64.024c0,14.785-5.87,28.795-16.529,39.449C92.808,114.131,78.781,120,63.976,120z"/>
	<g>
		<path style="fill:#666666;" d="M45.16,70.056h2.691v4.037h2.691V63.327h-2.691v4.037H45.16v-4.037h-2.691v10.766h2.691V70.056z"/>
		<path style="fill:#666666;" d="M55.926,74.093c2.23,0,4.037-1.808,4.037-4.037v-2.691c0-2.23-1.808-4.037-4.037-4.037
			s-4.037,1.808-4.037,4.037v2.691C51.888,72.286,53.696,74.093,55.926,74.093z M54.58,67.364c0-0.743,0.603-1.346,1.346-1.346
			c0.743,0,1.346,0.603,1.346,1.346v2.691c0,0.743-0.603,1.346-1.346,1.346c-0.743,0-1.346-0.603-1.346-1.346V67.364z"/>
		<path style="fill:#666666;" d="M64,74.093h2.691v-8.074h2.691v-2.691h-8.074v2.691H64V74.093z"/>
		<path style="fill:#666666;" d="M72.074,74.093h5.383v-2.691H73.42v-1.346h4.037v-2.691H73.42v-1.346h4.037v-2.691h-5.383
			c-0.743,0-1.346,0.603-1.346,1.346v8.074C70.729,73.491,71.331,74.093,72.074,74.093z"/>
		<path style="fill:#666666;" d="M80.149,74.093h5.383v-2.691h-4.037v-8.074h-2.691v9.42C78.803,73.491,79.406,74.093,80.149,74.093
			z"/>
		<path style="fill:#666666;" d="M85.532,78.13c2.23,0,4.037-1.808,4.037-4.037V63.327c0-2.23-1.808-4.037-4.037-4.037H42.468
			c-2.23,0-4.037,1.808-4.037,4.037v10.766c0,2.23,1.808,4.037,4.037,4.037H85.532z M41.122,74.093V63.327
			c0-0.743,0.603-1.346,1.346-1.346h43.064c0.743,0,1.346,0.603,1.346,1.346v10.766c0,0.743-0.603,1.346-1.346,1.346H42.468
			C41.725,75.439,41.122,74.836,41.122,74.093z"/>
		<path style="fill:#666666;" d="M30.356,95.625c-2.23,0-4.037,1.808-4.037,4.037l0,0v1.346c0,0.743,0.603,1.346,1.346,1.346h72.67
			c0.743,0,1.346-0.603,1.346-1.346v-1.346c0-2.23-1.808-4.037-4.037-4.037l0,0h-2.691V31.029h0.673
			c1.858,0,3.364-1.506,3.364-3.364s-1.506-3.364-3.364-3.364H77.457v-4.037c0-0.743-0.603-1.346-1.346-1.346H50.543
			c-0.743,0-1.346,0.603-1.346,1.346v4.037H32.375c-1.858,0-3.364,1.506-3.364,3.364s1.506,3.364,3.364,3.364h0.673v64.596H30.356z
			 M98.989,99.662H29.011c0-0.743,0.603-1.346,1.346-1.346h67.287C98.387,98.316,98.989,98.919,98.989,99.662z M78.803,95.625H73.42
			V82.168h5.383V95.625z M70.729,95.625h-5.383V82.168h5.383V95.625z M62.654,95.625h-5.383V82.168h5.383V95.625z M54.58,95.625
			h-5.383V82.168h5.383V95.625z M51.888,21.609h22.878v2.691H51.888V21.609z M31.702,27.665c0-0.372,0.301-0.673,0.673-0.673h63.25
			c0.372,0,0.673,0.301,0.673,0.673s-0.301,0.673-0.673,0.673h-63.25C32.003,28.338,31.702,28.037,31.702,27.665z M35.739,31.029
			h56.521v64.596H81.495V80.822c0-0.743-0.603-1.346-1.346-1.346H47.851c-0.743,0-1.346,0.603-1.346,1.346v14.803H35.739V31.029z"/>
		<path style="fill:#666666;" d="M39.777,43.141h8.074c0.743,0,1.346-0.603,1.346-1.346v-8.074c0-0.743-0.603-1.346-1.346-1.346
			h-8.074c-0.743,0-1.346,0.603-1.346,1.346v8.074C38.431,42.539,39.033,43.141,39.777,43.141z M41.122,35.067h5.383v5.383h-5.383
			V35.067z"/>
		<path style="fill:#666666;" d="M39.777,56.598h8.074c0.743,0,1.346-0.603,1.346-1.346v-8.074c0-0.743-0.603-1.346-1.346-1.346
			h-8.074c-0.743,0-1.346,0.603-1.346,1.346v8.074C38.431,55.996,39.033,56.598,39.777,56.598z M41.122,48.524h5.383v5.383h-5.383
			V48.524z"/>
		<path style="fill:#666666;" d="M53.234,56.598h8.074c0.743,0,1.346-0.603,1.346-1.346v-8.074c0-0.743-0.603-1.346-1.346-1.346
			h-8.074c-0.743,0-1.346,0.603-1.346,1.346v8.074C51.888,55.996,52.491,56.598,53.234,56.598z M54.58,48.524h5.383v5.383H54.58
			V48.524z"/>
		<path style="fill:#666666;" d="M53.234,43.141h8.074c0.743,0,1.346-0.603,1.346-1.346v-8.074c0-0.743-0.603-1.346-1.346-1.346
			h-8.074c-0.743,0-1.346,0.603-1.346,1.346v8.074C51.888,42.539,52.491,43.141,53.234,43.141z M54.58,35.067h5.383v5.383H54.58
			V35.067z"/>
		<path style="fill:#666666;" d="M66.691,43.141h8.074c0.743,0,1.346-0.603,1.346-1.346v-8.074c0-0.743-0.603-1.346-1.346-1.346
			h-8.074c-0.743,0-1.346,0.603-1.346,1.346v8.074C65.346,42.539,65.948,43.141,66.691,43.141z M68.037,35.067h5.383v5.383h-5.383
			V35.067z"/>
		<path style="fill:#666666;" d="M66.691,56.598h8.074c0.743,0,1.346-0.603,1.346-1.346v-8.074c0-0.743-0.603-1.346-1.346-1.346
			h-8.074c-0.743,0-1.346,0.603-1.346,1.346v8.074C65.346,55.996,65.948,56.598,66.691,56.598z M68.037,48.524h5.383v5.383h-5.383
			V48.524z"/>
		<path style="fill:#666666;" d="M80.149,56.598h8.074c0.743,0,1.346-0.603,1.346-1.346v-8.074c0-0.743-0.603-1.346-1.346-1.346
			h-8.074c-0.743,0-1.346,0.603-1.346,1.346v8.074C78.803,55.996,79.406,56.598,80.149,56.598z M81.495,48.524h5.383v5.383h-5.383
			V48.524z"/>
		<path style="fill:#666666;" d="M80.149,43.141h8.074c0.743,0,1.346-0.603,1.346-1.346v-8.074c0-0.743-0.603-1.346-1.346-1.346
			h-8.074c-0.743,0-1.346,0.603-1.346,1.346v8.074C78.803,42.539,79.406,43.141,80.149,43.141z M81.495,35.067h5.383v5.383h-5.383
			V35.067z"/>
	</g>
</g>
</svg>
