<?xml version="1.0" encoding="UTF-8"?>
<svg id="Layer_1" data-name="Layer 1" xmlns="http://www.w3.org/2000/svg" viewBox="0 0 128 128">
  <path d="m63.98,128c35.03,0,64.02-28.99,64.02-63.98S98.96,0,63.93,0,0,28.99,0,64.02s28.99,63.98,63.98,63.98Zm0-9.14c-30.37,0-54.79-24.47-54.79-54.84S33.56,9.19,63.93,9.19s54.89,24.42,54.89,54.84-24.42,54.84-54.84,54.84Z"/>
  <path d="m50.32,92.92c2.8,0,4.37-1.87,4.37-4.82v-15.38h13.22c11.84,0,19.85-7.62,19.85-18.87s-8.11-18.97-19.8-18.97h-17.74c-2.75,0-4.23,1.97-4.23,4.86v48.35c0,2.85,1.52,4.82,4.32,4.82Zm4.37-26.98v-24.27h12.14c7.47,0,12.33,4.77,12.33,12.19s-4.82,12.09-12.33,12.09h-12.14Z"/>
</svg>