<?xml version="1.0" encoding="UTF-8"?>
<svg id="Layer_1" data-name="Layer 1" xmlns="http://www.w3.org/2000/svg" viewBox="0 0 392.74 512">
  <defs>
    <style>
      .cls-1 {
        fill: #e1e1e1;
      }

      .cls-2 {
        fill: #1e1e1e;
      }

      .cls-3 {
        fill: #787878;
      }
    </style>
  </defs>
  <path class="cls-2" d="m287.52,296.34c57.29-32.2,93.81-93.04,93.81-160.83,0-32.59-8.6-64.61-24.9-92.62C341.05,16.44,312.27,0,281.33,0H112.24c-30.99,0-59.77,16.46-75.17,42.97-16.36,28.14-24.96,60.34-24.85,93.08.18,67.43,36.86,128.08,94.17,160.26-58.71.26-106.39,48.13-106.39,106.89v1.91c0,58.94,47.97,106.88,106.88,106.88h178.98c58.94,0,106.88-47.94,106.88-106.88v-1.91c0-58.38-47.06-105.98-105.23-106.86Z"/>
  <path class="cls-3" d="m375.27,405.12c0,49.3-40.11,89.41-89.41,89.41H106.88c-49.3,0-89.41-40.11-89.41-89.41v-1.91c0-49.3,40.11-89.41,89.41-89.41h37.02c2.96,0,5.39-2.41,5.41-5.37l.05-8.75c.01-2.35-1.49-4.42-3.75-5.15-69.15-22.46-115.73-86.17-115.93-158.51-.1-29.6,7.66-58.74,22.47-84.28,12.3-21.13,35.32-34.26,60.08-34.26h169.09c24.74,0,47.73,13.11,60,34.2,14.75,25.32,22.55,54.31,22.55,83.84,0,72.85-46.56,136.78-115.87,159.09-2.24.72-3.75,2.78-3.75,5.13v8.65c0,1.43.57,2.82,1.57,3.82s2.38,1.59,3.82,1.59h36.22c49.3,0,89.41,40.11,89.41,89.41v1.91Z"/>
  <path class="cls-1" d="m279.75,332.43c-38.65,0-70,31.34-70,69.99s31.35,70.02,70,70.02,69.99-31.35,69.99-70.02-31.35-69.99-69.99-69.99Zm0,100.85c-17.03,0-30.83-13.82-30.83-30.85s13.8-30.83,30.83-30.83,30.83,13.82,30.83,30.83-13.8,30.85-30.83,30.85Z"/>
  <path class="cls-1" d="m113,332.43c-38.65,0-70,31.34-70,69.99s31.35,70.02,70,70.02,69.99-31.35,69.99-70.02-31.35-69.99-69.99-69.99Zm0,100.85c-17.03,0-30.83-13.82-30.83-30.85s13.8-30.83,30.83-30.83,30.83,13.82,30.83,30.83-13.8,30.85-30.83,30.85Z"/>
  <path class="cls-1" d="m245.63,184.83c-22.83,0-41.37,18.53-41.37,41.37s18.53,41.34,41.37,41.34,41.34-18.51,41.34-41.34-18.51-41.37-41.34-41.37Zm0,59.59c-10.07,0-18.22-8.18-18.22-18.22s8.15-18.22,18.22-18.22,18.2,8.15,18.2,18.22-8.15,18.22-18.2,18.22Z"/>
  <path class="cls-1" d="m147.11,184.83c-22.83,0-41.34,18.53-41.34,41.37s18.51,41.34,41.34,41.34,41.37-18.51,41.37-41.34-18.53-41.37-41.37-41.37Zm0,59.59c-10.04,0-18.2-8.18-18.2-18.22s8.15-18.22,18.2-18.22,18.22,8.15,18.22,18.22-8.15,18.22-18.22,18.22Z"/>
  <path class="cls-1" d="m95.96,93.06c-24.15,0-43.72,19.57-43.72,43.7s19.57,43.7,43.72,43.7,43.7-19.54,43.7-43.7-19.57-43.7-43.7-43.7Zm0,62.96c-10.64,0-19.26-8.62-19.26-19.26s8.62-19.26,19.26-19.26,19.23,8.62,19.23,19.26-8.62,19.26-19.23,19.26Z"/>
  <path class="cls-1" d="m196.37,93.06c-24.13,0-43.7,19.57-43.7,43.7s19.57,43.7,43.7,43.7,43.7-19.54,43.7-43.7-19.57-43.7-43.7-43.7Zm0,62.96c-10.64,0-19.23-8.62-19.23-19.26s8.59-19.26,19.23-19.26,19.26,8.62,19.26,19.26-8.62,19.26-19.26,19.26Z"/>
  <path class="cls-1" d="m296.78,93.06c-24.13,0-43.7,19.57-43.7,43.7s19.57,43.7,43.7,43.7,43.72-19.54,43.72-43.7-19.57-43.7-43.72-43.7Zm0,62.96c-10.61,0-19.23-8.62-19.23-19.26s8.62-19.26,19.23-19.26,19.26,8.62,19.26,19.26-8.62,19.26-19.26,19.26Z"/>
  <path class="cls-1" d="m250.58,40.1c-14,0-25.37,11.34-25.37,25.34s11.36,25.34,25.37,25.34,25.34-11.34,25.34-25.34-11.36-25.34-25.34-25.34Zm0,36.53c-6.16,0-11.16-5.02-11.16-11.18s5-11.16,11.16-11.16,11.16,5,11.16,11.16-5,11.18-11.16,11.18Z"/>
  <path class="cls-1" d="m142.17,40.1c-13.98,0-25.34,11.34-25.34,25.34s11.36,25.34,25.34,25.34,25.37-11.34,25.37-25.34-11.36-25.34-25.37-25.34Zm0,36.53c-6.16,0-11.16-5.02-11.16-11.18s5-11.16,11.16-11.16,11.18,5,11.18,11.16-5.02,11.18-11.18,11.18Z"/>
  <path class="cls-1" d="m279.75,332.43c-38.65,0-70,31.34-70,69.99s31.35,70.02,70,70.02,69.99-31.35,69.99-70.02-31.35-69.99-69.99-69.99Zm0,100.85c-17.03,0-30.83-13.82-30.83-30.85s13.8-30.83,30.83-30.83,30.83,13.82,30.83,30.83-13.8,30.85-30.83,30.85Z"/>
  <path class="cls-1" d="m113,332.43c-38.65,0-70,31.34-70,69.99s31.35,70.02,70,70.02,69.99-31.35,69.99-70.02-31.35-69.99-69.99-69.99Zm0,100.85c-17.03,0-30.83-13.82-30.83-30.85s13.8-30.83,30.83-30.83,30.83,13.82,30.83,30.83-13.8,30.85-30.83,30.85Z"/>
</svg>