<?xml version="1.0" encoding="iso-8859-1"?>
<!-- Generator: Adobe Illustrator 27.8.1, SVG Export Plug-In . SVG Version: 6.00 Build 0)  -->
<svg version="1.1" id="Layer_1" xmlns="http://www.w3.org/2000/svg" xmlns:xlink="http://www.w3.org/1999/xlink" x="0px" y="0px"
	 viewBox="0 0 128 128" style="enable-background:new 0 0 128 128;" xml:space="preserve">
<path style="fill:#FFFFFF;" d="M19.833,109.264c-4.77-0.87-9.137-3.173-12.656-6.651c-2.87-2.87-4.871-6.147-6.106-10.006
	c-2.508-7.845-0.526-16.821,5.054-22.987c2.325-2.568,4.285-4.042,7.561-5.703l2.042-1.011l0.123-2.183
	c0.504-9.099,5.539-16.556,13.888-20.561c4.165-2.001,8.349-2.628,13.645-2.042l1.011,0.101l1.474-2.265
	c5.52-8.592,14.537-14.657,24.968-16.862c1.9-0.384,3.314-0.545,6.166-0.627c4.386-0.142,6.916,0.101,10.655,1.052
	c8.674,2.183,15.302,6.389,21.248,13.444c5.356,6.367,8.047,12.353,9.077,20.135c0.485,3.699,0.384,6.449-0.403,11.704l-0.12,0.81
	l1.657,1.314c8.633,6.834,11.383,19.427,6.43,29.395c-1.717,3.415-4.691,6.875-7.744,8.995c-7.602,5.255-17.65,5.662-25.554,1.052
	c-3.538-2.064-6.774-5.318-8.715-8.752c-0.365-0.646-0.788-1.172-0.951-1.172c-0.668,0-0.202-0.545,0.627-0.769
	c1.011-0.262,4.449-1.556,4.994-1.859c0.466-0.261,2.001-0.261,1.578,0c-0.466,0.284,0.082,1.093,2.224,3.236
	s3.922,3.277,6.55,4.143c5.013,1.679,10.936,0.747,15.101-2.344c3.639-2.687,5.904-6.289,6.733-10.693
	c0.668-3.456,0.183-6.692-1.497-10.028c-1.821-3.62-3.922-5.681-7.987-7.782c-1.112-0.586-2.064-1.071-2.083-1.112
	c-0.041-0.019,0.161-0.851,0.444-1.84c1.556-5.419,1.941-8.431,1.556-12.353c-0.567-5.841-2.486-10.876-5.904-15.384
	c-2.001-2.669-5.74-6.408-8.006-8.006c-3.699-2.628-7.823-4.449-12.272-5.397c-1.698-0.365-2.71-0.444-6.188-0.444
	c-4.549-0.019-6.326,0.243-10.208,1.537c-2.265,0.747-6.326,2.851-8.491,4.367c-4.124,2.93-8.025,7.722-10.312,12.697
	c-0.608,1.314-1.194,2.426-1.295,2.467c-0.123,0.041-1.194-0.243-2.385-0.627c-3.922-1.273-6.55-1.415-10.028-0.526
	c-4.124,1.03-7.539,3.456-9.864,6.994c-2.587,3.963-3.355,8.409-2.306,13.362c0.526,2.508,0.646,2.306-2.101,2.911
	c-3.68,0.81-5.882,1.84-8.166,3.781c-2.486,2.101-4.49,5.217-5.419,8.409c-0.911,3.195-0.687,7.218,0.608,10.532
	c1.597,4.143,5.176,7.744,9.42,9.461c2.87,1.172,1.982,1.131,30.627,1.131s27.07-0.082,28.466,1.273
	c1.638,1.578,1.131,4.527-0.97,5.599c-0.788,0.403-1.093,0.403-27.738,0.384c-21.834-0.019-27.231-0.082-28.466-0.302l0,0
	L19.833,109.264z"/>
<path style="fill:#29A9E1;" d="M72.397,96.772c-5.681-0.888-10.674-3.415-14.839-7.502c-5.176-5.054-7.744-10.797-8.207-18.295
	c-0.161-2.426-0.284-13.141-0.142-13.141c0.019,0,2.445-0.06,5.397-0.123c2.952-0.06,5.46-0.142,5.599-0.183
	c0.161-0.06,0.243-2.568,0.261-9.887c0-6.673,0.082-10.006,0.243-10.473c1.415-4.165,7.561-4.266,9.442-0.161
	c0.284,0.608,0.325,2.064,0.384,10.633c0.06,9.461,0.082,9.946,0.444,10.047c0.202,0.041,2.971,0.041,6.147-0.019l5.762-0.101
	l0.06-10.028c0.06-9.846,0.06-10.047,0.504-10.835c0.567-1.052,1.578-2.001,2.568-2.407c1.112-0.466,2.952-0.425,4.064,0.101
	c1.131,0.526,2.366,1.922,2.687,2.971c0.183,0.567,0.243,3.658,0.243,10.532c0,9.118,0.019,9.723,0.365,9.723
	c0.183,0,2.71,0.041,5.599,0.06l5.255,0.041l0.06,2.426c0.12,4.691-0.302,13.182-0.769,15.302
	c-0.747,3.579-2.467,7.401-4.691,10.432c-1.474,2.023-4.975,5.337-7.035,6.673c-1.052,0.687-2.001,1.314-2.123,1.396
	c-0.444,0.343-1.799,0.911-4.549,1.9c-0.608,0.224-1.84,0.545-2.728,0.709c-2.224,0.425-7.823,0.545-10.006,0.202L72.397,96.772z
	 M67.646,80.862c0.989-0.466,1.698-1.194,2.385-2.486c0.444-0.81,0.444-0.97,0.504-10.514c0.041-6.226,0-9.745-0.142-9.887
	c-0.202-0.202-8.916-0.403-9.562-0.224c-0.343,0.101-0.365,0.747-0.365,9.946c0,10.936-0.019,10.614,1.396,12.13
	c1.355,1.456,3.922,1.9,5.781,1.03l0,0L67.646,80.862z M90.166,80.881c1.03-0.504,2.306-2.001,2.609-2.993
	c0.183-0.567,0.243-3.639,0.243-10.491v-9.685l-4.59,0.019c-2.549,0.041-4.811,0.06-5.054,0.082l-0.466,0.019v9.461
	c0,10.592,0.019,10.816,1.355,12.353c0.403,0.485,1.112,1.052,1.556,1.254C86.972,81.426,89.133,81.404,90.166,80.881L90.166,80.881
	L90.166,80.881z"/>
</svg>
