<?xml version="1.0" encoding="iso-8859-1"?>
<!-- Generator: Adobe Illustrator 27.7.0, SVG Export Plug-In . SVG Version: 6.00 Build 0)  -->
<svg version="1.1" id="Layer_1" xmlns="http://www.w3.org/2000/svg" xmlns:xlink="http://www.w3.org/1999/xlink" x="0px" y="0px"
	 viewBox="0 0 128 128" style="enable-background:new 0 0 128 128;" xml:space="preserve">
<g>
	<path style="fill:#FFCF00;" d="M56.481,120H23.999L20.99,95.93L1.289,81.602C0.43,77.393,0,73.101,0,68.803
		C0,33.473,28.673,4.8,63.997,4.8C99.327,4.8,128,33.473,128,68.803c0,4.298-0.43,8.59-1.289,12.799L107.01,95.93L104.001,120
		H71.525l-1.875,1.361c-1.641,1.194-3.618,1.839-5.647,1.839c-2.024,0-4.006-0.645-5.648-1.839L56.481,120z"/>
	<path style="fill-rule:evenodd;clip-rule:evenodd;fill:#FF171B;" d="M56.481,120H23.999L20.99,95.93L1.289,81.602
		C0.43,77.393,0,73.101,0,68.803C0,33.473,28.673,4.8,63.997,4.8C99.327,4.8,128,33.473,128,68.803c0,4.298-0.43,8.59-1.289,12.799
		L107.01,95.93L104.001,120H71.525l-1.875,1.361c-1.641,1.194-3.618,1.839-5.647,1.839c-2.024,0-4.006-0.645-5.648-1.839L56.481,120
		z M57.496,108.801H33.891l-2.388-19.074L12.059,75.585c-0.567-2.215-0.86-4.489-0.86-6.782c0-3.821,0.806-7.6,2.364-11.092
		l34.428,34.81L14.519,51.204c1.319-5.361,4.233-10.191,8.358-13.856L52.881,89.13L26.297,32.44
		c3.439-4.579,8.238-7.952,13.701-9.641l18.345,64.278L44.941,20.154c4.077-2.298,8.68-3.51,13.361-3.51
		c0.991,0,1.982,0.054,2.967,0.161l2.728,69.597l2.734-69.597c0.985-0.107,1.97-0.161,2.967-0.161c4.681,0,9.283,1.206,13.361,3.51
		L69.657,87.077l18.345-64.278c5.468,1.689,10.262,5.062,13.701,9.641L75.119,89.13l29.999-51.783
		c4.131,3.665,7.045,8.495,8.358,13.856L80.008,92.521l34.428-34.81c1.558,3.493,2.364,7.265,2.364,11.092
		c0,2.286-0.287,4.567-0.859,6.782L96.497,89.727l-2.388,19.074H70.504l-3.493,2.543c-0.877,0.639-1.934,0.979-3.015,0.979
		s-2.137-0.34-3.009-0.979L57.496,108.801z"/>
</g>
</svg>
