<?xml version="1.0" encoding="iso-8859-1"?>
<!-- Generator: Adobe Illustrator 27.8.0, SVG Export Plug-In . SVG Version: 6.00 Build 0)  -->
<svg version="1.1" id="Layer_1" xmlns="http://www.w3.org/2000/svg" xmlns:xlink="http://www.w3.org/1999/xlink" x="0px" y="0px"
	 viewBox="0 0 128 128" style="enable-background:new 0 0 128 128;" xml:space="preserve">
<g>
	<path style="fill:#32A7DE;" d="M97.58,104.312c0,0,0,0.223,0,2.819c0,4.623,4.677,8.294,7.759,8.294s2.92,0,9.896,0
		c4.603,0,8.463-3.549,8.463-8.294c0-3.974,0-28.977,0-32.546s-0.608-8.334-3.468-12.897c7.361-2.008,7.77-6.75,7.77-11.438
		c0-8.151-4.363-10.99-10.061-10.99c-3.974,0-6.348,1.195-7.381,1.947C101.98,17.341,96.323,12.575,64,12.575
		s-37.98,4.765-46.558,28.632c-1.033-0.751-3.407-1.947-7.381-1.947C4.363,39.261,0,42.1,0,50.251c0,4.687,0.409,9.43,7.77,11.438
		c-2.859,4.563-3.468,9.328-3.468,12.897s0,28.571,0,32.546c0,4.745,3.86,8.294,8.463,8.294c6.976,0,6.813,0,9.896,0
		s7.759-3.67,7.759-8.294c0-2.596,0-2.819,0-2.819H97.58z"/>
	<path style="fill:#FFFFFF;" d="M41.302,76.494H27.271c-0.655,0-1.19-0.536-1.19-1.19v-4.942c0-0.808,0.661-1.469,1.469-1.469
		l13.549,0.808c0.808,0,1.248,0.661,1.248,1.469v4.281C42.346,76.027,41.879,76.494,41.302,76.494z"/>
	<path style="fill:#FFFFFF;" d="M64,52.867c9.835,0,30.315,0.913,33.175,0.973c2.859,0.061,3.954-1.399,2.254-5.49
		c-1.975-4.751-4.185-10.245-7.121-15.802C88.901,26.101,79.472,26.101,64,26.101s-24.901,0-28.308,6.448
		c-2.936,5.557-5.146,11.051-7.121,15.802c-1.7,4.091-0.605,5.551,2.254,5.49S54.165,52.867,64,52.867z"/>
	<path style="fill:#FFFFFF;" d="M86.698,76.494h14.031c0.655,0,1.19-0.536,1.19-1.19v-4.942c0-0.808-0.661-1.469-1.469-1.469
		l-13.549,0.808c-0.808,0-1.248,0.661-1.248,1.469v4.281C85.654,76.027,86.121,76.494,86.698,76.494z"/>
</g>
<g style="opacity:0.6;">
	<path style="fill:#FFFFFF;" d="M97.58,104.312c0,0,0,0.223,0,2.819c0,4.623,4.677,8.294,7.759,8.294s2.92,0,9.896,0
		c4.603,0,8.463-3.549,8.463-8.294c0-3.974,0-28.977,0-32.546s-0.608-8.334-3.468-12.897c7.361-2.008,7.77-6.75,7.77-11.438
		c0-8.151-4.363-10.99-10.061-10.99c-3.974,0-6.348,1.195-7.381,1.947C101.98,17.341,96.323,12.575,64,12.575
		s-37.98,4.765-46.558,28.632c-1.033-0.751-3.407-1.947-7.381-1.947C4.363,39.261,0,42.1,0,50.251c0,4.687,0.409,9.43,7.77,11.438
		c-2.859,4.563-3.468,9.328-3.468,12.897s0,28.571,0,32.546c0,4.745,3.86,8.294,8.463,8.294c6.976,0,6.813,0,9.896,0
		s7.759-3.67,7.759-8.294c0-2.596,0-2.819,0-2.819H97.58z"/>
	<path style="fill:#FFFFFF;" d="M41.302,76.494H27.271c-0.655,0-1.19-0.536-1.19-1.19v-4.942c0-0.808,0.661-1.469,1.469-1.469
		l13.549,0.808c0.808,0,1.248,0.661,1.248,1.469v4.281C42.346,76.027,41.879,76.494,41.302,76.494z"/>
	<path style="fill:#FFFFFF;" d="M64,52.867c9.835,0,30.315,0.913,33.175,0.973c2.859,0.061,3.954-1.399,2.254-5.49
		c-1.975-4.751-4.185-10.245-7.121-15.802C88.901,26.101,79.472,26.101,64,26.101s-24.901,0-28.308,6.448
		c-2.936,5.557-5.146,11.051-7.121,15.802c-1.7,4.091-0.605,5.551,2.254,5.49S54.165,52.867,64,52.867z"/>
	<path style="fill:#FFFFFF;" d="M86.698,76.494h14.031c0.655,0,1.19-0.536,1.19-1.19v-4.942c0-0.808-0.661-1.469-1.469-1.469
		l-13.549,0.808c-0.808,0-1.248,0.661-1.248,1.469v4.281C85.654,76.027,86.121,76.494,86.698,76.494z"/>
</g>
</svg>
