<?xml version="1.0" encoding="iso-8859-1"?>
<!-- Generator: Adobe Illustrator 27.7.0, SVG Export Plug-In . SVG Version: 6.00 Build 0)  -->
<svg version="1.1" id="Layer_1" xmlns="http://www.w3.org/2000/svg" xmlns:xlink="http://www.w3.org/1999/xlink" x="0px" y="0px"
	 viewBox="0 0 128 128" style="enable-background:new 0 0 128 128;" xml:space="preserve">
<g>
	<path id="path58992" style="fill:#00853E;" d="M12.348,54.77c0,27.808,28.062,34.166,39.614,35.399
		c-9.764-7.431-15.061-19.221-15.061-31.838c0-13.455,6.24-23.821,11.389-29.44C36.322,22.033,20.243,15.132,0,6.395v32.304
		c5.284-5.625,13.359-9.345,24.44-13.918l0.888,1.951C18.572,30.105,12.348,38.622,12.348,54.77"/>
	<path id="path58994" style="fill:#00853E;" d="M59.772,36.497c-1.19,3.877-1.884,8.52-1.884,14.191
		c0,8.606,3.185,21.042,13.22,28.455c2.078-4.263,3.302-9.428,3.302-14.97C74.41,52.651,69.526,44.207,59.772,36.497"/>
	<path id="path58996" style="fill:#00853E;" d="M84.778,80.855c-1.495,1.009-2.957,1.957-4.396,2.868
		c3.431,1.04,7.295,1.671,11.747,1.671c6.064,0,14.268-1.782,18.014-2.674l5.349-17.111c-6.151,0.279-15.791,0.669-22.09,0.846
		C92.051,72.261,89.304,77.781,84.778,80.855"/>
	<path id="path58998" style="fill:#650260;" d="M112.902,128H128V82.449"/>
	<path id="path59000" style="fill:#00853E;" d="M127.997,59.748V35.558l-10.008,6.597c1.424-3.555,2.676-5.511,2.676-9.066
		c0-5.333-9.632-14.222-32.104-14.222c-6.064,0-11.965,0.742-16.951,3.138C89.36,32.357,94.431,46.492,94.431,57.785
		c0,0.374-0.037,0.761-0.049,1.141c0.623-0.304,1.187-0.598,1.656-0.874c10.877,1.595,16.223,2.303,21.754,2.236
		C121.156,60.287,124.581,60.048,127.997,59.748"/>
	<path id="path59002" style="fill:#650260;" d="M108.894,87.918c-7.134,4.248-22.473,10.446-31.746,10.446
		c-6.536,0-12.345-1.233-17.385-3.398c-12.19,5.226-20.589,6.373-24.298,6.373c-6.687,0-24.973-3.895-35.465-16.325V128h95.834"/>
	<path id="path59004" style="fill:#00853E;" d="M64.985,18.567c0.305,0.138,0.573,0.285,0.873,0.426
		c8.007-2.794,19.016-5.447,31.623-5.447c13.208,0,23.499,2.018,30.519,4.527V0H28.99"/>
	<path id="path59006" style="fill:#FFFFFF;" d="M16.041,118.238c-0.666,0.34-1.982,0.583-3.092,0.583
		c-3.012,0-4.791-2.153-4.791-5.008c0-2.877,1.819-5.088,4.729-5.088c1.011,0,1.982,0.141,3.052,0.745l0.203-2.374
		c-1.033-0.402-2.266-0.583-3.194-0.583c-4.791,0-7.742,2.693-7.742,7.502c0,4.748,3.172,7.017,7.742,7.017
		c1.07,0,2.183-0.202,3.213-0.442L16.041,118.238L16.041,118.238z M18.369,113.732c0,4.303,2.383,7.299,6.912,7.299
		c4.467,0,6.912-3.055,6.912-7.299s-2.485-7.22-6.912-7.22C20.792,106.513,18.369,109.426,18.369,113.732 M21.316,113.732
		c0-2.475,1.153-5.008,3.965-5.008c2.809,0,3.962,2.533,3.962,5.008c0,2.533-1.07,5.088-3.962,5.088S21.316,116.266,21.316,113.732
		 M35.489,115.723c0,3.76,2.143,5.309,5.762,5.309c3.616,0,5.759-1.549,5.759-5.309v-8.968h-2.827v8.106
		c0,2.392-0.771,3.959-2.932,3.959c-2.164,0-2.935-1.567-2.935-3.959v-8.106h-2.827L35.489,115.723L35.489,115.723z M50.852,120.79
		h2.707v-10.495h0.04l5.402,10.495h3.453v-14.034h-2.707v10.495h-0.04l-5.38-10.495h-3.475V120.79z M76.543,118.238
		c-0.666,0.34-1.979,0.583-3.092,0.583c-3.012,0-4.791-2.153-4.791-5.008c0-2.877,1.819-5.088,4.729-5.088
		c1.011,0,1.982,0.141,3.052,0.745l0.203-2.374c-1.033-0.402-2.266-0.583-3.194-0.583c-4.791,0-7.742,2.693-7.742,7.502
		c0,4.748,3.172,7.017,7.742,7.017c1.07,0,2.183-0.202,3.213-0.442L76.543,118.238L76.543,118.238z M79.315,120.79h2.827v-14.034
		h-2.827V120.79z M85.987,120.79h8.306v-2.208h-5.479v-11.826h-2.827"/>
</g>
<g style="opacity:0.6;">
	<path id="path58992_00000044863608205496651360000010339870133573992103_" style="fill:#FFFFFF;" d="M12.348,54.77
		c0,27.808,28.062,34.166,39.614,35.399c-9.764-7.431-15.061-19.221-15.061-31.838c0-13.455,6.24-23.821,11.389-29.44
		C36.322,22.033,20.243,15.132,0,6.395v32.304c5.284-5.625,13.359-9.345,24.44-13.918l0.888,1.951
		C18.572,30.105,12.348,38.622,12.348,54.77"/>
	<path id="path58994_00000165935659955120064400000017704349420733987235_" style="fill:#FFFFFF;" d="M59.772,36.497
		c-1.19,3.877-1.884,8.52-1.884,14.191c0,8.606,3.185,21.042,13.22,28.455c2.078-4.263,3.302-9.428,3.302-14.97
		C74.41,52.651,69.526,44.207,59.772,36.497"/>
	<path id="path58996_00000086661328460826795540000016007995729703333306_" style="fill:#FFFFFF;" d="M84.778,80.855
		c-1.495,1.009-2.957,1.957-4.396,2.868c3.431,1.04,7.295,1.671,11.747,1.671c6.064,0,14.268-1.782,18.014-2.674l5.349-17.111
		c-6.151,0.279-15.791,0.669-22.09,0.846C92.051,72.261,89.304,77.781,84.778,80.855"/>
	<path id="path58998_00000040553072175946334220000017480402271692738706_" style="fill:#FFFFFF;" d="M112.902,128H128V82.449"/>
	<path id="path59000_00000008842226029304279490000016660351267863530398_" style="fill:#FFFFFF;" d="M127.997,59.748V35.558
		l-10.008,6.597c1.424-3.555,2.676-5.511,2.676-9.066c0-5.333-9.632-14.222-32.104-14.222c-6.064,0-11.965,0.742-16.951,3.138
		C89.36,32.357,94.431,46.492,94.431,57.785c0,0.374-0.037,0.761-0.049,1.141c0.623-0.304,1.187-0.598,1.656-0.874
		c10.877,1.595,16.223,2.303,21.754,2.236C121.156,60.287,124.581,60.048,127.997,59.748"/>
	<path id="path59002_00000126299687633901370240000002197152743841612184_" style="fill:#FFFFFF;" d="M108.894,87.918
		c-7.134,4.248-22.473,10.446-31.746,10.446c-6.536,0-12.345-1.233-17.385-3.398c-12.19,5.226-20.589,6.373-24.298,6.373
		c-6.687,0-24.973-3.895-35.465-16.325V128h95.834"/>
	<path id="path59004_00000183931390366425524250000003689364287118760603_" style="fill:#FFFFFF;" d="M64.985,18.567
		c0.305,0.138,0.573,0.285,0.873,0.426c8.007-2.794,19.016-5.447,31.623-5.447c13.208,0,23.499,2.018,30.519,4.527V0H28.99"/>
	<path id="path59006_00000098942153405009455330000009742391878469750202_" style="fill:#FFFFFF;" d="M16.041,118.238
		c-0.666,0.34-1.982,0.583-3.092,0.583c-3.012,0-4.791-2.153-4.791-5.008c0-2.877,1.819-5.088,4.729-5.088
		c1.011,0,1.982,0.141,3.052,0.745l0.203-2.374c-1.033-0.402-2.266-0.583-3.194-0.583c-4.791,0-7.742,2.693-7.742,7.502
		c0,4.748,3.172,7.017,7.742,7.017c1.07,0,2.183-0.202,3.213-0.442L16.041,118.238L16.041,118.238z M18.369,113.732
		c0,4.303,2.383,7.299,6.912,7.299c4.467,0,6.912-3.055,6.912-7.299s-2.485-7.22-6.912-7.22
		C20.792,106.513,18.369,109.426,18.369,113.732 M21.316,113.732c0-2.475,1.153-5.008,3.965-5.008c2.809,0,3.962,2.533,3.962,5.008
		c0,2.533-1.07,5.088-3.962,5.088S21.316,116.266,21.316,113.732 M35.489,115.723c0,3.76,2.143,5.309,5.762,5.309
		c3.616,0,5.759-1.549,5.759-5.309v-8.968h-2.827v8.106c0,2.392-0.771,3.959-2.932,3.959c-2.164,0-2.935-1.567-2.935-3.959v-8.106
		h-2.827L35.489,115.723L35.489,115.723z M50.852,120.79h2.707v-10.495h0.04l5.402,10.495h3.453v-14.034h-2.707v10.495h-0.04
		l-5.38-10.495h-3.475V120.79z M76.543,118.238c-0.666,0.34-1.979,0.583-3.092,0.583c-3.012,0-4.791-2.153-4.791-5.008
		c0-2.877,1.819-5.088,4.729-5.088c1.011,0,1.982,0.141,3.052,0.745l0.203-2.374c-1.033-0.402-2.266-0.583-3.194-0.583
		c-4.791,0-7.742,2.693-7.742,7.502c0,4.748,3.172,7.017,7.742,7.017c1.07,0,2.183-0.202,3.213-0.442L76.543,118.238L76.543,118.238
		z M79.315,120.79h2.827v-14.034h-2.827V120.79z M85.987,120.79h8.306v-2.208h-5.479v-11.826h-2.827"/>
</g>
</svg>
