<?xml version="1.0" encoding="UTF-8"?>
<svg id="Layer_1" data-name="Layer 1" xmlns="http://www.w3.org/2000/svg" viewBox="0 0 128 128">
  <path d="m63.98,128c35.03,0,64.02-28.99,64.02-63.98S98.96,0,63.93,0,0,28.99,0,64.02s28.99,63.98,63.98,63.98Zm0-9.14c-30.37,0-54.79-24.47-54.79-54.84S33.56,9.19,63.93,9.19s54.89,24.42,54.89,54.84-24.42,54.84-54.84,54.84Z"/>
  <path d="m62.7,77c2.75,0,4.37-1.72,4.37-3.93v-1.08c0-3.69,2.01-5.95,6.58-9.04,6.29-4.18,10.22-7.86,10.22-15.04,0-9.88-8.84-15.53-19.36-15.53s-17.54,5.31-19.06,11.3c-.29.98-.44,1.92-.44,2.95,0,2.46,1.87,3.83,3.73,3.83s3.14-.93,4.08-2.36l.88-1.33c1.72-4.08,5.5-6.98,10.47-6.98,6.29,0,10.27,3.49,10.27,8.55,0,4.32-2.51,6.58-8.25,10.56-4.72,3.29-7.81,6.63-7.81,12.58v1.18c0,2.85,1.57,4.32,4.32,4.32Zm-.1,18.43c3.34,0,6.24-2.7,6.24-6.04s-2.85-6.04-6.24-6.04-6.24,2.7-6.24,6.04,2.85,6.04,6.24,6.04Z"/>
</svg>