<?xml version="1.0" encoding="iso-8859-1"?>
<!-- Generator: Adobe Illustrator 27.8.0, SVG Export Plug-In . SVG Version: 6.00 Build 0)  -->
<svg version="1.1" id="Layer_1" xmlns="http://www.w3.org/2000/svg" xmlns:xlink="http://www.w3.org/1999/xlink" x="0px" y="0px"
	 viewBox="0 0 512 512" style="enable-background:new 0 0 512 512;" xml:space="preserve">
<path d="M347.144,296.344c57.287-32.203,93.814-93.036,93.814-160.831c0-32.59-8.598-64.612-24.903-92.621
	C400.677,16.438,371.894,0,340.96,0H171.87c-30.987,0-59.769,16.462-75.171,42.973c-16.362,28.138-24.955,60.337-24.85,93.084
	c0.181,67.432,36.861,128.084,94.172,160.258c-58.709,0.263-106.392,48.126-106.392,106.888v1.913
	C59.628,464.06,107.597,512,166.511,512h178.977c58.943,0,106.883-47.94,106.883-106.883v-1.913
	C452.372,344.828,405.31,297.222,347.144,296.344z"/>
<path style="fill:#E1E1E1;" d="M347.144,296.344c57.287-32.203,93.814-93.036,93.814-160.831c0-32.59-8.598-64.612-24.903-92.621
	C400.677,16.438,371.894,0,340.96,0H171.87c-30.987,0-59.769,16.462-75.171,42.973c-16.362,28.138-24.955,60.337-24.85,93.084
	c0.181,67.432,36.861,128.084,94.172,160.258c-58.709,0.263-106.392,48.126-106.392,106.888v1.913
	C59.628,464.06,107.597,512,166.511,512h178.977c58.943,0,106.883-47.94,106.883-106.883v-1.913
	C452.372,344.828,405.31,297.222,347.144,296.344z"/>
<path style="fill:#878787;" d="M434.898,405.117c0,49.305-40.11,89.415-89.41,89.415H166.511c-49.3,0-89.41-40.11-89.41-89.415
	v-1.913c0-49.305,40.11-89.415,89.41-89.415h37.018c2.958,0,5.387-2.414,5.411-5.368l0.048-8.751
	c0.014-2.348-1.493-4.418-3.746-5.153c-69.15-22.465-115.735-86.165-115.926-158.512c-0.105-29.603,7.663-58.738,22.469-84.276
	c12.301-21.133,35.324-34.26,60.084-34.26h169.09c24.741,0,47.735,13.108,60.003,34.203c14.749,25.318,22.546,54.31,22.546,83.841
	c0,72.852-46.561,136.782-115.868,159.089c-2.243,0.72-3.751,2.782-3.751,5.129v8.651c0,1.431,0.573,2.825,1.565,3.817
	c1.026,1.026,2.381,1.589,3.817,1.589h36.216c49.3,0,89.41,40.11,89.41,89.415V405.117z"/>
<path style="fill:#1E1E1E;" d="M339.381,332.431c-38.65,0-69.999,31.345-69.999,69.994c0,38.674,31.349,70.023,69.999,70.023
	c38.645,0,69.994-31.349,69.994-70.023C409.375,363.776,378.026,332.431,339.381,332.431z M339.381,433.278
	c-17.035,0-30.834-13.823-30.834-30.853c0-17.011,13.799-30.829,30.834-30.829c17.03,0,30.829,13.818,30.829,30.829
	C370.21,419.455,356.411,433.278,339.381,433.278z"/>
<path style="fill:#1E1E1E;" d="M172.624,332.431c-38.65,0-69.999,31.345-69.999,69.994c0,38.674,31.349,70.023,69.999,70.023
	c38.645,0,69.994-31.349,69.994-70.023C242.618,363.776,211.269,332.431,172.624,332.431z M172.624,433.278
	c-17.035,0-30.834-13.823-30.834-30.853c0-17.011,13.799-30.829,30.834-30.829c17.03,0,30.829,13.818,30.829,30.829
	C203.453,419.455,189.654,433.278,172.624,433.278z"/>
<path style="fill:#1E1E1E;" d="M305.262,184.827c-22.831,0-41.366,18.535-41.366,41.366s18.535,41.341,41.366,41.341
	c22.832,0,41.34-18.51,41.34-41.341S328.093,184.827,305.262,184.827z M305.262,244.416c-10.069,0-18.224-8.18-18.224-18.224
	c0-10.07,8.154-18.224,18.224-18.224c10.044,0,18.198,8.154,18.198,18.224C323.46,236.236,315.305,244.416,305.262,244.416z"/>
<path style="fill:#1E1E1E;" d="M206.739,184.827c-22.831,0-41.34,18.535-41.34,41.366s18.509,41.341,41.34,41.341
	c22.831,0,41.366-18.51,41.366-41.341S229.571,184.827,206.739,184.827z M206.739,244.416c-10.044,0-18.198-8.18-18.198-18.224
	c0-10.07,8.154-18.224,18.198-18.224c10.07,0,18.224,8.154,18.224,18.224C224.963,236.236,216.809,244.416,206.739,244.416z"/>
<path style="fill:#1E1E1E;" d="M155.589,93.06c-24.152,0-43.722,19.57-43.722,43.695c0,24.152,19.57,43.697,43.722,43.697
	c24.126,0,43.695-19.545,43.695-43.697C199.284,112.63,179.714,93.06,155.589,93.06z M155.589,156.016
	c-10.639,0-19.259-8.62-19.259-19.26c0-10.639,8.62-19.259,19.259-19.259c10.613,0,19.233,8.62,19.233,19.259
	C174.822,147.396,166.202,156.016,155.589,156.016z"/>
<path style="fill:#1E1E1E;" d="M256.001,93.06c-24.126,0-43.696,19.57-43.696,43.695c0,24.152,19.57,43.697,43.696,43.697
	s43.696-19.545,43.696-43.697C299.696,112.63,280.126,93.06,256.001,93.06z M256.001,156.016c-10.639,0-19.233-8.62-19.233-19.26
	c0-10.639,8.594-19.259,19.233-19.259s19.259,8.62,19.259,19.259C275.26,147.396,266.64,156.016,256.001,156.016z"/>
<path style="fill:#1E1E1E;" d="M356.412,93.06c-24.126,0-43.696,19.57-43.696,43.695c0,24.152,19.57,43.697,43.696,43.697
	c24.152,0,43.721-19.545,43.721-43.697C400.134,112.63,380.564,93.06,356.412,93.06z M356.412,156.016
	c-10.613,0-19.233-8.62-19.233-19.26c0-10.639,8.62-19.259,19.233-19.259c10.639,0,19.259,8.62,19.259,19.259
	C375.672,147.396,367.052,156.016,356.412,156.016z"/>
<path style="fill:#1E1E1E;" d="M310.206,40.097c-14.004,0-25.368,11.338-25.368,25.342s11.364,25.342,25.368,25.342
	c13.978,0,25.342-11.338,25.342-25.342S324.184,40.097,310.206,40.097z M310.206,76.624c-6.161,0-11.157-5.023-11.157-11.184
	c0-6.161,4.996-11.157,11.157-11.157c6.161,0,11.157,4.996,11.157,11.157C321.363,71.601,316.367,76.624,310.206,76.624z"/>
<path style="fill:#1E1E1E;" d="M201.795,40.097c-13.978,0-25.342,11.338-25.342,25.342s11.364,25.342,25.342,25.342
	c14.004,0,25.368-11.338,25.368-25.342S215.799,40.097,201.795,40.097z M201.795,76.624c-6.161,0-11.157-5.023-11.157-11.184
	c0-6.161,4.996-11.157,11.157-11.157c6.161,0,11.183,4.996,11.183,11.157C212.978,71.601,207.956,76.624,201.795,76.624z"/>
<path style="fill:#1E1E1E;" d="M339.381,332.431c-38.65,0-69.999,31.345-69.999,69.994c0,38.674,31.349,70.023,69.999,70.023
	c38.645,0,69.994-31.349,69.994-70.023C409.375,363.776,378.026,332.431,339.381,332.431z M339.381,433.278
	c-17.035,0-30.834-13.823-30.834-30.853c0-17.011,13.799-30.829,30.834-30.829c17.03,0,30.829,13.818,30.829,30.829
	C370.21,419.455,356.411,433.278,339.381,433.278z"/>
<path style="fill:#1E1E1E;" d="M172.624,332.431c-38.65,0-69.999,31.345-69.999,69.994c0,38.674,31.349,70.023,69.999,70.023
	c38.645,0,69.994-31.349,69.994-70.023C242.618,363.776,211.269,332.431,172.624,332.431z M172.624,433.278
	c-17.035,0-30.834-13.823-30.834-30.853c0-17.011,13.799-30.829,30.834-30.829c17.03,0,30.829,13.818,30.829,30.829
	C203.453,419.455,189.654,433.278,172.624,433.278z"/>
<path style="opacity:0.6;" d="M347.144,296.344c57.287-32.203,93.814-93.036,93.814-160.831c0-32.59-8.598-64.612-24.903-92.621
	C400.677,16.438,371.894,0,340.96,0H171.87c-30.987,0-59.769,16.462-75.171,42.973c-16.362,28.138-24.955,60.337-24.85,93.084
	c0.181,67.432,36.861,128.084,94.172,160.258c-58.709,0.263-106.392,48.126-106.392,106.888v1.913
	C59.628,464.06,107.597,512,166.511,512h178.977c58.943,0,106.883-47.94,106.883-106.883v-1.913
	C452.372,344.828,405.31,297.222,347.144,296.344z"/>
</svg>
