<?xml version="1.0" encoding="iso-8859-1"?>
<!-- Generator: Adobe Illustrator 27.8.0, SVG Export Plug-In . SVG Version: 6.00 Build 0)  -->
<svg version="1.1" id="Layer_1" xmlns="http://www.w3.org/2000/svg" xmlns:xlink="http://www.w3.org/1999/xlink" x="0px" y="0px"
	 viewBox="0 0 128 128" style="enable-background:new 0 0 128 128;" xml:space="preserve">
<path style="fill:#253650;" d="M70.155,67.489c0-0.189-1.125-0.611-2.537-0.941c-3.894-0.844-3.851-0.752-2.207-5.117
	c0.844-2.115,1.455-3.943,1.363-3.992c-0.092-0.092-2.207,2.017-4.743,4.695c-2.488,2.677-4.413,4.976-4.224,5.068
	c0.233,0.141,1.596,0.471,3.099,0.844c1.504,0.33,2.818,0.752,2.958,0.941c0.092,0.189-0.422,1.974-1.222,3.943
	c-0.752,1.925-1.406,3.71-1.406,3.894c0.049,0.422,8.919-8.919,8.919-9.341L70.155,67.489z M97.804,69.133
	c2.677-2.207,2.721-6.712,0.092-8.118c-1.266-0.703-8.448,0.844-11.688,2.488c-2.537,1.266-3.142,2.439-2.396,4.457
	c0.8,2.115,1.596,2.396,7.275,2.396c4.976,0,5.349-0.049,6.712-1.222H97.804z M62.924,28.979c2.996-0.022,6.128,0.13,10.341,0.384
	c10.514,0.703,12.71,1.093,15.009,2.547c2.299,1.406,4.7,5.982,6.761,10.514c0.833,1.834,1.385,2.834,1.671,3.548
	c0.492-0.379,0.703-0.503,1.422-0.919c1.001-0.579,1.617-0.909,2.693-0.941c2.088-0.065,4.219,0.416,5.382,1.168
	c2.353,1.525,2.017,4.192-1.504,5.922l-2.066,0.984l1.785,2.255c3.851,4.835,3.288,10.687,1.925,20.234
	c-0.617,4.321-0.99,6.095-1.709,8.967c0.146,4.857-0.535,7.123-3.591,7.123h-6.761c-3.975,0-5.187-0.011-6.452-0.806
	c-1.406-0.844-1.298-3.829-1.298-5.987c-0.941,0-2.304,0-23.614,0l0,0c-21.31,0-22.673,0-23.614,0c0,2.158,0.108,5.144-1.298,5.987
	c-1.266,0.8-2.477,0.806-6.452,0.806h-6.761c-3.05,0-3.732-2.266-3.591-7.123c-0.719-2.867-1.087-4.641-1.709-8.967
	c-1.368-9.541-1.925-15.398,1.925-20.234l1.785-2.255l-2.066-0.984c-3.521-1.731-3.856-4.397-1.504-5.922
	c1.157-0.752,3.294-1.233,5.382-1.168c1.082,0.032,1.693,0.362,2.693,0.941c0.725,0.416,0.93,0.541,1.422,0.919
	c0.292-0.719,0.844-1.72,1.671-3.548c2.061-4.532,4.457-9.108,6.761-10.514c2.299-1.455,4.495-1.844,15.009-2.547
	c4.213-0.254,7.345-0.411,10.341-0.384l0,0L62.924,28.979z M34.756,70.355c5.679,0,6.479-0.281,7.275-2.396
	c0.752-2.017,0.141-3.191-2.396-4.457c-3.24-1.644-10.422-3.191-11.688-2.488c-2.629,1.406-2.58,5.917,0.092,8.118
	c1.363,1.174,1.736,1.222,6.712,1.222H34.756z M62.875,33.225c-9.622,0-14.646,0.281-21.169,1.266
	c-3.24,0.471-6.717,7.226-8.107,10.541s-1.882,5.019-1.882,5.019l7.734-0.07c5.63-0.227,14.479-0.346,23.473-0.341l0,0
	c9,0,17.843,0.114,23.473,0.341l7.734,0.07c0,0-0.492-1.693-1.882-5.019c-1.39-3.326-4.868-10.071-8.107-10.541
	c-6.523-0.984-11.547-1.266-21.169-1.266H62.87H62.875z"/>
<path style="fill:#969595;" d="M32.603,111.893c0-0.092-0.611-0.281-1.406-0.471c-1.504-0.33-1.687-0.844-0.892-2.91
	c0.422-1.174,0.281-1.125-1.644,0.8c-1.174,1.125-2.158,2.207-2.158,2.396c0,0.141,0.66,0.422,1.406,0.611
	c1.406,0.233,1.455,0.33,1.174,2.017l-0.33,1.785l1.925-2.017c1.082-1.125,1.925-2.115,1.925-2.207l0,0V111.893z M39.607,114.614
	c7.453,3.662,15.528,5.479,24.398,5.479c30.986,0,56.098-25.118,56.098-56.098S94.986,7.897,64.005,7.897S10.26,30.905,8.053,59.873
	h10.833c-0.508,2.364-0.503,5.046-0.211,8.221H4.111c-2.261,0-4.105-1.85-4.111-4.105C0.005,28.649,28.66,0,64,0s64,28.655,64,64
	s-28.655,64-64,64c-10.357,0-20.142-2.461-28.801-6.831c-1.947,0.692-7.188,2.466-8.178,2.607c-1.736,0.189-1.877,0.141-5.679-4.224
	c-3.099-3.472-3.662-4.392-3.391-5.127c0.2-0.541,0.487-0.952,0.654-1.147l-4.722-4.516c-1.206-1.206-1.206-3.175,0-4.381l0,0
	c1.206-1.206,3.175-1.206,4.381,0l5.008,5.008c0.416-0.325,3.916-3.716,3.916-3.716l-4.397-4.397c-1.206-1.206-1.206-3.175,0-4.381
	l0,0c1.206-1.206,3.175-1.206,4.381,0l4.516,4.516c0.243-0.141,0.319-0.211,0.59-0.4c0.795-0.552,1.504-0.514,5.306,3.521
	c2.299,2.439,3.894,4.484,3.802,5.398c-0.038,0.373-0.373,1.596-0.892,2.721l-0.892,1.974l0,0L39.607,114.614z"/>
<path style="opacity:0.6;fill:#FFFFFF;" d="M70.155,67.489c0-0.189-1.125-0.611-2.537-0.941c-3.894-0.844-3.851-0.752-2.207-5.117
	c0.844-2.115,1.455-3.943,1.363-3.992c-0.092-0.092-2.207,2.017-4.743,4.695c-2.488,2.677-4.413,4.976-4.224,5.068
	c0.233,0.141,1.596,0.471,3.099,0.844c1.504,0.33,2.818,0.752,2.958,0.941c0.092,0.189-0.422,1.974-1.222,3.943
	c-0.752,1.925-1.406,3.71-1.406,3.894c0.049,0.422,8.919-8.919,8.919-9.341L70.155,67.489z M97.804,69.133
	c2.677-2.207,2.721-6.712,0.092-8.118c-1.266-0.703-8.448,0.844-11.688,2.488c-2.537,1.266-3.142,2.439-2.396,4.457
	c0.8,2.115,1.596,2.396,7.275,2.396c4.976,0,5.349-0.049,6.712-1.222H97.804z M62.924,28.979c2.996-0.022,6.128,0.13,10.341,0.384
	c10.514,0.703,12.71,1.093,15.009,2.547c2.299,1.406,4.7,5.982,6.761,10.514c0.833,1.834,1.385,2.834,1.671,3.548
	c0.492-0.379,0.703-0.503,1.422-0.919c1.001-0.579,1.617-0.909,2.693-0.941c2.088-0.065,4.219,0.416,5.382,1.168
	c2.353,1.525,2.017,4.192-1.504,5.922l-2.066,0.984l1.785,2.255c3.851,4.835,3.288,10.687,1.925,20.234
	c-0.617,4.321-0.99,6.095-1.709,8.967c0.146,4.857-0.535,7.123-3.591,7.123h-6.761c-3.975,0-5.187-0.011-6.452-0.806
	c-1.406-0.844-1.298-3.829-1.298-5.987c-0.941,0-2.304,0-23.614,0l0,0c-21.31,0-22.673,0-23.614,0c0,2.158,0.108,5.144-1.298,5.987
	c-1.266,0.8-2.477,0.806-6.452,0.806h-6.761c-3.05,0-3.732-2.266-3.591-7.123c-0.719-2.867-1.087-4.641-1.709-8.967
	c-1.368-9.541-1.925-15.398,1.925-20.234l1.785-2.255l-2.066-0.984c-3.521-1.731-3.856-4.397-1.504-5.922
	c1.157-0.752,3.294-1.233,5.382-1.168c1.082,0.032,1.693,0.362,2.693,0.941c0.725,0.416,0.93,0.541,1.422,0.919
	c0.292-0.719,0.844-1.72,1.671-3.548c2.061-4.532,4.457-9.108,6.761-10.514c2.299-1.455,4.495-1.844,15.009-2.547
	c4.213-0.254,7.345-0.411,10.341-0.384l0,0L62.924,28.979z M34.756,70.355c5.679,0,6.479-0.281,7.275-2.396
	c0.752-2.017,0.141-3.191-2.396-4.457c-3.24-1.644-10.422-3.191-11.688-2.488c-2.629,1.406-2.58,5.917,0.092,8.118
	c1.363,1.174,1.736,1.222,6.712,1.222H34.756z M62.875,33.225c-9.622,0-14.646,0.281-21.169,1.266
	c-3.24,0.471-6.717,7.226-8.107,10.541s-1.882,5.019-1.882,5.019l7.734-0.07c5.63-0.227,14.479-0.346,23.473-0.341l0,0
	c9,0,17.843,0.114,23.473,0.341l7.734,0.07c0,0-0.492-1.693-1.882-5.019c-1.39-3.326-4.868-10.071-8.107-10.541
	c-6.523-0.984-11.547-1.266-21.169-1.266H62.87H62.875z"/>
<path style="opacity:0.6;fill:#FFFFFF;" d="M32.603,111.893c0-0.092-0.611-0.281-1.406-0.471c-1.504-0.33-1.687-0.844-0.892-2.91
	c0.422-1.174,0.281-1.125-1.644,0.8c-1.174,1.125-2.158,2.207-2.158,2.396c0,0.141,0.66,0.422,1.406,0.611
	c1.406,0.233,1.455,0.33,1.174,2.017l-0.33,1.785l1.925-2.017c1.082-1.125,1.925-2.115,1.925-2.207l0,0V111.893z M39.607,114.614
	c7.453,3.662,15.528,5.479,24.398,5.479c30.986,0,56.098-25.118,56.098-56.098S94.986,7.897,64.005,7.897S10.26,30.905,8.053,59.873
	h10.833c-0.508,2.364-0.503,5.046-0.211,8.221H4.111c-2.261,0-4.105-1.85-4.111-4.105C0.005,28.649,28.66,0,64,0s64,28.655,64,64
	s-28.655,64-64,64c-10.357,0-20.142-2.461-28.801-6.831c-1.947,0.692-7.188,2.466-8.178,2.607c-1.736,0.189-1.877,0.141-5.679-4.224
	c-3.099-3.472-3.662-4.392-3.391-5.127c0.2-0.541,0.487-0.952,0.654-1.147l-4.722-4.516c-1.206-1.206-1.206-3.175,0-4.381l0,0
	c1.206-1.206,3.175-1.206,4.381,0l5.008,5.008c0.416-0.325,3.916-3.716,3.916-3.716l-4.397-4.397c-1.206-1.206-1.206-3.175,0-4.381
	l0,0c1.206-1.206,3.175-1.206,4.381,0l4.516,4.516c0.243-0.141,0.319-0.211,0.59-0.4c0.795-0.552,1.504-0.514,5.306,3.521
	c2.299,2.439,3.894,4.484,3.802,5.398c-0.038,0.373-0.373,1.596-0.892,2.721l-0.892,1.974l0,0L39.607,114.614z"/>
</svg>
