<?xml version="1.0" encoding="iso-8859-1"?>
<!-- Generator: Adobe Illustrator 27.8.0, SVG Export Plug-In . SVG Version: 6.00 Build 0)  -->
<svg version="1.1" id="Layer_1" xmlns="http://www.w3.org/2000/svg" xmlns:xlink="http://www.w3.org/1999/xlink" x="0px" y="0px"
	 viewBox="0 0 128 128" style="enable-background:new 0 0 128 128;" xml:space="preserve">
<g>
	<linearGradient id="SVGID_1_" gradientUnits="userSpaceOnUse" x1="91.4668" y1="2.2199" x2="28.671" y2="132.5132">
		<stop  offset="0" style="stop-color:#DADD13"/>
		<stop  offset="1" style="stop-color:#077730"/>
	</linearGradient>
	<path style="fill:url(#SVGID_1_);" d="M82.977,34.196l-2.571,2.823l-4.067-2.058l2.554-2.832l-9.361-4.737L41.208,59.924
		l12.553,6.352c0,0-14.335,15.74-14.917,16.379c-4.733-3.233-17.079-13.91-17.079-24.027c0-12.161,9.93-20.267,25.313-26.13
		C60.356,27.437,83.782,14.06,83.761,0c5.982,6.381,24.175,36.765,22.708,57.135C104.7,81.703,89.43,83.597,66.315,89.909
		C46.259,95.386,29.771,105.521,23.339,128c-0.545-0.135-1.509-0.389-1.892-0.485c4.477-44.086,49.301-50.599,66.918-61.722
		l-14.303-7.238l20.563-18.463L82.977,34.196L82.977,34.196z M68.678,43.457l4.015,2.032l5.142-5.646l-4.056-2.053L68.678,43.457z
		 M53.356,60.449l3.91,1.979L67.55,51.135l-3.98-2.014L53.356,60.449z"/>
</g>
<g style="opacity:0.6;">
	<path style="fill:#FFFFFF;" d="M82.977,34.196l-2.571,2.823l-4.067-2.058l2.554-2.832l-9.361-4.737L41.208,59.924l12.553,6.352
		c0,0-14.335,15.74-14.917,16.379c-4.733-3.233-17.079-13.91-17.079-24.027c0-12.161,9.93-20.267,25.313-26.13
		C60.356,27.437,83.782,14.06,83.761,0c5.982,6.381,24.175,36.765,22.708,57.135C104.7,81.703,89.43,83.597,66.315,89.909
		C46.259,95.386,29.771,105.521,23.339,128c-0.545-0.135-1.509-0.389-1.892-0.485c4.477-44.086,49.301-50.599,66.918-61.722
		l-14.303-7.238l20.563-18.463L82.977,34.196L82.977,34.196z M68.678,43.457l4.015,2.032l5.142-5.646l-4.056-2.053L68.678,43.457z
		 M53.356,60.449l3.91,1.979L67.55,51.135l-3.98-2.014L53.356,60.449z"/>
</g>
</svg>
