<?xml version="1.0" encoding="iso-8859-1"?>
<!-- Generator: Adobe Illustrator 27.8.0, SVG Export Plug-In . SVG Version: 6.00 Build 0)  -->
<svg version="1.1" id="Layer_1" xmlns="http://www.w3.org/2000/svg" xmlns:xlink="http://www.w3.org/1999/xlink" x="0px" y="0px"
	 viewBox="0 0 128 128" style="enable-background:new 0 0 128 128;" xml:space="preserve">
<g>
	<path style="fill:#FF2EAD;" d="M76.084,89.286c-0.406,0.029-0.805,0.037-1.088,0.001c-3.627-0.351-6.266-1.666-7.836-2.8
		c6.053,9.579,12.759,16.564,12.799,16.605c1.028,1.051,2.112,2.119,3.31,3.264c0.111,0.106,0.497,0.276,1.259,0.323
		C82.103,103.201,78.362,94.958,76.084,89.286z"/>
	<path style="fill:#FF2EAD;" d="M81.424,87.591c-0.729,0.538-1.96,1.088-4.025,1.524c-0.194,0.041-0.459,0.082-0.746,0.116
		c4.181,8.714,6.179,12.108,9.977,17.303c0.574-0.089,1.136-0.211,1.679-0.387C85.027,98.715,82.94,92.694,81.424,87.591z"/>
	<path style="fill:#00285C;" d="M38.575,37.176c-0.14-1.012-1.071-1.721-2.084-1.589c-1.017,0.135-1.732,1.068-1.598,2.085
		c0.135,1.017,1.068,1.732,2.085,1.598c1.017-0.135,1.732-1.068,1.598-2.085C38.576,37.182,38.576,37.179,38.575,37.176z"/>
	<path style="fill:#BEC0C5;" d="M76.197,36.03c0.96-0.55,14.826-8.468,20.97-10.507c-0.002-0.007,0.13-0.045,0.221-0.073
		c0.024-0.008,0.047-0.016,0.07-0.024c-0.32-1.079-0.7-1.934-1.266-2.902c-11.631,3.033-29.424,12.944-38.451,21.513
		c-0.041,0.039-0.094,0.079-0.141,0.116c0.778,0.533,1.579,1.065,2.731,1.739c0.169,0.099,0.342,0.199,0.519,0.3
		C66.116,42.225,69.924,39.843,76.197,36.03z"/>
	<path style="fill:#69FDFF;" d="M35.376,44.896c0.074,0.052,0.15,0.103,0.23,0.154c0.043,0.028,0.088,0.055,0.132,0.083
		c0.078,0.048,0.158,0.097,0.241,0.145c0.047,0.027,0.094,0.055,0.143,0.082c0.089,0.05,0.18,0.1,0.273,0.15
		c0.045,0.024,0.09,0.048,0.136,0.073c0.113,0.059,0.229,0.118,0.347,0.177c0.029,0.014,0.056,0.029,0.085,0.043
		c3.307,1.625,8.708,3.277,12.15,6.331c0.007,0.006,0.014,0.012,0.021,0.018c0.129,0.115,0.254,0.232,0.377,0.35
		c0.021,0.02,0.042,0.041,0.063,0.061c0.117,0.115,0.232,0.231,0.343,0.35c0.008,0.009,0.017,0.017,0.025,0.025l-0.001,0.001
		c0.462,0.495,0.872,1.025,1.216,1.594l2.53-1.977c-0.163-0.216-0.179-0.544,0.078-0.792c0.046-0.045,0.025-0.029,0.046-0.045
		c0.018-0.015,0.035-0.029,0.054-0.043l0,0c0.264-0.213,0.524-0.423,0.78-0.629c0.11-0.093,0.218-0.181,0.327-0.271
		c0.473-0.393,0.939-0.765,1.395-1.12c0.263-0.205,0.524-0.407,0.781-0.602c0.552-0.435,1.08-0.846,1.597-1.247
		c0.193-0.15,0.389-0.303,0.578-0.448c0.002-0.002,0.004-0.003,0.006-0.005c-2.51-1.476-4.132-2.685-4.827-3.233
		c-0.036-0.025-0.076-0.046-0.111-0.073c-0.916-0.724-1.779-1.543-1.914-2.635c-0.399-2.885-1.818-5.539-3.995-7.475
		c-1.957-1.731-4.477-2.686-7.093-2.686c-0.499,0-1.003,0.035-1.498,0.105c-3.718,0.493-5.608,2.293-7.124,3.744
		c-0.149,0.15-0.306,0.292-0.462,0.436l0.022-0.008c0,0-0.009,0.007-0.025,0.021c-0.065,0.056-0.25,0.22-0.486,0.465
		c-0.004,0.005-0.009,0.01-0.014,0.015c-0.475,0.494-1.148,1.307-1.481,2.232c-0.003,0.01-0.006,0.019-0.009,0.029
		c-0.12,0.341-0.194,0.696-0.193,1.056c0,0,0,0.001,0,0.001c0.002,0.091,0.009,0.183,0.021,0.274
		c0.003,0.022,0.008,0.044,0.011,0.066c0.01,0.061,0.022,0.122,0.036,0.182c0.002,0.009,0.003,0.018,0.005,0.027
		c0.007,0.03,0.017,0.059,0.026,0.089c0.018,0.062,0.038,0.124,0.062,0.186c0.013,0.034,0.027,0.067,0.042,0.1
		c0.022,0.051,0.047,0.101,0.073,0.152c0.004,0.007,0.007,0.015,0.011,0.022c0.019,0.035,0.038,0.07,0.059,0.106
		c0.018,0.03,0.038,0.06,0.057,0.09c0.017,0.026,0.033,0.052,0.05,0.079c0.024,0.035,0.048,0.07,0.074,0.105
		c0.042,0.056,0.089,0.112,0.138,0.167c0.029,0.034,0.057,0.067,0.088,0.101c0.056,0.06,0.118,0.118,0.181,0.177
		c0.03,0.028,0.058,0.057,0.09,0.085c0.099,0.086,0.204,0.171,0.319,0.255c0.11,0.08,0.198,0.149,0.275,0.212
		c0.772,0.491,1.286,0.928,1.697,1.312c0.516,0.481,1.032,0.967,1.534,1.454c0.001,0.001,0.002,0.002,0.004,0.003
		c0.093,0.077,0.193,0.153,0.298,0.229C35.304,44.847,35.341,44.871,35.376,44.896z M34.894,37.673
		c-0.135-1.017,0.581-1.95,1.598-2.085c1.013-0.133,1.943,0.577,2.084,1.589c0,0.003,0.001,0.006,0.001,0.009
		c0.135,1.017-0.581,1.95-1.598,2.085C35.962,39.405,35.029,38.69,34.894,37.673z"/>
	<path style="fill:#08FF51;" d="M99.975,26.406C85.745,32.08,72.128,40.039,59.572,48.85c0,0-1.103,0.73-4.976,3.75
		c-0.375,0.293-0.73,0.189-0.908-0.049l-2.532,1.979c0.08,0.133,0.159,0.266,0.232,0.403c0.082,0.151,0.161,0.304,0.233,0.461
		c2.369,5.2,1.578,7.198,2.008,14.205c0.22,3.59,0.768,5.961,1.265,7.751l0.003,0.003c1.238,1.39,2.279,2.254,3.37,3.149
		c0.641,0.497,1.857,1.49,2.555,1.973c0.204,0.141,0.458,0.3,0.773,0.456c-5.63-10.611-3.905-21.404-0.77-25.753
		c1.705-2.361,4.01-4.525,6.5-6.454c0,0,0,0,0,0c0,0,0,0,0,0c0.083-0.12,0.172-0.235,0.266-0.345c0,0,0,0,0,0
		c0.007-0.009,0.015-0.017,0.022-0.025c0.089-0.103,0.181-0.203,0.278-0.298l0,0c0.028-0.028,0.057-0.054,0.086-0.081c0,0,0,0,0,0
		c0.081-0.076,0.161-0.153,0.246-0.224c0.12-0.103,0.244-0.201,0.371-0.295c0.533-0.361,1.072-0.712,1.613-1.06
		c0.163-0.105,0.327-0.208,0.491-0.312c0.399-0.253,0.799-0.503,1.201-0.751c0.16-0.098,0.319-0.198,0.479-0.295
		c0.532-0.325,1.066-0.648,1.601-0.968c0.606-0.363,1.214-0.723,1.822-1.083c1.218-0.717,2.443-1.422,3.675-2.116
		c1.231-0.694,2.469-1.377,3.712-2.05c1.242-0.676,2.491-1.339,3.748-1.989c1.256-0.65,2.52-1.286,3.79-1.911
		c0.634-0.315,1.27-0.624,1.91-0.928c0.86-0.408,1.725-0.804,2.594-1.195c0.216-0.097,0.433-0.194,0.649-0.29
		c0.856-0.38,1.714-0.756,2.576-1.123c0.557-0.237,1.12-0.463,1.684-0.686c0.017-0.06,0.035-0.118,0.052-0.177
		c0.046-0.158,0.091-0.317,0.138-0.471c0.028-0.092,0.057-0.181,0.085-0.271c0.037-0.118,0.074-0.238,0.111-0.354
		c0.03-0.093,0.061-0.182,0.091-0.273c0.037-0.111,0.074-0.223,0.111-0.331c0.031-0.089,0.062-0.175,0.093-0.263
		c0.038-0.106,0.075-0.213,0.113-0.317c0.033-0.089,0.066-0.175,0.099-0.262c0.037-0.098,0.074-0.198,0.111-0.294
		c0.034-0.088,0.069-0.173,0.103-0.26c0.036-0.091,0.072-0.183,0.108-0.272c0.036-0.088,0.071-0.172,0.107-0.257
		c0.035-0.084,0.07-0.169,0.105-0.251c0.038-0.089,0.076-0.174,0.114-0.261c0.032-0.074,0.065-0.149,0.097-0.221
		c0.042-0.093,0.083-0.182,0.125-0.272c0.028-0.062,0.057-0.125,0.085-0.186c0.044-0.095,0.088-0.186,0.132-0.277
		c0.025-0.052,0.051-0.106,0.076-0.158c0.046-0.094,0.091-0.184,0.137-0.274c0.023-0.045,0.046-0.092,0.068-0.137
		c0.048-0.095,0.096-0.186,0.143-0.277c0.019-0.036,0.038-0.073,0.056-0.108c0.051-0.097,0.102-0.19,0.152-0.282
		c0.014-0.026,0.028-0.052,0.042-0.078c0.053-0.097,0.105-0.189,0.156-0.28c0.01-0.018,0.021-0.038,0.031-0.056
		c0.055-0.096,0.108-0.189,0.161-0.279c0.006-0.01,0.012-0.021,0.018-0.031c0.056-0.096,0.111-0.187,0.164-0.275
		c0.002-0.003,0.003-0.006,0.005-0.008C102.243,25.564,101.126,25.969,99.975,26.406L99.975,26.406z"/>
	<path style="fill:#0F18FF;" d="M39.237,49.458c0.974,1.914,1.808,4.196,2.691,6.612l0.096,0.262c1.004,2.73,2.042,5.552,3.38,8.059
		c1.52,2.85,4.127,6.709,7.264,10.639l2.226,2.322c-0.497-1.79-1.044-4.161-1.265-7.751c-0.43-7.007,0.361-9.005-2.008-14.205
		c-2.866-6.292-13.483-8.169-16.649-10.803l3.387,3.488C38.712,48.553,39.011,49.014,39.237,49.458z"/>
	<path style="fill:#BEC0C5;" d="M123.088,28.577c0.184-0.21,0.361-0.418,0.532-0.622c0.115-0.138,0.223-0.272,0.332-0.406
		c0.053-0.065,0.109-0.132,0.161-0.197c0.139-0.174,0.271-0.345,0.4-0.515c0.017-0.023,0.036-0.046,0.054-0.069
		c0.724-0.959,1.286-1.842,1.685-2.648l0,0c-0.005-0.005-0.01-0.011-0.015-0.016c-1.491-1.475-2.785-2.745-5.777-2.745
		c-0.098,0-0.198,0.001-0.3,0.004c-4.003,0.123-9.19,1.249-15.457,3.351c-0.695,1.006-2.315,3.61-3.533,7.589
		c1.746-0.665,3.511-1.283,5.274-1.873c2.692-0.892,5.404-1.738,8.217-2.352c0.311-0.064,0.624-0.125,0.938-0.183
		c0.094-0.017,0.188-0.033,0.282-0.049c0.239-0.042,0.48-0.08,0.722-0.115c0.1-0.014,0.199-0.029,0.299-0.042
		c0.331-0.043,0.663-0.081,1-0.105c0.37-0.027,0.745-0.041,1.125-0.039c0.755-0.004,1.543,0.091,2.307,0.308
		c0.156,0.043,0.309,0.092,0.46,0.145c0.303,0.107,0.596,0.233,0.878,0.369C122.814,28.434,122.952,28.504,123.088,28.577z"/>
	<path style="fill:#00285C;" d="M127.502,22.88l-0.019-0.021c-1.55-1.533-3.298-3.277-7.025-3.277c-0.114,0-0.23,0.002-0.348,0.005
		c-6.081,0.186-13.849,2.538-20.747,5.155c-0.266-1.395-0.886-2.699-1.8-3.786c-0.326-0.389-0.803-0.604-1.296-0.604
		c-0.142,0-0.285,0.018-0.426,0.054c-11.92,3.103-30.433,13.538-39.556,22.198c-0.122,0.114-0.278,0.172-0.435,0.172
		c-0.114,0-0.226-0.039-0.328-0.101c-0.183-0.145-0.284-0.23-0.288-0.233c-0.035-0.03-0.074-0.054-0.112-0.078
		c-0.569-0.486-0.896-0.884-0.934-1.222c-0.453-3.301-2.07-6.332-4.561-8.546c-2.288-2.024-5.225-3.122-8.24-3.122
		c-0.578,0-1.16,0.04-1.74,0.122c-4.277,0.567-6.483,2.682-8.093,4.222c-0.384,0.389-0.794,0.751-1.227,1.085
		c-0.823,0.59-2.13,1.246-3.503,1.269c-8.25,0.182-16.696,0.704-26.164,6.329c-0.402,0.224-0.634,0.632-0.656,1.061
		c-0.022,0.248,0.027,0.504,0.157,0.738c0.001,0.002,0.002,0.004,0.004,0.007c0.245,0.42,0.689,0.659,1.148,0.659
		c0.191,0,0.385-0.041,0.567-0.128c7.164-2.998,13.37-3.956,18.154-3.956c4.474,0,7.702,0.838,9.303,1.629
		c1.716,0.846,2.466,1.515,2.917,1.935c1.555,1.449,4.046,3.206,4.99,4.935c1.013,1.853,1.984,3.909,2.849,6.276
		c1.058,2.875,2.136,5.847,3.575,8.542c2.474,4.638,4.462,9.264,11.622,15.893c0.468,0.433,1.396,1.209,1.396,1.209
		c0.025,0.022,0.049,0.044,0.075,0.066c0.786,0.69,2.926,2.297,3.458,2.645c0.323,0.212,0.637,0.774,0.753,0.994
		c3.198,5.978,8.598,14.433,12.199,18.149c0.836,0.867,2.284,1.168,3.603,1.168c0.39,0,0.77-0.026,1.118-0.072
		c0.157-0.021,0.309-0.047,0.453-0.074c0.025-0.005,0.051-0.007,0.076-0.007c0.113,0,0.222,0.045,0.303,0.127
		c1.058,1.081,2.17,2.177,3.353,3.306c0.64,0.609,1.723,0.814,2.859,0.814c0.52,0,1.051-0.043,1.556-0.109
		c0.889-0.107,1.763-0.31,2.608-0.605l0.362-0.148c0.617-0.251,0.913-0.955,0.662-1.572c-0.005-0.011-0.009-0.023-0.014-0.034
		l-0.157-0.357c-5.523-12.48-7.655-20.971-9.369-27.789c-0.192-0.757-0.379-1.5-0.565-2.227c-0.92-3.596-1.817-6.634-3.019-9.434
		c-0.02-0.046-0.028-0.095-0.032-0.143c0.005-0.152,0.084-0.298,0.225-0.377c0.649-0.372,1.286-0.781,1.904-1.206
		c0.499-0.343,1.388-0.931,2.513-1.675c4.91-3.249,15.122-10.007,24.705-17.229c12.173-9.166,19.211-15.918,21.517-20.641
		c0.122-0.25,0.176-0.52,0.169-0.786C128.001,23.643,127.83,23.207,127.502,22.88z M97.168,25.523
		c-6.144,2.039-20.01,9.956-20.97,10.507c-6.274,3.813-10.081,6.196-15.347,10.161c-1.44-0.821-2.361-1.429-3.25-2.039
		c0.048-0.037,0.1-0.077,0.141-0.116c9.027-8.568,26.82-18.48,38.451-21.513c0.566,0.968,0.946,1.824,1.266,2.903
		C97.4,25.45,97.166,25.513,97.168,25.523z M123.088,28.577c-0.135-0.072-0.274-0.143-0.415-0.211
		c-0.282-0.136-0.576-0.262-0.878-0.369c-0.151-0.053-0.305-0.102-0.46-0.145c-0.764-0.217-1.552-0.312-2.307-0.308
		c-0.38-0.002-0.754,0.012-1.125,0.039c-1.111,0.08-2.185,0.276-3.243,0.495c-2.813,0.614-5.526,1.46-8.217,2.352
		c-1.763,0.59-3.528,1.207-5.274,1.873c1.218-3.978,2.838-6.582,3.533-7.589c6.266-2.102,11.454-3.229,15.457-3.351
		c0.101-0.003,0.201-0.004,0.3-0.004c2.993,0,4.287,1.27,5.777,2.745c0.005,0.005,0.01,0.011,0.015,0.016
		C125.612,25.409,124.555,26.897,123.088,28.577z M76.774,102.597c-1.075,0-1.98-0.245-2.363-0.643
		c-3.315-3.422-8.064-11.096-11.203-16.777c0.685,0.128,1.11,0.185,1.857,0.247c4.81,8.027,9.876,14.408,12.164,17.158
		C77.079,102.592,76.927,102.597,76.774,102.597z M80.676,84.99l0.444,1.563c1.54,5.321,3.682,11.652,7.19,19.595
		c-0.543,0.176-1.106,0.298-1.679,0.387c-3.912-5.351-5.913-8.789-10.357-18.097l-0.451-0.947c-0.453-0.953-0.928-1.96-1.435-3.038
		c-0.027-0.057-0.094-0.043-0.072,0.028c0.218,0.728,0.6,1.801,1.096,3.092l0.36,0.924c2.235,5.669,6.218,14.54,8.758,18.181
		c-0.762-0.047-1.148-0.217-1.259-0.323c-1.199-1.145-2.282-2.213-3.31-3.264c-0.041-0.042-7.011-7.299-13.153-17.167
		c0,0-1.408-2.199-1.515-2.406c-0.668-1.288-2.701-4.966-3.866-9.465c-0.04-0.156-0.275-0.152-0.251,0.085
		c0.394,3.884,1.647,6.524,2.546,8.554c0.141,0.319,0.291,0.645,0.445,0.971c-1.788-0.228-2.756-0.78-3.343-1.186
		c-0.698-0.483-1.914-1.476-2.555-1.973c-1.091-0.896-2.132-1.76-3.37-3.149l-2.229-2.325c-3.137-3.93-5.744-7.789-7.264-10.639
		c-1.338-2.507-2.376-5.329-3.38-8.059l-0.096-0.262c-0.883-2.416-1.717-4.698-2.691-6.612c-0.226-0.444-0.525-0.905-0.878-1.377
		l-3.387-3.488c-0.001-0.001-0.002-0.002-0.004-0.003c-0.502-0.487-1.019-0.974-1.534-1.454c-0.411-0.384-0.925-0.821-1.697-1.312
		c-0.077-0.063-0.164-0.132-0.275-0.212c-0.969-0.705-1.328-1.494-1.344-2.266c-0.004-1.974,2.208-3.819,2.208-3.819l-0.022,0.008
		c0.156-0.143,0.313-0.286,0.462-0.436c1.516-1.451,3.406-3.251,7.124-3.744c0.495-0.07,0.999-0.105,1.498-0.105
		c2.616,0,5.136,0.955,7.093,2.686c2.177,1.935,3.596,4.589,3.995,7.475c0.135,1.091,0.997,1.91,1.914,2.635
		c0.035,0.028,0.075,0.048,0.111,0.073c0.695,0.548,2.317,1.757,4.827,3.233c-0.696,0.535-1.421,1.101-2.181,1.7
		c-0.804,0.611-1.641,1.265-2.503,1.993c-0.273,0.22-0.55,0.443-0.833,0.672c-0.021,0.017,0,0-0.046,0.045
		c-0.54,0.521,0.116,1.397,0.832,0.839c3.873-3.021,4.976-3.75,4.976-3.75c12.557-8.811,26.173-16.77,40.403-22.444
		c1.151-0.437,2.268-0.842,3.357-1.222c-0.899,1.481-2.202,4.016-3.191,7.515h0c-0.564,0.223-1.126,0.449-1.684,0.686
		c-1.958,0.833-3.901,1.697-5.819,2.608c-0.639,0.304-1.276,0.613-1.91,0.928c-1.27,0.624-2.534,1.261-3.79,1.911
		c-1.256,0.65-2.506,1.312-3.748,1.989c-1.243,0.673-2.481,1.356-3.712,2.05c-1.231,0.694-2.456,1.399-3.675,2.116
		c-0.608,0.36-1.216,0.72-1.822,1.083c-1.82,1.088-3.626,2.196-5.386,3.387c-0.577,0.425-1.109,0.935-1.464,1.562
		c-0.359,0.621-0.605,1.298-0.753,1.993c-0.217,1.024-0.191,1.617-0.112,2.987c0.001,0.037,0.002,0.069,0.003,0.107
		c0.001,0.031,0.012,0.054,0.017,0.083c0.005,0.03,0.01,0.06,0.017,0.086c0.007,0.019,0.014,0.038,0.023,0.055
		c0.02,0.045,0.044,0.081,0.071,0.107c0.007,0.007,0.013,0.014,0.02,0.021c0.005,0.004,0.01,0.008,0.016,0.011
		c0.242,0.21,0.669,0.145,0.669-0.098c0.031-0.432-0.024-1.579,0.421-2.992c0.211-0.669,0.42-1.285,0.783-1.877
		c0.361-0.601,0.794-0.899,1.36-1.296c2.372-1.518,5.047-3.123,7.509-4.498c2.467-1.368,9.735-5.76,20.035-10.394
		c2.564-1.153,6.93-2.774,9.625-3.601c2.689-0.817,5.399-1.584,8.12-2.104c1.357-0.247,2.726-0.44,4.034-0.397
		c1.05,0.017,1.974,0.258,2.877,0.708c-3.631,3.845-9.175,8.581-16.592,14.165c-9.538,7.188-19.721,13.927-24.618,17.168
		c-1.083,0.716-2.017,1.335-2.539,1.693c-0.629,0.433-1.932,1.224-1.949,1.235c-4.835,3.103-11.26-0.022-11.355-0.08
		c-0.406-0.252-0.903-0.42-1.155-0.015c-0.035,0.056-0.045,0.118-0.039,0.184c-0.023,0.414,0.77,1.019,1.133,1.245
		c0.2,0.124,2.732,1.976,6.693,1.976c1.295,0,2.61-0.192,3.924-0.752c0.016,0.044,0.025,0.09,0.044,0.134
		c1.026,2.393,1.876,5.053,2.932,9.181l0.012-0.003c0.105,0.413,0.211,0.829,0.318,1.252l0.237,0.937
		C79.433,80.314,79.995,82.545,80.676,84.99L80.676,84.99z"/>
	<path style="fill:#FFFFFF;" d="M76.774,102.597c-1.075,0-1.98-0.245-2.363-0.643c-3.315-3.423-8.064-11.096-11.203-16.777
		c0.685,0.128,1.11,0.185,1.857,0.247c4.81,8.027,9.876,14.408,12.164,17.158C77.079,102.592,76.927,102.597,76.774,102.597z"/>
	<g>
		<path style="fill:#FFFFFF;" d="M31.01,36.978c0.041-0.058,0.082-0.112,0.124-0.167C31.093,36.866,31.051,36.92,31.01,36.978z"/>
		<path style="fill:#FFFFFF;" d="M31.8,36.028c0.004-0.005,0.009-0.01,0.013-0.014c-0.063,0.065-0.13,0.137-0.198,0.213
			C31.68,36.155,31.742,36.089,31.8,36.028L31.8,36.028z"/>
		<path style="fill:#FFFFFF;" d="M31.418,36.452c0.059-0.069,0.116-0.134,0.172-0.197C31.534,36.317,31.477,36.382,31.418,36.452z"
			/>
		<path style="fill:#FFFFFF;" d="M31.214,36.703c0.049-0.063,0.097-0.121,0.146-0.18C31.312,36.582,31.263,36.64,31.214,36.703z"/>
		<path style="fill:#FFFFFF;" d="M30.812,37.273c0.031-0.049,0.063-0.094,0.095-0.142C30.875,37.179,30.843,37.224,30.812,37.273z"
			/>
		<path style="fill:#FFFFFF;" d="M30.627,37.587c0.023-0.041,0.048-0.081,0.071-0.121C30.674,37.507,30.649,37.546,30.627,37.587z"
			/>
		<path style="fill:#FFFFFF;" d="M30.366,40.364c-0.015-0.03-0.031-0.061-0.044-0.091c-0.015-0.033-0.029-0.067-0.042-0.1
			c-0.024-0.062-0.044-0.124-0.062-0.186c-0.009-0.03-0.018-0.059-0.026-0.089c-0.002-0.009-0.003-0.018-0.005-0.027
			c-0.014-0.061-0.027-0.122-0.036-0.182c-0.004-0.022-0.009-0.044-0.011-0.066C30.172,39.869,30.247,40.118,30.366,40.364
			L30.366,40.364z"/>
		<path style="fill:#FFFFFF;" d="M30.118,39.346C30.118,39.346,30.118,39.346,30.118,39.346L30.118,39.346
			c0.001,0.069,0.009,0.14,0.016,0.21C30.127,39.486,30.119,39.416,30.118,39.346z"/>
		<path style="fill:#FFFFFF;" d="M30.155,38.909c-0.006,0.036-0.011,0.072-0.016,0.109C30.143,38.982,30.149,38.945,30.155,38.909z"
			/>
		<path style="fill:#FFFFFF;" d="M49.941,52.937c-0.008-0.009-0.017-0.017-0.025-0.025l0,0
			C49.924,52.92,49.932,52.929,49.941,52.937L49.941,52.937z"/>
		<path style="fill:#FFFFFF;" d="M30.464,40.552c-0.021-0.035-0.04-0.07-0.059-0.106c-0.001-0.002-0.002-0.004-0.003-0.006
			c0.028,0.053,0.059,0.106,0.092,0.159C30.484,40.584,30.473,40.568,30.464,40.552z"/>
		<path style="fill:#FFFFFF;" d="M30.196,38.693c0.009-0.04,0.017-0.081,0.028-0.121C30.214,38.612,30.205,38.652,30.196,38.693z"/>
		<path style="fill:#FFFFFF;" d="M30.46,37.917c0.013-0.029,0.029-0.057,0.043-0.086C30.49,37.86,30.474,37.888,30.46,37.917z"/>
		<path style="fill:#FFFFFF;" d="M32.301,35.548c-0.062,0.054-0.238,0.21-0.463,0.441C32.062,35.758,32.238,35.602,32.301,35.548z"
			/>
		<polygon style="fill:#FFFFFF;" points="52.668,75.03 54.897,77.355 54.894,77.352 		"/>
		<path style="fill:#FFFFFF;" d="M81.746,101.841c-0.048-0.094-0.096-0.188-0.144-0.283
			C81.65,101.653,81.698,101.748,81.746,101.841z"/>
		<path style="fill:#FFFFFF;" d="M81.455,101.269c-0.047-0.093-0.094-0.187-0.141-0.281
			C81.361,101.082,81.408,101.176,81.455,101.269z"/>
		<path style="fill:#FFFFFF;" d="M82.876,103.966c-0.048-0.086-0.095-0.172-0.143-0.259C82.78,103.795,82.828,103.88,82.876,103.966
			z"/>
		<path style="fill:#FFFFFF;" d="M82.033,102.397c-0.048-0.093-0.097-0.186-0.146-0.28
			C81.936,102.211,81.985,102.305,82.033,102.397z"/>
		<path style="fill:#FFFFFF;" d="M82.598,103.461c-0.049-0.089-0.097-0.179-0.146-0.27C82.501,103.282,82.55,103.372,82.598,103.461
			z"/>
		<path style="fill:#FFFFFF;" d="M30.872,41.094c-0.031-0.033-0.059-0.067-0.088-0.101c-0.048-0.056-0.095-0.111-0.138-0.167
			c-0.026-0.035-0.05-0.07-0.074-0.105c-0.01-0.015-0.019-0.03-0.029-0.045c0.126,0.192,0.285,0.38,0.479,0.565
			C30.97,41.192,30.918,41.143,30.872,41.094z"/>
		<path style="fill:#FFFFFF;" d="M80.737,99.816c0.044,0.092,0.089,0.183,0.133,0.274C80.826,100,80.782,99.908,80.737,99.816z"/>
		<path style="fill:#FFFFFF;" d="M82.319,102.941c-0.049-0.092-0.098-0.185-0.148-0.279
			C82.221,102.756,82.27,102.849,82.319,102.941z"/>
		<path style="fill:#FFFFFF;" d="M58.821,47.743c0.168-0.13,0.341-0.265,0.505-0.391c-0.002,0.002-0.004,0.003-0.006,0.005
			C59.158,47.481,58.989,47.613,58.821,47.743z"/>
		<path style="fill:#FFFFFF;" d="M31.053,41.271c0.124,0.115,0.256,0.229,0.409,0.34c-0.115-0.084-0.221-0.169-0.319-0.255
			C31.111,41.328,31.083,41.3,31.053,41.271z"/>
		<path style="fill:#FFFFFF;" d="M79.959,103.092c-0.04-0.041-6.746-7.025-12.799-16.604
			C73.213,96.066,79.919,103.051,79.959,103.092c0.771,0.788,1.573,1.586,2.432,2.419C81.532,104.678,80.73,103.88,79.959,103.092z"
			/>
		<path style="fill:#FFFFFF;" d="M80.575,99.482c-0.041-0.085-0.082-0.17-0.122-0.255C80.494,99.312,80.534,99.397,80.575,99.482z"
			/>
		<path style="fill:#FFFFFF;" d="M80.281,98.867c-0.038-0.081-0.077-0.162-0.115-0.243C80.204,98.705,80.242,98.787,80.281,98.867z"
			/>
		<path style="fill:#FFFFFF;" d="M79.991,98.255c-0.038-0.081-0.076-0.163-0.114-0.244C79.915,98.092,79.953,98.174,79.991,98.255z"
			/>
		<path style="fill:#FFFFFF;" d="M81.162,100.683c-0.045-0.091-0.09-0.183-0.136-0.275C81.072,100.5,81.117,100.592,81.162,100.683z
			"/>
		<path style="fill:#FFFFFF;" d="M101.035,29.979c-0.033,0.087-0.066,0.173-0.099,0.262c0,0,0,0.001,0,0.001
			c0.033-0.091,0.067-0.179,0.101-0.269C101.036,29.975,101.036,29.977,101.035,29.979z"/>
		<path style="fill:#FFFFFF;" d="M101.146,29.685C101.146,29.685,101.145,29.685,101.146,29.685
			c0.013-0.034,0.026-0.066,0.039-0.099C101.172,29.619,101.159,29.651,101.146,29.685z"/>
		<path style="fill:#FFFFFF;" d="M100.823,30.558c-0.031,0.088-0.063,0.173-0.093,0.263v0c0.032-0.091,0.064-0.179,0.095-0.269
			C100.825,30.554,100.824,30.556,100.823,30.558z"/>
		<path style="fill:#FFFFFF;" d="M100.177,32.576c-0.012,0.04-0.024,0.081-0.036,0.122h0
			C100.153,32.657,100.165,32.618,100.177,32.576z"/>
		<path style="fill:#FFFFFF;" d="M102.403,26.858C102.403,26.858,102.403,26.858,102.403,26.858c0.015-0.03,0.031-0.059,0.046-0.089
			C102.434,26.799,102.419,26.827,102.403,26.858z"/>
		<path style="fill:#FFFFFF;" d="M101.99,27.703L101.99,27.703c0.033-0.07,0.065-0.137,0.098-0.205
			C102.056,27.566,102.023,27.633,101.99,27.703z"/>
		<path style="fill:#FFFFFF;" d="M101.464,28.896c-0.006,0.015-0.013,0.031-0.019,0.047c0.007-0.016,0.013-0.032,0.02-0.048
			C101.464,28.895,101.464,28.895,101.464,28.896z"/>
		<path style="fill:#FFFFFF;" d="M67.613,50.355L67.613,50.355c-0.007,0.008-0.015,0.017-0.022,0.025c0,0,0,0,0,0c0,0,0,0,0,0
			C67.598,50.372,67.605,50.363,67.613,50.355L67.613,50.355z"/>
		<path style="fill:#FFFFFF;" d="M68.223,49.75L68.223,49.75c0.121-0.102,0.244-0.201,0.371-0.295
			C68.468,49.549,68.344,49.648,68.223,49.75z"/>
		<path style="fill:#FFFFFF;" d="M100.331,32.05L100.331,32.05c0.016-0.052,0.032-0.102,0.048-0.154
			C100.363,31.948,100.347,31.998,100.331,32.05z"/>
		<path style="fill:#FFFFFF;" d="M102.754,26.191c-0.017,0.031-0.034,0.063-0.05,0.094c0.017-0.032,0.034-0.065,0.051-0.096
			C102.755,26.19,102.754,26.191,102.754,26.191z"/>
		<path style="fill:#FFFFFF;" d="M67.977,49.975c-0.029,0.027-0.058,0.053-0.086,0.081l0,0l0,0
			C67.919,50.029,67.948,50.002,67.977,49.975C67.977,49.975,67.977,49.975,67.977,49.975z"/>
		<path style="fill:#FFFFFF;" d="M58.011,48.373c-0.283,0.221-0.571,0.446-0.865,0.678C57.441,48.819,57.726,48.595,58.011,48.373z"
			/>
		<path style="fill:#FFFFFF;" d="M72.379,47.037c-0.16,0.098-0.32,0.197-0.479,0.295c0,0,0,0,0,0
			C72.06,47.234,72.22,47.135,72.379,47.037L72.379,47.037L72.379,47.037z"/>
		<path style="fill:#FFFFFF;" d="M95.881,34.507C95.881,34.507,95.881,34.507,95.881,34.507c0.856-0.38,1.714-0.756,2.576-1.123
			C97.595,33.751,96.737,34.127,95.881,34.507L95.881,34.507z"/>
		<path style="fill:#FFFFFF;" d="M53.592,52.369c0.001,0.002,0.001,0.004,0.002,0.006C53.593,52.373,53.593,52.371,53.592,52.369z"
			/>
		<path style="fill:#FFFFFF;" d="M54.417,52.709c0.014-0.007,0.028-0.011,0.043-0.019C54.445,52.698,54.431,52.702,54.417,52.709z"
			/>
		<path style="fill:#FFFFFF;" d="M53.57,52.259c0.001,0.006,0,0.012,0.001,0.018C53.571,52.271,53.571,52.265,53.57,52.259z"/>
		<path style="fill:#FFFFFF;" d="M54.287,52.756c0.013-0.003,0.025-0.005,0.038-0.009C54.313,52.752,54.3,52.753,54.287,52.756z"/>
		<path style="fill:#FFFFFF;" d="M54.063,52.774c0.002,0,0.004,0.001,0.006,0.001C54.068,52.775,54.066,52.774,54.063,52.774z"/>
		<path style="fill:#FFFFFF;" d="M54.195,52.775c-0.009,0.001-0.017,0-0.025,0.001C54.179,52.775,54.187,52.776,54.195,52.775z"/>
		<path style="fill:#FFFFFF;" d="M53.678,51.86c0.024-0.034,0.052-0.067,0.085-0.099C53.731,51.793,53.703,51.826,53.678,51.86z"/>
		<path style="fill:#FFFFFF;" d="M55.673,50.199c0.001,0,0.001-0.001,0.002-0.001C55.674,50.199,55.673,50.199,55.673,50.199z"/>
		<path style="fill:#FFFFFF;" d="M53.809,51.716c0.283-0.229,0.56-0.452,0.833-0.672c0.078-0.066,0.154-0.127,0.231-0.192
			c-0.077,0.063-0.153,0.126-0.231,0.192c-0.256,0.206-0.516,0.415-0.78,0.629C53.845,51.688,53.828,51.701,53.809,51.716z"/>
		<path style="fill:#FFFFFF;" d="M53.567,52.175c0.001-0.011,0.003-0.022,0.004-0.033C53.57,52.153,53.568,52.164,53.567,52.175z"/>
		<path style="fill:#FFFFFF;" d="M102.984,25.777C102.983,25.778,102.983,25.778,102.984,25.777
			c0.037-0.064,0.072-0.126,0.109-0.188C103.056,25.651,103.021,25.712,102.984,25.777z"/>
		<path style="fill:#FFFFFF;" d="M53.618,51.964c0.01-0.021,0.023-0.042,0.036-0.062C53.641,51.923,53.628,51.943,53.618,51.964z"/>
		<path style="fill:#FFFFFF;" d="M53.582,52.07c0.004-0.016,0.011-0.032,0.016-0.048C53.593,52.038,53.586,52.054,53.582,52.07z"/>
		<path style="fill:#FFFFFF;" d="M103.327,25.192c-0.04,0.066-0.081,0.135-0.123,0.205c0.043-0.073,0.086-0.146,0.128-0.214
			C103.331,25.186,103.329,25.189,103.327,25.192z"/>
		<path style="fill:#FFFFFF;" d="M81.568,98.825c0.052,0.091,0.104,0.182,0.156,0.272C81.672,99.007,81.62,98.917,81.568,98.825z"/>
		<path style="fill:#FFFFFF;" d="M81.441,98.602c-0.053-0.094-0.107-0.189-0.161-0.285C81.334,98.413,81.388,98.508,81.441,98.602z"
			/>
		<path style="fill:#FFFFFF;" d="M81.856,99.324c0.051,0.087,0.102,0.175,0.152,0.261C81.957,99.499,81.906,99.412,81.856,99.324z"
			/>
		<path style="fill:#FFFFFF;" d="M80.403,96.716c0.055,0.103,0.11,0.205,0.165,0.307C80.514,96.921,80.459,96.819,80.403,96.716z"/>
		<path style="fill:#FFFFFF;" d="M80.992,97.798c0.054,0.098,0.108,0.195,0.162,0.291C81.1,97.993,81.046,97.896,80.992,97.798z"/>
		<path style="fill:#FFFFFF;" d="M80.099,96.145c0.058,0.109,0.115,0.217,0.172,0.325C80.215,96.362,80.157,96.254,80.099,96.145z"
			/>
		<path style="fill:#FFFFFF;" d="M80.7,97.266c0.054,0.1,0.109,0.199,0.163,0.298C80.808,97.465,80.754,97.366,80.7,97.266z"/>
		<path style="fill:#FFFFFF;" d="M82.14,99.808c0.051,0.086,0.102,0.172,0.153,0.257C82.241,99.98,82.19,99.894,82.14,99.808z"/>
		<path style="fill:#FFFFFF;" d="M83.283,101.673c0.051,0.08,0.101,0.159,0.152,0.239C83.384,101.833,83.333,101.753,83.283,101.673
			z"/>
		<path style="fill:#FFFFFF;" d="M83.578,102.133c0.05,0.077,0.1,0.155,0.15,0.232C83.678,102.288,83.628,102.211,83.578,102.133z"
			/>
		<path style="fill:#FFFFFF;" d="M83.871,102.584c0.051,0.077,0.102,0.155,0.153,0.232
			C83.973,102.739,83.922,102.661,83.871,102.584z"/>
		<path style="fill:#FFFFFF;" d="M82.708,100.753c0.051,0.083,0.101,0.165,0.152,0.248C82.81,100.918,82.759,100.836,82.708,100.753
			z"/>
		<path style="fill:#FFFFFF;" d="M82.423,100.283c0.051,0.085,0.102,0.17,0.153,0.254C82.525,100.453,82.474,100.368,82.423,100.283
			z"/>
		<path style="fill:#FFFFFF;" d="M82.994,101.214c0.051,0.082,0.103,0.165,0.155,0.247
			C83.097,101.379,83.045,101.297,82.994,101.214z"/>
		<path style="fill:#FFFFFF;" d="M78.146,92.305c0.074,0.149,0.146,0.295,0.218,0.441C78.293,92.6,78.22,92.455,78.146,92.305z"/>
		<path style="fill:#FFFFFF;" d="M79.612,97.442c0.028,0.061,0.057,0.123,0.085,0.184C79.668,97.565,79.64,97.503,79.612,97.442z"/>
		<path style="fill:#FFFFFF;" d="M79.367,96.91c0.012,0.027,0.024,0.053,0.036,0.08C79.391,96.963,79.379,96.936,79.367,96.91z"/>
		<path style="fill:#FFFFFF;" d="M77.42,90.822c0.091,0.188,0.181,0.371,0.27,0.553C77.601,91.193,77.512,91.01,77.42,90.822z"/>
		<path style="fill:#FFFFFF;" d="M77.04,90.037c0.104,0.216,0.206,0.426,0.308,0.636C77.246,90.463,77.144,90.253,77.04,90.037z"/>
		<path style="fill:#FFFFFF;" d="M79.792,95.558c0.06,0.116,0.12,0.23,0.18,0.344C79.912,95.788,79.852,95.674,79.792,95.558z"/>
		<path style="fill:#FFFFFF;" d="M76.527,90.375c0.001,0.003,0.002,0.005,0.003,0.008C76.529,90.38,76.528,90.377,76.527,90.375z"/>
		<path style="fill:#FFFFFF;" d="M76.301,89.822c0.001,0.003,0.002,0.005,0.003,0.008C76.303,89.827,76.302,89.824,76.301,89.822z"
			/>
		<path style="fill:#FFFFFF;" d="M61.144,82.685c-0.118-0.072-0.227-0.142-0.323-0.208C60.917,82.543,61.027,82.613,61.144,82.685z"
			/>
		<path style="fill:#FFFFFF;" d="M79.16,94.33c0.063,0.124,0.125,0.246,0.188,0.368C79.285,94.576,79.223,94.454,79.16,94.33z"/>
		<path style="fill:#FFFFFF;" d="M79.48,94.955c0.062,0.121,0.123,0.239,0.185,0.357C79.603,95.194,79.542,95.076,79.48,94.955z"/>
		<path style="fill:#FFFFFF;" d="M78.828,93.674c0.068,0.134,0.134,0.266,0.2,0.397C78.962,93.94,78.896,93.808,78.828,93.674z"/>
		<path style="fill:#FFFFFF;" d="M84.172,103.038c0.051,0.076,0.102,0.152,0.153,0.228C84.274,103.19,84.223,103.114,84.172,103.038
			z"/>
		<path style="fill:#FFFFFF;" d="M78.494,93.006c0.072,0.145,0.143,0.286,0.214,0.427C78.637,93.292,78.566,93.15,78.494,93.006z"/>
		<path style="fill:#FFFFFF;" d="M77.788,91.576c0.082,0.168,0.163,0.332,0.243,0.495C77.951,91.908,77.87,91.744,77.788,91.576z"/>
		<path style="fill:#FFFFFF;" d="M84.528,106.678c-0.078-0.111-0.157-0.228-0.237-0.348
			C84.372,106.451,84.451,106.567,84.528,106.678z"/>
		<path style="fill:#FFFFFF;" d="M84.943,104.171c-0.051-0.074-0.101-0.147-0.152-0.221
			C84.842,104.024,84.892,104.097,84.943,104.171z"/>
		<path style="fill:#FFFFFF;" d="M85.262,104.629c-0.047-0.066-0.092-0.132-0.138-0.198
			C85.17,104.497,85.216,104.562,85.262,104.629z"/>
		<path style="fill:#FFFFFF;" d="M84.633,103.72c-0.052-0.077-0.104-0.153-0.156-0.229C84.529,103.567,84.58,103.643,84.633,103.72z
			"/>
		<path style="fill:#FFFFFF;" d="M85.589,105.092c-0.042-0.059-0.083-0.117-0.124-0.176
			C85.507,104.975,85.547,105.033,85.589,105.092z"/>
		<path style="fill:#FFFFFF;" d="M83.151,104.457c-0.049-0.086-0.097-0.171-0.147-0.259
			C83.054,104.286,83.103,104.372,83.151,104.457z"/>
		<path style="fill:#FFFFFF;" d="M86.273,106.045c-0.033-0.045-0.064-0.089-0.097-0.134C86.209,105.956,86.241,106,86.273,106.045z"
			/>
		<path style="fill:#FFFFFF;" d="M85.926,105.564c-0.037-0.052-0.073-0.103-0.11-0.154
			C85.853,105.461,85.889,105.512,85.926,105.564z"/>
		<path style="fill:#FFFFFF;" d="M84.26,106.655c-0.335-0.037-0.579-0.1-0.744-0.163C83.681,106.556,83.925,106.618,84.26,106.655z"
			/>
		<path style="fill:#FFFFFF;" d="M83.273,104.67c0.049,0.085,0.098,0.168,0.146,0.251C83.371,104.838,83.322,104.756,83.273,104.67z
			"/>
		<path style="fill:#FFFFFF;" d="M83.516,106.492c-0.083-0.032-0.146-0.064-0.192-0.094
			C83.369,106.428,83.433,106.46,83.516,106.492z"/>
		<path style="fill:#FFFFFF;" d="M88.309,106.148c-0.213-0.482-0.42-0.957-0.623-1.427
			C87.889,105.191,88.096,105.666,88.309,106.148z"/>
		<path style="fill:#FFFFFF;" d="M83.949,105.797c-0.051-0.082-0.102-0.163-0.155-0.248
			C83.847,105.634,83.898,105.716,83.949,105.797z"/>
		<path style="fill:#FFFFFF;" d="M84.209,106.203c-0.054-0.082-0.108-0.164-0.163-0.251
			C84.101,106.039,84.155,106.121,84.209,106.203z"/>
		<path style="fill:#FFFFFF;" d="M83.685,105.368c-0.049-0.081-0.098-0.161-0.147-0.245
			C83.587,105.207,83.636,105.287,83.685,105.368z"/>
		<path style="fill:#FFFFFF;" d="M85.478,99.358c0.093,0.237,0.188,0.477,0.283,0.717C85.665,99.835,85.57,99.595,85.478,99.358z"/>
		<path style="fill:#FFFFFF;" d="M83.265,93.341c0.07,0.205,0.141,0.411,0.214,0.619C83.406,93.752,83.335,93.546,83.265,93.341z"/>
		<path style="fill:#FFFFFF;" d="M83.664,94.489c0.073,0.208,0.148,0.417,0.223,0.628C83.812,94.906,83.738,94.697,83.664,94.489z"
			/>
		<path style="fill:#FFFFFF;" d="M82.887,92.227c0.067,0.199,0.133,0.398,0.202,0.6C83.021,92.626,82.954,92.427,82.887,92.227z"/>
		<path style="fill:#FFFFFF;" d="M84.085,95.664c0.077,0.213,0.155,0.428,0.235,0.644C84.24,96.092,84.162,95.877,84.085,95.664z"/>
		<path style="fill:#FFFFFF;" d="M82.182,90.058c0.062,0.195,0.123,0.388,0.186,0.585C82.304,90.447,82.243,90.253,82.182,90.058z"
			/>
		<path style="fill:#FFFFFF;" d="M82.528,91.137c0.063,0.193,0.126,0.386,0.19,0.582C82.653,91.524,82.591,91.331,82.528,91.137z"/>
		<path style="fill:#FFFFFF;" d="M84.988,98.093c0.087,0.229,0.177,0.46,0.267,0.692C85.165,98.553,85.076,98.322,84.988,98.093z"/>
		<path style="fill:#FFFFFF;" d="M85.989,100.647c0.102,0.253,0.207,0.511,0.311,0.768C86.195,101.157,86.09,100.9,85.989,100.647z"
			/>
		<path style="fill:#FFFFFF;" d="M118.989,29.211c-1.308-0.043-2.678,0.15-4.034,0.397c-2.721,0.521-5.431,1.288-8.12,2.104
			c-2.695,0.826-7.062,2.447-9.625,3.601c-10.3,4.634-17.568,9.025-20.035,10.394c-2.462,1.375-5.138,2.98-7.509,4.498
			c-0.566,0.397-0.999,0.695-1.36,1.296c-0.363,0.593-0.573,1.208-0.783,1.877c-0.445,1.412-0.39,2.559-0.421,2.992
			c0,0.243-0.427,0.308-0.669,0.098c-0.005-0.003-0.01-0.007-0.016-0.011c-0.007-0.007-0.013-0.014-0.02-0.021
			c-0.027-0.025-0.051-0.061-0.071-0.107c-0.009-0.018-0.016-0.036-0.023-0.055c-0.008-0.025-0.012-0.055-0.017-0.086
			c-0.005-0.028-0.016-0.051-0.017-0.083c-0.001-0.038-0.002-0.07-0.003-0.107c-0.079-1.37-0.105-1.963,0.112-2.987
			c0.147-0.695,0.394-1.373,0.753-1.993c0.058-0.102,0.127-0.196,0.194-0.292c0,0,0,0,0,0c0,0,0,0,0,0
			c-2.49,1.929-4.795,4.093-6.5,6.454c-3.135,4.349-4.86,15.142,0.77,25.753c-0.149-0.074-0.281-0.148-0.404-0.221
			c0.606,0.363,1.514,0.764,2.975,0.951c-0.154-0.326-0.304-0.652-0.445-0.971c-0.899-2.03-2.152-4.67-2.546-8.554
			c-0.024-0.237,0.211-0.241,0.251-0.085c1.166,4.499,3.198,8.177,3.866,9.465c0.107,0.207,1.515,2.406,1.515,2.406
			c0.118,0.189,0.236,0.375,0.354,0.562c1.57,1.134,4.21,2.448,7.836,2.8c0.283,0.036,0.682,0.028,1.088-0.001
			c0,0.001,0.001,0.002,0.001,0.002c-0.108-0.269-0.214-0.534-0.315-0.791l-0.36-0.924c-0.496-1.291-0.877-2.364-1.096-3.092
			c-0.021-0.071,0.046-0.085,0.072-0.028c0.507,1.078,0.982,2.085,1.435,3.038l0.451,0.947c0.257,0.538,0.504,1.054,0.746,1.554
			c-0.12-0.249-0.242-0.502-0.366-0.76c0.287-0.034,0.552-0.075,0.746-0.116c2.064-0.436,3.296-0.987,4.025-1.524
			c0.095,0.321,0.193,0.645,0.293,0.973c-0.209-0.686-0.408-1.356-0.597-2.011l-0.444-1.563c-0.681-2.445-1.242-4.676-1.764-6.751
			l-0.237-0.937c-0.107-0.422-0.212-0.839-0.318-1.252l-0.012,0.003c-1.056-4.129-1.906-6.789-2.932-9.181
			c-0.019-0.044-0.028-0.089-0.044-0.134c-1.314,0.56-2.629,0.752-3.924,0.752c-3.961,0-6.493-1.852-6.693-1.976
			c-0.363-0.226-1.156-0.831-1.133-1.245c-0.006-0.066,0.004-0.128,0.039-0.184c0.252-0.405,0.749-0.237,1.155,0.015
			c0.095,0.058,6.52,3.183,11.355,0.08c0.017-0.011,1.32-0.802,1.949-1.235c0.522-0.358,1.457-0.977,2.539-1.693
			c4.897-3.241,15.081-9.98,24.618-17.168c7.417-5.584,12.961-10.32,16.592-14.165C120.963,29.469,120.039,29.228,118.989,29.211
			L118.989,29.211z"/>
		<path style="fill:#FFFFFF;" d="M87.489,104.259c-0.133-0.311-0.266-0.622-0.395-0.927
			C87.223,103.638,87.356,103.948,87.489,104.259z"/>
		<path style="fill:#FFFFFF;" d="M81.853,89.008c0.06,0.195,0.119,0.388,0.181,0.585C81.973,89.396,81.913,89.202,81.853,89.008z"/>
		<path style="fill:#FFFFFF;" d="M84.525,96.864c0.082,0.221,0.166,0.444,0.251,0.669C84.691,97.309,84.607,97.085,84.525,96.864z"
			/>
		<path style="fill:#FFFFFF;" d="M86.867,102.787c-0.114-0.273-0.229-0.547-0.34-0.817C86.638,102.24,86.752,102.514,86.867,102.787
			z"/>
	</g>
</g>
<path style="opacity:0.6;fill:#FFFFFF;" d="M127.502,22.88l-0.019-0.021c-1.55-1.533-3.298-3.277-7.025-3.277
	c-0.114,0-0.23,0.002-0.348,0.005c-6.081,0.186-13.849,2.538-20.747,5.155c-0.266-1.395-0.886-2.699-1.8-3.786
	c-0.326-0.389-0.803-0.604-1.296-0.604c-0.142,0-0.285,0.018-0.426,0.054c-11.92,3.103-30.433,13.538-39.556,22.198
	c-0.122,0.114-0.278,0.172-0.435,0.172c-0.114,0-0.226-0.039-0.328-0.101c-0.183-0.145-0.284-0.23-0.288-0.233
	c-0.035-0.03-0.074-0.054-0.112-0.078c-0.569-0.486-0.896-0.884-0.934-1.222c-0.453-3.301-2.07-6.332-4.561-8.546
	c-2.288-2.024-5.225-3.122-8.24-3.122c-0.578,0-1.16,0.04-1.74,0.122c-4.277,0.567-6.483,2.682-8.093,4.222
	c-0.384,0.389-0.794,0.751-1.227,1.085c-0.823,0.59-2.13,1.246-3.503,1.269c-8.25,0.182-16.696,0.704-26.164,6.329
	c-0.402,0.224-0.634,0.632-0.656,1.061c-0.022,0.248,0.027,0.504,0.157,0.738c0.001,0.002,0.002,0.004,0.004,0.007
	c0.245,0.42,0.689,0.659,1.148,0.659c0.191,0,0.385-0.041,0.567-0.128c7.164-2.998,13.37-3.956,18.154-3.956
	c4.474,0,7.702,0.838,9.303,1.629c1.716,0.846,2.466,1.515,2.917,1.935c1.555,1.449,4.046,3.206,4.99,4.935
	c1.013,1.853,1.984,3.909,2.849,6.276c1.058,2.875,2.136,5.847,3.575,8.542c2.474,4.638,4.462,9.264,11.622,15.893
	c0.468,0.433,1.396,1.209,1.396,1.209c0.025,0.022,0.049,0.044,0.075,0.066c0.786,0.69,2.926,2.297,3.458,2.645
	c0.323,0.212,0.637,0.774,0.753,0.994c3.198,5.978,8.598,14.433,12.199,18.149c0.836,0.867,2.284,1.168,3.603,1.168
	c0.39,0,0.77-0.026,1.118-0.072c0.157-0.021,0.309-0.047,0.453-0.074c0.025-0.005,0.051-0.007,0.076-0.007
	c0.113,0,0.222,0.045,0.303,0.127c1.058,1.081,2.17,2.177,3.353,3.306c0.64,0.609,1.723,0.814,2.859,0.814
	c0.52,0,1.051-0.043,1.556-0.109c0.889-0.107,1.763-0.31,2.608-0.605l0.362-0.148c0.617-0.251,0.913-0.955,0.662-1.572
	c-0.005-0.011-0.009-0.023-0.014-0.034l-0.157-0.357c-5.523-12.48-7.655-20.971-9.369-27.789c-0.192-0.757-0.379-1.5-0.565-2.227
	c-0.92-3.596-1.817-6.634-3.019-9.434c-0.02-0.046-0.028-0.095-0.032-0.143c0.005-0.152,0.084-0.298,0.225-0.377
	c0.649-0.372,1.286-0.781,1.904-1.206c0.499-0.343,1.388-0.931,2.513-1.675c4.91-3.249,15.122-10.007,24.705-17.229
	c12.173-9.166,19.211-15.918,21.517-20.641c0.122-0.25,0.176-0.52,0.169-0.786C128.001,23.643,127.83,23.207,127.502,22.88z"/>
</svg>
