<?xml version="1.0" encoding="iso-8859-1"?>
<!-- Generator: Adobe Illustrator 27.8.1, SVG Export Plug-In . SVG Version: 6.00 Build 0)  -->
<svg version="1.1" id="Layer_1" xmlns="http://www.w3.org/2000/svg" xmlns:xlink="http://www.w3.org/1999/xlink" x="0px" y="0px"
	 viewBox="0 0 512 512" style="enable-background:new 0 0 512 512;" xml:space="preserve">
<path style="fill:#81CBEB;" d="M507.922,182.12c0.95-5.869,1.442-11.858,1.442-17.926c0-29.375-11.408-56.961-32.123-77.676
	c-20.715-20.715-48.301-32.124-77.677-32.124c-1.399,0-2.793,0.034-4.183,0.085c-36.519-10.976-82.587-15.934-139.566-15.934
	c-56.978,0-103.061,4.958-139.603,15.933c-1.379-0.051-2.76-0.084-4.148-0.084c-29.447,0-57.084,11.405-77.822,32.114
	c-20.735,20.708-32.155,48.296-32.155,77.686c0,6.078,0.494,12.076,1.447,17.955c-2.565,15.861-3.808,33.204-3.808,52.146
	c0,144.993,106.659,244.908,256.088,244.908c149.252,0,255.912-99.915,255.912-244.908
	C511.727,215.341,510.485,197.989,507.922,182.12z"/>
<path style="fill:#B3E0F3;" d="M481.296,149.632c-8.335-22.071-20.94-39.323-38.538-52.742
	C406.432,69.191,347.029,56.29,255.815,56.29c-91.235,0-150.668,12.903-187.038,40.606c-17.623,13.423-30.247,30.676-38.595,52.746
	c-8.554,22.613-12.712,50.303-12.712,84.653c0,33.221,5.938,64.39,17.648,92.642c5.608,13.53,12.484,26.253,20.565,38.093
	c54.141-45.343,122.634-70.928,200.133-70.928c77.312,0,145.623,25.572,199.888,71.043c8.111-11.873,15.009-24.635,20.634-38.207
	c11.709-28.255,17.646-59.424,17.646-92.643C493.983,199.935,489.833,172.242,481.296,149.632z"/>
<path style="fill:#F2FAFD;" d="M153.06,404.488c-11.358,0-20.409-9.051-20.409-20.586c0-11.358,9.051-20.409,20.409-20.409
	c11.536,0,20.586,9.051,20.586,20.409C173.646,395.437,164.596,404.488,153.06,404.488z"/>
<path style="fill:#F2FAFD;" d="M255.815,419.04c-19.344,0-35.139-15.795-35.139-35.139c0-19.167,15.795-34.962,35.139-34.962
	c19.166,0,34.961,15.795,34.961,34.962C290.776,403.246,274.981,419.04,255.815,419.04z"/>
<path style="fill:#F2FAFD;" d="M358.392,404.488c-11.536,0-20.586-9.051-20.586-20.586c0-11.358,9.051-20.409,20.586-20.409
	c11.358,0,20.409,9.051,20.409,20.409C378.801,395.437,369.75,404.488,358.392,404.488z"/>
<path style="fill:#F2FAFD;" d="M112.065,254.171c49.692,0,89.8-40.108,89.8-89.977c0-49.691-40.108-89.799-89.8-89.799
	c-49.869,0-89.977,40.108-89.977,89.799C22.088,214.063,62.196,254.171,112.065,254.171z M112.065,226.309
	c-34.607,0-62.114-27.508-62.114-62.114c0-34.429,27.508-61.937,62.114-61.937c34.429,0,61.937,27.508,61.937,61.937
	C174.001,198.801,146.494,226.309,112.065,226.309z"/>
<path style="fill:#F2FAFD;" d="M399.565,254.171c49.692,0,89.8-40.108,89.8-89.977c0-49.691-40.108-89.799-89.8-89.799
	c-49.869,0-89.977,40.108-89.977,89.799C309.588,214.063,349.696,254.171,399.565,254.171z M399.565,226.309
	c-34.606,0-62.114-27.508-62.114-62.114c0-34.429,27.508-61.937,62.114-61.937c34.429,0,61.937,27.508,61.937,61.937
	C461.502,198.801,433.994,226.309,399.565,226.309z"/>
<path style="fill:#F2FAFD;" d="M112.065,199.156c19.167,0,34.784-15.617,34.784-34.962c0-19.166-15.617-34.784-34.784-34.784
	c-19.344,0-34.962,15.618-34.962,34.784C77.103,183.539,92.721,199.156,112.065,199.156z M399.565,199.156
	c19.167,0,34.784-15.617,34.784-34.962c0-19.166-15.618-34.784-34.784-34.784c-19.344,0-34.962,15.618-34.962,34.784
	C364.603,183.539,380.221,199.156,399.565,199.156z"/>
</svg>
