<?xml version="1.0" encoding="iso-8859-1"?>
<!-- Generator: Adobe Illustrator 27.8.0, SVG Export Plug-In . SVG Version: 6.00 Build 0)  -->
<svg version="1.1" id="Layer_1" xmlns="http://www.w3.org/2000/svg" xmlns:xlink="http://www.w3.org/1999/xlink" x="0px" y="0px"
	 viewBox="0 0 128 128" style="enable-background:new 0 0 128 128;" xml:space="preserve">
<g>
	<g style="enable-background:new    ;">
		<path style="fill:#5F2167;" d="M0,76.806V39.425h7.61v31.031h18.922v6.35H0z"/>
	</g>
	<g style="enable-background:new    ;">
		<path style="fill:#5F2167;" d="M47.226,76.806v-4.088c-0.994,1.457-2.301,2.605-3.921,3.445c-1.62,0.84-3.329,1.26-5.129,1.26
			c-1.834,0-3.48-0.403-4.936-1.208c-1.457-0.805-2.511-1.937-3.162-3.394c-0.652-1.457-0.977-3.471-0.977-6.042V49.503h7.224
			v12.546c0,3.84,0.133,6.192,0.399,7.057c0.265,0.866,0.75,1.551,1.453,2.057c0.703,0.506,1.594,0.758,2.674,0.758
			c1.234,0,2.34-0.338,3.317-1.016c0.977-0.677,1.645-1.517,2.005-2.519c0.36-1.003,0.54-3.458,0.54-7.366V49.503h7.224v27.303
			H47.226z"/>
	</g>
	<g style="enable-background:new    ;">
		<path style="fill:#5F2167;" d="M71.289,49.503v5.759h-4.936v11.003c0,2.228,0.047,3.527,0.141,3.895
			c0.094,0.369,0.309,0.673,0.643,0.913c0.334,0.24,0.741,0.36,1.221,0.36c0.668,0,1.637-0.231,2.905-0.694l0.617,5.605
			c-1.68,0.72-3.582,1.08-5.707,1.08c-1.303,0-2.477-0.218-3.522-0.656c-1.046-0.437-1.813-1.003-2.301-1.697
			c-0.488-0.694-0.827-1.633-1.016-2.815c-0.154-0.84-0.231-2.536-0.231-5.09V55.262h-3.316v-5.759h3.316v-5.425l7.25-4.216v9.641
			H71.289z"/>
	</g>
	<g style="enable-background:new    ;">
		<path style="fill:#5F2167;" d="M71.981,62.769c0-2.399,0.591-4.722,1.774-6.967c1.183-2.245,2.858-3.959,5.026-5.142
			c2.168-1.183,4.589-1.774,7.263-1.774c4.13,0,7.515,1.341,10.155,4.024c2.639,2.683,3.959,6.072,3.959,10.168
			c0,4.131-1.333,7.554-3.998,10.271c-2.665,2.717-6.02,4.075-10.065,4.075c-2.503,0-4.889-0.566-7.16-1.697
			c-2.271-1.131-3.998-2.79-5.18-4.975C72.572,68.566,71.981,65.905,71.981,62.769z M79.385,63.154c0,2.708,0.643,4.782,1.928,6.222
			c1.286,1.44,2.871,2.16,4.756,2.16c1.885,0,3.466-0.72,4.743-2.16c1.277-1.44,1.915-3.531,1.915-6.273
			c0-2.674-0.639-4.73-1.915-6.17c-1.277-1.44-2.858-2.16-4.743-2.16c-1.886,0-3.471,0.72-4.756,2.16
			C80.028,58.372,79.385,60.446,79.385,63.154z"/>
	</g>
	<g style="enable-background:new    ;">
		<path style="fill:#5F2167;" d="M128,76.806h-7.224V62.872c0-2.948-0.154-4.855-0.463-5.72c-0.309-0.865-0.81-1.538-1.504-2.018
			c-0.694-0.48-1.53-0.72-2.507-0.72c-1.251,0-2.374,0.343-3.368,1.028c-0.994,0.686-1.675,1.594-2.044,2.725
			c-0.369,1.131-0.553,3.222-0.553,6.273v12.366h-7.224V49.503h6.71v4.011c2.382-3.085,5.382-4.628,8.998-4.628
			c1.594,0,3.051,0.287,4.371,0.861c1.32,0.574,2.318,1.307,2.995,2.198c0.677,0.891,1.148,1.903,1.414,3.034
			C127.867,56.11,128,57.73,128,59.838V76.806z"/>
	</g>
	<g>
		<rect y="87.669" style="fill:#5F2167;" width="128" height="0.906"/>
	</g>
</g>
<g style="opacity:0.6;">
	<g style="enable-background:new    ;">
		<path style="fill:#FFFFFF;" d="M0,76.806V39.425h7.61v31.031h18.922v6.35H0z"/>
	</g>
	<g style="enable-background:new    ;">
		<path style="fill:#FFFFFF;" d="M47.226,76.806v-4.088c-0.994,1.457-2.301,2.605-3.921,3.445c-1.62,0.84-3.329,1.26-5.129,1.26
			c-1.834,0-3.48-0.403-4.936-1.208c-1.457-0.805-2.511-1.937-3.162-3.394c-0.652-1.457-0.977-3.471-0.977-6.042V49.503h7.224
			v12.546c0,3.84,0.133,6.192,0.399,7.057c0.265,0.866,0.75,1.551,1.453,2.057c0.703,0.506,1.594,0.758,2.674,0.758
			c1.234,0,2.34-0.338,3.317-1.016c0.977-0.677,1.645-1.517,2.005-2.519c0.36-1.003,0.54-3.458,0.54-7.366V49.503h7.224v27.303
			H47.226z"/>
	</g>
	<g style="enable-background:new    ;">
		<path style="fill:#FFFFFF;" d="M71.289,49.503v5.759h-4.936v11.003c0,2.228,0.047,3.527,0.141,3.895
			c0.094,0.369,0.309,0.673,0.643,0.913c0.334,0.24,0.741,0.36,1.221,0.36c0.668,0,1.637-0.231,2.905-0.694l0.617,5.605
			c-1.68,0.72-3.582,1.08-5.707,1.08c-1.303,0-2.477-0.218-3.522-0.656c-1.046-0.437-1.813-1.003-2.301-1.697
			c-0.488-0.694-0.827-1.633-1.016-2.815c-0.154-0.84-0.231-2.536-0.231-5.09V55.262h-3.316v-5.759h3.316v-5.425l7.25-4.216v9.641
			H71.289z"/>
	</g>
	<g style="enable-background:new    ;">
		<path style="fill:#FFFFFF;" d="M71.981,62.769c0-2.399,0.591-4.722,1.774-6.967c1.183-2.245,2.858-3.959,5.026-5.142
			c2.168-1.183,4.589-1.774,7.263-1.774c4.13,0,7.515,1.341,10.155,4.024c2.639,2.683,3.959,6.072,3.959,10.168
			c0,4.131-1.333,7.554-3.998,10.271c-2.665,2.717-6.02,4.075-10.065,4.075c-2.503,0-4.889-0.566-7.16-1.697
			c-2.271-1.131-3.998-2.79-5.18-4.975C72.572,68.566,71.981,65.905,71.981,62.769z M79.385,63.154c0,2.708,0.643,4.782,1.928,6.222
			c1.286,1.44,2.871,2.16,4.756,2.16c1.885,0,3.466-0.72,4.743-2.16c1.277-1.44,1.915-3.531,1.915-6.273
			c0-2.674-0.639-4.73-1.915-6.17c-1.277-1.44-2.858-2.16-4.743-2.16c-1.886,0-3.471,0.72-4.756,2.16
			C80.028,58.372,79.385,60.446,79.385,63.154z"/>
	</g>
	<g style="enable-background:new    ;">
		<path style="fill:#FFFFFF;" d="M128,76.806h-7.224V62.872c0-2.948-0.154-4.855-0.463-5.72c-0.309-0.865-0.81-1.538-1.504-2.018
			c-0.694-0.48-1.53-0.72-2.507-0.72c-1.251,0-2.374,0.343-3.368,1.028c-0.994,0.686-1.675,1.594-2.044,2.725
			c-0.369,1.131-0.553,3.222-0.553,6.273v12.366h-7.224V49.503h6.71v4.011c2.382-3.085,5.382-4.628,8.998-4.628
			c1.594,0,3.051,0.287,4.371,0.861c1.32,0.574,2.318,1.307,2.995,2.198c0.677,0.891,1.148,1.903,1.414,3.034
			C127.867,56.11,128,57.73,128,59.838V76.806z"/>
	</g>
	<g>
		<rect y="87.669" style="fill:#FFFFFF;" width="128" height="0.906"/>
	</g>
</g>
</svg>
