<?xml version="1.0" encoding="iso-8859-1"?>
<!-- Generator: Adobe Illustrator 27.8.0, SVG Export Plug-In . SVG Version: 6.00 Build 0)  -->
<svg version="1.1" id="Layer_1" xmlns="http://www.w3.org/2000/svg" xmlns:xlink="http://www.w3.org/1999/xlink" x="0px" y="0px"
	 viewBox="0 0 128 128" style="enable-background:new 0 0 128 128;" xml:space="preserve">
<g>
	<path style="fill:#C8102E;" d="M33.14,36.175l-0.28-0.571c-4.825,1.429-15.206,2.497-21.231,2.11
		c1.046-0.537,2.083-1.392,2.587-1.788c-2.195,0.249-8.306-2.239-10.856-4.167c0.89,3.732,6.288,9.889,9.551,10.946v0
		c-0.372-0.815-0.932-1.727-1.469-2.617c7.256-0.254,13.834,0.265,23.419-1.534L33.14,36.175z"/>
	<path style="fill:#C8102E;" d="M126.339,30.156c-2.61,3.732-10.56,11.942-14.357,15.922c2.017,0.249,5.472-0.027,7.133-0.401
		l-1.721,4.546c-2.266-1.532-5.148-2.045-7.548-2.045c-3.441,0-7.712,2.488-7.712,6.841s3.559,5.971,7.356,5.971
		c1.886-0.004,3.742-0.523,5.402-1.509c0.033-0.186,0.049-0.375,0.053-0.565c-0.003,0.193-0.017,0.385-0.05,0.574
		c-0.668,4.014-7.755,5.54-12.049,4.237c-4.509-1.368-11.868-2.339-15.665-1.966c2.113-3.553,7.159-6.103,10.8-4.751
		c-5.339-5.598-0.831-14.43,8.899-17.663c-7.594-2.861-3.204-9.33,5.458-15.425c-6.288,2.861-14.357,6.344-17.798,7.712
		c-3.44,1.368-9.61,2.487-5.102-9.578C70.693,33.501,58.353,40.715,58.353,47.184c0,6.469,1.336,10.576-4.272,11.195
		c-2.537,0.269-5.041,0.84-7.467,1.701c-1.127-2.674-0.838-4.064-0.304-4.313c0.534-0.249,2.314-0.435,3.441,0.125
		c-0.356-1.99-1.721-2.924-2.907-3.297s-1.334-0.808-1.245-2.115c0.089-1.306,0.207-1.679,0.89-1.555
		c1.24,0.226,3.263,0.746,4.272,1.679c-0.119-3.421-2.017-4.354-2.907-4.478c-0.89-0.124-1.608-0.25-1.216-2.301
		c0.237-1.244,0.504-1.43,1.453-1.43c0.949,0,2.432,0.56,3.5,1.244c-0.06-2.239-1.305-3.919-2.61-4.23
		c-0.999-0.238-1.593-0.196-1.424-1.617c0.178-1.493,2.254-0.871,3.738-0.435c-1.246-2.239-3.203-2.986-4.093-3.359
		c-0.89-0.373-0.949-1.368-1.186-2.674c-1.068-0.622-0.83-1.244-0.415-1.555c0.415-0.311,3.025-2.177,5.102-3.421
		c-0.7-0.034-1.4,0.05-2.076,0.249c0.653-0.871,1.127-3.732,0.831-4.789c-0.494,1.131-1.967,1.706-3.682,2.244
		c0.593-1.617,0.954-3.488,0.36-3.986c-0.653,2.612-7.238,2.953-8.365,6.25c-1.798,0.095-3.61,0.09-5.161-0.155
		c-2.373-0.373-4.805-0.933-6.822,2.985c-4.627-0.373-10.916,1.244-13.585,4.914c3.619-0.746,6.941-0.871,9.729-0.187
		c-0.183,1.146,0.651,2.762,1.987,2.751c0.158,0.476,0.529,1.125,1.098,1.354c0.022-0.346-0.265-1.033-0.282-1.556
		c0.118-0.056,0.239-0.125,0.361-0.207l0.425,0.426l0.135-0.851c0.102-0.085,0.207-0.177,0.312-0.269l0.679,0.529l0.068-1.161
		c0.082-0.067,0.163-0.135,0.247-0.2l0.723,0.521v-1.007c1.789-1.053,3.999-0.94,6.704,5.019c-1.003-0.391-2.044-0.388-3.079-0.2
		l-0.125-0.299l-0.177,0.36c-0.244,0.053-0.487,0.112-0.73,0.182l-0.398-0.479l-0.085,0.628c-0.291,0.094-0.581,0.193-0.867,0.298
		l-0.649-0.521L28.13,40.01c-0.127,0.048-0.251,0.094-0.376,0.142l-0.606-0.805l-0.278,1.127c-0.07,0.024-0.142,0.051-0.211,0.074
		l-1.143-0.86l-0.449,1.235c-0.051,0.005-0.1,0.007-0.15,0.011c-0.329-0.468-0.52-0.945-0.528-1.556
		c-0.445,0.192-0.806,0.767-0.929,1.264c-0.141-0.083-0.279-0.176-0.406-0.3c-0.474,1.741,1.115,2.674,1.068,3.669
		c-0.059,1.244,0.297,3.048,1.305,4.167c0.059-2.674,1.424-3.359,1.424-5.287c0.415,0.746,0.593,1.742,0.712,2.488
		c0.962-1.805,2.142-3.742,5.159-4.426C32.689,41.6,32.9,42.232,33.305,42.7c-1.72,0.933-1.944,2.929-1.648,4.547
		c-1.246,0.125-2.255,2.425-1.958,4.105c-1.957,1.306-2.356,3.358-2.314,4.913c-1.957,1.493-2.193,4.359-1.602,5.909
		c-2.077,1.493-2.136,5.224-0.119,7.588c-0.56,0.751-0.867,1.692-0.869,2.664c-0.623-0.062-1.652,0.011-2.038,0.229
		c-0.512-1.15-2.284-1.4-3.47-1.275c-0.261-1.201-2.136-2.053-3.115-2.115c0-1.12-0.949-2.488-2.432-3.669
		c-0.119-3.048-0.772-5.411-1.839-7.401c-0.534-1.306,1.305-2.488,2.195-3.234c0.784-0.657,1.077-1.926,0.8-2.955
		c0.989-1.304,0.64-3.463-1.002-4.287c0.534,1.125,0.406,2.141-0.25,2.948c-0.863-0.054-1.804,1.018-2.455,1.993
		c0.541-1.249,1.272-4.971-0.495-5.616c-0.047-1.749-1.815-3.154-3.603-2.509c1.326,0.478,1.911,1.514,1.787,2.846
		c-0.6,0.514-0.822,1.428-0.358,2.481c-0.534,0.933-0.771,2.364-0.594,3.11c-1.163-0.407-1.19-3.738-2.974-3.774
		c-0.657-1.469-2.578-2.136-4.026-1.047c1.288,0.055,2.081,0.772,2.395,1.903c-0.591,0.832-0.502,2.048,0.393,2.731
		c-0.474,1.182-0.06,2.55,1.186,3.11c1.246,0.56,1.78,2.115,1.424,3.048c-0.356,0.933-0.89,2.426-0.534,3.669
		c0.356,1.244,0.208,2.239-0.682,2.55c-0.89,0.311-0.623,2.799-2.047,3.172c-1.017,0.266-1.114,1.668-0.575,2.678
		C2.137,72.156,1.309,72.856,0,72.854c1.368,1.123,3.258,0.604,4.015-0.756c1.042,0.123,1.625-0.803,1.776-1.964
		c0.178-1.368,1.78-2.985,1.839-4.602c1.602,10.884,13.467,12.253,13.941,25.935c1.424-1.741,3.085-5.349,3.085-6.841
		c1.848-0.031,3.684-0.327,5.462-0.882c0.507,0.207,1.038,0.334,1.577,0.38c-0.186,0.66-0.136,1.373,0.14,1.994
		c-0.949,0.374-1.821,2.235-1.543,3.732c-2.289,0.389-0.207,3.343-3.782,7.028c-4.123,4.198-8.854,0.529-10.189-0.249
		c-0.616-0.359-1.156-0.343-1.607-0.111c-1.345-0.932-3.393-0.336-4,1.487v0c1.016-0.686,2.001-0.66,2.843-0.05
		c-0.286,0.726-0.379,1.553-0.232,2.156c-0.135,0.149-0.249,0.301-0.348,0.455c-1.582-0.702-4.159,0.568-4.265,2.588
		c0.957-1.149,2.736-1.369,3.906-0.662c0.026,0.016,0.048,0.01,0.074,0.021c0.126,0.376,0.349,0.742,0.692,1.082
		c-0.103,0.18-0.136,0.395-0.134,0.621c-1.36,0.441-2.293,2.086-1.725,3.717c0.425-1.377,1.386-1.996,2.629-1.915
		c0.343,0.324,0.76,0.598,1.247,0.749c1.602,0.497,4.303-0.461,5.102-1.369c2.136-2.426,5.102,0,5.992-1.057
		c0.89-1.057,3.026-1.617,3.797,0c0.771,1.617,2.373,0.435,3.144,1.306c0.771,0.871,2.61,0.373,3.263-0.622
		c0.024-0.037,0.033-0.087,0.053-0.128c1.071-0.226,2.021,0.2,2.675,1.335c0.209-1.84-1.249-3.277-2.78-3.197
		c-0.372-0.706-1.116-1.236-2.262-0.995c-0.89,0.186-2.314-0.249-3.619-0.871c1.424-7.09,10.382-12.439,10.619-15.673
		c-0.712,4.478,2.61,5.349,2.136,8.085c1.808-2.007,2.103-3.715,1.992-5.222c1.31-0.376,2.448-1.27,3.194-2.513
		c2.694,0.851,5.584-0.234,7.245-2.719c1.767,0.674,3.195,0.246,4.313-0.68c-0.093,0.095-0.178,0.199-0.253,0.312
		c-0.926,1.358-0.552,5.53,3.204,5.819c0.387,2.353,3.02,3.583,5.396,2.944c0.815,0.969,1.977,1.493,3.175,1.433
		c-0.153,0.015-0.301,0.04-0.445,0.066c-1.721,0.311-2.076,1.43-2.017,2.674c-1.068,0-2.462,0.809-2.462,1.742
		c-0.89-0.311-2.891-0.281-4.183,0.622c-1.839,0.373-3.628,0.356-4.983-1.555c-1.535-2.164-3.723-3.225-4.768-2.328
		c-1.529-0.369-3.387,0.852-3.485,2.715c0.817-0.981,1.803-1.234,2.803-0.846c0.026,0.844,0.455,1.584,1.357,1.702
		c2.772,0.363,4.106,1.945,4.746,2.799c-2.803,1.225-6.235-2.902-8.096-1.251c-1.684-0.359-3.577,1.364-3.294,3.368h0
		c0.589-1.09,1.46-1.547,2.462-1.432c0.173,1.233,1.59,2.121,2.521,1.866c-0.13,0.193-0.204,0.381-0.25,0.566
		c-1.083,0.513-1.85,1.785-1.565,3.212c0.499-1.066,1.282-1.582,2.218-1.59c0.821,0.647,2.159,0.843,2.918,0.113
		c2.848-2.737,4.627-0.42,5.398-1.43c0.474-0.621,1.365-1.306,2.314-0.311c0.949,0.995,1.661,0.746,2.195,0.311
		c0.534-0.435,1.833-1.506,3.797,0.374c1.364,1.306,3.678,2.612,4.805,1.057c0.036-0.049,0.049-0.096,0.08-0.145
		c1.154-0.397,2.212-0.05,2.963,1.136c0.137-1.862-1.402-3.239-2.94-3.067c-0.37-0.455-1.007-0.722-1.706-0.661
		c-0.712,0.062-2.551,0-3.559-0.684c6.822-1.866,11.45-6.406,14.653-11.382c0.949,1.368,3.797,0.995,5.339,2.363
		c-0.119-6.842-6.763-4.602-9.967-7.339c-3.203-2.737,0.01-6.344,2.382-8.21c0.797,0.5,1.686,0.797,2.601,0.87
		c0.593,1.555,3.476,2.986,5.043,2.55c0.83,1.43,3.974,1.617,5.754,0.871c1.305,1.493,4.272,1.369,5.399,0.685
		c0.907,0.929,2.263,1.081,3.322,0.373c0,1.617,1.186,2.55,1.958,2.55c-0.949,0.871-0.415,3.359,0.474,3.918
		c-0.415,0.995-0.771,2.487-0.178,3.545c-1.127,0.933-1.78,1.928-1.187,3.421c-1.839,2.861-4.331,6.53-9.729-0.062
		c-1.403-1.714-2.658-1.737-3.394-1.03c-1.52-0.338-3.188,0.881-3.221,2.755c0.733-0.947,1.635-1.257,2.578-1.008
		c0.15,1.284,1.931,1.667,2.197,2.393c-1.947-0.163-2.991,0.13-3.366,0.824c-1.41,0.15-2.635,1.555-2.396,3.267h0
		c0.596-1.097,1.478-1.551,2.49-1.423c0.898,1.648,3.939-0.105,4.988,1.052c-1.618,0.299-2.264,0.958-2.361,1.684
		c-1.158,0.465-2,1.799-1.702,3.287c0.543-1.16,1.423-1.671,2.473-1.579c0.827,0.482,2.273,0.214,3.376-0.892
		c1.365-1.369,4.627-1.741,5.517-0.746c0.89,0.995,2.907,0.498,4.212-0.497c1.478-1.127,4.331-0.187,5.221,0.933
		c0.696,0.876,2.286,1.311,2.951,0.276c1.182-0.214,2.175,0.283,2.759,1.556v0c0.383-1.848-1.001-3.449-2.572-3.459
		c-0.663-1.702-3.969-0.23-4.503-3.474c-0.554-3.366,4.627-13.434,0.356-18.908c1.542,1.742,4.865,3.483,6.882,3.483
		c-1.661-4.105-6.334-6.78-11.628-8.956c-1.513-0.622-2.924-1.649-4.178-2.751c7.475,0,20.076-4.712,20.076-14.788
		c0-1.989-0.415-3.605-1.111-4.91c0.525-1.297,1.458-4.373,2.22-7.204c1.305,1.99,3.636,3.793,5.654,4.664
		C126.102,46.7,125.39,35.256,126.339,30.156z M109.729,57.135c-1.898,0-2.848-0.497-2.848-1.679c0-1.182,1.602-1.866,3.144-1.866
		c1.06,0,2.992,0.367,4.095,2.061C112.367,57.324,110.767,57.135,109.729,57.135z"/>
</g>
<polygon style="fill:#C8102E;" points="46.014,31.324 46.014,31.324 46.014,31.324 "/>
<polygon style="fill:#C8102E;" points="8.713,103.155 8.713,103.155 8.713,103.155 "/>
<path style="fill:#FFFFFF;" d="M29.136,29.675c-0.356,0.902,0.591,2.164,1.483,2.271c1.038,0.124,2.521-0.591,2.195-1.741"/>
<path d="M29.838,29.888l2.327,0.451C32.165,30.339,30.527,32.64,29.838,29.888z"/>
<g style="opacity:0.6;">
	<path style="fill:#FFFFFF;" d="M33.14,36.175l-0.28-0.571c-4.825,1.429-15.206,2.497-21.231,2.11
		c1.046-0.537,2.083-1.392,2.587-1.788c-2.195,0.249-8.306-2.239-10.856-4.167c0.89,3.732,6.288,9.889,9.551,10.946v0
		c-0.372-0.815-0.932-1.727-1.469-2.617c7.256-0.254,13.834,0.265,23.419-1.534L33.14,36.175z"/>
	<path style="fill:#FFFFFF;" d="M126.339,30.156c-2.61,3.732-10.56,11.942-14.357,15.922c2.017,0.249,5.472-0.027,7.133-0.401
		l-1.721,4.546c-2.266-1.532-5.148-2.045-7.548-2.045c-3.441,0-7.712,2.488-7.712,6.841s3.559,5.971,7.356,5.971
		c1.886-0.004,3.742-0.523,5.402-1.509c0.033-0.186,0.049-0.375,0.053-0.565c-0.003,0.193-0.017,0.385-0.05,0.574
		c-0.668,4.014-7.755,5.54-12.049,4.237c-4.509-1.368-11.868-2.339-15.665-1.966c2.113-3.553,7.159-6.103,10.8-4.751
		c-5.339-5.598-0.831-14.43,8.899-17.663c-7.594-2.861-3.204-9.33,5.458-15.425c-6.288,2.861-14.357,6.344-17.798,7.712
		c-3.44,1.368-9.61,2.487-5.102-9.578C70.693,33.501,58.353,40.715,58.353,47.184c0,6.469,1.336,10.576-4.272,11.195
		c-2.537,0.269-5.041,0.84-7.467,1.701c-1.127-2.674-0.838-4.064-0.304-4.313c0.534-0.249,2.314-0.435,3.441,0.125
		c-0.356-1.99-1.721-2.924-2.907-3.297s-1.334-0.808-1.245-2.115c0.089-1.306,0.207-1.679,0.89-1.555
		c1.24,0.226,3.263,0.746,4.272,1.679c-0.119-3.421-2.017-4.354-2.907-4.478c-0.89-0.124-1.608-0.25-1.216-2.301
		c0.237-1.244,0.504-1.43,1.453-1.43c0.949,0,2.432,0.56,3.5,1.244c-0.06-2.239-1.305-3.919-2.61-4.23
		c-0.999-0.238-1.593-0.196-1.424-1.617c0.178-1.493,2.254-0.871,3.738-0.435c-1.246-2.239-3.203-2.986-4.093-3.359
		c-0.89-0.373-0.949-1.368-1.186-2.674c-1.068-0.622-0.83-1.244-0.415-1.555c0.415-0.311,3.025-2.177,5.102-3.421
		c-0.7-0.034-1.4,0.05-2.076,0.249c0.653-0.871,1.127-3.732,0.831-4.789c-0.494,1.131-1.967,1.706-3.682,2.244
		c0.593-1.617,0.954-3.488,0.36-3.986c-0.653,2.612-7.238,2.953-8.365,6.25c-1.798,0.095-3.61,0.09-5.161-0.155
		c-2.373-0.373-4.805-0.933-6.822,2.985c-4.627-0.373-10.916,1.244-13.585,4.914c3.619-0.746,6.941-0.871,9.729-0.187
		c-0.183,1.146,0.651,2.762,1.987,2.751c0.158,0.476,0.529,1.125,1.098,1.354c0.022-0.346-0.265-1.033-0.282-1.556
		c0.118-0.056,0.239-0.125,0.361-0.207l0.425,0.426l0.135-0.851c0.102-0.085,0.207-0.177,0.312-0.269l0.679,0.529l0.068-1.161
		c0.082-0.067,0.163-0.135,0.247-0.2l0.723,0.521v-1.007c1.789-1.053,3.999-0.94,6.704,5.019c-1.003-0.391-2.044-0.388-3.079-0.2
		l-0.125-0.299l-0.177,0.36c-0.244,0.053-0.487,0.112-0.73,0.182l-0.398-0.479l-0.085,0.628c-0.291,0.094-0.581,0.193-0.867,0.298
		l-0.649-0.521L28.13,40.01c-0.127,0.048-0.251,0.094-0.376,0.142l-0.606-0.805l-0.278,1.127c-0.07,0.024-0.142,0.051-0.211,0.074
		l-1.143-0.86l-0.449,1.235c-0.051,0.005-0.1,0.007-0.15,0.011c-0.329-0.468-0.52-0.945-0.528-1.556
		c-0.445,0.192-0.806,0.767-0.929,1.264c-0.141-0.083-0.279-0.176-0.406-0.3c-0.474,1.741,1.115,2.674,1.068,3.669
		c-0.059,1.244,0.297,3.048,1.305,4.167c0.059-2.674,1.424-3.359,1.424-5.287c0.415,0.746,0.593,1.742,0.712,2.488
		c0.962-1.805,2.142-3.742,5.159-4.426C32.689,41.6,32.9,42.232,33.305,42.7c-1.72,0.933-1.944,2.929-1.648,4.547
		c-1.246,0.125-2.255,2.425-1.958,4.105c-1.957,1.306-2.356,3.358-2.314,4.913c-1.957,1.493-2.193,4.359-1.602,5.909
		c-2.077,1.493-2.136,5.224-0.119,7.588c-0.56,0.751-0.867,1.692-0.869,2.664c-0.623-0.062-1.652,0.011-2.038,0.229
		c-0.512-1.15-2.284-1.4-3.47-1.275c-0.261-1.201-2.136-2.053-3.115-2.115c0-1.12-0.949-2.488-2.432-3.669
		c-0.119-3.048-0.772-5.411-1.839-7.401c-0.534-1.306,1.305-2.488,2.195-3.234c0.784-0.657,1.077-1.926,0.8-2.955
		c0.989-1.304,0.64-3.463-1.002-4.287c0.534,1.125,0.406,2.141-0.25,2.948c-0.863-0.054-1.804,1.018-2.455,1.993
		c0.541-1.249,1.272-4.971-0.495-5.616c-0.047-1.749-1.815-3.154-3.603-2.509c1.326,0.478,1.911,1.514,1.787,2.846
		c-0.6,0.514-0.822,1.428-0.358,2.481c-0.534,0.933-0.771,2.364-0.594,3.11c-1.163-0.407-1.19-3.738-2.974-3.774
		c-0.657-1.469-2.578-2.136-4.026-1.047c1.288,0.055,2.081,0.772,2.395,1.903c-0.591,0.832-0.502,2.048,0.393,2.731
		c-0.474,1.182-0.06,2.55,1.186,3.11c1.246,0.56,1.78,2.115,1.424,3.048c-0.356,0.933-0.89,2.426-0.534,3.669
		c0.356,1.244,0.208,2.239-0.682,2.55c-0.89,0.311-0.623,2.799-2.047,3.172c-1.017,0.266-1.114,1.668-0.575,2.678
		C2.137,72.156,1.309,72.856,0,72.854c1.368,1.123,3.258,0.604,4.015-0.756c1.042,0.123,1.625-0.803,1.776-1.964
		c0.178-1.368,1.78-2.985,1.839-4.602c1.602,10.884,13.467,12.253,13.941,25.935c1.424-1.741,3.085-5.349,3.085-6.841
		c1.848-0.031,3.684-0.327,5.462-0.882c0.507,0.207,1.038,0.334,1.577,0.38c-0.186,0.66-0.136,1.373,0.14,1.994
		c-0.949,0.374-1.821,2.235-1.543,3.732c-2.289,0.389-0.207,3.343-3.782,7.028c-4.123,4.198-8.854,0.529-10.189-0.249
		c-0.616-0.359-1.156-0.343-1.607-0.111c-1.345-0.932-3.393-0.336-4,1.487v0c1.016-0.686,2.001-0.66,2.843-0.05
		c-0.286,0.726-0.379,1.553-0.232,2.156c-0.135,0.149-0.249,0.301-0.348,0.455c-1.582-0.702-4.159,0.568-4.265,2.588
		c0.957-1.149,2.736-1.369,3.906-0.662c0.026,0.016,0.048,0.01,0.074,0.021c0.126,0.376,0.349,0.742,0.692,1.082
		c-0.103,0.18-0.136,0.395-0.134,0.621c-1.36,0.441-2.293,2.086-1.725,3.717c0.425-1.377,1.386-1.996,2.629-1.915
		c0.343,0.324,0.76,0.598,1.247,0.749c1.602,0.497,4.303-0.461,5.102-1.369c2.136-2.426,5.102,0,5.992-1.057
		c0.89-1.057,3.026-1.617,3.797,0c0.771,1.617,2.373,0.435,3.144,1.306c0.771,0.871,2.61,0.373,3.263-0.622
		c0.024-0.037,0.033-0.087,0.053-0.128c1.071-0.226,2.021,0.2,2.675,1.335c0.209-1.84-1.249-3.277-2.78-3.197
		c-0.372-0.706-1.116-1.236-2.262-0.995c-0.89,0.186-2.314-0.249-3.619-0.871c1.424-7.09,10.382-12.439,10.619-15.673
		c-0.712,4.478,2.61,5.349,2.136,8.085c1.808-2.007,2.103-3.715,1.992-5.222c1.31-0.376,2.448-1.27,3.194-2.513
		c2.694,0.851,5.584-0.234,7.245-2.719c1.767,0.674,3.195,0.246,4.313-0.68c-0.093,0.095-0.178,0.199-0.253,0.312
		c-0.926,1.358-0.552,5.53,3.204,5.819c0.387,2.353,3.02,3.583,5.396,2.944c0.815,0.969,1.977,1.493,3.175,1.433
		c-0.153,0.015-0.301,0.04-0.445,0.066c-1.721,0.311-2.076,1.43-2.017,2.674c-1.068,0-2.462,0.809-2.462,1.742
		c-0.89-0.311-2.891-0.281-4.183,0.622c-1.839,0.373-3.628,0.356-4.983-1.555c-1.535-2.164-3.723-3.225-4.768-2.328
		c-1.529-0.369-3.387,0.852-3.485,2.715c0.817-0.981,1.803-1.234,2.803-0.846c0.026,0.844,0.455,1.584,1.357,1.702
		c2.772,0.363,4.106,1.945,4.746,2.799c-2.803,1.225-6.235-2.902-8.096-1.251c-1.684-0.359-3.577,1.364-3.294,3.368h0
		c0.589-1.09,1.46-1.547,2.462-1.432c0.173,1.233,1.59,2.121,2.521,1.866c-0.13,0.193-0.204,0.381-0.25,0.566
		c-1.083,0.513-1.85,1.785-1.565,3.212c0.499-1.066,1.282-1.582,2.218-1.59c0.821,0.647,2.159,0.843,2.918,0.113
		c2.848-2.737,4.627-0.42,5.398-1.43c0.474-0.621,1.365-1.306,2.314-0.311c0.949,0.995,1.661,0.746,2.195,0.311
		c0.534-0.435,1.833-1.506,3.797,0.374c1.364,1.306,3.678,2.612,4.805,1.057c0.036-0.049,0.049-0.096,0.08-0.145
		c1.154-0.397,2.212-0.05,2.963,1.136c0.137-1.862-1.402-3.239-2.94-3.067c-0.37-0.455-1.007-0.722-1.706-0.661
		c-0.712,0.062-2.551,0-3.559-0.684c6.822-1.866,11.45-6.406,14.653-11.382c0.949,1.368,3.797,0.995,5.339,2.363
		c-0.119-6.842-6.763-4.602-9.967-7.339c-3.203-2.737,0.01-6.344,2.382-8.21c0.797,0.5,1.686,0.797,2.601,0.87
		c0.593,1.555,3.476,2.986,5.043,2.55c0.83,1.43,3.974,1.617,5.754,0.871c1.305,1.493,4.272,1.369,5.399,0.685
		c0.907,0.929,2.263,1.081,3.322,0.373c0,1.617,1.186,2.55,1.958,2.55c-0.949,0.871-0.415,3.359,0.474,3.918
		c-0.415,0.995-0.771,2.487-0.178,3.545c-1.127,0.933-1.78,1.928-1.187,3.421c-1.839,2.861-4.331,6.53-9.729-0.062
		c-1.403-1.714-2.658-1.737-3.394-1.03c-1.52-0.338-3.188,0.881-3.221,2.755c0.733-0.947,1.635-1.257,2.578-1.008
		c0.15,1.284,1.931,1.667,2.197,2.393c-1.947-0.163-2.991,0.13-3.366,0.824c-1.41,0.15-2.635,1.555-2.396,3.267h0
		c0.596-1.097,1.478-1.551,2.49-1.423c0.898,1.648,3.939-0.105,4.988,1.052c-1.618,0.299-2.264,0.958-2.361,1.684
		c-1.158,0.465-2,1.799-1.702,3.287c0.543-1.16,1.423-1.671,2.473-1.579c0.827,0.482,2.273,0.214,3.376-0.892
		c1.365-1.369,4.627-1.741,5.517-0.746c0.89,0.995,2.907,0.498,4.212-0.497c1.478-1.127,4.331-0.187,5.221,0.933
		c0.696,0.876,2.286,1.311,2.951,0.276c1.182-0.214,2.175,0.283,2.759,1.556v0c0.383-1.848-1.001-3.449-2.572-3.459
		c-0.663-1.702-3.969-0.23-4.503-3.474c-0.554-3.366,4.627-13.434,0.356-18.908c1.542,1.742,4.865,3.483,6.882,3.483
		c-1.661-4.105-6.334-6.78-11.628-8.956c-1.513-0.622-2.924-1.649-4.178-2.751c7.475,0,20.076-4.712,20.076-14.788
		c0-1.989-0.415-3.605-1.111-4.91c0.525-1.297,1.458-4.373,2.22-7.204c1.305,1.99,3.636,3.793,5.654,4.664
		C126.102,46.7,125.39,35.256,126.339,30.156z M109.729,57.135c-1.898,0-2.848-0.497-2.848-1.679c0-1.182,1.602-1.866,3.144-1.866
		c1.06,0,2.992,0.367,4.095,2.061C112.367,57.324,110.767,57.135,109.729,57.135z"/>
</g>
</svg>
