<?xml version="1.0" encoding="iso-8859-1"?>
<!-- Generator: Adobe Illustrator 27.8.0, SVG Export Plug-In . SVG Version: 6.00 Build 0)  -->
<svg version="1.1" id="Layer_1" xmlns="http://www.w3.org/2000/svg" xmlns:xlink="http://www.w3.org/1999/xlink" x="0px" y="0px"
	 viewBox="0 0 512 512" style="enable-background:new 0 0 512 512;" xml:space="preserve">
<path style="fill:#DCE0DF;" d="M287.026,45.464c1.475-3.764,2.293-7.858,2.293-12.145C289.319,14.917,274.402,0,256,0
	s-33.319,14.917-33.319,33.319c0,4.287,0.819,8.381,2.293,12.145C110.246,60.645,21.708,158.832,21.708,277.708
	C21.708,407.104,126.604,512,256,512s234.292-104.896,234.292-234.292C490.292,158.832,401.754,60.645,287.026,45.464z"/>
<circle style="fill:#878787;" cx="256" cy="277.648" r="216"/>
<circle style="fill:#1E1E1E;" cx="256" cy="189.372" r="50"/>
<circle style="fill:#1E1E1E;" cx="160" cy="339.44" r="35"/>
<circle style="fill:#1E1E1E;" cx="352" cy="339.44" r="35"/>
</svg>
