<?xml version="1.0" encoding="UTF-8"?>
<svg id="Layer_1" data-name="Layer 1" xmlns="http://www.w3.org/2000/svg" viewBox="0 0 103.21 128">
  <defs>
    <style>
      .cls-1 {
        fill: #2a6185;
      }
    </style>
  </defs>
  <path class="cls-1" d="m0,89.93v38.07h5.39c5.12,0,9.27-4.15,9.27-9.27v-14.24c-5.96-3.64-11-8.61-14.66-14.55"/>
  <path class="cls-1" d="m66,59.75h-29.1c-4.55,0-8.13,4.15-7.18,8.88.68,3.42,3.89,5.81,7.37,5.81h28.9c20.31,0,36.87-16.34,37.21-36.59C103.56,17.02,85.83,0,65.03,0H0v44.14c3.67-5.94,8.7-10.93,14.68-14.53v-14.93h51.34c13.14,0,22.43,11.31,22.43,23.16s-10.71,21.9-22.43,21.9"/>
  <path class="cls-1" d="m64.5,83.38h-5.54v6.2h-21.75c-12.43,0-22.54-10.11-22.54-22.54s10.11-22.54,22.54-22.54h29.1c4.06,0,7.33-3.29,7.33-7.33s-3.29-7.33-7.33-7.33h-29.1c-20.51,0-37.21,16.69-37.21,37.21s16.69,37.21,37.21,37.21h36.43v-11.75c0-5.06-4.08-9.14-9.14-9.14"/>
</svg>