<?xml version="1.0" encoding="iso-8859-1"?>
<!-- Generator: Adobe Illustrator 27.8.1, SVG Export Plug-In . SVG Version: 6.00 Build 0)  -->
<svg version="1.1" id="Layer_1" xmlns="http://www.w3.org/2000/svg" xmlns:xlink="http://www.w3.org/1999/xlink" x="0px" y="0px"
	 viewBox="0 0 128 128" style="enable-background:new 0 0 128 128;" xml:space="preserve">
<path style="fill:#FFFFFF;" d="M65.062,128c-0.145-0.003-0.289-0.018-0.431-0.045l-0.746-0.136
	c-10.864-1.969-21.241-6.033-30.553-11.965c-13.93-9.347-20.995-22.216-20.995-38.253c-0.2-11.219,4.565-21.954,13.02-29.331
	c7.627-7.023,17.619-11.929,26.435-16.259c12.608-6.191,23.494-11.539,23.494-20.87c0-6.272-7.196-9.397-11.484-10.702l-0.484-0.134
	C62.835,0.17,62.76,0.089,62.76,0.061V0.042C62.774,0.014,62.841,0,62.947,0c0.143,0.004,0.285,0.019,0.426,0.047l0.749,0.136
	c10.863,1.969,21.239,6.033,30.55,11.965c13.93,9.341,20.992,22.211,20.992,38.244c0.201,11.22-4.564,21.956-13.02,29.334
	c-7.627,7.023-17.619,11.929-26.435,16.259c-12.608,6.191-23.494,11.539-23.494,20.87c0,6.355,7.352,9.48,11.734,10.774l0.237,0.07
	c0.504,0.147,0.573,0.225,0.557,0.259C65.226,127.992,65.181,128,65.062,128z M79.598,8.609c0.434,0.776,0.656,1.652,0.646,2.541
	c-0.103,5.362-2.603,10.397-6.815,13.718c-4.854,3.934-10.196,7.225-15.894,9.789l-6.035,2.975
	c-8.202,3.676-15.86,8.462-22.759,14.225C21.268,58.295,17.07,67.74,17.298,77.601c-0.241,11.522,4.688,22.548,13.434,30.052
	c-1.856-3.296-2.825-7.017-2.813-10.799c0.006-3.644,1.084-7.205,3.1-10.24c2.211-3.285,4.975-6.161,8.17-8.501
	C46.997,72.646,55.299,67.921,63.987,64c8.688-3.92,16.99-8.644,24.799-14.111c7.585-5.843,11.272-11.985,11.272-18.746
	C100.056,16.996,83.015,9.889,79.598,8.609z"/>
</svg>
