<?xml version="1.0" encoding="UTF-8"?>
<svg id="Layer_1" data-name="Layer 1" xmlns="http://www.w3.org/2000/svg" viewBox="0 0 128 127.9">
  <path d="m63.98,127.9c35.03,0,64.02-28.97,64.02-63.93S98.96,0,63.93,0,0,28.97,0,63.98s28.99,63.93,63.98,63.93Zm0-9.13c-30.37,0-54.79-24.45-54.79-54.79S33.56,9.18,63.93,9.18s54.89,24.4,54.89,54.79-24.42,54.79-54.84,54.79Z"/>
  <path d="m61.91,38.15l-26.93,22.59v27.64c0,4.37,2.6,6.92,7.08,6.92h43.88c4.42,0,7.03-2.55,7.03-6.92v-27.59l-26.98-22.63c-1.33-1.13-2.75-1.08-4.08,0Zm10.56,30.29v21.26h-17v-21.26c0-1.47.98-2.41,2.41-2.41h12.19c1.47,0,2.41.93,2.41,2.41Z"/>
  <path d="m102.06,56.27l-9.09-7.63v-12.99c0-1.28-.84-2.16-2.11-2.16h-3.29c-1.28,0-2.16.88-2.16,2.16v6.65l-16.76-14.06c-2.8-2.41-6.44-2.41-9.29,0l-33.51,28.04c-.69.59-1.03,1.37-1.03,2.16,0,1.33,1.08,2.6,2.8,2.6.84,0,1.52-.49,2.11-1.03l32.43-27.15c1.28-1.08,2.41-.98,3.64,0l32.33,27.15c.74.54,1.38,1.03,2.21,1.03,1.47,0,2.7-1.03,2.7-2.5,0-.98-.29-1.67-.98-2.26Z"/>
</svg>