<?xml version="1.0" encoding="iso-8859-1"?>
<!-- Generator: Adobe Illustrator 27.8.1, SVG Export Plug-In . SVG Version: 6.00 Build 0)  -->
<svg version="1.1" id="Layer_1" xmlns="http://www.w3.org/2000/svg" xmlns:xlink="http://www.w3.org/1999/xlink" x="0px" y="0px"
	 viewBox="0 0 128 128" style="enable-background:new 0 0 128 128;" xml:space="preserve">
<g>
	<path style="fill:#FFFFFF;" d="M32.627,17.11c7.625-5.15,16.535-8.495,26.1-9.392C52.8,13.842,47.665,20.622,43.405,27.892
		l4.91,4.91C53.57,23.47,60.337,14.962,68.407,7.65c1.418,0.115,2.82,0.28,4.205,0.5c-6.548,10.932-11.105,22.942-13.417,35.537
		l5.865,5.867c1.912-14.32,6.878-27.85,14.503-39.845c0.065,0.02,0.13,0.04,0.195,0.06c-2.668,8.032-3.918,16.535-3.745,25.265
		C76.15,42.1,77.075,49.02,78.74,55.61c-2.33,0.22-4.683,0.342-7.052,0.357c-0.073,0-0.147,0-0.22,0l6.463,6.465
		c0.92-0.072,1.838-0.153,2.75-0.252c0.555,1.632,1.162,3.24,1.815,4.818l33.722,33.735C123.622,90.3,128,77.615,128,64.022
		C128,28.99,98.96,0,63.927,0C50.355,0,37.692,4.365,27.275,11.752l5.355,5.355L32.627,17.11z M112.197,93.322
		c-1.202-0.757-2.37-1.56-3.503-2.405c2.08-0.753,4.14-1.573,6.18-2.46C114.06,90.125,113.167,91.747,112.197,93.322z
		 M120.532,64.025c0,5.257-0.743,10.36-2.122,15.21c-5.062,2.66-10.298,4.85-15.643,6.57c-6.765-6.707-11.925-15.16-15.312-24.638
		c11.097-2.123,21.57-6.403,30.89-12.585c1.423,4.92,2.188,10.103,2.188,15.445V64.025z M86.05,12.05
		c13.365,5.77,24.165,16.567,29.925,29.93c-9.1,6.347-19.485,10.687-30.522,12.702c-1.647-6.295-2.565-12.937-2.707-19.745
		c-0.21-7.853,0.925-15.595,3.302-22.887L86.05,12.05z"/>
	<path style="fill:#FFFFFF;" d="M95.212,110.977c-4.45,2.985-9.338,5.357-14.535,6.993c-4.272-6.503-7.777-13.46-10.44-20.747
		c3.632,0.075,7.27-0.037,10.895-0.332l-6.372-6.375c-2.243,0.052-4.485,0.033-6.728-0.065c-0.825-2.875-1.518-5.795-2.082-8.747
		l-7.965-7.967c0.555,5.488,1.528,10.882,2.903,16.15c-8.62-0.995-17.127-3.113-25.29-6.327c-0.23-9.81,1.013-19.445,3.57-28.65
		l-5.375-5.377c-3.138,9.947-4.82,20.415-4.888,31.108c-7.562-3.635-14.752-8.257-21.367-13.855c-0.045-0.915-0.07-1.835-0.07-2.76
		c0-11.51,3.535-22.277,9.56-31.262l-5.355-5.358C4.335,37.82,0,50.47,0,64.025C0,99.01,28.99,128,63.975,128
		c13.543,0,26.177-4.335,36.59-11.667L95.212,110.977z M8.877,76.45c6.37,4.685,13.165,8.588,20.245,11.7
		c0.06,0.915,0.128,1.832,0.21,2.75c0.19,6.657,1.167,13.257,2.908,19.71C20.653,102.642,12.1,90.492,8.875,76.447L8.877,76.45z
		 M63.975,120.532c-8.198,0-16.02-1.8-23.092-5.025c-2.895-7.887-4.525-16.11-4.855-24.602c8.715,3.13,17.77,5.107,26.925,5.917
		c2.683,8.007,6.31,15.665,10.81,22.84c-3.185,0.567-6.455,0.868-9.787,0.868V120.532z"/>
</g>
<path style="fill:#FFFFFF;" d="M119.137,125.122c1.622,1.622,4.325,1.573,5.897-0.05c1.67-1.67,1.67-4.275,0-5.945L8.875,2.92
	C7.252,1.298,4.6,1.25,2.93,2.92s-1.622,4.325,0,5.945L119.137,125.122z"/>
</svg>
