<?xml version="1.0" encoding="UTF-8"?>
<svg id="Layer_1" data-name="Layer 1" xmlns="http://www.w3.org/2000/svg" viewBox="0 0 128 128">
  <defs>
    <style>
      .cls-1 {
        fill: #fff;
      }
    </style>
  </defs>
  <path d="m99.85,53.87l-15.59-7.79v-19.22c0-4.65-3.79-8.44-8.44-8.44h-23.63c-4.65,0-8.44,3.79-8.44,8.44v19.22l-15.59,7.79c-2.88,1.44-4.67,4.33-4.67,7.55v32.97c0,2.79,2.27,5.06,5.06,5.06h70.9c2.79,0,5.06-2.27,5.06-5.06v-32.97c0-3.22-1.79-6.11-4.67-7.55ZM26.86,94.39v-32.97c0-1.93,1.07-3.67,2.8-4.53l14.09-7.04v46.23h-15.19c-.93,0-1.69-.76-1.69-1.69ZM47.12,26.86c0-2.79,2.27-5.06,5.06-5.06h23.63c2.79,0,5.06,2.27,5.06,5.06v69.21h-6.75v-10.13c0-5.58-4.54-10.13-10.13-10.13s-10.13,4.54-10.13,10.13v10.13h-6.75V26.86Zm23.63,69.21h-13.5v-10.13c0-3.72,3.03-6.75,6.75-6.75s6.75,3.03,6.75,6.75v10.13Zm30.39-1.69c0,.93-.76,1.69-1.69,1.69h-15.19v-46.22l14.08,7.04c1.73.86,2.8,2.6,2.8,4.53v32.97Z"/>
  <path d="m55.56,55.56h16.88c.93,0,1.69-.76,1.69-1.69s-.76-1.69-1.69-1.69h-16.88c-.93,0-1.69.76-1.69,1.69s.76,1.69,1.69,1.69Z"/>
  <path d="m55.56,65.69h16.88c.93,0,1.69-.76,1.69-1.69s-.76-1.69-1.69-1.69h-16.88c-.93,0-1.69.76-1.69,1.69s.76,1.69,1.69,1.69Z"/>
  <path d="m38.68,85.95h-6.75c-.93,0-1.69.76-1.69,1.69s.76,1.69,1.69,1.69h6.75c.93,0,1.69-.76,1.69-1.69s-.76-1.69-1.69-1.69Z"/>
  <path d="m38.68,75.82h-6.75c-.93,0-1.69.76-1.69,1.69s.76,1.69,1.69,1.69h6.75c.93,0,1.69-.76,1.69-1.69s-.76-1.69-1.69-1.69Z"/>
  <path d="m31.93,69.06h6.75c.93,0,1.69-.76,1.69-1.69s-.76-1.69-1.69-1.69h-6.75c-.93,0-1.69.76-1.69,1.69s.76,1.69,1.69,1.69Z"/>
  <path d="m96.07,85.95h-6.75c-.93,0-1.69.76-1.69,1.69s.76,1.69,1.69,1.69h6.75c.93,0,1.69-.76,1.69-1.69s-.76-1.69-1.69-1.69Z"/>
  <path d="m96.07,75.82h-6.75c-.93,0-1.69.76-1.69,1.69s.76,1.69,1.69,1.69h6.75c.93,0,1.69-.76,1.69-1.69s-.76-1.69-1.69-1.69Z"/>
  <path d="m96.07,65.69h-6.75c-.93,0-1.69.76-1.69,1.69s.76,1.69,1.69,1.69h6.75c.93,0,1.69-.76,1.69-1.69s-.76-1.69-1.69-1.69Z"/>
  <g>
    <polygon points="77.93 41.02 77.93 29.8 50.07 29.8 50.07 41.02 77.93 41.02 77.93 41.02"/>
    <polygon class="cls-1" points="61.27 30.88 59.35 39.91 56.33 39.91 54.43 33.66 54.41 33.66 53.15 39.91 50.86 39.91 52.8 30.88 55.82 30.88 57.68 37.14 57.71 37.14 58.98 30.88 61.27 30.88 61.27 30.88"/>
    <polygon class="cls-1" points="69.9 30.88 68.02 39.91 65.59 39.91 66.39 36.04 63.52 36.04 62.71 39.91 60.28 39.91 62.17 30.88 64.6 30.88 63.88 34.34 66.76 34.34 67.47 30.88 69.9 30.88 69.9 30.88"/>
    <path class="cls-1" d="m76.88,31.13l-.59,1.8c-.47-.22-1.1-.41-2-.41-.96,0-1.74.14-1.74.87,0,1.28,3.52.8,3.52,3.54,0,2.5-2.33,3.14-4.43,3.14-.94,0-2.02-.22-2.81-.47l.57-1.84c.48.31,1.44.52,2.24.52s1.94-.14,1.94-1.07c0-1.45-3.52-.91-3.52-3.45,0-2.33,2.05-3.03,4.04-3.03,1.12,0,2.17.12,2.78.4h0Z"/>
  </g>
  <path d="m63.98,128c35.03,0,64.02-28.99,64.02-63.98S98.96,0,63.93,0,0,28.99,0,64.02s28.99,63.98,63.98,63.98Zm0-9.14c-30.37,0-54.79-24.47-54.79-54.84S33.56,9.19,63.93,9.19s54.89,24.42,54.89,54.84-24.42,54.84-54.84,54.84Z"/>
</svg>