<?xml version="1.0" encoding="UTF-8"?>
<svg id="Layer_1" data-name="Layer 1" xmlns="http://www.w3.org/2000/svg" viewBox="0 0 128 128">
  <path d="m63.98,128c35.03,0,64.02-28.99,64.02-63.98S98.96,0,63.93,0,0,28.99,0,64.02s28.99,63.98,63.98,63.98Zm0-9.14c-30.37,0-54.79-24.47-54.79-54.84S33.56,9.19,63.93,9.19s54.89,24.42,54.89,54.84-24.42,54.84-54.84,54.84Z"/>
  <g>
    <path d="m45.16,70.06h2.69v4.04h2.69v-10.77h-2.69v4.04h-2.69v-4.04h-2.69v10.77h2.69v-4.04Z"/>
    <path d="m55.93,74.09c2.23,0,4.04-1.81,4.04-4.04v-2.69c0-2.23-1.81-4.04-4.04-4.04s-4.04,1.81-4.04,4.04v2.69c0,2.23,1.81,4.04,4.04,4.04Zm-1.35-6.73c0-.74.6-1.35,1.35-1.35s1.35.6,1.35,1.35v2.69c0,.74-.6,1.35-1.35,1.35s-1.35-.6-1.35-1.35v-2.69Z"/>
    <path d="m64,74.09h2.69v-8.07h2.69v-2.69h-8.07v2.69h2.69v8.07Z"/>
    <path d="m72.07,74.09h5.38v-2.69h-4.04v-1.35h4.04v-2.69h-4.04v-1.35h4.04v-2.69h-5.38c-.74,0-1.35.6-1.35,1.35v8.07c0,.74.6,1.35,1.35,1.35Z"/>
    <path d="m80.15,74.09h5.38v-2.69h-4.04v-8.07h-2.69v9.42c0,.74.6,1.35,1.35,1.35Z"/>
    <path d="m85.53,78.13c2.23,0,4.04-1.81,4.04-4.04v-10.77c0-2.23-1.81-4.04-4.04-4.04h-43.06c-2.23,0-4.04,1.81-4.04,4.04v10.77c0,2.23,1.81,4.04,4.04,4.04h43.06Zm-44.41-4.04v-10.77c0-.74.6-1.35,1.35-1.35h43.06c.74,0,1.35.6,1.35,1.35v10.77c0,.74-.6,1.35-1.35,1.35h-43.06c-.74,0-1.35-.6-1.35-1.35Z"/>
    <path d="m30.36,95.62c-2.23,0-4.04,1.81-4.04,4.04h0v1.35c0,.74.6,1.35,1.35,1.35h72.67c.74,0,1.35-.6,1.35-1.35v-1.35c0-2.23-1.81-4.04-4.04-4.04h-2.69V31.03h.67c1.86,0,3.36-1.51,3.36-3.36s-1.51-3.36-3.36-3.36h-18.17v-4.04c0-.74-.6-1.35-1.35-1.35h-25.57c-.74,0-1.35.6-1.35,1.35v4.04h-16.82c-1.86,0-3.36,1.51-3.36,3.36s1.51,3.36,3.36,3.36h.67v64.6h-2.69Zm68.63,4.04H29.01c0-.74.6-1.35,1.35-1.35h67.29c.74,0,1.35.6,1.35,1.35Zm-20.19-4.04h-5.38v-13.46h5.38v13.46Zm-8.07,0h-5.38v-13.46h5.38v13.46Zm-8.07,0h-5.38v-13.46h5.38v13.46Zm-8.07,0h-5.38v-13.46h5.38v13.46Zm-2.69-74.02h22.88v2.69h-22.88v-2.69Zm-20.19,6.06c0-.37.3-.67.67-.67h63.25c.37,0,.67.3.67.67s-.3.67-.67.67h-63.25c-.37,0-.67-.3-.67-.67Zm4.04,3.36h56.52v64.6h-10.77v-14.8c0-.74-.6-1.35-1.35-1.35h-32.3c-.74,0-1.35.6-1.35,1.35v14.8h-10.77V31.03Z"/>
    <path d="m39.78,43.14h8.07c.74,0,1.35-.6,1.35-1.35v-8.07c0-.74-.6-1.35-1.35-1.35h-8.07c-.74,0-1.35.6-1.35,1.35v8.07c0,.74.6,1.35,1.35,1.35Zm1.35-8.07h5.38v5.38h-5.38v-5.38Z"/>
    <path d="m39.78,56.6h8.07c.74,0,1.35-.6,1.35-1.35v-8.07c0-.74-.6-1.35-1.35-1.35h-8.07c-.74,0-1.35.6-1.35,1.35v8.07c0,.74.6,1.35,1.35,1.35Zm1.35-8.07h5.38v5.38h-5.38v-5.38Z"/>
    <path d="m53.23,56.6h8.07c.74,0,1.35-.6,1.35-1.35v-8.07c0-.74-.6-1.35-1.35-1.35h-8.07c-.74,0-1.35.6-1.35,1.35v8.07c0,.74.6,1.35,1.35,1.35Zm1.35-8.07h5.38v5.38h-5.38v-5.38Z"/>
    <path d="m53.23,43.14h8.07c.74,0,1.35-.6,1.35-1.35v-8.07c0-.74-.6-1.35-1.35-1.35h-8.07c-.74,0-1.35.6-1.35,1.35v8.07c0,.74.6,1.35,1.35,1.35Zm1.35-8.07h5.38v5.38h-5.38v-5.38Z"/>
    <path d="m66.69,43.14h8.07c.74,0,1.35-.6,1.35-1.35v-8.07c0-.74-.6-1.35-1.35-1.35h-8.07c-.74,0-1.35.6-1.35,1.35v8.07c0,.74.6,1.35,1.35,1.35Zm1.35-8.07h5.38v5.38h-5.38v-5.38Z"/>
    <path d="m66.69,56.6h8.07c.74,0,1.35-.6,1.35-1.35v-8.07c0-.74-.6-1.35-1.35-1.35h-8.07c-.74,0-1.35.6-1.35,1.35v8.07c0,.74.6,1.35,1.35,1.35Zm1.35-8.07h5.38v5.38h-5.38v-5.38Z"/>
    <path d="m80.15,56.6h8.07c.74,0,1.35-.6,1.35-1.35v-8.07c0-.74-.6-1.35-1.35-1.35h-8.07c-.74,0-1.35.6-1.35,1.35v8.07c0,.74.6,1.35,1.35,1.35Zm1.35-8.07h5.38v5.38h-5.38v-5.38Z"/>
    <path d="m80.15,43.14h8.07c.74,0,1.35-.6,1.35-1.35v-8.07c0-.74-.6-1.35-1.35-1.35h-8.07c-.74,0-1.35.6-1.35,1.35v8.07c0,.74.6,1.35,1.35,1.35Zm1.35-8.07h5.38v5.38h-5.38v-5.38Z"/>
  </g>
</svg>