<?xml version="1.0" encoding="iso-8859-1"?>
<!-- Generator: Adobe Illustrator 27.8.1, SVG Export Plug-In . SVG Version: 6.00 Build 0)  -->
<svg version="1.1" id="Layer_1" xmlns="http://www.w3.org/2000/svg" xmlns:xlink="http://www.w3.org/1999/xlink" x="0px" y="0px"
	 viewBox="0 0 512 512" style="enable-background:new 0 0 512 512;" xml:space="preserve">
<path d="M337.093,307.554h-23.404v43.407c0,2.329-1.888,4.216-4.216,4.216h-18.687V372.8h0.108c1.105,0,2,0.895,2,2v11.319
	c0,1.105-0.895,2-2,2h-0.108v12.144h0.108c1.105,0,2,0.895,2,2v11.319c0,1.105-0.895,2-2,2h-0.108v12.144h0.108c1.105,0,2,0.895,2,2
	v11.319c0,1.105-0.895,2-2,2h-0.108v12.144h0.108c1.105,0,2,0.895,2,2v11.319c0,1.105-0.895,2-2,2h-0.108v17.866
	c0,2.209-1.791,4-4,4h-15.299V512h-30.973v-19.626h-15.299c-2.209,0-4-1.791-4-4v-17.866h-0.108c-1.105,0-2-0.895-2-2v-11.319
	c0-1.105,0.895-2,2-2h0.108v-12.144h-0.108c-1.105,0-2-0.895-2-2v-11.319c0-1.105,0.895-2,2-2h0.108v-12.144h-0.108
	c-1.105,0-2-0.895-2-2v-11.319c0-1.105,0.895-2,2-2h0.108v-12.144h-0.108c-1.105,0-2-0.895-2-2V374.8c0-1.105,0.895-2,2-2h0.108
	v-17.623h-18.687c-2.329,0-4.216-1.888-4.216-4.216v-43.407h-23.356c-45.824,0-86.886-37.444-83.106-83.105
	c3.225-39.041,13.576-117.365,25.743-154.616C139.154,3.801,221.497,0,256.024,0c34.522,0,120.362,3.599,141.318,69.833
	c11.787,37.252,19.99,115.656,22.856,154.616C423.559,270.151,382.911,307.554,337.093,307.554z M294.716,336.204v-47.623h42.377
	c18.273,0,36.586-7.97,48.989-21.318c10.899-11.73,16.294-26.441,15.193-41.421c-2.674-36.358-10.719-114.559-22.023-150.285
	c-7.159-22.628-24.6-38.14-53.318-47.423c-28.333-9.159-59.627-9.159-69.911-9.159c-67.592,0-108.099,19.093-120.395,56.749
	c-11.373,34.824-21.564,110.266-24.87,150.292c-1.219,14.731,4.024,29.269,14.766,40.937c12.469,13.543,30.947,21.629,49.431,21.629
	h42.329v47.623H294.716z"/>
<g>
	<path d="M242.248,108.801c0,2.209,1.791,4,4,4h21.104c2.209,0,4-1.791,4-4V66.204c0-2.209-1.791-4-4-4h-21.104
		c-2.209,0-4,1.791-4,4V108.801z"/>
</g>
<g>
	<path d="M161.587,235.42c0,2.209,1.791,4,4,4h42.597c2.209,0,4-1.791,4-4v-18.96c0-2.209-1.791-4-4-4h-42.597c-2.209,0-4,1.791-4,4
		V235.42z"/>
</g>
<g>
	<path d="M299.816,235.42c0,2.209,1.791,4,4,4h42.597c2.209,0,4-1.791,4-4v-18.96c0-2.209-1.791-4-4-4h-42.597c-2.209,0-4,1.791-4,4
		V235.42z"/>
</g>
</svg>
