<?xml version="1.0" encoding="iso-8859-1"?>
<!-- Generator: Adobe Illustrator 27.7.0, SVG Export Plug-In . SVG Version: 6.00 Build 0)  -->
<svg version="1.1" id="Layer_1" xmlns="http://www.w3.org/2000/svg" xmlns:xlink="http://www.w3.org/1999/xlink" x="0px" y="0px"
	 viewBox="0 0 128 128" style="enable-background:new 0 0 128 128;" xml:space="preserve">
<g>
	<path d="M13.07,57.046c-2.941,0-5.228,2.369-5.228,5.228s2.369,5.228,5.228,5.228s5.228-2.369,5.228-5.228
		S16.01,57.046,13.07,57.046z M9.884,61.049c0-0.735,0.572-1.307,1.307-1.307c0.735,0,1.307,0.572,1.307,1.307
		s-0.572,1.307-1.307,1.307S9.884,61.784,9.884,61.049z M13.07,65.623c-0.735,0-1.307-0.572-1.307-1.307
		c0-0.735,0.572-1.307,1.307-1.307c0.735,0,1.307,0.572,1.307,1.307C14.377,65.052,13.805,65.623,13.07,65.623z M14.948,62.356
		c-0.735,0-1.307-0.572-1.307-1.307s0.572-1.307,1.307-1.307s1.307,0.572,1.307,1.307S15.684,62.356,14.948,62.356z"/>
	<path d="M29.489,41.526h-2.042c-1.225,0-1.879,0.653-1.879,1.879v1.389c0,1.225,0.653,1.879,1.879,1.879h2.042
		c1.225,0,1.879-0.653,1.879-1.879v-1.389C31.367,42.18,30.714,41.526,29.489,41.526z"/>
	<path d="M29.489,50.593h-2.042c-1.225,0-1.879,0.653-1.879,1.879v19.36c0,1.307,0.653,1.879,1.879,1.879h2.042
		c1.225,0,1.879-0.653,1.879-1.879V52.554C31.367,51.328,30.714,50.593,29.489,50.593z"/>
	<path d="M49.747,72.158V70.77c0-1.307-0.49-1.715-1.879-1.879c-1.634-0.163-3.758-0.899-3.758-4.329v-8.985h3.431
		c1.225,0,1.879-0.653,1.879-1.879v-0.735c0-1.225-0.653-1.879-1.879-1.879H44.11v-4.901c0-1.225-0.653-1.879-1.879-1.879h-1.797
		c-1.225,0-1.879,0.653-1.879,1.879v4.738h-1.307c-1.307,0-1.879,0.653-1.879,1.879v0.735c0,1.307,0.653,1.879,1.879,1.879h1.144
		V65.46c0,6.29,4.901,8.495,9.067,8.495C49.011,74.119,49.747,73.547,49.747,72.158z"/>
	<path d="M71.965,50.593h-2.287c-1.144,0-1.797,0.49-2.124,1.552L63.47,64.071c-0.327,1.225-0.735,3.022-0.735,3.022h-0.082
		c0,0-0.49-1.879-0.899-3.186l-4.411-11.763c-0.327-1.062-0.98-1.552-2.124-1.552h-2.451c-1.47,0-2.042,0.899-1.47,2.206
		l8.822,20.666l-0.899,2.042c-0.49,1.225-1.389,2.369-2.532,2.859c-0.245-0.653-0.98-0.98-1.715-0.817h-0.163l-0.082-0.327
		c-0.082-0.327-0.327-0.49-0.653-0.408l-4.901,1.062c-0.327,0.082-0.49,0.327-0.408,0.653l0.163,0.817l-3.186,0.735l0.245,1.225
		l3.186-0.735l0.245,1.062l-2.042,0.408l0.245,1.225l2.042-0.408l0.245,1.062l-3.104,0.899l0.245,1.225l3.186-0.735l0.163,0.735
		c0.082,0.327,0.327,0.49,0.653,0.408l4.901-1.062c0.327-0.082,0.49-0.327,0.408-0.653v-0.327h0.163
		c0.572-0.163,0.98-0.572,1.144-1.144c2.614-0.653,4.983-2.532,6.29-5.881l9.557-24.506C74.007,51.492,73.354,50.593,71.965,50.593z
		"/>
	<path d="M95.899,68.809H83.565V60.15h8.985c1.225,0,1.879-0.653,1.879-1.879v-1.307c0-1.225-0.653-1.879-1.879-1.879h-8.985v-8.495
		h11.599c1.225,0,1.879-0.653,1.879-1.879v-1.307c0-1.225-0.653-1.879-1.879-1.879h-15.52c-1.225,0-1.879,0.653-1.879,1.879v28.508
		c0,1.307,0.653,1.879,1.879,1.879h16.337c1.225,0,1.879-0.653,1.879-1.879v-1.307C97.86,69.463,97.124,68.809,95.899,68.809z"/>
	<path d="M126.286,41.526h-2.287c-1.062,0-1.797,0.49-2.124,1.634l-6.698,19.441c-0.653,1.879-1.225,4.738-1.225,4.738h-0.082
		c0,0-0.653-2.859-1.225-4.738l-6.617-19.441c-0.327-1.062-1.062-1.634-2.124-1.634h-2.451c-1.389,0-1.96,0.899-1.552,2.206
		l10.374,28.672c0.327,1.062,1.062,1.47,2.124,1.47h2.941c1.062,0,1.797-0.49,2.124-1.47l10.374-28.672
		C128.328,42.425,127.675,41.526,126.286,41.526z"/>
	<path d="M20.912,68.319c-0.572-1.062-1.47-1.225-2.614-0.572c-0.082,0.082-0.245,0.163-0.408,0.245
		c-0.082,0.082-0.163,0.163-0.327,0.163c-1.389,1.062-3.186,1.634-5.146,1.552c-3.676-0.327-6.617-3.349-6.78-7.025
		c-0.082-1.634,0.408-3.186,1.225-4.411c0.817-1.307,2.042-2.369,3.594-2.859c0.817-0.327,1.715-0.49,2.614-0.49
		c1.634,0,3.186,0.572,4.493,1.47c0.163,0.082,0.327,0.245,0.572,0.327c0.735,0.245,1.307,0,1.879-0.817l0.572-0.899
		c0.653-0.98,0.572-1.96-0.408-2.614c-1.389-0.98-3.839-2.287-7.597-2.287C4.901,50.103,0,55.658,0,62.274
		c0,6.78,4.901,12.171,12.58,12.171c4.003,0,6.862-1.634,8.25-2.696c0.899-0.653,1.062-1.552,0.49-2.532L20.912,68.319z"/>
</g>
</svg>
