<?xml version="1.0" encoding="iso-8859-1"?>
<!-- Generator: Adobe Illustrator 27.8.1, SVG Export Plug-In . SVG Version: 6.00 Build 0)  -->
<svg version="1.1" id="Layer_1" xmlns="http://www.w3.org/2000/svg" xmlns:xlink="http://www.w3.org/1999/xlink" x="0px" y="0px"
	 viewBox="0 0 128 128" style="enable-background:new 0 0 128 128;" xml:space="preserve">
<g>
	<path style="fill:#FFFFFF;" d="M15.376,90.894c-8.732-0.673-14.47-6.486-15.197-15.392c-0.293-3.569-0.217-9.469,0.152-11.834
		c1.302-8.298,6.28-13.005,14.329-13.537c3.319-0.228,7.224,0.445,10.478,1.79c0.347,0.141,0.651,0.26,0.683,0.26
		s0.054-2.56,0.054-5.695c0-3.796,0.043-5.879,0.119-6.259c0.315-1.486,1.367-2.636,2.809-3.059c0.738-0.217,1.323-0.217,2.072,0
		c1.497,0.434,2.506,1.562,2.809,3.135c0.087,0.477,0.108,6.421,0.087,22.399c-0.043,23.744,0.011,22.139-0.662,22.952
		c-0.716,0.857-3.71,2.538-6.183,3.449c-2.625,0.976-5.456,1.605-8.114,1.79C17.101,91.024,17.003,91.024,15.376,90.894
		L15.376,90.894z M19.802,83.15c1.79-0.347,4.165-1.226,5.51-2.039l0.564-0.336V70.318V59.872l-0.922-0.434
		c-2.31-1.085-5.651-1.833-8.189-1.833c-2.061,0-4.23,0.532-5.445,1.334c-0.911,0.607-1.746,1.573-2.256,2.603
		c-0.933,1.887-1.128,3.471-1.128,8.862c-0.011,4.382,0.098,5.575,0.683,7.387c0.77,2.375,2.3,4.068,4.426,4.892
		c0.738,0.293,1.844,0.553,2.744,0.673C16.537,83.442,18.89,83.323,19.802,83.15L19.802,83.15z"/>
	<path style="fill:#FFFFFF;" d="M72.919,90.894c-8.471-0.607-13.602-5.771-13.277-13.353c0.249-6.129,4.426-10.37,11.357-11.53
		c0.564-0.098,1.909-0.206,2.983-0.239c2.918-0.098,5.423,0.174,8.884,0.933l1.399,0.304L84.2,64.883
		c-0.065-2.332-0.228-3.243-0.803-4.426c-0.434-0.889-1.323-1.757-2.31-2.234c-1.345-0.662-2.267-0.846-4.501-0.911
		c-2.853-0.087-4.708,0.228-8.135,1.345c-1.291,0.423-1.66,0.499-2.441,0.51c-1.171,0.011-1.877-0.228-2.582-0.857
		c-0.738-0.673-1.052-1.388-1.041-2.441c0.011-2.234,1.551-3.514,5.543-4.61c2.929-0.803,5.489-1.161,8.439-1.161
		c3.59,0,6.291,0.532,8.678,1.725c3.417,1.703,5.391,4.393,6.356,8.656c0.249,1.085,0.249,1.085,0.282,12.669
		c0.033,7.756,0,11.715-0.076,11.986c-0.249,0.955-0.955,1.584-2.82,2.56c-3.569,1.855-7.593,2.918-12.105,3.211
		C74.796,91.024,74.763,91.024,72.919,90.894z M79.026,83.8c1.779-0.315,3.536-0.955,4.686-1.692l0.521-0.336v-4.165v-4.154
		l-0.423-0.119c-1.02-0.271-3.547-0.759-4.686-0.911c-5.716-0.738-9.437,0.163-11.053,2.668c-0.607,0.922-0.803,1.79-0.727,3.146
		c0.163,3.2,2.191,5.131,5.998,5.727C74.329,84.115,77.833,84.017,79.026,83.8L79.026,83.8z"/>
	<path style="fill:#FFFFFF;" d="M96.37,90.417c-1.139-0.369-2.05-1.247-2.484-2.408c-0.325-0.868-0.271-2.126,0.13-2.907
		c0.141-0.304,2.701-3.547,5.673-7.213c2.972-3.666,5.564-6.866,5.771-7.116l0.358-0.445l-5.575-6.964
		c-6.139-7.658-6.031-7.495-6.031-8.949c0-0.662,0.054-0.9,0.325-1.443c0.401-0.803,1.204-1.573,2.039-1.963
		c0.532-0.249,0.759-0.293,1.594-0.293c0.835,0,1.063,0.043,1.573,0.293c0.325,0.163,0.727,0.401,0.879,0.542
		c0.163,0.141,2.473,3.026,5.141,6.432c2.668,3.406,4.892,6.226,4.935,6.27c0.043,0.054,2.354-2.766,5.131-6.248
		c5.434-6.812,5.434-6.812,6.736-7.181c3.373-0.976,6.172,2.679,4.371,5.695c-0.13,0.206-2.582,3.308-5.456,6.888
		c-2.864,3.579-5.282,6.617-5.358,6.736c-0.13,0.206,0.315,0.792,5.532,7.311C128,85.384,128,85.384,128,86.838
		c0,0.727-0.043,0.965-0.304,1.475c-0.347,0.727-1.128,1.486-1.931,1.898c-1.074,0.542-2.603,0.445-3.666-0.217
		c-0.586-0.369-0.824-0.662-6.237-7.408c-2.733-3.417-5.011-6.183-5.066-6.161c-0.043,0.033-2.365,2.929-5.152,6.432
		c-2.777,3.504-5.207,6.508-5.391,6.682c-0.195,0.163-0.662,0.456-1.041,0.64C98.366,90.58,97.184,90.677,96.37,90.417L96.37,90.417
		z"/>
	<path style="fill:#FFFFFF;" d="M41.062,90.233c-0.835-0.325-1.833-1.334-2.18-2.202l-0.26-0.651V74.038
		c0-12.355,0.011-13.418,0.195-14.372c0.51-2.712,1.367-4.512,2.94-6.172c1.486-1.551,3.634-2.658,6.139-3.146
		c3.026-0.597,8.743-0.119,10.912,0.922c1.519,0.716,2.18,1.833,2.083,3.504c-0.054,1.02-0.401,1.822-1.052,2.462
		c-1.041,1.041-2.159,1.226-4.621,0.759c-5.022-0.965-7.56-0.054-8.482,3.037c-0.174,0.586-0.195,1.638-0.249,13.548l-0.054,12.908
		l-0.315,0.673c-0.369,0.803-1.226,1.67-1.985,2.007C43.35,90.515,41.853,90.547,41.062,90.233L41.062,90.233z"/>
</g>
</svg>
