<?xml version="1.0" encoding="iso-8859-1"?>
<!-- Generator: Adobe Illustrator 27.8.1, SVG Export Plug-In . SVG Version: 6.00 Build 0)  -->
<svg version="1.1" id="Layer_1" xmlns="http://www.w3.org/2000/svg" xmlns:xlink="http://www.w3.org/1999/xlink" x="0px" y="0px"
	 viewBox="0 0 128 128" style="enable-background:new 0 0 128 128;" xml:space="preserve">
<g>
	<path style="fill:#FFFFFF;" d="M63.975,128C99.01,128,128,99.01,128,64.025C128,28.99,98.961,0,63.926,0C28.941,0,0,28.99,0,64.025
		C0,99.01,28.99,128,63.975,128z M63.976,120c-14.784,0-28.794-5.869-39.451-16.525C13.869,92.818,8,78.808,8,64.024
		c0-14.81,5.862-28.837,16.505-39.498C35.146,13.869,49.146,8,63.926,8c14.812,0,28.847,5.872,39.521,16.534
		C114.121,35.197,120,49.222,120,64.024c0,14.785-5.87,28.795-16.529,39.449C92.808,114.131,78.781,120,63.976,120z"/>
	<path style="fill:#FFFFFF;" d="M50.316,92.917c2.801,0,4.373-1.867,4.373-4.815v-15.38h13.218c11.842,0,19.851-7.616,19.851-18.868
		c0-11.203-8.108-18.967-19.802-18.967H50.217c-2.752,0-4.226,1.966-4.226,4.865v48.35C45.992,90.951,47.515,92.917,50.316,92.917z
		 M54.689,65.941V41.668h12.137c7.469,0,12.333,4.766,12.333,12.186c0,7.321-4.815,12.088-12.333,12.088H54.689z"/>
</g>
<g>
	<path style="fill:#81CBEB;" d="M63.975,128C99.01,128,128,99.01,128,64.025C128,28.99,98.961,0,63.926,0C28.941,0,0,28.99,0,64.025
		C0,99.01,28.99,128,63.975,128z M63.976,120c-14.784,0-28.794-5.869-39.451-16.525C13.869,92.818,8,78.808,8,64.024
		c0-14.81,5.862-28.837,16.505-39.498C35.146,13.869,49.146,8,63.926,8c14.812,0,28.847,5.872,39.521,16.534
		C114.121,35.197,120,49.222,120,64.024c0,14.785-5.87,28.795-16.529,39.449C92.808,114.131,78.781,120,63.976,120z"/>
	<path style="fill:#81CBEB;" d="M50.316,92.917c2.801,0,4.373-1.867,4.373-4.815v-15.38h13.218c11.842,0,19.851-7.616,19.851-18.868
		c0-11.203-8.108-18.967-19.802-18.967H50.217c-2.752,0-4.226,1.966-4.226,4.865v48.35C45.992,90.951,47.515,92.917,50.316,92.917z
		 M54.689,65.941V41.668h12.137c7.469,0,12.333,4.766,12.333,12.186c0,7.321-4.815,12.088-12.333,12.088H54.689z"/>
</g>
</svg>
