<?xml version="1.0" encoding="iso-8859-1"?>
<!-- Generator: Adobe Illustrator 27.8.0, SVG Export Plug-In . SVG Version: 6.00 Build 0)  -->
<svg version="1.1" id="Layer_1" xmlns="http://www.w3.org/2000/svg" xmlns:xlink="http://www.w3.org/1999/xlink" x="0px" y="0px"
	 viewBox="0 0 128 128" style="enable-background:new 0 0 128 128;" xml:space="preserve">
<g>
	<rect y="36.874" style="fill:#0176BE;" width="128" height="54.252"/>
	<path style="fill:#FFFFFF;" d="M56,80.246c-0.8-0.049-1.231-0.16-1.871-0.48c-1.452-0.714-2.351-2.043-2.56-3.791
		c-0.123-1.058,0.049-2.117,0.492-3.028c0.726-1.489,2.068-2.449,3.742-2.658c0.751-0.098,1.502-0.037,2.486,0.222
		c0.48,0.123,0.911,0.197,0.985,0.185c0.074-0.012,0.246-0.123,0.357-0.246c0.111-0.123,0.246-0.209,0.308-0.209
		c0.123,0,0.16,0.283,0.222,1.982c0.037,1.157,0.025,1.28-0.062,1.317c-0.135,0.062-0.246-0.049-0.345-0.32
		c-0.431-1.218-1.206-1.994-2.24-2.277c-0.369-0.098-1.182-0.111-1.588-0.012c-0.751,0.172-1.575,0.8-2.018,1.551
		c-0.554,0.923-0.812,2.474-0.628,3.754c0.32,2.24,1.994,3.631,4.049,3.372c0.898-0.123,1.502-0.382,2.265-0.985
		c0.48-0.382,0.615-0.431,0.738-0.234c0.062,0.086,0.012,0.148-0.185,0.369c-0.825,0.849-1.957,1.415-3.028,1.526
		C56.862,80.271,56.357,80.271,56,80.246L56,80.246z"/>
	<path style="fill:#FFFFFF;" d="M18.142,80.16c-1.563-0.332-2.818-1.44-3.372-2.954c-0.258-0.702-0.332-1.305-0.283-2.191
		c0.049-1.132,0.32-1.908,0.935-2.782c0.665-0.923,1.575-1.538,2.769-1.846c0.689-0.185,2.043-0.148,2.806,0.062
		c1.034,0.295,1.132,0.308,1.342,0.185c0.111-0.049,0.234-0.172,0.295-0.246c0.074-0.098,0.148-0.148,0.234-0.135
		c0.123,0.012,0.135,0.062,0.209,1.588c0.049,0.862,0.062,1.6,0.049,1.649c-0.012,0.049-0.098,0.074-0.172,0.062
		c-0.111-0.012-0.172-0.111-0.295-0.431c-0.591-1.526-1.588-2.277-3.015-2.277c-1.588,0-2.782,1.034-3.274,2.806
		c-0.185,0.677-0.197,2.548-0.025,3.175c0.258,0.935,0.874,1.822,1.588,2.277c1.391,0.886,3.335,0.64,4.763-0.615l0.357-0.308
		l0.148,0.135l0.148,0.135l-0.135,0.148c-0.591,0.689-1.612,1.329-2.498,1.551C20.123,80.283,18.769,80.295,18.142,80.16
		L18.142,80.16z"/>
	<path style="fill:#FFFFFF;" d="M65.095,80.172c-1.686-0.345-3.028-1.575-3.545-3.249c-0.406-1.317-0.271-3.077,0.308-4.197
		c0.911-1.748,2.732-2.708,4.763-2.486c1.686,0.172,3.102,1.169,3.766,2.658c0.517,1.132,0.615,2.818,0.246,4.037
		c-0.529,1.735-1.969,2.991-3.754,3.274C66.363,80.271,65.6,80.258,65.095,80.172z M67.225,79.471
		c0.898-0.418,1.502-1.218,1.797-2.388c0.246-0.935,0.234-2.769,0-3.766c-0.406-1.698-1.797-2.769-3.298-2.548
		c-1.292,0.197-2.24,1.231-2.585,2.818c-0.185,0.874-0.185,2.523,0,3.335c0.271,1.206,0.948,2.142,1.809,2.523
		c0.505,0.234,0.591,0.246,1.292,0.234C66.732,79.668,66.868,79.631,67.225,79.471L67.225,79.471z"/>
	<path style="fill:#FFFFFF;" d="M75.84,80.221c-0.062-0.012-0.308-0.074-0.554-0.123c-1.083-0.246-1.822-0.923-2.178-1.982
		l-0.148-0.468l-0.037-3.138c-0.025-2.88-0.037-3.151-0.148-3.335c-0.123-0.234-0.394-0.369-0.849-0.431
		c-0.16-0.012-0.308-0.062-0.332-0.111c-0.074-0.197,0.037-0.222,2.092-0.197c1.969,0.012,2.031,0.012,2.031,0.135
		c0,0.111-0.062,0.123-0.369,0.172c-0.197,0.025-0.455,0.098-0.554,0.16c-0.382,0.222-0.369,0.16-0.369,3.618v3.138l0.16,0.443
		c0.357,0.972,0.96,1.403,2.092,1.477c1.009,0.062,1.809-0.185,2.289-0.726c0.615-0.689,0.652-0.935,0.652-4.32
		c0-1.489-0.025-2.831-0.062-2.954c-0.098-0.468-0.431-0.726-0.997-0.825c-0.209-0.037-0.271-0.074-0.283-0.185l-0.025-0.135h1.698
		c1.698,0,1.895,0.025,1.698,0.209c-0.049,0.049-0.246,0.111-0.443,0.148c-0.418,0.098-0.689,0.295-0.788,0.615
		c-0.062,0.16-0.098,1.132-0.123,3.151c-0.037,2.757-0.049,2.954-0.172,3.422c-0.308,1.12-1.046,1.846-2.191,2.154
		C77.575,80.209,76.098,80.283,75.84,80.221L75.84,80.221z"/>
	<path style="fill:#FFFFFF;" d="M90.523,80.148c-0.062-0.062-0.591-0.677-1.157-1.403c-0.566-0.714-1.403-1.748-1.846-2.314
		c-0.455-0.554-1.378-1.711-2.068-2.56c-0.677-0.849-1.255-1.551-1.292-1.563c-0.098-0.025-0.025,6.375,0.062,6.671
		c0.123,0.382,0.418,0.628,0.8,0.677c0.406,0.049,0.566,0.148,0.455,0.295c-0.074,0.086-0.283,0.098-1.735,0.098h-1.649v-0.148
		c0-0.123,0.049-0.148,0.406-0.246c0.714-0.172,0.862-0.332,0.948-1.095c0.037-0.308,0.062-1.846,0.037-3.815l-0.025-3.311
		l-0.271-0.283c-0.345-0.357-0.542-0.468-0.862-0.468c-0.222,0-0.246-0.012-0.246-0.148v-0.148h1.255h1.255l0.332,0.418
		c0.308,0.382,1.083,1.342,3.951,4.898c0.652,0.812,1.218,1.477,1.255,1.489c0.074,0.025,0.062-5.268-0.012-5.6
		c-0.123-0.554-0.382-0.8-0.96-0.874c-0.308-0.049-0.431-0.123-0.382-0.246c0.025-0.074,0.295-0.086,1.735-0.074
		c1.637,0.012,1.698,0.025,1.698,0.135c0,0.098-0.062,0.123-0.345,0.185c-0.517,0.111-0.738,0.246-0.886,0.566
		c-0.135,0.295-0.135,0.332-0.148,4.578C90.818,80.48,90.831,80.406,90.523,80.148L90.523,80.148z"/>
	<path style="fill:#FFFFFF;" d="M96.394,80.135c-1.046-0.295-1.662-0.64-2.289-1.329c-0.677-0.738-1.009-1.378-1.231-2.449
		c-0.123-0.615-0.098-1.846,0.062-2.462c0.32-1.218,1.169-2.4,2.154-2.954c0.948-0.554,1.477-0.689,2.683-0.689
		c0.8,0,0.96,0.012,1.538,0.172c1.071,0.295,1.083,0.295,1.317,0.197c0.123-0.049,0.258-0.16,0.32-0.246
		c0.062-0.111,0.148-0.148,0.234-0.135c0.123,0.012,0.123,0.062,0.16,0.689c0.025,0.369,0.049,1.108,0.062,1.625
		c0.025,0.948,0.025,0.96-0.111,0.972c-0.098,0.012-0.16-0.025-0.209-0.148c-0.246-0.603-0.628-1.317-0.837-1.551
		c-0.898-1.034-2.56-1.292-3.852-0.615c-0.492,0.258-1.071,0.886-1.354,1.465c-0.394,0.788-0.492,1.255-0.517,2.4
		c-0.025,0.886-0.025,1.083,0.098,1.575c0.246,1.046,0.8,1.895,1.612,2.425c0.554,0.369,1.058,0.505,1.846,0.505
		c1.083,0,1.858-0.271,2.708-0.972c0.64-0.505,0.591-0.492,0.738-0.345l0.123,0.123l-0.185,0.234
		c-0.271,0.332-0.985,0.874-1.428,1.108c-0.837,0.418-1.095,0.468-2.203,0.492C96.997,80.246,96.763,80.234,96.394,80.135
		L96.394,80.135z"/>
	<path style="fill:#FFFFFF;" d="M24.025,79.988c-0.049-0.148,0.012-0.209,0.295-0.246c0.837-0.123,0.997-0.246,1.095-0.849
		c0.037-0.246,0.049-1.748,0.049-3.938c-0.012-3.138-0.025-3.557-0.123-3.754c-0.123-0.271-0.32-0.382-0.874-0.468
		c-0.468-0.074-0.505-0.098-0.443-0.234c0.025-0.074,0.283-0.098,2.166-0.074c2.092,0.012,2.142,0.012,2.142,0.135
		c0,0.111-0.049,0.123-0.382,0.172c-0.468,0.049-0.665,0.135-0.849,0.369c-0.135,0.172-0.135,0.234-0.148,3.914
		c-0.012,2.055,0,3.852,0.012,4c0.062,0.418,0.234,0.554,0.837,0.677c0.443,0.098,0.517,0.123,0.517,0.234
		c0,0.123-0.049,0.123-2.142,0.135C24.357,80.074,24.049,80.061,24.025,79.988L24.025,79.988z"/>
	<path style="fill:#FFFFFF;" d="M30.966,79.988c-0.111-0.123,0.037-0.209,0.468-0.295c0.443-0.074,0.665-0.197,0.775-0.382
		c0.062-0.111,0.086-1.046,0.098-4.209l0.012-4.074h-0.677c-1.649,0-2.08,0.295-2.375,1.674c-0.049,0.185-0.258,0.295-0.357,0.185
		c-0.049-0.049-0.049-0.468-0.012-1.268l0.049-1.206h4.111h4.111l0.037,0.689c0.062,1.009,0.049,1.748-0.012,1.797
		c-0.172,0.111-0.295-0.049-0.431-0.505c-0.332-1.132-0.714-1.366-2.265-1.366h-0.714l0.012,4.049
		c0.012,4.394,0.012,4.295,0.369,4.48c0.098,0.049,0.369,0.123,0.603,0.16c0.394,0.062,0.431,0.086,0.431,0.222v0.148h-2.092
		C31.422,80.074,31.015,80.061,30.966,79.988L30.966,79.988z"/>
	<path style="fill:#FFFFFF;" d="M40.677,80.012c-0.16-0.111-0.025-0.246,0.283-0.283c0.554-0.074,0.837-0.185,0.972-0.357
		c0.123-0.172,0.123-0.258,0.148-1.908l0.012-1.735l-1.182-1.723c-1.957-2.855-2.166-3.126-2.757-3.262
		c-0.222-0.062-0.295-0.111-0.295-0.185c0-0.111,0.086-0.123,2.043-0.135c1.969-0.012,2.043-0.012,2.043,0.111
		s-0.209,0.185-0.554,0.185c-0.098,0-0.246,0.062-0.345,0.135c-0.32,0.246-0.246,0.431,1.132,2.449
		c1.108,1.6,1.058,1.551,1.132,1.465c0.148-0.16,2.08-3.163,2.166-3.372c0.049-0.123,0.074-0.271,0.062-0.357
		c-0.049-0.185-0.332-0.332-0.615-0.332c-0.295,0-0.406-0.062-0.406-0.185c0-0.111,0.074-0.123,1.6-0.123c1.575,0,1.6,0,1.6,0.123
		c0,0.062-0.037,0.135-0.074,0.148c-0.049,0.012-0.197,0.062-0.357,0.098c-0.468,0.123-1.009,0.751-1.994,2.24
		c-0.468,0.714-1.034,1.588-1.268,1.945l-0.431,0.64v1.711c0,2.24,0,2.24,0.972,2.4c0.468,0.062,0.505,0.098,0.492,0.197
		c-0.012,0.123-0.049,0.123-2.166,0.135C41.735,80.061,40.738,80.049,40.677,80.012z"/>
	<path style="fill:#FFFFFF;" d="M102.375,80c-0.062-0.148,0.037-0.209,0.529-0.308c0.529-0.111,0.615-0.148,0.763-0.431
		c0.098-0.172,0.098-0.554,0.098-4c0-3.569,0-3.828-0.111-4.049c-0.135-0.271-0.406-0.418-0.886-0.468
		c-0.357-0.037-0.455-0.098-0.394-0.246c0.025-0.062,0.443-0.074,2.191-0.074h2.142l-0.025,0.135
		c-0.025,0.123-0.062,0.135-0.418,0.185c-0.468,0.062-0.652,0.135-0.825,0.369c-0.123,0.172-0.123,0.234-0.148,4
		c-0.012,2.535,0,3.902,0.037,4.049c0.098,0.32,0.246,0.431,0.837,0.542c0.468,0.098,0.529,0.123,0.517,0.234
		c-0.025,0.123-0.062,0.123-2.154,0.135C102.794,80.074,102.4,80.061,102.375,80L102.375,80z"/>
	<path style="fill:#FFFFFF;" d="M107.163,79.975c-0.062-0.135,0.111-0.246,0.468-0.295c0.16-0.012,0.369-0.098,0.492-0.148
		c0.332-0.197,0.345-0.357,0.308-4.468c-0.025-4.049-0.012-3.938-0.394-4.172c-0.098-0.062-0.345-0.123-0.517-0.148
		c-0.271-0.049-0.332-0.074-0.332-0.172c0-0.123,0.049-0.123,2.055-0.135l2.043-0.012v0.135c0,0.135-0.025,0.148-0.357,0.185
		c-0.455,0.037-0.714,0.172-0.862,0.431c-0.098,0.185-0.111,0.492-0.123,4.012c-0.012,2.732,0,3.865,0.062,3.975
		c0.037,0.098,0.148,0.197,0.246,0.234c0.406,0.135,2.831,0.049,3.458-0.123c0.517-0.148,1.095-0.689,1.415-1.329
		c0.062-0.123,0.16-0.283,0.209-0.345c0.098-0.123,0.369-0.148,0.369-0.037s-0.615,2.277-0.689,2.4
		c-0.049,0.098-0.308,0.111-3.938,0.111C107.532,80.074,107.188,80.074,107.163,79.975L107.163,79.975z"/>
	<path style="fill:#FFFFFF;" d="M14.991,66.289c-0.037-0.062-0.025-0.837,0.012-0.997c0.025-0.111,2.425-0.111,49.342-0.111h49.329
		l-0.025,0.566l-0.025,0.566L64.32,66.326C32.898,66.351,15.003,66.326,14.991,66.289L14.991,66.289z"/>
	<path style="fill:#FFFFFF;" d="M54.092,61.821c-1.305-0.283-2.154-0.751-3.003-1.649c-1.28-1.366-1.748-3.175-1.415-5.366
		c0.32-2.117,1.932-3.951,4-4.542c1.218-0.357,2.4-0.345,3.84,0.037c0.394,0.098,0.874,0.209,1.046,0.222
		c0.32,0.025,0.332,0.025,0.603-0.258c0.271-0.283,0.394-0.345,0.492-0.209c0.086,0.098,0.234,3.742,0.148,3.803
		c-0.025,0.025-0.123,0.049-0.185,0.037c-0.111-0.012-0.185-0.135-0.357-0.566c-0.295-0.751-0.615-1.243-1.108-1.686
		c-0.689-0.64-1.428-0.935-2.412-0.935c-0.726,0-1.108,0.086-1.711,0.369c-0.591,0.283-1.034,0.665-1.415,1.206
		c-0.615,0.849-0.911,1.772-1.009,3.138c-0.234,2.757,0.911,4.837,3.015,5.551c0.48,0.16,1.945,0.16,2.548-0.012
		c0.763-0.209,1.44-0.591,2.154-1.194c0.197-0.172,0.394-0.32,0.431-0.32c0.086,0,0.271,0.197,0.271,0.295
		c0,0.135-0.788,0.849-1.305,1.206c-0.64,0.418-1.058,0.615-1.809,0.812c-0.505,0.135-0.714,0.148-1.526,0.148
		C54.868,61.908,54.326,61.871,54.092,61.821L54.092,61.821z"/>
	<path style="fill:#FFFFFF;" d="M77.194,61.834c-0.234-0.049-0.738-0.185-1.108-0.308c-0.369-0.123-0.738-0.222-0.812-0.222
		c-0.185,0-0.369,0.185-0.431,0.394c-0.025,0.135-0.074,0.148-0.246,0.148c-0.123,0-0.209-0.012-0.209-0.049
		c0-0.025-0.111-0.837-0.246-1.797c-0.135-0.96-0.246-1.772-0.246-1.797s0.086-0.049,0.185-0.049c0.172,0,0.209,0.037,0.468,0.591
		c0.775,1.674,1.858,2.486,3.298,2.486c0.615,0,1.046-0.16,1.452-0.529c0.431-0.382,0.578-0.788,0.554-1.502
		c-0.037-1.12-0.295-1.366-3.471-3.36c-1.268-0.788-1.858-1.526-2.006-2.462c-0.148-0.825,0.16-1.822,0.738-2.437
		c0.406-0.443,0.714-0.64,1.292-0.837c0.443-0.148,0.554-0.16,1.194-0.135c0.628,0.025,0.8,0.049,1.452,0.283
		c0.997,0.345,1.182,0.332,1.403-0.098c0.123-0.222,0.283-0.308,0.382-0.197c0.062,0.062,0.308,2.117,0.418,3.545
		c0.012,0.074-0.037,0.111-0.148,0.135c-0.197,0.025-0.258-0.049-0.394-0.48c-0.271-0.849-0.751-1.538-1.366-1.945
		c-0.566-0.382-1.071-0.529-1.686-0.529c-0.455-0.012-0.566,0.025-0.837,0.16c-0.64,0.332-0.898,0.738-0.898,1.391
		c0,0.48,0.148,0.849,0.492,1.231c0.308,0.345,0.652,0.603,1.785,1.292c2.56,1.588,3.212,2.228,3.422,3.348
		c0.086,0.455,0.037,1.194-0.098,1.6c-0.332,0.935-1.255,1.748-2.338,2.031C78.646,61.908,77.723,61.932,77.194,61.834
		L77.194,61.834z"/>
	<path style="fill:#FFFFFF;" d="M46.597,61.44c-0.197-0.234-0.677-0.812-1.071-1.305c-0.394-0.48-1.625-2.006-2.732-3.372
		c-1.108-1.366-2.338-2.88-2.72-3.372c-0.394-0.48-0.738-0.886-0.763-0.886c-0.074,0-0.062,6.868,0,7.409
		c0.037,0.234,0.123,0.566,0.209,0.738c0.172,0.357,0.369,0.48,0.985,0.603c0.345,0.074,0.382,0.098,0.382,0.234v0.148h-2.031
		h-2.031v-0.148c0-0.135,0.037-0.16,0.406-0.234c0.837-0.148,1.108-0.418,1.231-1.243c0.025-0.234,0.062-2.142,0.062-4.455V51.52
		l-0.271-0.332c-0.345-0.406-0.64-0.591-1.108-0.64c-0.308-0.037-0.357-0.049-0.357-0.185c0-0.086,0.037-0.148,0.074-0.148
		c0.037,0,0.702-0.012,1.477-0.012c1.329-0.012,1.415-0.012,1.526,0.098c0.111,0.111,2.142,2.609,5.145,6.338
		c0.677,0.849,1.28,1.588,1.342,1.649c0.111,0.123,0.111-0.025,0.098-3.249l-0.012-3.385l-0.148-0.369
		c-0.135-0.332-0.185-0.394-0.48-0.529c-0.172-0.098-0.48-0.185-0.665-0.209c-0.308-0.037-0.345-0.062-0.345-0.197
		c0-0.098,0.037-0.148,0.111-0.148c2.585-0.012,3.926,0.012,3.963,0.049c0.123,0.135-0.025,0.234-0.48,0.345
		c-0.369,0.086-0.529,0.148-0.702,0.308c-0.418,0.382-0.394,0.135-0.431,5.797l-0.012,5.12h-0.148
		C47.003,61.858,46.855,61.748,46.597,61.44L46.597,61.44z"/>
	<path style="fill:#FFFFFF;" d="M13.797,61.501c0.025-0.148,0.049-0.172,0.48-0.258c0.258-0.049,0.542-0.148,0.64-0.209
		c0.357-0.234,0.357-0.123,0.345-5.095c-0.012-5.022,0-4.898-0.394-5.145c-0.111-0.074-0.394-0.16-0.64-0.197
		c-0.418-0.074-0.443-0.086-0.418-0.234c0.012-0.123,0.049-0.16,0.16-0.148c0.074,0,1.182,0.012,2.449,0.012l2.314,0.012
		l-0.012,0.135c-0.012,0.111-0.074,0.148-0.468,0.209c-0.64,0.111-0.874,0.234-1.034,0.578c-0.135,0.283-0.135,0.332-0.135,4.886
		v4.578l0.135,0.135c0.135,0.135,0.172,0.135,1.563,0.16c1.649,0.025,2.572-0.074,3.102-0.332c0.505-0.234,1.095-0.935,1.526-1.772
		c0.049-0.074,0.135-0.135,0.295-0.135c0.123-0.012,0.234,0,0.234,0.012c0,0.049-0.566,2.105-0.726,2.609l-0.111,0.345l-4.665,0.012
		l-4.665,0.012L13.797,61.501L13.797,61.501z"/>
	<path style="fill:#FFFFFF;" d="M24.443,61.625c-0.049-0.012-0.074-0.074-0.074-0.135c0-0.086,0.074-0.135,0.258-0.197
		c0.64-0.185,0.874-0.48,1.489-1.834c0.197-0.418,0.369-0.825,0.394-0.886c0.025-0.062,0.172-0.418,0.32-0.763
		c0.148-0.357,0.418-0.997,0.603-1.415c0.172-0.418,0.369-0.874,0.431-1.009s0.234-0.517,0.369-0.862s0.308-0.726,0.369-0.874
		c0.074-0.135,0.172-0.394,0.246-0.578s0.185-0.443,0.246-0.591c0.062-0.148,0.172-0.406,0.246-0.591
		c0.074-0.185,0.172-0.443,0.234-0.578c0.074-0.148,0.197-0.431,0.283-0.652c0.283-0.689,0.443-0.825,0.665-0.566
		c0.049,0.049,0.357,0.726,0.689,1.489c0.332,0.763,0.862,1.957,1.157,2.646c0.308,0.689,0.738,1.698,0.972,2.215
		c1.292,2.966,1.772,4,1.908,4.246c0.185,0.295,0.418,0.468,0.812,0.591c0.197,0.062,0.246,0.111,0.246,0.222v0.148l-2.154,0.012
		c-1.243,0.012-2.178-0.012-2.215-0.049c-0.037-0.037-0.037-0.111-0.012-0.172c0.025-0.098,0.135-0.135,0.492-0.185
		c0.246-0.037,0.505-0.098,0.554-0.135c0.258-0.222,0.16-0.751-0.443-2.178l-0.418-0.997h-2.265h-2.277l-0.295,0.738
		c-0.505,1.218-0.677,1.797-0.628,2.018c0.049,0.32,0.271,0.48,0.751,0.566c0.382,0.062,0.418,0.074,0.418,0.222v0.148l-1.662,0.012
		C25.268,61.661,24.48,61.649,24.443,61.625L24.443,61.625z M31.815,57.145c0-0.012-0.111-0.283-0.246-0.603
		s-0.468-1.12-0.751-1.797c-0.283-0.677-0.591-1.415-0.689-1.649c-0.098-0.222-0.172-0.443-0.172-0.48
		c0-0.271-0.234,0.222-0.997,2.031c-0.48,1.132-0.898,2.142-0.948,2.24c-0.049,0.098-0.098,0.197-0.098,0.234
		c0,0.025,0.874,0.049,1.945,0.049C30.929,57.169,31.815,57.169,31.815,57.145L31.815,57.145z"/>
	<path style="fill:#FFFFFF;" d="M60.948,61.588c-0.062-0.16,0.012-0.246,0.308-0.32c0.603-0.16,0.911-0.615,1.785-2.695
		c0.258-0.603,0.505-1.182,0.554-1.292c0.037-0.098,0.222-0.529,0.394-0.96c0.185-0.418,0.369-0.874,0.431-1.009
		s0.246-0.591,0.431-1.009s0.369-0.874,0.431-1.009c0.062-0.135,0.394-0.911,0.738-1.748c0.529-1.255,0.652-1.502,0.775-1.526
		c0.086-0.025,0.185,0,0.222,0.049c0.037,0.049,0.32,0.64,0.615,1.317c0.295,0.677,0.923,2.117,1.391,3.2
		c0.468,1.083,1.046,2.4,1.28,2.929c0.886,2.018,1.255,2.855,1.44,3.151c0.222,0.357,0.517,0.591,0.837,0.628
		c0.246,0.049,0.369,0.222,0.258,0.345c-0.025,0.025-0.96,0.049-2.215,0.049l-2.154-0.012v-0.185c0-0.135,0.025-0.148,0.443-0.222
		c0.271-0.049,0.492-0.111,0.578-0.185c0.258-0.234,0.135-0.812-0.517-2.338l-0.345-0.8l-2.277-0.012l-2.277-0.012l-0.345,0.874
		c-0.689,1.748-0.714,1.908-0.394,2.228c0.148,0.148,0.271,0.222,0.517,0.246c0.431,0.049,0.455,0.074,0.455,0.246v0.148h-1.698
		C61.218,61.674,60.972,61.661,60.948,61.588L60.948,61.588z M68.283,56.948c-0.062-0.135-0.271-0.628-0.468-1.12
		c-0.492-1.206-0.788-1.883-0.935-2.215c-0.062-0.148-0.185-0.443-0.258-0.64c-0.086-0.197-0.16-0.382-0.209-0.394
		c-0.025-0.012-0.098,0.098-0.148,0.246c-0.049,0.148-0.468,1.157-0.923,2.265c-0.468,1.095-0.837,2.018-0.837,2.043
		c0,0.025,0.874,0.049,1.945,0.049h1.945L68.283,56.948L68.283,56.948z"/>
	<path style="fill:#FFFFFF;" d="M85.538,61.575c-0.123-0.148,0.025-0.234,0.554-0.32c0.8-0.135,0.96-0.308,1.046-1.12
		c0.062-0.64,0.062-9.058,0-9.157c-0.049-0.074-0.209-0.086-0.911-0.049c-1.871,0.086-2.302,0.357-2.646,1.748
		c-0.098,0.418-0.209,0.529-0.418,0.443c-0.123-0.049-0.123-0.086-0.098-0.874c0.012-0.455,0.037-1.095,0.062-1.428l0.037-0.603
		l4.886-0.012l4.874-0.012l0.025,0.185c0.012,0.098,0.037,0.763,0.062,1.465l0.025,1.268h-0.222h-0.222l-0.098-0.418
		c-0.222-0.886-0.566-1.391-1.108-1.588c-0.308-0.098-2.178-0.258-2.363-0.197c-0.098,0.037-0.098,0.345-0.098,4.862
		c0.025,4.529,0.025,4.825,0.123,5.022c0.135,0.258,0.406,0.369,1.022,0.468c0.431,0.074,0.468,0.074,0.48,0.234l0.025,0.172h-2.486
		C85.932,61.674,85.6,61.661,85.538,61.575L85.538,61.575z"/>
	<path style="fill:#FFFFFF;" d="M93.563,61.588c-0.074-0.172,0.025-0.258,0.431-0.32c0.529-0.086,0.825-0.234,0.96-0.468
		c0.098-0.172,0.098-0.591,0.123-4.714c0.012-4.148,0-4.542-0.098-4.825c-0.135-0.394-0.369-0.554-0.972-0.652
		c-0.431-0.074-0.468-0.098-0.443-0.222l0.025-0.148h4.578l4.578,0.012l0.037,0.652c0.025,0.369,0.037,0.923,0.049,1.243v0.566
		h-0.209c-0.209,0-0.209-0.012-0.345-0.443c-0.258-0.862-0.517-1.145-1.169-1.28c-0.369-0.086-3.655-0.16-3.902-0.098
		c-0.345,0.086-0.345,0.049-0.345,2.351v2.117l1.711-0.025c1.009-0.012,1.797-0.062,1.932-0.098c0.345-0.111,0.64-0.48,0.763-0.972
		c0.135-0.529,0.185-0.628,0.332-0.628c0.246,0,0.246,0.098,0.246,2.105l-0.025,1.932l-0.197,0.012
		c-0.185,0.012-0.209,0.012-0.271-0.246c-0.123-0.455-0.135-0.505-0.283-0.8c-0.098-0.209-0.222-0.332-0.406-0.431
		c-0.246-0.135-0.332-0.135-2.031-0.16l-1.772-0.025v2.289v2.277l0.148,0.172l0.148,0.172l1.514,0.012
		c2.523,0.025,3.225-0.172,3.963-1.182c0.123-0.172,0.32-0.468,0.418-0.652c0.172-0.32,0.209-0.345,0.431-0.357
		c0.271-0.025,0.283-0.135-0.062,1.12c-0.123,0.48-0.271,1.034-0.332,1.255s-0.123,0.443-0.148,0.48
		c-0.037,0.049-1.046,0.074-4.702,0.074C94.166,61.674,93.6,61.661,93.563,61.588L93.563,61.588z"/>
	<path style="fill:#FFFFFF;" d="M104.148,61.588c-0.062-0.172,0.025-0.258,0.357-0.295c0.443-0.049,0.8-0.234,0.948-0.48
		c0.123-0.197,0.123-0.345,0.148-4.578c0.012-2.4,0-4.517-0.025-4.689c-0.074-0.591-0.406-0.886-1.157-0.972
		c-0.271-0.037-0.295-0.049-0.271-0.197l0.025-0.16l2.855,0.012c1.575,0.012,3.028,0.037,3.225,0.074
		c1.452,0.222,2.351,0.775,2.806,1.698c0.185,0.357,0.209,0.468,0.222,1.058c0.062,1.305-0.369,2.043-1.502,2.609
		c-0.369,0.172-1.083,0.418-1.292,0.418c-0.086,0-0.16,0.025-0.185,0.062c-0.025,0.037,0.271,0.468,0.677,0.935
		c0.394,0.48,1.095,1.366,1.575,1.957c1.563,1.92,1.748,2.105,2.363,2.24c0.271,0.062,0.32,0.098,0.32,0.222v0.148l-1.342,0.012
		c-0.738,0.012-1.378-0.012-1.415-0.025c-0.037-0.025-0.271-0.283-0.505-0.566c-0.234-0.295-1.206-1.477-2.142-2.634l-1.723-2.105
		l-0.271,0.037c-0.148,0.012-0.308,0.037-0.357,0.037c-0.074,0-0.086,0.345-0.086,1.908c0,2.043,0.037,2.425,0.283,2.658
		c0.16,0.16,0.738,0.357,1.046,0.357c0.148,0,0.209,0.037,0.234,0.135c0.025,0.086,0.012,0.148-0.037,0.185
		c-0.049,0.025-1.132,0.049-2.412,0.049C104.492,61.674,104.172,61.661,104.148,61.588L104.148,61.588z M109.391,55.532
		c0.652-0.135,0.985-0.295,1.378-0.652c0.369-0.345,0.554-0.714,0.615-1.243c0.172-1.415-0.443-2.338-1.76-2.646
		c-0.431-0.098-1.662-0.148-1.932-0.074c-0.283,0.086-0.308,0.209-0.308,2.585v2.228l0.726-0.037
		C108.505,55.668,109.083,55.594,109.391,55.532L109.391,55.532z"/>
	<path style="fill:#FFFFFF;" d="M119.606,84.48H8.148V43.52h111.446v40.96H119.606z M119.114,83.988V44.012H8.64v39.975H119.114z"/>
</g>
<rect y="36.874" style="opacity:0.6;fill:#FFFFFF;" width="128" height="54.252"/>
</svg>
