<?xml version="1.0" encoding="iso-8859-1"?>
<!-- Generator: Adobe Illustrator 27.8.1, SVG Export Plug-In . SVG Version: 6.00 Build 0)  -->
<svg version="1.1" id="Layer_1" xmlns="http://www.w3.org/2000/svg" xmlns:xlink="http://www.w3.org/1999/xlink" x="0px" y="0px"
	 viewBox="0 0 128 128" style="enable-background:new 0 0 128 128;" xml:space="preserve">
<g>
	<path style="fill-rule:evenodd;clip-rule:evenodd;fill:#B3B3B3;enable-background:new    ;" d="M5.315,31.087
		c-0.788,1.346-0.328,3.087,1.018,3.875l6.47,3.875c0.657,0.394,1.412,0.525,2.168,0.361c0.723-0.164,1.379-0.657,1.773-1.314
		c0.394-0.657,0.493-1.445,0.328-2.167c-0.197-0.723-0.657-1.379-1.314-1.741l-6.47-3.875c-0.657-0.394-1.445-0.525-2.2-0.361
		C6.333,29.937,5.709,30.397,5.315,31.087L5.315,31.087z"/>
	<path style="fill-rule:evenodd;clip-rule:evenodd;fill:#B3B3B3;enable-background:new    ;" d="M15.332,18.443
		c-0.755,1.117-0.591,2.627,0.361,3.58l5.222,5.419l0,0c0.525,0.558,1.248,0.887,2.003,0.887c0.755,0.033,1.478-0.263,2.036-0.788
		c0.558-0.525,0.854-1.248,0.854-2.003c0-0.755-0.296-1.478-0.821-2.036l-5.222-5.419l0,0c-0.591-0.624-1.445-0.952-2.299-0.887
		C16.613,17.261,15.824,17.72,15.332,18.443L15.332,18.443z"/>
	<path style="fill-rule:evenodd;clip-rule:evenodd;fill:#B3B3B3;enable-background:new    ;" d="M28.107,9.017
		c-0.558,0.887-0.558,2.003-0.033,2.89l3.645,6.601c0.361,0.657,0.985,1.149,1.708,1.379c0.723,0.197,1.511,0.131,2.167-0.23
		s1.149-0.985,1.346-1.708c0.197-0.723,0.099-1.511-0.263-2.168l-3.645-6.601c-0.493-0.887-1.412-1.478-2.43-1.511
		C29.585,7.638,28.632,8.164,28.107,9.017L28.107,9.017z"/>
	<path style="fill-rule:evenodd;clip-rule:evenodd;fill:#B3B3B3;enable-background:new    ;" d="M42.918,3.27
		c-0.361,0.657-0.46,1.412-0.263,2.102l1.806,7.291c0.164,0.755,0.624,1.379,1.281,1.773c0.657,0.394,1.445,0.525,2.167,0.328
		c0.755-0.197,1.379-0.657,1.773-1.314c0.394-0.657,0.493-1.445,0.296-2.168l-1.806-7.291l0,0c-0.263-1.149-1.215-2.003-2.365-2.168
		C44.626,1.694,43.476,2.252,42.918,3.27L42.918,3.27z"/>
	<path style="fill-rule:evenodd;clip-rule:evenodd;fill:#B3B3B3;enable-background:new    ;" d="M58.846,1.3
		c-0.296,0.46-0.46,0.985-0.46,1.544l-0.131,7.521l0,0c-0.033,0.755,0.263,1.511,0.788,2.036c0.525,0.558,1.248,0.854,2.003,0.887
		c0.755,0,1.478-0.263,2.036-0.821c0.558-0.525,0.854-1.248,0.854-2.036l0.131-7.521c0.033-1.281-0.788-2.43-2.003-2.791
		C60.882-0.244,59.536,0.249,58.846,1.3L58.846,1.3z"/>
</g>
<g>
	<path style="fill-rule:evenodd;clip-rule:evenodd;fill:#FFFFFF;" d="M103.608,90.134c-0.788,1.346-0.328,3.087,1.018,3.875
		l6.437,3.875c0.657,0.394,1.412,0.525,2.167,0.361c0.723-0.164,1.379-0.657,1.773-1.314c0.394-0.657,0.493-1.445,0.328-2.167
		c-0.197-0.723-0.657-1.379-1.314-1.741l-6.437-3.875c-0.657-0.394-1.445-0.525-2.2-0.361
		C104.659,88.985,104.002,89.478,103.608,90.134L103.608,90.134z"/>
	<path style="fill-rule:evenodd;clip-rule:evenodd;fill:#FFFFFF;" d="M95.004,100.939c-0.755,1.117-0.591,2.627,0.361,3.58
		l5.222,5.419l0,0c0.525,0.558,1.248,0.887,2.003,0.887c0.755,0.033,1.478-0.263,2.036-0.788c0.558-0.525,0.854-1.248,0.854-2.003
		c0-0.755-0.296-1.478-0.821-2.036l-5.189-5.419c-0.591-0.624-1.445-0.952-2.299-0.887C96.285,99.757,95.496,100.217,95.004,100.939
		L95.004,100.939z"/>
	<path style="fill-rule:evenodd;clip-rule:evenodd;fill:#FFFFFF;" d="M83.707,109.346c-0.525,0.887-0.558,2.003-0.033,2.89
		l3.645,6.568l0,0c0.361,0.657,0.985,1.149,1.708,1.379c0.723,0.197,1.511,0.131,2.167-0.23c0.657-0.361,1.149-0.985,1.346-1.708
		s0.099-1.511-0.263-2.167l-3.645-6.568l0,0c-0.493-0.887-1.412-1.478-2.43-1.511C85.217,107.967,84.232,108.46,83.707,109.346
		L83.707,109.346z"/>
	<path style="fill-rule:evenodd;clip-rule:evenodd;fill:#FFFFFF;" d="M70.669,114.568c-0.361,0.657-0.46,1.412-0.263,2.102
		l1.806,7.291c0.164,0.755,0.624,1.379,1.281,1.773c0.657,0.394,1.445,0.525,2.167,0.328c0.755-0.197,1.379-0.657,1.773-1.314
		c0.394-0.657,0.493-1.445,0.296-2.167l-1.806-7.291l0,0c-0.263-1.149-1.215-2.003-2.365-2.167
		C72.376,112.959,71.227,113.55,70.669,114.568L70.669,114.568z"/>
	<path style="fill-rule:evenodd;clip-rule:evenodd;fill:#FFFFFF;" d="M56.876,115.98c-0.296,0.46-0.46,0.985-0.46,1.544
		l-0.131,7.521c-0.033,0.755,0.263,1.511,0.788,2.069c0.525,0.558,1.248,0.887,2.003,0.887s1.478-0.263,2.036-0.821
		c0.558-0.525,0.854-1.248,0.854-2.036l0.131-7.521c0.033-1.281-0.788-2.43-2.003-2.791
		C58.879,114.437,57.565,114.929,56.876,115.98L56.876,115.98z"/>
	<path style="fill-rule:evenodd;clip-rule:evenodd;fill:#FFFFFF;" d="M74.577,3.763c-0.131,0.23-0.23,0.46-0.296,0.723l-2.069,7.225
		c-0.23,0.723-0.131,1.511,0.23,2.2c0.361,0.657,0.985,1.149,1.708,1.379c0.723,0.197,1.511,0.131,2.167-0.263
		c0.657-0.361,1.149-1.018,1.346-1.741l2.069-7.225l0,0c0.427-1.379-0.263-2.857-1.576-3.415
		C76.843,2.055,75.332,2.548,74.577,3.763L74.577,3.763z"/>
	<path style="fill-rule:evenodd;clip-rule:evenodd;fill:#FFFFFF;" d="M42.984,114.01c-0.131,0.23-0.23,0.46-0.296,0.723
		l-2.069,7.225l0,0c-0.23,0.723-0.131,1.511,0.23,2.2c0.361,0.69,0.985,1.182,1.708,1.379c0.723,0.197,1.511,0.131,2.167-0.263
		c0.657-0.361,1.149-0.985,1.346-1.741l2.069-7.225c0.427-1.379-0.263-2.857-1.576-3.415
		C45.25,112.302,43.706,112.795,42.984,114.01L42.984,114.01z"/>
	<path style="fill-rule:evenodd;clip-rule:evenodd;fill:#FFFFFF;" d="M85.349,16.604c-0.394,0.657-0.525,1.412-0.361,2.167
		c0.164,0.723,0.657,1.379,1.314,1.773c0.657,0.394,1.445,0.493,2.167,0.328c0.723-0.197,1.379-0.657,1.741-1.314l3.875-6.437
		c0.394-0.657,0.525-1.412,0.361-2.168c-0.164-0.723-0.657-1.379-1.314-1.773c-0.657-0.394-1.445-0.493-2.167-0.328
		c-0.723,0.197-1.379,0.657-1.741,1.314L85.349,16.604z"/>
	<path style="fill-rule:evenodd;clip-rule:evenodd;fill:#FFFFFF;" d="M26.268,114.896c-0.394,0.657-0.525,1.412-0.361,2.167
		c0.164,0.723,0.657,1.379,1.314,1.773s1.445,0.493,2.167,0.328c0.723-0.197,1.379-0.657,1.741-1.314l3.875-6.437
		c0.394-0.657,0.525-1.412,0.361-2.167c-0.164-0.723-0.657-1.379-1.314-1.773s-1.445-0.493-2.167-0.328
		c-0.723,0.197-1.379,0.657-1.741,1.314L26.268,114.896z"/>
	<path style="fill-rule:evenodd;clip-rule:evenodd;fill:#FFFFFF;" d="M96.219,25.405c-0.69,1.248-0.394,2.791,0.755,3.645
		c1.117,0.854,2.726,0.755,3.744-0.23l5.419-5.222c0.558-0.525,0.887-1.248,0.92-2.003c0-0.755-0.263-1.511-0.788-2.036
		c-0.525-0.558-1.248-0.854-2.036-0.854c-0.755,0-1.478,0.296-2.036,0.821l-5.419,5.222l0,0
		C96.547,24.912,96.35,25.142,96.219,25.405L96.219,25.405z"/>
	<path style="fill-rule:evenodd;clip-rule:evenodd;fill:#FFFFFF;" d="M13.723,105.077c-0.69,1.248-0.394,2.791,0.755,3.678
		c1.117,0.854,2.726,0.755,3.744-0.23l5.419-5.222l0,0c0.558-0.525,0.887-1.248,0.92-2.003c0.033-0.755-0.263-1.511-0.788-2.036
		c-0.525-0.558-1.248-0.854-2.003-0.854c-0.755,0-1.511,0.296-2.036,0.821l-5.484,5.156
		C14.051,104.584,13.854,104.814,13.723,105.077L13.723,105.077z"/>
	<path style="fill-rule:evenodd;clip-rule:evenodd;fill:#FFFFFF;" d="M104.626,36.505c-0.723,1.084-0.591,2.562,0.328,3.514
		c0.92,0.952,2.332,1.149,3.481,0.525l6.568-3.645c0.657-0.361,1.182-0.985,1.379-1.708c0.23-0.723,0.131-1.511-0.23-2.2
		c-0.361-0.657-0.985-1.149-1.741-1.346c-0.722-0.197-1.511-0.099-2.167,0.296l-6.568,3.645
		C105.25,35.75,104.889,36.111,104.626,36.505L104.626,36.505z"/>
	<path style="fill-rule:evenodd;clip-rule:evenodd;fill:#FFFFFF;" d="M4.33,92.072c-0.723,1.084-0.591,2.562,0.296,3.514
		c0.887,0.952,2.332,1.182,3.481,0.525l6.568-3.645l0,0c0.657-0.361,1.182-0.985,1.379-1.708c0.23-0.723,0.131-1.511-0.23-2.2
		c-0.361-0.657-0.985-1.149-1.741-1.346c-0.723-0.197-1.511-0.099-2.168,0.263L5.348,91.12C4.954,91.35,4.593,91.678,4.33,92.072
		L4.33,92.072z"/>
	<path style="fill-rule:evenodd;clip-rule:evenodd;fill:#FFFFFF;" d="M109.717,49.576c-0.591,0.985-0.525,2.233,0.164,3.186
		c0.69,0.92,1.872,1.346,2.989,1.051l7.291-1.806l0,0c0.755-0.164,1.379-0.624,1.773-1.281c0.394-0.657,0.525-1.445,0.328-2.167
		c-0.197-0.755-0.657-1.379-1.314-1.773c-0.657-0.394-1.445-0.493-2.167-0.296l-7.291,1.806l0,0
		C110.735,48.459,110.111,48.919,109.717,49.576L109.717,49.576z"/>
	<path style="fill-rule:evenodd;clip-rule:evenodd;fill:#FFFFFF;" d="M111.227,63.566c-0.493,0.887-0.46,1.938,0.033,2.824
		c0.493,0.854,1.445,1.379,2.43,1.412l7.521,0.131c0.755,0.033,1.478-0.263,2.036-0.788c0.558-0.525,0.854-1.248,0.887-2.003
		c0.033-0.755-0.263-1.478-0.821-2.036c-0.525-0.558-1.248-0.854-2.003-0.854l-7.521-0.131
		C112.738,62.055,111.753,62.614,111.227,63.566L111.227,63.566z"/>
	<path style="fill-rule:evenodd;clip-rule:evenodd;fill:#FFFFFF;" d="M109.257,77.228c-0.493,0.755-0.558,1.708-0.23,2.562
		c0.328,0.854,1.051,1.478,1.905,1.708l7.225,2.069c0.723,0.197,1.511,0.131,2.167-0.23c0.657-0.361,1.149-0.985,1.379-1.708
		c0.197-0.723,0.131-1.511-0.263-2.167c-0.361-0.657-0.985-1.149-1.708-1.346l-7.225-2.069l0,0
		C111.26,75.652,109.946,76.144,109.257,77.228L109.257,77.228z"/>
</g>
<g>
	
		<linearGradient id="SVGID_1_" gradientUnits="userSpaceOnUse" x1="30.3073" y1="65.7113" x2="53.066" y2="65.7113" gradientTransform="matrix(1 0 0 -1 0 130)">
		<stop  offset="0" style="stop-color:#AAFFA9"/>
		<stop  offset="1" style="stop-color:#11FFBD"/>
	</linearGradient>
	<path style="fill:url(#SVGID_1_);" d="M30.307,79.231V49.346h22.759v3.021H33.657V76.21h19.409v3.021H30.307z M52.672,63.599v3.021
		H38.353v-3.021H52.672z"/>
	
		<linearGradient id="SVGID_00000125568441653614025270000015781192301408381629_" gradientUnits="userSpaceOnUse" x1="60.1924" y1="64.9231" x2="91.6517" y2="64.9231" gradientTransform="matrix(1 0 0 -1 0 130)">
		<stop  offset="0" style="stop-color:#AAFFA9"/>
		<stop  offset="1" style="stop-color:#11FFBD"/>
	</linearGradient>
	<path style="fill:url(#SVGID_00000125568441653614025270000015781192301408381629_);" d="M75.858,80.808L60.192,49.346h3.842
		l11.823,24.269l11.987-24.269h3.842L75.858,80.808z"/>
</g>
</svg>
