<?xml version="1.0" encoding="UTF-8"?>
<svg id="Layer_1" data-name="Layer 1" xmlns="http://www.w3.org/2000/svg" viewBox="0 0 128 128">
  <defs>
    <style>
      .cls-1 {
        fill: #aafe02;
      }

      .cls-2 {
        fill: #191919;
      }
    </style>
  </defs>
  <rect class="cls-2" width="128" height="128"/>
  <g>
    <path class="cls-1" d="m73.71,101.9l-3.19-4.47h-1.2v4.47h-1.67v-10.19h1.67v4.16h1.19l2.9-4.16h2.06l-3.48,4.91,3.8,5.27h-2.08,0Z"/>
    <path class="cls-1" d="m83.5,97.99c0,.18-.02.35-.03.53h-6.38c.2,1.27,1.12,2.05,2.4,2.05.94,0,1.7-.43,2.11-1.15h1.7c-.62,1.66-2.06,2.67-3.81,2.67-2.3,0-4.04-1.77-4.04-4.12s1.73-4.12,4.04-4.12,4.01,1.85,4.01,4.14h0Zm-4.01-2.68c-1.21,0-2.1.73-2.37,1.9h4.75c-.29-1.19-1.19-1.9-2.39-1.9h0Z"/>
    <path class="cls-1" d="m89.1,93.99v1.53h-.85c-1.34,0-2,.76-2,2.18v4.19h-1.61v-7.85h1.09l.27,1.07c.56-.74,1.33-1.11,2.4-1.11h.7,0Z"/>
    <path class="cls-1" d="m98.22,97.97c0,2.35-1.71,4.12-4.09,4.12-1.1,0-2.07-.4-2.77-1.08l-.21.89h-1.22v-10.67h1.61v3.54c.69-.58,1.58-.91,2.59-.91,2.38,0,4.09,1.76,4.09,4.12h0Zm-1.65,0c0-1.48-1.08-2.58-2.56-2.58s-2.57,1.11-2.57,2.58,1.09,2.57,2.57,2.57,2.56-1.1,2.56-2.57Z"/>
  </g>
  <rect class="cls-1" x="41.86" y="100.39" width="23.39" height="1.51"/>
  <g>
    <path class="cls-1" d="m34.02,24.28c3.05,0,5.28,2.22,5.28,5.24,0,2.41-1.5,4.34-3.79,4.88v-1.69c1.36-.49,2.18-1.68,2.18-3.18,0-2.04-1.53-3.54-3.66-3.54s-3.65,1.5-3.65,3.54c0,1.56.88,2.76,2.33,3.22v1.7c-2.4-.53-3.94-2.46-3.94-4.92,0-3.02,2.23-5.24,5.27-5.24h0Z"/>
    <path class="cls-1" d="m28.73,39.42c0-2.4,1.76-4.2,4.12-4.2s4.12,1.8,4.12,4.2-1.76,4.2-4.12,4.2-4.12-1.8-4.12-4.2h0Zm4.12,2.56c1.51,0,2.58-1.07,2.58-2.56s-1.07-2.56-2.58-2.56-2.58,1.07-2.58,2.56,1.07,2.56,2.58,2.56Z"/>
    <path class="cls-1" d="m36.96,48.92c0,1.84-1.37,2.99-3.31,2.99h-4.73v-1.61h4.41c1.43,0,2.18-.62,2.18-1.8s-.99-2.11-2.38-2.11h-4.21v-1.61h7.85v1.13l-1.1.31c.79.59,1.28,1.56,1.28,2.72h0Z"/>
    <path class="cls-1" d="m36.96,57.68c0,1.84-1.37,2.99-3.31,2.99h-4.73v-1.61h4.41c1.43,0,2.18-.62,2.18-1.8s-.99-2.11-2.38-2.11h-4.21v-1.61h7.85v1.13l-1.1.31c.79.59,1.28,1.56,1.28,2.72h0Z"/>
    <path class="cls-1" d="m32.84,69.93c-.18,0-.35-.02-.53-.03v-6.38c-1.27.2-2.05,1.12-2.05,2.4,0,.94.43,1.7,1.15,2.11v1.7c-1.66-.62-2.67-2.06-2.67-3.81,0-2.3,1.77-4.04,4.12-4.04s4.12,1.73,4.12,4.04-1.85,4.01-4.14,4.01h0Zm2.68-4.01c0-1.21-.73-2.1-1.9-2.37v4.75c1.19-.29,1.9-1.19,1.9-2.39h0Z"/>
    <path class="cls-1" d="m32.87,70.72c2.35,0,4.11,1.77,4.11,4.12,0,1.94-1.19,3.46-2.99,3.9v-1.6c.9-.41,1.45-1.28,1.45-2.3,0-1.41-1.12-2.48-2.57-2.48s-2.58,1.07-2.58,2.48c0,1.03.55,1.86,1.51,2.29v1.63c-1.83-.43-3.05-1.98-3.05-3.92,0-2.34,1.78-4.12,4.13-4.12h0Z"/>
    <path class="cls-1" d="m30.39,84.41h-1.47v-1.2c0-1.72,1.06-2.78,2.8-2.78h3.68v-1.41h.31l2.9,2.73v.27h-1.83v2.34h-1.39v-2.33h-3.55c-.94,0-1.46.52-1.46,1.47v.89h0Z"/>
    <path class="cls-1" d="m32.84,92.85c-.18,0-.35-.02-.53-.03v-6.38c-1.27.2-2.05,1.12-2.05,2.4,0,.94.43,1.7,1.15,2.11v1.7c-1.66-.62-2.67-2.06-2.67-3.81,0-2.3,1.77-4.04,4.12-4.04s4.12,1.73,4.12,4.04-1.85,4.01-4.14,4.01h0Zm2.68-4.01c0-1.21-.73-2.1-1.9-2.37v4.75c1.19-.29,1.9-1.19,1.9-2.39h0Z"/>
    <path class="cls-1" d="m39.6,100.31v1.61h-10.67v-1.22l.89-.21c-.68-.71-1.09-1.67-1.09-2.77,0-2.38,1.77-4.09,4.13-4.09s4.12,1.71,4.12,4.09c0,1.01-.34,1.9-.92,2.59h3.54Zm-9.32-2.46c0,1.48,1.12,2.57,2.58,2.57s2.58-1.09,2.58-2.57-1.1-2.56-2.58-2.56-2.58,1.08-2.58,2.56h0Z"/>
  </g>
</svg>