<?xml version="1.0" encoding="iso-8859-1"?>
<!-- Generator: Adobe Illustrator 27.7.0, SVG Export Plug-In . SVG Version: 6.00 Build 0)  -->
<svg version="1.1" id="Layer_1" xmlns="http://www.w3.org/2000/svg" xmlns:xlink="http://www.w3.org/1999/xlink" x="0px" y="0px"
	 viewBox="0 0 128 128" style="enable-background:new 0 0 128 128;" xml:space="preserve">
<g>
	<g>
		<path style="fill:#0371AD;" d="M92.63,59.884c-0.362-0.769-0.859-1.402-1.493-1.9c-0.633-0.498-1.402-0.859-2.261-1.131
			c-0.859-0.226-1.809-0.362-2.849-0.362c-1.312,0-2.533,0.226-3.618,0.678s-1.99,1.086-2.759,1.9
			c-0.769,0.769-1.312,1.719-1.719,2.804l0,0c-0.407,1.04-0.588,2.171-0.588,3.392c0,2.035,0.633,3.709,1.945,4.704
			c1.266,0.995,2.985,1.538,5.066,1.538c1.357,0,2.623-0.226,3.709-0.678c1.086-0.452,1.99-1.221,2.759-2.035
			c0.769-0.814,1.357-1.764,1.764-2.804c0.407-1.086,0.588-2.216,0.588-3.437C93.173,61.512,92.992,60.608,92.63,59.884
			 M88.424,64.407c-0.181,0.633-0.407,1.266-0.769,1.809c-0.317,0.543-0.769,0.995-1.266,1.357s-1.131,0.543-1.854,0.543
			c-0.452,0-0.814-0.09-1.176-0.226c-0.317-0.136-0.633-0.362-0.859-0.633c-0.226-0.271-0.407-0.543-0.498-0.905
			c-0.136-0.362-0.181-0.724-0.181-1.086c0-0.543,0.09-1.176,0.271-1.809c0.181-0.633,0.407-1.221,0.724-1.764
			c0.317-0.543,0.769-0.995,1.266-1.357c0.498-0.362,1.131-0.543,1.809-0.543c0.995,0,1.719,0.271,2.126,0.724
			c0.407,0.498,0.633,1.221,0.633,2.081C88.65,63.141,88.605,63.774,88.424,64.407"/>
		<path style="fill:#0371AD;" d="M67.89,61.648c0.317-0.543,0.769-0.995,1.266-1.357c0.498-0.362,1.131-0.543,1.809-0.543
			c0.995,0,1.719,0.271,2.126,0.724c0.407,0.498,0.633,1.221,0.633,2.081l4.478-0.045c0-0.995-0.181-1.9-0.498-2.669
			c-0.362-0.769-0.859-1.402-1.493-1.9c-0.633-0.498-1.402-0.859-2.261-1.131c-0.859-0.226-1.809-0.362-2.849-0.362
			c-0.498,0-1.854-0.136-5.925,0.271c-1.312,0.136-2.307,0.362-3.302,0.859c-0.678,0.317-1.583,0.814-1.99,1.357l0.498-1.99h-4.478
			L52.647,70.83h4.613l1.357-5.88c0.136-0.543,0.317-1.086,0.543-1.628c0.226-0.498,0.498-0.95,0.905-1.357
			c0.362-0.407,0.814-0.724,1.357-0.95c0.543-0.226,1.221-0.362,1.99-0.362c0.045,0,0.045,0,0.09,0
			c-0.181,0.362-0.362,0.678-0.498,1.086c-0.407,1.04-0.588,2.171-0.588,3.392c0,2.035,0.633,3.709,1.945,4.704
			c1.266,0.995,2.985,1.538,5.066,1.538c1.357,0,2.623-0.226,3.709-0.678s1.99-1.221,2.759-2.035
			c0.769-0.814,1.493-2.035,1.854-3.076h-4.84c-0.317,0.814-0.95,1.493-1.493,1.854c-0.498,0.362-1.131,0.543-1.854,0.543
			c-0.452,0-0.814-0.09-1.176-0.226c-0.317-0.136-0.633-0.362-0.859-0.633c-0.226-0.271-0.407-0.543-0.498-0.905
			c-0.136-0.362-0.181-0.724-0.181-1.086c0-0.543,0.09-1.176,0.271-1.809C67.302,62.824,67.573,62.191,67.89,61.648"/>
		<path style="fill:#0371AD;" d="M51.155,70.016c0-0.271,0-0.543,0.045-0.905c0.045-0.317,0.09-0.633,0.181-0.859l1.402-5.382
			c0.226-0.859,0.362-1.674,0.362-2.307c0-0.814-0.181-1.493-0.633-1.99s-0.995-0.859-1.674-1.131
			c-0.678-0.271-1.402-0.407-2.171-0.498c-0.769-0.09-1.538-0.136-2.261-0.136c-0.09,0-0.226,0-0.317,0l0,0l-11.172,0.136
			l-4.613,9.001l-0.452-8.955h-4.568l-4.387,9.001l-0.543-9.001L8.232,56.808c-1.176,0-2.216,0.09-3.302,0.226
			c-0.859,0.136-1.583,0.362-2.261,0.724c-0.678,0.317-1.221,0.814-1.673,1.402c-0.407,0.588-0.633,1.357-0.633,2.261
			c0,0.633,0.136,1.176,0.452,1.628s0.724,0.814,1.221,1.086s1.04,0.498,1.673,0.678c0.633,0.181,1.221,0.317,1.854,0.452
			c1.538,0.271,2.714,0.543,3.573,0.814c0.769,0.226,1.131,0.588,1.131,1.04c0,0.271-0.09,0.498-0.226,0.678
			c-0.181,0.181-0.362,0.362-0.633,0.452c-0.271,0.136-0.543,0.226-0.859,0.271c-0.317,0.045-0.633,0.09-0.905,0.09
			c-0.407,0-0.814-0.045-1.176-0.136s-0.678-0.226-0.995-0.362c-0.271-0.181-0.498-0.362-0.678-0.633s-0.271-0.543-0.271-0.905
			v-0.226H0v0.226c0.045,0.95,0.317,1.764,0.769,2.397s1.04,1.131,1.764,1.538c0.724,0.362,1.583,0.633,2.442,0.769
			c0.905,0.181,1.809,0.226,2.714,0.226s1.809-0.09,2.669-0.226c0.905-0.136,1.628-0.407,2.307-0.769
			c0.678-0.362,1.266-0.905,1.719-1.538s0.678-1.447,0.678-2.352c0-0.678-0.136-1.221-0.452-1.719
			c-0.317-0.452-0.724-0.859-1.176-1.131c-0.498-0.317-1.04-0.543-1.673-0.724c-0.588-0.181-1.221-0.317-1.854-0.452
			c-0.588-0.136-1.221-0.226-1.809-0.362c-0.588-0.09-1.131-0.226-1.538-0.362c-0.452-0.136-0.769-0.271-1.04-0.498
			c-0.226-0.181-0.362-0.362-0.362-0.633c0-0.226,0.045-0.407,0.181-0.498c0.136-0.136,0.317-0.271,0.498-0.317
			c0.226-0.09,0.452-0.136,0.724-0.136c0.271-0.045,0.498-0.045,0.769-0.045l0,0l8.639,0.136l1.357,11.126h4.704l4.478-9.136
			l0.498,9.136h4.794l6.242-11.126l8.367-0.136c0.181,0,0.362,0.045,0.543,0.045c0.271,0.045,0.543,0.136,0.814,0.226
			c0.226,0.09,0.452,0.271,0.633,0.452c0.136,0.181,0.226,0.407,0.226,0.678c0,0.362-0.09,0.633-0.317,0.814
			s-0.543,0.317-0.995,0.452c-0.498,0.09-1.086,0.181-1.854,0.226c-0.724,0.045-1.583,0.136-2.669,0.226
			c-1.945,0.181-3.437,0.678-4.523,1.493c-1.086,0.814-1.628,1.9-1.628,3.257c0,0.498,0.09,0.995,0.317,1.402
			c0.226,0.452,0.543,0.905,0.995,1.266c0.452,0.317,1.04,0.678,1.673,0.859c0.633,0.181,1.447,0.317,2.307,0.317
			c0.905,0,1.854-0.271,2.714-0.543c0.724-0.226,1.357-0.543,1.9-0.995v0.995h4.794l-0.045-0.226
			C51.2,70.468,51.155,70.242,51.155,70.016 M47.401,65.628c-0.136,0.362-0.271,0.724-0.452,1.04
			c-0.181,0.362-0.407,0.633-0.678,0.905s-0.678,0.498-1.086,0.678c-0.452,0.181-0.995,0.271-1.628,0.271
			c-0.588,0-1.131-0.136-1.538-0.362c-0.407-0.226-0.588-0.498-0.588-0.95c0-0.362,0.09-0.678,0.226-0.905
			c0.181-0.226,0.362-0.452,0.633-0.588s0.588-0.271,0.95-0.317c0.362-0.09,0.769-0.136,1.131-0.181
			c0.633-0.045,1.266-0.09,1.9-0.136c0.498-0.045,0.95-0.136,1.402-0.317L47.401,65.628z"/>
	</g>
	<polygon points="122.753,56.22 128,63.095 114.024,63.095 108.958,56.22 113.888,49.21 128,49.21 	"/>
	<polygon style="fill:#F49223;" points="123.567,51.471 120.04,56.13 123.658,60.698 115.155,60.698 112.034,56.13 115.471,51.471 	
		"/>
	<polygon points="128,64.905 113.888,64.905 108.958,71.915 114.024,78.79 128,78.79 122.753,71.915 	"/>
	<polygon style="fill:#F49223;" points="123.567,67.166 120.04,71.825 123.658,76.393 115.155,76.393 112.034,71.87 115.471,67.211 
			"/>
	<polygon points="92.992,57.08 107.149,57.08 112.079,64.09 106.968,70.965 93.037,70.965 98.239,64.09 	"/>
	<polygon style="fill:#F49223;" points="105.521,59.387 108.958,64 105.883,68.568 97.334,68.568 100.953,64 97.425,59.341 	"/>
</g>
<g style="opacity:0.6;">
	<g>
		<path style="fill:#FFFFFF;" d="M92.63,59.884c-0.362-0.769-0.859-1.402-1.493-1.9c-0.633-0.498-1.402-0.859-2.261-1.131
			c-0.859-0.226-1.809-0.362-2.849-0.362c-1.312,0-2.533,0.226-3.618,0.678s-1.99,1.086-2.759,1.9
			c-0.769,0.769-1.312,1.719-1.719,2.804l0,0c-0.407,1.04-0.588,2.171-0.588,3.392c0,2.035,0.633,3.709,1.945,4.704
			c1.266,0.995,2.985,1.538,5.066,1.538c1.357,0,2.623-0.226,3.709-0.678c1.086-0.452,1.99-1.221,2.759-2.035
			c0.769-0.814,1.357-1.764,1.764-2.804c0.407-1.086,0.588-2.216,0.588-3.437C93.173,61.512,92.992,60.608,92.63,59.884
			 M88.424,64.407c-0.181,0.633-0.407,1.266-0.769,1.809c-0.317,0.543-0.769,0.995-1.266,1.357s-1.131,0.543-1.854,0.543
			c-0.452,0-0.814-0.09-1.176-0.226c-0.317-0.136-0.633-0.362-0.859-0.633c-0.226-0.271-0.407-0.543-0.498-0.905
			c-0.136-0.362-0.181-0.724-0.181-1.086c0-0.543,0.09-1.176,0.271-1.809c0.181-0.633,0.407-1.221,0.724-1.764
			c0.317-0.543,0.769-0.995,1.266-1.357c0.498-0.362,1.131-0.543,1.809-0.543c0.995,0,1.719,0.271,2.126,0.724
			c0.407,0.498,0.633,1.221,0.633,2.081C88.65,63.141,88.605,63.774,88.424,64.407"/>
		<path style="fill:#FFFFFF;" d="M67.89,61.648c0.317-0.543,0.769-0.995,1.266-1.357c0.498-0.362,1.131-0.543,1.809-0.543
			c0.995,0,1.719,0.271,2.126,0.724c0.407,0.498,0.633,1.221,0.633,2.081l4.478-0.045c0-0.995-0.181-1.9-0.498-2.669
			c-0.362-0.769-0.859-1.402-1.493-1.9c-0.633-0.498-1.402-0.859-2.261-1.131c-0.859-0.226-1.809-0.362-2.849-0.362
			c-0.498,0-1.854-0.136-5.925,0.271c-1.312,0.136-2.307,0.362-3.302,0.859c-0.678,0.317-1.583,0.814-1.99,1.357l0.498-1.99h-4.478
			L52.647,70.83h4.613l1.357-5.88c0.136-0.543,0.317-1.086,0.543-1.628c0.226-0.498,0.498-0.95,0.905-1.357
			c0.362-0.407,0.814-0.724,1.357-0.95c0.543-0.226,1.221-0.362,1.99-0.362c0.045,0,0.045,0,0.09,0
			c-0.181,0.362-0.362,0.678-0.498,1.086c-0.407,1.04-0.588,2.171-0.588,3.392c0,2.035,0.633,3.709,1.945,4.704
			c1.266,0.995,2.985,1.538,5.066,1.538c1.357,0,2.623-0.226,3.709-0.678s1.99-1.221,2.759-2.035
			c0.769-0.814,1.493-2.035,1.854-3.076h-4.84c-0.317,0.814-0.95,1.493-1.493,1.854c-0.498,0.362-1.131,0.543-1.854,0.543
			c-0.452,0-0.814-0.09-1.176-0.226c-0.317-0.136-0.633-0.362-0.859-0.633c-0.226-0.271-0.407-0.543-0.498-0.905
			c-0.136-0.362-0.181-0.724-0.181-1.086c0-0.543,0.09-1.176,0.271-1.809C67.302,62.824,67.573,62.191,67.89,61.648"/>
		<path style="fill:#FFFFFF;" d="M51.155,70.016c0-0.271,0-0.543,0.045-0.905c0.045-0.317,0.09-0.633,0.181-0.859l1.402-5.382
			c0.226-0.859,0.362-1.674,0.362-2.307c0-0.814-0.181-1.493-0.633-1.99s-0.995-0.859-1.674-1.131
			c-0.678-0.271-1.402-0.407-2.171-0.498c-0.769-0.09-1.538-0.136-2.261-0.136c-0.09,0-0.226,0-0.317,0l0,0l-11.172,0.136
			l-4.613,9.001l-0.452-8.955h-4.568l-4.387,9.001l-0.543-9.001L8.232,56.808c-1.176,0-2.216,0.09-3.302,0.226
			c-0.859,0.136-1.583,0.362-2.261,0.724c-0.678,0.317-1.221,0.814-1.673,1.402c-0.407,0.588-0.633,1.357-0.633,2.261
			c0,0.633,0.136,1.176,0.452,1.628s0.724,0.814,1.221,1.086s1.04,0.498,1.673,0.678c0.633,0.181,1.221,0.317,1.854,0.452
			c1.538,0.271,2.714,0.543,3.573,0.814c0.769,0.226,1.131,0.588,1.131,1.04c0,0.271-0.09,0.498-0.226,0.678
			c-0.181,0.181-0.362,0.362-0.633,0.452c-0.271,0.136-0.543,0.226-0.859,0.271c-0.317,0.045-0.633,0.09-0.905,0.09
			c-0.407,0-0.814-0.045-1.176-0.136s-0.678-0.226-0.995-0.362c-0.271-0.181-0.498-0.362-0.678-0.633s-0.271-0.543-0.271-0.905
			v-0.226H0v0.226c0.045,0.95,0.317,1.764,0.769,2.397s1.04,1.131,1.764,1.538c0.724,0.362,1.583,0.633,2.442,0.769
			c0.905,0.181,1.809,0.226,2.714,0.226s1.809-0.09,2.669-0.226c0.905-0.136,1.628-0.407,2.307-0.769
			c0.678-0.362,1.266-0.905,1.719-1.538s0.678-1.447,0.678-2.352c0-0.678-0.136-1.221-0.452-1.719
			c-0.317-0.452-0.724-0.859-1.176-1.131c-0.498-0.317-1.04-0.543-1.673-0.724c-0.588-0.181-1.221-0.317-1.854-0.452
			c-0.588-0.136-1.221-0.226-1.809-0.362c-0.588-0.09-1.131-0.226-1.538-0.362c-0.452-0.136-0.769-0.271-1.04-0.498
			c-0.226-0.181-0.362-0.362-0.362-0.633c0-0.226,0.045-0.407,0.181-0.498c0.136-0.136,0.317-0.271,0.498-0.317
			c0.226-0.09,0.452-0.136,0.724-0.136c0.271-0.045,0.498-0.045,0.769-0.045l0,0l8.639,0.136l1.357,11.126h4.704l4.478-9.136
			l0.498,9.136h4.794l6.242-11.126l8.367-0.136c0.181,0,0.362,0.045,0.543,0.045c0.271,0.045,0.543,0.136,0.814,0.226
			c0.226,0.09,0.452,0.271,0.633,0.452c0.136,0.181,0.226,0.407,0.226,0.678c0,0.362-0.09,0.633-0.317,0.814
			s-0.543,0.317-0.995,0.452c-0.498,0.09-1.086,0.181-1.854,0.226c-0.724,0.045-1.583,0.136-2.669,0.226
			c-1.945,0.181-3.437,0.678-4.523,1.493c-1.086,0.814-1.628,1.9-1.628,3.257c0,0.498,0.09,0.995,0.317,1.402
			c0.226,0.452,0.543,0.905,0.995,1.266c0.452,0.317,1.04,0.678,1.673,0.859c0.633,0.181,1.447,0.317,2.307,0.317
			c0.905,0,1.854-0.271,2.714-0.543c0.724-0.226,1.357-0.543,1.9-0.995v0.995h4.794l-0.045-0.226
			C51.2,70.468,51.155,70.242,51.155,70.016 M47.401,65.628c-0.136,0.362-0.271,0.724-0.452,1.04
			c-0.181,0.362-0.407,0.633-0.678,0.905s-0.678,0.498-1.086,0.678c-0.452,0.181-0.995,0.271-1.628,0.271
			c-0.588,0-1.131-0.136-1.538-0.362c-0.407-0.226-0.588-0.498-0.588-0.95c0-0.362,0.09-0.678,0.226-0.905
			c0.181-0.226,0.362-0.452,0.633-0.588s0.588-0.271,0.95-0.317c0.362-0.09,0.769-0.136,1.131-0.181
			c0.633-0.045,1.266-0.09,1.9-0.136c0.498-0.045,0.95-0.136,1.402-0.317L47.401,65.628z"/>
	</g>
	<polygon style="fill:#FFFFFF;" points="122.753,56.22 128,63.095 114.024,63.095 108.958,56.22 113.888,49.21 128,49.21 	"/>
	<polygon style="fill:#FFFFFF;" points="123.567,51.471 120.04,56.13 123.658,60.698 115.155,60.698 112.034,56.13 115.471,51.471 	
		"/>
	<polygon style="fill:#FFFFFF;" points="128,64.905 113.888,64.905 108.958,71.915 114.024,78.79 128,78.79 122.753,71.915 	"/>
	<polygon style="fill:#FFFFFF;" points="123.567,67.166 120.04,71.825 123.658,76.393 115.155,76.393 112.034,71.87 115.471,67.211 
			"/>
	<polygon style="fill:#FFFFFF;" points="92.992,57.08 107.149,57.08 112.079,64.09 106.968,70.965 93.037,70.965 98.239,64.09 	"/>
	<polygon style="fill:#FFFFFF;" points="105.521,59.387 108.958,64 105.883,68.568 97.334,68.568 100.953,64 97.425,59.341 	"/>
</g>
</svg>
