<?xml version="1.0" encoding="iso-8859-1"?>
<!-- Generator: Adobe Illustrator 27.8.0, SVG Export Plug-In . SVG Version: 6.00 Build 0)  -->
<svg version="1.1" id="Layer_1" xmlns="http://www.w3.org/2000/svg" xmlns:xlink="http://www.w3.org/1999/xlink" x="0px" y="0px"
	 viewBox="0 0 128 128" style="enable-background:new 0 0 128 128;" xml:space="preserve">
<g>
	<path style="fill:#0E2B2E;" d="M52.807,51.963c-1.008-1.089-2.206-1.961-3.595-2.615c-1.389-0.654-2.968-0.98-4.739-0.98
		c-3.323,0-6.046,1.144-8.197,3.432c-2.151,2.288-3.486,5.283-3.949,8.96h25.164c-0.98-2.288-1.498-3.432-2.206-4.902
		C54.386,53.924,53.814,53.079,52.807,51.963z"/>
	<path style="fill:#0E2B2E;" d="M64,0C28.65,0,0,28.65,0,64s28.65,64,64,64s64-28.65,64-64S99.35,0,64,0z M68.521,88.293
		l-8.034-20.426H32.436c0.599,3.867,2.124,6.809,4.575,8.851c2.451,2.042,5.42,3.077,8.906,3.077c2.669,0,4.957-0.463,6.917-1.416
		c1.961-0.953,3.867-2.342,5.774-4.194l3.214,8.415c-2.914,2.696-3.568,2.968-4.929,3.622c-3.159,1.498-6.809,2.397-11.111,2.397
		c-3.377,0-6.509-0.599-9.45-1.77c-2.914-1.198-5.474-2.859-7.625-4.984c-2.151-2.124-3.84-4.711-5.093-7.707
		c-1.253-2.996-1.852-6.318-1.852-9.94v-0.163c0-3.377,0.572-6.563,1.688-9.532c1.117-2.968,2.696-5.556,4.739-7.789
		c2.043-2.233,4.439-3.976,7.217-5.256c2.778-1.28,5.855-1.906,9.205-1.906c3.731,0,6.999,0.681,9.804,2.043
		c2.805,1.362,5.147,3.214,6.999,5.528c1.852,2.315,3.268,5.011,4.221,8.061c0.054,0.163,0.082,0.354,0.136,0.518l9.804,24.02
		l14.788-38.808h11.248L82.465,88.32H68.521V88.293z M100.684,88.619c-3.105,0-5.61-2.506-5.61-5.61c0-3.105,2.506-5.61,5.61-5.61
		c3.105,0,5.61,2.506,5.61,5.61C106.294,86.114,103.762,88.619,100.684,88.619z"/>
</g>
<g style="opacity:0.6;">
	<path style="fill:#FFFFFF;" d="M52.807,51.963c-1.008-1.089-2.206-1.961-3.595-2.615c-1.389-0.654-2.968-0.98-4.739-0.98
		c-3.323,0-6.046,1.144-8.197,3.432c-2.151,2.288-3.486,5.283-3.949,8.96h25.164c-0.98-2.288-1.498-3.432-2.206-4.902
		C54.386,53.924,53.814,53.079,52.807,51.963z"/>
	<path style="fill:#FFFFFF;" d="M64,0C28.65,0,0,28.65,0,64s28.65,64,64,64s64-28.65,64-64S99.35,0,64,0z M68.521,88.293
		l-8.034-20.426H32.436c0.599,3.867,2.124,6.809,4.575,8.851c2.451,2.042,5.42,3.077,8.906,3.077c2.669,0,4.957-0.463,6.917-1.416
		c1.961-0.953,3.867-2.342,5.774-4.194l3.214,8.415c-2.914,2.696-3.568,2.968-4.929,3.622c-3.159,1.498-6.809,2.397-11.111,2.397
		c-3.377,0-6.509-0.599-9.45-1.77c-2.914-1.198-5.474-2.859-7.625-4.984c-2.151-2.124-3.84-4.711-5.093-7.707
		c-1.253-2.996-1.852-6.318-1.852-9.94v-0.163c0-3.377,0.572-6.563,1.688-9.532c1.117-2.968,2.696-5.556,4.739-7.789
		c2.043-2.233,4.439-3.976,7.217-5.256c2.778-1.28,5.855-1.906,9.205-1.906c3.731,0,6.999,0.681,9.804,2.043
		c2.805,1.362,5.147,3.214,6.999,5.528c1.852,2.315,3.268,5.011,4.221,8.061c0.054,0.163,0.082,0.354,0.136,0.518l9.804,24.02
		l14.788-38.808h11.248L82.465,88.32H68.521V88.293z M100.684,88.619c-3.105,0-5.61-2.506-5.61-5.61c0-3.105,2.506-5.61,5.61-5.61
		c3.105,0,5.61,2.506,5.61,5.61C106.294,86.114,103.762,88.619,100.684,88.619z"/>
</g>
</svg>
