<?xml version="1.0" encoding="UTF-8"?>
<svg id="Layer_1" data-name="Layer 1" xmlns="http://www.w3.org/2000/svg" viewBox="0 0 128 128">
  <defs>
    <style>
      .cls-1 {
        fill: #fff;
      }
    </style>
  </defs>
  <g>
    <g>
      <path d="m55.31,51.61c0,1.14.89,2.04,2.04,2.04h1.83c1.14,0,2.04-.89,2.04-2.04v-2.15h24.89v2.15c0,1.14.89,2.04,2.06,2.04h1.81c1.17,0,2.04-.89,2.04-2.04v-10.17c0-2.68-.44-4.21-1.95-5.93l-1.53-1.74-1.69-4.79c-.89-2.56-2.56-3.64-4.72-3.89-1.05-.11-4.53-.21-8.45-.21s-7.42.09-8.47.21c-2.15.25-3.82,1.33-4.72,3.89l-1.69,4.79-1.53,1.74c-1.51,1.72-1.95,3.25-1.95,5.93v10.17Z"/>
      <path class="cls-1" d="m62.86,33.63c-.71,0-.96-.53-.73-1.21l.96-2.89c.41-1.21,1.05-1.63,2.13-1.79,1.12-.14,3.98-.25,8.45-.25s7.3.11,8.43.25c1.08.16,1.69.57,2.11,1.79l.98,2.89c.23.69-.05,1.21-.76,1.21h-21.57Z"/>
      <path class="cls-1" d="m60.8,43.48c-.94,0-1.6-.66-1.6-1.58v-2.47c0-.92.66-1.58,1.6-1.58s1.56.66,1.56,1.58v2.47c0,.92-.66,1.58-1.56,1.58Z"/>
      <path class="cls-1" d="m70.05,42.77c-.73,0-1.19-.48-1.19-1.26v-1.72c0-.76.46-1.21,1.19-1.21h7.12c.73,0,1.21.46,1.21,1.21v1.72c0,.78-.48,1.26-1.21,1.26h-7.12Z"/>
      <path class="cls-1" d="m86.66,43.48c-.89,0-1.58-.69-1.58-1.58v-2.47c0-.92.69-1.58,1.58-1.58s1.58.66,1.58,1.58v2.47c0,.92-.66,1.58-1.58,1.58Z"/>
    </g>
    <path d="m20.85,99.46h5.34c2.25,0,3.39-1.3,4.03-3.34L54.15,24.53c.5-1.51-.1-2.73-1.34-2.73h-2.52c-1.28,0-2.08.69-2.62,2.04l-29.4,70.57c-1.01,2.36-.27,5.06,2.59,5.06Z"/>
    <g>
      <path d="m42.63,96.47c0,1.68,1.31,2.99,2.99,2.99h2.69c1.68,0,2.99-1.31,2.99-2.99v-3.16h36.52v3.16c0,1.68,1.31,2.99,3.02,2.99h2.65c1.71,0,2.99-1.31,2.99-2.99v-14.92c0-3.93-.64-6.18-2.86-8.7l-2.25-2.55-2.49-7.02c-1.31-3.76-3.76-5.34-6.92-5.71-1.55-.17-6.65-.3-12.4-.3s-10.89.13-12.43.3c-3.16.37-5.61,1.95-6.92,5.71l-2.49,7.02-2.25,2.55c-2.22,2.52-2.86,4.77-2.86,8.7v14.92Z"/>
      <path class="cls-1" d="m53.71,70.09c-1.04,0-1.41-.77-1.08-1.78l1.41-4.23c.6-1.78,1.55-2.39,3.12-2.62,1.65-.2,5.85-.37,12.4-.37s10.72.17,12.37.37c1.58.24,2.49.84,3.09,2.62l1.44,4.23c.34,1.01-.07,1.78-1.11,1.78h-31.65Z"/>
      <path class="cls-1" d="m50.69,84.54c-1.38,0-2.35-.97-2.35-2.32v-3.63c0-1.34.97-2.32,2.35-2.32s2.28.97,2.28,2.32v3.63c0,1.34-.97,2.32-2.28,2.32Z"/>
      <path class="cls-1" d="m64.26,83.5c-1.08,0-1.75-.71-1.75-1.85v-2.52c0-1.11.67-1.78,1.75-1.78h10.45c1.08,0,1.78.67,1.78,1.78v2.52c0,1.14-.71,1.85-1.78,1.85h-10.45Z"/>
      <path class="cls-1" d="m88.63,84.54c-1.31,0-2.32-1.01-2.32-2.32v-3.63c0-1.34,1.01-2.32,2.32-2.32s2.32.97,2.32,2.32v3.63c0,1.34-.97,2.32-2.32,2.32Z"/>
    </g>
  </g>
  <path d="m63.98,128c35.03,0,64.02-28.99,64.02-63.98S98.96,0,63.93,0,0,28.99,0,64.02s28.99,63.98,63.98,63.98Zm0-9.14c-30.37,0-54.79-24.47-54.79-54.84S33.56,9.19,63.93,9.19s54.89,24.42,54.89,54.84-24.42,54.84-54.84,54.84Z"/>
</svg>